MSHX1
GROUPS 2
LABEL crest_starboard
MATERIAL 3
TEXTURE 0
GEOM 48 28 ;crest_starboard
-6.051 0.450 -10.729 0.0000 1.0000 0.0000
-6.651 0.450 -10.555 0.0000 1.0000 0.0000
-6.651 0.450 10.645 0.0000 1.0000 0.0000
-6.051 0.450 10.729 0.0000 1.0000 0.0000
6.651 0.450 4.045 0.0000 1.0000 0.0000
6.651 0.450 -2.955 0.0000 1.0000 0.0000
-1.330 0.450 -3.795 0.0000 1.0000 0.0000
-1.330 0.450 -8.955 0.0000 1.0000 0.0000
-6.051 -0.450 -10.729 -0.0000 -1.0000 -0.0000
-6.651 -0.450 -10.555 -0.0000 -1.0000 -0.0000
-6.651 -0.450 10.645 -0.0000 -1.0000 -0.0000
-6.051 -0.450 10.729 -0.0000 -1.0000 -0.0000
6.651 -0.450 4.045 -0.0000 -1.0000 -0.0000
6.651 -0.450 -2.955 -0.0000 -1.0000 -0.0000
-1.330 -0.450 -3.795 -0.0000 -1.0000 -0.0000
-1.330 -0.450 -8.955 -0.0000 -1.0000 -0.0000
-6.051 0.450 -10.729 -0.2792 0.0000 -0.9602
-6.651 0.450 -10.555 -0.2792 0.0000 -0.9602
-6.651 -0.450 -10.555 -0.2792 0.0000 -0.9602
-6.051 -0.450 -10.729 -0.2792 0.0000 -0.9602
-6.651 0.450 -10.555 -1.0000 0.0000 0.0000
-6.651 0.450 10.645 -1.0000 0.0000 0.0000
-6.651 -0.450 10.645 -1.0000 0.0000 0.0000
-6.651 -0.450 -10.555 -1.0000 0.0000 0.0000
-6.651 0.450 10.645 -0.1391 0.0000 0.9903
-6.051 0.450 10.729 -0.1391 0.0000 0.9903
-6.051 -0.450 10.729 -0.1391 0.0000 0.9903
-6.651 -0.450 10.645 -0.1391 0.0000 0.9903
-6.051 0.450 10.729 0.4657 -0.0000 0.8850
6.651 0.450 4.045 0.4657 -0.0000 0.8850
6.651 -0.450 4.045 0.4657 -0.0000 0.8850
-6.051 -0.450 10.729 0.4657 -0.0000 0.8850
6.651 0.450 4.045 1.0000 -0.0000 0.0000
6.651 0.450 -2.955 1.0000 -0.0000 0.0000
6.651 -0.450 -2.955 1.0000 -0.0000 0.0000
6.651 -0.450 4.045 1.0000 -0.0000 0.0000
6.651 0.450 -2.955 0.1047 0.0000 -0.9945
-1.330 0.450 -3.795 0.1047 0.0000 -0.9945
-1.330 -0.450 -3.795 0.1047 0.0000 -0.9945
6.651 -0.450 -2.955 0.1047 0.0000 -0.9945
-1.330 0.450 -3.795 1.0000 -0.0000 0.0000
-1.330 0.450 -8.955 1.0000 -0.0000 0.0000
-1.330 -0.450 -8.955 1.0000 -0.0000 0.0000
-1.330 -0.450 -3.795 1.0000 -0.0000 0.0000
-1.330 0.450 -8.955 0.3518 0.0000 -0.9361
-6.051 0.450 -10.729 0.3518 0.0000 -0.9361
-6.051 -0.450 -10.729 0.3518 0.0000 -0.9361
-1.330 -0.450 -8.955 0.3518 0.0000 -0.9361
6 7 0
6 0 1
6 1 2
6 2 3
6 3 4
6 4 5
14 8 15
14 9 8
14 10 9
14 11 10
14 12 11
14 13 12
16 18 17
16 19 18
20 22 21
20 23 22
24 26 25
24 27 26
28 30 29
28 31 30
32 34 33
32 35 34
36 38 37
36 39 38
40 42 41
40 43 42
44 46 45
44 47 46
LABEL elevon_starboard
MATERIAL 7
TEXTURE 0
GEOM 24 12 ;elevon_starboard
-1.280 0.315 -8.936 0.0000 1.0000 0.0000
-1.280 0.315 -3.870 0.0000 1.0000 0.0000
6.651 0.315 -3.035 0.0000 1.0000 0.0000
6.651 0.315 -5.955 0.0000 1.0000 0.0000
-1.280 -0.315 -8.936 -0.0000 -1.0000 -0.0000
-1.280 -0.315 -3.870 -0.0000 -1.0000 -0.0000
6.651 -0.315 -3.035 -0.0000 -1.0000 -0.0000
6.651 -0.315 -5.955 -0.0000 -1.0000 -0.0000
-1.280 0.315 -8.936 -1.0000 0.0000 0.0000
-1.280 0.315 -3.870 -1.0000 0.0000 0.0000
-1.280 -0.315 -3.870 -1.0000 0.0000 0.0000
-1.280 -0.315 -8.936 -1.0000 0.0000 0.0000
-1.280 0.315 -3.870 -0.1047 0.0000 0.9945
6.651 0.315 -3.035 -0.1047 0.0000 0.9945
6.651 -0.315 -3.035 -0.1047 0.0000 0.9945
-1.280 -0.315 -3.870 -0.1047 0.0000 0.9945
6.651 0.315 -3.035 1.0000 -0.0000 0.0000
6.651 0.315 -5.955 1.0000 -0.0000 0.0000
6.651 -0.315 -5.955 1.0000 -0.0000 0.0000
6.651 -0.315 -3.035 1.0000 -0.0000 0.0000
6.651 0.315 -5.955 0.3518 0.0000 -0.9361
-1.280 0.315 -8.936 0.3518 0.0000 -0.9361
-1.280 -0.315 -8.936 0.3518 0.0000 -0.9361
6.651 -0.315 -5.955 0.3518 0.0000 -0.9361
0 1 2
0 2 3
4 6 5
4 7 6
8 10 9
8 11 10
12 14 13
12 15 14
16 18 17
16 19 18
20 22 21
20 23 22
MATERIALS 13
hull_lacquer
nose_iridium
crest_radiator
structure
boron_nitride
engine_metal
mechanism
dark
band
planetary_cup
rover
shuttle
trap_shell
MATERIAL hull_lacquer
0.620 0.640 0.680 1
0.620 0.640 0.680 1
0.300 0.300 0.320 1 20
0.000 0.000 0.000 1
MATERIAL nose_iridium
0.780 0.760 0.700 1
0.780 0.760 0.700 1
0.950 0.950 0.950 1 80
0.000 0.000 0.000 1
MATERIAL crest_radiator
0.460 0.260 0.180 1
0.460 0.260 0.180 1
0.150 0.150 0.150 1 10
0.000 0.000 0.000 1
MATERIAL structure
0.260 0.270 0.290 1
0.260 0.270 0.290 1
0.200 0.200 0.200 1 15
0.000 0.000 0.000 1
MATERIAL boron_nitride
0.620 0.580 0.920 1
0.620 0.580 0.920 1
0.600 0.600 0.700 1 40
0.080 0.060 0.200 1
MATERIAL engine_metal
0.400 0.400 0.420 1
0.400 0.400 0.420 1
0.500 0.500 0.500 1 40
0.000 0.000 0.000 1
MATERIAL mechanism
0.540 0.560 0.600 1
0.540 0.560 0.600 1
0.700 0.700 0.720 1 50
0.000 0.000 0.000 1
MATERIAL dark
0.070 0.070 0.090 1
0.070 0.070 0.090 1
0.050 0.050 0.050 1 5
0.000 0.000 0.000 1
MATERIAL band
0.280 0.360 0.500 1
0.280 0.360 0.500 1
0.500 0.550 0.650 1 40
0.000 0.000 0.000 1
MATERIAL planetary_cup
0.600 0.700 0.850 1
0.600 0.700 0.850 1
0.700 0.700 0.800 1 50
0.030 0.060 0.100 1
MATERIAL rover
0.550 0.480 0.320 1
0.550 0.480 0.320 1
0.300 0.300 0.300 1 20
0.000 0.000 0.000 1
MATERIAL shuttle
0.850 0.840 0.810 1
0.850 0.840 0.810 1
0.400 0.400 0.400 1 30
0.000 0.000 0.000 1
MATERIAL trap_shell
0.440 0.470 0.560 1
0.440 0.470 0.560 1
0.450 0.450 0.500 1 30
0.000 0.000 0.000 1
TEXTURES 0
