MSHX1
GROUPS 1
LABEL door_top_starboard
MATERIAL 1
TEXTURE 0
GEOM 1550 1500 ;door_top_starboard
5.283 -1.249 -12.850 0.9650 0.2623 -0.0000
5.195 -0.927 -12.850 0.9650 0.2623 -0.0000
5.283 -1.249 -12.550 0.9650 0.2623 -0.0000
5.195 -0.927 -12.550 0.9650 0.2623 -0.0000
5.283 -1.249 -11.550 0.9650 0.2623 -0.0000
5.195 -0.927 -11.550 0.9650 0.2623 -0.0000
5.283 -1.249 -10.550 0.9650 0.2623 0.0061
5.195 -0.927 -10.550 0.9650 0.2623 0.0061
5.277 -1.251 -9.550 0.9650 0.2621 -0.0000
5.190 -0.929 -9.550 0.9650 0.2621 -0.0000
5.277 -1.251 -8.551 0.9633 0.2617 0.0595
5.190 -0.929 -8.551 0.9632 0.2616 0.0621
5.253 -1.390 -7.551 0.9610 0.2695 0.0621
5.163 -1.073 -7.551 0.9608 0.2695 0.0649
5.245 -1.432 -7.251 0.9602 0.2720 0.0629
5.155 -1.116 -7.251 0.9601 0.2719 0.0658
5.240 -1.460 -7.051 0.9597 0.2736 0.0635
5.150 -1.145 -7.051 0.9596 0.2736 0.0664
5.226 -1.530 -6.551 0.9584 0.2779 0.0648
5.136 -1.217 -6.551 0.9566 0.2826 0.0709
5.199 -1.670 -5.551 0.9556 0.2867 0.0679
5.102 -1.364 -5.551 0.9370 0.3392 0.0833
5.169 -1.810 -4.550 0.9544 0.2966 0.0350
5.066 -1.511 -4.550 0.9361 0.3491 0.0426
5.154 -1.880 -3.550 0.9528 0.3015 0.0353
5.047 -1.584 -3.551 0.9041 0.4241 0.0527
5.138 -1.948 -2.550 0.9512 0.3064 0.0363
5.023 -1.658 -2.551 0.8866 0.4591 0.0556
5.122 -2.017 -1.550 0.9398 0.3393 0.0415
4.999 -1.733 -1.551 0.8843 0.4635 0.0564
5.103 -2.087 -0.550 0.9287 0.3685 0.0425
4.974 -1.808 -0.551 0.8819 0.4681 0.0554
5.084 -2.155 0.450 0.9268 0.3736 0.0378
4.949 -1.881 0.449 0.8471 0.5284 0.0567
5.067 -2.214 1.450 0.9252 0.3782 0.0329
4.923 -1.947 1.449 0.8201 0.5699 0.0506
5.052 -2.265 2.450 0.9237 0.3822 0.0276
4.901 -2.004 2.450 0.8183 0.5733 0.0422
5.039 -2.308 3.450 0.8923 0.4507 0.0265
4.882 -2.051 3.450 0.8167 0.5761 0.0335
5.027 -2.343 4.450 0.8736 0.4862 0.0203
4.867 -2.088 4.450 0.8154 0.5783 0.0247
5.018 -2.368 5.450 0.8727 0.4880 0.0132
4.856 -2.115 5.450 0.8145 0.5800 0.0160
5.012 -2.385 6.450 0.8721 0.4892 0.0058
4.849 -2.133 6.450 0.8096 0.5869 0.0070
5.009 -2.392 7.450 0.8719 0.4898 -0.0000
4.846 -2.141 7.450 0.7960 0.6053 -0.0000
5.009 -2.392 8.450 0.8719 0.4898 -0.0000
4.846 -2.141 8.450 0.7960 0.6053 -0.0000
5.009 -2.392 9.450 0.8719 0.4898 -0.0000
4.846 -2.141 9.450 0.7960 0.6053 -0.0000
5.009 -2.392 10.450 0.8719 0.4898 -0.0000
4.846 -2.141 10.450 0.7960 0.6053 -0.0000
5.009 -2.392 11.450 0.8719 0.4898 -0.0000
4.846 -2.141 11.450 0.7960 0.6053 -0.0000
5.009 -2.392 12.450 0.8719 0.4898 -0.0000
4.846 -2.141 12.450 0.7960 0.6053 -0.0000
5.009 -2.392 12.550 0.8719 0.4898 -0.0000
4.846 -2.141 12.550 0.7960 0.6053 -0.0000
5.009 -2.392 12.850 0.8719 0.4898 -0.0000
4.846 -2.141 12.850 0.7960 0.6053 -0.0000
5.195 -0.927 -12.850 0.9650 0.2623 -0.0000
5.034 -0.431 -12.850 0.9071 0.4208 -0.0000
5.195 -0.927 -12.550 0.9650 0.2623 -0.0000
5.034 -0.431 -12.550 0.9071 0.4208 -0.0000
5.195 -0.927 -11.550 0.9650 0.2623 -0.0000
5.034 -0.431 -11.550 0.9071 0.4208 -0.0000
5.195 -0.927 -10.550 0.9650 0.2623 0.0061
5.034 -0.431 -10.550 0.9071 0.4208 0.0056
5.190 -0.929 -9.550 0.9650 0.2621 -0.0000
5.028 -0.433 -9.550 0.9072 0.4207 -0.0000
5.190 -0.929 -8.551 0.9632 0.2616 0.0621
5.028 -0.433 -8.551 0.9023 0.4184 0.1041
5.163 -1.073 -7.551 0.9608 0.2695 0.0649
4.985 -0.589 -7.551 0.8987 0.4253 0.1068
5.155 -1.116 -7.251 0.9601 0.2719 0.0658
4.972 -0.637 -7.251 0.8976 0.4274 0.1076
5.150 -1.145 -7.051 0.9596 0.2736 0.0664
4.963 -0.668 -7.051 0.8969 0.4289 0.1081
5.136 -1.217 -6.551 0.9566 0.2826 0.0709
4.939 -0.749 -6.551 0.8384 0.5284 0.1335
5.102 -1.364 -5.551 0.9370 0.3392 0.0833
4.882 -0.913 -5.551 0.8337 0.5351 0.1364
5.066 -1.511 -4.550 0.9361 0.3491 0.0426
4.823 -1.080 -4.551 0.7751 0.6268 0.0798
5.047 -1.584 -3.551 0.9041 0.4241 0.0527
4.789 -1.166 -3.551 0.7656 0.6383 0.0798
5.023 -1.658 -2.551 0.8866 0.4591 0.0556
4.755 -1.250 -2.551 0.7628 0.6416 0.0808
4.999 -1.733 -1.551 0.8843 0.4635 0.0564
4.720 -1.335 -1.551 0.7599 0.6450 0.0814
4.974 -1.808 -0.551 0.8819 0.4681 0.0554
4.684 -1.423 -0.551 0.6805 0.7272 0.0897
4.949 -1.881 0.449 0.8471 0.5284 0.0567
4.645 -1.511 0.449 0.6780 0.7308 0.0787
4.923 -1.947 1.449 0.8201 0.5699 0.0506
4.611 -1.587 1.449 0.6758 0.7340 0.0677
4.901 -2.004 2.450 0.8183 0.5733 0.0422
4.582 -1.652 2.449 0.6704 0.7399 0.0564
4.882 -2.051 3.450 0.8167 0.5761 0.0335
4.556 -1.709 3.450 0.5876 0.8077 0.0492
4.867 -2.088 4.450 0.8154 0.5783 0.0247
4.535 -1.755 4.450 0.5862 0.8093 0.0362
4.856 -2.115 5.450 0.8145 0.5800 0.0160
4.519 -1.788 5.450 0.5852 0.8105 0.0234
4.849 -2.133 6.450 0.8096 0.5869 0.0070
4.509 -1.810 6.450 0.5845 0.8113 0.0102
4.846 -2.141 7.450 0.7960 0.6053 -0.0000
4.505 -1.819 7.450 0.5842 0.8116 -0.0000
4.846 -2.141 8.450 0.7960 0.6053 -0.0000
4.505 -1.819 8.450 0.5842 0.8116 -0.0000
4.846 -2.141 9.450 0.7960 0.6053 -0.0000
4.505 -1.819 9.450 0.5842 0.8116 -0.0000
4.846 -2.141 10.450 0.7960 0.6053 -0.0000
4.505 -1.819 10.450 0.5842 0.8116 -0.0000
4.846 -2.141 11.450 0.7960 0.6053 -0.0000
4.505 -1.819 11.450 0.5842 0.8116 -0.0000
4.846 -2.141 12.450 0.7960 0.6053 -0.0000
4.505 -1.819 12.450 0.5842 0.8116 -0.0000
4.846 -2.141 12.550 0.7960 0.6053 -0.0000
4.505 -1.819 12.550 0.5842 0.8116 -0.0000
4.846 -2.141 12.850 0.7960 0.6053 -0.0000
4.505 -1.819 12.850 0.5842 0.8116 -0.0000
5.034 -0.431 -12.850 0.9071 0.4208 -0.0000
4.773 0.020 -12.850 0.7902 0.6128 -0.0000
5.034 -0.431 -12.550 0.9071 0.4208 -0.0000
4.773 0.020 -12.550 0.7902 0.6128 -0.0000
5.034 -0.431 -11.550 0.9071 0.4208 -0.0000
4.773 0.020 -11.550 0.7902 0.6128 -0.0000
5.034 -0.431 -10.550 0.9071 0.4208 0.0056
4.773 0.020 -10.550 0.7902 0.6128 0.0049
5.028 -0.433 -9.550 0.9072 0.4207 -0.0000
4.769 0.018 -9.550 0.7903 0.6127 -0.0000
5.028 -0.433 -8.551 0.9023 0.4184 0.1041
4.769 0.019 -8.552 0.7806 0.6052 0.1563
4.985 -0.589 -7.551 0.8987 0.4253 0.1068
4.705 -0.158 -7.552 0.7759 0.6106 0.1587
4.972 -0.637 -7.251 0.8976 0.4274 0.1076
4.686 -0.212 -7.252 0.7742 0.6121 0.1608
4.963 -0.668 -7.051 0.8969 0.4289 0.1081
4.673 -0.248 -7.052 0.7424 0.6466 0.1755
4.939 -0.749 -6.551 0.8384 0.5284 0.1335
4.636 -0.342 -6.552 0.6945 0.6959 0.1827
4.882 -0.913 -5.551 0.8337 0.5351 0.1364
4.560 -0.529 -5.552 0.6889 0.7009 0.1852
4.823 -1.080 -4.551 0.7751 0.6268 0.0798
4.479 -0.725 -4.551 0.6079 0.7872 0.1035
4.789 -1.166 -3.551 0.7656 0.6383 0.0798
4.436 -0.824 -3.551 0.6050 0.7896 0.1026
4.755 -1.250 -2.551 0.7628 0.6416 0.0808
4.393 -0.921 -2.551 0.6019 0.7919 0.1034
4.720 -1.335 -1.551 0.7599 0.6450 0.0814
4.349 -1.024 -1.551 0.5070 0.8545 0.1131
4.684 -1.423 -0.551 0.6805 0.7272 0.0897
4.302 -1.129 -0.551 0.5040 0.8567 0.1099
4.645 -1.511 0.449 0.6780 0.7308 0.0787
4.256 -1.230 0.449 0.5016 0.8597 0.0962
4.611 -1.587 1.449 0.6758 0.7340 0.0677
4.215 -1.322 1.449 0.4018 0.9114 0.0885
4.582 -1.652 2.449 0.6704 0.7399 0.0564
4.179 -1.403 2.449 0.4000 0.9136 0.0734
4.556 -1.709 3.450 0.5876 0.8077 0.0492
4.148 -1.471 3.449 0.3984 0.9154 0.0581
4.535 -1.755 4.450 0.5862 0.8093 0.0362
4.124 -1.524 4.450 0.3972 0.9168 0.0427
4.519 -1.788 5.450 0.5852 0.8105 0.0234
4.107 -1.563 5.450 0.3725 0.9276 0.0276
4.509 -1.810 6.450 0.5845 0.8113 0.0102
4.096 -1.589 6.450 0.3103 0.9505 0.0127
4.505 -1.819 7.450 0.5842 0.8116 -0.0000
4.091 -1.601 7.450 0.2932 0.9560 -0.0000
4.505 -1.819 8.450 0.5842 0.8116 -0.0000
4.091 -1.601 8.450 0.2932 0.9560 -0.0000
4.505 -1.819 9.450 0.5842 0.8116 -0.0000
4.091 -1.601 9.450 0.2932 0.9560 -0.0000
4.505 -1.819 10.450 0.5842 0.8116 -0.0000
4.091 -1.601 10.450 0.2932 0.9560 -0.0000
4.505 -1.819 11.450 0.5842 0.8116 -0.0000
4.091 -1.601 11.450 0.2932 0.9560 -0.0000
4.505 -1.819 12.450 0.5842 0.8116 -0.0000
4.091 -1.601 12.450 0.2932 0.9560 -0.0000
4.505 -1.819 12.550 0.5842 0.8116 -0.0000
4.091 -1.601 12.550 0.2932 0.9560 -0.0000
4.505 -1.819 12.850 0.5842 0.8116 -0.0000
4.091 -1.601 12.850 0.2932 0.9560 -0.0000
4.773 0.020 -12.850 0.7902 0.6128 -0.0000
4.417 0.400 -12.850 0.6334 0.7739 -0.0000
4.773 0.020 -12.550 0.7902 0.6128 -0.0000
4.417 0.400 -12.550 0.6334 0.7739 -0.0000
4.773 0.020 -11.550 0.7902 0.6128 -0.0000
4.417 0.400 -11.550 0.6334 0.7739 -0.0000
4.773 0.020 -10.550 0.7902 0.6128 0.0049
4.417 0.400 -10.550 0.6334 0.7739 0.0038
4.769 0.018 -9.550 0.7903 0.6127 -0.0000
4.413 0.398 -9.550 0.6335 0.7738 -0.0000
4.769 0.019 -8.552 0.7806 0.6052 0.1563
4.413 0.398 -8.552 0.6202 0.7576 0.2031
4.705 -0.158 -7.552 0.7759 0.6106 0.1587
4.332 0.196 -7.552 0.6149 0.7615 0.2052
4.686 -0.212 -7.252 0.7742 0.6121 0.1608
4.308 0.134 -7.252 0.5671 0.7931 0.2222
4.673 -0.248 -7.052 0.7424 0.6466 0.1755
4.291 0.091 -7.052 0.5206 0.8237 0.2248
4.636 -0.342 -6.552 0.6945 0.6959 0.1827
4.245 -0.017 -6.552 0.5177 0.8254 0.2252
4.560 -0.529 -5.552 0.6889 0.7009 0.1852
4.155 -0.234 -5.552 0.5036 0.8310 0.2365
4.479 -0.725 -4.551 0.6079 0.7872 0.1035
4.058 -0.465 -4.551 0.4183 0.8999 0.1232
4.436 -0.824 -3.551 0.6050 0.7896 0.1026
4.009 -0.580 -3.551 0.4153 0.9015 0.1218
4.393 -0.921 -2.551 0.6019 0.7919 0.1034
3.960 -0.698 -2.551 0.3097 0.9419 0.1299
4.349 -1.024 -1.551 0.5070 0.8545 0.1131
3.909 -0.819 -1.551 0.3067 0.9429 0.1302
4.302 -1.129 -0.551 0.5040 0.8567 0.1099
3.857 -0.940 -0.551 0.3039 0.9442 0.1273
4.256 -1.230 0.449 0.5016 0.8597 0.0962
3.807 -1.065 0.449 0.1958 0.9738 0.1155
4.215 -1.322 1.449 0.4018 0.9114 0.0885
3.762 -1.174 1.449 0.1938 0.9760 0.0991
4.179 -1.403 2.449 0.4000 0.9136 0.0734
3.724 -1.268 2.449 0.1920 0.9780 0.0821
4.148 -1.471 3.449 0.3984 0.9154 0.0581
3.692 -1.348 3.449 0.1368 0.9884 0.0661
4.124 -1.524 4.450 0.3972 0.9168 0.0427
3.667 -1.411 4.450 0.1357 0.9896 0.0485
4.107 -1.563 5.450 0.3725 0.9276 0.0276
3.648 -1.458 5.450 0.1349 0.9904 0.0314
4.096 -1.589 6.450 0.3103 0.9505 0.0127
3.636 -1.488 6.450 0.1343 0.9908 0.0137
4.091 -1.601 7.450 0.2932 0.9560 -0.0000
3.631 -1.501 7.450 0.1341 0.9910 -0.0000
4.091 -1.601 8.450 0.2932 0.9560 -0.0000
3.631 -1.501 8.450 0.1341 0.9910 -0.0000
4.091 -1.601 9.450 0.2932 0.9560 -0.0000
3.631 -1.501 9.450 0.1341 0.9910 -0.0000
4.091 -1.601 10.450 0.2932 0.9560 -0.0000
3.631 -1.501 10.450 0.1341 0.9910 -0.0000
4.091 -1.601 11.450 0.2932 0.9560 -0.0000
3.631 -1.501 11.450 0.1341 0.9910 -0.0000
4.091 -1.601 12.450 0.2932 0.9560 -0.0000
3.631 -1.501 12.450 0.1341 0.9910 -0.0000
4.091 -1.601 12.550 0.2932 0.9560 -0.0000
3.631 -1.501 12.550 0.1341 0.9910 -0.0000
4.091 -1.601 12.850 0.2932 0.9560 -0.0000
3.631 -1.501 12.850 0.1341 0.9910 -0.0000
4.417 0.400 -12.850 0.6334 0.7739 -0.0000
3.983 0.688 -12.850 0.4445 0.8958 -0.0000
4.417 0.400 -12.550 0.6334 0.7739 -0.0000
3.983 0.688 -12.550 0.4445 0.8958 -0.0000
4.417 0.400 -11.550 0.6334 0.7739 -0.0000
3.983 0.688 -11.550 0.4445 0.8958 -0.0000
4.417 0.400 -10.550 0.6334 0.7739 0.0038
3.983 0.688 -10.550 0.4445 0.8958 0.0026
4.413 0.398 -9.550 0.6335 0.7738 -0.0000
3.980 0.686 -9.550 0.4446 0.8957 -0.0000
4.413 0.398 -8.552 0.6202 0.7576 0.2031
3.980 0.687 -8.552 0.4313 0.8690 0.2423
4.332 0.196 -7.552 0.6149 0.7615 0.2052
3.887 0.453 -7.553 0.4249 0.8695 0.2519
4.308 0.134 -7.252 0.5671 0.7931 0.2222
3.859 0.380 -7.253 0.3224 0.9105 0.2590
4.291 0.091 -7.052 0.5206 0.8237 0.2248
3.839 0.330 -7.053 0.3213 0.9108 0.2592
4.245 -0.017 -6.552 0.5177 0.8254 0.2252
3.789 0.205 -6.553 0.3186 0.9117 0.2593
4.155 -0.234 -5.552 0.5036 0.8310 0.2365
3.690 -0.049 -5.553 0.2084 0.9392 0.2728
4.058 -0.465 -4.551 0.4183 0.8999 0.1232
3.586 -0.317 -4.551 0.2089 0.9681 0.1384
4.009 -0.580 -3.551 0.4153 0.9015 0.1218
3.534 -0.451 -3.551 0.1521 0.9785 0.1394
3.960 -0.698 -2.551 0.3097 0.9419 0.1299
3.483 -0.585 -2.551 0.1494 0.9788 0.1401
3.909 -0.819 -1.551 0.3067 0.9429 0.1302
3.432 -0.721 -1.551 0.1468 0.9792 0.1403
3.857 -0.940 -0.551 0.3039 0.9442 0.1273
3.380 -0.856 -0.551 0.1442 0.9802 0.1360
3.807 -1.065 0.449 0.1958 0.9738 0.1155
3.331 -0.988 0.449 0.1419 0.9827 0.1188
3.762 -1.174 1.449 0.1938 0.9760 0.0991
3.287 -1.103 1.449 0.1399 0.9849 0.1019
3.724 -1.268 2.449 0.1920 0.9780 0.0821
3.250 -1.201 2.449 0.1382 0.9868 0.0844
3.692 -1.348 3.449 0.1368 0.9884 0.0661
3.220 -1.282 3.449 0.1368 0.9883 0.0667
3.667 -1.411 4.450 0.1357 0.9896 0.0485
3.196 -1.347 4.450 0.1357 0.9895 0.0490
3.648 -1.458 5.450 0.1349 0.9904 0.0314
3.178 -1.394 5.450 0.1349 0.9904 0.0317
3.636 -1.488 6.450 0.1343 0.9908 0.0137
3.167 -1.424 6.450 0.1343 0.9908 0.0138
3.631 -1.501 7.450 0.1341 0.9910 -0.0000
3.162 -1.437 7.450 0.1341 0.9910 -0.0000
3.631 -1.501 8.450 0.1341 0.9910 -0.0000
3.162 -1.437 8.450 0.1341 0.9910 -0.0000
3.631 -1.501 9.450 0.1341 0.9910 -0.0000
3.162 -1.437 9.450 0.1341 0.9910 -0.0000
3.631 -1.501 10.450 0.1341 0.9910 -0.0000
3.162 -1.437 10.450 0.1341 0.9910 -0.0000
3.631 -1.501 11.450 0.1341 0.9910 -0.0000
3.162 -1.437 11.450 0.1341 0.9910 -0.0000
3.631 -1.501 12.450 0.1341 0.9910 -0.0000
3.162 -1.437 12.450 0.1341 0.9910 -0.0000
3.631 -1.501 12.550 0.1341 0.9910 -0.0000
3.162 -1.437 12.550 0.1341 0.9910 -0.0000
3.631 -1.501 12.850 0.1341 0.9910 -0.0000
3.162 -1.437 12.850 0.1341 0.9910 -0.0000
3.983 0.688 -12.850 0.4445 0.8958 -0.0000
3.495 0.869 -12.850 0.2332 0.9724 -0.0000
3.983 0.688 -12.550 0.4445 0.8958 -0.0000
3.495 0.869 -12.550 0.2332 0.9724 -0.0000
3.983 0.688 -11.550 0.4445 0.8958 -0.0000
3.495 0.869 -11.550 0.2332 0.9724 -0.0000
3.983 0.688 -10.550 0.4445 0.8958 0.0026
3.495 0.869 -10.550 0.2332 0.9724 0.0013
3.980 0.686 -9.550 0.4446 0.8957 -0.0000
3.492 0.868 -9.550 0.2333 0.9724 -0.0000
3.980 0.687 -8.552 0.4313 0.8690 0.2423
3.492 0.869 -8.553 0.2244 0.9356 0.2724
3.887 0.453 -7.553 0.4249 0.8695 0.2519
3.394 0.600 -7.553 0.1791 0.9433 0.2796
3.859 0.380 -7.253 0.3224 0.9105 0.2590
3.364 0.517 -7.253 0.1643 0.9461 0.2792
3.839 0.330 -7.053 0.3213 0.9108 0.2592
3.344 0.461 -7.053 0.1632 0.9462 0.2794
3.789 0.205 -6.553 0.3186 0.9117 0.2593
3.294 0.322 -6.553 0.1606 0.9467 0.2793
3.690 -0.049 -5.553 0.2084 0.9392 0.2728
3.194 0.044 -5.553 0.1553 0.9472 0.2805
3.586 -0.317 -4.551 0.2089 0.9681 0.1384
3.094 -0.237 -4.551 0.1547 0.9776 0.1425
3.534 -0.451 -3.551 0.1521 0.9785 0.1394
3.045 -0.375 -3.551 0.1521 0.9783 0.1407
3.483 -0.585 -2.551 0.1494 0.9788 0.1401
2.996 -0.511 -2.551 0.1494 0.9786 0.1414
3.432 -0.721 -1.551 0.1468 0.9792 0.1403
2.948 -0.648 -1.551 0.1467 0.9790 0.1415
3.380 -0.856 -0.551 0.1442 0.9802 0.1360
2.899 -0.786 -0.551 0.1442 0.9800 0.1372
3.331 -0.988 0.449 0.1419 0.9827 0.1188
2.852 -0.919 0.449 0.1419 0.9826 0.1199
3.287 -1.103 1.449 0.1399 0.9849 0.1019
2.811 -1.035 1.449 0.1399 0.9848 0.1028
3.250 -1.201 2.449 0.1382 0.9868 0.0844
2.776 -1.135 2.449 0.1382 0.9867 0.0852
3.220 -1.282 3.449 0.1368 0.9883 0.0667
2.747 -1.217 3.449 0.1368 0.9883 0.0673
3.196 -1.347 4.450 0.1357 0.9895 0.0490
2.725 -1.282 4.450 0.1357 0.9895 0.0494
3.178 -1.394 5.450 0.1349 0.9904 0.0317
2.708 -1.330 5.450 0.1349 0.9903 0.0320
3.167 -1.424 6.450 0.1343 0.9908 0.0138
2.697 -1.360 6.450 0.1343 0.9908 0.0139
3.162 -1.437 7.450 0.1341 0.9910 -0.0000
2.693 -1.374 7.450 0.1341 0.9910 -0.0000
3.162 -1.437 8.450 0.1341 0.9910 -0.0000
2.693 -1.374 8.450 0.1341 0.9910 -0.0000
3.162 -1.437 9.450 0.1341 0.9910 -0.0000
2.693 -1.374 9.450 0.1341 0.9910 -0.0000
3.162 -1.437 10.450 0.1341 0.9910 -0.0000
2.693 -1.374 10.450 0.1341 0.9910 -0.0000
3.162 -1.437 11.450 0.1341 0.9910 -0.0000
2.693 -1.374 11.450 0.1341 0.9910 -0.0000
3.162 -1.437 12.450 0.1341 0.9910 -0.0000
2.693 -1.374 12.450 0.1341 0.9910 -0.0000
3.162 -1.437 12.550 0.1341 0.9910 -0.0000
2.693 -1.374 12.550 0.1341 0.9910 -0.0000
3.162 -1.437 12.850 0.1341 0.9910 -0.0000
2.693 -1.374 12.850 0.1341 0.9910 -0.0000
3.495 0.869 -12.850 0.2332 0.9724 -0.0000
2.981 0.970 -12.850 0.1780 0.9840 -0.0000
3.495 0.869 -12.550 0.2332 0.9724 -0.0000
2.981 0.970 -12.550 0.1780 0.9840 -0.0000
3.495 0.869 -11.550 0.2332 0.9724 -0.0000
2.981 0.970 -11.550 0.1780 0.9840 -0.0000
3.495 0.869 -10.550 0.2332 0.9724 0.0013
2.981 0.970 -10.550 0.1780 0.9840 0.0009
3.492 0.868 -9.550 0.2333 0.9724 -0.0000
2.978 0.969 -9.550 0.1782 0.9840 -0.0000
3.492 0.869 -8.553 0.2244 0.9356 0.2724
2.978 0.970 -8.553 0.1710 0.9445 0.2804
3.394 0.600 -7.553 0.1791 0.9433 0.2796
2.884 0.690 -7.553 0.1657 0.9451 0.2815
3.364 0.517 -7.253 0.1643 0.9461 0.2792
2.856 0.605 -7.253 0.1641 0.9453 0.2818
3.344 0.461 -7.053 0.1632 0.9462 0.2794
2.837 0.549 -7.053 0.1631 0.9455 0.2819
3.294 0.322 -6.553 0.1606 0.9467 0.2793
2.790 0.408 -6.553 0.1605 0.9460 0.2818
3.194 0.044 -5.553 0.1553 0.9472 0.2805
2.696 0.125 -5.553 0.1552 0.9465 0.2830
3.094 -0.237 -4.551 0.1547 0.9776 0.1425
2.601 -0.159 -4.551 0.1547 0.9774 0.1438
3.045 -0.375 -3.551 0.1521 0.9783 0.1407
2.555 -0.299 -3.551 0.1520 0.9781 0.1420
2.996 -0.511 -2.551 0.1494 0.9786 0.1414
2.510 -0.437 -2.551 0.1494 0.9784 0.1427
2.948 -0.648 -1.551 0.1467 0.9790 0.1415
2.464 -0.576 -1.551 0.1467 0.9788 0.1428
2.899 -0.786 -0.551 0.1442 0.9800 0.1372
2.418 -0.715 -0.551 0.1441 0.9798 0.1385
2.852 -0.919 0.449 0.1419 0.9826 0.1199
2.374 -0.850 0.449 0.1419 0.9825 0.1210
2.811 -1.035 1.449 0.1399 0.9848 0.1028
2.335 -0.967 1.449 0.1399 0.9847 0.1038
2.776 -1.135 2.449 0.1382 0.9867 0.0852
2.302 -1.068 2.449 0.1382 0.9867 0.0859
2.747 -1.217 3.449 0.1368 0.9883 0.0673
2.275 -1.152 3.449 0.1368 0.9883 0.0679
2.725 -1.282 4.450 0.1357 0.9895 0.0494
2.254 -1.217 4.450 0.1357 0.9895 0.0499
2.708 -1.330 5.450 0.1349 0.9903 0.0320
2.238 -1.266 5.450 0.1349 0.9903 0.0322
2.697 -1.360 6.450 0.1343 0.9908 0.0139
2.228 -1.297 6.450 0.1343 0.9908 0.0141
2.693 -1.374 7.450 0.1341 0.9910 -0.0000
2.223 -1.310 7.450 0.1341 0.9910 -0.0000
2.693 -1.374 8.450 0.1341 0.9910 -0.0000
2.223 -1.310 8.450 0.1341 0.9910 -0.0000
2.693 -1.374 9.450 0.1341 0.9910 -0.0000
2.223 -1.310 9.450 0.1341 0.9910 -0.0000
2.693 -1.374 10.450 0.1341 0.9910 -0.0000
2.223 -1.310 10.450 0.1341 0.9910 -0.0000
2.693 -1.374 11.450 0.1341 0.9910 -0.0000
2.223 -1.310 11.450 0.1341 0.9910 -0.0000
2.693 -1.374 12.450 0.1341 0.9910 -0.0000
2.223 -1.310 12.450 0.1341 0.9910 -0.0000
2.693 -1.374 12.550 0.1341 0.9910 -0.0000
2.223 -1.310 12.550 0.1341 0.9910 -0.0000
2.693 -1.374 12.850 0.1341 0.9910 -0.0000
2.223 -1.310 12.850 0.1341 0.9910 -0.0000
2.981 0.970 -12.850 0.1780 0.9840 -0.0000
2.465 1.063 -12.850 0.1780 0.9840 -0.0000
2.981 0.970 -12.550 0.1780 0.9840 -0.0000
2.465 1.063 -12.550 0.1780 0.9840 -0.0000
2.981 0.970 -11.550 0.1780 0.9840 -0.0000
2.465 1.063 -11.550 0.1780 0.9840 -0.0000
2.981 0.970 -10.550 0.1780 0.9840 0.0009
2.465 1.063 -10.550 0.1780 0.9840 0.0008
2.978 0.969 -9.550 0.1782 0.9840 -0.0000
2.462 1.063 -9.550 0.1782 0.9840 -0.0000
2.978 0.970 -8.553 0.1710 0.9445 0.2804
2.462 1.063 -8.553 0.1709 0.9438 0.2829
2.884 0.690 -7.553 0.1657 0.9451 0.2815
2.374 0.779 -7.553 0.1656 0.9444 0.2841
2.856 0.605 -7.253 0.1641 0.9453 0.2818
2.348 0.693 -7.253 0.1640 0.9446 0.2843
2.837 0.549 -7.053 0.1631 0.9455 0.2819
2.330 0.636 -7.053 0.1630 0.9447 0.2844
2.790 0.408 -6.553 0.1605 0.9460 0.2818
2.286 0.493 -6.553 0.1603 0.9452 0.2843
2.696 0.125 -5.553 0.1552 0.9465 0.2830
2.197 0.207 -5.553 0.1550 0.9458 0.2854
2.601 -0.159 -4.551 0.1547 0.9774 0.1438
2.109 -0.081 -4.551 0.1546 0.9773 0.1451
2.555 -0.299 -3.551 0.1520 0.9781 0.1420
2.065 -0.223 -3.551 0.1520 0.9779 0.1433
2.510 -0.437 -2.551 0.1494 0.9784 0.1427
2.023 -0.362 -2.551 0.1493 0.9783 0.1439
2.464 -0.576 -1.551 0.1467 0.9788 0.1428
1.980 -0.503 -1.551 0.1467 0.9786 0.1441
2.418 -0.715 -0.551 0.1441 0.9798 0.1385
1.937 -0.644 -0.551 0.1441 0.9796 0.1397
2.374 -0.850 0.449 0.1419 0.9825 0.1210
1.895 -0.781 0.449 0.1419 0.9823 0.1220
2.335 -0.967 1.449 0.1399 0.9847 0.1038
1.859 -0.900 1.449 0.1399 0.9846 0.1047
2.302 -1.068 2.449 0.1382 0.9867 0.0859
1.828 -1.002 2.449 0.1382 0.9866 0.0867
2.275 -1.152 3.449 0.1368 0.9883 0.0679
1.803 -1.086 3.449 0.1368 0.9882 0.0686
2.254 -1.217 4.450 0.1357 0.9895 0.0499
1.783 -1.153 4.449 0.1357 0.9895 0.0503
2.238 -1.266 5.450 0.1349 0.9903 0.0322
1.768 -1.202 5.450 0.1349 0.9903 0.0325
2.228 -1.297 6.450 0.1343 0.9908 0.0141
1.759 -1.233 6.450 0.1343 0.9908 0.0142
2.223 -1.310 7.450 0.1341 0.9910 -0.0000
1.754 -1.247 7.450 0.1341 0.9910 -0.0000
2.223 -1.310 8.450 0.1341 0.9910 -0.0000
1.754 -1.247 8.450 0.1341 0.9910 -0.0000
2.223 -1.310 9.450 0.1341 0.9910 -0.0000
1.754 -1.247 9.450 0.1341 0.9910 -0.0000
2.223 -1.310 10.450 0.1341 0.9910 -0.0000
1.754 -1.247 10.450 0.1341 0.9910 -0.0000
2.223 -1.310 11.450 0.1341 0.9910 -0.0000
1.754 -1.247 11.450 0.1341 0.9910 -0.0000
2.223 -1.310 12.450 0.1341 0.9910 -0.0000
1.754 -1.247 12.450 0.1341 0.9910 -0.0000
2.223 -1.310 12.550 0.1341 0.9910 -0.0000
1.754 -1.247 12.550 0.1341 0.9910 -0.0000
2.223 -1.310 12.850 0.1341 0.9910 -0.0000
1.754 -1.247 12.850 0.1341 0.9910 -0.0000
2.465 1.063 -12.850 0.1780 0.9840 -0.0000
1.949 1.156 -12.850 0.1780 0.9840 -0.0000
2.465 1.063 -12.550 0.1780 0.9840 -0.0000
1.949 1.156 -12.550 0.1780 0.9840 -0.0000
2.465 1.063 -11.550 0.1780 0.9840 -0.0000
1.949 1.156 -11.550 0.1780 0.9840 -0.0000
2.465 1.063 -10.550 0.1780 0.9840 0.0008
1.949 1.156 -10.550 0.1780 0.9840 0.0008
2.462 1.063 -9.550 0.1782 0.9840 -0.0000
1.946 1.156 -9.550 0.1782 0.9840 -0.0000
2.462 1.063 -8.553 0.1709 0.9438 0.2829
1.947 1.157 -8.553 0.1707 0.9431 0.2855
2.374 0.779 -7.553 0.1656 0.9444 0.2841
1.864 0.868 -7.553 0.1655 0.9437 0.2866
2.348 0.693 -7.253 0.1640 0.9446 0.2843
1.839 0.782 -7.253 0.1639 0.9439 0.2868
2.330 0.636 -7.053 0.1630 0.9447 0.2844
1.823 0.724 -7.053 0.1628 0.9440 0.2869
2.286 0.493 -6.553 0.1603 0.9452 0.2843
1.781 0.579 -6.553 0.1602 0.9445 0.2868
2.197 0.207 -5.553 0.1550 0.9458 0.2854
1.699 0.289 -5.553 0.1549 0.9450 0.2879
2.109 -0.081 -4.551 0.1546 0.9773 0.1451
1.616 -0.003 -4.551 0.1546 0.9771 0.1464
2.065 -0.223 -3.551 0.1520 0.9779 0.1433
1.576 -0.146 -3.551 0.1520 0.9778 0.1446
2.023 -0.362 -2.551 0.1493 0.9783 0.1439
1.536 -0.288 -2.551 0.1493 0.9781 0.1452
1.980 -0.503 -1.551 0.1467 0.9786 0.1441
1.496 -0.431 -1.551 0.1467 0.9784 0.1454
1.937 -0.644 -0.551 0.1441 0.9796 0.1397
1.456 -0.573 -0.551 0.1441 0.9795 0.1410
1.895 -0.781 0.449 0.1419 0.9823 0.1220
1.417 -0.712 0.449 0.1419 0.9822 0.1231
1.859 -0.900 1.449 0.1399 0.9846 0.1047
1.383 -0.832 1.449 0.1399 0.9845 0.1056
1.828 -1.002 2.449 0.1382 0.9866 0.0867
1.354 -0.935 2.449 0.1382 0.9865 0.0875
1.803 -1.086 3.449 0.1368 0.9882 0.0686
1.331 -1.021 3.449 0.1368 0.9882 0.0692
1.783 -1.153 4.449 0.1357 0.9895 0.0503
1.312 -1.088 4.449 0.1357 0.9895 0.0508
1.768 -1.202 5.450 0.1349 0.9903 0.0325
1.298 -1.138 5.450 0.1349 0.9903 0.0328
1.759 -1.233 6.450 0.1343 0.9908 0.0142
1.289 -1.170 6.450 0.1343 0.9908 0.0143
1.754 -1.247 7.450 0.1341 0.9910 -0.0000
1.285 -1.184 7.450 0.1341 0.9910 -0.0000
1.754 -1.247 8.450 0.1341 0.9910 -0.0000
1.285 -1.184 8.450 0.1341 0.9910 -0.0000
1.754 -1.247 9.450 0.1341 0.9910 -0.0000
1.285 -1.184 9.450 0.1341 0.9910 -0.0000
1.754 -1.247 10.450 0.1341 0.9910 -0.0000
1.285 -1.184 10.450 0.1341 0.9910 -0.0000
1.754 -1.247 11.450 0.1341 0.9910 -0.0000
1.285 -1.184 11.450 0.1341 0.9910 -0.0000
1.754 -1.247 12.450 0.1341 0.9910 -0.0000
1.285 -1.184 12.450 0.1341 0.9910 -0.0000
1.754 -1.247 12.550 0.1341 0.9910 -0.0000
1.285 -1.184 12.550 0.1341 0.9910 -0.0000
1.754 -1.247 12.850 0.1341 0.9910 -0.0000
1.285 -1.184 12.850 0.1341 0.9910 -0.0000
1.949 1.156 -12.850 0.1780 0.9840 -0.0000
1.433 1.250 -12.850 0.1780 0.9840 -0.0000
1.949 1.156 -12.550 0.1780 0.9840 -0.0000
1.433 1.250 -12.550 0.1780 0.9840 -0.0000
1.949 1.156 -11.550 0.1780 0.9840 -0.0000
1.433 1.250 -11.550 0.1780 0.9840 -0.0000
1.949 1.156 -10.550 0.1780 0.9840 0.0008
1.433 1.250 -10.550 0.1780 0.9840 0.0007
1.946 1.156 -9.550 0.1782 0.9840 -0.0000
1.431 1.250 -9.550 0.1782 0.9840 -0.0000
1.947 1.157 -8.553 0.1707 0.9431 0.2855
1.431 1.250 -8.553 0.1706 0.9423 0.2880
1.864 0.868 -7.553 0.1655 0.9437 0.2866
1.354 0.958 -7.553 0.1653 0.9429 0.2891
1.839 0.782 -7.253 0.1639 0.9439 0.2868
1.331 0.870 -7.253 0.1638 0.9431 0.2893
1.823 0.724 -7.053 0.1628 0.9440 0.2869
1.316 0.811 -7.053 0.1627 0.9433 0.2894
1.781 0.579 -6.553 0.1602 0.9445 0.2868
1.277 0.664 -6.553 0.1601 0.9438 0.2893
1.699 0.289 -5.553 0.1549 0.9450 0.2879
1.201 0.371 -5.553 0.1548 0.9443 0.2904
1.616 -0.003 -4.551 0.1546 0.9771 0.1464
1.124 0.075 -4.551 0.1546 0.9769 0.1478
1.576 -0.146 -3.551 0.1520 0.9778 0.1446
1.086 -0.070 -3.551 0.1519 0.9776 0.1459
1.536 -0.288 -2.551 0.1493 0.9781 0.1452
1.049 -0.214 -2.551 0.1493 0.9779 0.1465
1.496 -0.431 -1.551 0.1467 0.9784 0.1454
1.012 -0.358 -1.551 0.1466 0.9783 0.1467
1.456 -0.573 -0.551 0.1441 0.9795 0.1410
0.975 -0.503 -0.551 0.1441 0.9793 0.1422
1.417 -0.712 0.449 0.1419 0.9822 0.1231
0.939 -0.643 0.449 0.1418 0.9821 0.1242
1.383 -0.832 1.449 0.1399 0.9845 0.1056
0.907 -0.765 1.449 0.1399 0.9844 0.1065
1.354 -0.935 2.449 0.1382 0.9865 0.0875
0.880 -0.869 2.449 0.1382 0.9865 0.0882
1.331 -1.021 3.449 0.1368 0.9882 0.0692
0.858 -0.955 3.449 0.1368 0.9881 0.0698
1.312 -1.088 4.449 0.1357 0.9895 0.0508
0.841 -1.024 4.449 0.1357 0.9894 0.0512
1.298 -1.138 5.450 0.1349 0.9903 0.0328
0.828 -1.074 5.450 0.1349 0.9903 0.0331
1.289 -1.170 6.450 0.1343 0.9908 0.0143
0.820 -1.106 6.450 0.1343 0.9908 0.0144
1.285 -1.184 7.450 0.1341 0.9910 -0.0000
0.816 -1.120 7.450 0.1341 0.9910 -0.0000
1.285 -1.184 8.450 0.1341 0.9910 -0.0000
0.816 -1.120 8.450 0.1341 0.9910 -0.0000
1.285 -1.184 9.450 0.1341 0.9910 -0.0000
0.816 -1.120 9.450 0.1341 0.9910 -0.0000
1.285 -1.184 10.450 0.1341 0.9910 -0.0000
0.816 -1.120 10.450 0.1341 0.9910 -0.0000
1.285 -1.184 11.450 0.1341 0.9910 -0.0000
0.816 -1.120 11.450 0.1341 0.9910 -0.0000
1.285 -1.184 12.450 0.1341 0.9910 -0.0000
0.816 -1.120 12.450 0.1341 0.9910 -0.0000
1.285 -1.184 12.550 0.1341 0.9910 -0.0000
0.816 -1.120 12.550 0.1341 0.9910 -0.0000
1.285 -1.184 12.850 0.1341 0.9910 -0.0000
0.816 -1.120 12.850 0.1341 0.9910 -0.0000
1.433 1.250 -12.850 0.1780 0.9840 -0.0000
1.269 1.280 -12.850 0.1780 0.9840 -0.0000
1.433 1.250 -12.550 0.1780 0.9840 -0.0000
1.269 1.280 -12.550 0.1780 0.9840 -0.0000
1.433 1.250 -11.550 0.1780 0.9840 -0.0000
1.269 1.280 -11.550 0.1780 0.9840 -0.0000
1.433 1.250 -10.550 0.1780 0.9840 0.0007
1.269 1.280 -10.550 0.1780 0.9840 0.0007
1.431 1.250 -9.550 0.1782 0.9840 -0.0000
1.266 1.279 -9.550 0.1782 0.9840 -0.0000
1.431 1.250 -8.553 0.1706 0.9423 0.2880
1.267 1.280 -8.553 0.1706 0.9421 0.2888
1.354 0.958 -7.553 0.1653 0.9429 0.2891
1.192 0.986 -7.553 0.1653 0.9427 0.2899
1.331 0.870 -7.253 0.1638 0.9431 0.2893
1.169 0.898 -7.253 0.1637 0.9429 0.2901
1.316 0.811 -7.053 0.1627 0.9433 0.2894
1.154 0.839 -7.053 0.1627 0.9430 0.2902
1.277 0.664 -6.553 0.1601 0.9438 0.2893
1.117 0.692 -6.553 0.1601 0.9435 0.2901
1.201 0.371 -5.553 0.1548 0.9443 0.2904
1.042 0.397 -5.553 0.1548 0.9441 0.2911
1.124 0.075 -4.551 0.1546 0.9769 0.1478
0.967 0.100 -4.551 0.1546 0.9768 0.1482
1.086 -0.070 -3.551 0.1519 0.9776 0.1459
0.930 -0.046 -3.551 0.1519 0.9775 0.1463
1.049 -0.214 -2.551 0.1493 0.9779 0.1465
0.894 -0.190 -2.551 0.1493 0.9778 0.1469
1.012 -0.358 -1.551 0.1466 0.9783 0.1467
0.858 -0.335 -1.551 0.1466 0.9782 0.1471
0.975 -0.503 -0.551 0.1441 0.9793 0.1422
0.821 -0.480 -0.551 0.1441 0.9792 0.1426
0.939 -0.643 0.449 0.1418 0.9821 0.1242
0.786 -0.621 0.449 0.1418 0.9820 0.1245
0.907 -0.765 1.449 0.1399 0.9844 0.1065
0.756 -0.743 1.449 0.1399 0.9844 0.1068
0.880 -0.869 2.449 0.1382 0.9865 0.0882
0.730 -0.848 2.449 0.1382 0.9864 0.0885
0.858 -0.955 3.449 0.1368 0.9881 0.0698
0.708 -0.935 3.449 0.1368 0.9881 0.0700
0.841 -1.024 4.449 0.1357 0.9894 0.0512
0.691 -1.003 4.449 0.1357 0.9894 0.0513
0.828 -1.074 5.450 0.1349 0.9903 0.0331
0.679 -1.053 5.450 0.1349 0.9903 0.0332
0.820 -1.106 6.450 0.1343 0.9908 0.0144
0.671 -1.086 6.450 0.1343 0.9908 0.0145
0.816 -1.120 7.450 0.1341 0.9910 -0.0000
0.667 -1.100 7.450 0.1341 0.9910 -0.0000
0.816 -1.120 8.450 0.1341 0.9910 -0.0000
0.667 -1.100 8.450 0.1341 0.9910 -0.0000
0.816 -1.120 9.450 0.1341 0.9910 -0.0000
0.667 -1.100 9.450 0.1341 0.9910 -0.0000
0.816 -1.120 10.450 0.1341 0.9910 -0.0000
0.667 -1.100 10.450 0.1341 0.9910 -0.0000
0.816 -1.120 11.450 0.1341 0.9910 -0.0000
0.667 -1.100 11.450 0.1341 0.9910 -0.0000
0.816 -1.120 12.450 0.1341 0.9910 -0.0000
0.667 -1.100 12.450 0.1341 0.9910 -0.0000
0.816 -1.120 12.550 0.1341 0.9910 -0.0000
0.667 -1.100 12.550 0.1341 0.9910 -0.0000
0.816 -1.120 12.850 0.1341 0.9910 -0.0000
0.667 -1.100 12.850 0.1341 0.9910 -0.0000
1.269 1.280 -12.850 0.1780 0.9840 -0.0000
0.917 1.343 -12.850 0.1780 0.9840 -0.0000
1.269 1.280 -12.550 0.1780 0.9840 -0.0000
0.917 1.343 -12.550 0.1780 0.9840 -0.0000
1.269 1.280 -11.550 0.1780 0.9840 -0.0000
0.917 1.343 -11.550 0.1780 0.9840 -0.0000
1.269 1.280 -10.550 0.1780 0.9840 0.0007
0.917 1.343 -10.550 0.1780 0.9840 0.0007
1.266 1.279 -9.550 0.1782 0.9840 -0.0000
0.915 1.343 -9.550 0.1782 0.9840 -0.0000
1.267 1.280 -8.553 0.1706 0.9421 0.2888
0.915 1.343 -8.553 0.1705 0.9416 0.2905
1.192 0.986 -7.553 0.1653 0.9427 0.2899
0.844 1.047 -7.553 0.1652 0.9422 0.2916
1.169 0.898 -7.253 0.1637 0.9429 0.2901
0.823 0.958 -7.253 0.1636 0.9424 0.2918
1.154 0.839 -7.053 0.1627 0.9430 0.2902
0.808 0.899 -7.053 0.1626 0.9425 0.2919
1.117 0.692 -6.553 0.1601 0.9435 0.2901
0.773 0.750 -6.553 0.1600 0.9430 0.2917
1.042 0.397 -5.553 0.1548 0.9441 0.2911
0.702 0.452 -5.553 0.1547 0.9436 0.2928
0.967 0.100 -4.551 0.1546 0.9768 0.1482
0.631 0.153 -4.551 0.1545 0.9767 0.1491
0.930 -0.046 -3.551 0.1519 0.9775 0.1463
0.596 0.006 -3.551 0.1519 0.9774 0.1472
0.894 -0.190 -2.551 0.1493 0.9778 0.1469
0.562 -0.140 -2.551 0.1493 0.9777 0.1478
0.858 -0.335 -1.551 0.1466 0.9782 0.1471
0.528 -0.286 -1.551 0.1466 0.9781 0.1480
0.821 -0.480 -0.551 0.1441 0.9792 0.1426
0.493 -0.432 -0.551 0.1440 0.9791 0.1434
0.786 -0.621 0.449 0.1418 0.9820 0.1245
0.460 -0.573 0.449 0.1418 0.9819 0.1253
0.756 -0.743 1.449 0.1399 0.9844 0.1068
0.431 -0.697 1.449 0.1399 0.9843 0.1075
0.730 -0.848 2.449 0.1382 0.9864 0.0885
0.406 -0.803 2.449 0.1382 0.9864 0.0890
0.708 -0.935 3.449 0.1368 0.9881 0.0700
0.386 -0.890 3.449 0.1368 0.9881 0.0704
0.691 -1.003 4.449 0.1357 0.9894 0.0513
0.370 -0.959 4.449 0.1357 0.9894 0.0517
0.679 -1.053 5.450 0.1349 0.9903 0.0332
0.358 -1.010 5.450 0.1349 0.9903 0.0334
0.671 -1.086 6.450 0.1343 0.9908 0.0145
0.351 -1.042 6.450 0.1343 0.9908 0.0146
0.667 -1.100 7.450 0.1341 0.9910 -0.0000
0.347 -1.057 7.450 0.1341 0.9910 -0.0000
0.667 -1.100 8.450 0.1341 0.9910 -0.0000
0.347 -1.057 8.450 0.1341 0.9910 -0.0000
0.667 -1.100 9.450 0.1341 0.9910 -0.0000
0.347 -1.057 9.450 0.1341 0.9910 -0.0000
0.667 -1.100 10.450 0.1341 0.9910 -0.0000
0.347 -1.057 10.450 0.1341 0.9910 -0.0000
0.667 -1.100 11.450 0.1341 0.9910 -0.0000
0.347 -1.057 11.450 0.1341 0.9910 -0.0000
0.667 -1.100 12.450 0.1341 0.9910 -0.0000
0.347 -1.057 12.450 0.1341 0.9910 -0.0000
0.667 -1.100 12.550 0.1341 0.9910 -0.0000
0.347 -1.057 12.550 0.1341 0.9910 -0.0000
0.667 -1.100 12.850 0.1341 0.9910 -0.0000
0.347 -1.057 12.850 0.1341 0.9910 -0.0000
0.917 1.343 -12.850 0.1780 0.9840 -0.0000
0.401 1.437 -12.850 0.1780 0.9840 -0.0000
0.917 1.343 -12.550 0.1780 0.9840 -0.0000
0.401 1.437 -12.550 0.1780 0.9840 -0.0000
0.917 1.343 -11.550 0.1780 0.9840 -0.0000
0.401 1.437 -11.550 0.1780 0.9840 -0.0000
0.917 1.343 -10.550 0.1780 0.9840 0.0007
0.401 1.437 -10.550 0.1780 0.9840 0.0006
0.915 1.343 -9.550 0.1782 0.9840 -0.0000
0.399 1.436 -9.550 0.1782 0.9840 -0.0000
0.915 1.343 -8.553 0.1705 0.9416 0.2905
0.399 1.437 -8.553 0.1703 0.9408 0.2931
0.844 1.047 -7.553 0.1652 0.9422 0.2916
0.334 1.137 -7.553 0.1651 0.9414 0.2941
0.823 0.958 -7.253 0.1636 0.9424 0.2918
0.314 1.046 -7.253 0.1635 0.9416 0.2943
0.808 0.899 -7.053 0.1626 0.9425 0.2919
0.301 0.986 -7.053 0.1625 0.9418 0.2944
0.773 0.750 -6.553 0.1600 0.9430 0.2917
0.269 0.836 -6.553 0.1598 0.9423 0.2942
0.702 0.452 -5.553 0.1547 0.9436 0.2928
0.204 0.534 -5.553 0.1546 0.9428 0.2953
0.631 0.153 -4.551 0.1545 0.9767 0.1491
0.139 0.231 -4.552 0.1545 0.9765 0.1504
0.596 0.006 -3.551 0.1519 0.9774 0.1472
0.107 0.082 -3.551 0.1519 0.9772 0.1484
0.562 -0.140 -2.551 0.1493 0.9777 0.1478
0.075 -0.065 -2.551 0.1492 0.9775 0.1491
0.528 -0.286 -1.551 0.1466 0.9781 0.1480
0.044 -0.213 -1.551 0.1466 0.9779 0.1493
0.493 -0.432 -0.551 0.1440 0.9791 0.1434
0.012 -0.361 -0.551 0.1440 0.9789 0.1447
0.460 -0.573 0.449 0.1418 0.9819 0.1253
-0.018 -0.504 0.449 0.1418 0.9818 0.1264
0.431 -0.697 1.449 0.1399 0.9843 0.1075
-0.045 -0.629 1.449 0.1398 0.9842 0.1084
0.406 -0.803 2.449 0.1382 0.9864 0.0890
-0.068 -0.736 2.449 0.1382 0.9863 0.0897
0.386 -0.890 3.449 0.1368 0.9881 0.0704
-0.086 -0.825 3.449 0.1368 0.9881 0.0710
0.370 -0.959 4.449 0.1357 0.9894 0.0517
-0.101 -0.894 4.449 0.1357 0.9894 0.0521
0.358 -1.010 5.450 0.1349 0.9903 0.0334
-0.112 -0.946 5.450 0.1349 0.9903 0.0337
0.351 -1.042 6.450 0.1343 0.9908 0.0146
-0.119 -0.979 6.450 0.1343 0.9908 0.0147
0.347 -1.057 7.450 0.1341 0.9910 -0.0000
-0.122 -0.993 7.450 0.1341 0.9910 -0.0000
0.347 -1.057 8.450 0.1341 0.9910 -0.0000
-0.122 -0.993 8.450 0.1341 0.9910 -0.0000
0.347 -1.057 9.450 0.1341 0.9910 -0.0000
-0.122 -0.993 9.450 0.1341 0.9910 -0.0000
0.347 -1.057 10.450 0.1341 0.9910 -0.0000
-0.122 -0.993 10.450 0.1341 0.9910 -0.0000
0.347 -1.057 11.450 0.1341 0.9910 -0.0000
-0.122 -0.993 11.450 0.1341 0.9910 -0.0000
0.347 -1.057 12.450 0.1341 0.9910 -0.0000
-0.122 -0.993 12.450 0.1341 0.9910 -0.0000
0.347 -1.057 12.550 0.1341 0.9910 -0.0000
-0.122 -0.993 12.550 0.1341 0.9910 -0.0000
0.347 -1.057 12.850 0.1341 0.9910 -0.0000
-0.122 -0.993 12.850 0.1341 0.9910 -0.0000
0.401 1.437 -12.850 0.1780 0.9840 -0.0000
-0.115 1.530 -12.850 0.1780 0.9840 -0.0000
0.401 1.437 -12.550 0.1780 0.9840 -0.0000
-0.115 1.530 -12.550 0.1780 0.9840 -0.0000
0.401 1.437 -11.550 0.1780 0.9840 -0.0000
-0.115 1.530 -11.550 0.1780 0.9840 -0.0000
0.401 1.437 -10.550 0.1780 0.9840 0.0006
-0.115 1.530 -10.550 0.1780 0.9840 0.0006
0.399 1.436 -9.550 0.1782 0.9840 -0.0000
-0.117 1.530 -9.550 0.1782 0.9840 -0.0000
0.399 1.437 -8.553 0.1703 0.9408 0.2931
-0.117 1.530 -8.553 0.1702 0.9400 0.2956
0.334 1.137 -7.553 0.1651 0.9414 0.2941
-0.176 1.226 -7.553 0.1649 0.9406 0.2966
0.314 1.046 -7.253 0.1635 0.9416 0.2943
-0.194 1.135 -7.253 0.1634 0.9409 0.2968
0.301 0.986 -7.053 0.1625 0.9418 0.2944
-0.206 1.074 -7.053 0.1623 0.9410 0.2969
0.269 0.836 -6.553 0.1598 0.9423 0.2942
-0.235 0.921 -6.553 0.1597 0.9415 0.2967
0.204 0.534 -5.553 0.1546 0.9428 0.2953
-0.295 0.616 -5.553 0.1544 0.9421 0.2977
0.139 0.231 -4.552 0.1545 0.9765 0.1504
-0.354 0.309 -4.552 0.1545 0.9763 0.1517
0.107 0.082 -3.551 0.1519 0.9772 0.1484
-0.383 0.158 -3.551 0.1518 0.9770 0.1497
0.075 -0.065 -2.551 0.1492 0.9775 0.1491
-0.412 0.009 -2.552 0.1492 0.9773 0.1504
0.044 -0.213 -1.551 0.1466 0.9779 0.1493
-0.440 -0.140 -1.552 0.1465 0.9777 0.1505
0.012 -0.361 -0.551 0.1440 0.9789 0.1447
-0.469 -0.290 -0.551 0.1440 0.9788 0.1459
-0.018 -0.504 0.449 0.1418 0.9818 0.1264
-0.497 -0.435 0.449 0.1418 0.9817 0.1274
-0.045 -0.629 1.449 0.1398 0.9842 0.1084
-0.521 -0.562 1.449 0.1398 0.9841 0.1093
-0.068 -0.736 2.449 0.1382 0.9863 0.0897
-0.541 -0.670 2.449 0.1382 0.9863 0.0905
-0.086 -0.825 3.449 0.1368 0.9881 0.0710
-0.559 -0.759 3.449 0.1368 0.9880 0.0716
-0.101 -0.894 4.449 0.1357 0.9894 0.0521
-0.572 -0.830 4.449 0.1357 0.9894 0.0525
-0.112 -0.946 5.450 0.1349 0.9903 0.0337
-0.582 -0.882 5.450 0.1349 0.9903 0.0340
-0.119 -0.979 6.450 0.1343 0.9908 0.0147
-0.588 -0.915 6.450 0.1343 0.9908 0.0148
-0.122 -0.993 7.450 0.1341 0.9910 -0.0000
-0.591 -0.930 7.450 0.1341 0.9910 -0.0000
-0.122 -0.993 8.450 0.1341 0.9910 -0.0000
-0.591 -0.930 8.450 0.1341 0.9910 -0.0000
-0.122 -0.993 9.450 0.1341 0.9910 -0.0000
-0.591 -0.930 9.450 0.1341 0.9910 -0.0000
-0.122 -0.993 10.450 0.1341 0.9910 -0.0000
-0.591 -0.930 10.450 0.1341 0.9910 -0.0000
-0.122 -0.993 11.450 0.1341 0.9910 -0.0000
-0.591 -0.930 11.450 0.1341 0.9910 -0.0000
-0.122 -0.993 12.450 0.1341 0.9910 -0.0000
-0.591 -0.930 12.450 0.1341 0.9910 -0.0000
-0.122 -0.993 12.550 0.1341 0.9910 -0.0000
-0.591 -0.930 12.550 0.1341 0.9910 -0.0000
-0.122 -0.993 12.850 0.1341 0.9910 -0.0000
-0.591 -0.930 12.850 0.1341 0.9910 -0.0000
-0.115 1.530 -12.850 0.1780 0.9840 -0.0000
-0.631 1.623 -12.850 0.1780 0.9840 -0.0000
-0.115 1.530 -12.550 0.1780 0.9840 -0.0000
-0.631 1.623 -12.550 0.1780 0.9840 -0.0000
-0.115 1.530 -11.550 0.1780 0.9840 -0.0000
-0.631 1.623 -11.550 0.1780 0.9840 -0.0000
-0.115 1.530 -10.550 0.1780 0.9840 0.0006
-0.631 1.623 -10.550 0.1780 0.9840 0.0005
-0.117 1.530 -9.550 0.1782 0.9840 -0.0000
-0.633 1.623 -9.550 0.1782 0.9840 -0.0000
-0.117 1.530 -8.553 0.1702 0.9400 0.2956
-0.633 1.624 -8.553 0.1701 0.9393 0.2981
-0.176 1.226 -7.553 0.1649 0.9406 0.2966
-0.686 1.316 -7.553 0.1648 0.9399 0.2991
-0.194 1.135 -7.253 0.1634 0.9409 0.2968
-0.702 1.223 -7.253 0.1632 0.9401 0.2992
-0.206 1.074 -7.053 0.1623 0.9410 0.2969
-0.713 1.161 -7.053 0.1622 0.9403 0.2994
-0.235 0.921 -6.553 0.1597 0.9415 0.2967
-0.740 1.007 -6.553 0.1596 0.9408 0.2991
-0.295 0.616 -5.553 0.1544 0.9421 0.2977
-0.793 0.697 -5.553 0.1543 0.9413 0.3001
-0.354 0.309 -4.552 0.1545 0.9763 0.1517
-0.846 0.387 -4.552 0.1544 0.9761 0.1530
-0.383 0.158 -3.551 0.1518 0.9770 0.1497
-0.873 0.234 -3.552 0.1518 0.9768 0.1510
-0.412 0.009 -2.552 0.1492 0.9773 0.1504
-0.898 0.083 -2.552 0.1492 0.9771 0.1517
-0.440 -0.140 -1.552 0.1465 0.9777 0.1505
-0.924 -0.068 -1.552 0.1465 0.9775 0.1518
-0.469 -0.290 -0.551 0.1440 0.9788 0.1459
-0.950 -0.219 -0.551 0.1440 0.9786 0.1472
-0.497 -0.435 0.449 0.1418 0.9817 0.1274
-0.975 -0.366 0.449 0.1418 0.9815 0.1285
-0.521 -0.562 1.449 0.1398 0.9841 0.1093
-0.997 -0.494 1.449 0.1398 0.9840 0.1102
-0.541 -0.670 2.449 0.1382 0.9863 0.0905
-1.015 -0.603 2.449 0.1382 0.9862 0.0913
-0.559 -0.759 3.449 0.1368 0.9880 0.0716
-1.031 -0.694 3.449 0.1368 0.9880 0.0722
-0.572 -0.830 4.449 0.1357 0.9894 0.0525
-1.043 -0.765 4.449 0.1357 0.9893 0.0530
-0.582 -0.882 5.450 0.1349 0.9903 0.0340
-1.052 -0.818 5.450 0.1348 0.9903 0.0343
-0.588 -0.915 6.450 0.1343 0.9908 0.0148
-1.057 -0.852 6.450 0.1343 0.9908 0.0149
-0.591 -0.930 7.450 0.1341 0.9910 -0.0000
-1.060 -0.866 7.450 0.1341 0.9910 -0.0000
-0.591 -0.930 8.450 0.1341 0.9910 -0.0000
-1.060 -0.866 8.450 0.1341 0.9910 -0.0000
-0.591 -0.930 9.450 0.1341 0.9910 -0.0000
-1.060 -0.866 9.450 0.1341 0.9910 -0.0000
-0.591 -0.930 10.450 0.1341 0.9910 -0.0000
-1.060 -0.866 10.450 0.1341 0.9910 -0.0000
-0.591 -0.930 11.450 0.1341 0.9910 -0.0000
-1.060 -0.866 11.450 0.1341 0.9910 -0.0000
-0.591 -0.930 12.450 0.1341 0.9910 -0.0000
-1.060 -0.866 12.450 0.1341 0.9910 -0.0000
-0.591 -0.930 12.550 0.1341 0.9910 -0.0000
-1.060 -0.866 12.550 0.1341 0.9910 -0.0000
-0.591 -0.930 12.850 0.1341 0.9910 -0.0000
-1.060 -0.866 12.850 0.1341 0.9910 -0.0000
-0.631 1.623 -12.850 0.1780 0.9840 -0.0000
-1.147 1.717 -12.850 0.1780 0.9840 -0.0000
-0.631 1.623 -12.550 0.1780 0.9840 -0.0000
-1.147 1.717 -12.550 0.1780 0.9840 -0.0000
-0.631 1.623 -11.550 0.1780 0.9840 -0.0000
-1.147 1.717 -11.550 0.1780 0.9840 -0.0000
-0.631 1.623 -10.550 0.1780 0.9840 0.0005
-1.147 1.717 -10.550 0.1780 0.9840 0.0004
-0.633 1.623 -9.550 0.1782 0.9840 -0.0000
-1.149 1.717 -9.550 0.1782 0.9840 -0.0000
-0.633 1.624 -8.553 0.1701 0.9393 0.2981
-1.149 1.717 -8.553 0.1699 0.9385 0.3006
-0.686 1.316 -7.553 0.1648 0.9399 0.2991
-1.196 1.405 -7.553 0.1647 0.9391 0.3016
-0.702 1.223 -7.253 0.1632 0.9401 0.2992
-1.211 1.311 -7.253 0.1631 0.9393 0.3017
-0.713 1.161 -7.053 0.1622 0.9403 0.2994
-1.220 1.249 -7.053 0.1621 0.9395 0.3018
-0.740 1.007 -6.553 0.1596 0.9408 0.2991
-1.244 1.092 -6.553 0.1595 0.9400 0.3016
-0.793 0.697 -5.553 0.1543 0.9413 0.3001
-1.291 0.779 -5.553 0.1542 0.9406 0.3026
-0.846 0.387 -4.552 0.1544 0.9761 0.1530
-1.339 0.465 -4.552 0.1544 0.9759 0.1543
-0.873 0.234 -3.552 0.1518 0.9768 0.1510
-1.362 0.310 -3.552 0.1518 0.9766 0.1523
-0.898 0.083 -2.552 0.1492 0.9771 0.1517
-1.385 0.158 -2.552 0.1491 0.9769 0.1530
-0.924 -0.068 -1.552 0.1465 0.9775 0.1518
-1.408 0.005 -1.552 0.1465 0.9773 0.1531
-0.950 -0.219 -0.551 0.1440 0.9786 0.1472
-1.431 -0.149 -0.551 0.1439 0.9784 0.1484
-0.975 -0.366 0.449 0.1418 0.9815 0.1285
-1.454 -0.297 0.449 0.1417 0.9814 0.1296
-0.997 -0.494 1.449 0.1398 0.9840 0.1102
-1.473 -0.426 1.449 0.1398 0.9839 0.1112
-1.015 -0.603 2.449 0.1382 0.9862 0.0913
-1.489 -0.537 2.449 0.1381 0.9861 0.0920
-1.031 -0.694 3.449 0.1368 0.9880 0.0722
-1.503 -0.629 3.449 0.1368 0.9879 0.0728
-1.043 -0.765 4.449 0.1357 0.9893 0.0530
-1.514 -0.701 4.449 0.1357 0.9893 0.0534
-1.052 -0.818 5.450 0.1348 0.9903 0.0343
-1.522 -0.754 5.450 0.1348 0.9903 0.0345
-1.057 -0.852 6.450 0.1343 0.9908 0.0149
-1.527 -0.788 6.450 0.1343 0.9908 0.0151
-1.060 -0.866 7.450 0.1341 0.9910 -0.0000
-1.529 -0.803 7.450 0.1341 0.9910 -0.0000
-1.060 -0.866 8.450 0.1341 0.9910 -0.0000
-1.529 -0.803 8.450 0.1341 0.9910 -0.0000
-1.060 -0.866 9.450 0.1341 0.9910 -0.0000
-1.529 -0.803 9.450 0.1341 0.9910 -0.0000
-1.060 -0.866 10.450 0.1341 0.9910 -0.0000
-1.529 -0.803 10.450 0.1341 0.9910 -0.0000
-1.060 -0.866 11.450 0.1341 0.9910 -0.0000
-1.529 -0.803 11.450 0.1341 0.9910 -0.0000
-1.060 -0.866 12.450 0.1341 0.9910 -0.0000
-1.529 -0.803 12.450 0.1341 0.9910 -0.0000
-1.060 -0.866 12.550 0.1341 0.9910 -0.0000
-1.529 -0.803 12.550 0.1341 0.9910 -0.0000
-1.060 -0.866 12.850 0.1341 0.9910 -0.0000
-1.529 -0.803 12.850 0.1341 0.9910 -0.0000
-1.147 1.717 -12.850 0.1780 0.9840 -0.0000
-1.663 1.810 -12.850 0.1780 0.9840 -0.0000
-1.147 1.717 -12.550 0.1780 0.9840 -0.0000
-1.663 1.810 -12.550 0.1780 0.9840 -0.0000
-1.147 1.717 -11.550 0.1780 0.9840 -0.0000
-1.663 1.810 -11.550 0.1780 0.9840 -0.0000
-1.147 1.717 -10.550 0.1780 0.9840 0.0004
-1.663 1.810 -10.550 0.1780 0.9840 0.0004
-1.149 1.717 -9.550 0.1782 0.9840 -0.0000
-1.665 1.810 -9.550 0.1782 0.9840 -0.0000
-1.149 1.717 -8.553 0.1699 0.9385 0.3006
-1.665 1.810 -8.553 0.1698 0.9377 0.3031
-1.196 1.405 -7.553 0.1647 0.9391 0.3016
-1.706 1.495 -7.553 0.1645 0.9383 0.3040
-1.211 1.311 -7.253 0.1631 0.9393 0.3017
-1.719 1.400 -7.253 0.1630 0.9386 0.3042
-1.220 1.249 -7.053 0.1621 0.9395 0.3018
-1.727 1.336 -7.053 0.1619 0.9387 0.3043
-1.244 1.092 -6.553 0.1595 0.9400 0.3016
-1.748 1.178 -6.553 0.1593 0.9392 0.3040
-1.291 0.779 -5.553 0.1542 0.9406 0.3026
-1.790 0.861 -5.553 0.1541 0.9398 0.3050
-1.339 0.465 -4.552 0.1544 0.9759 0.1543
-1.832 0.543 -4.552 0.1544 0.9757 0.1556
-1.362 0.310 -3.552 0.1518 0.9766 0.1523
-1.852 0.386 -3.552 0.1518 0.9764 0.1536
-1.385 0.158 -2.552 0.1491 0.9769 0.1530
-1.872 0.232 -2.552 0.1491 0.9767 0.1543
-1.408 0.005 -1.552 0.1465 0.9773 0.1531
-1.892 0.077 -1.552 0.1464 0.9771 0.1544
-1.431 -0.149 -0.551 0.1439 0.9784 0.1484
-1.912 -0.078 -0.551 0.1439 0.9782 0.1496
-1.454 -0.297 0.449 0.1417 0.9814 0.1296
-1.932 -0.228 0.449 0.1417 0.9812 0.1307
-1.473 -0.426 1.449 0.1398 0.9839 0.1112
-1.949 -0.359 1.449 0.1398 0.9838 0.1121
-1.489 -0.537 2.449 0.1381 0.9861 0.0920
-1.963 -0.471 2.449 0.1381 0.9861 0.0928
-1.503 -0.629 3.449 0.1368 0.9879 0.0728
-1.975 -0.563 3.449 0.1368 0.9879 0.0734
-1.514 -0.701 4.449 0.1357 0.9893 0.0534
-1.985 -0.636 4.449 0.1357 0.9893 0.0539
-1.522 -0.754 5.450 0.1348 0.9903 0.0345
-1.992 -0.690 5.450 0.1348 0.9903 0.0348
-1.527 -0.788 6.450 0.1343 0.9908 0.0151
-1.996 -0.724 6.450 0.1343 0.9908 0.0152
-1.529 -0.803 7.450 0.1341 0.9910 -0.0000
-1.998 -0.739 7.450 0.1341 0.9910 -0.0000
-1.529 -0.803 8.450 0.1341 0.9910 -0.0000
-1.998 -0.739 8.450 0.1341 0.9910 -0.0000
-1.529 -0.803 9.450 0.1341 0.9910 -0.0000
-1.998 -0.739 9.450 0.1341 0.9910 -0.0000
-1.529 -0.803 10.450 0.1341 0.9910 -0.0000
-1.998 -0.739 10.450 0.1341 0.9910 -0.0000
-1.529 -0.803 11.450 0.1341 0.9910 -0.0000
-1.998 -0.739 11.450 0.1341 0.9910 -0.0000
-1.529 -0.803 12.450 0.1341 0.9910 -0.0000
-1.998 -0.739 12.450 0.1341 0.9910 -0.0000
-1.529 -0.803 12.550 0.1341 0.9910 -0.0000
-1.998 -0.739 12.550 0.1341 0.9910 -0.0000
-1.529 -0.803 12.850 0.1341 0.9910 -0.0000
-1.998 -0.739 12.850 0.1341 0.9910 -0.0000
-1.663 1.810 -12.850 0.1780 0.9840 -0.0000
-2.179 1.903 -12.850 0.1780 0.9840 -0.0000
-1.663 1.810 -12.550 0.1780 0.9840 -0.0000
-2.179 1.903 -12.550 0.1780 0.9840 -0.0000
-1.663 1.810 -11.550 0.1780 0.9840 -0.0000
-2.179 1.903 -11.550 0.1780 0.9840 -0.0000
-1.663 1.810 -10.550 0.1780 0.9840 0.0004
-2.179 1.903 -10.550 0.1780 0.9840 0.0003
-1.665 1.810 -9.550 0.1782 0.9840 -0.0000
-2.181 1.903 -9.550 0.1782 0.9840 -0.0000
-1.665 1.810 -8.553 0.1698 0.9377 0.3031
-2.181 1.904 -8.553 0.1696 0.9369 0.3056
-1.706 1.495 -7.553 0.1645 0.9383 0.3040
-2.216 1.584 -7.553 0.1644 0.9376 0.3065
-1.719 1.400 -7.253 0.1630 0.9386 0.3042
-2.227 1.488 -7.253 0.1628 0.9378 0.3067
-1.727 1.336 -7.053 0.1619 0.9387 0.3043
-2.234 1.424 -7.053 0.1618 0.9379 0.3067
-1.748 1.178 -6.553 0.1593 0.9392 0.3040
-2.252 1.263 -6.553 0.1592 0.9385 0.3065
-1.790 0.861 -5.553 0.1541 0.9398 0.3050
-2.288 0.943 -5.553 0.1539 0.9390 0.3074
-1.832 0.543 -4.552 0.1544 0.9757 0.1556
-2.324 0.621 -4.552 0.1543 0.9755 0.1570
-1.852 0.386 -3.552 0.1518 0.9764 0.1536
-2.342 0.462 -3.552 0.1517 0.9762 0.1549
-1.872 0.232 -2.552 0.1491 0.9767 0.1543
-2.359 0.306 -2.552 0.1491 0.9765 0.1556
-1.892 0.077 -1.552 0.1464 0.9771 0.1544
-2.376 0.150 -1.552 0.1464 0.9769 0.1557
-1.912 -0.078 -0.551 0.1439 0.9782 0.1496
-2.394 -0.007 -0.552 0.1439 0.9780 0.1509
-1.932 -0.228 0.449 0.1417 0.9812 0.1307
-2.410 -0.159 0.449 0.1417 0.9811 0.1318
-1.949 -0.359 1.449 0.1398 0.9838 0.1121
-2.425 -0.291 1.449 0.1398 0.9837 0.1130
-1.963 -0.471 2.449 0.1381 0.9861 0.0928
-2.437 -0.404 2.449 0.1381 0.9860 0.0936
-1.975 -0.563 3.449 0.1368 0.9879 0.0734
-2.448 -0.498 3.449 0.1367 0.9878 0.0740
-1.985 -0.636 4.449 0.1357 0.9893 0.0539
-2.456 -0.572 4.449 0.1357 0.9893 0.0543
-1.992 -0.690 5.450 0.1348 0.9903 0.0348
-2.462 -0.626 5.450 0.1348 0.9902 0.0351
-1.996 -0.724 6.450 0.1343 0.9908 0.0152
-2.465 -0.661 6.450 0.1343 0.9908 0.0153
-1.998 -0.739 7.450 0.1341 0.9910 -0.0000
-2.467 -0.676 7.450 0.1341 0.9910 -0.0000
-1.998 -0.739 8.450 0.1341 0.9910 -0.0000
-2.467 -0.676 8.450 0.1341 0.9910 -0.0000
-1.998 -0.739 9.450 0.1341 0.9910 -0.0000
-2.467 -0.676 9.450 0.1341 0.9910 -0.0000
-1.998 -0.739 10.450 0.1341 0.9910 -0.0000
-2.467 -0.676 10.450 0.1341 0.9910 -0.0000
-1.998 -0.739 11.450 0.1341 0.9910 -0.0000
-2.467 -0.676 11.450 0.1341 0.9910 -0.0000
-1.998 -0.739 12.450 0.1341 0.9910 -0.0000
-2.467 -0.676 12.450 0.1341 0.9910 -0.0000
-1.998 -0.739 12.550 0.1341 0.9910 -0.0000
-2.467 -0.676 12.550 0.1341 0.9910 -0.0000
-1.998 -0.739 12.850 0.1341 0.9910 -0.0000
-2.467 -0.676 12.850 0.1341 0.9910 -0.0000
-2.179 1.903 -12.850 0.1780 0.9840 -0.0000
-2.696 1.997 -12.850 0.1780 0.9840 -0.0000
-2.179 1.903 -12.550 0.1780 0.9840 -0.0000
-2.696 1.997 -12.550 0.1780 0.9840 -0.0000
-2.179 1.903 -11.550 0.1780 0.9840 -0.0000
-2.696 1.997 -11.550 0.1780 0.9840 -0.0000
-2.179 1.903 -10.550 0.1780 0.9840 0.0003
-2.696 1.997 -10.550 0.1780 0.9840 0.0003
-2.181 1.903 -9.550 0.1782 0.9840 -0.0000
-2.697 1.997 -9.550 0.1782 0.9840 -0.0000
-2.181 1.904 -8.553 0.1696 0.9369 0.3056
-2.696 1.997 -8.553 0.1695 0.9361 0.3081
-2.216 1.584 -7.553 0.1644 0.9376 0.3065
-2.727 1.673 -7.553 0.1643 0.9368 0.3090
-2.227 1.488 -7.253 0.1628 0.9378 0.3067
-2.736 1.576 -7.253 0.1627 0.9370 0.3091
-2.234 1.424 -7.053 0.1618 0.9379 0.3067
-2.742 1.511 -7.053 0.1617 0.9372 0.3092
-2.252 1.263 -6.553 0.1592 0.9385 0.3065
-2.757 1.349 -6.553 0.1591 0.9377 0.3089
-2.288 0.943 -5.553 0.1539 0.9390 0.3074
-2.787 1.024 -5.553 0.1538 0.9383 0.3098
-2.324 0.621 -4.552 0.1543 0.9755 0.1570
-2.817 0.699 -4.552 0.1543 0.9753 0.1583
-2.342 0.462 -3.552 0.1517 0.9762 0.1549
-2.831 0.539 -3.552 0.1517 0.9760 0.1562
-2.359 0.306 -2.552 0.1491 0.9765 0.1556
-2.846 0.381 -2.552 0.1490 0.9763 0.1568
-2.376 0.150 -1.552 0.1464 0.9769 0.1557
-2.860 0.222 -1.552 0.1464 0.9767 0.1569
-2.394 -0.007 -0.552 0.1439 0.9780 0.1509
-2.875 0.064 -0.552 0.1438 0.9778 0.1521
-2.410 -0.159 0.449 0.1417 0.9811 0.1318
-2.889 -0.090 0.449 0.1417 0.9810 0.1328
-2.425 -0.291 1.449 0.1398 0.9837 0.1130
-2.901 -0.223 1.449 0.1398 0.9836 0.1139
-2.437 -0.404 2.449 0.1381 0.9860 0.0936
-2.911 -0.338 2.449 0.1381 0.9859 0.0943
-2.448 -0.498 3.449 0.1367 0.9878 0.0740
-2.920 -0.432 3.449 0.1367 0.9878 0.0746
-2.456 -0.572 4.449 0.1357 0.9893 0.0543
-2.927 -0.507 4.449 0.1357 0.9892 0.0548
-2.462 -0.626 5.450 0.1348 0.9902 0.0351
-2.932 -0.562 5.450 0.1348 0.9902 0.0354
-2.465 -0.661 6.450 0.1343 0.9908 0.0153
-2.935 -0.597 6.450 0.1343 0.9908 0.0154
-2.467 -0.676 7.450 0.1341 0.9910 -0.0000
-2.936 -0.612 7.450 0.1341 0.9910 -0.0000
-2.467 -0.676 8.450 0.1341 0.9910 -0.0000
-2.936 -0.612 8.450 0.1341 0.9910 -0.0000
-2.467 -0.676 9.450 0.1341 0.9910 -0.0000
-2.936 -0.612 9.450 0.1341 0.9910 -0.0000
-2.467 -0.676 10.450 0.1341 0.9910 -0.0000
-2.936 -0.612 10.450 0.1341 0.9910 -0.0000
-2.467 -0.676 11.450 0.1341 0.9910 -0.0000
-2.936 -0.612 11.450 0.1341 0.9910 -0.0000
-2.467 -0.676 12.450 0.1341 0.9910 -0.0000
-2.936 -0.612 12.450 0.1341 0.9910 -0.0000
-2.467 -0.676 12.550 0.1341 0.9910 -0.0000
-2.936 -0.612 12.550 0.1341 0.9910 -0.0000
-2.467 -0.676 12.850 0.1341 0.9910 -0.0000
-2.936 -0.612 12.850 0.1341 0.9910 -0.0000
-2.696 1.997 -12.850 0.1780 0.9840 -0.0000
-3.212 2.090 -12.850 0.1780 0.9840 -0.0000
-2.696 1.997 -12.550 0.1780 0.9840 -0.0000
-3.212 2.090 -12.550 0.1780 0.9840 -0.0000
-2.696 1.997 -11.550 0.1780 0.9840 -0.0000
-3.212 2.090 -11.550 0.1780 0.9840 -0.0000
-2.696 1.997 -10.550 0.1780 0.9840 0.0003
-3.212 2.090 -10.550 0.1780 0.9840 0.0002
-2.697 1.997 -9.550 0.1782 0.9840 -0.0000
-3.212 2.090 -9.550 0.1782 0.9840 -0.0000
-2.696 1.997 -8.553 0.1695 0.9361 0.3081
-3.212 2.091 -8.553 0.1693 0.9353 0.3106
-2.727 1.673 -7.553 0.1643 0.9368 0.3090
-3.237 1.763 -7.553 0.1641 0.9360 0.3114
-2.736 1.576 -7.253 0.1627 0.9370 0.3091
-3.244 1.664 -7.253 0.1626 0.9362 0.3116
-2.742 1.511 -7.053 0.1617 0.9372 0.3092
-3.249 1.599 -7.053 0.1615 0.9364 0.3116
-2.757 1.349 -6.553 0.1591 0.9377 0.3089
-3.261 1.434 -6.553 0.1589 0.9369 0.3113
-2.787 1.024 -5.553 0.1538 0.9383 0.3098
-3.285 1.106 -5.553 0.1537 0.9375 0.3122
-2.817 0.699 -4.552 0.1543 0.9753 0.1583
-3.309 0.776 -4.552 0.1543 0.9751 0.1596
-2.831 0.539 -3.552 0.1517 0.9760 0.1562
-3.321 0.615 -3.552 0.1517 0.9758 0.1575
-2.846 0.381 -2.552 0.1490 0.9763 0.1568
-3.333 0.455 -2.552 0.1490 0.9761 0.1581
-2.860 0.222 -1.552 0.1464 0.9767 0.1569
-3.344 0.295 -1.552 0.1464 0.9765 0.1582
-2.875 0.064 -0.552 0.1438 0.9778 0.1521
-3.356 0.135 -0.552 0.1438 0.9777 0.1533
-2.889 -0.090 0.449 0.1417 0.9810 0.1328
-3.367 -0.021 0.449 0.1417 0.9808 0.1339
-2.901 -0.223 1.449 0.1398 0.9836 0.1139
-3.377 -0.156 1.449 0.1397 0.9835 0.1149
-2.911 -0.338 2.449 0.1381 0.9859 0.0943
-3.385 -0.271 2.449 0.1381 0.9858 0.0951
-2.920 -0.432 3.449 0.1367 0.9878 0.0746
-3.392 -0.367 3.449 0.1367 0.9877 0.0752
-2.927 -0.507 4.449 0.1357 0.9892 0.0548
-3.398 -0.442 4.449 0.1357 0.9892 0.0552
-2.932 -0.562 5.450 0.1348 0.9902 0.0354
-3.402 -0.498 5.450 0.1348 0.9902 0.0357
-2.935 -0.597 6.450 0.1343 0.9908 0.0154
-3.404 -0.533 6.450 0.1343 0.9908 0.0156
-2.936 -0.612 7.450 0.1341 0.9910 -0.0000
-3.405 -0.549 7.450 0.1341 0.9910 -0.0000
-2.936 -0.612 8.450 0.1341 0.9910 -0.0000
-3.405 -0.549 8.450 0.1341 0.9910 -0.0000
-2.936 -0.612 9.450 0.1341 0.9910 -0.0000
-3.405 -0.549 9.450 0.1341 0.9910 -0.0000
-2.936 -0.612 10.450 0.1341 0.9910 -0.0000
-3.405 -0.549 10.450 0.1341 0.9910 -0.0000
-2.936 -0.612 11.450 0.1341 0.9910 -0.0000
-3.405 -0.549 11.450 0.1341 0.9910 -0.0000
-2.936 -0.612 12.450 0.1341 0.9910 -0.0000
-3.405 -0.549 12.450 0.1341 0.9910 -0.0000
-2.936 -0.612 12.550 0.1341 0.9910 -0.0000
-3.405 -0.549 12.550 0.1341 0.9910 -0.0000
-2.936 -0.612 12.850 0.1341 0.9910 -0.0000
-3.405 -0.549 12.850 0.1341 0.9910 -0.0000
-3.212 2.090 -12.850 0.1780 0.9840 -0.0000
-3.728 2.184 -12.850 0.1780 0.9840 -0.0000
-3.212 2.090 -12.550 0.1780 0.9840 -0.0000
-3.728 2.184 -12.550 0.1780 0.9840 -0.0000
-3.212 2.090 -11.550 0.1780 0.9840 -0.0000
-3.728 2.184 -11.550 0.1780 0.9840 -0.0000
-3.212 2.090 -10.550 0.1780 0.9840 0.0002
-3.728 2.184 -10.550 0.1780 0.9840 0.0002
-3.212 2.090 -9.550 0.1782 0.9840 -0.0000
-3.728 2.184 -9.550 0.1782 0.9840 -0.0000
-3.212 2.091 -8.553 0.1693 0.9353 0.3106
-3.728 2.184 -8.553 0.1692 0.9345 0.3130
-3.237 1.763 -7.553 0.1641 0.9360 0.3114
-3.747 1.852 -7.553 0.1640 0.9352 0.3139
-3.244 1.664 -7.253 0.1626 0.9362 0.3116
-3.752 1.753 -7.253 0.1624 0.9354 0.3140
-3.249 1.599 -7.053 0.1615 0.9364 0.3116
-3.756 1.686 -7.053 0.1614 0.9356 0.3141
-3.261 1.434 -6.553 0.1589 0.9369 0.3113
-3.765 1.520 -6.553 0.1588 0.9361 0.3138
-3.285 1.106 -5.553 0.1537 0.9375 0.3122
-3.783 1.188 -5.553 0.1536 0.9367 0.3146
-3.309 0.776 -4.552 0.1543 0.9751 0.1596
-3.802 0.854 -4.552 0.1542 0.9748 0.1609
-3.321 0.615 -3.552 0.1517 0.9758 0.1575
-3.811 0.691 -3.552 0.1516 0.9756 0.1588
-3.333 0.455 -2.552 0.1490 0.9761 0.1581
-3.819 0.529 -2.552 0.1490 0.9759 0.1594
-3.344 0.295 -1.552 0.1464 0.9765 0.1582
-3.828 0.367 -1.552 0.1463 0.9763 0.1595
-3.356 0.135 -0.552 0.1438 0.9777 0.1533
-3.837 0.205 -0.552 0.1438 0.9775 0.1546
-3.367 -0.021 0.449 0.1417 0.9808 0.1339
-3.846 0.048 0.449 0.1416 0.9807 0.1350
-3.377 -0.156 1.449 0.1397 0.9835 0.1149
-3.853 -0.088 1.449 0.1397 0.9834 0.1158
-3.385 -0.271 2.449 0.1381 0.9858 0.0951
-3.859 -0.205 2.449 0.1381 0.9858 0.0959
-3.392 -0.367 3.449 0.1367 0.9877 0.0752
-3.864 -0.302 3.449 0.1367 0.9877 0.0758
-3.398 -0.442 4.449 0.1357 0.9892 0.0552
-3.869 -0.378 4.449 0.1356 0.9892 0.0556
-3.402 -0.498 5.450 0.1348 0.9902 0.0357
-3.872 -0.434 5.450 0.1348 0.9902 0.0360
-3.404 -0.533 6.450 0.1343 0.9908 0.0156
-3.873 -0.470 6.450 0.1343 0.9908 0.0157
-3.405 -0.549 7.450 0.1341 0.9910 -0.0000
-3.874 -0.485 7.450 0.1341 0.9910 -0.0000
-3.405 -0.549 8.450 0.1341 0.9910 -0.0000
-3.874 -0.485 8.450 0.1341 0.9910 -0.0000
-3.405 -0.549 9.450 0.1341 0.9910 -0.0000
-3.874 -0.485 9.450 0.1341 0.9910 -0.0000
-3.405 -0.549 10.450 0.1341 0.9910 -0.0000
-3.874 -0.485 10.450 0.1341 0.9910 -0.0000
-3.405 -0.549 11.450 0.1341 0.9910 -0.0000
-3.874 -0.485 11.450 0.1341 0.9910 -0.0000
-3.405 -0.549 12.450 0.1341 0.9910 -0.0000
-3.874 -0.485 12.450 0.1341 0.9910 -0.0000
-3.405 -0.549 12.550 0.1341 0.9910 -0.0000
-3.874 -0.485 12.550 0.1341 0.9910 -0.0000
-3.405 -0.549 12.850 0.1341 0.9910 -0.0000
-3.874 -0.485 12.850 0.1341 0.9910 -0.0000
-3.728 2.184 -12.850 0.1780 0.9840 -0.0000
-4.244 2.277 -12.850 0.1780 0.9840 -0.0000
-3.728 2.184 -12.550 0.1780 0.9840 -0.0000
-4.244 2.277 -12.550 0.1780 0.9840 -0.0000
-3.728 2.184 -11.550 0.1780 0.9840 -0.0000
-4.244 2.277 -11.550 0.1780 0.9840 -0.0000
-3.728 2.184 -10.550 0.1780 0.9840 0.0002
-4.244 2.277 -10.550 0.1780 0.9840 0.0001
-3.728 2.184 -9.550 0.1782 0.9840 -0.0000
-4.244 2.277 -9.550 0.1782 0.9840 -0.0000
-3.728 2.184 -8.553 0.1692 0.9345 0.3130
-4.244 2.277 -8.553 0.1691 0.9337 0.3155
-3.747 1.852 -7.553 0.1640 0.9352 0.3139
-4.257 1.942 -7.553 0.1638 0.9344 0.3163
-3.752 1.753 -7.253 0.1624 0.9354 0.3140
-4.261 1.841 -7.253 0.1623 0.9346 0.3164
-3.756 1.686 -7.053 0.1614 0.9356 0.3141
-4.263 1.774 -7.053 0.1612 0.9348 0.3165
-3.765 1.520 -6.553 0.1588 0.9361 0.3138
-4.269 1.605 -6.553 0.1587 0.9353 0.3162
-3.783 1.188 -5.553 0.1536 0.9367 0.3146
-4.282 1.269 -5.553 0.1534 0.9359 0.3170
-3.802 0.854 -4.552 0.1542 0.9748 0.1609
-4.294 0.932 -4.552 0.1542 0.9746 0.1622
-3.811 0.691 -3.552 0.1516 0.9756 0.1588
-4.300 0.767 -3.552 0.1516 0.9754 0.1600
-3.819 0.529 -2.552 0.1490 0.9759 0.1594
-4.306 0.604 -2.552 0.1489 0.9757 0.1607
-3.828 0.367 -1.552 0.1463 0.9763 0.1595
-4.312 0.440 -1.552 0.1463 0.9761 0.1608
-3.837 0.205 -0.552 0.1438 0.9775 0.1546
-4.318 0.276 -0.552 0.1438 0.9773 0.1558
-3.846 0.048 0.449 0.1416 0.9807 0.1350
-4.324 0.117 0.449 0.1416 0.9805 0.1361
-3.853 -0.088 1.449 0.1397 0.9834 0.1158
-4.329 -0.021 1.449 0.1397 0.9833 0.1167
-3.859 -0.205 2.449 0.1381 0.9858 0.0959
-4.333 -0.139 2.449 0.1381 0.9857 0.0966
-3.864 -0.302 3.449 0.1367 0.9877 0.0758
-4.337 -0.236 3.449 0.1367 0.9877 0.0764
-3.869 -0.378 4.449 0.1356 0.9892 0.0556
-4.339 -0.313 4.449 0.1356 0.9892 0.0561
-3.872 -0.434 5.450 0.1348 0.9902 0.0360
-4.342 -0.370 5.450 0.1348 0.9902 0.0363
-3.873 -0.470 6.450 0.1343 0.9908 0.0157
-4.343 -0.406 6.450 0.1343 0.9908 0.0158
-3.874 -0.485 7.450 0.1341 0.9910 -0.0000
-4.343 -0.422 7.450 0.1341 0.9910 -0.0000
-3.874 -0.485 8.450 0.1341 0.9910 -0.0000
-4.343 -0.422 8.450 0.1341 0.9910 -0.0000
-3.874 -0.485 9.450 0.1341 0.9910 -0.0000
-4.343 -0.422 9.450 0.1341 0.9910 -0.0000
-3.874 -0.485 10.450 0.1341 0.9910 -0.0000
-4.343 -0.422 10.450 0.1341 0.9910 -0.0000
-3.874 -0.485 11.450 0.1341 0.9910 -0.0000
-4.343 -0.422 11.450 0.1341 0.9910 -0.0000
-3.874 -0.485 12.450 0.1341 0.9910 -0.0000
-4.343 -0.422 12.450 0.1341 0.9910 -0.0000
-3.874 -0.485 12.550 0.1341 0.9910 -0.0000
-4.343 -0.422 12.550 0.1341 0.9910 -0.0000
-3.874 -0.485 12.850 0.1341 0.9910 -0.0000
-4.343 -0.422 12.850 0.1341 0.9910 -0.0000
-4.244 2.277 -12.850 0.1780 0.9840 -0.0000
-4.450 2.314 -12.850 0.1780 0.9840 -0.0000
-4.244 2.277 -12.550 0.1780 0.9840 -0.0000
-4.450 2.314 -12.550 0.1780 0.9840 -0.0000
-4.244 2.277 -11.550 0.1780 0.9840 -0.0000
-4.450 2.314 -11.550 0.1780 0.9840 -0.0000
-4.244 2.277 -10.550 0.1780 0.9840 0.0001
-4.450 2.314 -10.550 0.1780 0.9840 0.0001
-4.244 2.277 -9.550 0.1782 0.9840 -0.0000
-4.450 2.314 -9.550 0.1782 0.9840 -0.0000
-4.244 2.277 -8.553 0.1691 0.9337 0.3155
-4.450 2.315 -8.553 0.1690 0.9334 0.3165
-4.257 1.942 -7.553 0.1638 0.9344 0.3163
-4.460 1.977 -7.553 0.1638 0.9341 0.3173
-4.261 1.841 -7.253 0.1623 0.9346 0.3164
-4.463 1.876 -7.253 0.1622 0.9343 0.3174
-4.263 1.774 -7.053 0.1612 0.9348 0.3165
-4.465 1.809 -7.053 0.1612 0.9345 0.3175
-4.269 1.605 -6.553 0.1587 0.9353 0.3162
-4.470 1.640 -6.553 0.1586 0.9350 0.3171
-4.282 1.269 -5.553 0.1534 0.9359 0.3170
-4.481 1.302 -5.553 0.1534 0.9356 0.3179
-4.294 0.932 -4.552 0.1542 0.9746 0.1622
-4.491 0.963 -4.552 0.1542 0.9745 0.1627
-4.300 0.767 -3.552 0.1516 0.9754 0.1600
-4.496 0.797 -3.552 0.1516 0.9753 0.1606
-4.306 0.604 -2.552 0.1489 0.9757 0.1607
-4.500 0.633 -2.552 0.1489 0.9756 0.1612
-4.312 0.440 -1.552 0.1463 0.9761 0.1608
-4.505 0.469 -1.552 0.1463 0.9760 0.1613
-4.318 0.276 -0.552 0.1438 0.9773 0.1558
-4.510 0.304 -0.552 0.1438 0.9772 0.1563
-4.324 0.117 0.449 0.1416 0.9805 0.1361
-4.515 0.145 0.449 0.1416 0.9805 0.1365
-4.329 -0.021 1.449 0.1397 0.9833 0.1167
-4.519 0.006 1.449 0.1397 0.9832 0.1171
-4.333 -0.139 2.449 0.1381 0.9857 0.0966
-4.522 -0.112 2.449 0.1381 0.9857 0.0969
-4.337 -0.236 3.449 0.1367 0.9877 0.0764
-4.525 -0.210 3.449 0.1367 0.9876 0.0767
-4.339 -0.313 4.449 0.1356 0.9892 0.0561
-4.527 -0.288 4.449 0.1356 0.9892 0.0563
-4.342 -0.370 5.450 0.1348 0.9902 0.0363
-4.529 -0.344 5.450 0.1348 0.9902 0.0364
-4.343 -0.406 6.450 0.1343 0.9908 0.0158
-4.530 -0.381 6.450 0.1343 0.9908 0.0159
-4.343 -0.422 7.450 0.1341 0.9910 -0.0000
-4.530 -0.397 7.450 0.1341 0.9910 -0.0000
-4.343 -0.422 8.450 0.1341 0.9910 -0.0000
-4.530 -0.397 8.450 0.1341 0.9910 -0.0000
-4.343 -0.422 9.450 0.1341 0.9910 -0.0000
-4.530 -0.397 9.450 0.1341 0.9910 -0.0000
-4.343 -0.422 10.450 0.1341 0.9910 -0.0000
-4.530 -0.397 10.450 0.1341 0.9910 -0.0000
-4.343 -0.422 11.450 0.1341 0.9910 -0.0000
-4.530 -0.397 11.450 0.1341 0.9910 -0.0000
-4.343 -0.422 12.450 0.1341 0.9910 -0.0000
-4.530 -0.397 12.450 0.1341 0.9910 -0.0000
-4.343 -0.422 12.550 0.1341 0.9910 -0.0000
-4.530 -0.397 12.550 0.1341 0.9910 -0.0000
-4.343 -0.422 12.850 0.1341 0.9910 -0.0000
-4.530 -0.397 12.850 0.1341 0.9910 -0.0000
-4.450 2.314 -12.850 0.1780 0.9840 -0.0000
-4.761 2.361 -12.850 0.1250 0.9922 -0.0000
-4.450 2.314 -12.550 0.1780 0.9840 -0.0000
-4.761 2.361 -12.550 0.1250 0.9922 -0.0000
-4.450 2.314 -11.550 0.1780 0.9840 -0.0000
-4.761 2.361 -11.550 0.1250 0.9922 -0.0000
-4.450 2.314 -10.550 0.1780 0.9840 0.0001
-4.761 2.361 -10.550 0.1250 0.9922 0.0001
-4.450 2.314 -9.550 0.1782 0.9840 -0.0000
-4.761 2.361 -9.550 0.1250 0.9922 -0.0000
-4.450 2.315 -8.553 0.1690 0.9334 0.3165
-4.761 2.361 -8.553 0.1186 0.9406 0.3181
-4.460 1.977 -7.553 0.1638 0.9341 0.3173
-4.767 2.024 -7.553 0.1149 0.9408 0.3189
-4.463 1.876 -7.253 0.1622 0.9343 0.3174
-4.769 1.922 -7.253 0.1138 0.9409 0.3190
-4.465 1.809 -7.053 0.1612 0.9345 0.3175
-4.771 1.855 -7.053 0.1130 0.9410 0.3191
-4.470 1.640 -6.553 0.1586 0.9350 0.3171
-4.774 1.685 -6.553 0.1112 0.9413 0.3187
-4.481 1.302 -5.553 0.1534 0.9356 0.3179
-4.780 1.347 -5.553 0.1075 0.9414 0.3196
-4.491 0.963 -4.552 0.1542 0.9745 0.1627
-4.787 1.008 -4.552 0.1230 0.9788 0.1638
-4.496 0.797 -3.552 0.1516 0.9753 0.1606
-4.790 0.841 -3.552 0.1360 0.9775 0.1614
-4.500 0.633 -2.552 0.1489 0.9756 0.1612
-4.793 0.677 -2.552 0.1341 0.9776 0.1620
-4.505 0.469 -1.552 0.1463 0.9760 0.1613
-4.796 0.511 -1.552 0.1317 0.9779 0.1621
-4.510 0.304 -0.552 0.1438 0.9772 0.1563
-4.799 0.346 -0.552 0.1294 0.9791 0.1570
-4.515 0.145 0.449 0.1416 0.9805 0.1365
-4.802 0.186 0.449 0.1275 0.9823 0.1372
-4.519 0.006 1.449 0.1397 0.9832 0.1171
-4.805 0.047 1.449 0.1258 0.9851 0.1177
-4.522 -0.112 2.449 0.1381 0.9857 0.0969
-4.807 -0.072 2.449 0.1255 0.9873 0.0974
-4.525 -0.210 3.449 0.1367 0.9876 0.0767
-4.809 -0.171 3.449 0.1290 0.9886 0.0770
-4.527 -0.288 4.449 0.1356 0.9892 0.0563
-4.810 -0.249 4.449 0.1317 0.9897 0.0566
-4.529 -0.344 5.450 0.1348 0.9902 0.0364
-4.811 -0.306 5.450 0.1336 0.9904 0.0366
-4.530 -0.381 6.450 0.1343 0.9908 0.0159
-4.812 -0.343 6.450 0.1343 0.9908 0.0159
-4.530 -0.397 7.450 0.1341 0.9910 -0.0000
-4.812 -0.359 7.450 0.1341 0.9910 -0.0000
-4.530 -0.397 8.450 0.1341 0.9910 -0.0000
-4.812 -0.359 8.450 0.1341 0.9910 -0.0000
-4.530 -0.397 9.450 0.1341 0.9910 -0.0000
-4.812 -0.359 9.450 0.1341 0.9910 -0.0000
-4.530 -0.397 10.450 0.1341 0.9910 -0.0000
-4.812 -0.359 10.450 0.1341 0.9910 -0.0000
-4.530 -0.397 11.450 0.1341 0.9910 -0.0000
-4.812 -0.359 11.450 0.1341 0.9910 -0.0000
-4.530 -0.397 12.450 0.1341 0.9910 -0.0000
-4.812 -0.359 12.450 0.1341 0.9910 -0.0000
-4.530 -0.397 12.550 0.1341 0.9910 -0.0000
-4.812 -0.359 12.550 0.1341 0.9910 -0.0000
-4.530 -0.397 12.850 0.1341 0.9910 -0.0000
-4.812 -0.359 12.850 0.1341 0.9910 -0.0000
-4.761 2.361 -12.850 0.1250 0.9922 -0.0000
-5.283 2.391 -12.850 0.0000 1.0000 -0.0000
-4.761 2.361 -12.550 0.1250 0.9922 -0.0000
-5.283 2.391 -12.550 0.0000 1.0000 -0.0000
-4.761 2.361 -11.550 0.1250 0.9922 -0.0000
-5.283 2.391 -11.550 0.0000 1.0000 -0.0000
-4.761 2.361 -10.550 0.1250 0.9922 0.0001
-5.283 2.391 -10.550 0.0000 1.0000 0.0001
-4.761 2.361 -9.550 0.1250 0.9922 -0.0000
-5.283 2.391 -9.550 -0.0000 1.0000 0.0000
-4.761 2.361 -8.553 0.1186 0.9406 0.3181
-5.283 2.392 -8.553 -0.0000 0.9477 0.3193
-4.767 2.024 -7.553 0.1149 0.9408 0.3189
-5.283 2.055 -7.553 0.0000 0.9474 0.3201
-4.769 1.922 -7.253 0.1138 0.9409 0.3190
-5.283 1.953 -7.253 0.0000 0.9473 0.3202
-4.771 1.855 -7.053 0.1130 0.9410 0.3191
-5.283 1.886 -7.053 0.0000 0.9473 0.3203
-4.774 1.685 -6.553 0.1112 0.9413 0.3187
-5.283 1.717 -6.553 0.0000 0.9474 0.3200
-4.780 1.347 -5.553 0.1075 0.9414 0.3196
-5.283 1.379 -5.553 0.0000 0.9471 0.3208
-4.787 1.008 -4.552 0.1230 0.9788 0.1638
-5.283 1.039 -4.552 0.0000 0.9864 0.1643
-4.790 0.841 -3.552 0.1360 0.9775 0.1614
-5.283 0.873 -3.552 0.0000 0.9868 0.1621
-4.793 0.677 -2.552 0.1341 0.9776 0.1620
-5.283 0.708 -2.552 0.0000 0.9867 0.1628
-4.796 0.511 -1.552 0.1317 0.9779 0.1621
-5.283 0.543 -1.552 0.0000 0.9866 0.1629
-4.799 0.346 -0.552 0.1294 0.9791 0.1570
-5.283 0.378 -0.552 0.0000 0.9875 0.1578
-4.802 0.186 0.449 0.1275 0.9823 0.1372
-5.283 0.218 0.449 0.0000 0.9905 0.1379
-4.805 0.047 1.449 0.1258 0.9851 0.1177
-5.283 0.079 1.449 0.0000 0.9930 0.1183
-4.807 -0.072 2.449 0.1255 0.9873 0.0974
-5.283 -0.040 2.449 0.0000 0.9952 0.0979
-4.809 -0.171 3.449 0.1290 0.9886 0.0770
-5.283 -0.138 3.449 0.0000 0.9970 0.0774
-4.810 -0.249 4.449 0.1317 0.9897 0.0566
-5.283 -0.216 4.449 -0.0000 0.9984 0.0568
-4.811 -0.306 5.450 0.1336 0.9904 0.0366
-5.283 -0.273 5.450 -0.0000 0.9993 0.0367
-4.812 -0.343 6.450 0.1343 0.9908 0.0159
-5.283 -0.310 6.450 0.0000 0.9999 0.0160
-4.812 -0.359 7.450 0.1341 0.9910 -0.0000
-5.283 -0.326 7.450 0.0000 1.0000 -0.0000
-4.812 -0.359 8.450 0.1341 0.9910 -0.0000
-5.283 -0.326 8.450 0.0000 1.0000 -0.0000
-4.812 -0.359 9.450 0.1341 0.9910 -0.0000
-5.283 -0.326 9.450 0.0000 1.0000 -0.0000
-4.812 -0.359 10.450 0.1341 0.9910 -0.0000
-5.283 -0.326 10.450 0.0000 1.0000 -0.0000
-4.812 -0.359 11.450 0.1341 0.9910 -0.0000
-5.283 -0.326 11.450 0.0000 1.0000 -0.0000
-4.812 -0.359 12.450 0.1341 0.9910 -0.0000
-5.283 -0.326 12.450 0.0000 1.0000 -0.0000
-4.812 -0.359 12.550 0.1341 0.9910 -0.0000
-5.283 -0.326 12.550 0.0000 1.0000 -0.0000
-4.812 -0.359 12.850 0.1341 0.9910 -0.0000
-5.283 -0.326 12.850 0.0000 1.0000 -0.0000
0 1 2
2 1 3
2 3 4
4 3 5
4 5 6
6 5 7
6 7 8
8 7 9
8 9 10
10 9 11
10 11 12
12 11 13
12 13 14
14 13 15
14 15 16
16 15 17
16 17 18
18 17 19
18 19 20
20 19 21
20 21 22
22 21 23
22 23 24
24 23 25
24 25 26
26 25 27
26 27 28
28 27 29
28 29 30
30 29 31
30 31 32
32 31 33
32 33 34
34 33 35
34 35 36
36 35 37
36 37 38
38 37 39
38 39 40
40 39 41
40 41 42
42 41 43
42 43 44
44 43 45
44 45 46
46 45 47
46 47 48
48 47 49
48 49 50
50 49 51
50 51 52
52 51 53
52 53 54
54 53 55
54 55 56
56 55 57
56 57 58
58 57 59
58 59 60
60 59 61
62 63 64
64 63 65
64 65 66
66 65 67
66 67 68
68 67 69
68 69 70
70 69 71
70 71 72
72 71 73
72 73 74
74 73 75
74 75 76
76 75 77
76 77 78
78 77 79
78 79 80
80 79 81
80 81 82
82 81 83
82 83 84
84 83 85
84 85 86
86 85 87
86 87 88
88 87 89
88 89 90
90 89 91
90 91 92
92 91 93
92 93 94
94 93 95
94 95 96
96 95 97
96 97 98
98 97 99
98 99 100
100 99 101
100 101 102
102 101 103
102 103 104
104 103 105
104 105 106
106 105 107
106 107 108
108 107 109
108 109 110
110 109 111
110 111 112
112 111 113
112 113 114
114 113 115
114 115 116
116 115 117
116 117 118
118 117 119
118 119 120
120 119 121
120 121 122
122 121 123
124 125 126
126 125 127
126 127 128
128 127 129
128 129 130
130 129 131
130 131 132
132 131 133
132 133 134
134 133 135
134 135 136
136 135 137
136 137 138
138 137 139
138 139 140
140 139 141
140 141 142
142 141 143
142 143 144
144 143 145
144 145 146
146 145 147
146 147 148
148 147 149
148 149 150
150 149 151
150 151 152
152 151 153
152 153 154
154 153 155
154 155 156
156 155 157
156 157 158
158 157 159
158 159 160
160 159 161
160 161 162
162 161 163
162 163 164
164 163 165
164 165 166
166 165 167
166 167 168
168 167 169
168 169 170
170 169 171
170 171 172
172 171 173
172 173 174
174 173 175
174 175 176
176 175 177
176 177 178
178 177 179
178 179 180
180 179 181
180 181 182
182 181 183
182 183 184
184 183 185
186 187 188
188 187 189
188 189 190
190 189 191
190 191 192
192 191 193
192 193 194
194 193 195
194 195 196
196 195 197
196 197 198
198 197 199
198 199 200
200 199 201
200 201 202
202 201 203
202 203 204
204 203 205
204 205 206
206 205 207
206 207 208
208 207 209
208 209 210
210 209 211
210 211 212
212 211 213
212 213 214
214 213 215
214 215 216
216 215 217
216 217 218
218 217 219
218 219 220
220 219 221
220 221 222
222 221 223
222 223 224
224 223 225
224 225 226
226 225 227
226 227 228
228 227 229
228 229 230
230 229 231
230 231 232
232 231 233
232 233 234
234 233 235
234 235 236
236 235 237
236 237 238
238 237 239
238 239 240
240 239 241
240 241 242
242 241 243
242 243 244
244 243 245
244 245 246
246 245 247
248 249 250
250 249 251
250 251 252
252 251 253
252 253 254
254 253 255
254 255 256
256 255 257
256 257 258
258 257 259
258 259 260
260 259 261
260 261 262
262 261 263
262 263 264
264 263 265
264 265 266
266 265 267
266 267 268
268 267 269
268 269 270
270 269 271
270 271 272
272 271 273
272 273 274
274 273 275
274 275 276
276 275 277
276 277 278
278 277 279
278 279 280
280 279 281
280 281 282
282 281 283
282 283 284
284 283 285
284 285 286
286 285 287
286 287 288
288 287 289
288 289 290
290 289 291
290 291 292
292 291 293
292 293 294
294 293 295
294 295 296
296 295 297
296 297 298
298 297 299
298 299 300
300 299 301
300 301 302
302 301 303
302 303 304
304 303 305
304 305 306
306 305 307
306 307 308
308 307 309
310 311 312
312 311 313
312 313 314
314 313 315
314 315 316
316 315 317
316 317 318
318 317 319
318 319 320
320 319 321
320 321 322
322 321 323
322 323 324
324 323 325
324 325 326
326 325 327
326 327 328
328 327 329
328 329 330
330 329 331
330 331 332
332 331 333
332 333 334
334 333 335
334 335 336
336 335 337
336 337 338
338 337 339
338 339 340
340 339 341
340 341 342
342 341 343
342 343 344
344 343 345
344 345 346
346 345 347
346 347 348
348 347 349
348 349 350
350 349 351
350 351 352
352 351 353
352 353 354
354 353 355
354 355 356
356 355 357
356 357 358
358 357 359
358 359 360
360 359 361
360 361 362
362 361 363
362 363 364
364 363 365
364 365 366
366 365 367
366 367 368
368 367 369
368 369 370
370 369 371
372 373 374
374 373 375
374 375 376
376 375 377
376 377 378
378 377 379
378 379 380
380 379 381
380 381 382
382 381 383
382 383 384
384 383 385
384 385 386
386 385 387
386 387 388
388 387 389
388 389 390
390 389 391
390 391 392
392 391 393
392 393 394
394 393 395
394 395 396
396 395 397
396 397 398
398 397 399
398 399 400
400 399 401
400 401 402
402 401 403
402 403 404
404 403 405
404 405 406
406 405 407
406 407 408
408 407 409
408 409 410
410 409 411
410 411 412
412 411 413
412 413 414
414 413 415
414 415 416
416 415 417
416 417 418
418 417 419
418 419 420
420 419 421
420 421 422
422 421 423
422 423 424
424 423 425
424 425 426
426 425 427
426 427 428
428 427 429
428 429 430
430 429 431
430 431 432
432 431 433
434 435 436
436 435 437
436 437 438
438 437 439
438 439 440
440 439 441
440 441 442
442 441 443
442 443 444
444 443 445
444 445 446
446 445 447
446 447 448
448 447 449
448 449 450
450 449 451
450 451 452
452 451 453
452 453 454
454 453 455
454 455 456
456 455 457
456 457 458
458 457 459
458 459 460
460 459 461
460 461 462
462 461 463
462 463 464
464 463 465
464 465 466
466 465 467
466 467 468
468 467 469
468 469 470
470 469 471
470 471 472
472 471 473
472 473 474
474 473 475
474 475 476
476 475 477
476 477 478
478 477 479
478 479 480
480 479 481
480 481 482
482 481 483
482 483 484
484 483 485
484 485 486
486 485 487
486 487 488
488 487 489
488 489 490
490 489 491
490 491 492
492 491 493
492 493 494
494 493 495
496 497 498
498 497 499
498 499 500
500 499 501
500 501 502
502 501 503
502 503 504
504 503 505
504 505 506
506 505 507
506 507 508
508 507 509
508 509 510
510 509 511
510 511 512
512 511 513
512 513 514
514 513 515
514 515 516
516 515 517
516 517 518
518 517 519
518 519 520
520 519 521
520 521 522
522 521 523
522 523 524
524 523 525
524 525 526
526 525 527
526 527 528
528 527 529
528 529 530
530 529 531
530 531 532
532 531 533
532 533 534
534 533 535
534 535 536
536 535 537
536 537 538
538 537 539
538 539 540
540 539 541
540 541 542
542 541 543
542 543 544
544 543 545
544 545 546
546 545 547
546 547 548
548 547 549
548 549 550
550 549 551
550 551 552
552 551 553
552 553 554
554 553 555
554 555 556
556 555 557
558 559 560
560 559 561
560 561 562
562 561 563
562 563 564
564 563 565
564 565 566
566 565 567
566 567 568
568 567 569
568 569 570
570 569 571
570 571 572
572 571 573
572 573 574
574 573 575
574 575 576
576 575 577
576 577 578
578 577 579
578 579 580
580 579 581
580 581 582
582 581 583
582 583 584
584 583 585
584 585 586
586 585 587
586 587 588
588 587 589
588 589 590
590 589 591
590 591 592
592 591 593
592 593 594
594 593 595
594 595 596
596 595 597
596 597 598
598 597 599
598 599 600
600 599 601
600 601 602
602 601 603
602 603 604
604 603 605
604 605 606
606 605 607
606 607 608
608 607 609
608 609 610
610 609 611
610 611 612
612 611 613
612 613 614
614 613 615
614 615 616
616 615 617
616 617 618
618 617 619
620 621 622
622 621 623
622 623 624
624 623 625
624 625 626
626 625 627
626 627 628
628 627 629
628 629 630
630 629 631
630 631 632
632 631 633
632 633 634
634 633 635
634 635 636
636 635 637
636 637 638
638 637 639
638 639 640
640 639 641
640 641 642
642 641 643
642 643 644
644 643 645
644 645 646
646 645 647
646 647 648
648 647 649
648 649 650
650 649 651
650 651 652
652 651 653
652 653 654
654 653 655
654 655 656
656 655 657
656 657 658
658 657 659
658 659 660
660 659 661
660 661 662
662 661 663
662 663 664
664 663 665
664 665 666
666 665 667
666 667 668
668 667 669
668 669 670
670 669 671
670 671 672
672 671 673
672 673 674
674 673 675
674 675 676
676 675 677
676 677 678
678 677 679
678 679 680
680 679 681
682 683 684
684 683 685
684 685 686
686 685 687
686 687 688
688 687 689
688 689 690
690 689 691
690 691 692
692 691 693
692 693 694
694 693 695
694 695 696
696 695 697
696 697 698
698 697 699
698 699 700
700 699 701
700 701 702
702 701 703
702 703 704
704 703 705
704 705 706
706 705 707
706 707 708
708 707 709
708 709 710
710 709 711
710 711 712
712 711 713
712 713 714
714 713 715
714 715 716
716 715 717
716 717 718
718 717 719
718 719 720
720 719 721
720 721 722
722 721 723
722 723 724
724 723 725
724 725 726
726 725 727
726 727 728
728 727 729
728 729 730
730 729 731
730 731 732
732 731 733
732 733 734
734 733 735
734 735 736
736 735 737
736 737 738
738 737 739
738 739 740
740 739 741
740 741 742
742 741 743
744 745 746
746 745 747
746 747 748
748 747 749
748 749 750
750 749 751
750 751 752
752 751 753
752 753 754
754 753 755
754 755 756
756 755 757
756 757 758
758 757 759
758 759 760
760 759 761
760 761 762
762 761 763
762 763 764
764 763 765
764 765 766
766 765 767
766 767 768
768 767 769
768 769 770
770 769 771
770 771 772
772 771 773
772 773 774
774 773 775
774 775 776
776 775 777
776 777 778
778 777 779
778 779 780
780 779 781
780 781 782
782 781 783
782 783 784
784 783 785
784 785 786
786 785 787
786 787 788
788 787 789
788 789 790
790 789 791
790 791 792
792 791 793
792 793 794
794 793 795
794 795 796
796 795 797
796 797 798
798 797 799
798 799 800
800 799 801
800 801 802
802 801 803
802 803 804
804 803 805
806 807 808
808 807 809
808 809 810
810 809 811
810 811 812
812 811 813
812 813 814
814 813 815
814 815 816
816 815 817
816 817 818
818 817 819
818 819 820
820 819 821
820 821 822
822 821 823
822 823 824
824 823 825
824 825 826
826 825 827
826 827 828
828 827 829
828 829 830
830 829 831
830 831 832
832 831 833
832 833 834
834 833 835
834 835 836
836 835 837
836 837 838
838 837 839
838 839 840
840 839 841
840 841 842
842 841 843
842 843 844
844 843 845
844 845 846
846 845 847
846 847 848
848 847 849
848 849 850
850 849 851
850 851 852
852 851 853
852 853 854
854 853 855
854 855 856
856 855 857
856 857 858
858 857 859
858 859 860
860 859 861
860 861 862
862 861 863
862 863 864
864 863 865
864 865 866
866 865 867
868 869 870
870 869 871
870 871 872
872 871 873
872 873 874
874 873 875
874 875 876
876 875 877
876 877 878
878 877 879
878 879 880
880 879 881
880 881 882
882 881 883
882 883 884
884 883 885
884 885 886
886 885 887
886 887 888
888 887 889
888 889 890
890 889 891
890 891 892
892 891 893
892 893 894
894 893 895
894 895 896
896 895 897
896 897 898
898 897 899
898 899 900
900 899 901
900 901 902
902 901 903
902 903 904
904 903 905
904 905 906
906 905 907
906 907 908
908 907 909
908 909 910
910 909 911
910 911 912
912 911 913
912 913 914
914 913 915
914 915 916
916 915 917
916 917 918
918 917 919
918 919 920
920 919 921
920 921 922
922 921 923
922 923 924
924 923 925
924 925 926
926 925 927
926 927 928
928 927 929
930 931 932
932 931 933
932 933 934
934 933 935
934 935 936
936 935 937
936 937 938
938 937 939
938 939 940
940 939 941
940 941 942
942 941 943
942 943 944
944 943 945
944 945 946
946 945 947
946 947 948
948 947 949
948 949 950
950 949 951
950 951 952
952 951 953
952 953 954
954 953 955
954 955 956
956 955 957
956 957 958
958 957 959
958 959 960
960 959 961
960 961 962
962 961 963
962 963 964
964 963 965
964 965 966
966 965 967
966 967 968
968 967 969
968 969 970
970 969 971
970 971 972
972 971 973
972 973 974
974 973 975
974 975 976
976 975 977
976 977 978
978 977 979
978 979 980
980 979 981
980 981 982
982 981 983
982 983 984
984 983 985
984 985 986
986 985 987
986 987 988
988 987 989
988 989 990
990 989 991
992 993 994
994 993 995
994 995 996
996 995 997
996 997 998
998 997 999
998 999 1000
1000 999 1001
1000 1001 1002
1002 1001 1003
1002 1003 1004
1004 1003 1005
1004 1005 1006
1006 1005 1007
1006 1007 1008
1008 1007 1009
1008 1009 1010
1010 1009 1011
1010 1011 1012
1012 1011 1013
1012 1013 1014
1014 1013 1015
1014 1015 1016
1016 1015 1017
1016 1017 1018
1018 1017 1019
1018 1019 1020
1020 1019 1021
1020 1021 1022
1022 1021 1023
1022 1023 1024
1024 1023 1025
1024 1025 1026
1026 1025 1027
1026 1027 1028
1028 1027 1029
1028 1029 1030
1030 1029 1031
1030 1031 1032
1032 1031 1033
1032 1033 1034
1034 1033 1035
1034 1035 1036
1036 1035 1037
1036 1037 1038
1038 1037 1039
1038 1039 1040
1040 1039 1041
1040 1041 1042
1042 1041 1043
1042 1043 1044
1044 1043 1045
1044 1045 1046
1046 1045 1047
1046 1047 1048
1048 1047 1049
1048 1049 1050
1050 1049 1051
1050 1051 1052
1052 1051 1053
1054 1055 1056
1056 1055 1057
1056 1057 1058
1058 1057 1059
1058 1059 1060
1060 1059 1061
1060 1061 1062
1062 1061 1063
1062 1063 1064
1064 1063 1065
1064 1065 1066
1066 1065 1067
1066 1067 1068
1068 1067 1069
1068 1069 1070
1070 1069 1071
1070 1071 1072
1072 1071 1073
1072 1073 1074
1074 1073 1075
1074 1075 1076
1076 1075 1077
1076 1077 1078
1078 1077 1079
1078 1079 1080
1080 1079 1081
1080 1081 1082
1082 1081 1083
1082 1083 1084
1084 1083 1085
1084 1085 1086
1086 1085 1087
1086 1087 1088
1088 1087 1089
1088 1089 1090
1090 1089 1091
1090 1091 1092
1092 1091 1093
1092 1093 1094
1094 1093 1095
1094 1095 1096
1096 1095 1097
1096 1097 1098
1098 1097 1099
1098 1099 1100
1100 1099 1101
1100 1101 1102
1102 1101 1103
1102 1103 1104
1104 1103 1105
1104 1105 1106
1106 1105 1107
1106 1107 1108
1108 1107 1109
1108 1109 1110
1110 1109 1111
1110 1111 1112
1112 1111 1113
1112 1113 1114
1114 1113 1115
1116 1117 1118
1118 1117 1119
1118 1119 1120
1120 1119 1121
1120 1121 1122
1122 1121 1123
1122 1123 1124
1124 1123 1125
1124 1125 1126
1126 1125 1127
1126 1127 1128
1128 1127 1129
1128 1129 1130
1130 1129 1131
1130 1131 1132
1132 1131 1133
1132 1133 1134
1134 1133 1135
1134 1135 1136
1136 1135 1137
1136 1137 1138
1138 1137 1139
1138 1139 1140
1140 1139 1141
1140 1141 1142
1142 1141 1143
1142 1143 1144
1144 1143 1145
1144 1145 1146
1146 1145 1147
1146 1147 1148
1148 1147 1149
1148 1149 1150
1150 1149 1151
1150 1151 1152
1152 1151 1153
1152 1153 1154
1154 1153 1155
1154 1155 1156
1156 1155 1157
1156 1157 1158
1158 1157 1159
1158 1159 1160
1160 1159 1161
1160 1161 1162
1162 1161 1163
1162 1163 1164
1164 1163 1165
1164 1165 1166
1166 1165 1167
1166 1167 1168
1168 1167 1169
1168 1169 1170
1170 1169 1171
1170 1171 1172
1172 1171 1173
1172 1173 1174
1174 1173 1175
1174 1175 1176
1176 1175 1177
1178 1179 1180
1180 1179 1181
1180 1181 1182
1182 1181 1183
1182 1183 1184
1184 1183 1185
1184 1185 1186
1186 1185 1187
1186 1187 1188
1188 1187 1189
1188 1189 1190
1190 1189 1191
1190 1191 1192
1192 1191 1193
1192 1193 1194
1194 1193 1195
1194 1195 1196
1196 1195 1197
1196 1197 1198
1198 1197 1199
1198 1199 1200
1200 1199 1201
1200 1201 1202
1202 1201 1203
1202 1203 1204
1204 1203 1205
1204 1205 1206
1206 1205 1207
1206 1207 1208
1208 1207 1209
1208 1209 1210
1210 1209 1211
1210 1211 1212
1212 1211 1213
1212 1213 1214
1214 1213 1215
1214 1215 1216
1216 1215 1217
1216 1217 1218
1218 1217 1219
1218 1219 1220
1220 1219 1221
1220 1221 1222
1222 1221 1223
1222 1223 1224
1224 1223 1225
1224 1225 1226
1226 1225 1227
1226 1227 1228
1228 1227 1229
1228 1229 1230
1230 1229 1231
1230 1231 1232
1232 1231 1233
1232 1233 1234
1234 1233 1235
1234 1235 1236
1236 1235 1237
1236 1237 1238
1238 1237 1239
1240 1241 1242
1242 1241 1243
1242 1243 1244
1244 1243 1245
1244 1245 1246
1246 1245 1247
1246 1247 1248
1248 1247 1249
1248 1249 1250
1250 1249 1251
1250 1251 1252
1252 1251 1253
1252 1253 1254
1254 1253 1255
1254 1255 1256
1256 1255 1257
1256 1257 1258
1258 1257 1259
1258 1259 1260
1260 1259 1261
1260 1261 1262
1262 1261 1263
1262 1263 1264
1264 1263 1265
1264 1265 1266
1266 1265 1267
1266 1267 1268
1268 1267 1269
1268 1269 1270
1270 1269 1271
1270 1271 1272
1272 1271 1273
1272 1273 1274
1274 1273 1275
1274 1275 1276
1276 1275 1277
1276 1277 1278
1278 1277 1279
1278 1279 1280
1280 1279 1281
1280 1281 1282
1282 1281 1283
1282 1283 1284
1284 1283 1285
1284 1285 1286
1286 1285 1287
1286 1287 1288
1288 1287 1289
1288 1289 1290
1290 1289 1291
1290 1291 1292
1292 1291 1293
1292 1293 1294
1294 1293 1295
1294 1295 1296
1296 1295 1297
1296 1297 1298
1298 1297 1299
1298 1299 1300
1300 1299 1301
1302 1303 1304
1304 1303 1305
1304 1305 1306
1306 1305 1307
1306 1307 1308
1308 1307 1309
1308 1309 1310
1310 1309 1311
1310 1311 1312
1312 1311 1313
1312 1313 1314
1314 1313 1315
1314 1315 1316
1316 1315 1317
1316 1317 1318
1318 1317 1319
1318 1319 1320
1320 1319 1321
1320 1321 1322
1322 1321 1323
1322 1323 1324
1324 1323 1325
1324 1325 1326
1326 1325 1327
1326 1327 1328
1328 1327 1329
1328 1329 1330
1330 1329 1331
1330 1331 1332
1332 1331 1333
1332 1333 1334
1334 1333 1335
1334 1335 1336
1336 1335 1337
1336 1337 1338
1338 1337 1339
1338 1339 1340
1340 1339 1341
1340 1341 1342
1342 1341 1343
1342 1343 1344
1344 1343 1345
1344 1345 1346
1346 1345 1347
1346 1347 1348
1348 1347 1349
1348 1349 1350
1350 1349 1351
1350 1351 1352
1352 1351 1353
1352 1353 1354
1354 1353 1355
1354 1355 1356
1356 1355 1357
1356 1357 1358
1358 1357 1359
1358 1359 1360
1360 1359 1361
1360 1361 1362
1362 1361 1363
1364 1365 1366
1366 1365 1367
1366 1367 1368
1368 1367 1369
1368 1369 1370
1370 1369 1371
1370 1371 1372
1372 1371 1373
1372 1373 1374
1374 1373 1375
1374 1375 1376
1376 1375 1377
1376 1377 1378
1378 1377 1379
1378 1379 1380
1380 1379 1381
1380 1381 1382
1382 1381 1383
1382 1383 1384
1384 1383 1385
1384 1385 1386
1386 1385 1387
1386 1387 1388
1388 1387 1389
1388 1389 1390
1390 1389 1391
1390 1391 1392
1392 1391 1393
1392 1393 1394
1394 1393 1395
1394 1395 1396
1396 1395 1397
1396 1397 1398
1398 1397 1399
1398 1399 1400
1400 1399 1401
1400 1401 1402
1402 1401 1403
1402 1403 1404
1404 1403 1405
1404 1405 1406
1406 1405 1407
1406 1407 1408
1408 1407 1409
1408 1409 1410
1410 1409 1411
1410 1411 1412
1412 1411 1413
1412 1413 1414
1414 1413 1415
1414 1415 1416
1416 1415 1417
1416 1417 1418
1418 1417 1419
1418 1419 1420
1420 1419 1421
1420 1421 1422
1422 1421 1423
1422 1423 1424
1424 1423 1425
1426 1427 1428
1428 1427 1429
1428 1429 1430
1430 1429 1431
1430 1431 1432
1432 1431 1433
1432 1433 1434
1434 1433 1435
1434 1435 1436
1436 1435 1437
1436 1437 1438
1438 1437 1439
1438 1439 1440
1440 1439 1441
1440 1441 1442
1442 1441 1443
1442 1443 1444
1444 1443 1445
1444 1445 1446
1446 1445 1447
1446 1447 1448
1448 1447 1449
1448 1449 1450
1450 1449 1451
1450 1451 1452
1452 1451 1453
1452 1453 1454
1454 1453 1455
1454 1455 1456
1456 1455 1457
1456 1457 1458
1458 1457 1459
1458 1459 1460
1460 1459 1461
1460 1461 1462
1462 1461 1463
1462 1463 1464
1464 1463 1465
1464 1465 1466
1466 1465 1467
1466 1467 1468
1468 1467 1469
1468 1469 1470
1470 1469 1471
1470 1471 1472
1472 1471 1473
1472 1473 1474
1474 1473 1475
1474 1475 1476
1476 1475 1477
1476 1477 1478
1478 1477 1479
1478 1479 1480
1480 1479 1481
1480 1481 1482
1482 1481 1483
1482 1483 1484
1484 1483 1485
1484 1485 1486
1486 1485 1487
1488 1489 1490
1490 1489 1491
1490 1491 1492
1492 1491 1493
1492 1493 1494
1494 1493 1495
1494 1495 1496
1496 1495 1497
1496 1497 1498
1498 1497 1499
1498 1499 1500
1500 1499 1501
1500 1501 1502
1502 1501 1503
1502 1503 1504
1504 1503 1505
1504 1505 1506
1506 1505 1507
1506 1507 1508
1508 1507 1509
1508 1509 1510
1510 1509 1511
1510 1511 1512
1512 1511 1513
1512 1513 1514
1514 1513 1515
1514 1515 1516
1516 1515 1517
1516 1517 1518
1518 1517 1519
1518 1519 1520
1520 1519 1521
1520 1521 1522
1522 1521 1523
1522 1523 1524
1524 1523 1525
1524 1525 1526
1526 1525 1527
1526 1527 1528
1528 1527 1529
1528 1529 1530
1530 1529 1531
1530 1531 1532
1532 1531 1533
1532 1533 1534
1534 1533 1535
1534 1535 1536
1536 1535 1537
1536 1537 1538
1538 1537 1539
1538 1539 1540
1540 1539 1541
1540 1541 1542
1542 1541 1543
1542 1543 1544
1544 1543 1545
1544 1545 1546
1546 1545 1547
1546 1547 1548
1548 1547 1549
MATERIALS 82
hull_lacquer
nose_iridium
crest_radiator
structure
boron_nitride
engine_metal
mechanism
dark
band
planetary_cup
rover
shuttle
trap_shell
canopy
br_vault
br_floor
br_panel
br_panel_face
br_tub
br_holo
br_screen
br_glow
br_display
br_green
br_red
br_amber
br_seat
br_cushion
br_bezel
br_rib
br_lamp
br_cove
br_vault_lit
br_floor_lit
br_belt
in_floor
in_wall
in_ceiling
in_light
in_furn
in_seat
in_metal
in_wet
in_screen
in_trim
in_green
in_amber
in_red
in_guide
in_btn_dim
in_wall_w
in_floor_w
in_ceil_w
in_metal_w
in_trim_w
in_guide_w
in_fx
in_downlight
in_cove
lift_glass
in_wip
in_btn_cap
in_cablight
in_glass
in_wall_r
in_floor_r
in_ceil_r
in_metal_r
in_dutyred
in_door
in_wall_d
in_floor_d
in_ceil_d
in_metal_d
br_malachite
br_cur_ball
br_cur_lit
br_spot
br_cover
br_glass_disp
br_hud_glass
belly_carbide
MATERIAL hull_lacquer
0.800 0.790 0.760 1.00
0.800 0.790 0.760 1.00
0.300 0.300 0.300 1 20
0.000 0.000 0.000 1
MATERIAL nose_iridium
0.720 0.480 0.180 1.00
0.720 0.480 0.180 1.00
0.950 0.850 0.600 1 80
0.000 0.000 0.000 1
MATERIAL crest_radiator
0.130 0.130 0.140 1.00
0.130 0.130 0.140 1.00
0.150 0.150 0.150 1 10
0.000 0.000 0.000 1
MATERIAL structure
0.260 0.270 0.290 1.00
0.260 0.270 0.290 1.00
0.200 0.200 0.200 1 15
0.000 0.000 0.000 1
MATERIAL boron_nitride
0.620 0.580 0.920 1.00
0.620 0.580 0.920 1.00
0.600 0.600 0.700 1 40
0.080 0.060 0.200 1
MATERIAL engine_metal
0.220 0.220 0.240 1.00
0.220 0.220 0.240 1.00
0.500 0.500 0.500 1 40
0.000 0.000 0.000 1
MATERIAL mechanism
0.540 0.560 0.600 1.00
0.540 0.560 0.600 1.00
0.700 0.700 0.720 1 50
0.000 0.000 0.000 1
MATERIAL dark
0.070 0.070 0.090 1.00
0.070 0.070 0.090 1.00
0.050 0.050 0.050 1 5
0.000 0.000 0.000 1
MATERIAL band
0.300 0.310 0.330 1.00
0.300 0.310 0.330 1.00
0.500 0.550 0.650 1 40
0.000 0.000 0.000 1
MATERIAL planetary_cup
0.600 0.700 0.850 1.00
0.600 0.700 0.850 1.00
0.700 0.700 0.800 1 50
0.030 0.060 0.100 1
MATERIAL rover
0.550 0.480 0.320 1.00
0.550 0.480 0.320 1.00
0.300 0.300 0.300 1 20
0.000 0.000 0.000 1
MATERIAL shuttle
0.850 0.840 0.810 1.00
0.850 0.840 0.810 1.00
0.400 0.400 0.400 1 30
0.000 0.000 0.000 1
MATERIAL trap_shell
0.440 0.470 0.560 1.00
0.440 0.470 0.560 1.00
0.450 0.450 0.500 1 30
0.000 0.000 0.000 1
MATERIAL canopy
0.360 0.370 0.400 1.00
0.360 0.370 0.400 1.00
0.550 0.550 0.600 1 35
0.000 0.000 0.000 1
MATERIAL br_vault
0.150 0.160 0.180 1.00
0.150 0.160 0.180 1.00
0.060 0.060 0.070 1 8
0.026 0.030 0.038 1
MATERIAL br_floor
0.550 0.580 0.620 1.00
0.550 0.580 0.620 1.00
0.350 0.360 0.400 1 40
0.160 0.180 0.210 1
MATERIAL br_panel
0.170 0.180 0.200 1.00
0.170 0.180 0.200 1.00
0.200 0.210 0.240 1 20
0.028 0.032 0.040 1
MATERIAL br_panel_face
0.240 0.250 0.280 1.00
0.240 0.250 0.280 1.00
0.300 0.320 0.360 1 30
0.042 0.047 0.056 1
MATERIAL br_tub
0.300 0.310 0.340 1.00
0.300 0.310 0.340 1.00
0.250 0.260 0.300 1 25
0.050 0.055 0.066 1
MATERIAL br_holo
0.050 0.200 0.260 1.00
0.050 0.200 0.260 1.00
0.000 0.000 0.000 1 1
0.060 0.260 0.340 1
MATERIAL br_screen
0.020 0.030 0.060 1.00
0.020 0.030 0.060 1.00
0.300 0.300 0.400 1 40
0.030 0.050 0.100 1
MATERIAL br_glow
0.400 0.900 1.000 1.00
0.400 0.900 1.000 1.00
0.000 0.000 0.000 1 1
0.300 0.700 0.900 1
MATERIAL br_display
1.000 1.000 1.000 1.00
1.000 1.000 1.000 1.00
0.000 0.000 0.000 1 1
1.000 1.000 1.000 1
MATERIAL br_green
0.300 1.000 0.500 1.00
0.300 1.000 0.500 1.00
0.000 0.000 0.000 1 1
0.200 0.900 0.400 1
MATERIAL br_red
0.900 0.200 0.150 1.00
0.900 0.200 0.150 1.00
0.300 0.100 0.100 1 20
0.500 0.080 0.050 1
MATERIAL br_amber
1.000 0.800 0.300 1.00
1.000 0.800 0.300 1.00
0.000 0.000 0.000 1 1
0.700 0.500 0.100 1
MATERIAL br_seat
0.200 0.210 0.230 1.00
0.200 0.210 0.230 1.00
0.300 0.300 0.350 1 30
0.024 0.026 0.030 1
MATERIAL br_cushion
0.210 0.240 0.290 1.00
0.210 0.240 0.290 1.00
0.100 0.100 0.120 1 10
0.028 0.032 0.040 1
MATERIAL br_bezel
0.620 0.640 0.680 1.00
0.620 0.640 0.680 1.00
0.400 0.410 0.450 1 40
0.075 0.080 0.090 1
MATERIAL br_rib
0.220 0.230 0.260 1.00
0.220 0.230 0.260 1.00
0.300 0.310 0.350 1 30
0.034 0.038 0.046 1
MATERIAL br_lamp
0.800 0.880 1.000 1.00
0.800 0.880 1.000 1.00
0.000 0.000 0.000 1 1
0.620 0.700 0.800 1
MATERIAL br_cove
0.300 0.550 0.800 1.00
0.300 0.550 0.800 1.00
0.000 0.000 0.000 1 1
0.160 0.300 0.460 1
MATERIAL br_vault_lit
0.060 0.060 0.070 1.00
0.060 0.060 0.070 1.00
0.040 0.040 0.050 1 8
1.000 1.000 1.000 1
MATERIAL br_floor_lit
0.080 0.080 0.090 1.00
0.080 0.080 0.090 1.00
0.100 0.100 0.120 1 20
1.000 1.000 1.000 1
MATERIAL br_belt
0.880 0.560 0.160 1.00
0.880 0.560 0.160 1.00
0.100 0.100 0.100 1 10
0.000 0.000 0.000 1
MATERIAL in_floor
0.500 0.500 0.500 1.00
0.500 0.500 0.500 1.00
0.100 0.100 0.100 1 10
0.500 0.500 0.520 1
MATERIAL in_wall
0.450 0.450 0.450 1.00
0.450 0.450 0.450 1.00
0.050 0.050 0.050 1 5
0.600 0.600 0.620 1
MATERIAL in_ceiling
0.450 0.450 0.450 1.00
0.450 0.450 0.450 1.00
0.000 0.000 0.000 1 1
0.550 0.550 0.570 1
MATERIAL in_light
1.000 0.970 0.880 1.00
1.000 0.970 0.880 1.00
0.000 0.000 0.000 1 1
1.000 0.960 0.840 1
MATERIAL in_furn
0.300 0.310 0.340 1.00
0.300 0.310 0.340 1.00
0.100 0.100 0.100 1 10
0.150 0.150 0.170 1
MATERIAL in_seat
0.120 0.150 0.220 1.00
0.120 0.150 0.220 1.00
0.150 0.150 0.200 1 15
0.060 0.080 0.130 1
MATERIAL in_metal
0.500 0.500 0.500 1.00
0.500 0.500 0.500 1.00
0.500 0.500 0.500 1 30
0.550 0.550 0.580 1
MATERIAL in_wet
0.360 0.500 0.550 1.00
0.360 0.500 0.550 1.00
0.200 0.200 0.250 1 20
0.130 0.190 0.210 1
MATERIAL in_screen
0.040 0.080 0.160 1.00
0.040 0.080 0.160 1.00
0.300 0.300 0.400 1 40
0.100 0.280 0.500 1
MATERIAL in_trim
0.600 0.600 0.600 1.00
0.600 0.600 0.600 1.00
0.100 0.100 0.100 1 10
0.500 0.500 0.500 1
MATERIAL in_green
0.100 0.600 0.250 1.00
0.100 0.600 0.250 1.00
0.000 0.000 0.000 1 1
0.150 1.000 0.400 1
MATERIAL in_amber
0.700 0.450 0.050 1.00
0.700 0.450 0.050 1.00
0.000 0.000 0.000 1 1
1.000 0.620 0.080 1
MATERIAL in_red
0.700 0.100 0.080 1.00
0.700 0.100 0.080 1.00
0.000 0.000 0.000 1 1
1.000 0.150 0.100 1
MATERIAL in_guide
0.200 0.500 0.700 1.00
0.200 0.500 0.700 1.00
0.000 0.000 0.000 1 1
0.250 0.750 1.000 1
MATERIAL in_btn_dim
0.160 0.180 0.200 1.00
0.160 0.180 0.200 1.00
0.300 0.300 0.300 1 20
0.040 0.050 0.060 1
MATERIAL in_wall_w
0.500 0.500 0.510 1.00
0.500 0.500 0.510 1.00
0.080 0.080 0.090 1 12
0.065 0.065 0.075 1
MATERIAL in_floor_w
0.500 0.500 0.500 1.00
0.500 0.500 0.500 1.00
0.450 0.450 0.480 1 40
0.040 0.040 0.045 1
MATERIAL in_ceil_w
0.400 0.400 0.410 1.00
0.400 0.400 0.410 1.00
0.000 0.000 0.000 1 1
0.035 0.035 0.040 1
MATERIAL in_metal_w
0.450 0.450 0.470 1.00
0.450 0.450 0.470 1.00
0.400 0.400 0.420 1 30
0.070 0.070 0.080 1
MATERIAL in_trim_w
0.500 0.500 0.500 1.00
0.500 0.500 0.500 1.00
0.100 0.100 0.100 1 10
0.140 0.140 0.140 1
MATERIAL in_guide_w
0.250 0.420 0.420 1.00
0.250 0.420 0.420 1.00
0.000 0.000 0.000 1 1
0.160 0.360 0.380 1
MATERIAL in_fx
1.000 1.000 1.000 1.00
1.000 1.000 1.000 1.00
0.000 0.000 0.000 1 1
1.000 1.000 1.000 1
MATERIAL in_downlight
1.000 0.860 0.620 1.00
1.000 0.860 0.620 1.00
0.000 0.000 0.000 1 1
1.000 0.840 0.580 1
MATERIAL in_cove
0.300 0.400 0.620 1.00
0.300 0.400 0.620 1.00
0.000 0.000 0.000 1 1
0.260 0.360 0.580 1
MATERIAL lift_glass
0.450 0.600 0.700 0.22
0.450 0.600 0.700 0.22
0.800 0.800 0.850 1 60
0.020 0.030 0.040 1
MATERIAL in_wip
0.950 0.420 0.060 1.00
0.950 0.420 0.060 1.00
0.300 0.250 0.200 1 20
0.400 0.170 0.020 1
MATERIAL in_btn_cap
0.550 0.560 0.580 1.00
0.550 0.560 0.580 1.00
0.350 0.350 0.350 1 30
0.300 0.310 0.320 1
MATERIAL in_cablight
0.950 0.930 0.860 1.00
0.950 0.930 0.860 1.00
0.000 0.000 0.000 1 1
0.800 0.770 0.680 1
MATERIAL in_glass
1.000 1.000 1.000 1.00
1.000 1.000 1.000 1.00
0.900 0.900 0.900 1 60
0.120 0.130 0.150 1
MATERIAL in_wall_r
0.400 0.380 0.380 1.00
0.400 0.380 0.380 1.00
0.050 0.050 0.050 1 5
0.050 0.012 0.011 1
MATERIAL in_floor_r
0.400 0.380 0.380 1.00
0.400 0.380 0.380 1.00
0.200 0.200 0.200 1 30
0.032 0.007 0.007 1
MATERIAL in_ceil_r
0.350 0.330 0.330 1.00
0.350 0.330 0.330 1.00
0.000 0.000 0.000 1 1
0.028 0.006 0.006 1
MATERIAL in_metal_r
0.400 0.380 0.380 1.00
0.400 0.380 0.380 1.00
0.300 0.300 0.300 1 30
0.045 0.011 0.010 1
MATERIAL in_dutyred
0.600 0.080 0.050 1.00
0.600 0.080 0.050 1.00
0.000 0.000 0.000 1 1
0.550 0.050 0.030 1
MATERIAL in_door
0.550 0.550 0.560 1.00
0.550 0.550 0.560 1.00
0.250 0.250 0.270 1 25
0.075 0.075 0.080 1
MATERIAL in_wall_d
0.080 0.080 0.085 1.00
0.080 0.080 0.085 1.00
0.020 0.020 0.020 1 5
0.018 0.018 0.020 1
MATERIAL in_floor_d
0.080 0.080 0.080 1.00
0.080 0.080 0.080 1.00
0.050 0.050 0.050 1 10
0.012 0.012 0.013 1
MATERIAL in_ceil_d
0.070 0.070 0.075 1.00
0.070 0.070 0.075 1.00
0.000 0.000 0.000 1 1
0.010 0.010 0.011 1
MATERIAL in_metal_d
0.080 0.080 0.085 1.00
0.080 0.080 0.085 1.00
0.050 0.050 0.050 1 10
0.016 0.016 0.018 1
MATERIAL br_malachite
0.160 0.380 0.310 1.00
0.160 0.380 0.310 1.00
0.400 0.480 0.450 1 35
0.020 0.048 0.040 1
MATERIAL br_cur_ball
0.620 0.860 0.950 0.72
0.620 0.860 0.950 0.72
0.900 0.900 0.900 1 60
0.100 0.260 0.320 1
MATERIAL br_cur_lit
0.780 0.950 1.000 1.00
0.780 0.950 1.000 1.00
0.000 0.000 0.000 1 1
0.780 0.950 1.000 1
MATERIAL br_spot
1.000 0.550 0.120 0.80
1.000 0.550 0.120 0.80
0.000 0.000 0.000 1 1
1.000 0.550 0.120 1
MATERIAL br_cover
1.000 0.350 0.290 0.50
1.000 0.350 0.290 0.50
0.600 0.600 0.600 1 40
0.200 0.040 0.030 1
MATERIAL br_glass_disp
1.000 1.000 1.000 1.00
1.000 1.000 1.000 1.00
0.000 0.000 0.000 1 1
1.000 1.000 1.000 1
MATERIAL br_hud_glass
1.000 1.000 1.000 1.00
1.000 1.000 1.000 1.00
0.000 0.000 0.000 1 1
1.000 1.000 1.000 1
MATERIAL belly_carbide
0.160 0.160 0.170 1.00
0.160 0.160 0.170 1.00
0.150 0.150 0.150 1 10
0.000 0.000 0.000 1
TEXTURES 0
