MSHX1
GROUPS 2
LABEL fin
MATERIAL 3
TEXTURE 0
GEOM 24 12 ;fin
0.550 -11.000 -22.500 1.0000 0.0000 0.0000
0.550 -11.000 22.500 1.0000 0.0000 0.0000
0.550 0.000 12.000 1.0000 0.0000 0.0000
0.550 0.000 -21.000 1.0000 0.0000 0.0000
-0.550 -11.000 -22.500 -1.0000 -0.0000 -0.0000
-0.550 -11.000 22.500 -1.0000 -0.0000 -0.0000
-0.550 0.000 12.000 -1.0000 -0.0000 -0.0000
-0.550 0.000 -21.000 -1.0000 -0.0000 -0.0000
0.550 -11.000 -22.500 -0.0000 -1.0000 -0.0000
0.550 -11.000 22.500 -0.0000 -1.0000 -0.0000
-0.550 -11.000 22.500 -0.0000 -1.0000 -0.0000
-0.550 -11.000 -22.500 -0.0000 -1.0000 -0.0000
0.550 -11.000 22.500 -0.0000 0.6905 0.7234
0.550 0.000 12.000 -0.0000 0.6905 0.7234
-0.550 0.000 12.000 -0.0000 0.6905 0.7234
-0.550 -11.000 22.500 -0.0000 0.6905 0.7234
0.550 0.000 12.000 -0.0000 1.0000 -0.0000
0.550 0.000 -21.000 -0.0000 1.0000 -0.0000
-0.550 0.000 -21.000 -0.0000 1.0000 -0.0000
-0.550 0.000 12.000 -0.0000 1.0000 -0.0000
0.550 0.000 -21.000 -0.0000 0.1351 -0.9908
0.550 -11.000 -22.500 -0.0000 0.1351 -0.9908
-0.550 -11.000 -22.500 -0.0000 0.1351 -0.9908
-0.550 0.000 -21.000 -0.0000 0.1351 -0.9908
0 2 1
0 3 2
4 5 6
4 6 7
8 9 10
8 10 11
12 13 14
12 14 15
16 17 18
16 18 19
20 21 22
20 22 23
LABEL fin_upper
MATERIAL 3
TEXTURE 0
GEOM 24 12 ;fin_upper
0.400 0.000 -21.000 1.0000 0.0000 0.0000
0.400 0.000 12.000 1.0000 0.0000 0.0000
0.400 11.000 1.500 1.0000 0.0000 0.0000
0.400 11.000 -19.500 1.0000 0.0000 0.0000
-0.400 0.000 -21.000 -1.0000 -0.0000 -0.0000
-0.400 0.000 12.000 -1.0000 -0.0000 -0.0000
-0.400 11.000 1.500 -1.0000 -0.0000 -0.0000
-0.400 11.000 -19.500 -1.0000 -0.0000 -0.0000
0.400 0.000 -21.000 -0.0000 -1.0000 -0.0000
0.400 0.000 12.000 -0.0000 -1.0000 -0.0000
-0.400 0.000 12.000 -0.0000 -1.0000 -0.0000
-0.400 0.000 -21.000 -0.0000 -1.0000 -0.0000
0.400 0.000 12.000 -0.0000 0.6905 0.7234
0.400 11.000 1.500 -0.0000 0.6905 0.7234
-0.400 11.000 1.500 -0.0000 0.6905 0.7234
-0.400 0.000 12.000 -0.0000 0.6905 0.7234
0.400 11.000 1.500 -0.0000 1.0000 -0.0000
0.400 11.000 -19.500 -0.0000 1.0000 -0.0000
-0.400 11.000 -19.500 -0.0000 1.0000 -0.0000
-0.400 11.000 1.500 -0.0000 1.0000 -0.0000
0.400 11.000 -19.500 -0.0000 0.1351 -0.9908
0.400 0.000 -21.000 -0.0000 0.1351 -0.9908
-0.400 0.000 -21.000 -0.0000 0.1351 -0.9908
-0.400 11.000 -19.500 -0.0000 0.1351 -0.9908
0 2 1
0 3 2
4 5 6
4 6 7
8 9 10
8 10 11
12 13 14
12 14 15
16 17 18
16 18 19
20 21 22
20 22 23
MATERIALS 13
hull_lacquer
nose_iridium
crest_radiator
structure
boron_nitride
engine_metal
mechanism
dark
band
planetary_cup
rover
shuttle
trap_shell
MATERIAL hull_lacquer
0.620 0.640 0.680 1
0.620 0.640 0.680 1
0.300 0.300 0.320 1 20
0.000 0.000 0.000 1
MATERIAL nose_iridium
0.780 0.760 0.700 1
0.780 0.760 0.700 1
0.950 0.950 0.950 1 80
0.000 0.000 0.000 1
MATERIAL crest_radiator
0.460 0.260 0.180 1
0.460 0.260 0.180 1
0.150 0.150 0.150 1 10
0.000 0.000 0.000 1
MATERIAL structure
0.260 0.270 0.290 1
0.260 0.270 0.290 1
0.200 0.200 0.200 1 15
0.000 0.000 0.000 1
MATERIAL boron_nitride
0.620 0.580 0.920 1
0.620 0.580 0.920 1
0.600 0.600 0.700 1 40
0.080 0.060 0.200 1
MATERIAL engine_metal
0.400 0.400 0.420 1
0.400 0.400 0.420 1
0.500 0.500 0.500 1 40
0.000 0.000 0.000 1
MATERIAL mechanism
0.540 0.560 0.600 1
0.540 0.560 0.600 1
0.700 0.700 0.720 1 50
0.000 0.000 0.000 1
MATERIAL dark
0.070 0.070 0.090 1
0.070 0.070 0.090 1
0.050 0.050 0.050 1 5
0.000 0.000 0.000 1
MATERIAL band
0.280 0.360 0.500 1
0.280 0.360 0.500 1
0.500 0.550 0.650 1 40
0.000 0.000 0.000 1
MATERIAL planetary_cup
0.600 0.700 0.850 1
0.600 0.700 0.850 1
0.700 0.700 0.800 1 50
0.030 0.060 0.100 1
MATERIAL rover
0.550 0.480 0.320 1
0.550 0.480 0.320 1
0.300 0.300 0.300 1 20
0.000 0.000 0.000 1
MATERIAL shuttle
0.850 0.840 0.810 1
0.850 0.840 0.810 1
0.400 0.400 0.400 1 30
0.000 0.000 0.000 1
MATERIAL trap_shell
0.440 0.470 0.560 1
0.440 0.470 0.560 1
0.450 0.450 0.500 1 30
0.000 0.000 0.000 1
TEXTURES 0
