MSHX1
GROUPS 1
LABEL kang_door
MATERIAL 1
TEXTURE 0
GEOM 1080 1008 ;kang_door
0.000 -0.247 -6.000 0.0000 -1.0000 0.0000
0.524 -0.247 -6.000 0.0000 -1.0000 0.0000
0.000 -0.247 -5.300 0.0000 -1.0000 0.0000
0.524 -0.247 -5.300 0.0000 -1.0000 0.0000
0.000 -0.247 -4.300 0.0000 -1.0000 0.0000
0.524 -0.247 -4.300 0.0000 -1.0000 0.0000
0.000 -0.247 -3.300 0.0000 -1.0000 0.0000
0.524 -0.247 -3.300 0.0000 -1.0000 0.0000
0.000 -0.247 -2.300 0.0000 -1.0000 0.0000
0.524 -0.247 -2.300 0.0000 -1.0000 0.0000
0.000 -0.247 -1.300 0.0000 -1.0000 0.0000
0.524 -0.247 -1.300 0.0000 -1.0000 0.0000
0.000 -0.247 -0.300 0.0000 -1.0000 0.0000
0.524 -0.247 -0.300 0.0000 -1.0000 0.0000
0.000 -0.247 0.700 0.0000 -1.0000 0.0000
0.524 -0.247 0.700 0.0000 -1.0000 0.0000
0.000 -0.247 1.700 0.0000 -1.0000 0.0000
0.524 -0.247 1.700 0.0000 -1.0000 0.0000
0.000 -0.247 2.700 0.0000 -1.0000 0.0000
0.524 -0.247 2.700 0.0000 -1.0000 0.0000
0.000 -0.247 3.700 0.0000 -1.0000 0.0000
0.524 -0.247 3.700 0.0000 -1.0000 0.0000
0.000 -0.247 4.700 0.0000 -0.9747 0.2234
0.524 -0.247 4.700 0.0000 -0.9747 0.2234
0.000 -0.017 5.700 0.0000 -0.9746 0.2238
0.518 -0.017 5.700 0.0000 -0.9746 0.2238
0.000 0.006 5.800 0.0000 -0.9746 0.2238
0.517 0.006 5.800 0.0000 -0.9746 0.2238
0.000 0.052 6.000 0.0000 -0.9746 0.2238
0.516 0.052 6.000 0.0000 -0.9746 0.2238
0.524 -0.247 -6.000 0.0000 -1.0000 0.0000
0.743 -0.247 -6.000 0.0000 -1.0000 0.0000
0.524 -0.247 -5.300 0.0000 -1.0000 0.0000
0.743 -0.247 -5.300 0.0000 -1.0000 0.0000
0.524 -0.247 -4.300 0.0000 -1.0000 0.0000
0.743 -0.247 -4.300 0.0000 -1.0000 0.0000
0.524 -0.247 -3.300 0.0000 -1.0000 0.0000
0.743 -0.247 -3.300 0.0000 -1.0000 0.0000
0.524 -0.247 -2.300 0.0000 -1.0000 0.0000
0.743 -0.247 -2.300 0.0000 -1.0000 0.0000
0.524 -0.247 -1.300 0.0000 -1.0000 0.0000
0.743 -0.247 -1.300 0.0000 -1.0000 0.0000
0.524 -0.247 -0.300 0.0000 -1.0000 0.0000
0.743 -0.247 -0.300 0.0000 -1.0000 0.0000
0.524 -0.247 0.700 0.0000 -1.0000 0.0000
0.743 -0.247 0.700 0.0000 -1.0000 0.0000
0.524 -0.247 1.700 0.0000 -1.0000 0.0000
0.743 -0.247 1.700 0.0000 -1.0000 0.0000
0.524 -0.247 2.700 0.0000 -1.0000 0.0000
0.743 -0.247 2.700 0.0000 -1.0000 0.0000
0.524 -0.247 3.700 0.0000 -1.0000 0.0000
0.743 -0.247 3.700 0.0000 -1.0000 0.0000
0.524 -0.247 4.700 0.0000 -0.9747 0.2234
0.743 -0.247 4.700 0.0000 -0.9747 0.2234
0.518 -0.017 5.700 0.0000 -0.9746 0.2238
0.734 -0.017 5.700 0.0000 -0.9746 0.2238
0.517 0.006 5.800 0.0000 -0.9746 0.2238
0.733 0.006 5.800 0.0000 -0.9746 0.2238
0.516 0.052 6.000 0.0000 -0.9746 0.2238
0.731 0.052 6.000 0.0000 -0.9746 0.2238
0.743 -0.247 -6.000 0.0000 -1.0000 0.0000
1.049 -0.247 -6.000 0.0000 -1.0000 0.0000
0.743 -0.247 -5.300 0.0000 -1.0000 0.0000
1.049 -0.247 -5.300 0.0000 -1.0000 0.0000
0.743 -0.247 -4.300 0.0000 -1.0000 0.0000
1.049 -0.247 -4.300 0.0000 -1.0000 0.0000
0.743 -0.247 -3.300 0.0000 -1.0000 0.0000
1.049 -0.247 -3.300 0.0000 -1.0000 0.0000
0.743 -0.247 -2.300 0.0000 -1.0000 0.0000
1.049 -0.247 -2.300 0.0000 -1.0000 0.0000
0.743 -0.247 -1.300 0.0000 -1.0000 0.0000
1.049 -0.247 -1.300 0.0000 -1.0000 0.0000
0.743 -0.247 -0.300 0.0000 -1.0000 0.0000
1.049 -0.247 -0.300 0.0000 -1.0000 0.0000
0.743 -0.247 0.700 0.0000 -1.0000 0.0000
1.049 -0.247 0.700 0.0000 -1.0000 0.0000
0.743 -0.247 1.700 0.0000 -1.0000 0.0000
1.049 -0.247 1.700 0.0000 -1.0000 0.0000
0.743 -0.247 2.700 0.0000 -1.0000 0.0000
1.049 -0.247 2.700 0.0000 -1.0000 0.0000
0.743 -0.247 3.700 0.0000 -1.0000 0.0000
1.049 -0.247 3.700 0.0000 -1.0000 0.0000
0.743 -0.247 4.700 0.0000 -0.9747 0.2234
1.049 -0.247 4.700 0.0000 -0.9747 0.2234
0.734 -0.017 5.700 0.0000 -0.9746 0.2238
1.036 -0.017 5.700 0.0000 -0.9746 0.2238
0.733 0.006 5.800 0.0000 -0.9746 0.2238
1.034 0.006 5.800 0.0000 -0.9746 0.2238
0.731 0.052 6.000 0.0000 -0.9746 0.2238
1.032 0.052 6.000 0.0000 -0.9746 0.2238
1.049 -0.247 -6.000 0.0000 -1.0000 0.0000
1.573 -0.247 -6.000 0.0000 -1.0000 0.0000
1.049 -0.247 -5.300 0.0000 -1.0000 0.0000
1.573 -0.247 -5.300 0.0000 -1.0000 0.0000
1.049 -0.247 -4.300 0.0000 -1.0000 0.0000
1.573 -0.247 -4.300 0.0000 -1.0000 0.0000
1.049 -0.247 -3.300 0.0000 -1.0000 0.0000
1.573 -0.247 -3.300 0.0000 -1.0000 0.0000
1.049 -0.247 -2.300 0.0000 -1.0000 0.0000
1.573 -0.247 -2.300 0.0000 -1.0000 0.0000
1.049 -0.247 -1.300 0.0000 -1.0000 0.0000
1.573 -0.247 -1.300 0.0000 -1.0000 0.0000
1.049 -0.247 -0.300 0.0000 -1.0000 0.0000
1.573 -0.247 -0.300 0.0000 -1.0000 0.0000
1.049 -0.247 0.700 0.0000 -1.0000 0.0000
1.573 -0.247 0.700 0.0000 -1.0000 0.0000
1.049 -0.247 1.700 0.0000 -1.0000 0.0000
1.573 -0.247 1.700 0.0000 -1.0000 0.0000
1.049 -0.247 2.700 0.0000 -1.0000 0.0000
1.573 -0.247 2.700 0.0000 -1.0000 0.0000
1.049 -0.247 3.700 0.0000 -1.0000 0.0000
1.573 -0.247 3.700 0.0000 -1.0000 0.0000
1.049 -0.247 4.700 0.0000 -0.9747 0.2234
1.573 -0.247 4.700 0.0000 -0.9747 0.2234
1.036 -0.017 5.700 0.0000 -0.9746 0.2238
1.554 -0.017 5.700 0.0000 -0.9746 0.2238
1.034 0.006 5.800 0.0000 -0.9746 0.2238
1.552 0.006 5.800 0.0000 -0.9746 0.2238
1.032 0.052 6.000 0.0000 -0.9746 0.2238
1.548 0.052 6.000 0.0000 -0.9746 0.2238
1.573 -0.247 -6.000 0.0000 -1.0000 0.0000
2.098 -0.247 -6.000 0.0000 -1.0000 0.0000
1.573 -0.247 -5.300 0.0000 -1.0000 0.0000
2.098 -0.247 -5.300 0.0000 -1.0000 0.0000
1.573 -0.247 -4.300 0.0000 -1.0000 0.0000
2.098 -0.247 -4.300 0.0000 -1.0000 0.0000
1.573 -0.247 -3.300 0.0000 -1.0000 0.0000
2.098 -0.247 -3.300 0.0000 -1.0000 0.0000
1.573 -0.247 -2.300 0.0000 -1.0000 0.0000
2.098 -0.247 -2.300 0.0000 -1.0000 0.0000
1.573 -0.247 -1.300 0.0000 -1.0000 0.0000
2.098 -0.247 -1.300 0.0000 -1.0000 0.0000
1.573 -0.247 -0.300 0.0000 -1.0000 0.0000
2.098 -0.247 -0.300 0.0000 -1.0000 0.0000
1.573 -0.247 0.700 0.0000 -1.0000 0.0000
2.098 -0.247 0.700 0.0000 -1.0000 0.0000
1.573 -0.247 1.700 0.0000 -1.0000 0.0000
2.098 -0.247 1.700 0.0000 -1.0000 0.0000
1.573 -0.247 2.700 0.0000 -1.0000 0.0000
2.098 -0.247 2.700 0.0000 -1.0000 0.0000
1.573 -0.247 3.700 0.0000 -1.0000 0.0000
2.097 -0.247 3.700 0.0000 -1.0000 0.0000
1.573 -0.247 4.700 0.0000 -0.9747 0.2234
2.097 -0.247 4.700 0.0000 -0.9747 0.2234
1.554 -0.017 5.700 0.0000 -0.9746 0.2238
2.071 -0.017 5.700 0.0000 -0.9746 0.2238
1.552 0.006 5.800 0.0000 -0.9746 0.2238
2.069 0.006 5.800 0.0000 -0.9746 0.2238
1.548 0.052 6.000 0.0000 -0.9746 0.2238
2.064 0.052 6.000 0.0000 -0.9746 0.2238
2.098 -0.247 -6.000 0.0000 -1.0000 0.0000
2.622 -0.247 -6.000 0.0000 -1.0000 0.0000
2.098 -0.247 -5.300 0.0000 -1.0000 0.0000
2.622 -0.247 -5.300 0.0000 -1.0000 0.0000
2.098 -0.247 -4.300 0.0000 -1.0000 0.0000
2.622 -0.247 -4.300 0.0000 -1.0000 0.0000
2.098 -0.247 -3.300 0.0000 -1.0000 0.0000
2.622 -0.247 -3.300 0.0000 -1.0000 0.0000
2.098 -0.247 -2.300 0.0000 -1.0000 0.0000
2.622 -0.247 -2.300 0.0000 -1.0000 0.0000
2.098 -0.247 -1.300 0.0000 -1.0000 0.0000
2.622 -0.247 -1.300 0.0000 -1.0000 0.0000
2.098 -0.247 -0.300 0.0000 -1.0000 0.0000
2.622 -0.247 -0.300 0.0000 -1.0000 0.0000
2.098 -0.247 0.700 0.0000 -1.0000 0.0000
2.622 -0.247 0.700 0.0000 -1.0000 0.0000
2.098 -0.247 1.700 0.0000 -1.0000 0.0000
2.622 -0.247 1.700 0.0000 -1.0000 0.0000
2.098 -0.247 2.700 0.0000 -1.0000 0.0000
2.622 -0.247 2.700 0.0000 -1.0000 0.0000
2.097 -0.247 3.700 0.0000 -1.0000 0.0000
2.621 -0.247 3.700 0.0000 -1.0000 0.0000
2.097 -0.247 4.700 0.0000 -0.9747 0.2234
2.621 -0.247 4.700 0.0000 -0.9747 0.2234
2.071 -0.017 5.700 0.0000 -0.9746 0.2238
2.589 -0.017 5.700 0.0000 -0.9746 0.2238
2.069 0.006 5.800 0.0000 -0.9746 0.2238
2.586 0.006 5.800 0.0000 -0.9746 0.2238
2.064 0.052 6.000 0.0000 -0.9746 0.2238
2.580 0.052 6.000 0.0000 -0.9746 0.2238
2.622 -0.247 -6.000 0.0000 -1.0000 0.0000
3.147 -0.247 -6.000 0.0000 -1.0000 0.0000
2.622 -0.247 -5.300 0.0000 -1.0000 0.0000
3.147 -0.247 -5.300 0.0000 -1.0000 0.0000
2.622 -0.247 -4.300 0.0000 -1.0000 0.0000
3.147 -0.247 -4.300 0.0000 -1.0000 0.0000
2.622 -0.247 -3.300 0.0000 -1.0000 0.0000
3.147 -0.247 -3.300 0.0000 -1.0000 0.0000
2.622 -0.247 -2.300 0.0000 -1.0000 0.0000
3.147 -0.247 -2.300 0.0000 -1.0000 0.0000
2.622 -0.247 -1.300 0.0000 -1.0000 0.0000
3.147 -0.247 -1.300 0.0000 -1.0000 0.0000
2.622 -0.247 -0.300 0.0000 -1.0000 0.0000
3.147 -0.247 -0.300 0.0000 -1.0000 0.0000
2.622 -0.247 0.700 0.0000 -1.0000 0.0000
3.147 -0.247 0.700 0.0000 -1.0000 0.0000
2.622 -0.247 1.700 0.0000 -1.0000 0.0000
3.147 -0.247 1.700 0.0000 -1.0000 0.0000
2.622 -0.247 2.700 0.0000 -1.0000 0.0000
3.147 -0.247 2.700 0.0000 -1.0000 0.0000
2.621 -0.247 3.700 0.0000 -1.0000 0.0000
3.146 -0.247 3.700 0.0000 -1.0000 0.0000
2.621 -0.247 4.700 0.0000 -0.9747 0.2234
3.146 -0.247 4.700 0.0000 -0.9747 0.2234
2.589 -0.017 5.700 0.0000 -0.9746 0.2238
3.107 -0.017 5.700 0.0000 -0.9746 0.2238
2.586 0.006 5.800 0.0000 -0.9746 0.2238
3.103 0.006 5.800 0.0000 -0.9746 0.2238
2.580 0.052 6.000 0.0000 -0.9746 0.2238
3.096 0.052 6.000 0.0000 -0.9746 0.2238
3.147 -0.247 -6.000 0.0000 -1.0000 0.0000
3.671 -0.247 -6.000 0.0000 -1.0000 0.0000
3.147 -0.247 -5.300 0.0000 -1.0000 0.0000
3.671 -0.247 -5.300 0.0000 -1.0000 0.0000
3.147 -0.247 -4.300 0.0000 -1.0000 0.0000
3.671 -0.247 -4.300 0.0000 -1.0000 0.0000
3.147 -0.247 -3.300 0.0000 -1.0000 0.0000
3.671 -0.247 -3.300 0.0000 -1.0000 0.0000
3.147 -0.247 -2.300 0.0000 -1.0000 0.0000
3.671 -0.247 -2.300 0.0000 -1.0000 0.0000
3.147 -0.247 -1.300 0.0000 -1.0000 0.0000
3.671 -0.247 -1.300 0.0000 -1.0000 0.0000
3.147 -0.247 -0.300 0.0000 -1.0000 0.0000
3.671 -0.247 -0.300 0.0000 -1.0000 0.0000
3.147 -0.247 0.700 0.0000 -1.0000 0.0000
3.671 -0.247 0.700 0.0000 -1.0000 0.0000
3.147 -0.247 1.700 0.0000 -1.0000 0.0000
3.671 -0.247 1.700 0.0000 -1.0000 0.0000
3.147 -0.247 2.700 0.0000 -1.0000 0.0000
3.671 -0.247 2.700 0.0000 -1.0000 0.0000
3.146 -0.247 3.700 0.0000 -1.0000 0.0000
3.670 -0.247 3.700 0.0000 -1.0000 0.0000
3.146 -0.247 4.700 0.0000 -0.9747 0.2234
3.670 -0.247 4.700 0.0000 -0.9747 0.2234
3.107 -0.017 5.700 0.0000 -0.9746 0.2238
3.625 -0.017 5.700 0.0000 -0.9746 0.2238
3.103 0.006 5.800 0.0000 -0.9746 0.2238
3.620 0.006 5.800 0.0000 -0.9746 0.2238
3.096 0.052 6.000 0.0000 -0.9746 0.2238
3.611 0.052 6.000 0.0000 -0.9746 0.2238
3.671 -0.247 -6.000 0.0000 -1.0000 0.0000
4.300 -0.247 -6.000 0.0000 -1.0000 0.0000
3.671 -0.247 -5.300 0.0000 -1.0000 0.0000
4.300 -0.247 -5.300 0.0000 -1.0000 0.0000
3.671 -0.247 -4.300 0.0000 -1.0000 0.0000
4.300 -0.247 -4.300 0.0000 -1.0000 0.0000
3.671 -0.247 -3.300 0.0000 -1.0000 0.0000
4.300 -0.247 -3.300 0.0000 -1.0000 0.0000
3.671 -0.247 -2.300 0.0000 -1.0000 0.0000
4.300 -0.247 -2.300 0.0000 -1.0000 0.0000
3.671 -0.247 -1.300 0.0000 -1.0000 0.0000
4.300 -0.247 -1.300 0.0000 -1.0000 0.0000
3.671 -0.247 -0.300 0.0000 -1.0000 0.0000
4.300 -0.247 -0.300 0.0000 -1.0000 0.0000
3.671 -0.247 0.700 0.0000 -1.0000 0.0000
4.300 -0.247 0.700 0.0000 -1.0000 0.0000
3.671 -0.247 1.700 0.0000 -1.0000 0.0000
4.300 -0.247 1.700 0.0000 -1.0000 0.0000
3.671 -0.247 2.700 0.0000 -1.0000 0.0000
4.300 -0.247 2.700 0.0000 -1.0000 0.0000
3.670 -0.247 3.700 0.0000 -1.0000 0.0000
4.298 -0.247 3.700 0.0000 -1.0000 0.0000
3.670 -0.247 4.700 0.0000 -0.9747 0.2234
4.298 -0.247 4.700 0.0000 -0.9747 0.2234
3.625 -0.017 5.700 0.0000 -0.9746 0.2238
4.246 -0.017 5.700 0.0000 -0.9746 0.2238
3.620 0.006 5.800 0.0000 -0.9746 0.2238
4.240 0.006 5.800 0.0000 -0.9746 0.2238
3.611 0.052 6.000 0.0000 -0.9746 0.2238
4.230 0.052 6.000 0.0000 -0.9746 0.2238
0.000 -0.047 -6.000 -0.0000 1.0000 -0.0000
0.524 -0.047 -6.000 -0.0000 1.0000 -0.0000
0.000 -0.047 -5.300 -0.0000 1.0000 -0.0000
0.524 -0.047 -5.300 -0.0000 1.0000 -0.0000
0.000 -0.047 -4.300 -0.0000 1.0000 -0.0000
0.524 -0.047 -4.300 -0.0000 1.0000 -0.0000
0.000 -0.047 -3.300 -0.0000 1.0000 -0.0000
0.524 -0.047 -3.300 -0.0000 1.0000 -0.0000
0.000 -0.047 -2.300 -0.0000 1.0000 -0.0000
0.524 -0.047 -2.300 -0.0000 1.0000 -0.0000
0.000 -0.047 -1.300 -0.0000 1.0000 -0.0000
0.524 -0.047 -1.300 -0.0000 1.0000 -0.0000
0.000 -0.047 -0.300 -0.0000 1.0000 -0.0000
0.524 -0.047 -0.300 -0.0000 1.0000 -0.0000
0.000 -0.047 0.700 -0.0000 1.0000 -0.0000
0.524 -0.047 0.700 -0.0000 1.0000 -0.0000
0.000 -0.047 1.700 -0.0000 1.0000 -0.0000
0.524 -0.047 1.700 -0.0000 1.0000 -0.0000
0.000 -0.047 2.700 -0.0000 1.0000 -0.0000
0.524 -0.047 2.700 -0.0000 1.0000 -0.0000
0.000 -0.047 3.700 -0.0000 1.0000 -0.0000
0.524 -0.047 3.700 -0.0000 1.0000 -0.0000
0.000 -0.052 4.655 -0.0000 0.9747 -0.2234
0.524 -0.052 4.655 -0.0000 0.9747 -0.2234
0.000 0.178 5.655 -0.0000 0.9746 -0.2238
0.518 0.178 5.655 -0.0000 0.9746 -0.2238
0.000 0.201 5.755 -0.0000 0.9746 -0.2238
0.517 0.201 5.755 -0.0000 0.9746 -0.2238
0.000 0.247 5.955 -0.0000 0.9746 -0.2238
0.516 0.247 5.955 -0.0000 0.9746 -0.2238
0.524 -0.047 -6.000 -0.0000 1.0000 -0.0000
0.743 -0.047 -6.000 -0.0000 1.0000 -0.0000
0.524 -0.047 -5.300 -0.0000 1.0000 -0.0000
0.743 -0.047 -5.300 -0.0000 1.0000 -0.0000
0.524 -0.047 -4.300 -0.0000 1.0000 -0.0000
0.743 -0.047 -4.300 -0.0000 1.0000 -0.0000
0.524 -0.047 -3.300 -0.0000 1.0000 -0.0000
0.743 -0.047 -3.300 -0.0000 1.0000 -0.0000
0.524 -0.047 -2.300 -0.0000 1.0000 -0.0000
0.743 -0.047 -2.300 -0.0000 1.0000 -0.0000
0.524 -0.047 -1.300 -0.0000 1.0000 -0.0000
0.743 -0.047 -1.300 -0.0000 1.0000 -0.0000
0.524 -0.047 -0.300 -0.0000 1.0000 -0.0000
0.743 -0.047 -0.300 -0.0000 1.0000 -0.0000
0.524 -0.047 0.700 -0.0000 1.0000 -0.0000
0.743 -0.047 0.700 -0.0000 1.0000 -0.0000
0.524 -0.047 1.700 -0.0000 1.0000 -0.0000
0.743 -0.047 1.700 -0.0000 1.0000 -0.0000
0.524 -0.047 2.700 -0.0000 1.0000 -0.0000
0.743 -0.047 2.700 -0.0000 1.0000 -0.0000
0.524 -0.047 3.700 -0.0000 1.0000 -0.0000
0.743 -0.047 3.700 -0.0000 1.0000 -0.0000
0.524 -0.052 4.655 -0.0000 0.9747 -0.2234
0.743 -0.052 4.655 -0.0000 0.9747 -0.2234
0.518 0.178 5.655 -0.0000 0.9746 -0.2238
0.734 0.178 5.655 -0.0000 0.9746 -0.2238
0.517 0.201 5.755 -0.0000 0.9746 -0.2238
0.733 0.201 5.755 -0.0000 0.9746 -0.2238
0.516 0.247 5.955 -0.0000 0.9746 -0.2238
0.731 0.247 5.955 -0.0000 0.9746 -0.2238
0.743 -0.047 -6.000 -0.0000 1.0000 -0.0000
1.049 -0.047 -6.000 -0.0000 1.0000 -0.0000
0.743 -0.047 -5.300 -0.0000 1.0000 -0.0000
1.049 -0.047 -5.300 -0.0000 1.0000 -0.0000
0.743 -0.047 -4.300 -0.0000 1.0000 -0.0000
1.049 -0.047 -4.300 -0.0000 1.0000 -0.0000
0.743 -0.047 -3.300 -0.0000 1.0000 -0.0000
1.049 -0.047 -3.300 -0.0000 1.0000 -0.0000
0.743 -0.047 -2.300 -0.0000 1.0000 -0.0000
1.049 -0.047 -2.300 -0.0000 1.0000 -0.0000
0.743 -0.047 -1.300 -0.0000 1.0000 -0.0000
1.049 -0.047 -1.300 -0.0000 1.0000 -0.0000
0.743 -0.047 -0.300 -0.0000 1.0000 -0.0000
1.049 -0.047 -0.300 -0.0000 1.0000 -0.0000
0.743 -0.047 0.700 -0.0000 1.0000 -0.0000
1.049 -0.047 0.700 -0.0000 1.0000 -0.0000
0.743 -0.047 1.700 -0.0000 1.0000 -0.0000
1.049 -0.047 1.700 -0.0000 1.0000 -0.0000
0.743 -0.047 2.700 -0.0000 1.0000 -0.0000
1.049 -0.047 2.700 -0.0000 1.0000 -0.0000
0.743 -0.047 3.700 -0.0000 1.0000 -0.0000
1.049 -0.047 3.700 -0.0000 1.0000 -0.0000
0.743 -0.052 4.655 -0.0000 0.9747 -0.2234
1.049 -0.052 4.655 -0.0000 0.9747 -0.2234
0.734 0.178 5.655 -0.0000 0.9746 -0.2238
1.036 0.178 5.655 -0.0000 0.9746 -0.2238
0.733 0.201 5.755 -0.0000 0.9746 -0.2238
1.034 0.201 5.755 -0.0000 0.9746 -0.2238
0.731 0.247 5.955 -0.0000 0.9746 -0.2238
1.032 0.247 5.955 -0.0000 0.9746 -0.2238
1.049 -0.047 -6.000 -0.0000 1.0000 -0.0000
1.573 -0.047 -6.000 -0.0000 1.0000 -0.0000
1.049 -0.047 -5.300 -0.0000 1.0000 -0.0000
1.573 -0.047 -5.300 -0.0000 1.0000 -0.0000
1.049 -0.047 -4.300 -0.0000 1.0000 -0.0000
1.573 -0.047 -4.300 -0.0000 1.0000 -0.0000
1.049 -0.047 -3.300 -0.0000 1.0000 -0.0000
1.573 -0.047 -3.300 -0.0000 1.0000 -0.0000
1.049 -0.047 -2.300 -0.0000 1.0000 -0.0000
1.573 -0.047 -2.300 -0.0000 1.0000 -0.0000
1.049 -0.047 -1.300 -0.0000 1.0000 -0.0000
1.573 -0.047 -1.300 -0.0000 1.0000 -0.0000
1.049 -0.047 -0.300 -0.0000 1.0000 -0.0000
1.573 -0.047 -0.300 -0.0000 1.0000 -0.0000
1.049 -0.047 0.700 -0.0000 1.0000 -0.0000
1.573 -0.047 0.700 -0.0000 1.0000 -0.0000
1.049 -0.047 1.700 -0.0000 1.0000 -0.0000
1.573 -0.047 1.700 -0.0000 1.0000 -0.0000
1.049 -0.047 2.700 -0.0000 1.0000 -0.0000
1.573 -0.047 2.700 -0.0000 1.0000 -0.0000
1.049 -0.047 3.700 -0.0000 1.0000 -0.0000
1.573 -0.047 3.700 -0.0000 1.0000 -0.0000
1.049 -0.052 4.655 -0.0000 0.9747 -0.2234
1.573 -0.052 4.655 -0.0000 0.9747 -0.2234
1.036 0.178 5.655 -0.0000 0.9746 -0.2238
1.554 0.178 5.655 -0.0000 0.9746 -0.2238
1.034 0.201 5.755 -0.0000 0.9746 -0.2238
1.552 0.201 5.755 -0.0000 0.9746 -0.2238
1.032 0.247 5.955 -0.0000 0.9746 -0.2238
1.548 0.247 5.955 -0.0000 0.9746 -0.2238
1.573 -0.047 -6.000 -0.0000 1.0000 -0.0000
2.098 -0.047 -6.000 -0.0000 1.0000 -0.0000
1.573 -0.047 -5.300 -0.0000 1.0000 -0.0000
2.098 -0.047 -5.300 -0.0000 1.0000 -0.0000
1.573 -0.047 -4.300 -0.0000 1.0000 -0.0000
2.098 -0.047 -4.300 -0.0000 1.0000 -0.0000
1.573 -0.047 -3.300 -0.0000 1.0000 -0.0000
2.098 -0.047 -3.300 -0.0000 1.0000 -0.0000
1.573 -0.047 -2.300 -0.0000 1.0000 -0.0000
2.098 -0.047 -2.300 -0.0000 1.0000 -0.0000
1.573 -0.047 -1.300 -0.0000 1.0000 -0.0000
2.098 -0.047 -1.300 -0.0000 1.0000 -0.0000
1.573 -0.047 -0.300 -0.0000 1.0000 -0.0000
2.098 -0.047 -0.300 -0.0000 1.0000 -0.0000
1.573 -0.047 0.700 -0.0000 1.0000 -0.0000
2.098 -0.047 0.700 -0.0000 1.0000 -0.0000
1.573 -0.047 1.700 -0.0000 1.0000 -0.0000
2.098 -0.047 1.700 -0.0000 1.0000 -0.0000
1.573 -0.047 2.700 -0.0000 1.0000 -0.0000
2.098 -0.047 2.700 -0.0000 1.0000 -0.0000
1.573 -0.047 3.700 -0.0000 1.0000 -0.0000
2.097 -0.047 3.700 -0.0000 1.0000 -0.0000
1.573 -0.052 4.655 -0.0000 0.9747 -0.2234
2.097 -0.052 4.655 -0.0000 0.9747 -0.2234
1.554 0.178 5.655 -0.0000 0.9746 -0.2238
2.071 0.178 5.655 -0.0000 0.9746 -0.2238
1.552 0.201 5.755 -0.0000 0.9746 -0.2238
2.069 0.201 5.755 -0.0000 0.9746 -0.2238
1.548 0.247 5.955 -0.0000 0.9746 -0.2238
2.064 0.247 5.955 -0.0000 0.9746 -0.2238
2.098 -0.047 -6.000 -0.0000 1.0000 -0.0000
2.622 -0.047 -6.000 -0.0000 1.0000 -0.0000
2.098 -0.047 -5.300 -0.0000 1.0000 -0.0000
2.622 -0.047 -5.300 -0.0000 1.0000 -0.0000
2.098 -0.047 -4.300 -0.0000 1.0000 -0.0000
2.622 -0.047 -4.300 -0.0000 1.0000 -0.0000
2.098 -0.047 -3.300 -0.0000 1.0000 -0.0000
2.622 -0.047 -3.300 -0.0000 1.0000 -0.0000
2.098 -0.047 -2.300 -0.0000 1.0000 -0.0000
2.622 -0.047 -2.300 -0.0000 1.0000 -0.0000
2.098 -0.047 -1.300 -0.0000 1.0000 -0.0000
2.622 -0.047 -1.300 -0.0000 1.0000 -0.0000
2.098 -0.047 -0.300 -0.0000 1.0000 -0.0000
2.622 -0.047 -0.300 -0.0000 1.0000 -0.0000
2.098 -0.047 0.700 -0.0000 1.0000 -0.0000
2.622 -0.047 0.700 -0.0000 1.0000 -0.0000
2.098 -0.047 1.700 -0.0000 1.0000 -0.0000
2.622 -0.047 1.700 -0.0000 1.0000 -0.0000
2.098 -0.047 2.700 -0.0000 1.0000 -0.0000
2.622 -0.047 2.700 -0.0000 1.0000 -0.0000
2.097 -0.047 3.700 -0.0000 1.0000 -0.0000
2.621 -0.047 3.700 -0.0000 1.0000 -0.0000
2.097 -0.052 4.655 -0.0000 0.9747 -0.2234
2.621 -0.052 4.655 -0.0000 0.9747 -0.2234
2.071 0.178 5.655 -0.0000 0.9746 -0.2238
2.589 0.178 5.655 -0.0000 0.9746 -0.2238
2.069 0.201 5.755 -0.0000 0.9746 -0.2238
2.586 0.201 5.755 -0.0000 0.9746 -0.2238
2.064 0.247 5.955 -0.0000 0.9746 -0.2238
2.580 0.247 5.955 -0.0000 0.9746 -0.2238
2.622 -0.047 -6.000 -0.0000 1.0000 -0.0000
3.147 -0.047 -6.000 -0.0000 1.0000 -0.0000
2.622 -0.047 -5.300 -0.0000 1.0000 -0.0000
3.147 -0.047 -5.300 -0.0000 1.0000 -0.0000
2.622 -0.047 -4.300 -0.0000 1.0000 -0.0000
3.147 -0.047 -4.300 -0.0000 1.0000 -0.0000
2.622 -0.047 -3.300 -0.0000 1.0000 -0.0000
3.147 -0.047 -3.300 -0.0000 1.0000 -0.0000
2.622 -0.047 -2.300 -0.0000 1.0000 -0.0000
3.147 -0.047 -2.300 -0.0000 1.0000 -0.0000
2.622 -0.047 -1.300 -0.0000 1.0000 -0.0000
3.147 -0.047 -1.300 -0.0000 1.0000 -0.0000
2.622 -0.047 -0.300 -0.0000 1.0000 -0.0000
3.147 -0.047 -0.300 -0.0000 1.0000 -0.0000
2.622 -0.047 0.700 -0.0000 1.0000 -0.0000
3.147 -0.047 0.700 -0.0000 1.0000 -0.0000
2.622 -0.047 1.700 -0.0000 1.0000 -0.0000
3.147 -0.047 1.700 -0.0000 1.0000 -0.0000
2.622 -0.047 2.700 -0.0000 1.0000 -0.0000
3.147 -0.047 2.700 -0.0000 1.0000 -0.0000
2.621 -0.047 3.700 -0.0000 1.0000 -0.0000
3.146 -0.047 3.700 -0.0000 1.0000 -0.0000
2.621 -0.052 4.655 -0.0000 0.9747 -0.2234
3.146 -0.052 4.655 -0.0000 0.9747 -0.2234
2.589 0.178 5.655 -0.0000 0.9746 -0.2238
3.107 0.178 5.655 -0.0000 0.9746 -0.2238
2.586 0.201 5.755 -0.0000 0.9746 -0.2238
3.103 0.201 5.755 -0.0000 0.9746 -0.2238
2.580 0.247 5.955 -0.0000 0.9746 -0.2238
3.096 0.247 5.955 -0.0000 0.9746 -0.2238
3.147 -0.047 -6.000 -0.0000 1.0000 -0.0000
3.671 -0.047 -6.000 -0.0000 1.0000 -0.0000
3.147 -0.047 -5.300 -0.0000 1.0000 -0.0000
3.671 -0.047 -5.300 -0.0000 1.0000 -0.0000
3.147 -0.047 -4.300 -0.0000 1.0000 -0.0000
3.671 -0.047 -4.300 -0.0000 1.0000 -0.0000
3.147 -0.047 -3.300 -0.0000 1.0000 -0.0000
3.671 -0.047 -3.300 -0.0000 1.0000 -0.0000
3.147 -0.047 -2.300 -0.0000 1.0000 -0.0000
3.671 -0.047 -2.300 -0.0000 1.0000 -0.0000
3.147 -0.047 -1.300 -0.0000 1.0000 -0.0000
3.671 -0.047 -1.300 -0.0000 1.0000 -0.0000
3.147 -0.047 -0.300 -0.0000 1.0000 -0.0000
3.671 -0.047 -0.300 -0.0000 1.0000 -0.0000
3.147 -0.047 0.700 -0.0000 1.0000 -0.0000
3.671 -0.047 0.700 -0.0000 1.0000 -0.0000
3.147 -0.047 1.700 -0.0000 1.0000 -0.0000
3.671 -0.047 1.700 -0.0000 1.0000 -0.0000
3.147 -0.047 2.700 -0.0000 1.0000 -0.0000
3.671 -0.047 2.700 -0.0000 1.0000 -0.0000
3.146 -0.047 3.700 -0.0000 1.0000 -0.0000
3.670 -0.047 3.700 -0.0000 1.0000 -0.0000
3.146 -0.052 4.655 -0.0000 0.9747 -0.2234
3.670 -0.052 4.655 -0.0000 0.9747 -0.2234
3.107 0.178 5.655 -0.0000 0.9746 -0.2238
3.625 0.178 5.655 -0.0000 0.9746 -0.2238
3.103 0.201 5.755 -0.0000 0.9746 -0.2238
3.620 0.201 5.755 -0.0000 0.9746 -0.2238
3.096 0.247 5.955 -0.0000 0.9746 -0.2238
3.611 0.247 5.955 -0.0000 0.9746 -0.2238
3.671 -0.047 -6.000 -0.0000 1.0000 -0.0000
4.300 -0.047 -6.000 -0.0000 1.0000 -0.0000
3.671 -0.047 -5.300 -0.0000 1.0000 -0.0000
4.300 -0.047 -5.300 -0.0000 1.0000 -0.0000
3.671 -0.047 -4.300 -0.0000 1.0000 -0.0000
4.300 -0.047 -4.300 -0.0000 1.0000 -0.0000
3.671 -0.047 -3.300 -0.0000 1.0000 -0.0000
4.300 -0.047 -3.300 -0.0000 1.0000 -0.0000
3.671 -0.047 -2.300 -0.0000 1.0000 -0.0000
4.300 -0.047 -2.300 -0.0000 1.0000 -0.0000
3.671 -0.047 -1.300 -0.0000 1.0000 -0.0000
4.300 -0.047 -1.300 -0.0000 1.0000 -0.0000
3.671 -0.047 -0.300 -0.0000 1.0000 -0.0000
4.300 -0.047 -0.300 -0.0000 1.0000 -0.0000
3.671 -0.047 0.700 -0.0000 1.0000 -0.0000
4.300 -0.047 0.700 -0.0000 1.0000 -0.0000
3.671 -0.047 1.700 -0.0000 1.0000 -0.0000
4.300 -0.047 1.700 -0.0000 1.0000 -0.0000
3.671 -0.047 2.700 -0.0000 1.0000 -0.0000
4.300 -0.047 2.700 -0.0000 1.0000 -0.0000
3.670 -0.047 3.700 -0.0000 1.0000 -0.0000
4.298 -0.047 3.700 -0.0000 1.0000 -0.0000
3.670 -0.052 4.655 -0.0000 0.9747 -0.2234
4.298 -0.052 4.655 -0.0000 0.9747 -0.2234
3.625 0.178 5.655 -0.0000 0.9746 -0.2238
4.246 0.178 5.655 -0.0000 0.9746 -0.2238
3.620 0.201 5.755 -0.0000 0.9746 -0.2238
4.240 0.201 5.755 -0.0000 0.9746 -0.2238
3.611 0.247 5.955 -0.0000 0.9746 -0.2238
4.230 0.247 5.955 -0.0000 0.9746 -0.2238
-4.300 -0.247 -6.000 0.0000 -1.0000 0.0000
-3.671 -0.247 -6.000 0.0000 -1.0000 0.0000
-4.300 -0.247 -5.300 0.0000 -1.0000 0.0000
-3.671 -0.247 -5.300 0.0000 -1.0000 0.0000
-4.300 -0.247 -4.300 0.0000 -1.0000 0.0000
-3.671 -0.247 -4.300 0.0000 -1.0000 0.0000
-4.300 -0.247 -3.300 0.0000 -1.0000 0.0000
-3.671 -0.247 -3.300 0.0000 -1.0000 0.0000
-4.300 -0.247 -2.300 0.0000 -1.0000 0.0000
-3.671 -0.247 -2.300 0.0000 -1.0000 0.0000
-4.300 -0.247 -1.300 0.0000 -1.0000 0.0000
-3.671 -0.247 -1.300 0.0000 -1.0000 0.0000
-4.300 -0.247 -0.300 0.0000 -1.0000 0.0000
-3.671 -0.247 -0.300 0.0000 -1.0000 0.0000
-4.300 -0.247 0.700 0.0000 -1.0000 0.0000
-3.671 -0.247 0.700 0.0000 -1.0000 0.0000
-4.300 -0.247 1.700 0.0000 -1.0000 0.0000
-3.671 -0.247 1.700 0.0000 -1.0000 0.0000
-4.300 -0.247 2.700 0.0000 -1.0000 0.0000
-3.671 -0.247 2.700 0.0000 -1.0000 0.0000
-4.298 -0.247 3.700 0.0000 -1.0000 0.0000
-3.670 -0.247 3.700 0.0000 -1.0000 0.0000
-4.298 -0.247 4.700 0.0000 -0.9747 0.2234
-3.670 -0.247 4.700 0.0000 -0.9747 0.2234
-4.246 -0.017 5.700 0.0000 -0.9746 0.2238
-3.625 -0.017 5.700 0.0000 -0.9746 0.2238
-4.240 0.006 5.800 0.0000 -0.9746 0.2238
-3.620 0.006 5.800 0.0000 -0.9746 0.2238
-4.230 0.052 6.000 0.0000 -0.9746 0.2238
-3.611 0.052 6.000 0.0000 -0.9746 0.2238
-3.671 -0.247 -6.000 0.0000 -1.0000 0.0000
-3.147 -0.247 -6.000 0.0000 -1.0000 0.0000
-3.671 -0.247 -5.300 0.0000 -1.0000 0.0000
-3.147 -0.247 -5.300 0.0000 -1.0000 0.0000
-3.671 -0.247 -4.300 0.0000 -1.0000 0.0000
-3.147 -0.247 -4.300 0.0000 -1.0000 0.0000
-3.671 -0.247 -3.300 0.0000 -1.0000 0.0000
-3.147 -0.247 -3.300 0.0000 -1.0000 0.0000
-3.671 -0.247 -2.300 0.0000 -1.0000 0.0000
-3.147 -0.247 -2.300 0.0000 -1.0000 0.0000
-3.671 -0.247 -1.300 0.0000 -1.0000 0.0000
-3.147 -0.247 -1.300 0.0000 -1.0000 0.0000
-3.671 -0.247 -0.300 0.0000 -1.0000 0.0000
-3.147 -0.247 -0.300 0.0000 -1.0000 0.0000
-3.671 -0.247 0.700 0.0000 -1.0000 0.0000
-3.147 -0.247 0.700 0.0000 -1.0000 0.0000
-3.671 -0.247 1.700 0.0000 -1.0000 0.0000
-3.147 -0.247 1.700 0.0000 -1.0000 0.0000
-3.671 -0.247 2.700 0.0000 -1.0000 0.0000
-3.147 -0.247 2.700 0.0000 -1.0000 0.0000
-3.670 -0.247 3.700 0.0000 -1.0000 0.0000
-3.146 -0.247 3.700 0.0000 -1.0000 0.0000
-3.670 -0.247 4.700 0.0000 -0.9747 0.2234
-3.146 -0.247 4.700 0.0000 -0.9747 0.2234
-3.625 -0.017 5.700 0.0000 -0.9746 0.2238
-3.107 -0.017 5.700 0.0000 -0.9746 0.2238
-3.620 0.006 5.800 0.0000 -0.9746 0.2238
-3.103 0.006 5.800 0.0000 -0.9746 0.2238
-3.611 0.052 6.000 0.0000 -0.9746 0.2238
-3.096 0.052 6.000 0.0000 -0.9746 0.2238
-3.147 -0.247 -6.000 0.0000 -1.0000 0.0000
-2.622 -0.247 -6.000 0.0000 -1.0000 0.0000
-3.147 -0.247 -5.300 0.0000 -1.0000 0.0000
-2.622 -0.247 -5.300 0.0000 -1.0000 0.0000
-3.147 -0.247 -4.300 0.0000 -1.0000 0.0000
-2.622 -0.247 -4.300 0.0000 -1.0000 0.0000
-3.147 -0.247 -3.300 0.0000 -1.0000 0.0000
-2.622 -0.247 -3.300 0.0000 -1.0000 0.0000
-3.147 -0.247 -2.300 0.0000 -1.0000 0.0000
-2.622 -0.247 -2.300 0.0000 -1.0000 0.0000
-3.147 -0.247 -1.300 0.0000 -1.0000 0.0000
-2.622 -0.247 -1.300 0.0000 -1.0000 0.0000
-3.147 -0.247 -0.300 0.0000 -1.0000 0.0000
-2.622 -0.247 -0.300 0.0000 -1.0000 0.0000
-3.147 -0.247 0.700 0.0000 -1.0000 0.0000
-2.622 -0.247 0.700 0.0000 -1.0000 0.0000
-3.147 -0.247 1.700 0.0000 -1.0000 0.0000
-2.622 -0.247 1.700 0.0000 -1.0000 0.0000
-3.147 -0.247 2.700 0.0000 -1.0000 0.0000
-2.622 -0.247 2.700 0.0000 -1.0000 0.0000
-3.146 -0.247 3.700 0.0000 -1.0000 0.0000
-2.621 -0.247 3.700 0.0000 -1.0000 0.0000
-3.146 -0.247 4.700 0.0000 -0.9747 0.2234
-2.621 -0.247 4.700 0.0000 -0.9747 0.2234
-3.107 -0.017 5.700 0.0000 -0.9746 0.2238
-2.589 -0.017 5.700 0.0000 -0.9746 0.2238
-3.103 0.006 5.800 0.0000 -0.9746 0.2238
-2.586 0.006 5.800 0.0000 -0.9746 0.2238
-3.096 0.052 6.000 0.0000 -0.9746 0.2238
-2.580 0.052 6.000 0.0000 -0.9746 0.2238
-2.622 -0.247 -6.000 0.0000 -1.0000 0.0000
-2.098 -0.247 -6.000 0.0000 -1.0000 0.0000
-2.622 -0.247 -5.300 0.0000 -1.0000 0.0000
-2.098 -0.247 -5.300 0.0000 -1.0000 0.0000
-2.622 -0.247 -4.300 0.0000 -1.0000 0.0000
-2.098 -0.247 -4.300 0.0000 -1.0000 0.0000
-2.622 -0.247 -3.300 0.0000 -1.0000 0.0000
-2.098 -0.247 -3.300 0.0000 -1.0000 0.0000
-2.622 -0.247 -2.300 0.0000 -1.0000 0.0000
-2.098 -0.247 -2.300 0.0000 -1.0000 0.0000
-2.622 -0.247 -1.300 0.0000 -1.0000 0.0000
-2.098 -0.247 -1.300 0.0000 -1.0000 0.0000
-2.622 -0.247 -0.300 0.0000 -1.0000 0.0000
-2.098 -0.247 -0.300 0.0000 -1.0000 0.0000
-2.622 -0.247 0.700 0.0000 -1.0000 0.0000
-2.098 -0.247 0.700 0.0000 -1.0000 0.0000
-2.622 -0.247 1.700 0.0000 -1.0000 0.0000
-2.098 -0.247 1.700 0.0000 -1.0000 0.0000
-2.622 -0.247 2.700 0.0000 -1.0000 0.0000
-2.098 -0.247 2.700 0.0000 -1.0000 0.0000
-2.621 -0.247 3.700 0.0000 -1.0000 0.0000
-2.097 -0.247 3.700 0.0000 -1.0000 0.0000
-2.621 -0.247 4.700 0.0000 -0.9747 0.2234
-2.097 -0.247 4.700 0.0000 -0.9747 0.2234
-2.589 -0.017 5.700 0.0000 -0.9746 0.2238
-2.071 -0.017 5.700 0.0000 -0.9746 0.2238
-2.586 0.006 5.800 0.0000 -0.9746 0.2238
-2.069 0.006 5.800 0.0000 -0.9746 0.2238
-2.580 0.052 6.000 0.0000 -0.9746 0.2238
-2.064 0.052 6.000 0.0000 -0.9746 0.2238
-2.098 -0.247 -6.000 0.0000 -1.0000 0.0000
-1.573 -0.247 -6.000 0.0000 -1.0000 0.0000
-2.098 -0.247 -5.300 0.0000 -1.0000 0.0000
-1.573 -0.247 -5.300 0.0000 -1.0000 0.0000
-2.098 -0.247 -4.300 0.0000 -1.0000 0.0000
-1.573 -0.247 -4.300 0.0000 -1.0000 0.0000
-2.098 -0.247 -3.300 0.0000 -1.0000 0.0000
-1.573 -0.247 -3.300 0.0000 -1.0000 0.0000
-2.098 -0.247 -2.300 0.0000 -1.0000 0.0000
-1.573 -0.247 -2.300 0.0000 -1.0000 0.0000
-2.098 -0.247 -1.300 0.0000 -1.0000 0.0000
-1.573 -0.247 -1.300 0.0000 -1.0000 0.0000
-2.098 -0.247 -0.300 0.0000 -1.0000 0.0000
-1.573 -0.247 -0.300 0.0000 -1.0000 0.0000
-2.098 -0.247 0.700 0.0000 -1.0000 0.0000
-1.573 -0.247 0.700 0.0000 -1.0000 0.0000
-2.098 -0.247 1.700 0.0000 -1.0000 0.0000
-1.573 -0.247 1.700 0.0000 -1.0000 0.0000
-2.098 -0.247 2.700 0.0000 -1.0000 0.0000
-1.573 -0.247 2.700 0.0000 -1.0000 0.0000
-2.097 -0.247 3.700 0.0000 -1.0000 0.0000
-1.573 -0.247 3.700 0.0000 -1.0000 0.0000
-2.097 -0.247 4.700 0.0000 -0.9747 0.2234
-1.573 -0.247 4.700 0.0000 -0.9747 0.2234
-2.071 -0.017 5.700 0.0000 -0.9746 0.2238
-1.554 -0.017 5.700 0.0000 -0.9746 0.2238
-2.069 0.006 5.800 0.0000 -0.9746 0.2238
-1.552 0.006 5.800 0.0000 -0.9746 0.2238
-2.064 0.052 6.000 0.0000 -0.9746 0.2238
-1.548 0.052 6.000 0.0000 -0.9746 0.2238
-1.573 -0.247 -6.000 0.0000 -1.0000 0.0000
-1.049 -0.247 -6.000 0.0000 -1.0000 0.0000
-1.573 -0.247 -5.300 0.0000 -1.0000 0.0000
-1.049 -0.247 -5.300 0.0000 -1.0000 0.0000
-1.573 -0.247 -4.300 0.0000 -1.0000 0.0000
-1.049 -0.247 -4.300 0.0000 -1.0000 0.0000
-1.573 -0.247 -3.300 0.0000 -1.0000 0.0000
-1.049 -0.247 -3.300 0.0000 -1.0000 0.0000
-1.573 -0.247 -2.300 0.0000 -1.0000 0.0000
-1.049 -0.247 -2.300 0.0000 -1.0000 0.0000
-1.573 -0.247 -1.300 0.0000 -1.0000 0.0000
-1.049 -0.247 -1.300 0.0000 -1.0000 0.0000
-1.573 -0.247 -0.300 0.0000 -1.0000 0.0000
-1.049 -0.247 -0.300 0.0000 -1.0000 0.0000
-1.573 -0.247 0.700 0.0000 -1.0000 0.0000
-1.049 -0.247 0.700 0.0000 -1.0000 0.0000
-1.573 -0.247 1.700 0.0000 -1.0000 0.0000
-1.049 -0.247 1.700 0.0000 -1.0000 0.0000
-1.573 -0.247 2.700 0.0000 -1.0000 0.0000
-1.049 -0.247 2.700 0.0000 -1.0000 0.0000
-1.573 -0.247 3.700 0.0000 -1.0000 0.0000
-1.049 -0.247 3.700 0.0000 -1.0000 0.0000
-1.573 -0.247 4.700 0.0000 -0.9747 0.2234
-1.049 -0.247 4.700 0.0000 -0.9747 0.2234
-1.554 -0.017 5.700 0.0000 -0.9746 0.2238
-1.036 -0.017 5.700 0.0000 -0.9746 0.2238
-1.552 0.006 5.800 0.0000 -0.9746 0.2238
-1.034 0.006 5.800 0.0000 -0.9746 0.2238
-1.548 0.052 6.000 0.0000 -0.9746 0.2238
-1.032 0.052 6.000 0.0000 -0.9746 0.2238
-1.049 -0.247 -6.000 0.0000 -1.0000 0.0000
-0.743 -0.247 -6.000 0.0000 -1.0000 0.0000
-1.049 -0.247 -5.300 0.0000 -1.0000 0.0000
-0.743 -0.247 -5.300 0.0000 -1.0000 0.0000
-1.049 -0.247 -4.300 0.0000 -1.0000 0.0000
-0.743 -0.247 -4.300 0.0000 -1.0000 0.0000
-1.049 -0.247 -3.300 0.0000 -1.0000 0.0000
-0.743 -0.247 -3.300 0.0000 -1.0000 0.0000
-1.049 -0.247 -2.300 0.0000 -1.0000 0.0000
-0.743 -0.247 -2.300 0.0000 -1.0000 0.0000
-1.049 -0.247 -1.300 0.0000 -1.0000 0.0000
-0.743 -0.247 -1.300 0.0000 -1.0000 0.0000
-1.049 -0.247 -0.300 0.0000 -1.0000 0.0000
-0.743 -0.247 -0.300 0.0000 -1.0000 0.0000
-1.049 -0.247 0.700 0.0000 -1.0000 0.0000
-0.743 -0.247 0.700 0.0000 -1.0000 0.0000
-1.049 -0.247 1.700 0.0000 -1.0000 0.0000
-0.743 -0.247 1.700 0.0000 -1.0000 0.0000
-1.049 -0.247 2.700 0.0000 -1.0000 0.0000
-0.743 -0.247 2.700 0.0000 -1.0000 0.0000
-1.049 -0.247 3.700 0.0000 -1.0000 0.0000
-0.743 -0.247 3.700 0.0000 -1.0000 0.0000
-1.049 -0.247 4.700 0.0000 -0.9747 0.2234
-0.743 -0.247 4.700 0.0000 -0.9747 0.2234
-1.036 -0.017 5.700 0.0000 -0.9746 0.2238
-0.734 -0.017 5.700 0.0000 -0.9746 0.2238
-1.034 0.006 5.800 0.0000 -0.9746 0.2238
-0.733 0.006 5.800 0.0000 -0.9746 0.2238
-1.032 0.052 6.000 0.0000 -0.9746 0.2238
-0.731 0.052 6.000 0.0000 -0.9746 0.2238
-0.743 -0.247 -6.000 0.0000 -1.0000 0.0000
-0.524 -0.247 -6.000 0.0000 -1.0000 0.0000
-0.743 -0.247 -5.300 0.0000 -1.0000 0.0000
-0.524 -0.247 -5.300 0.0000 -1.0000 0.0000
-0.743 -0.247 -4.300 0.0000 -1.0000 0.0000
-0.524 -0.247 -4.300 0.0000 -1.0000 0.0000
-0.743 -0.247 -3.300 0.0000 -1.0000 0.0000
-0.524 -0.247 -3.300 0.0000 -1.0000 0.0000
-0.743 -0.247 -2.300 0.0000 -1.0000 0.0000
-0.524 -0.247 -2.300 0.0000 -1.0000 0.0000
-0.743 -0.247 -1.300 0.0000 -1.0000 0.0000
-0.524 -0.247 -1.300 0.0000 -1.0000 0.0000
-0.743 -0.247 -0.300 0.0000 -1.0000 0.0000
-0.524 -0.247 -0.300 0.0000 -1.0000 0.0000
-0.743 -0.247 0.700 0.0000 -1.0000 0.0000
-0.524 -0.247 0.700 0.0000 -1.0000 0.0000
-0.743 -0.247 1.700 0.0000 -1.0000 0.0000
-0.524 -0.247 1.700 0.0000 -1.0000 0.0000
-0.743 -0.247 2.700 0.0000 -1.0000 0.0000
-0.524 -0.247 2.700 0.0000 -1.0000 0.0000
-0.743 -0.247 3.700 0.0000 -1.0000 0.0000
-0.524 -0.247 3.700 0.0000 -1.0000 0.0000
-0.743 -0.247 4.700 0.0000 -0.9747 0.2234
-0.524 -0.247 4.700 0.0000 -0.9747 0.2234
-0.734 -0.017 5.700 0.0000 -0.9746 0.2238
-0.518 -0.017 5.700 0.0000 -0.9746 0.2238
-0.733 0.006 5.800 0.0000 -0.9746 0.2238
-0.517 0.006 5.800 0.0000 -0.9746 0.2238
-0.731 0.052 6.000 0.0000 -0.9746 0.2238
-0.516 0.052 6.000 0.0000 -0.9746 0.2238
-0.524 -0.247 -6.000 0.0000 -1.0000 0.0000
0.000 -0.247 -6.000 0.0000 -1.0000 0.0000
-0.524 -0.247 -5.300 0.0000 -1.0000 0.0000
0.000 -0.247 -5.300 0.0000 -1.0000 0.0000
-0.524 -0.247 -4.300 0.0000 -1.0000 0.0000
0.000 -0.247 -4.300 0.0000 -1.0000 0.0000
-0.524 -0.247 -3.300 0.0000 -1.0000 0.0000
0.000 -0.247 -3.300 0.0000 -1.0000 0.0000
-0.524 -0.247 -2.300 0.0000 -1.0000 0.0000
0.000 -0.247 -2.300 0.0000 -1.0000 0.0000
-0.524 -0.247 -1.300 0.0000 -1.0000 0.0000
0.000 -0.247 -1.300 0.0000 -1.0000 0.0000
-0.524 -0.247 -0.300 0.0000 -1.0000 0.0000
0.000 -0.247 -0.300 0.0000 -1.0000 0.0000
-0.524 -0.247 0.700 0.0000 -1.0000 0.0000
0.000 -0.247 0.700 0.0000 -1.0000 0.0000
-0.524 -0.247 1.700 0.0000 -1.0000 0.0000
0.000 -0.247 1.700 0.0000 -1.0000 0.0000
-0.524 -0.247 2.700 0.0000 -1.0000 0.0000
0.000 -0.247 2.700 0.0000 -1.0000 0.0000
-0.524 -0.247 3.700 0.0000 -1.0000 0.0000
0.000 -0.247 3.700 0.0000 -1.0000 0.0000
-0.524 -0.247 4.700 0.0000 -0.9747 0.2234
0.000 -0.247 4.700 0.0000 -0.9747 0.2234
-0.518 -0.017 5.700 0.0000 -0.9746 0.2238
0.000 -0.017 5.700 0.0000 -0.9746 0.2238
-0.517 0.006 5.800 0.0000 -0.9746 0.2238
0.000 0.006 5.800 0.0000 -0.9746 0.2238
-0.516 0.052 6.000 0.0000 -0.9746 0.2238
0.000 0.052 6.000 0.0000 -0.9746 0.2238
-4.300 -0.047 -6.000 -0.0000 1.0000 -0.0000
-3.671 -0.047 -6.000 -0.0000 1.0000 -0.0000
-4.300 -0.047 -5.300 -0.0000 1.0000 -0.0000
-3.671 -0.047 -5.300 -0.0000 1.0000 -0.0000
-4.300 -0.047 -4.300 -0.0000 1.0000 -0.0000
-3.671 -0.047 -4.300 -0.0000 1.0000 -0.0000
-4.300 -0.047 -3.300 -0.0000 1.0000 -0.0000
-3.671 -0.047 -3.300 -0.0000 1.0000 -0.0000
-4.300 -0.047 -2.300 -0.0000 1.0000 -0.0000
-3.671 -0.047 -2.300 -0.0000 1.0000 -0.0000
-4.300 -0.047 -1.300 -0.0000 1.0000 -0.0000
-3.671 -0.047 -1.300 -0.0000 1.0000 -0.0000
-4.300 -0.047 -0.300 -0.0000 1.0000 -0.0000
-3.671 -0.047 -0.300 -0.0000 1.0000 -0.0000
-4.300 -0.047 0.700 -0.0000 1.0000 -0.0000
-3.671 -0.047 0.700 -0.0000 1.0000 -0.0000
-4.300 -0.047 1.700 -0.0000 1.0000 -0.0000
-3.671 -0.047 1.700 -0.0000 1.0000 -0.0000
-4.300 -0.047 2.700 -0.0000 1.0000 -0.0000
-3.671 -0.047 2.700 -0.0000 1.0000 -0.0000
-4.298 -0.047 3.700 -0.0000 1.0000 -0.0000
-3.670 -0.047 3.700 -0.0000 1.0000 -0.0000
-4.298 -0.052 4.655 -0.0000 0.9747 -0.2234
-3.670 -0.052 4.655 -0.0000 0.9747 -0.2234
-4.246 0.178 5.655 -0.0000 0.9746 -0.2238
-3.625 0.178 5.655 -0.0000 0.9746 -0.2238
-4.240 0.201 5.755 -0.0000 0.9746 -0.2238
-3.620 0.201 5.755 -0.0000 0.9746 -0.2238
-4.230 0.247 5.955 -0.0000 0.9746 -0.2238
-3.611 0.247 5.955 -0.0000 0.9746 -0.2238
-3.671 -0.047 -6.000 -0.0000 1.0000 -0.0000
-3.147 -0.047 -6.000 -0.0000 1.0000 -0.0000
-3.671 -0.047 -5.300 -0.0000 1.0000 -0.0000
-3.147 -0.047 -5.300 -0.0000 1.0000 -0.0000
-3.671 -0.047 -4.300 -0.0000 1.0000 -0.0000
-3.147 -0.047 -4.300 -0.0000 1.0000 -0.0000
-3.671 -0.047 -3.300 -0.0000 1.0000 -0.0000
-3.147 -0.047 -3.300 -0.0000 1.0000 -0.0000
-3.671 -0.047 -2.300 -0.0000 1.0000 -0.0000
-3.147 -0.047 -2.300 -0.0000 1.0000 -0.0000
-3.671 -0.047 -1.300 -0.0000 1.0000 -0.0000
-3.147 -0.047 -1.300 -0.0000 1.0000 -0.0000
-3.671 -0.047 -0.300 -0.0000 1.0000 -0.0000
-3.147 -0.047 -0.300 -0.0000 1.0000 -0.0000
-3.671 -0.047 0.700 -0.0000 1.0000 -0.0000
-3.147 -0.047 0.700 -0.0000 1.0000 -0.0000
-3.671 -0.047 1.700 -0.0000 1.0000 -0.0000
-3.147 -0.047 1.700 -0.0000 1.0000 -0.0000
-3.671 -0.047 2.700 -0.0000 1.0000 -0.0000
-3.147 -0.047 2.700 -0.0000 1.0000 -0.0000
-3.670 -0.047 3.700 -0.0000 1.0000 -0.0000
-3.146 -0.047 3.700 -0.0000 1.0000 -0.0000
-3.670 -0.052 4.655 -0.0000 0.9747 -0.2234
-3.146 -0.052 4.655 -0.0000 0.9747 -0.2234
-3.625 0.178 5.655 -0.0000 0.9746 -0.2238
-3.107 0.178 5.655 -0.0000 0.9746 -0.2238
-3.620 0.201 5.755 -0.0000 0.9746 -0.2238
-3.103 0.201 5.755 -0.0000 0.9746 -0.2238
-3.611 0.247 5.955 -0.0000 0.9746 -0.2238
-3.096 0.247 5.955 -0.0000 0.9746 -0.2238
-3.147 -0.047 -6.000 -0.0000 1.0000 -0.0000
-2.622 -0.047 -6.000 -0.0000 1.0000 -0.0000
-3.147 -0.047 -5.300 -0.0000 1.0000 -0.0000
-2.622 -0.047 -5.300 -0.0000 1.0000 -0.0000
-3.147 -0.047 -4.300 -0.0000 1.0000 -0.0000
-2.622 -0.047 -4.300 -0.0000 1.0000 -0.0000
-3.147 -0.047 -3.300 -0.0000 1.0000 -0.0000
-2.622 -0.047 -3.300 -0.0000 1.0000 -0.0000
-3.147 -0.047 -2.300 -0.0000 1.0000 -0.0000
-2.622 -0.047 -2.300 -0.0000 1.0000 -0.0000
-3.147 -0.047 -1.300 -0.0000 1.0000 -0.0000
-2.622 -0.047 -1.300 -0.0000 1.0000 -0.0000
-3.147 -0.047 -0.300 -0.0000 1.0000 -0.0000
-2.622 -0.047 -0.300 -0.0000 1.0000 -0.0000
-3.147 -0.047 0.700 -0.0000 1.0000 -0.0000
-2.622 -0.047 0.700 -0.0000 1.0000 -0.0000
-3.147 -0.047 1.700 -0.0000 1.0000 -0.0000
-2.622 -0.047 1.700 -0.0000 1.0000 -0.0000
-3.147 -0.047 2.700 -0.0000 1.0000 -0.0000
-2.622 -0.047 2.700 -0.0000 1.0000 -0.0000
-3.146 -0.047 3.700 -0.0000 1.0000 -0.0000
-2.621 -0.047 3.700 -0.0000 1.0000 -0.0000
-3.146 -0.052 4.655 -0.0000 0.9747 -0.2234
-2.621 -0.052 4.655 -0.0000 0.9747 -0.2234
-3.107 0.178 5.655 -0.0000 0.9746 -0.2238
-2.589 0.178 5.655 -0.0000 0.9746 -0.2238
-3.103 0.201 5.755 -0.0000 0.9746 -0.2238
-2.586 0.201 5.755 -0.0000 0.9746 -0.2238
-3.096 0.247 5.955 -0.0000 0.9746 -0.2238
-2.580 0.247 5.955 -0.0000 0.9746 -0.2238
-2.622 -0.047 -6.000 -0.0000 1.0000 -0.0000
-2.098 -0.047 -6.000 -0.0000 1.0000 -0.0000
-2.622 -0.047 -5.300 -0.0000 1.0000 -0.0000
-2.098 -0.047 -5.300 -0.0000 1.0000 -0.0000
-2.622 -0.047 -4.300 -0.0000 1.0000 -0.0000
-2.098 -0.047 -4.300 -0.0000 1.0000 -0.0000
-2.622 -0.047 -3.300 -0.0000 1.0000 -0.0000
-2.098 -0.047 -3.300 -0.0000 1.0000 -0.0000
-2.622 -0.047 -2.300 -0.0000 1.0000 -0.0000
-2.098 -0.047 -2.300 -0.0000 1.0000 -0.0000
-2.622 -0.047 -1.300 -0.0000 1.0000 -0.0000
-2.098 -0.047 -1.300 -0.0000 1.0000 -0.0000
-2.622 -0.047 -0.300 -0.0000 1.0000 -0.0000
-2.098 -0.047 -0.300 -0.0000 1.0000 -0.0000
-2.622 -0.047 0.700 -0.0000 1.0000 -0.0000
-2.098 -0.047 0.700 -0.0000 1.0000 -0.0000
-2.622 -0.047 1.700 -0.0000 1.0000 -0.0000
-2.098 -0.047 1.700 -0.0000 1.0000 -0.0000
-2.622 -0.047 2.700 -0.0000 1.0000 -0.0000
-2.098 -0.047 2.700 -0.0000 1.0000 -0.0000
-2.621 -0.047 3.700 -0.0000 1.0000 -0.0000
-2.097 -0.047 3.700 -0.0000 1.0000 -0.0000
-2.621 -0.052 4.655 -0.0000 0.9747 -0.2234
-2.097 -0.052 4.655 -0.0000 0.9747 -0.2234
-2.589 0.178 5.655 -0.0000 0.9746 -0.2238
-2.071 0.178 5.655 -0.0000 0.9746 -0.2238
-2.586 0.201 5.755 -0.0000 0.9746 -0.2238
-2.069 0.201 5.755 -0.0000 0.9746 -0.2238
-2.580 0.247 5.955 -0.0000 0.9746 -0.2238
-2.064 0.247 5.955 -0.0000 0.9746 -0.2238
-2.098 -0.047 -6.000 -0.0000 1.0000 -0.0000
-1.573 -0.047 -6.000 -0.0000 1.0000 -0.0000
-2.098 -0.047 -5.300 -0.0000 1.0000 -0.0000
-1.573 -0.047 -5.300 -0.0000 1.0000 -0.0000
-2.098 -0.047 -4.300 -0.0000 1.0000 -0.0000
-1.573 -0.047 -4.300 -0.0000 1.0000 -0.0000
-2.098 -0.047 -3.300 -0.0000 1.0000 -0.0000
-1.573 -0.047 -3.300 -0.0000 1.0000 -0.0000
-2.098 -0.047 -2.300 -0.0000 1.0000 -0.0000
-1.573 -0.047 -2.300 -0.0000 1.0000 -0.0000
-2.098 -0.047 -1.300 -0.0000 1.0000 -0.0000
-1.573 -0.047 -1.300 -0.0000 1.0000 -0.0000
-2.098 -0.047 -0.300 -0.0000 1.0000 -0.0000
-1.573 -0.047 -0.300 -0.0000 1.0000 -0.0000
-2.098 -0.047 0.700 -0.0000 1.0000 -0.0000
-1.573 -0.047 0.700 -0.0000 1.0000 -0.0000
-2.098 -0.047 1.700 -0.0000 1.0000 -0.0000
-1.573 -0.047 1.700 -0.0000 1.0000 -0.0000
-2.098 -0.047 2.700 -0.0000 1.0000 -0.0000
-1.573 -0.047 2.700 -0.0000 1.0000 -0.0000
-2.097 -0.047 3.700 -0.0000 1.0000 -0.0000
-1.573 -0.047 3.700 -0.0000 1.0000 -0.0000
-2.097 -0.052 4.655 -0.0000 0.9747 -0.2234
-1.573 -0.052 4.655 -0.0000 0.9747 -0.2234
-2.071 0.178 5.655 -0.0000 0.9746 -0.2238
-1.554 0.178 5.655 -0.0000 0.9746 -0.2238
-2.069 0.201 5.755 -0.0000 0.9746 -0.2238
-1.552 0.201 5.755 -0.0000 0.9746 -0.2238
-2.064 0.247 5.955 -0.0000 0.9746 -0.2238
-1.548 0.247 5.955 -0.0000 0.9746 -0.2238
-1.573 -0.047 -6.000 -0.0000 1.0000 -0.0000
-1.049 -0.047 -6.000 -0.0000 1.0000 -0.0000
-1.573 -0.047 -5.300 -0.0000 1.0000 -0.0000
-1.049 -0.047 -5.300 -0.0000 1.0000 -0.0000
-1.573 -0.047 -4.300 -0.0000 1.0000 -0.0000
-1.049 -0.047 -4.300 -0.0000 1.0000 -0.0000
-1.573 -0.047 -3.300 -0.0000 1.0000 -0.0000
-1.049 -0.047 -3.300 -0.0000 1.0000 -0.0000
-1.573 -0.047 -2.300 -0.0000 1.0000 -0.0000
-1.049 -0.047 -2.300 -0.0000 1.0000 -0.0000
-1.573 -0.047 -1.300 -0.0000 1.0000 -0.0000
-1.049 -0.047 -1.300 -0.0000 1.0000 -0.0000
-1.573 -0.047 -0.300 -0.0000 1.0000 -0.0000
-1.049 -0.047 -0.300 -0.0000 1.0000 -0.0000
-1.573 -0.047 0.700 -0.0000 1.0000 -0.0000
-1.049 -0.047 0.700 -0.0000 1.0000 -0.0000
-1.573 -0.047 1.700 -0.0000 1.0000 -0.0000
-1.049 -0.047 1.700 -0.0000 1.0000 -0.0000
-1.573 -0.047 2.700 -0.0000 1.0000 -0.0000
-1.049 -0.047 2.700 -0.0000 1.0000 -0.0000
-1.573 -0.047 3.700 -0.0000 1.0000 -0.0000
-1.049 -0.047 3.700 -0.0000 1.0000 -0.0000
-1.573 -0.052 4.655 -0.0000 0.9747 -0.2234
-1.049 -0.052 4.655 -0.0000 0.9747 -0.2234
-1.554 0.178 5.655 -0.0000 0.9746 -0.2238
-1.036 0.178 5.655 -0.0000 0.9746 -0.2238
-1.552 0.201 5.755 -0.0000 0.9746 -0.2238
-1.034 0.201 5.755 -0.0000 0.9746 -0.2238
-1.548 0.247 5.955 -0.0000 0.9746 -0.2238
-1.032 0.247 5.955 -0.0000 0.9746 -0.2238
-1.049 -0.047 -6.000 -0.0000 1.0000 -0.0000
-0.743 -0.047 -6.000 -0.0000 1.0000 -0.0000
-1.049 -0.047 -5.300 -0.0000 1.0000 -0.0000
-0.743 -0.047 -5.300 -0.0000 1.0000 -0.0000
-1.049 -0.047 -4.300 -0.0000 1.0000 -0.0000
-0.743 -0.047 -4.300 -0.0000 1.0000 -0.0000
-1.049 -0.047 -3.300 -0.0000 1.0000 -0.0000
-0.743 -0.047 -3.300 -0.0000 1.0000 -0.0000
-1.049 -0.047 -2.300 -0.0000 1.0000 -0.0000
-0.743 -0.047 -2.300 -0.0000 1.0000 -0.0000
-1.049 -0.047 -1.300 -0.0000 1.0000 -0.0000
-0.743 -0.047 -1.300 -0.0000 1.0000 -0.0000
-1.049 -0.047 -0.300 -0.0000 1.0000 -0.0000
-0.743 -0.047 -0.300 -0.0000 1.0000 -0.0000
-1.049 -0.047 0.700 -0.0000 1.0000 -0.0000
-0.743 -0.047 0.700 -0.0000 1.0000 -0.0000
-1.049 -0.047 1.700 -0.0000 1.0000 -0.0000
-0.743 -0.047 1.700 -0.0000 1.0000 -0.0000
-1.049 -0.047 2.700 -0.0000 1.0000 -0.0000
-0.743 -0.047 2.700 -0.0000 1.0000 -0.0000
-1.049 -0.047 3.700 -0.0000 1.0000 -0.0000
-0.743 -0.047 3.700 -0.0000 1.0000 -0.0000
-1.049 -0.052 4.655 -0.0000 0.9747 -0.2234
-0.743 -0.052 4.655 -0.0000 0.9747 -0.2234
-1.036 0.178 5.655 -0.0000 0.9746 -0.2238
-0.734 0.178 5.655 -0.0000 0.9746 -0.2238
-1.034 0.201 5.755 -0.0000 0.9746 -0.2238
-0.733 0.201 5.755 -0.0000 0.9746 -0.2238
-1.032 0.247 5.955 -0.0000 0.9746 -0.2238
-0.731 0.247 5.955 -0.0000 0.9746 -0.2238
-0.743 -0.047 -6.000 -0.0000 1.0000 -0.0000
-0.524 -0.047 -6.000 -0.0000 1.0000 -0.0000
-0.743 -0.047 -5.300 -0.0000 1.0000 -0.0000
-0.524 -0.047 -5.300 -0.0000 1.0000 -0.0000
-0.743 -0.047 -4.300 -0.0000 1.0000 -0.0000
-0.524 -0.047 -4.300 -0.0000 1.0000 -0.0000
-0.743 -0.047 -3.300 -0.0000 1.0000 -0.0000
-0.524 -0.047 -3.300 -0.0000 1.0000 -0.0000
-0.743 -0.047 -2.300 -0.0000 1.0000 -0.0000
-0.524 -0.047 -2.300 -0.0000 1.0000 -0.0000
-0.743 -0.047 -1.300 -0.0000 1.0000 -0.0000
-0.524 -0.047 -1.300 -0.0000 1.0000 -0.0000
-0.743 -0.047 -0.300 -0.0000 1.0000 -0.0000
-0.524 -0.047 -0.300 -0.0000 1.0000 -0.0000
-0.743 -0.047 0.700 -0.0000 1.0000 -0.0000
-0.524 -0.047 0.700 -0.0000 1.0000 -0.0000
-0.743 -0.047 1.700 -0.0000 1.0000 -0.0000
-0.524 -0.047 1.700 -0.0000 1.0000 -0.0000
-0.743 -0.047 2.700 -0.0000 1.0000 -0.0000
-0.524 -0.047 2.700 -0.0000 1.0000 -0.0000
-0.743 -0.047 3.700 -0.0000 1.0000 -0.0000
-0.524 -0.047 3.700 -0.0000 1.0000 -0.0000
-0.743 -0.052 4.655 -0.0000 0.9747 -0.2234
-0.524 -0.052 4.655 -0.0000 0.9747 -0.2234
-0.734 0.178 5.655 -0.0000 0.9746 -0.2238
-0.518 0.178 5.655 -0.0000 0.9746 -0.2238
-0.733 0.201 5.755 -0.0000 0.9746 -0.2238
-0.517 0.201 5.755 -0.0000 0.9746 -0.2238
-0.731 0.247 5.955 -0.0000 0.9746 -0.2238
-0.516 0.247 5.955 -0.0000 0.9746 -0.2238
-0.524 -0.047 -6.000 -0.0000 1.0000 -0.0000
0.000 -0.047 -6.000 -0.0000 1.0000 -0.0000
-0.524 -0.047 -5.300 -0.0000 1.0000 -0.0000
0.000 -0.047 -5.300 -0.0000 1.0000 -0.0000
-0.524 -0.047 -4.300 -0.0000 1.0000 -0.0000
0.000 -0.047 -4.300 -0.0000 1.0000 -0.0000
-0.524 -0.047 -3.300 -0.0000 1.0000 -0.0000
0.000 -0.047 -3.300 -0.0000 1.0000 -0.0000
-0.524 -0.047 -2.300 -0.0000 1.0000 -0.0000
0.000 -0.047 -2.300 -0.0000 1.0000 -0.0000
-0.524 -0.047 -1.300 -0.0000 1.0000 -0.0000
0.000 -0.047 -1.300 -0.0000 1.0000 -0.0000
-0.524 -0.047 -0.300 -0.0000 1.0000 -0.0000
0.000 -0.047 -0.300 -0.0000 1.0000 -0.0000
-0.524 -0.047 0.700 -0.0000 1.0000 -0.0000
0.000 -0.047 0.700 -0.0000 1.0000 -0.0000
-0.524 -0.047 1.700 -0.0000 1.0000 -0.0000
0.000 -0.047 1.700 -0.0000 1.0000 -0.0000
-0.524 -0.047 2.700 -0.0000 1.0000 -0.0000
0.000 -0.047 2.700 -0.0000 1.0000 -0.0000
-0.524 -0.047 3.700 -0.0000 1.0000 -0.0000
0.000 -0.047 3.700 -0.0000 1.0000 -0.0000
-0.524 -0.052 4.655 -0.0000 0.9747 -0.2234
0.000 -0.052 4.655 -0.0000 0.9747 -0.2234
-0.518 0.178 5.655 -0.0000 0.9746 -0.2238
0.000 0.178 5.655 -0.0000 0.9746 -0.2238
-0.517 0.201 5.755 -0.0000 0.9746 -0.2238
0.000 0.201 5.755 -0.0000 0.9746 -0.2238
-0.516 0.247 5.955 -0.0000 0.9746 -0.2238
0.000 0.247 5.955 -0.0000 0.9746 -0.2238
0 1 2
2 1 3
2 3 4
4 3 5
4 5 6
6 5 7
6 7 8
8 7 9
8 9 10
10 9 11
10 11 12
12 11 13
12 13 14
14 13 15
14 15 16
16 15 17
16 17 18
18 17 19
18 19 20
20 19 21
20 21 22
22 21 23
22 23 24
24 23 25
24 25 26
26 25 27
26 27 28
28 27 29
30 31 32
32 31 33
32 33 34
34 33 35
34 35 36
36 35 37
36 37 38
38 37 39
38 39 40
40 39 41
40 41 42
42 41 43
42 43 44
44 43 45
44 45 46
46 45 47
46 47 48
48 47 49
48 49 50
50 49 51
50 51 52
52 51 53
52 53 54
54 53 55
54 55 56
56 55 57
56 57 58
58 57 59
60 61 62
62 61 63
62 63 64
64 63 65
64 65 66
66 65 67
66 67 68
68 67 69
68 69 70
70 69 71
70 71 72
72 71 73
72 73 74
74 73 75
74 75 76
76 75 77
76 77 78
78 77 79
78 79 80
80 79 81
80 81 82
82 81 83
82 83 84
84 83 85
84 85 86
86 85 87
86 87 88
88 87 89
90 91 92
92 91 93
92 93 94
94 93 95
94 95 96
96 95 97
96 97 98
98 97 99
98 99 100
100 99 101
100 101 102
102 101 103
102 103 104
104 103 105
104 105 106
106 105 107
106 107 108
108 107 109
108 109 110
110 109 111
110 111 112
112 111 113
112 113 114
114 113 115
114 115 116
116 115 117
116 117 118
118 117 119
120 121 122
122 121 123
122 123 124
124 123 125
124 125 126
126 125 127
126 127 128
128 127 129
128 129 130
130 129 131
130 131 132
132 131 133
132 133 134
134 133 135
134 135 136
136 135 137
136 137 138
138 137 139
138 139 140
140 139 141
140 141 142
142 141 143
142 143 144
144 143 145
144 145 146
146 145 147
146 147 148
148 147 149
150 151 152
152 151 153
152 153 154
154 153 155
154 155 156
156 155 157
156 157 158
158 157 159
158 159 160
160 159 161
160 161 162
162 161 163
162 163 164
164 163 165
164 165 166
166 165 167
166 167 168
168 167 169
168 169 170
170 169 171
170 171 172
172 171 173
172 173 174
174 173 175
174 175 176
176 175 177
176 177 178
178 177 179
180 181 182
182 181 183
182 183 184
184 183 185
184 185 186
186 185 187
186 187 188
188 187 189
188 189 190
190 189 191
190 191 192
192 191 193
192 193 194
194 193 195
194 195 196
196 195 197
196 197 198
198 197 199
198 199 200
200 199 201
200 201 202
202 201 203
202 203 204
204 203 205
204 205 206
206 205 207
206 207 208
208 207 209
210 211 212
212 211 213
212 213 214
214 213 215
214 215 216
216 215 217
216 217 218
218 217 219
218 219 220
220 219 221
220 221 222
222 221 223
222 223 224
224 223 225
224 225 226
226 225 227
226 227 228
228 227 229
228 229 230
230 229 231
230 231 232
232 231 233
232 233 234
234 233 235
234 235 236
236 235 237
236 237 238
238 237 239
240 241 242
242 241 243
242 243 244
244 243 245
244 245 246
246 245 247
246 247 248
248 247 249
248 249 250
250 249 251
250 251 252
252 251 253
252 253 254
254 253 255
254 255 256
256 255 257
256 257 258
258 257 259
258 259 260
260 259 261
260 261 262
262 261 263
262 263 264
264 263 265
264 265 266
266 265 267
266 267 268
268 267 269
270 272 271
272 273 271
272 274 273
274 275 273
274 276 275
276 277 275
276 278 277
278 279 277
278 280 279
280 281 279
280 282 281
282 283 281
282 284 283
284 285 283
284 286 285
286 287 285
286 288 287
288 289 287
288 290 289
290 291 289
290 292 291
292 293 291
292 294 293
294 295 293
294 296 295
296 297 295
296 298 297
298 299 297
300 302 301
302 303 301
302 304 303
304 305 303
304 306 305
306 307 305
306 308 307
308 309 307
308 310 309
310 311 309
310 312 311
312 313 311
312 314 313
314 315 313
314 316 315
316 317 315
316 318 317
318 319 317
318 320 319
320 321 319
320 322 321
322 323 321
322 324 323
324 325 323
324 326 325
326 327 325
326 328 327
328 329 327
330 332 331
332 333 331
332 334 333
334 335 333
334 336 335
336 337 335
336 338 337
338 339 337
338 340 339
340 341 339
340 342 341
342 343 341
342 344 343
344 345 343
344 346 345
346 347 345
346 348 347
348 349 347
348 350 349
350 351 349
350 352 351
352 353 351
352 354 353
354 355 353
354 356 355
356 357 355
356 358 357
358 359 357
360 362 361
362 363 361
362 364 363
364 365 363
364 366 365
366 367 365
366 368 367
368 369 367
368 370 369
370 371 369
370 372 371
372 373 371
372 374 373
374 375 373
374 376 375
376 377 375
376 378 377
378 379 377
378 380 379
380 381 379
380 382 381
382 383 381
382 384 383
384 385 383
384 386 385
386 387 385
386 388 387
388 389 387
390 392 391
392 393 391
392 394 393
394 395 393
394 396 395
396 397 395
396 398 397
398 399 397
398 400 399
400 401 399
400 402 401
402 403 401
402 404 403
404 405 403
404 406 405
406 407 405
406 408 407
408 409 407
408 410 409
410 411 409
410 412 411
412 413 411
412 414 413
414 415 413
414 416 415
416 417 415
416 418 417
418 419 417
420 422 421
422 423 421
422 424 423
424 425 423
424 426 425
426 427 425
426 428 427
428 429 427
428 430 429
430 431 429
430 432 431
432 433 431
432 434 433
434 435 433
434 436 435
436 437 435
436 438 437
438 439 437
438 440 439
440 441 439
440 442 441
442 443 441
442 444 443
444 445 443
444 446 445
446 447 445
446 448 447
448 449 447
450 452 451
452 453 451
452 454 453
454 455 453
454 456 455
456 457 455
456 458 457
458 459 457
458 460 459
460 461 459
460 462 461
462 463 461
462 464 463
464 465 463
464 466 465
466 467 465
466 468 467
468 469 467
468 470 469
470 471 469
470 472 471
472 473 471
472 474 473
474 475 473
474 476 475
476 477 475
476 478 477
478 479 477
480 482 481
482 483 481
482 484 483
484 485 483
484 486 485
486 487 485
486 488 487
488 489 487
488 490 489
490 491 489
490 492 491
492 493 491
492 494 493
494 495 493
494 496 495
496 497 495
496 498 497
498 499 497
498 500 499
500 501 499
500 502 501
502 503 501
502 504 503
504 505 503
504 506 505
506 507 505
506 508 507
508 509 507
510 512 511
512 513 511
512 514 513
514 515 513
514 516 515
516 517 515
516 518 517
518 519 517
518 520 519
520 521 519
520 522 521
522 523 521
522 524 523
524 525 523
524 526 525
526 527 525
526 528 527
528 529 527
528 530 529
530 531 529
530 532 531
532 533 531
532 534 533
534 535 533
534 536 535
536 537 535
536 538 537
538 539 537
540 541 542
542 541 543
542 543 544
544 543 545
544 545 546
546 545 547
546 547 548
548 547 549
548 549 550
550 549 551
550 551 552
552 551 553
552 553 554
554 553 555
554 555 556
556 555 557
556 557 558
558 557 559
558 559 560
560 559 561
560 561 562
562 561 563
562 563 564
564 563 565
564 565 566
566 565 567
566 567 568
568 567 569
570 571 572
572 571 573
572 573 574
574 573 575
574 575 576
576 575 577
576 577 578
578 577 579
578 579 580
580 579 581
580 581 582
582 581 583
582 583 584
584 583 585
584 585 586
586 585 587
586 587 588
588 587 589
588 589 590
590 589 591
590 591 592
592 591 593
592 593 594
594 593 595
594 595 596
596 595 597
596 597 598
598 597 599
600 601 602
602 601 603
602 603 604
604 603 605
604 605 606
606 605 607
606 607 608
608 607 609
608 609 610
610 609 611
610 611 612
612 611 613
612 613 614
614 613 615
614 615 616
616 615 617
616 617 618
618 617 619
618 619 620
620 619 621
620 621 622
622 621 623
622 623 624
624 623 625
624 625 626
626 625 627
626 627 628
628 627 629
630 631 632
632 631 633
632 633 634
634 633 635
634 635 636
636 635 637
636 637 638
638 637 639
638 639 640
640 639 641
640 641 642
642 641 643
642 643 644
644 643 645
644 645 646
646 645 647
646 647 648
648 647 649
648 649 650
650 649 651
650 651 652
652 651 653
652 653 654
654 653 655
654 655 656
656 655 657
656 657 658
658 657 659
660 661 662
662 661 663
662 663 664
664 663 665
664 665 666
666 665 667
666 667 668
668 667 669
668 669 670
670 669 671
670 671 672
672 671 673
672 673 674
674 673 675
674 675 676
676 675 677
676 677 678
678 677 679
678 679 680
680 679 681
680 681 682
682 681 683
682 683 684
684 683 685
684 685 686
686 685 687
686 687 688
688 687 689
690 691 692
692 691 693
692 693 694
694 693 695
694 695 696
696 695 697
696 697 698
698 697 699
698 699 700
700 699 701
700 701 702
702 701 703
702 703 704
704 703 705
704 705 706
706 705 707
706 707 708
708 707 709
708 709 710
710 709 711
710 711 712
712 711 713
712 713 714
714 713 715
714 715 716
716 715 717
716 717 718
718 717 719
720 721 722
722 721 723
722 723 724
724 723 725
724 725 726
726 725 727
726 727 728
728 727 729
728 729 730
730 729 731
730 731 732
732 731 733
732 733 734
734 733 735
734 735 736
736 735 737
736 737 738
738 737 739
738 739 740
740 739 741
740 741 742
742 741 743
742 743 744
744 743 745
744 745 746
746 745 747
746 747 748
748 747 749
750 751 752
752 751 753
752 753 754
754 753 755
754 755 756
756 755 757
756 757 758
758 757 759
758 759 760
760 759 761
760 761 762
762 761 763
762 763 764
764 763 765
764 765 766
766 765 767
766 767 768
768 767 769
768 769 770
770 769 771
770 771 772
772 771 773
772 773 774
774 773 775
774 775 776
776 775 777
776 777 778
778 777 779
780 781 782
782 781 783
782 783 784
784 783 785
784 785 786
786 785 787
786 787 788
788 787 789
788 789 790
790 789 791
790 791 792
792 791 793
792 793 794
794 793 795
794 795 796
796 795 797
796 797 798
798 797 799
798 799 800
800 799 801
800 801 802
802 801 803
802 803 804
804 803 805
804 805 806
806 805 807
806 807 808
808 807 809
810 812 811
812 813 811
812 814 813
814 815 813
814 816 815
816 817 815
816 818 817
818 819 817
818 820 819
820 821 819
820 822 821
822 823 821
822 824 823
824 825 823
824 826 825
826 827 825
826 828 827
828 829 827
828 830 829
830 831 829
830 832 831
832 833 831
832 834 833
834 835 833
834 836 835
836 837 835
836 838 837
838 839 837
840 842 841
842 843 841
842 844 843
844 845 843
844 846 845
846 847 845
846 848 847
848 849 847
848 850 849
850 851 849
850 852 851
852 853 851
852 854 853
854 855 853
854 856 855
856 857 855
856 858 857
858 859 857
858 860 859
860 861 859
860 862 861
862 863 861
862 864 863
864 865 863
864 866 865
866 867 865
866 868 867
868 869 867
870 872 871
872 873 871
872 874 873
874 875 873
874 876 875
876 877 875
876 878 877
878 879 877
878 880 879
880 881 879
880 882 881
882 883 881
882 884 883
884 885 883
884 886 885
886 887 885
886 888 887
888 889 887
888 890 889
890 891 889
890 892 891
892 893 891
892 894 893
894 895 893
894 896 895
896 897 895
896 898 897
898 899 897
900 902 901
902 903 901
902 904 903
904 905 903
904 906 905
906 907 905
906 908 907
908 909 907
908 910 909
910 911 909
910 912 911
912 913 911
912 914 913
914 915 913
914 916 915
916 917 915
916 918 917
918 919 917
918 920 919
920 921 919
920 922 921
922 923 921
922 924 923
924 925 923
924 926 925
926 927 925
926 928 927
928 929 927
930 932 931
932 933 931
932 934 933
934 935 933
934 936 935
936 937 935
936 938 937
938 939 937
938 940 939
940 941 939
940 942 941
942 943 941
942 944 943
944 945 943
944 946 945
946 947 945
946 948 947
948 949 947
948 950 949
950 951 949
950 952 951
952 953 951
952 954 953
954 955 953
954 956 955
956 957 955
956 958 957
958 959 957
960 962 961
962 963 961
962 964 963
964 965 963
964 966 965
966 967 965
966 968 967
968 969 967
968 970 969
970 971 969
970 972 971
972 973 971
972 974 973
974 975 973
974 976 975
976 977 975
976 978 977
978 979 977
978 980 979
980 981 979
980 982 981
982 983 981
982 984 983
984 985 983
984 986 985
986 987 985
986 988 987
988 989 987
990 992 991
992 993 991
992 994 993
994 995 993
994 996 995
996 997 995
996 998 997
998 999 997
998 1000 999
1000 1001 999
1000 1002 1001
1002 1003 1001
1002 1004 1003
1004 1005 1003
1004 1006 1005
1006 1007 1005
1006 1008 1007
1008 1009 1007
1008 1010 1009
1010 1011 1009
1010 1012 1011
1012 1013 1011
1012 1014 1013
1014 1015 1013
1014 1016 1015
1016 1017 1015
1016 1018 1017
1018 1019 1017
1020 1022 1021
1022 1023 1021
1022 1024 1023
1024 1025 1023
1024 1026 1025
1026 1027 1025
1026 1028 1027
1028 1029 1027
1028 1030 1029
1030 1031 1029
1030 1032 1031
1032 1033 1031
1032 1034 1033
1034 1035 1033
1034 1036 1035
1036 1037 1035
1036 1038 1037
1038 1039 1037
1038 1040 1039
1040 1041 1039
1040 1042 1041
1042 1043 1041
1042 1044 1043
1044 1045 1043
1044 1046 1045
1046 1047 1045
1046 1048 1047
1048 1049 1047
1050 1052 1051
1052 1053 1051
1052 1054 1053
1054 1055 1053
1054 1056 1055
1056 1057 1055
1056 1058 1057
1058 1059 1057
1058 1060 1059
1060 1061 1059
1060 1062 1061
1062 1063 1061
1062 1064 1063
1064 1065 1063
1064 1066 1065
1066 1067 1065
1066 1068 1067
1068 1069 1067
1068 1070 1069
1070 1071 1069
1070 1072 1071
1072 1073 1071
1072 1074 1073
1074 1075 1073
1074 1076 1075
1076 1077 1075
1076 1078 1077
1078 1079 1077
MATERIALS 81
hull_lacquer
nose_iridium
crest_radiator
structure
boron_nitride
engine_metal
mechanism
dark
band
planetary_cup
rover
shuttle
trap_shell
canopy
br_vault
br_floor
br_panel
br_panel_face
br_tub
br_holo
br_screen
br_glow
br_display
br_green
br_red
br_amber
br_seat
br_cushion
br_bezel
br_rib
br_lamp
br_cove
br_vault_lit
br_floor_lit
br_belt
in_floor
in_wall
in_ceiling
in_light
in_furn
in_seat
in_metal
in_wet
in_screen
in_trim
in_green
in_amber
in_red
in_guide
in_btn_dim
in_wall_w
in_floor_w
in_ceil_w
in_metal_w
in_trim_w
in_guide_w
in_fx
in_downlight
in_cove
lift_glass
in_wip
in_btn_cap
in_cablight
in_glass
in_wall_r
in_floor_r
in_ceil_r
in_metal_r
in_dutyred
in_door
in_wall_d
in_floor_d
in_ceil_d
in_metal_d
br_malachite
br_cur_ball
br_cur_lit
br_spot
br_cover
br_glass_disp
br_hud_glass
MATERIAL hull_lacquer
0.620 0.640 0.680 1.00
0.620 0.640 0.680 1.00
0.300 0.300 0.320 1 20
0.000 0.000 0.000 1
MATERIAL nose_iridium
0.780 0.760 0.700 1.00
0.780 0.760 0.700 1.00
0.950 0.950 0.950 1 80
0.000 0.000 0.000 1
MATERIAL crest_radiator
0.460 0.260 0.180 1.00
0.460 0.260 0.180 1.00
0.150 0.150 0.150 1 10
0.000 0.000 0.000 1
MATERIAL structure
0.260 0.270 0.290 1.00
0.260 0.270 0.290 1.00
0.200 0.200 0.200 1 15
0.000 0.000 0.000 1
MATERIAL boron_nitride
0.620 0.580 0.920 1.00
0.620 0.580 0.920 1.00
0.600 0.600 0.700 1 40
0.080 0.060 0.200 1
MATERIAL engine_metal
0.400 0.400 0.420 1.00
0.400 0.400 0.420 1.00
0.500 0.500 0.500 1 40
0.000 0.000 0.000 1
MATERIAL mechanism
0.540 0.560 0.600 1.00
0.540 0.560 0.600 1.00
0.700 0.700 0.720 1 50
0.000 0.000 0.000 1
MATERIAL dark
0.070 0.070 0.090 1.00
0.070 0.070 0.090 1.00
0.050 0.050 0.050 1 5
0.000 0.000 0.000 1
MATERIAL band
0.280 0.360 0.500 1.00
0.280 0.360 0.500 1.00
0.500 0.550 0.650 1 40
0.000 0.000 0.000 1
MATERIAL planetary_cup
0.600 0.700 0.850 1.00
0.600 0.700 0.850 1.00
0.700 0.700 0.800 1 50
0.030 0.060 0.100 1
MATERIAL rover
0.550 0.480 0.320 1.00
0.550 0.480 0.320 1.00
0.300 0.300 0.300 1 20
0.000 0.000 0.000 1
MATERIAL shuttle
0.850 0.840 0.810 1.00
0.850 0.840 0.810 1.00
0.400 0.400 0.400 1 30
0.000 0.000 0.000 1
MATERIAL trap_shell
0.440 0.470 0.560 1.00
0.440 0.470 0.560 1.00
0.450 0.450 0.500 1 30
0.000 0.000 0.000 1
MATERIAL canopy
0.360 0.370 0.400 1.00
0.360 0.370 0.400 1.00
0.550 0.550 0.600 1 35
0.000 0.000 0.000 1
MATERIAL br_vault
0.150 0.160 0.180 1.00
0.150 0.160 0.180 1.00
0.060 0.060 0.070 1 8
0.026 0.030 0.038 1
MATERIAL br_floor
0.550 0.580 0.620 1.00
0.550 0.580 0.620 1.00
0.350 0.360 0.400 1 40
0.160 0.180 0.210 1
MATERIAL br_panel
0.170 0.180 0.200 1.00
0.170 0.180 0.200 1.00
0.200 0.210 0.240 1 20
0.028 0.032 0.040 1
MATERIAL br_panel_face
0.240 0.250 0.280 1.00
0.240 0.250 0.280 1.00
0.300 0.320 0.360 1 30
0.042 0.047 0.056 1
MATERIAL br_tub
0.300 0.310 0.340 1.00
0.300 0.310 0.340 1.00
0.250 0.260 0.300 1 25
0.050 0.055 0.066 1
MATERIAL br_holo
0.050 0.200 0.260 1.00
0.050 0.200 0.260 1.00
0.000 0.000 0.000 1 1
0.060 0.260 0.340 1
MATERIAL br_screen
0.020 0.030 0.060 1.00
0.020 0.030 0.060 1.00
0.300 0.300 0.400 1 40
0.030 0.050 0.100 1
MATERIAL br_glow
0.400 0.900 1.000 1.00
0.400 0.900 1.000 1.00
0.000 0.000 0.000 1 1
0.300 0.700 0.900 1
MATERIAL br_display
1.000 1.000 1.000 1.00
1.000 1.000 1.000 1.00
0.000 0.000 0.000 1 1
1.000 1.000 1.000 1
MATERIAL br_green
0.300 1.000 0.500 1.00
0.300 1.000 0.500 1.00
0.000 0.000 0.000 1 1
0.200 0.900 0.400 1
MATERIAL br_red
0.900 0.200 0.150 1.00
0.900 0.200 0.150 1.00
0.300 0.100 0.100 1 20
0.500 0.080 0.050 1
MATERIAL br_amber
1.000 0.800 0.300 1.00
1.000 0.800 0.300 1.00
0.000 0.000 0.000 1 1
0.700 0.500 0.100 1
MATERIAL br_seat
0.200 0.210 0.230 1.00
0.200 0.210 0.230 1.00
0.300 0.300 0.350 1 30
0.024 0.026 0.030 1
MATERIAL br_cushion
0.210 0.240 0.290 1.00
0.210 0.240 0.290 1.00
0.100 0.100 0.120 1 10
0.028 0.032 0.040 1
MATERIAL br_bezel
0.620 0.640 0.680 1.00
0.620 0.640 0.680 1.00
0.400 0.410 0.450 1 40
0.075 0.080 0.090 1
MATERIAL br_rib
0.220 0.230 0.260 1.00
0.220 0.230 0.260 1.00
0.300 0.310 0.350 1 30
0.034 0.038 0.046 1
MATERIAL br_lamp
0.800 0.880 1.000 1.00
0.800 0.880 1.000 1.00
0.000 0.000 0.000 1 1
0.620 0.700 0.800 1
MATERIAL br_cove
0.300 0.550 0.800 1.00
0.300 0.550 0.800 1.00
0.000 0.000 0.000 1 1
0.160 0.300 0.460 1
MATERIAL br_vault_lit
0.060 0.060 0.070 1.00
0.060 0.060 0.070 1.00
0.040 0.040 0.050 1 8
1.000 1.000 1.000 1
MATERIAL br_floor_lit
0.080 0.080 0.090 1.00
0.080 0.080 0.090 1.00
0.100 0.100 0.120 1 20
1.000 1.000 1.000 1
MATERIAL br_belt
0.880 0.560 0.160 1.00
0.880 0.560 0.160 1.00
0.100 0.100 0.100 1 10
0.000 0.000 0.000 1
MATERIAL in_floor
0.500 0.500 0.500 1.00
0.500 0.500 0.500 1.00
0.100 0.100 0.100 1 10
0.500 0.500 0.520 1
MATERIAL in_wall
0.450 0.450 0.450 1.00
0.450 0.450 0.450 1.00
0.050 0.050 0.050 1 5
0.600 0.600 0.620 1
MATERIAL in_ceiling
0.450 0.450 0.450 1.00
0.450 0.450 0.450 1.00
0.000 0.000 0.000 1 1
0.550 0.550 0.570 1
MATERIAL in_light
1.000 0.970 0.880 1.00
1.000 0.970 0.880 1.00
0.000 0.000 0.000 1 1
1.000 0.960 0.840 1
MATERIAL in_furn
0.300 0.310 0.340 1.00
0.300 0.310 0.340 1.00
0.100 0.100 0.100 1 10
0.150 0.150 0.170 1
MATERIAL in_seat
0.120 0.150 0.220 1.00
0.120 0.150 0.220 1.00
0.150 0.150 0.200 1 15
0.060 0.080 0.130 1
MATERIAL in_metal
0.500 0.500 0.500 1.00
0.500 0.500 0.500 1.00
0.500 0.500 0.500 1 30
0.550 0.550 0.580 1
MATERIAL in_wet
0.360 0.500 0.550 1.00
0.360 0.500 0.550 1.00
0.200 0.200 0.250 1 20
0.130 0.190 0.210 1
MATERIAL in_screen
0.040 0.080 0.160 1.00
0.040 0.080 0.160 1.00
0.300 0.300 0.400 1 40
0.100 0.280 0.500 1
MATERIAL in_trim
0.600 0.600 0.600 1.00
0.600 0.600 0.600 1.00
0.100 0.100 0.100 1 10
0.500 0.500 0.500 1
MATERIAL in_green
0.100 0.600 0.250 1.00
0.100 0.600 0.250 1.00
0.000 0.000 0.000 1 1
0.150 1.000 0.400 1
MATERIAL in_amber
0.700 0.450 0.050 1.00
0.700 0.450 0.050 1.00
0.000 0.000 0.000 1 1
1.000 0.620 0.080 1
MATERIAL in_red
0.700 0.100 0.080 1.00
0.700 0.100 0.080 1.00
0.000 0.000 0.000 1 1
1.000 0.150 0.100 1
MATERIAL in_guide
0.200 0.500 0.700 1.00
0.200 0.500 0.700 1.00
0.000 0.000 0.000 1 1
0.250 0.750 1.000 1
MATERIAL in_btn_dim
0.160 0.180 0.200 1.00
0.160 0.180 0.200 1.00
0.300 0.300 0.300 1 20
0.040 0.050 0.060 1
MATERIAL in_wall_w
0.500 0.500 0.510 1.00
0.500 0.500 0.510 1.00
0.080 0.080 0.090 1 12
0.065 0.065 0.075 1
MATERIAL in_floor_w
0.500 0.500 0.500 1.00
0.500 0.500 0.500 1.00
0.450 0.450 0.480 1 40
0.040 0.040 0.045 1
MATERIAL in_ceil_w
0.400 0.400 0.410 1.00
0.400 0.400 0.410 1.00
0.000 0.000 0.000 1 1
0.035 0.035 0.040 1
MATERIAL in_metal_w
0.450 0.450 0.470 1.00
0.450 0.450 0.470 1.00
0.400 0.400 0.420 1 30
0.070 0.070 0.080 1
MATERIAL in_trim_w
0.500 0.500 0.500 1.00
0.500 0.500 0.500 1.00
0.100 0.100 0.100 1 10
0.140 0.140 0.140 1
MATERIAL in_guide_w
0.250 0.420 0.420 1.00
0.250 0.420 0.420 1.00
0.000 0.000 0.000 1 1
0.160 0.360 0.380 1
MATERIAL in_fx
1.000 1.000 1.000 1.00
1.000 1.000 1.000 1.00
0.000 0.000 0.000 1 1
1.000 1.000 1.000 1
MATERIAL in_downlight
1.000 0.860 0.620 1.00
1.000 0.860 0.620 1.00
0.000 0.000 0.000 1 1
1.000 0.840 0.580 1
MATERIAL in_cove
0.300 0.400 0.620 1.00
0.300 0.400 0.620 1.00
0.000 0.000 0.000 1 1
0.260 0.360 0.580 1
MATERIAL lift_glass
0.450 0.600 0.700 0.22
0.450 0.600 0.700 0.22
0.800 0.800 0.850 1 60
0.020 0.030 0.040 1
MATERIAL in_wip
0.950 0.420 0.060 1.00
0.950 0.420 0.060 1.00
0.300 0.250 0.200 1 20
0.400 0.170 0.020 1
MATERIAL in_btn_cap
0.550 0.560 0.580 1.00
0.550 0.560 0.580 1.00
0.350 0.350 0.350 1 30
0.300 0.310 0.320 1
MATERIAL in_cablight
0.950 0.930 0.860 1.00
0.950 0.930 0.860 1.00
0.000 0.000 0.000 1 1
0.800 0.770 0.680 1
MATERIAL in_glass
1.000 1.000 1.000 1.00
1.000 1.000 1.000 1.00
0.900 0.900 0.900 1 60
0.120 0.130 0.150 1
MATERIAL in_wall_r
0.400 0.380 0.380 1.00
0.400 0.380 0.380 1.00
0.050 0.050 0.050 1 5
0.050 0.012 0.011 1
MATERIAL in_floor_r
0.400 0.380 0.380 1.00
0.400 0.380 0.380 1.00
0.200 0.200 0.200 1 30
0.032 0.007 0.007 1
MATERIAL in_ceil_r
0.350 0.330 0.330 1.00
0.350 0.330 0.330 1.00
0.000 0.000 0.000 1 1
0.028 0.006 0.006 1
MATERIAL in_metal_r
0.400 0.380 0.380 1.00
0.400 0.380 0.380 1.00
0.300 0.300 0.300 1 30
0.045 0.011 0.010 1
MATERIAL in_dutyred
0.600 0.080 0.050 1.00
0.600 0.080 0.050 1.00
0.000 0.000 0.000 1 1
0.550 0.050 0.030 1
MATERIAL in_door
0.550 0.550 0.560 1.00
0.550 0.550 0.560 1.00
0.250 0.250 0.270 1 25
0.075 0.075 0.080 1
MATERIAL in_wall_d
0.080 0.080 0.085 1.00
0.080 0.080 0.085 1.00
0.020 0.020 0.020 1 5
0.018 0.018 0.020 1
MATERIAL in_floor_d
0.080 0.080 0.080 1.00
0.080 0.080 0.080 1.00
0.050 0.050 0.050 1 10
0.012 0.012 0.013 1
MATERIAL in_ceil_d
0.070 0.070 0.075 1.00
0.070 0.070 0.075 1.00
0.000 0.000 0.000 1 1
0.010 0.010 0.011 1
MATERIAL in_metal_d
0.080 0.080 0.085 1.00
0.080 0.080 0.085 1.00
0.050 0.050 0.050 1 10
0.016 0.016 0.018 1
MATERIAL br_malachite
0.160 0.380 0.310 1.00
0.160 0.380 0.310 1.00
0.400 0.480 0.450 1 35
0.020 0.048 0.040 1
MATERIAL br_cur_ball
0.620 0.860 0.950 0.72
0.620 0.860 0.950 0.72
0.900 0.900 0.900 1 60
0.100 0.260 0.320 1
MATERIAL br_cur_lit
0.780 0.950 1.000 1.00
0.780 0.950 1.000 1.00
0.000 0.000 0.000 1 1
0.780 0.950 1.000 1
MATERIAL br_spot
1.000 0.550 0.120 0.80
1.000 0.550 0.120 0.80
0.000 0.000 0.000 1 1
1.000 0.550 0.120 1
MATERIAL br_cover
1.000 0.350 0.290 0.50
1.000 0.350 0.290 0.50
0.600 0.600 0.600 1 40
0.200 0.040 0.030 1
MATERIAL br_glass_disp
1.000 1.000 1.000 1.00
1.000 1.000 1.000 1.00
0.000 0.000 0.000 1 1
1.000 1.000 1.000 1
MATERIAL br_hud_glass
1.000 1.000 1.000 1.00
1.000 1.000 1.000 1.00
0.000 0.000 0.000 1 1
1.000 1.000 1.000 1
TEXTURES 0
