MSHX1
GROUPS 17
LABEL shin_port_0
MATERIAL 9
TEXTURE 0
GEOM 24 12 ;shin_port_0
-1.000 40.400 -3.100 -1.0000 -0.0000 -0.0000
-1.000 47.800 -3.100 -1.0000 -0.0000 -0.0000
-1.000 47.800 3.100 -1.0000 -0.0000 -0.0000
-1.000 40.400 3.100 -1.0000 -0.0000 -0.0000
1.000 40.400 -3.100 1.0000 0.0000 0.0000
1.000 47.800 -3.100 1.0000 0.0000 0.0000
1.000 47.800 3.100 1.0000 0.0000 0.0000
1.000 40.400 3.100 1.0000 0.0000 0.0000
-1.000 40.400 -3.100 -0.0000 -1.0000 -0.0000
1.000 40.400 -3.100 -0.0000 -1.0000 -0.0000
1.000 40.400 3.100 -0.0000 -1.0000 -0.0000
-1.000 40.400 3.100 -0.0000 -1.0000 -0.0000
-1.000 47.800 -3.100 0.0000 1.0000 0.0000
1.000 47.800 -3.100 0.0000 1.0000 0.0000
1.000 47.800 3.100 0.0000 1.0000 0.0000
-1.000 47.800 3.100 0.0000 1.0000 0.0000
-1.000 40.400 -3.100 -0.0000 -0.0000 -1.0000
1.000 40.400 -3.100 -0.0000 -0.0000 -1.0000
1.000 47.800 -3.100 -0.0000 -0.0000 -1.0000
-1.000 47.800 -3.100 -0.0000 -0.0000 -1.0000
-1.000 40.400 3.100 0.0000 0.0000 1.0000
1.000 40.400 3.100 0.0000 0.0000 1.0000
1.000 47.800 3.100 0.0000 0.0000 1.0000
-1.000 47.800 3.100 0.0000 0.0000 1.0000
0 2 1
0 3 2
4 5 6
4 6 7
8 9 10
8 10 11
12 14 13
12 15 14
16 18 17
16 19 18
20 21 22
20 22 23
LABEL shin_port_1
MATERIAL 9
TEXTURE 0
GEOM 24 12 ;shin_port_1
-0.988 33.300 -3.063 -1.0000 -0.0000 -0.0000
-0.988 40.700 -3.063 -1.0000 -0.0000 -0.0000
-0.988 40.700 3.063 -1.0000 -0.0000 -0.0000
-0.988 33.300 3.063 -1.0000 -0.0000 -0.0000
0.988 33.300 -3.063 1.0000 0.0000 0.0000
0.988 40.700 -3.063 1.0000 0.0000 0.0000
0.988 40.700 3.063 1.0000 0.0000 0.0000
0.988 33.300 3.063 1.0000 0.0000 0.0000
-0.988 33.300 -3.063 -0.0000 -1.0000 -0.0000
0.988 33.300 -3.063 -0.0000 -1.0000 -0.0000
0.988 33.300 3.063 -0.0000 -1.0000 -0.0000
-0.988 33.300 3.063 -0.0000 -1.0000 -0.0000
-0.988 40.700 -3.063 0.0000 1.0000 0.0000
0.988 40.700 -3.063 0.0000 1.0000 0.0000
0.988 40.700 3.063 0.0000 1.0000 0.0000
-0.988 40.700 3.063 0.0000 1.0000 0.0000
-0.988 33.300 -3.063 -0.0000 -0.0000 -1.0000
0.988 33.300 -3.063 -0.0000 -0.0000 -1.0000
0.988 40.700 -3.063 -0.0000 -0.0000 -1.0000
-0.988 40.700 -3.063 -0.0000 -0.0000 -1.0000
-0.988 33.300 3.063 0.0000 0.0000 1.0000
0.988 33.300 3.063 0.0000 0.0000 1.0000
0.988 40.700 3.063 0.0000 0.0000 1.0000
-0.988 40.700 3.063 0.0000 0.0000 1.0000
0 2 1
0 3 2
4 5 6
4 6 7
8 9 10
8 10 11
12 14 13
12 15 14
16 18 17
16 19 18
20 21 22
20 22 23
LABEL shin_port_2
MATERIAL 9
TEXTURE 0
GEOM 24 12 ;shin_port_2
-0.976 26.200 -3.026 -1.0000 -0.0000 -0.0000
-0.976 33.600 -3.026 -1.0000 -0.0000 -0.0000
-0.976 33.600 3.026 -1.0000 -0.0000 -0.0000
-0.976 26.200 3.026 -1.0000 -0.0000 -0.0000
0.976 26.200 -3.026 1.0000 0.0000 0.0000
0.976 33.600 -3.026 1.0000 0.0000 0.0000
0.976 33.600 3.026 1.0000 0.0000 0.0000
0.976 26.200 3.026 1.0000 0.0000 0.0000
-0.976 26.200 -3.026 -0.0000 -1.0000 -0.0000
0.976 26.200 -3.026 -0.0000 -1.0000 -0.0000
0.976 26.200 3.026 -0.0000 -1.0000 -0.0000
-0.976 26.200 3.026 -0.0000 -1.0000 -0.0000
-0.976 33.600 -3.026 0.0000 1.0000 0.0000
0.976 33.600 -3.026 0.0000 1.0000 0.0000
0.976 33.600 3.026 0.0000 1.0000 0.0000
-0.976 33.600 3.026 0.0000 1.0000 0.0000
-0.976 26.200 -3.026 -0.0000 -0.0000 -1.0000
0.976 26.200 -3.026 -0.0000 -0.0000 -1.0000
0.976 33.600 -3.026 -0.0000 -0.0000 -1.0000
-0.976 33.600 -3.026 -0.0000 -0.0000 -1.0000
-0.976 26.200 3.026 0.0000 0.0000 1.0000
0.976 26.200 3.026 0.0000 0.0000 1.0000
0.976 33.600 3.026 0.0000 0.0000 1.0000
-0.976 33.600 3.026 0.0000 0.0000 1.0000
0 2 1
0 3 2
4 5 6
4 6 7
8 9 10
8 10 11
12 14 13
12 15 14
16 18 17
16 19 18
20 21 22
20 22 23
LABEL shin_port_3
MATERIAL 9
TEXTURE 0
GEOM 24 12 ;shin_port_3
-0.964 19.100 -2.988 -1.0000 -0.0000 -0.0000
-0.964 26.500 -2.988 -1.0000 -0.0000 -0.0000
-0.964 26.500 2.988 -1.0000 -0.0000 -0.0000
-0.964 19.100 2.988 -1.0000 -0.0000 -0.0000
0.964 19.100 -2.988 1.0000 0.0000 0.0000
0.964 26.500 -2.988 1.0000 0.0000 0.0000
0.964 26.500 2.988 1.0000 0.0000 0.0000
0.964 19.100 2.988 1.0000 0.0000 0.0000
-0.964 19.100 -2.988 -0.0000 -1.0000 -0.0000
0.964 19.100 -2.988 -0.0000 -1.0000 -0.0000
0.964 19.100 2.988 -0.0000 -1.0000 -0.0000
-0.964 19.100 2.988 -0.0000 -1.0000 -0.0000
-0.964 26.500 -2.988 0.0000 1.0000 0.0000
0.964 26.500 -2.988 0.0000 1.0000 0.0000
0.964 26.500 2.988 0.0000 1.0000 0.0000
-0.964 26.500 2.988 0.0000 1.0000 0.0000
-0.964 19.100 -2.988 -0.0000 -0.0000 -1.0000
0.964 19.100 -2.988 -0.0000 -0.0000 -1.0000
0.964 26.500 -2.988 -0.0000 -0.0000 -1.0000
-0.964 26.500 -2.988 -0.0000 -0.0000 -1.0000
-0.964 19.100 2.988 0.0000 0.0000 1.0000
0.964 19.100 2.988 0.0000 0.0000 1.0000
0.964 26.500 2.988 0.0000 0.0000 1.0000
-0.964 26.500 2.988 0.0000 0.0000 1.0000
0 2 1
0 3 2
4 5 6
4 6 7
8 9 10
8 10 11
12 14 13
12 15 14
16 18 17
16 19 18
20 21 22
20 22 23
LABEL shin_port_4
MATERIAL 9
TEXTURE 0
GEOM 24 12 ;shin_port_4
-0.952 12.000 -2.951 -1.0000 -0.0000 -0.0000
-0.952 19.400 -2.951 -1.0000 -0.0000 -0.0000
-0.952 19.400 2.951 -1.0000 -0.0000 -0.0000
-0.952 12.000 2.951 -1.0000 -0.0000 -0.0000
0.952 12.000 -2.951 1.0000 0.0000 0.0000
0.952 19.400 -2.951 1.0000 0.0000 0.0000
0.952 19.400 2.951 1.0000 0.0000 0.0000
0.952 12.000 2.951 1.0000 0.0000 0.0000
-0.952 12.000 -2.951 -0.0000 -1.0000 -0.0000
0.952 12.000 -2.951 -0.0000 -1.0000 -0.0000
0.952 12.000 2.951 -0.0000 -1.0000 -0.0000
-0.952 12.000 2.951 -0.0000 -1.0000 -0.0000
-0.952 19.400 -2.951 0.0000 1.0000 0.0000
0.952 19.400 -2.951 0.0000 1.0000 0.0000
0.952 19.400 2.951 0.0000 1.0000 0.0000
-0.952 19.400 2.951 0.0000 1.0000 0.0000
-0.952 12.000 -2.951 -0.0000 -0.0000 -1.0000
0.952 12.000 -2.951 -0.0000 -0.0000 -1.0000
0.952 19.400 -2.951 -0.0000 -0.0000 -1.0000
-0.952 19.400 -2.951 -0.0000 -0.0000 -1.0000
-0.952 12.000 2.951 0.0000 0.0000 1.0000
0.952 12.000 2.951 0.0000 0.0000 1.0000
0.952 19.400 2.951 0.0000 0.0000 1.0000
-0.952 19.400 2.951 0.0000 0.0000 1.0000
0 2 1
0 3 2
4 5 6
4 6 7
8 9 10
8 10 11
12 14 13
12 15 14
16 18 17
16 19 18
20 21 22
20 22 23
LABEL shin_port_5
MATERIAL 9
TEXTURE 0
GEOM 24 12 ;shin_port_5
-0.940 4.900 -2.914 -1.0000 -0.0000 -0.0000
-0.940 12.300 -2.914 -1.0000 -0.0000 -0.0000
-0.940 12.300 2.914 -1.0000 -0.0000 -0.0000
-0.940 4.900 2.914 -1.0000 -0.0000 -0.0000
0.940 4.900 -2.914 1.0000 0.0000 0.0000
0.940 12.300 -2.914 1.0000 0.0000 0.0000
0.940 12.300 2.914 1.0000 0.0000 0.0000
0.940 4.900 2.914 1.0000 0.0000 0.0000
-0.940 4.900 -2.914 -0.0000 -1.0000 -0.0000
0.940 4.900 -2.914 -0.0000 -1.0000 -0.0000
0.940 4.900 2.914 -0.0000 -1.0000 -0.0000
-0.940 4.900 2.914 -0.0000 -1.0000 -0.0000
-0.940 12.300 -2.914 0.0000 1.0000 0.0000
0.940 12.300 -2.914 0.0000 1.0000 0.0000
0.940 12.300 2.914 0.0000 1.0000 0.0000
-0.940 12.300 2.914 0.0000 1.0000 0.0000
-0.940 4.900 -2.914 -0.0000 -0.0000 -1.0000
0.940 4.900 -2.914 -0.0000 -0.0000 -1.0000
0.940 12.300 -2.914 -0.0000 -0.0000 -1.0000
-0.940 12.300 -2.914 -0.0000 -0.0000 -1.0000
-0.940 4.900 2.914 0.0000 0.0000 1.0000
0.940 4.900 2.914 0.0000 0.0000 1.0000
0.940 12.300 2.914 0.0000 0.0000 1.0000
-0.940 12.300 2.914 0.0000 0.0000 1.0000
0 2 1
0 3 2
4 5 6
4 6 7
8 9 10
8 10 11
12 14 13
12 15 14
16 18 17
16 19 18
20 21 22
20 22 23
LABEL shin_port_6
MATERIAL 9
TEXTURE 0
GEOM 24 12 ;shin_port_6
-0.928 -2.200 -2.877 -1.0000 -0.0000 -0.0000
-0.928 5.200 -2.877 -1.0000 -0.0000 -0.0000
-0.928 5.200 2.877 -1.0000 -0.0000 -0.0000
-0.928 -2.200 2.877 -1.0000 -0.0000 -0.0000
0.928 -2.200 -2.877 1.0000 0.0000 0.0000
0.928 5.200 -2.877 1.0000 0.0000 0.0000
0.928 5.200 2.877 1.0000 0.0000 0.0000
0.928 -2.200 2.877 1.0000 0.0000 0.0000
-0.928 -2.200 -2.877 -0.0000 -1.0000 -0.0000
0.928 -2.200 -2.877 -0.0000 -1.0000 -0.0000
0.928 -2.200 2.877 -0.0000 -1.0000 -0.0000
-0.928 -2.200 2.877 -0.0000 -1.0000 -0.0000
-0.928 5.200 -2.877 0.0000 1.0000 0.0000
0.928 5.200 -2.877 0.0000 1.0000 0.0000
0.928 5.200 2.877 0.0000 1.0000 0.0000
-0.928 5.200 2.877 0.0000 1.0000 0.0000
-0.928 -2.200 -2.877 -0.0000 -0.0000 -1.0000
0.928 -2.200 -2.877 -0.0000 -0.0000 -1.0000
0.928 5.200 -2.877 -0.0000 -0.0000 -1.0000
-0.928 5.200 -2.877 -0.0000 -0.0000 -1.0000
-0.928 -2.200 2.877 0.0000 0.0000 1.0000
0.928 -2.200 2.877 0.0000 0.0000 1.0000
0.928 5.200 2.877 0.0000 0.0000 1.0000
-0.928 5.200 2.877 0.0000 0.0000 1.0000
0 2 1
0 3 2
4 5 6
4 6 7
8 9 10
8 10 11
12 14 13
12 15 14
16 18 17
16 19 18
20 21 22
20 22 23
LABEL shin_port_7
MATERIAL 9
TEXTURE 0
GEOM 24 12 ;shin_port_7
-0.916 -9.300 -2.840 -1.0000 -0.0000 -0.0000
-0.916 -1.900 -2.840 -1.0000 -0.0000 -0.0000
-0.916 -1.900 2.840 -1.0000 -0.0000 -0.0000
-0.916 -9.300 2.840 -1.0000 -0.0000 -0.0000
0.916 -9.300 -2.840 1.0000 0.0000 0.0000
0.916 -1.900 -2.840 1.0000 0.0000 0.0000
0.916 -1.900 2.840 1.0000 0.0000 0.0000
0.916 -9.300 2.840 1.0000 0.0000 0.0000
-0.916 -9.300 -2.840 -0.0000 -1.0000 -0.0000
0.916 -9.300 -2.840 -0.0000 -1.0000 -0.0000
0.916 -9.300 2.840 -0.0000 -1.0000 -0.0000
-0.916 -9.300 2.840 -0.0000 -1.0000 -0.0000
-0.916 -1.900 -2.840 0.0000 1.0000 0.0000
0.916 -1.900 -2.840 0.0000 1.0000 0.0000
0.916 -1.900 2.840 0.0000 1.0000 0.0000
-0.916 -1.900 2.840 0.0000 1.0000 0.0000
-0.916 -9.300 -2.840 -0.0000 -0.0000 -1.0000
0.916 -9.300 -2.840 -0.0000 -0.0000 -1.0000
0.916 -1.900 -2.840 -0.0000 -0.0000 -1.0000
-0.916 -1.900 -2.840 -0.0000 -0.0000 -1.0000
-0.916 -9.300 2.840 0.0000 0.0000 1.0000
0.916 -9.300 2.840 0.0000 0.0000 1.0000
0.916 -1.900 2.840 0.0000 0.0000 1.0000
-0.916 -1.900 2.840 0.0000 0.0000 1.0000
0 2 1
0 3 2
4 5 6
4 6 7
8 9 10
8 10 11
12 14 13
12 15 14
16 18 17
16 19 18
20 21 22
20 22 23
LABEL shin_port_8
MATERIAL 9
TEXTURE 0
GEOM 24 12 ;shin_port_8
-0.904 -16.400 -2.802 -1.0000 -0.0000 -0.0000
-0.904 -9.000 -2.802 -1.0000 -0.0000 -0.0000
-0.904 -9.000 2.802 -1.0000 -0.0000 -0.0000
-0.904 -16.400 2.802 -1.0000 -0.0000 -0.0000
0.904 -16.400 -2.802 1.0000 0.0000 0.0000
0.904 -9.000 -2.802 1.0000 0.0000 0.0000
0.904 -9.000 2.802 1.0000 0.0000 0.0000
0.904 -16.400 2.802 1.0000 0.0000 0.0000
-0.904 -16.400 -2.802 -0.0000 -1.0000 -0.0000
0.904 -16.400 -2.802 -0.0000 -1.0000 -0.0000
0.904 -16.400 2.802 -0.0000 -1.0000 -0.0000
-0.904 -16.400 2.802 -0.0000 -1.0000 -0.0000
-0.904 -9.000 -2.802 0.0000 1.0000 0.0000
0.904 -9.000 -2.802 0.0000 1.0000 0.0000
0.904 -9.000 2.802 0.0000 1.0000 0.0000
-0.904 -9.000 2.802 0.0000 1.0000 0.0000
-0.904 -16.400 -2.802 -0.0000 -0.0000 -1.0000
0.904 -16.400 -2.802 -0.0000 -0.0000 -1.0000
0.904 -9.000 -2.802 -0.0000 -0.0000 -1.0000
-0.904 -9.000 -2.802 -0.0000 -0.0000 -1.0000
-0.904 -16.400 2.802 0.0000 0.0000 1.0000
0.904 -16.400 2.802 0.0000 0.0000 1.0000
0.904 -9.000 2.802 0.0000 0.0000 1.0000
-0.904 -9.000 2.802 0.0000 0.0000 1.0000
0 2 1
0 3 2
4 5 6
4 6 7
8 9 10
8 10 11
12 14 13
12 15 14
16 18 17
16 19 18
20 21 22
20 22 23
LABEL shin_port_9
MATERIAL 9
TEXTURE 0
GEOM 24 12 ;shin_port_9
-0.892 -23.500 -2.765 -1.0000 -0.0000 -0.0000
-0.892 -16.100 -2.765 -1.0000 -0.0000 -0.0000
-0.892 -16.100 2.765 -1.0000 -0.0000 -0.0000
-0.892 -23.500 2.765 -1.0000 -0.0000 -0.0000
0.892 -23.500 -2.765 1.0000 0.0000 0.0000
0.892 -16.100 -2.765 1.0000 0.0000 0.0000
0.892 -16.100 2.765 1.0000 0.0000 0.0000
0.892 -23.500 2.765 1.0000 0.0000 0.0000
-0.892 -23.500 -2.765 -0.0000 -1.0000 -0.0000
0.892 -23.500 -2.765 -0.0000 -1.0000 -0.0000
0.892 -23.500 2.765 -0.0000 -1.0000 -0.0000
-0.892 -23.500 2.765 -0.0000 -1.0000 -0.0000
-0.892 -16.100 -2.765 0.0000 1.0000 0.0000
0.892 -16.100 -2.765 0.0000 1.0000 0.0000
0.892 -16.100 2.765 0.0000 1.0000 0.0000
-0.892 -16.100 2.765 0.0000 1.0000 0.0000
-0.892 -23.500 -2.765 -0.0000 -0.0000 -1.0000
0.892 -23.500 -2.765 -0.0000 -0.0000 -1.0000
0.892 -16.100 -2.765 -0.0000 -0.0000 -1.0000
-0.892 -16.100 -2.765 -0.0000 -0.0000 -1.0000
-0.892 -23.500 2.765 0.0000 0.0000 1.0000
0.892 -23.500 2.765 0.0000 0.0000 1.0000
0.892 -16.100 2.765 0.0000 0.0000 1.0000
-0.892 -16.100 2.765 0.0000 0.0000 1.0000
0 2 1
0 3 2
4 5 6
4 6 7
8 9 10
8 10 11
12 14 13
12 15 14
16 18 17
16 19 18
20 21 22
20 22 23
LABEL shin_port_10
MATERIAL 9
TEXTURE 0
GEOM 24 12 ;shin_port_10
-0.880 -30.600 -2.728 -1.0000 -0.0000 -0.0000
-0.880 -23.200 -2.728 -1.0000 -0.0000 -0.0000
-0.880 -23.200 2.728 -1.0000 -0.0000 -0.0000
-0.880 -30.600 2.728 -1.0000 -0.0000 -0.0000
0.880 -30.600 -2.728 1.0000 0.0000 0.0000
0.880 -23.200 -2.728 1.0000 0.0000 0.0000
0.880 -23.200 2.728 1.0000 0.0000 0.0000
0.880 -30.600 2.728 1.0000 0.0000 0.0000
-0.880 -30.600 -2.728 -0.0000 -1.0000 -0.0000
0.880 -30.600 -2.728 -0.0000 -1.0000 -0.0000
0.880 -30.600 2.728 -0.0000 -1.0000 -0.0000
-0.880 -30.600 2.728 -0.0000 -1.0000 -0.0000
-0.880 -23.200 -2.728 0.0000 1.0000 0.0000
0.880 -23.200 -2.728 0.0000 1.0000 0.0000
0.880 -23.200 2.728 0.0000 1.0000 0.0000
-0.880 -23.200 2.728 0.0000 1.0000 0.0000
-0.880 -30.600 -2.728 -0.0000 -0.0000 -1.0000
0.880 -30.600 -2.728 -0.0000 -0.0000 -1.0000
0.880 -23.200 -2.728 -0.0000 -0.0000 -1.0000
-0.880 -23.200 -2.728 -0.0000 -0.0000 -1.0000
-0.880 -30.600 2.728 0.0000 0.0000 1.0000
0.880 -30.600 2.728 0.0000 0.0000 1.0000
0.880 -23.200 2.728 0.0000 0.0000 1.0000
-0.880 -23.200 2.728 0.0000 0.0000 1.0000
0 2 1
0 3 2
4 5 6
4 6 7
8 9 10
8 10 11
12 14 13
12 15 14
16 18 17
16 19 18
20 21 22
20 22 23
LABEL shin_port_11
MATERIAL 9
TEXTURE 0
GEOM 24 12 ;shin_port_11
-0.868 -37.700 -2.691 -1.0000 -0.0000 -0.0000
-0.868 -30.300 -2.691 -1.0000 -0.0000 -0.0000
-0.868 -30.300 2.691 -1.0000 -0.0000 -0.0000
-0.868 -37.700 2.691 -1.0000 -0.0000 -0.0000
0.868 -37.700 -2.691 1.0000 0.0000 0.0000
0.868 -30.300 -2.691 1.0000 0.0000 0.0000
0.868 -30.300 2.691 1.0000 0.0000 0.0000
0.868 -37.700 2.691 1.0000 0.0000 0.0000
-0.868 -37.700 -2.691 -0.0000 -1.0000 -0.0000
0.868 -37.700 -2.691 -0.0000 -1.0000 -0.0000
0.868 -37.700 2.691 -0.0000 -1.0000 -0.0000
-0.868 -37.700 2.691 -0.0000 -1.0000 -0.0000
-0.868 -30.300 -2.691 0.0000 1.0000 0.0000
0.868 -30.300 -2.691 0.0000 1.0000 0.0000
0.868 -30.300 2.691 0.0000 1.0000 0.0000
-0.868 -30.300 2.691 0.0000 1.0000 0.0000
-0.868 -37.700 -2.691 -0.0000 -0.0000 -1.0000
0.868 -37.700 -2.691 -0.0000 -0.0000 -1.0000
0.868 -30.300 -2.691 -0.0000 -0.0000 -1.0000
-0.868 -30.300 -2.691 -0.0000 -0.0000 -1.0000
-0.868 -37.700 2.691 0.0000 0.0000 1.0000
0.868 -37.700 2.691 0.0000 0.0000 1.0000
0.868 -30.300 2.691 0.0000 0.0000 1.0000
-0.868 -30.300 2.691 0.0000 0.0000 1.0000
0 2 1
0 3 2
4 5 6
4 6 7
8 9 10
8 10 11
12 14 13
12 15 14
16 18 17
16 19 18
20 21 22
20 22 23
LABEL shin_port_12
MATERIAL 9
TEXTURE 0
GEOM 24 12 ;shin_port_12
-0.856 -44.800 -2.654 -1.0000 -0.0000 -0.0000
-0.856 -37.400 -2.654 -1.0000 -0.0000 -0.0000
-0.856 -37.400 2.654 -1.0000 -0.0000 -0.0000
-0.856 -44.800 2.654 -1.0000 -0.0000 -0.0000
0.856 -44.800 -2.654 1.0000 0.0000 0.0000
0.856 -37.400 -2.654 1.0000 0.0000 0.0000
0.856 -37.400 2.654 1.0000 0.0000 0.0000
0.856 -44.800 2.654 1.0000 0.0000 0.0000
-0.856 -44.800 -2.654 -0.0000 -1.0000 -0.0000
0.856 -44.800 -2.654 -0.0000 -1.0000 -0.0000
0.856 -44.800 2.654 -0.0000 -1.0000 -0.0000
-0.856 -44.800 2.654 -0.0000 -1.0000 -0.0000
-0.856 -37.400 -2.654 0.0000 1.0000 0.0000
0.856 -37.400 -2.654 0.0000 1.0000 0.0000
0.856 -37.400 2.654 0.0000 1.0000 0.0000
-0.856 -37.400 2.654 0.0000 1.0000 0.0000
-0.856 -44.800 -2.654 -0.0000 -0.0000 -1.0000
0.856 -44.800 -2.654 -0.0000 -0.0000 -1.0000
0.856 -37.400 -2.654 -0.0000 -0.0000 -1.0000
-0.856 -37.400 -2.654 -0.0000 -0.0000 -1.0000
-0.856 -44.800 2.654 0.0000 0.0000 1.0000
0.856 -44.800 2.654 0.0000 0.0000 1.0000
0.856 -37.400 2.654 0.0000 0.0000 1.0000
-0.856 -37.400 2.654 0.0000 0.0000 1.0000
0 2 1
0 3 2
4 5 6
4 6 7
8 9 10
8 10 11
12 14 13
12 15 14
16 18 17
16 19 18
20 21 22
20 22 23
LABEL ankle_port
MATERIAL 7
TEXTURE 0
GEOM 150 144 ;ankle_port
-0.800 -45.600 -0.900 -1.0000 0.0000 0.0000
-0.693 -46.000 -0.900 -0.8660 -0.5000 0.0000
-0.400 -46.293 -0.900 -0.5000 -0.8660 0.0000
0.000 -46.400 -0.900 -0.0000 -1.0000 0.0000
0.400 -46.293 -0.900 0.5000 -0.8660 0.0000
0.693 -46.000 -0.900 0.8660 -0.5000 0.0000
0.800 -45.600 -0.900 1.0000 -0.0000 0.0000
0.693 -45.200 -0.900 0.8660 0.5000 -0.0000
0.400 -44.907 -0.900 0.5000 0.8660 -0.0000
0.000 -44.800 -0.900 0.0000 1.0000 -0.0000
-0.400 -44.907 -0.900 -0.5000 0.8660 0.0000
-0.693 -45.200 -0.900 -0.8660 0.5000 0.0000
-0.800 -45.600 0.900 -1.0000 0.0000 0.0000
-0.693 -46.000 0.900 -0.8660 -0.5000 0.0000
-0.400 -46.293 0.900 -0.5000 -0.8660 0.0000
0.000 -46.400 0.900 -0.0000 -1.0000 0.0000
0.400 -46.293 0.900 0.5000 -0.8660 0.0000
0.693 -46.000 0.900 0.8660 -0.5000 0.0000
0.800 -45.600 0.900 1.0000 -0.0000 0.0000
0.693 -45.200 0.900 0.8660 0.5000 -0.0000
0.400 -44.907 0.900 0.5000 0.8660 -0.0000
0.000 -44.800 0.900 0.0000 1.0000 -0.0000
-0.400 -44.907 0.900 -0.5000 0.8660 0.0000
-0.693 -45.200 0.900 -0.8660 0.5000 0.0000
0.000 -45.600 -0.900 -0.0000 -0.0000 -1.0000
-0.800 -45.600 -0.900 -0.0000 -0.0000 -1.0000
-0.693 -46.000 -0.900 -0.0000 -0.0000 -1.0000
-0.400 -46.293 -0.900 -0.0000 -0.0000 -1.0000
0.000 -46.400 -0.900 -0.0000 -0.0000 -1.0000
0.400 -46.293 -0.900 -0.0000 -0.0000 -1.0000
0.693 -46.000 -0.900 -0.0000 -0.0000 -1.0000
0.800 -45.600 -0.900 -0.0000 -0.0000 -1.0000
0.693 -45.200 -0.900 -0.0000 -0.0000 -1.0000
0.400 -44.907 -0.900 -0.0000 -0.0000 -1.0000
0.000 -44.800 -0.900 -0.0000 -0.0000 -1.0000
-0.400 -44.907 -0.900 -0.0000 -0.0000 -1.0000
-0.693 -45.200 -0.900 -0.0000 -0.0000 -1.0000
0.000 -45.600 0.900 0.0000 0.0000 1.0000
-0.800 -45.600 0.900 0.0000 0.0000 1.0000
-0.693 -46.000 0.900 0.0000 0.0000 1.0000
-0.400 -46.293 0.900 0.0000 0.0000 1.0000
0.000 -46.400 0.900 0.0000 0.0000 1.0000
0.400 -46.293 0.900 0.0000 0.0000 1.0000
0.693 -46.000 0.900 0.0000 0.0000 1.0000
0.800 -45.600 0.900 0.0000 0.0000 1.0000
0.693 -45.200 0.900 0.0000 0.0000 1.0000
0.400 -44.907 0.900 0.0000 0.0000 1.0000
0.000 -44.800 0.900 0.0000 0.0000 1.0000
-0.400 -44.907 0.900 0.0000 0.0000 1.0000
-0.693 -45.200 0.900 0.0000 0.0000 1.0000
-0.800 -45.600 0.640 0.0000 0.0000 1.0000
-0.800 -45.920 0.554 0.0000 -0.5000 0.8660
-0.800 -46.154 0.320 0.0000 -0.8660 0.5000
-0.800 -46.240 0.000 0.0000 -1.0000 0.0000
-0.800 -46.154 -0.320 0.0000 -0.8660 -0.5000
-0.800 -45.920 -0.554 0.0000 -0.5000 -0.8660
-0.800 -45.600 -0.640 0.0000 -0.0000 -1.0000
-0.800 -45.280 -0.554 -0.0000 0.5000 -0.8660
-0.800 -45.046 -0.320 -0.0000 0.8660 -0.5000
-0.800 -44.960 0.000 -0.0000 1.0000 -0.0000
-0.800 -45.046 0.320 0.0000 0.8660 0.5000
-0.800 -45.280 0.554 0.0000 0.5000 0.8660
0.800 -45.600 0.640 0.0000 0.0000 1.0000
0.800 -45.920 0.554 0.0000 -0.5000 0.8660
0.800 -46.154 0.320 0.0000 -0.8660 0.5000
0.800 -46.240 0.000 0.0000 -1.0000 0.0000
0.800 -46.154 -0.320 0.0000 -0.8660 -0.5000
0.800 -45.920 -0.554 0.0000 -0.5000 -0.8660
0.800 -45.600 -0.640 0.0000 -0.0000 -1.0000
0.800 -45.280 -0.554 -0.0000 0.5000 -0.8660
0.800 -45.046 -0.320 -0.0000 0.8660 -0.5000
0.800 -44.960 0.000 -0.0000 1.0000 -0.0000
0.800 -45.046 0.320 0.0000 0.8660 0.5000
0.800 -45.280 0.554 0.0000 0.5000 0.8660
-0.800 -45.600 0.000 -1.0000 -0.0000 -0.0000
-0.800 -45.600 0.640 -1.0000 -0.0000 -0.0000
-0.800 -45.920 0.554 -1.0000 -0.0000 -0.0000
-0.800 -46.154 0.320 -1.0000 -0.0000 -0.0000
-0.800 -46.240 0.000 -1.0000 -0.0000 -0.0000
-0.800 -46.154 -0.320 -1.0000 -0.0000 -0.0000
-0.800 -45.920 -0.554 -1.0000 -0.0000 -0.0000
-0.800 -45.600 -0.640 -1.0000 -0.0000 -0.0000
-0.800 -45.280 -0.554 -1.0000 -0.0000 -0.0000
-0.800 -45.046 -0.320 -1.0000 -0.0000 -0.0000
-0.800 -44.960 0.000 -1.0000 -0.0000 -0.0000
-0.800 -45.046 0.320 -1.0000 -0.0000 -0.0000
-0.800 -45.280 0.554 -1.0000 -0.0000 -0.0000
0.800 -45.600 0.000 1.0000 0.0000 0.0000
0.800 -45.600 0.640 1.0000 0.0000 0.0000
0.800 -45.920 0.554 1.0000 0.0000 0.0000
0.800 -46.154 0.320 1.0000 0.0000 0.0000
0.800 -46.240 0.000 1.0000 0.0000 0.0000
0.800 -46.154 -0.320 1.0000 0.0000 0.0000
0.800 -45.920 -0.554 1.0000 0.0000 0.0000
0.800 -45.600 -0.640 1.0000 0.0000 0.0000
0.800 -45.280 -0.554 1.0000 0.0000 0.0000
0.800 -45.046 -0.320 1.0000 0.0000 0.0000
0.800 -44.960 0.000 1.0000 0.0000 0.0000
0.800 -45.046 0.320 1.0000 0.0000 0.0000
0.800 -45.280 0.554 1.0000 0.0000 0.0000
0.000 -45.600 -0.550 0.0000 0.0000 -1.0000
-0.275 -45.600 -0.476 -0.5000 0.0000 -0.8660
-0.476 -45.600 -0.275 -0.8660 0.0000 -0.5000
-0.550 -45.600 0.000 -1.0000 0.0000 -0.0000
-0.476 -45.600 0.275 -0.8660 0.0000 0.5000
-0.275 -45.600 0.476 -0.5000 0.0000 0.8660
0.000 -45.600 0.550 -0.0000 0.0000 1.0000
0.275 -45.600 0.476 0.5000 -0.0000 0.8660
0.476 -45.600 0.275 0.8660 -0.0000 0.5000
0.550 -45.600 0.000 1.0000 -0.0000 0.0000
0.476 -45.600 -0.275 0.8660 0.0000 -0.5000
0.275 -45.600 -0.476 0.5000 0.0000 -0.8660
0.000 -43.350 -0.550 0.0000 0.0000 -1.0000
-0.275 -43.350 -0.476 -0.5000 0.0000 -0.8660
-0.476 -43.350 -0.275 -0.8660 0.0000 -0.5000
-0.550 -43.350 0.000 -1.0000 0.0000 -0.0000
-0.476 -43.350 0.275 -0.8660 0.0000 0.5000
-0.275 -43.350 0.476 -0.5000 0.0000 0.8660
0.000 -43.350 0.550 -0.0000 0.0000 1.0000
0.275 -43.350 0.476 0.5000 -0.0000 0.8660
0.476 -43.350 0.275 0.8660 -0.0000 0.5000
0.550 -43.350 0.000 1.0000 -0.0000 0.0000
0.476 -43.350 -0.275 0.8660 0.0000 -0.5000
0.275 -43.350 -0.476 0.5000 0.0000 -0.8660
0.000 -45.600 0.000 -0.0000 -1.0000 -0.0000
0.000 -45.600 -0.550 -0.0000 -1.0000 -0.0000
-0.275 -45.600 -0.476 -0.0000 -1.0000 -0.0000
-0.476 -45.600 -0.275 -0.0000 -1.0000 -0.0000
-0.550 -45.600 0.000 -0.0000 -1.0000 -0.0000
-0.476 -45.600 0.275 -0.0000 -1.0000 -0.0000
-0.275 -45.600 0.476 -0.0000 -1.0000 -0.0000
0.000 -45.600 0.550 -0.0000 -1.0000 -0.0000
0.275 -45.600 0.476 -0.0000 -1.0000 -0.0000
0.476 -45.600 0.275 -0.0000 -1.0000 -0.0000
0.550 -45.600 0.000 -0.0000 -1.0000 -0.0000
0.476 -45.600 -0.275 -0.0000 -1.0000 -0.0000
0.275 -45.600 -0.476 -0.0000 -1.0000 -0.0000
0.000 -43.350 0.000 0.0000 1.0000 0.0000
0.000 -43.350 -0.550 0.0000 1.0000 0.0000
-0.275 -43.350 -0.476 0.0000 1.0000 0.0000
-0.476 -43.350 -0.275 0.0000 1.0000 0.0000
-0.550 -43.350 0.000 0.0000 1.0000 0.0000
-0.476 -43.350 0.275 0.0000 1.0000 0.0000
-0.275 -43.350 0.476 0.0000 1.0000 0.0000
0.000 -43.350 0.550 0.0000 1.0000 0.0000
0.275 -43.350 0.476 0.0000 1.0000 0.0000
0.476 -43.350 0.275 0.0000 1.0000 0.0000
0.550 -43.350 0.000 0.0000 1.0000 0.0000
0.476 -43.350 -0.275 0.0000 1.0000 0.0000
0.275 -43.350 -0.476 0.0000 1.0000 0.0000
0 1 13
0 13 12
1 2 14
1 14 13
2 3 15
2 15 14
3 4 16
3 16 15
4 5 17
4 17 16
5 6 18
5 18 17
6 7 19
6 19 18
7 8 20
7 20 19
8 9 21
8 21 20
9 10 22
9 22 21
10 11 23
10 23 22
11 0 12
11 12 23
24 26 25
24 27 26
24 28 27
24 29 28
24 30 29
24 31 30
24 32 31
24 33 32
24 34 33
24 35 34
24 36 35
24 25 36
37 38 39
37 39 40
37 40 41
37 41 42
37 42 43
37 43 44
37 44 45
37 45 46
37 46 47
37 47 48
37 48 49
37 49 38
50 51 63
50 63 62
51 52 64
51 64 63
52 53 65
52 65 64
53 54 66
53 66 65
54 55 67
54 67 66
55 56 68
55 68 67
56 57 69
56 69 68
57 58 70
57 70 69
58 59 71
58 71 70
59 60 72
59 72 71
60 61 73
60 73 72
61 50 62
61 62 73
74 76 75
74 77 76
74 78 77
74 79 78
74 80 79
74 81 80
74 82 81
74 83 82
74 84 83
74 85 84
74 86 85
74 75 86
87 88 89
87 89 90
87 90 91
87 91 92
87 92 93
87 93 94
87 94 95
87 95 96
87 96 97
87 97 98
87 98 99
87 99 88
100 101 113
100 113 112
101 102 114
101 114 113
102 103 115
102 115 114
103 104 116
103 116 115
104 105 117
104 117 116
105 106 118
105 118 117
106 107 119
106 119 118
107 108 120
107 120 119
108 109 121
108 121 120
109 110 122
109 122 121
110 111 123
110 123 122
111 100 112
111 112 123
124 126 125
124 127 126
124 128 127
124 129 128
124 130 129
124 131 130
124 132 131
124 133 132
124 134 133
124 135 134
124 136 135
124 125 136
137 138 139
137 139 140
137 140 141
137 141 142
137 142 143
137 143 144
137 144 145
137 145 146
137 146 147
137 147 148
137 148 149
137 149 138
LABEL pad_port
MATERIAL 7
TEXTURE 0
GEOM 168 100 ;pad_port
3.200 -46.600 8.000 0.0000 1.0000 0.0000
3.315 -46.600 7.977 0.0000 1.0000 0.0000
3.412 -46.600 7.912 0.0000 1.0000 0.0000
3.477 -46.600 7.815 0.0000 1.0000 0.0000
3.500 -46.600 7.700 0.0000 1.0000 0.0000
3.500 -46.600 -7.700 0.0000 1.0000 0.0000
3.477 -46.600 -7.815 0.0000 1.0000 0.0000
3.412 -46.600 -7.912 0.0000 1.0000 0.0000
3.315 -46.600 -7.977 0.0000 1.0000 0.0000
3.200 -46.600 -8.000 0.0000 1.0000 0.0000
-3.200 -46.600 -8.000 0.0000 1.0000 0.0000
-3.315 -46.600 -7.977 0.0000 1.0000 0.0000
-3.412 -46.600 -7.912 0.0000 1.0000 0.0000
-3.477 -46.600 -7.815 0.0000 1.0000 0.0000
-3.500 -46.600 -7.700 0.0000 1.0000 0.0000
-3.500 -46.600 7.700 0.0000 1.0000 0.0000
-3.477 -46.600 7.815 0.0000 1.0000 0.0000
-3.412 -46.600 7.912 0.0000 1.0000 0.0000
-3.315 -46.600 7.977 0.0000 1.0000 0.0000
-3.200 -46.600 8.000 0.0000 1.0000 0.0000
3.200 -47.350 8.000 -0.0000 -1.0000 -0.0000
3.315 -47.350 7.977 -0.0000 -1.0000 -0.0000
3.412 -47.350 7.912 -0.0000 -1.0000 -0.0000
3.477 -47.350 7.815 -0.0000 -1.0000 -0.0000
3.500 -47.350 7.700 -0.0000 -1.0000 -0.0000
3.500 -47.350 -7.700 -0.0000 -1.0000 -0.0000
3.477 -47.350 -7.815 -0.0000 -1.0000 -0.0000
3.412 -47.350 -7.912 -0.0000 -1.0000 -0.0000
3.315 -47.350 -7.977 -0.0000 -1.0000 -0.0000
3.200 -47.350 -8.000 -0.0000 -1.0000 -0.0000
-3.200 -47.350 -8.000 -0.0000 -1.0000 -0.0000
-3.315 -47.350 -7.977 -0.0000 -1.0000 -0.0000
-3.412 -47.350 -7.912 -0.0000 -1.0000 -0.0000
-3.477 -47.350 -7.815 -0.0000 -1.0000 -0.0000
-3.500 -47.350 -7.700 -0.0000 -1.0000 -0.0000
-3.500 -47.350 7.700 -0.0000 -1.0000 -0.0000
-3.477 -47.350 7.815 -0.0000 -1.0000 -0.0000
-3.412 -47.350 7.912 -0.0000 -1.0000 -0.0000
-3.315 -47.350 7.977 -0.0000 -1.0000 -0.0000
-3.200 -47.350 8.000 -0.0000 -1.0000 -0.0000
3.200 -46.600 8.000 0.1951 -0.0000 0.9808
3.315 -46.600 7.977 0.1951 -0.0000 0.9808
3.315 -47.350 7.977 0.1951 -0.0000 0.9808
3.200 -47.350 8.000 0.1951 -0.0000 0.9808
3.315 -46.600 7.977 0.5556 -0.0000 0.8315
3.412 -46.600 7.912 0.5556 -0.0000 0.8315
3.412 -47.350 7.912 0.5556 -0.0000 0.8315
3.315 -47.350 7.977 0.5556 -0.0000 0.8315
3.412 -46.600 7.912 0.8315 -0.0000 0.5556
3.477 -46.600 7.815 0.8315 -0.0000 0.5556
3.477 -47.350 7.815 0.8315 -0.0000 0.5556
3.412 -47.350 7.912 0.8315 -0.0000 0.5556
3.477 -46.600 7.815 0.9808 -0.0000 0.1951
3.500 -46.600 7.700 0.9808 -0.0000 0.1951
3.500 -47.350 7.700 0.9808 -0.0000 0.1951
3.477 -47.350 7.815 0.9808 -0.0000 0.1951
3.500 -46.600 7.700 1.0000 -0.0000 0.0000
3.500 -46.600 -7.700 1.0000 -0.0000 0.0000
3.500 -47.350 -7.700 1.0000 -0.0000 0.0000
3.500 -47.350 7.700 1.0000 -0.0000 0.0000
3.500 -46.600 -7.700 0.9808 0.0000 -0.1951
3.477 -46.600 -7.815 0.9808 0.0000 -0.1951
3.477 -47.350 -7.815 0.9808 0.0000 -0.1951
3.500 -47.350 -7.700 0.9808 0.0000 -0.1951
3.477 -46.600 -7.815 0.8315 0.0000 -0.5556
3.412 -46.600 -7.912 0.8315 0.0000 -0.5556
3.412 -47.350 -7.912 0.8315 0.0000 -0.5556
3.477 -47.350 -7.815 0.8315 0.0000 -0.5556
3.412 -46.600 -7.912 0.5556 0.0000 -0.8315
3.315 -46.600 -7.977 0.5556 0.0000 -0.8315
3.315 -47.350 -7.977 0.5556 0.0000 -0.8315
3.412 -47.350 -7.912 0.5556 0.0000 -0.8315
3.315 -46.600 -7.977 0.1951 0.0000 -0.9808
3.200 -46.600 -8.000 0.1951 0.0000 -0.9808
3.200 -47.350 -8.000 0.1951 0.0000 -0.9808
3.315 -47.350 -7.977 0.1951 0.0000 -0.9808
3.200 -46.600 -8.000 0.0000 0.0000 -1.0000
-3.200 -46.600 -8.000 0.0000 0.0000 -1.0000
-3.200 -47.350 -8.000 0.0000 0.0000 -1.0000
3.200 -47.350 -8.000 0.0000 0.0000 -1.0000
-3.200 -46.600 -8.000 -0.1951 0.0000 -0.9808
-3.315 -46.600 -7.977 -0.1951 0.0000 -0.9808
-3.315 -47.350 -7.977 -0.1951 0.0000 -0.9808
-3.200 -47.350 -8.000 -0.1951 0.0000 -0.9808
-3.315 -46.600 -7.977 -0.5556 0.0000 -0.8315
-3.412 -46.600 -7.912 -0.5556 0.0000 -0.8315
-3.412 -47.350 -7.912 -0.5556 0.0000 -0.8315
-3.315 -47.350 -7.977 -0.5556 0.0000 -0.8315
-3.412 -46.600 -7.912 -0.8315 0.0000 -0.5556
-3.477 -46.600 -7.815 -0.8315 0.0000 -0.5556
-3.477 -47.350 -7.815 -0.8315 0.0000 -0.5556
-3.412 -47.350 -7.912 -0.8315 0.0000 -0.5556
-3.477 -46.600 -7.815 -0.9808 0.0000 -0.1951
-3.500 -46.600 -7.700 -0.9808 0.0000 -0.1951
-3.500 -47.350 -7.700 -0.9808 0.0000 -0.1951
-3.477 -47.350 -7.815 -0.9808 0.0000 -0.1951
-3.500 -46.600 -7.700 -1.0000 0.0000 0.0000
-3.500 -46.600 7.700 -1.0000 0.0000 0.0000
-3.500 -47.350 7.700 -1.0000 0.0000 0.0000
-3.500 -47.350 -7.700 -1.0000 0.0000 0.0000
-3.500 -46.600 7.700 -0.9808 0.0000 0.1951
-3.477 -46.600 7.815 -0.9808 0.0000 0.1951
-3.477 -47.350 7.815 -0.9808 0.0000 0.1951
-3.500 -47.350 7.700 -0.9808 0.0000 0.1951
-3.477 -46.600 7.815 -0.8315 0.0000 0.5556
-3.412 -46.600 7.912 -0.8315 0.0000 0.5556
-3.412 -47.350 7.912 -0.8315 0.0000 0.5556
-3.477 -47.350 7.815 -0.8315 0.0000 0.5556
-3.412 -46.600 7.912 -0.5556 0.0000 0.8315
-3.315 -46.600 7.977 -0.5556 0.0000 0.8315
-3.315 -47.350 7.977 -0.5556 0.0000 0.8315
-3.412 -47.350 7.912 -0.5556 0.0000 0.8315
-3.315 -46.600 7.977 -0.1951 0.0000 0.9808
-3.200 -46.600 8.000 -0.1951 0.0000 0.9808
-3.200 -47.350 8.000 -0.1951 0.0000 0.9808
-3.315 -47.350 7.977 -0.1951 0.0000 0.9808
-3.200 -46.600 8.000 0.0000 0.0000 1.0000
3.200 -46.600 8.000 0.0000 0.0000 1.0000
3.200 -47.350 8.000 0.0000 0.0000 1.0000
-3.200 -47.350 8.000 0.0000 0.0000 1.0000
-0.500 -46.600 -4.400 -1.0000 -0.0000 -0.0000
-0.500 -46.400 -4.400 -1.0000 -0.0000 -0.0000
-0.500 -46.400 4.400 -1.0000 -0.0000 -0.0000
-0.500 -46.600 4.400 -1.0000 -0.0000 -0.0000
0.500 -46.600 -4.400 1.0000 0.0000 0.0000
0.500 -46.400 -4.400 1.0000 0.0000 0.0000
0.500 -46.400 4.400 1.0000 0.0000 0.0000
0.500 -46.600 4.400 1.0000 0.0000 0.0000
-0.500 -46.600 -4.400 -0.0000 -1.0000 -0.0000
0.500 -46.600 -4.400 -0.0000 -1.0000 -0.0000
0.500 -46.600 4.400 -0.0000 -1.0000 -0.0000
-0.500 -46.600 4.400 -0.0000 -1.0000 -0.0000
-0.500 -46.400 -4.400 0.0000 1.0000 0.0000
0.500 -46.400 -4.400 0.0000 1.0000 0.0000
0.500 -46.400 4.400 0.0000 1.0000 0.0000
-0.500 -46.400 4.400 0.0000 1.0000 0.0000
-0.500 -46.600 -4.400 -0.0000 -0.0000 -1.0000
0.500 -46.600 -4.400 -0.0000 -0.0000 -1.0000
0.500 -46.400 -4.400 -0.0000 -0.0000 -1.0000
-0.500 -46.400 -4.400 -0.0000 -0.0000 -1.0000
-0.500 -46.600 4.400 0.0000 0.0000 1.0000
0.500 -46.600 4.400 0.0000 0.0000 1.0000
0.500 -46.400 4.400 0.0000 0.0000 1.0000
-0.500 -46.400 4.400 0.0000 0.0000 1.0000
-0.500 -46.600 -0.700 -1.0000 -0.0000 -0.0000
-0.500 -46.080 -0.700 -1.0000 -0.0000 -0.0000
-0.500 -46.080 0.700 -1.0000 -0.0000 -0.0000
-0.500 -46.600 0.700 -1.0000 -0.0000 -0.0000
0.500 -46.600 -0.700 1.0000 0.0000 0.0000
0.500 -46.080 -0.700 1.0000 0.0000 0.0000
0.500 -46.080 0.700 1.0000 0.0000 0.0000
0.500 -46.600 0.700 1.0000 0.0000 0.0000
-0.500 -46.600 -0.700 -0.0000 -1.0000 -0.0000
0.500 -46.600 -0.700 -0.0000 -1.0000 -0.0000
0.500 -46.600 0.700 -0.0000 -1.0000 -0.0000
-0.500 -46.600 0.700 -0.0000 -1.0000 -0.0000
-0.500 -46.080 -0.700 0.0000 1.0000 0.0000
0.500 -46.080 -0.700 0.0000 1.0000 0.0000
0.500 -46.080 0.700 0.0000 1.0000 0.0000
-0.500 -46.080 0.700 0.0000 1.0000 0.0000
-0.500 -46.600 -0.700 -0.0000 -0.0000 -1.0000
0.500 -46.600 -0.700 -0.0000 -0.0000 -1.0000
0.500 -46.080 -0.700 -0.0000 -0.0000 -1.0000
-0.500 -46.080 -0.700 -0.0000 -0.0000 -1.0000
-0.500 -46.600 0.700 0.0000 0.0000 1.0000
0.500 -46.600 0.700 0.0000 0.0000 1.0000
0.500 -46.080 0.700 0.0000 0.0000 1.0000
-0.500 -46.080 0.700 0.0000 0.0000 1.0000
0 1 2
0 2 3
0 3 4
0 4 5
0 5 6
0 6 7
0 7 8
0 8 9
0 9 10
0 10 11
0 11 12
0 12 13
0 13 14
0 14 15
0 15 16
0 16 17
0 17 18
0 18 19
20 22 21
20 23 22
20 24 23
20 25 24
20 26 25
20 27 26
20 28 27
20 29 28
20 30 29
20 31 30
20 32 31
20 33 32
20 34 33
20 35 34
20 36 35
20 37 36
20 38 37
20 39 38
40 42 41
40 43 42
44 46 45
44 47 46
48 50 49
48 51 50
52 54 53
52 55 54
56 58 57
56 59 58
60 62 61
60 63 62
64 66 65
64 67 66
68 70 69
68 71 70
72 74 73
72 75 74
76 78 77
76 79 78
80 82 81
80 83 82
84 86 85
84 87 86
88 90 89
88 91 90
92 94 93
92 95 94
96 98 97
96 99 98
100 102 101
100 103 102
104 106 105
104 107 106
108 110 109
108 111 110
112 114 113
112 115 114
116 118 117
116 119 118
120 122 121
120 123 122
124 125 126
124 126 127
128 129 130
128 130 131
132 134 133
132 135 134
136 138 137
136 139 138
140 141 142
140 142 143
144 146 145
144 147 146
148 149 150
148 150 151
152 153 154
152 154 155
156 158 157
156 159 158
160 162 161
160 163 162
164 165 166
164 166 167
LABEL sole_port
MATERIAL 8
TEXTURE 0
GEOM 120 76 ;sole_port
2.900 -47.350 7.850 0.0000 1.0000 0.0000
3.072 -47.350 7.816 0.0000 1.0000 0.0000
3.218 -47.350 7.718 0.0000 1.0000 0.0000
3.316 -47.350 7.572 0.0000 1.0000 0.0000
3.350 -47.350 7.400 0.0000 1.0000 0.0000
3.350 -47.350 -7.400 0.0000 1.0000 0.0000
3.316 -47.350 -7.572 0.0000 1.0000 0.0000
3.218 -47.350 -7.718 0.0000 1.0000 0.0000
3.072 -47.350 -7.816 0.0000 1.0000 0.0000
2.900 -47.350 -7.850 0.0000 1.0000 0.0000
-2.900 -47.350 -7.850 0.0000 1.0000 0.0000
-3.072 -47.350 -7.816 0.0000 1.0000 0.0000
-3.218 -47.350 -7.718 0.0000 1.0000 0.0000
-3.316 -47.350 -7.572 0.0000 1.0000 0.0000
-3.350 -47.350 -7.400 0.0000 1.0000 0.0000
-3.350 -47.350 7.400 0.0000 1.0000 0.0000
-3.316 -47.350 7.572 0.0000 1.0000 0.0000
-3.218 -47.350 7.718 0.0000 1.0000 0.0000
-3.072 -47.350 7.816 0.0000 1.0000 0.0000
-2.900 -47.350 7.850 0.0000 1.0000 0.0000
2.900 -47.800 7.850 -0.0000 -1.0000 -0.0000
3.072 -47.800 7.816 -0.0000 -1.0000 -0.0000
3.218 -47.800 7.718 -0.0000 -1.0000 -0.0000
3.316 -47.800 7.572 -0.0000 -1.0000 -0.0000
3.350 -47.800 7.400 -0.0000 -1.0000 -0.0000
3.350 -47.800 -7.400 -0.0000 -1.0000 -0.0000
3.316 -47.800 -7.572 -0.0000 -1.0000 -0.0000
3.218 -47.800 -7.718 -0.0000 -1.0000 -0.0000
3.072 -47.800 -7.816 -0.0000 -1.0000 -0.0000
2.900 -47.800 -7.850 -0.0000 -1.0000 -0.0000
-2.900 -47.800 -7.850 -0.0000 -1.0000 -0.0000
-3.072 -47.800 -7.816 -0.0000 -1.0000 -0.0000
-3.218 -47.800 -7.718 -0.0000 -1.0000 -0.0000
-3.316 -47.800 -7.572 -0.0000 -1.0000 -0.0000
-3.350 -47.800 -7.400 -0.0000 -1.0000 -0.0000
-3.350 -47.800 7.400 -0.0000 -1.0000 -0.0000
-3.316 -47.800 7.572 -0.0000 -1.0000 -0.0000
-3.218 -47.800 7.718 -0.0000 -1.0000 -0.0000
-3.072 -47.800 7.816 -0.0000 -1.0000 -0.0000
-2.900 -47.800 7.850 -0.0000 -1.0000 -0.0000
2.900 -47.350 7.850 0.1951 -0.0000 0.9808
3.072 -47.350 7.816 0.1951 -0.0000 0.9808
3.072 -47.800 7.816 0.1951 -0.0000 0.9808
2.900 -47.800 7.850 0.1951 -0.0000 0.9808
3.072 -47.350 7.816 0.5556 -0.0000 0.8315
3.218 -47.350 7.718 0.5556 -0.0000 0.8315
3.218 -47.800 7.718 0.5556 -0.0000 0.8315
3.072 -47.800 7.816 0.5556 -0.0000 0.8315
3.218 -47.350 7.718 0.8315 -0.0000 0.5556
3.316 -47.350 7.572 0.8315 -0.0000 0.5556
3.316 -47.800 7.572 0.8315 -0.0000 0.5556
3.218 -47.800 7.718 0.8315 -0.0000 0.5556
3.316 -47.350 7.572 0.9808 -0.0000 0.1951
3.350 -47.350 7.400 0.9808 -0.0000 0.1951
3.350 -47.800 7.400 0.9808 -0.0000 0.1951
3.316 -47.800 7.572 0.9808 -0.0000 0.1951
3.350 -47.350 7.400 1.0000 -0.0000 0.0000
3.350 -47.350 -7.400 1.0000 -0.0000 0.0000
3.350 -47.800 -7.400 1.0000 -0.0000 0.0000
3.350 -47.800 7.400 1.0000 -0.0000 0.0000
3.350 -47.350 -7.400 0.9808 0.0000 -0.1951
3.316 -47.350 -7.572 0.9808 0.0000 -0.1951
3.316 -47.800 -7.572 0.9808 0.0000 -0.1951
3.350 -47.800 -7.400 0.9808 0.0000 -0.1951
3.316 -47.350 -7.572 0.8315 0.0000 -0.5556
3.218 -47.350 -7.718 0.8315 0.0000 -0.5556
3.218 -47.800 -7.718 0.8315 0.0000 -0.5556
3.316 -47.800 -7.572 0.8315 0.0000 -0.5556
3.218 -47.350 -7.718 0.5556 0.0000 -0.8315
3.072 -47.350 -7.816 0.5556 0.0000 -0.8315
3.072 -47.800 -7.816 0.5556 0.0000 -0.8315
3.218 -47.800 -7.718 0.5556 0.0000 -0.8315
3.072 -47.350 -7.816 0.1951 0.0000 -0.9808
2.900 -47.350 -7.850 0.1951 0.0000 -0.9808
2.900 -47.800 -7.850 0.1951 0.0000 -0.9808
3.072 -47.800 -7.816 0.1951 0.0000 -0.9808
2.900 -47.350 -7.850 0.0000 0.0000 -1.0000
-2.900 -47.350 -7.850 0.0000 0.0000 -1.0000
-2.900 -47.800 -7.850 0.0000 0.0000 -1.0000
2.900 -47.800 -7.850 0.0000 0.0000 -1.0000
-2.900 -47.350 -7.850 -0.1951 0.0000 -0.9808
-3.072 -47.350 -7.816 -0.1951 0.0000 -0.9808
-3.072 -47.800 -7.816 -0.1951 0.0000 -0.9808
-2.900 -47.800 -7.850 -0.1951 0.0000 -0.9808
-3.072 -47.350 -7.816 -0.5556 0.0000 -0.8315
-3.218 -47.350 -7.718 -0.5556 0.0000 -0.8315
-3.218 -47.800 -7.718 -0.5556 0.0000 -0.8315
-3.072 -47.800 -7.816 -0.5556 0.0000 -0.8315
-3.218 -47.350 -7.718 -0.8315 0.0000 -0.5556
-3.316 -47.350 -7.572 -0.8315 0.0000 -0.5556
-3.316 -47.800 -7.572 -0.8315 0.0000 -0.5556
-3.218 -47.800 -7.718 -0.8315 0.0000 -0.5556
-3.316 -47.350 -7.572 -0.9808 0.0000 -0.1951
-3.350 -47.350 -7.400 -0.9808 0.0000 -0.1951
-3.350 -47.800 -7.400 -0.9808 0.0000 -0.1951
-3.316 -47.800 -7.572 -0.9808 0.0000 -0.1951
-3.350 -47.350 -7.400 -1.0000 0.0000 0.0000
-3.350 -47.350 7.400 -1.0000 0.0000 0.0000
-3.350 -47.800 7.400 -1.0000 0.0000 0.0000
-3.350 -47.800 -7.400 -1.0000 0.0000 0.0000
-3.350 -47.350 7.400 -0.9808 0.0000 0.1951
-3.316 -47.350 7.572 -0.9808 0.0000 0.1951
-3.316 -47.800 7.572 -0.9808 0.0000 0.1951
-3.350 -47.800 7.400 -0.9808 0.0000 0.1951
-3.316 -47.350 7.572 -0.8315 0.0000 0.5556
-3.218 -47.350 7.718 -0.8315 0.0000 0.5556
-3.218 -47.800 7.718 -0.8315 0.0000 0.5556
-3.316 -47.800 7.572 -0.8315 0.0000 0.5556
-3.218 -47.350 7.718 -0.5556 0.0000 0.8315
-3.072 -47.350 7.816 -0.5556 0.0000 0.8315
-3.072 -47.800 7.816 -0.5556 0.0000 0.8315
-3.218 -47.800 7.718 -0.5556 0.0000 0.8315
-3.072 -47.350 7.816 -0.1951 0.0000 0.9808
-2.900 -47.350 7.850 -0.1951 0.0000 0.9808
-2.900 -47.800 7.850 -0.1951 0.0000 0.9808
-3.072 -47.800 7.816 -0.1951 0.0000 0.9808
-2.900 -47.350 7.850 0.0000 0.0000 1.0000
2.900 -47.350 7.850 0.0000 0.0000 1.0000
2.900 -47.800 7.850 0.0000 0.0000 1.0000
-2.900 -47.800 7.850 0.0000 0.0000 1.0000
0 1 2
0 2 3
0 3 4
0 4 5
0 5 6
0 6 7
0 7 8
0 8 9
0 9 10
0 10 11
0 11 12
0 12 13
0 13 14
0 14 15
0 15 16
0 16 17
0 17 18
0 18 19
20 22 21
20 23 22
20 24 23
20 25 24
20 26 25
20 27 26
20 28 27
20 29 28
20 30 29
20 31 30
20 32 31
20 33 32
20 34 33
20 35 34
20 36 35
20 37 36
20 38 37
20 39 38
40 42 41
40 43 42
44 46 45
44 47 46
48 50 49
48 51 50
52 54 53
52 55 54
56 58 57
56 59 58
60 62 61
60 63 62
64 66 65
64 67 66
68 70 69
68 71 70
72 74 73
72 75 74
76 78 77
76 79 78
80 82 81
80 83 82
84 86 85
84 87 86
88 90 89
88 91 90
92 94 93
92 95 94
96 98 97
96 99 98
100 102 101
100 103 102
104 106 105
104 107 106
108 110 109
108 111 110
112 114 113
112 115 114
116 118 117
116 119 118
LABEL anchor_port
MATERIAL 2
TEXTURE 0
GEOM 156 144 ;anchor_port
-2.000 -47.780 -5.560 0.0000 0.0000 -1.0000
-2.052 -47.780 -5.530 -0.8660 0.0000 -0.5000
-2.052 -47.780 -5.470 -0.8660 0.0000 0.5000
-2.000 -47.780 -5.440 -0.0000 0.0000 1.0000
-1.948 -47.780 -5.470 0.8660 -0.0000 0.5000
-1.948 -47.780 -5.530 0.8660 0.0000 -0.5000
-2.000 -46.780 -5.720 0.0000 0.0000 -1.0000
-2.191 -46.780 -5.610 -0.8660 0.0000 -0.5000
-2.191 -46.780 -5.390 -0.8660 0.0000 0.5000
-2.000 -46.780 -5.280 -0.0000 0.0000 1.0000
-1.809 -46.780 -5.390 0.8660 -0.0000 0.5000
-1.809 -46.780 -5.610 0.8660 0.0000 -0.5000
-2.000 -47.780 -5.500 -0.0000 -1.0000 -0.0000
-2.000 -47.780 -5.560 -0.0000 -1.0000 -0.0000
-2.052 -47.780 -5.530 -0.0000 -1.0000 -0.0000
-2.052 -47.780 -5.470 -0.0000 -1.0000 -0.0000
-2.000 -47.780 -5.440 -0.0000 -1.0000 -0.0000
-1.948 -47.780 -5.470 -0.0000 -1.0000 -0.0000
-1.948 -47.780 -5.530 -0.0000 -1.0000 -0.0000
-2.000 -46.780 -5.500 0.0000 1.0000 0.0000
-2.000 -46.780 -5.720 0.0000 1.0000 0.0000
-2.191 -46.780 -5.610 0.0000 1.0000 0.0000
-2.191 -46.780 -5.390 0.0000 1.0000 0.0000
-2.000 -46.780 -5.280 0.0000 1.0000 0.0000
-1.809 -46.780 -5.390 0.0000 1.0000 0.0000
-1.809 -46.780 -5.610 0.0000 1.0000 0.0000
2.000 -47.780 -5.560 0.0000 0.0000 -1.0000
1.948 -47.780 -5.530 -0.8660 0.0000 -0.5000
1.948 -47.780 -5.470 -0.8660 0.0000 0.5000
2.000 -47.780 -5.440 -0.0000 0.0000 1.0000
2.052 -47.780 -5.470 0.8660 -0.0000 0.5000
2.052 -47.780 -5.530 0.8660 0.0000 -0.5000
2.000 -46.780 -5.720 0.0000 0.0000 -1.0000
1.809 -46.780 -5.610 -0.8660 0.0000 -0.5000
1.809 -46.780 -5.390 -0.8660 0.0000 0.5000
2.000 -46.780 -5.280 -0.0000 0.0000 1.0000
2.191 -46.780 -5.390 0.8660 -0.0000 0.5000
2.191 -46.780 -5.610 0.8660 0.0000 -0.5000
2.000 -47.780 -5.500 -0.0000 -1.0000 -0.0000
2.000 -47.780 -5.560 -0.0000 -1.0000 -0.0000
1.948 -47.780 -5.530 -0.0000 -1.0000 -0.0000
1.948 -47.780 -5.470 -0.0000 -1.0000 -0.0000
2.000 -47.780 -5.440 -0.0000 -1.0000 -0.0000
2.052 -47.780 -5.470 -0.0000 -1.0000 -0.0000
2.052 -47.780 -5.530 -0.0000 -1.0000 -0.0000
2.000 -46.780 -5.500 0.0000 1.0000 0.0000
2.000 -46.780 -5.720 0.0000 1.0000 0.0000
1.809 -46.780 -5.610 0.0000 1.0000 0.0000
1.809 -46.780 -5.390 0.0000 1.0000 0.0000
2.000 -46.780 -5.280 0.0000 1.0000 0.0000
2.191 -46.780 -5.390 0.0000 1.0000 0.0000
2.191 -46.780 -5.610 0.0000 1.0000 0.0000
-2.000 -47.780 -0.060 0.0000 0.0000 -1.0000
-2.052 -47.780 -0.030 -0.8660 0.0000 -0.5000
-2.052 -47.780 0.030 -0.8660 0.0000 0.5000
-2.000 -47.780 0.060 -0.0000 0.0000 1.0000
-1.948 -47.780 0.030 0.8660 -0.0000 0.5000
-1.948 -47.780 -0.030 0.8660 0.0000 -0.5000
-2.000 -46.780 -0.220 0.0000 0.0000 -1.0000
-2.191 -46.780 -0.110 -0.8660 0.0000 -0.5000
-2.191 -46.780 0.110 -0.8660 0.0000 0.5000
-2.000 -46.780 0.220 -0.0000 0.0000 1.0000
-1.809 -46.780 0.110 0.8660 -0.0000 0.5000
-1.809 -46.780 -0.110 0.8660 0.0000 -0.5000
-2.000 -47.780 0.000 -0.0000 -1.0000 -0.0000
-2.000 -47.780 -0.060 -0.0000 -1.0000 -0.0000
-2.052 -47.780 -0.030 -0.0000 -1.0000 -0.0000
-2.052 -47.780 0.030 -0.0000 -1.0000 -0.0000
-2.000 -47.780 0.060 -0.0000 -1.0000 -0.0000
-1.948 -47.780 0.030 -0.0000 -1.0000 -0.0000
-1.948 -47.780 -0.030 -0.0000 -1.0000 -0.0000
-2.000 -46.780 0.000 0.0000 1.0000 0.0000
-2.000 -46.780 -0.220 0.0000 1.0000 0.0000
-2.191 -46.780 -0.110 0.0000 1.0000 0.0000
-2.191 -46.780 0.110 0.0000 1.0000 0.0000
-2.000 -46.780 0.220 0.0000 1.0000 0.0000
-1.809 -46.780 0.110 0.0000 1.0000 0.0000
-1.809 -46.780 -0.110 0.0000 1.0000 0.0000
2.000 -47.780 -0.060 0.0000 0.0000 -1.0000
1.948 -47.780 -0.030 -0.8660 0.0000 -0.5000
1.948 -47.780 0.030 -0.8660 0.0000 0.5000
2.000 -47.780 0.060 -0.0000 0.0000 1.0000
2.052 -47.780 0.030 0.8660 -0.0000 0.5000
2.052 -47.780 -0.030 0.8660 0.0000 -0.5000
2.000 -46.780 -0.220 0.0000 0.0000 -1.0000
1.809 -46.780 -0.110 -0.8660 0.0000 -0.5000
1.809 -46.780 0.110 -0.8660 0.0000 0.5000
2.000 -46.780 0.220 -0.0000 0.0000 1.0000
2.191 -46.780 0.110 0.8660 -0.0000 0.5000
2.191 -46.780 -0.110 0.8660 0.0000 -0.5000
2.000 -47.780 0.000 -0.0000 -1.0000 -0.0000
2.000 -47.780 -0.060 -0.0000 -1.0000 -0.0000
1.948 -47.780 -0.030 -0.0000 -1.0000 -0.0000
1.948 -47.780 0.030 -0.0000 -1.0000 -0.0000
2.000 -47.780 0.060 -0.0000 -1.0000 -0.0000
2.052 -47.780 0.030 -0.0000 -1.0000 -0.0000
2.052 -47.780 -0.030 -0.0000 -1.0000 -0.0000
2.000 -46.780 0.000 0.0000 1.0000 0.0000
2.000 -46.780 -0.220 0.0000 1.0000 0.0000
1.809 -46.780 -0.110 0.0000 1.0000 0.0000
1.809 -46.780 0.110 0.0000 1.0000 0.0000
2.000 -46.780 0.220 0.0000 1.0000 0.0000
2.191 -46.780 0.110 0.0000 1.0000 0.0000
2.191 -46.780 -0.110 0.0000 1.0000 0.0000
-2.000 -47.780 5.440 0.0000 0.0000 -1.0000
-2.052 -47.780 5.470 -0.8660 0.0000 -0.5000
-2.052 -47.780 5.530 -0.8660 0.0000 0.5000
-2.000 -47.780 5.560 -0.0000 0.0000 1.0000
-1.948 -47.780 5.530 0.8660 -0.0000 0.5000
-1.948 -47.780 5.470 0.8660 0.0000 -0.5000
-2.000 -46.780 5.280 0.0000 0.0000 -1.0000
-2.191 -46.780 5.390 -0.8660 0.0000 -0.5000
-2.191 -46.780 5.610 -0.8660 0.0000 0.5000
-2.000 -46.780 5.720 -0.0000 0.0000 1.0000
-1.809 -46.780 5.610 0.8660 -0.0000 0.5000
-1.809 -46.780 5.390 0.8660 0.0000 -0.5000
-2.000 -47.780 5.500 -0.0000 -1.0000 -0.0000
-2.000 -47.780 5.440 -0.0000 -1.0000 -0.0000
-2.052 -47.780 5.470 -0.0000 -1.0000 -0.0000
-2.052 -47.780 5.530 -0.0000 -1.0000 -0.0000
-2.000 -47.780 5.560 -0.0000 -1.0000 -0.0000
-1.948 -47.780 5.530 -0.0000 -1.0000 -0.0000
-1.948 -47.780 5.470 -0.0000 -1.0000 -0.0000
-2.000 -46.780 5.500 0.0000 1.0000 0.0000
-2.000 -46.780 5.280 0.0000 1.0000 0.0000
-2.191 -46.780 5.390 0.0000 1.0000 0.0000
-2.191 -46.780 5.610 0.0000 1.0000 0.0000
-2.000 -46.780 5.720 0.0000 1.0000 0.0000
-1.809 -46.780 5.610 0.0000 1.0000 0.0000
-1.809 -46.780 5.390 0.0000 1.0000 0.0000
2.000 -47.780 5.440 0.0000 0.0000 -1.0000
1.948 -47.780 5.470 -0.8660 0.0000 -0.5000
1.948 -47.780 5.530 -0.8660 0.0000 0.5000
2.000 -47.780 5.560 -0.0000 0.0000 1.0000
2.052 -47.780 5.530 0.8660 -0.0000 0.5000
2.052 -47.780 5.470 0.8660 0.0000 -0.5000
2.000 -46.780 5.280 0.0000 0.0000 -1.0000
1.809 -46.780 5.390 -0.8660 0.0000 -0.5000
1.809 -46.780 5.610 -0.8660 0.0000 0.5000
2.000 -46.780 5.720 -0.0000 0.0000 1.0000
2.191 -46.780 5.610 0.8660 -0.0000 0.5000
2.191 -46.780 5.390 0.8660 0.0000 -0.5000
2.000 -47.780 5.500 -0.0000 -1.0000 -0.0000
2.000 -47.780 5.440 -0.0000 -1.0000 -0.0000
1.948 -47.780 5.470 -0.0000 -1.0000 -0.0000
1.948 -47.780 5.530 -0.0000 -1.0000 -0.0000
2.000 -47.780 5.560 -0.0000 -1.0000 -0.0000
2.052 -47.780 5.530 -0.0000 -1.0000 -0.0000
2.052 -47.780 5.470 -0.0000 -1.0000 -0.0000
2.000 -46.780 5.500 0.0000 1.0000 0.0000
2.000 -46.780 5.280 0.0000 1.0000 0.0000
1.809 -46.780 5.390 0.0000 1.0000 0.0000
1.809 -46.780 5.610 0.0000 1.0000 0.0000
2.000 -46.780 5.720 0.0000 1.0000 0.0000
2.191 -46.780 5.610 0.0000 1.0000 0.0000
2.191 -46.780 5.390 0.0000 1.0000 0.0000
0 1 7
0 7 6
1 2 8
1 8 7
2 3 9
2 9 8
3 4 10
3 10 9
4 5 11
4 11 10
5 0 6
5 6 11
12 14 13
12 15 14
12 16 15
12 17 16
12 18 17
12 13 18
19 20 21
19 21 22
19 22 23
19 23 24
19 24 25
19 25 20
26 27 33
26 33 32
27 28 34
27 34 33
28 29 35
28 35 34
29 30 36
29 36 35
30 31 37
30 37 36
31 26 32
31 32 37
38 40 39
38 41 40
38 42 41
38 43 42
38 44 43
38 39 44
45 46 47
45 47 48
45 48 49
45 49 50
45 50 51
45 51 46
52 53 59
52 59 58
53 54 60
53 60 59
54 55 61
54 61 60
55 56 62
55 62 61
56 57 63
56 63 62
57 52 58
57 58 63
64 66 65
64 67 66
64 68 67
64 69 68
64 70 69
64 65 70
71 72 73
71 73 74
71 74 75
71 75 76
71 76 77
71 77 72
78 79 85
78 85 84
79 80 86
79 86 85
80 81 87
80 87 86
81 82 88
81 88 87
82 83 89
82 89 88
83 78 84
83 84 89
90 92 91
90 93 92
90 94 93
90 95 94
90 96 95
90 91 96
97 98 99
97 99 100
97 100 101
97 101 102
97 102 103
97 103 98
104 105 111
104 111 110
105 106 112
105 112 111
106 107 113
106 113 112
107 108 114
107 114 113
108 109 115
108 115 114
109 104 110
109 110 115
116 118 117
116 119 118
116 120 119
116 121 120
116 122 121
116 117 122
123 124 125
123 125 126
123 126 127
123 127 128
123 128 129
123 129 124
130 131 137
130 137 136
131 132 138
131 138 137
132 133 139
132 139 138
133 134 140
133 140 139
134 135 141
134 141 140
135 130 136
135 136 141
142 144 143
142 145 144
142 146 145
142 147 146
142 148 147
142 143 148
149 150 151
149 151 152
149 152 153
149 153 154
149 154 155
149 155 150
MATERIALS 13
hull_lacquer
nose_iridium
crest_radiator
structure
boron_nitride
engine_metal
mechanism
dark
band
planetary_cup
rover
shuttle
trap_shell
MATERIAL hull_lacquer
0.620 0.640 0.680 1
0.620 0.640 0.680 1
0.300 0.300 0.320 1 20
0.000 0.000 0.000 1
MATERIAL nose_iridium
0.780 0.760 0.700 1
0.780 0.760 0.700 1
0.950 0.950 0.950 1 80
0.000 0.000 0.000 1
MATERIAL crest_radiator
0.460 0.260 0.180 1
0.460 0.260 0.180 1
0.150 0.150 0.150 1 10
0.000 0.000 0.000 1
MATERIAL structure
0.260 0.270 0.290 1
0.260 0.270 0.290 1
0.200 0.200 0.200 1 15
0.000 0.000 0.000 1
MATERIAL boron_nitride
0.620 0.580 0.920 1
0.620 0.580 0.920 1
0.600 0.600 0.700 1 40
0.080 0.060 0.200 1
MATERIAL engine_metal
0.400 0.400 0.420 1
0.400 0.400 0.420 1
0.500 0.500 0.500 1 40
0.000 0.000 0.000 1
MATERIAL mechanism
0.540 0.560 0.600 1
0.540 0.560 0.600 1
0.700 0.700 0.720 1 50
0.000 0.000 0.000 1
MATERIAL dark
0.070 0.070 0.090 1
0.070 0.070 0.090 1
0.050 0.050 0.050 1 5
0.000 0.000 0.000 1
MATERIAL band
0.280 0.360 0.500 1
0.280 0.360 0.500 1
0.500 0.550 0.650 1 40
0.000 0.000 0.000 1
MATERIAL planetary_cup
0.600 0.700 0.850 1
0.600 0.700 0.850 1
0.700 0.700 0.800 1 50
0.030 0.060 0.100 1
MATERIAL rover
0.550 0.480 0.320 1
0.550 0.480 0.320 1
0.300 0.300 0.300 1 20
0.000 0.000 0.000 1
MATERIAL shuttle
0.850 0.840 0.810 1
0.850 0.840 0.810 1
0.400 0.400 0.400 1 30
0.000 0.000 0.000 1
MATERIAL trap_shell
0.440 0.470 0.560 1
0.440 0.470 0.560 1
0.450 0.450 0.500 1 30
0.000 0.000 0.000 1
TEXTURES 0
