MSHX1
GROUPS 8
LABEL foot_port_petal_0
MATERIAL 7
TEXTURE 0
GEOM 66 52 ;foot_port_petal_0
4.920 0.034 3.985 0.8636 0.0744 0.4986
5.270 0.034 3.379 0.8636 0.0744 0.4986
5.237 0.533 3.360 0.8636 0.0744 0.4986
4.887 0.533 3.967 0.8636 0.0744 0.4986
-4.433 -0.771 -1.415 -0.8636 -0.0744 -0.4986
-4.083 -0.771 -2.021 -0.8636 -0.0744 -0.4986
-4.116 -0.272 -2.040 -0.8636 -0.0744 -0.4986
-4.466 -0.272 -1.433 -0.8636 -0.0744 -0.4986
4.920 0.034 3.985 -0.5000 -0.0000 0.8660
-4.433 -0.771 -1.415 -0.5000 -0.0000 0.8660
-4.466 -0.272 -1.433 -0.5000 -0.0000 0.8660
4.887 0.533 3.967 -0.5000 -0.0000 0.8660
5.270 0.034 3.379 0.5000 0.0000 -0.8660
-4.083 -0.771 -2.021 0.5000 0.0000 -0.8660
-4.116 -0.272 -2.040 0.5000 0.0000 -0.8660
5.237 0.533 3.360 0.5000 0.0000 -0.8660
4.920 0.034 3.985 0.0644 -0.9972 0.0372
-4.433 -0.771 -1.415 0.0644 -0.9972 0.0372
-4.083 -0.771 -2.021 0.0644 -0.9972 0.0372
5.270 0.034 3.379 0.0644 -0.9972 0.0372
4.887 0.533 3.967 -0.0644 0.9972 -0.0372
-4.466 -0.272 -1.433 -0.0644 0.9972 -0.0372
-4.116 -0.272 -2.040 -0.0644 0.9972 -0.0372
5.237 0.533 3.360 -0.0644 0.9972 -0.0372
5.319 0.000 4.331 0.8660 -0.0000 0.5000
5.269 -0.176 4.302 0.7006 -0.5878 0.4045
5.139 -0.285 4.227 0.2676 -0.9511 0.1545
4.979 -0.285 4.135 -0.2676 -0.9511 -0.1545
4.849 -0.176 4.060 -0.7006 -0.5878 -0.4045
4.799 0.000 4.031 -0.8660 -0.0000 -0.5000
4.849 0.176 4.060 -0.7006 0.5878 -0.4045
4.979 0.285 4.135 -0.2676 0.9511 -0.1545
5.139 0.285 4.227 0.2676 0.9511 0.1545
5.269 0.176 4.302 0.7006 0.5878 0.4045
5.769 0.000 3.552 0.8660 -0.0000 0.5000
5.719 -0.176 3.523 0.7006 -0.5878 0.4045
5.589 -0.285 3.448 0.2676 -0.9511 0.1545
5.429 -0.285 3.355 -0.2676 -0.9511 -0.1545
5.299 -0.176 3.280 -0.7006 -0.5878 -0.4045
5.249 0.000 3.252 -0.8660 -0.0000 -0.5000
5.299 0.176 3.280 -0.7006 0.5878 -0.4045
5.429 0.285 3.355 -0.2676 0.9511 -0.1545
5.589 0.285 3.448 0.2676 0.9511 0.1545
5.719 0.176 3.523 0.7006 0.5878 0.4045
5.059 0.000 4.181 -0.5000 -0.0000 0.8660
5.319 0.000 4.331 -0.5000 -0.0000 0.8660
5.269 -0.176 4.302 -0.5000 -0.0000 0.8660
5.139 -0.285 4.227 -0.5000 -0.0000 0.8660
4.979 -0.285 4.135 -0.5000 -0.0000 0.8660
4.849 -0.176 4.060 -0.5000 -0.0000 0.8660
4.799 0.000 4.031 -0.5000 -0.0000 0.8660
4.849 0.176 4.060 -0.5000 -0.0000 0.8660
4.979 0.285 4.135 -0.5000 -0.0000 0.8660
5.139 0.285 4.227 -0.5000 -0.0000 0.8660
5.269 0.176 4.302 -0.5000 -0.0000 0.8660
5.509 0.000 3.402 0.5000 0.0000 -0.8660
5.769 0.000 3.552 0.5000 0.0000 -0.8660
5.719 -0.176 3.523 0.5000 0.0000 -0.8660
5.589 -0.285 3.448 0.5000 0.0000 -0.8660
5.429 -0.285 3.355 0.5000 0.0000 -0.8660
5.299 -0.176 3.280 0.5000 0.0000 -0.8660
5.249 0.000 3.252 0.5000 0.0000 -0.8660
5.299 0.176 3.280 0.5000 0.0000 -0.8660
5.429 0.285 3.355 0.5000 0.0000 -0.8660
5.589 0.285 3.448 0.5000 0.0000 -0.8660
5.719 0.176 3.523 0.5000 0.0000 -0.8660
0 1 2
0 2 3
4 6 5
4 7 6
8 10 9
8 11 10
12 13 14
12 14 15
16 17 18
16 18 19
20 22 21
20 23 22
24 25 35
24 35 34
25 26 36
25 36 35
26 27 37
26 37 36
27 28 38
27 38 37
28 29 39
28 39 38
29 30 40
29 40 39
30 31 41
30 41 40
31 32 42
31 42 41
32 33 43
32 43 42
33 24 34
33 34 43
44 46 45
44 47 46
44 48 47
44 49 48
44 50 49
44 51 50
44 52 51
44 53 52
44 54 53
44 45 54
55 56 57
55 57 58
55 58 59
55 59 60
55 60 61
55 61 62
55 62 63
55 63 64
55 64 65
55 65 56
LABEL foot_port_slat_0_0
MATERIAL 7
TEXTURE 0
GEOM 104 76 ;foot_port_slat_0_0
4.870 0.024 3.880 -0.0644 0.9972 -0.0372
4.888 0.024 3.822 -0.0644 0.9972 -0.0372
4.909 0.024 3.764 -0.0644 0.9972 -0.0372
4.934 0.024 3.708 -0.0644 0.9972 -0.0372
-5.769 -0.800 0.893 -0.0644 0.9972 -0.0372
-5.576 -0.800 0.269 -0.0644 0.9972 -0.0372
-5.349 -0.800 -0.343 -0.0644 0.9972 -0.0372
-5.090 -0.800 -0.942 -0.0644 0.9972 -0.0372
4.870 0.024 3.880 0.0644 -0.9972 0.0372
4.888 0.024 3.822 0.0644 -0.9972 0.0372
4.909 0.024 3.764 0.0644 -0.9972 0.0372
4.934 0.024 3.708 0.0644 -0.9972 0.0372
-5.769 -0.800 0.893 0.0644 -0.9972 0.0372
-5.576 -0.800 0.269 0.0644 -0.9972 0.0372
-5.349 -0.800 -0.343 0.0644 -0.9972 0.0372
-5.090 -0.800 -0.942 0.0644 -0.9972 0.0372
4.870 -0.226 3.880 0.0644 -0.9972 0.0372
4.888 -0.226 3.822 0.0644 -0.9972 0.0372
4.909 -0.226 3.764 0.0644 -0.9972 0.0372
4.934 -0.226 3.708 0.0644 -0.9972 0.0372
-5.769 -1.050 0.893 0.0644 -0.9972 0.0372
-5.576 -1.050 0.269 0.0644 -0.9972 0.0372
-5.349 -1.050 -0.343 0.0644 -0.9972 0.0372
-5.090 -1.050 -0.942 0.0644 -0.9972 0.0372
4.870 -0.226 3.880 -0.0644 0.9972 -0.0372
4.888 -0.226 3.822 -0.0644 0.9972 -0.0372
4.909 -0.226 3.764 -0.0644 0.9972 -0.0372
4.934 -0.226 3.708 -0.0644 0.9972 -0.0372
-5.769 -1.050 0.893 -0.0644 0.9972 -0.0372
-5.576 -1.050 0.269 -0.0644 0.9972 -0.0372
-5.349 -1.050 -0.343 -0.0644 0.9972 -0.0372
-5.090 -1.050 -0.942 -0.0644 0.9972 -0.0372
-5.769 -1.050 0.893 -0.9380 0.0000 -0.3467
-5.576 -1.050 0.269 -0.9380 0.0000 -0.3467
-5.349 -1.050 -0.343 -0.9380 0.0000 -0.3467
-5.090 -1.050 -0.942 -0.9380 0.0000 -0.3467
-5.769 -0.800 0.893 -0.9380 0.0000 -0.3467
-5.576 -0.800 0.269 -0.9380 0.0000 -0.3467
-5.349 -0.800 -0.343 -0.9380 0.0000 -0.3467
-5.090 -0.800 -0.942 -0.9380 0.0000 -0.3467
-5.769 -1.050 0.893 0.9380 -0.0000 0.3467
-5.576 -1.050 0.269 0.9380 -0.0000 0.3467
-5.349 -1.050 -0.343 0.9380 -0.0000 0.3467
-5.090 -1.050 -0.942 0.9380 -0.0000 0.3467
-5.769 -0.800 0.893 0.9380 -0.0000 0.3467
-5.576 -0.800 0.269 0.9380 -0.0000 0.3467
-5.349 -0.800 -0.343 0.9380 -0.0000 0.3467
-5.090 -0.800 -0.942 0.9380 -0.0000 0.3467
4.870 -0.226 3.880 0.9380 -0.0000 0.3467
4.888 -0.226 3.822 0.9380 -0.0000 0.3467
4.909 -0.226 3.764 0.9380 -0.0000 0.3467
4.934 -0.226 3.708 0.9380 -0.0000 0.3467
4.870 0.024 3.880 0.9380 -0.0000 0.3467
4.888 0.024 3.822 0.9380 -0.0000 0.3467
4.909 0.024 3.764 0.9380 -0.0000 0.3467
4.934 0.024 3.708 0.9380 -0.0000 0.3467
4.870 -0.226 3.880 -0.9380 0.0000 -0.3467
4.888 -0.226 3.822 -0.9380 0.0000 -0.3467
4.909 -0.226 3.764 -0.9380 0.0000 -0.3467
4.934 -0.226 3.708 -0.9380 0.0000 -0.3467
4.870 0.024 3.880 -0.9380 0.0000 -0.3467
4.888 0.024 3.822 -0.9380 0.0000 -0.3467
4.909 0.024 3.764 -0.9380 0.0000 -0.3467
4.934 0.024 3.708 -0.9380 0.0000 -0.3467
-5.769 -0.800 0.893 -0.9380 0.0000 -0.3467
-5.576 -0.800 0.269 -0.9380 0.0000 -0.3467
-5.349 -0.800 -0.343 -0.9380 0.0000 -0.3467
-5.090 -0.800 -0.942 -0.9380 0.0000 -0.3467
-5.769 -0.100 0.893 -0.9380 0.0000 -0.3467
-5.576 -0.100 0.269 -0.9380 0.0000 -0.3467
-5.349 -0.100 -0.343 -0.9380 0.0000 -0.3467
-5.090 -0.100 -0.942 -0.9380 0.0000 -0.3467
-5.769 -0.800 0.893 0.9380 -0.0000 0.3467
-5.576 -0.800 0.269 0.9380 -0.0000 0.3467
-5.349 -0.800 -0.343 0.9380 -0.0000 0.3467
-5.090 -0.800 -0.942 0.9380 -0.0000 0.3467
-5.769 -0.100 0.893 0.9380 -0.0000 0.3467
-5.576 -0.100 0.269 0.9380 -0.0000 0.3467
-5.349 -0.100 -0.343 0.9380 -0.0000 0.3467
-5.090 -0.100 -0.942 0.9380 -0.0000 0.3467
-5.769 -0.100 0.893 0.0000 1.0000 0.0000
-5.576 -0.100 0.269 0.0000 1.0000 0.0000
-5.349 -0.100 -0.343 0.0000 1.0000 0.0000
-5.090 -0.100 -0.942 0.0000 1.0000 0.0000
-5.432 -0.074 0.987 0.0000 1.0000 0.0000
-5.244 -0.074 0.382 0.0000 1.0000 0.0000
-5.024 -0.074 -0.213 0.0000 1.0000 0.0000
-4.773 -0.074 -0.795 0.0000 1.0000 0.0000
-5.769 -0.100 0.893 -0.0000 -1.0000 -0.0000
-5.576 -0.100 0.269 -0.0000 -1.0000 -0.0000
-5.349 -0.100 -0.343 -0.0000 -1.0000 -0.0000
-5.090 -0.100 -0.942 -0.0000 -1.0000 -0.0000
-5.432 -0.074 0.987 -0.0000 -1.0000 -0.0000
-5.244 -0.074 0.382 -0.0000 -1.0000 -0.0000
-5.024 -0.074 -0.213 -0.0000 -1.0000 -0.0000
-4.773 -0.074 -0.795 -0.0000 -1.0000 -0.0000
4.870 -0.226 3.880 0.2704 0.0000 -0.9628
-5.769 -1.050 0.893 0.2704 0.0000 -0.9628
4.870 0.024 3.880 0.2704 0.0000 -0.9628
-5.769 -0.800 0.893 0.2704 0.0000 -0.9628
4.870 -0.226 3.880 -0.2704 -0.0000 0.9628
-5.769 -1.050 0.893 -0.2704 -0.0000 0.9628
4.870 0.024 3.880 -0.2704 -0.0000 0.9628
-5.769 -0.800 0.893 -0.2704 -0.0000 0.9628
0 1 5
0 5 4
8 13 9
8 12 13
1 2 6
1 6 5
9 14 10
9 13 14
2 3 7
2 7 6
10 15 11
10 14 15
16 21 17
16 20 21
24 25 29
24 29 28
17 22 18
17 21 22
25 26 30
25 30 29
18 23 19
18 22 23
26 27 31
26 31 30
32 37 33
32 36 37
40 41 45
40 45 44
33 38 34
33 37 38
41 42 46
41 46 45
34 39 35
34 38 39
42 43 47
42 47 46
48 49 53
48 53 52
56 61 57
56 60 61
49 50 54
49 54 53
57 62 58
57 61 62
50 51 55
50 55 54
58 63 59
58 62 63
64 69 65
64 68 69
72 73 77
72 77 76
65 70 66
65 69 70
73 74 78
73 78 77
66 71 67
66 70 71
74 75 79
74 79 78
80 85 81
80 84 85
88 89 93
88 93 92
81 86 82
81 85 86
89 90 94
89 94 93
82 87 83
82 86 87
90 91 95
90 95 94
96 97 99
96 99 98
100 103 101
100 102 103
LABEL foot_port_slat_0_1
MATERIAL 7
TEXTURE 0
GEOM 96 72 ;foot_port_slat_0_1
4.936 0.024 3.703 -0.0644 0.9972 -0.0372
4.965 0.024 3.645 -0.0644 0.9972 -0.0372
4.998 0.024 3.588 -0.0644 0.9972 -0.0372
5.033 0.024 3.534 -0.0644 0.9972 -0.0372
-5.070 -0.800 -0.987 -0.0644 0.9972 -0.0372
-4.758 -0.800 -1.606 -0.0644 0.9972 -0.0372
-4.411 -0.800 -2.206 -0.0644 0.9972 -0.0372
-4.031 -0.800 -2.786 -0.0644 0.9972 -0.0372
4.936 0.024 3.703 0.0644 -0.9972 0.0372
4.965 0.024 3.645 0.0644 -0.9972 0.0372
4.998 0.024 3.588 0.0644 -0.9972 0.0372
5.033 0.024 3.534 0.0644 -0.9972 0.0372
-5.070 -0.800 -0.987 0.0644 -0.9972 0.0372
-4.758 -0.800 -1.606 0.0644 -0.9972 0.0372
-4.411 -0.800 -2.206 0.0644 -0.9972 0.0372
-4.031 -0.800 -2.786 0.0644 -0.9972 0.0372
4.936 -0.226 3.703 0.0644 -0.9972 0.0372
4.965 -0.226 3.645 0.0644 -0.9972 0.0372
4.998 -0.226 3.588 0.0644 -0.9972 0.0372
5.033 -0.226 3.534 0.0644 -0.9972 0.0372
-5.070 -1.050 -0.987 0.0644 -0.9972 0.0372
-4.758 -1.050 -1.606 0.0644 -0.9972 0.0372
-4.411 -1.050 -2.206 0.0644 -0.9972 0.0372
-4.031 -1.050 -2.786 0.0644 -0.9972 0.0372
4.936 -0.226 3.703 -0.0644 0.9972 -0.0372
4.965 -0.226 3.645 -0.0644 0.9972 -0.0372
4.998 -0.226 3.588 -0.0644 0.9972 -0.0372
5.033 -0.226 3.534 -0.0644 0.9972 -0.0372
-5.070 -1.050 -0.987 -0.0644 0.9972 -0.0372
-4.758 -1.050 -1.606 -0.0644 0.9972 -0.0372
-4.411 -1.050 -2.206 -0.0644 0.9972 -0.0372
-4.031 -1.050 -2.786 -0.0644 0.9972 -0.0372
-5.070 -1.050 -0.987 -0.8660 0.0000 -0.5000
-4.758 -1.050 -1.606 -0.8660 0.0000 -0.5000
-4.411 -1.050 -2.206 -0.8660 0.0000 -0.5000
-4.031 -1.050 -2.786 -0.8660 0.0000 -0.5000
-5.070 -0.800 -0.987 -0.8660 0.0000 -0.5000
-4.758 -0.800 -1.606 -0.8660 0.0000 -0.5000
-4.411 -0.800 -2.206 -0.8660 0.0000 -0.5000
-4.031 -0.800 -2.786 -0.8660 0.0000 -0.5000
-5.070 -1.050 -0.987 0.8660 -0.0000 0.5000
-4.758 -1.050 -1.606 0.8660 -0.0000 0.5000
-4.411 -1.050 -2.206 0.8660 -0.0000 0.5000
-4.031 -1.050 -2.786 0.8660 -0.0000 0.5000
-5.070 -0.800 -0.987 0.8660 -0.0000 0.5000
-4.758 -0.800 -1.606 0.8660 -0.0000 0.5000
-4.411 -0.800 -2.206 0.8660 -0.0000 0.5000
-4.031 -0.800 -2.786 0.8660 -0.0000 0.5000
4.936 -0.226 3.703 0.8660 -0.0000 0.5000
4.965 -0.226 3.645 0.8660 -0.0000 0.5000
4.998 -0.226 3.588 0.8660 -0.0000 0.5000
5.033 -0.226 3.534 0.8660 -0.0000 0.5000
4.936 0.024 3.703 0.8660 -0.0000 0.5000
4.965 0.024 3.645 0.8660 -0.0000 0.5000
4.998 0.024 3.588 0.8660 -0.0000 0.5000
5.033 0.024 3.534 0.8660 -0.0000 0.5000
4.936 -0.226 3.703 -0.8660 0.0000 -0.5000
4.965 -0.226 3.645 -0.8660 0.0000 -0.5000
4.998 -0.226 3.588 -0.8660 0.0000 -0.5000
5.033 -0.226 3.534 -0.8660 0.0000 -0.5000
4.936 0.024 3.703 -0.8660 0.0000 -0.5000
4.965 0.024 3.645 -0.8660 0.0000 -0.5000
4.998 0.024 3.588 -0.8660 0.0000 -0.5000
5.033 0.024 3.534 -0.8660 0.0000 -0.5000
-5.070 -0.800 -0.987 -0.8660 0.0000 -0.5000
-4.758 -0.800 -1.606 -0.8660 0.0000 -0.5000
-4.411 -0.800 -2.206 -0.8660 0.0000 -0.5000
-4.031 -0.800 -2.786 -0.8660 0.0000 -0.5000
-5.070 -0.100 -0.987 -0.8660 0.0000 -0.5000
-4.758 -0.100 -1.606 -0.8660 0.0000 -0.5000
-4.411 -0.100 -2.206 -0.8660 0.0000 -0.5000
-4.031 -0.100 -2.786 -0.8660 0.0000 -0.5000
-5.070 -0.800 -0.987 0.8660 -0.0000 0.5000
-4.758 -0.800 -1.606 0.8660 -0.0000 0.5000
-4.411 -0.800 -2.206 0.8660 -0.0000 0.5000
-4.031 -0.800 -2.786 0.8660 -0.0000 0.5000
-5.070 -0.100 -0.987 0.8660 -0.0000 0.5000
-4.758 -0.100 -1.606 0.8660 -0.0000 0.5000
-4.411 -0.100 -2.206 0.8660 -0.0000 0.5000
-4.031 -0.100 -2.786 0.8660 -0.0000 0.5000
-5.070 -0.100 -0.987 0.0000 1.0000 0.0000
-4.758 -0.100 -1.606 0.0000 1.0000 0.0000
-4.411 -0.100 -2.206 0.0000 1.0000 0.0000
-4.031 -0.100 -2.786 0.0000 1.0000 0.0000
-4.753 -0.074 -0.838 0.0000 1.0000 0.0000
-4.450 -0.074 -1.440 0.0000 1.0000 0.0000
-4.113 -0.074 -2.023 0.0000 1.0000 0.0000
-3.744 -0.074 -2.586 0.0000 1.0000 0.0000
-5.070 -0.100 -0.987 -0.0000 -1.0000 -0.0000
-4.758 -0.100 -1.606 -0.0000 -1.0000 -0.0000
-4.411 -0.100 -2.206 -0.0000 -1.0000 -0.0000
-4.031 -0.100 -2.786 -0.0000 -1.0000 -0.0000
-4.753 -0.074 -0.838 -0.0000 -1.0000 -0.0000
-4.450 -0.074 -1.440 -0.0000 -1.0000 -0.0000
-4.113 -0.074 -2.023 -0.0000 -1.0000 -0.0000
-3.744 -0.074 -2.586 -0.0000 -1.0000 -0.0000
0 1 5
0 5 4
8 13 9
8 12 13
1 2 6
1 6 5
9 14 10
9 13 14
2 3 7
2 7 6
10 15 11
10 14 15
16 21 17
16 20 21
24 25 29
24 29 28
17 22 18
17 21 22
25 26 30
25 30 29
18 23 19
18 22 23
26 27 31
26 31 30
32 37 33
32 36 37
40 41 45
40 45 44
33 38 34
33 37 38
41 42 46
41 46 45
34 39 35
34 38 39
42 43 47
42 47 46
48 49 53
48 53 52
56 61 57
56 60 61
49 50 54
49 54 53
57 62 58
57 61 62
50 51 55
50 55 54
58 63 59
58 62 63
64 69 65
64 68 69
72 73 77
72 77 76
65 70 66
65 69 70
73 74 78
73 78 77
66 71 67
66 70 71
74 75 79
74 79 78
80 85 81
80 84 85
88 89 93
88 93 92
81 86 82
81 85 86
89 90 94
89 94 93
82 87 83
82 86 87
90 91 95
90 95 94
LABEL foot_port_slat_0_2
MATERIAL 7
TEXTURE 0
GEOM 104 76 ;foot_port_slat_0_2
5.036 0.024 3.530 -0.0644 0.9972 -0.0372
5.073 0.024 3.481 -0.0644 0.9972 -0.0372
5.112 0.024 3.433 -0.0644 0.9972 -0.0372
5.154 0.024 3.388 -0.0644 0.9972 -0.0372
-4.003 -0.800 -2.826 -0.0644 0.9972 -0.0372
-3.613 -0.800 -3.350 -0.0644 0.9972 -0.0372
-3.196 -0.800 -3.852 -0.0644 0.9972 -0.0372
-2.753 -0.800 -4.331 -0.0644 0.9972 -0.0372
5.036 0.024 3.530 0.0644 -0.9972 0.0372
5.073 0.024 3.481 0.0644 -0.9972 0.0372
5.112 0.024 3.433 0.0644 -0.9972 0.0372
5.154 0.024 3.388 0.0644 -0.9972 0.0372
-4.003 -0.800 -2.826 0.0644 -0.9972 0.0372
-3.613 -0.800 -3.350 0.0644 -0.9972 0.0372
-3.196 -0.800 -3.852 0.0644 -0.9972 0.0372
-2.753 -0.800 -4.331 0.0644 -0.9972 0.0372
5.036 -0.226 3.530 0.0644 -0.9972 0.0372
5.073 -0.226 3.481 0.0644 -0.9972 0.0372
5.112 -0.226 3.433 0.0644 -0.9972 0.0372
5.154 -0.226 3.388 0.0644 -0.9972 0.0372
-4.003 -1.050 -2.826 0.0644 -0.9972 0.0372
-3.613 -1.050 -3.350 0.0644 -0.9972 0.0372
-3.196 -1.050 -3.852 0.0644 -0.9972 0.0372
-2.753 -1.050 -4.331 0.0644 -0.9972 0.0372
5.036 -0.226 3.530 -0.0644 0.9972 -0.0372
5.073 -0.226 3.481 -0.0644 0.9972 -0.0372
5.112 -0.226 3.433 -0.0644 0.9972 -0.0372
5.154 -0.226 3.388 -0.0644 0.9972 -0.0372
-4.003 -1.050 -2.826 -0.0644 0.9972 -0.0372
-3.613 -1.050 -3.350 -0.0644 0.9972 -0.0372
-3.196 -1.050 -3.852 -0.0644 0.9972 -0.0372
-2.753 -1.050 -4.331 -0.0644 0.9972 -0.0372
-4.003 -1.050 -2.826 -0.7692 0.0000 -0.6389
-3.613 -1.050 -3.350 -0.7692 0.0000 -0.6389
-3.196 -1.050 -3.852 -0.7692 0.0000 -0.6389
-2.753 -1.050 -4.331 -0.7692 0.0000 -0.6389
-4.003 -0.800 -2.826 -0.7692 0.0000 -0.6389
-3.613 -0.800 -3.350 -0.7692 0.0000 -0.6389
-3.196 -0.800 -3.852 -0.7692 0.0000 -0.6389
-2.753 -0.800 -4.331 -0.7692 0.0000 -0.6389
-4.003 -1.050 -2.826 0.7692 -0.0000 0.6389
-3.613 -1.050 -3.350 0.7692 -0.0000 0.6389
-3.196 -1.050 -3.852 0.7692 -0.0000 0.6389
-2.753 -1.050 -4.331 0.7692 -0.0000 0.6389
-4.003 -0.800 -2.826 0.7692 -0.0000 0.6389
-3.613 -0.800 -3.350 0.7692 -0.0000 0.6389
-3.196 -0.800 -3.852 0.7692 -0.0000 0.6389
-2.753 -0.800 -4.331 0.7692 -0.0000 0.6389
5.036 -0.226 3.530 0.7692 -0.0000 0.6389
5.073 -0.226 3.481 0.7692 -0.0000 0.6389
5.112 -0.226 3.433 0.7692 -0.0000 0.6389
5.154 -0.226 3.388 0.7692 -0.0000 0.6389
5.036 0.024 3.530 0.7692 -0.0000 0.6389
5.073 0.024 3.481 0.7692 -0.0000 0.6389
5.112 0.024 3.433 0.7692 -0.0000 0.6389
5.154 0.024 3.388 0.7692 -0.0000 0.6389
5.036 -0.226 3.530 -0.7692 0.0000 -0.6389
5.073 -0.226 3.481 -0.7692 0.0000 -0.6389
5.112 -0.226 3.433 -0.7692 0.0000 -0.6389
5.154 -0.226 3.388 -0.7692 0.0000 -0.6389
5.036 0.024 3.530 -0.7692 0.0000 -0.6389
5.073 0.024 3.481 -0.7692 0.0000 -0.6389
5.112 0.024 3.433 -0.7692 0.0000 -0.6389
5.154 0.024 3.388 -0.7692 0.0000 -0.6389
-4.003 -0.800 -2.826 -0.7692 0.0000 -0.6389
-3.613 -0.800 -3.350 -0.7692 0.0000 -0.6389
-3.196 -0.800 -3.852 -0.7692 0.0000 -0.6389
-2.753 -0.800 -4.331 -0.7692 0.0000 -0.6389
-4.003 -0.100 -2.826 -0.7692 0.0000 -0.6389
-3.613 -0.100 -3.350 -0.7692 0.0000 -0.6389
-3.196 -0.100 -3.852 -0.7692 0.0000 -0.6389
-2.753 -0.100 -4.331 -0.7692 0.0000 -0.6389
-4.003 -0.800 -2.826 0.7692 -0.0000 0.6389
-3.613 -0.800 -3.350 0.7692 -0.0000 0.6389
-3.196 -0.800 -3.852 0.7692 -0.0000 0.6389
-2.753 -0.800 -4.331 0.7692 -0.0000 0.6389
-4.003 -0.100 -2.826 0.7692 -0.0000 0.6389
-3.613 -0.100 -3.350 0.7692 -0.0000 0.6389
-3.196 -0.100 -3.852 0.7692 -0.0000 0.6389
-2.753 -0.100 -4.331 0.7692 -0.0000 0.6389
-4.003 -0.100 -2.826 0.0000 1.0000 0.0000
-3.613 -0.100 -3.350 0.0000 1.0000 0.0000
-3.196 -0.100 -3.852 0.0000 1.0000 0.0000
-2.753 -0.100 -4.331 0.0000 1.0000 0.0000
-3.717 -0.074 -2.625 0.0000 1.0000 0.0000
-3.338 -0.074 -3.134 0.0000 1.0000 0.0000
-2.933 -0.074 -3.621 0.0000 1.0000 0.0000
-2.502 -0.074 -4.087 0.0000 1.0000 0.0000
-4.003 -0.100 -2.826 -0.0000 -1.0000 -0.0000
-3.613 -0.100 -3.350 -0.0000 -1.0000 -0.0000
-3.196 -0.100 -3.852 -0.0000 -1.0000 -0.0000
-2.753 -0.100 -4.331 -0.0000 -1.0000 -0.0000
-3.717 -0.074 -2.625 -0.0000 -1.0000 -0.0000
-3.338 -0.074 -3.134 -0.0000 -1.0000 -0.0000
-2.933 -0.074 -3.621 -0.0000 -1.0000 -0.0000
-2.502 -0.074 -4.087 -0.0000 -1.0000 -0.0000
5.154 -0.226 3.388 0.6986 0.0000 -0.7155
-2.753 -1.050 -4.331 0.6986 0.0000 -0.7155
5.154 0.024 3.388 0.6986 0.0000 -0.7155
-2.753 -0.800 -4.331 0.6986 0.0000 -0.7155
5.154 -0.226 3.388 -0.6986 -0.0000 0.7155
-2.753 -1.050 -4.331 -0.6986 -0.0000 0.7155
5.154 0.024 3.388 -0.6986 -0.0000 0.7155
-2.753 -0.800 -4.331 -0.6986 -0.0000 0.7155
0 1 5
0 5 4
8 13 9
8 12 13
1 2 6
1 6 5
9 14 10
9 13 14
2 3 7
2 7 6
10 15 11
10 14 15
16 21 17
16 20 21
24 25 29
24 29 28
17 22 18
17 21 22
25 26 30
25 30 29
18 23 19
18 22 23
26 27 31
26 31 30
32 37 33
32 36 37
40 41 45
40 45 44
33 38 34
33 37 38
41 42 46
41 46 45
34 39 35
34 38 39
42 43 47
42 47 46
48 49 53
48 53 52
56 61 57
56 60 61
49 50 54
49 54 53
57 62 58
57 61 62
50 51 55
50 55 54
58 63 59
58 62 63
64 69 65
64 68 69
72 73 77
72 77 76
65 70 66
65 69 70
73 74 78
73 78 77
66 71 67
66 70 71
74 75 79
74 79 78
80 85 81
80 84 85
88 89 93
88 93 92
81 86 82
81 85 86
89 90 94
89 94 93
82 87 83
82 86 87
90 91 95
90 95 94
96 97 99
96 99 98
100 103 101
100 102 103
LABEL foot_port_rod_0
MATERIAL 7
TEXTURE 0
GEOM 42 40 ;foot_port_rod_0
2.208 1.698 1.669 0.5000 0.0000 -0.8660
2.252 1.543 1.760 0.6446 -0.5183 -0.5620
2.221 1.447 1.916 0.5430 -0.8386 -0.0433
2.128 1.447 2.077 0.2340 -0.8386 0.4919
2.009 1.543 2.181 -0.1644 -0.5183 0.8392
1.908 1.698 2.189 -0.5000 -0.0000 0.8660
1.865 1.854 2.098 -0.6446 0.5183 0.5620
1.895 1.950 1.942 -0.5430 0.8386 0.0433
1.988 1.950 1.781 -0.2340 0.8386 -0.4919
2.108 1.854 1.677 0.1644 0.5183 -0.8392
-0.945 -0.249 -0.151 0.5000 0.0000 -0.8660
-0.902 -0.405 -0.060 0.6446 -0.5183 -0.5620
-0.932 -0.501 0.095 0.5430 -0.8386 -0.0433
-1.025 -0.501 0.256 0.2340 -0.8386 0.4919
-1.145 -0.405 0.360 -0.1644 -0.5183 0.8392
-1.245 -0.249 0.368 -0.5000 -0.0000 0.8660
-1.289 -0.094 0.277 -0.6446 0.5183 0.5620
-1.258 0.002 0.121 -0.5430 0.8386 0.0433
-1.165 0.002 -0.039 -0.2340 0.8386 -0.4919
-1.046 -0.094 -0.143 0.1644 0.5183 -0.8392
2.058 1.698 1.929 0.7637 0.4716 0.4409
2.208 1.698 1.669 0.7637 0.4716 0.4409
2.252 1.543 1.760 0.7637 0.4716 0.4409
2.221 1.447 1.916 0.7637 0.4716 0.4409
2.128 1.447 2.077 0.7637 0.4716 0.4409
2.009 1.543 2.181 0.7637 0.4716 0.4409
1.908 1.698 2.189 0.7637 0.4716 0.4409
1.865 1.854 2.098 0.7637 0.4716 0.4409
1.895 1.950 1.942 0.7637 0.4716 0.4409
1.988 1.950 1.781 0.7637 0.4716 0.4409
2.108 1.854 1.677 0.7637 0.4716 0.4409
-1.095 -0.249 0.108 -0.7637 -0.4716 -0.4409
-0.945 -0.249 -0.151 -0.7637 -0.4716 -0.4409
-0.902 -0.405 -0.060 -0.7637 -0.4716 -0.4409
-0.932 -0.501 0.095 -0.7637 -0.4716 -0.4409
-1.025 -0.501 0.256 -0.7637 -0.4716 -0.4409
-1.145 -0.405 0.360 -0.7637 -0.4716 -0.4409
-1.245 -0.249 0.368 -0.7637 -0.4716 -0.4409
-1.289 -0.094 0.277 -0.7637 -0.4716 -0.4409
-1.258 0.002 0.121 -0.7637 -0.4716 -0.4409
-1.165 0.002 -0.039 -0.7637 -0.4716 -0.4409
-1.046 -0.094 -0.143 -0.7637 -0.4716 -0.4409
0 1 11
0 11 10
1 2 12
1 12 11
2 3 13
2 13 12
3 4 14
3 14 13
4 5 15
4 15 14
5 6 16
5 16 15
6 7 17
6 17 16
7 8 18
7 18 17
8 9 19
8 19 18
9 0 10
9 10 19
20 22 21
20 23 22
20 24 23
20 25 24
20 26 25
20 27 26
20 28 27
20 29 28
20 30 29
20 21 30
31 32 33
31 33 34
31 34 35
31 35 36
31 36 37
31 37 38
31 38 39
31 39 40
31 40 41
31 41 32
LABEL foot_port_skirt_0_0
MATERIAL 7
TEXTURE 0
GEOM 16 12 ;foot_port_skirt_0_0
-5.769 -1.950 0.893 -0.9380 0.0000 -0.3467
-5.576 -1.950 0.269 -0.9380 0.0000 -0.3467
-5.349 -1.950 -0.343 -0.9380 0.0000 -0.3467
-5.090 -1.950 -0.942 -0.9380 0.0000 -0.3467
-5.769 -1.050 0.893 -0.9380 0.0000 -0.3467
-5.576 -1.050 0.269 -0.9380 0.0000 -0.3467
-5.349 -1.050 -0.343 -0.9380 0.0000 -0.3467
-5.090 -1.050 -0.942 -0.9380 0.0000 -0.3467
-5.769 -1.950 0.893 0.9380 -0.0000 0.3467
-5.576 -1.950 0.269 0.9380 -0.0000 0.3467
-5.349 -1.950 -0.343 0.9380 -0.0000 0.3467
-5.090 -1.950 -0.942 0.9380 -0.0000 0.3467
-5.769 -1.050 0.893 0.9380 -0.0000 0.3467
-5.576 -1.050 0.269 0.9380 -0.0000 0.3467
-5.349 -1.050 -0.343 0.9380 -0.0000 0.3467
-5.090 -1.050 -0.942 0.9380 -0.0000 0.3467
0 5 1
0 4 5
8 9 13
8 13 12
1 6 2
1 5 6
9 10 14
9 14 13
2 7 3
2 6 7
10 11 15
10 15 14
LABEL foot_port_skirt_0_1
MATERIAL 7
TEXTURE 0
GEOM 16 12 ;foot_port_skirt_0_1
-5.070 -1.950 -0.987 -0.8660 0.0000 -0.5000
-4.758 -1.950 -1.606 -0.8660 0.0000 -0.5000
-4.411 -1.950 -2.206 -0.8660 0.0000 -0.5000
-4.031 -1.950 -2.786 -0.8660 0.0000 -0.5000
-5.070 -1.050 -0.987 -0.8660 0.0000 -0.5000
-4.758 -1.050 -1.606 -0.8660 0.0000 -0.5000
-4.411 -1.050 -2.206 -0.8660 0.0000 -0.5000
-4.031 -1.050 -2.786 -0.8660 0.0000 -0.5000
-5.070 -1.950 -0.987 0.8660 -0.0000 0.5000
-4.758 -1.950 -1.606 0.8660 -0.0000 0.5000
-4.411 -1.950 -2.206 0.8660 -0.0000 0.5000
-4.031 -1.950 -2.786 0.8660 -0.0000 0.5000
-5.070 -1.050 -0.987 0.8660 -0.0000 0.5000
-4.758 -1.050 -1.606 0.8660 -0.0000 0.5000
-4.411 -1.050 -2.206 0.8660 -0.0000 0.5000
-4.031 -1.050 -2.786 0.8660 -0.0000 0.5000
0 5 1
0 4 5
8 9 13
8 13 12
1 6 2
1 5 6
9 10 14
9 14 13
2 7 3
2 6 7
10 11 15
10 15 14
LABEL foot_port_skirt_0_2
MATERIAL 7
TEXTURE 0
GEOM 16 12 ;foot_port_skirt_0_2
-4.003 -1.950 -2.826 -0.7692 0.0000 -0.6389
-3.613 -1.950 -3.350 -0.7692 0.0000 -0.6389
-3.196 -1.950 -3.852 -0.7692 0.0000 -0.6389
-2.753 -1.950 -4.331 -0.7692 0.0000 -0.6389
-4.003 -1.050 -2.826 -0.7692 0.0000 -0.6389
-3.613 -1.050 -3.350 -0.7692 0.0000 -0.6389
-3.196 -1.050 -3.852 -0.7692 0.0000 -0.6389
-2.753 -1.050 -4.331 -0.7692 0.0000 -0.6389
-4.003 -1.950 -2.826 0.7692 -0.0000 0.6389
-3.613 -1.950 -3.350 0.7692 -0.0000 0.6389
-3.196 -1.950 -3.852 0.7692 -0.0000 0.6389
-2.753 -1.950 -4.331 0.7692 -0.0000 0.6389
-4.003 -1.050 -2.826 0.7692 -0.0000 0.6389
-3.613 -1.050 -3.350 0.7692 -0.0000 0.6389
-3.196 -1.050 -3.852 0.7692 -0.0000 0.6389
-2.753 -1.050 -4.331 0.7692 -0.0000 0.6389
0 5 1
0 4 5
8 9 13
8 13 12
1 6 2
1 5 6
9 10 14
9 14 13
2 7 3
2 6 7
10 11 15
10 15 14
MATERIALS 75
hull_lacquer
nose_iridium
crest_radiator
structure
boron_nitride
engine_metal
mechanism
dark
band
planetary_cup
rover
shuttle
trap_shell
canopy
br_vault
br_floor
br_panel
br_panel_face
br_tub
br_holo
br_screen
br_glow
br_display
br_green
br_red
br_amber
br_seat
br_cushion
br_bezel
br_rib
br_lamp
br_cove
br_vault_lit
br_floor_lit
br_belt
in_floor
in_wall
in_ceiling
in_light
in_furn
in_seat
in_metal
in_wet
in_screen
in_trim
in_green
in_amber
in_red
in_guide
in_btn_dim
in_wall_w
in_floor_w
in_ceil_w
in_metal_w
in_trim_w
in_guide_w
in_fx
in_downlight
in_cove
lift_glass
in_wip
in_btn_cap
in_cablight
in_glass
in_wall_r
in_floor_r
in_ceil_r
in_metal_r
in_dutyred
in_door
in_wall_d
in_floor_d
in_ceil_d
in_metal_d
br_malachite
MATERIAL hull_lacquer
0.620 0.640 0.680 1.00
0.620 0.640 0.680 1.00
0.300 0.300 0.320 1 20
0.000 0.000 0.000 1
MATERIAL nose_iridium
0.780 0.760 0.700 1.00
0.780 0.760 0.700 1.00
0.950 0.950 0.950 1 80
0.000 0.000 0.000 1
MATERIAL crest_radiator
0.460 0.260 0.180 1.00
0.460 0.260 0.180 1.00
0.150 0.150 0.150 1 10
0.000 0.000 0.000 1
MATERIAL structure
0.260 0.270 0.290 1.00
0.260 0.270 0.290 1.00
0.200 0.200 0.200 1 15
0.000 0.000 0.000 1
MATERIAL boron_nitride
0.620 0.580 0.920 1.00
0.620 0.580 0.920 1.00
0.600 0.600 0.700 1 40
0.080 0.060 0.200 1
MATERIAL engine_metal
0.400 0.400 0.420 1.00
0.400 0.400 0.420 1.00
0.500 0.500 0.500 1 40
0.000 0.000 0.000 1
MATERIAL mechanism
0.540 0.560 0.600 1.00
0.540 0.560 0.600 1.00
0.700 0.700 0.720 1 50
0.000 0.000 0.000 1
MATERIAL dark
0.070 0.070 0.090 1.00
0.070 0.070 0.090 1.00
0.050 0.050 0.050 1 5
0.000 0.000 0.000 1
MATERIAL band
0.280 0.360 0.500 1.00
0.280 0.360 0.500 1.00
0.500 0.550 0.650 1 40
0.000 0.000 0.000 1
MATERIAL planetary_cup
0.600 0.700 0.850 1.00
0.600 0.700 0.850 1.00
0.700 0.700 0.800 1 50
0.030 0.060 0.100 1
MATERIAL rover
0.550 0.480 0.320 1.00
0.550 0.480 0.320 1.00
0.300 0.300 0.300 1 20
0.000 0.000 0.000 1
MATERIAL shuttle
0.850 0.840 0.810 1.00
0.850 0.840 0.810 1.00
0.400 0.400 0.400 1 30
0.000 0.000 0.000 1
MATERIAL trap_shell
0.440 0.470 0.560 1.00
0.440 0.470 0.560 1.00
0.450 0.450 0.500 1 30
0.000 0.000 0.000 1
MATERIAL canopy
0.360 0.370 0.400 1.00
0.360 0.370 0.400 1.00
0.550 0.550 0.600 1 35
0.000 0.000 0.000 1
MATERIAL br_vault
0.150 0.160 0.180 1.00
0.150 0.160 0.180 1.00
0.060 0.060 0.070 1 8
0.026 0.030 0.038 1
MATERIAL br_floor
0.550 0.580 0.620 1.00
0.550 0.580 0.620 1.00
0.350 0.360 0.400 1 40
0.160 0.180 0.210 1
MATERIAL br_panel
0.170 0.180 0.200 1.00
0.170 0.180 0.200 1.00
0.200 0.210 0.240 1 20
0.028 0.032 0.040 1
MATERIAL br_panel_face
0.240 0.250 0.280 1.00
0.240 0.250 0.280 1.00
0.300 0.320 0.360 1 30
0.042 0.047 0.056 1
MATERIAL br_tub
0.300 0.310 0.340 1.00
0.300 0.310 0.340 1.00
0.250 0.260 0.300 1 25
0.050 0.055 0.066 1
MATERIAL br_holo
0.050 0.200 0.260 1.00
0.050 0.200 0.260 1.00
0.000 0.000 0.000 1 1
0.060 0.260 0.340 1
MATERIAL br_screen
0.020 0.030 0.060 1.00
0.020 0.030 0.060 1.00
0.300 0.300 0.400 1 40
0.030 0.050 0.100 1
MATERIAL br_glow
0.400 0.900 1.000 1.00
0.400 0.900 1.000 1.00
0.000 0.000 0.000 1 1
0.300 0.700 0.900 1
MATERIAL br_display
1.000 1.000 1.000 1.00
1.000 1.000 1.000 1.00
0.000 0.000 0.000 1 1
1.000 1.000 1.000 1
MATERIAL br_green
0.300 1.000 0.500 1.00
0.300 1.000 0.500 1.00
0.000 0.000 0.000 1 1
0.200 0.900 0.400 1
MATERIAL br_red
0.900 0.200 0.150 1.00
0.900 0.200 0.150 1.00
0.300 0.100 0.100 1 20
0.500 0.080 0.050 1
MATERIAL br_amber
1.000 0.800 0.300 1.00
1.000 0.800 0.300 1.00
0.000 0.000 0.000 1 1
0.700 0.500 0.100 1
MATERIAL br_seat
0.200 0.210 0.230 1.00
0.200 0.210 0.230 1.00
0.300 0.300 0.350 1 30
0.024 0.026 0.030 1
MATERIAL br_cushion
0.210 0.240 0.290 1.00
0.210 0.240 0.290 1.00
0.100 0.100 0.120 1 10
0.028 0.032 0.040 1
MATERIAL br_bezel
0.620 0.640 0.680 1.00
0.620 0.640 0.680 1.00
0.400 0.410 0.450 1 40
0.075 0.080 0.090 1
MATERIAL br_rib
0.220 0.230 0.260 1.00
0.220 0.230 0.260 1.00
0.300 0.310 0.350 1 30
0.034 0.038 0.046 1
MATERIAL br_lamp
0.800 0.880 1.000 1.00
0.800 0.880 1.000 1.00
0.000 0.000 0.000 1 1
0.620 0.700 0.800 1
MATERIAL br_cove
0.300 0.550 0.800 1.00
0.300 0.550 0.800 1.00
0.000 0.000 0.000 1 1
0.160 0.300 0.460 1
MATERIAL br_vault_lit
0.060 0.060 0.070 1.00
0.060 0.060 0.070 1.00
0.040 0.040 0.050 1 8
1.000 1.000 1.000 1
MATERIAL br_floor_lit
0.080 0.080 0.090 1.00
0.080 0.080 0.090 1.00
0.100 0.100 0.120 1 20
1.000 1.000 1.000 1
MATERIAL br_belt
0.880 0.560 0.160 1.00
0.880 0.560 0.160 1.00
0.100 0.100 0.100 1 10
0.000 0.000 0.000 1
MATERIAL in_floor
0.500 0.500 0.500 1.00
0.500 0.500 0.500 1.00
0.100 0.100 0.100 1 10
0.500 0.500 0.520 1
MATERIAL in_wall
0.450 0.450 0.450 1.00
0.450 0.450 0.450 1.00
0.050 0.050 0.050 1 5
0.600 0.600 0.620 1
MATERIAL in_ceiling
0.450 0.450 0.450 1.00
0.450 0.450 0.450 1.00
0.000 0.000 0.000 1 1
0.550 0.550 0.570 1
MATERIAL in_light
1.000 0.970 0.880 1.00
1.000 0.970 0.880 1.00
0.000 0.000 0.000 1 1
1.000 0.960 0.840 1
MATERIAL in_furn
0.300 0.310 0.340 1.00
0.300 0.310 0.340 1.00
0.100 0.100 0.100 1 10
0.150 0.150 0.170 1
MATERIAL in_seat
0.120 0.150 0.220 1.00
0.120 0.150 0.220 1.00
0.150 0.150 0.200 1 15
0.060 0.080 0.130 1
MATERIAL in_metal
0.500 0.500 0.500 1.00
0.500 0.500 0.500 1.00
0.500 0.500 0.500 1 30
0.550 0.550 0.580 1
MATERIAL in_wet
0.360 0.500 0.550 1.00
0.360 0.500 0.550 1.00
0.200 0.200 0.250 1 20
0.130 0.190 0.210 1
MATERIAL in_screen
0.040 0.080 0.160 1.00
0.040 0.080 0.160 1.00
0.300 0.300 0.400 1 40
0.100 0.280 0.500 1
MATERIAL in_trim
0.600 0.600 0.600 1.00
0.600 0.600 0.600 1.00
0.100 0.100 0.100 1 10
0.500 0.500 0.500 1
MATERIAL in_green
0.100 0.600 0.250 1.00
0.100 0.600 0.250 1.00
0.000 0.000 0.000 1 1
0.150 1.000 0.400 1
MATERIAL in_amber
0.700 0.450 0.050 1.00
0.700 0.450 0.050 1.00
0.000 0.000 0.000 1 1
1.000 0.620 0.080 1
MATERIAL in_red
0.700 0.100 0.080 1.00
0.700 0.100 0.080 1.00
0.000 0.000 0.000 1 1
1.000 0.150 0.100 1
MATERIAL in_guide
0.200 0.500 0.700 1.00
0.200 0.500 0.700 1.00
0.000 0.000 0.000 1 1
0.250 0.750 1.000 1
MATERIAL in_btn_dim
0.160 0.180 0.200 1.00
0.160 0.180 0.200 1.00
0.300 0.300 0.300 1 20
0.040 0.050 0.060 1
MATERIAL in_wall_w
0.500 0.500 0.510 1.00
0.500 0.500 0.510 1.00
0.080 0.080 0.090 1 12
0.065 0.065 0.075 1
MATERIAL in_floor_w
0.500 0.500 0.500 1.00
0.500 0.500 0.500 1.00
0.450 0.450 0.480 1 40
0.040 0.040 0.045 1
MATERIAL in_ceil_w
0.400 0.400 0.410 1.00
0.400 0.400 0.410 1.00
0.000 0.000 0.000 1 1
0.035 0.035 0.040 1
MATERIAL in_metal_w
0.450 0.450 0.470 1.00
0.450 0.450 0.470 1.00
0.400 0.400 0.420 1 30
0.070 0.070 0.080 1
MATERIAL in_trim_w
0.500 0.500 0.500 1.00
0.500 0.500 0.500 1.00
0.100 0.100 0.100 1 10
0.140 0.140 0.140 1
MATERIAL in_guide_w
0.250 0.420 0.420 1.00
0.250 0.420 0.420 1.00
0.000 0.000 0.000 1 1
0.160 0.360 0.380 1
MATERIAL in_fx
1.000 1.000 1.000 1.00
1.000 1.000 1.000 1.00
0.000 0.000 0.000 1 1
1.000 1.000 1.000 1
MATERIAL in_downlight
1.000 0.860 0.620 1.00
1.000 0.860 0.620 1.00
0.000 0.000 0.000 1 1
1.000 0.840 0.580 1
MATERIAL in_cove
0.300 0.400 0.620 1.00
0.300 0.400 0.620 1.00
0.000 0.000 0.000 1 1
0.260 0.360 0.580 1
MATERIAL lift_glass
0.450 0.600 0.700 0.22
0.450 0.600 0.700 0.22
0.800 0.800 0.850 1 60
0.020 0.030 0.040 1
MATERIAL in_wip
0.950 0.420 0.060 1.00
0.950 0.420 0.060 1.00
0.300 0.250 0.200 1 20
0.400 0.170 0.020 1
MATERIAL in_btn_cap
0.550 0.560 0.580 1.00
0.550 0.560 0.580 1.00
0.350 0.350 0.350 1 30
0.300 0.310 0.320 1
MATERIAL in_cablight
0.950 0.930 0.860 1.00
0.950 0.930 0.860 1.00
0.000 0.000 0.000 1 1
0.800 0.770 0.680 1
MATERIAL in_glass
1.000 1.000 1.000 1.00
1.000 1.000 1.000 1.00
0.900 0.900 0.900 1 60
0.120 0.130 0.150 1
MATERIAL in_wall_r
0.400 0.380 0.380 1.00
0.400 0.380 0.380 1.00
0.050 0.050 0.050 1 5
0.050 0.012 0.011 1
MATERIAL in_floor_r
0.400 0.380 0.380 1.00
0.400 0.380 0.380 1.00
0.200 0.200 0.200 1 30
0.032 0.007 0.007 1
MATERIAL in_ceil_r
0.350 0.330 0.330 1.00
0.350 0.330 0.330 1.00
0.000 0.000 0.000 1 1
0.028 0.006 0.006 1
MATERIAL in_metal_r
0.400 0.380 0.380 1.00
0.400 0.380 0.380 1.00
0.300 0.300 0.300 1 30
0.045 0.011 0.010 1
MATERIAL in_dutyred
0.600 0.080 0.050 1.00
0.600 0.080 0.050 1.00
0.000 0.000 0.000 1 1
0.550 0.050 0.030 1
MATERIAL in_door
0.550 0.550 0.560 1.00
0.550 0.550 0.560 1.00
0.250 0.250 0.270 1 25
0.075 0.075 0.080 1
MATERIAL in_wall_d
0.080 0.080 0.085 1.00
0.080 0.080 0.085 1.00
0.020 0.020 0.020 1 5
0.018 0.018 0.020 1
MATERIAL in_floor_d
0.080 0.080 0.080 1.00
0.080 0.080 0.080 1.00
0.050 0.050 0.050 1 10
0.012 0.012 0.013 1
MATERIAL in_ceil_d
0.070 0.070 0.075 1.00
0.070 0.070 0.075 1.00
0.000 0.000 0.000 1 1
0.010 0.010 0.011 1
MATERIAL in_metal_d
0.080 0.080 0.085 1.00
0.080 0.080 0.085 1.00
0.050 0.050 0.050 1 10
0.016 0.016 0.018 1
MATERIAL br_malachite
0.160 0.380 0.310 1.00
0.160 0.380 0.310 1.00
0.400 0.480 0.450 1 35
0.020 0.048 0.040 1
TEXTURES 0
