MSHX1
GROUPS 8
LABEL kfoot_petal_0
MATERIAL 7
TEXTURE 0
GEOM 66 52 ;kfoot_petal_0
-1.940 2.300 0.208 -0.4997 0.8655 -0.0342
-1.507 2.550 0.208 -0.4997 0.8655 -0.0342
-1.501 2.540 -0.142 -0.4997 0.8655 -0.0342
-1.934 2.290 -0.142 -0.4997 0.8655 -0.0342
0.685 -2.247 0.388 0.4997 -0.8655 0.0342
1.118 -1.997 0.388 0.4997 -0.8655 0.0342
1.124 -2.007 0.038 0.4997 -0.8655 0.0342
0.691 -2.257 0.038 0.4997 -0.8655 0.0342
-1.940 2.300 0.208 -0.8660 -0.5000 -0.0000
0.685 -2.247 0.388 -0.8660 -0.5000 -0.0000
0.691 -2.257 0.038 -0.8660 -0.5000 -0.0000
-1.934 2.290 -0.142 -0.8660 -0.5000 -0.0000
-1.507 2.550 0.208 0.8660 0.5000 0.0000
1.118 -1.997 0.388 0.8660 0.5000 0.0000
1.124 -2.007 0.038 0.8660 0.5000 0.0000
-1.501 2.540 -0.142 0.8660 0.5000 0.0000
-1.940 2.300 0.208 -0.0171 0.0296 0.9994
0.685 -2.247 0.388 -0.0171 0.0296 0.9994
1.118 -1.997 0.388 -0.0171 0.0296 0.9994
-1.507 2.550 0.208 -0.0171 0.0296 0.9994
-1.934 2.290 -0.142 0.0171 -0.0296 -0.9994
0.691 -2.257 0.038 0.0171 -0.0296 -0.9994
1.124 -2.007 0.038 0.0171 -0.0296 -0.9994
-1.501 2.540 -0.142 0.0171 -0.0296 -0.9994
-2.216 2.379 0.501 0.0000 0.0000 1.0000
-2.128 2.226 0.444 0.2939 -0.5090 0.8090
-2.074 2.132 0.294 0.4755 -0.8236 0.3090
-2.074 2.132 0.108 0.4755 -0.8236 -0.3090
-2.128 2.226 -0.042 0.2939 -0.5090 -0.8090
-2.216 2.379 -0.099 0.0000 -0.0000 -1.0000
-2.305 2.532 -0.042 -0.2939 0.5090 -0.8090
-2.359 2.626 0.108 -0.4755 0.8236 -0.3090
-2.359 2.626 0.294 -0.4755 0.8236 0.3090
-2.305 2.532 0.444 -0.2939 0.5090 0.8090
-1.437 2.829 0.501 0.0000 0.0000 1.0000
-1.349 2.676 0.444 0.2939 -0.5090 0.8090
-1.294 2.582 0.294 0.4755 -0.8236 0.3090
-1.294 2.582 0.108 0.4755 -0.8236 -0.3090
-1.349 2.676 -0.042 0.2939 -0.5090 -0.8090
-1.437 2.829 -0.099 0.0000 -0.0000 -1.0000
-1.525 2.982 -0.042 -0.2939 0.5090 -0.8090
-1.580 3.076 0.108 -0.4755 0.8236 -0.3090
-1.580 3.076 0.294 -0.4755 0.8236 0.3090
-1.525 2.982 0.444 -0.2939 0.5090 0.8090
-2.216 2.379 0.201 -0.8660 -0.5000 -0.0000
-2.216 2.379 0.501 -0.8660 -0.5000 -0.0000
-2.128 2.226 0.444 -0.8660 -0.5000 -0.0000
-2.074 2.132 0.294 -0.8660 -0.5000 -0.0000
-2.074 2.132 0.108 -0.8660 -0.5000 -0.0000
-2.128 2.226 -0.042 -0.8660 -0.5000 -0.0000
-2.216 2.379 -0.099 -0.8660 -0.5000 -0.0000
-2.305 2.532 -0.042 -0.8660 -0.5000 -0.0000
-2.359 2.626 0.108 -0.8660 -0.5000 -0.0000
-2.359 2.626 0.294 -0.8660 -0.5000 -0.0000
-2.305 2.532 0.444 -0.8660 -0.5000 -0.0000
-1.437 2.829 0.201 0.8660 0.5000 0.0000
-1.437 2.829 0.501 0.8660 0.5000 0.0000
-1.349 2.676 0.444 0.8660 0.5000 0.0000
-1.294 2.582 0.294 0.8660 0.5000 0.0000
-1.294 2.582 0.108 0.8660 0.5000 0.0000
-1.349 2.676 -0.042 0.8660 0.5000 0.0000
-1.437 2.829 -0.099 0.8660 0.5000 0.0000
-1.525 2.982 -0.042 0.8660 0.5000 0.0000
-1.580 3.076 0.108 0.8660 0.5000 0.0000
-1.580 3.076 0.294 0.8660 0.5000 0.0000
-1.525 2.982 0.444 0.8660 0.5000 0.0000
0 1 2
0 2 3
4 6 5
4 7 6
8 10 9
8 11 10
12 13 14
12 14 15
16 17 18
16 18 19
20 22 21
20 23 22
24 25 35
24 35 34
25 26 36
25 36 35
26 27 37
26 37 36
27 28 38
27 38 37
28 29 39
28 39 38
29 30 40
29 40 39
30 31 41
30 41 40
31 32 42
31 42 41
32 33 43
32 43 42
33 24 34
33 34 43
44 46 45
44 47 46
44 48 47
44 49 48
44 50 49
44 51 50
44 52 51
44 53 52
44 54 53
44 45 54
55 56 57
55 57 58
55 58 59
55 59 60
55 60 61
55 61 62
55 62 63
55 63 64
55 64 65
55 65 56
LABEL kfoot_slat_0_0
MATERIAL 7
TEXTURE 0
GEOM 104 76 ;kfoot_slat_0_0
-1.847 2.219 0.213 0.0171 -0.0296 -0.9994
-1.804 2.232 0.213 0.0171 -0.0296 -0.9994
-1.761 2.248 0.213 0.0171 -0.0296 -0.9994
-1.719 2.266 0.213 0.0171 -0.0296 -0.9994
-0.360 -3.076 0.401 0.0171 -0.0296 -0.9994
-0.035 -2.976 0.401 0.0171 -0.0296 -0.9994
0.283 -2.858 0.401 0.0171 -0.0296 -0.9994
0.595 -2.723 0.401 0.0171 -0.0296 -0.9994
-1.847 2.219 0.213 -0.0171 0.0296 0.9994
-1.804 2.232 0.213 -0.0171 0.0296 0.9994
-1.761 2.248 0.213 -0.0171 0.0296 0.9994
-1.719 2.266 0.213 -0.0171 0.0296 0.9994
-0.360 -3.076 0.401 -0.0171 0.0296 0.9994
-0.035 -2.976 0.401 -0.0171 0.0296 0.9994
0.283 -2.858 0.401 -0.0171 0.0296 0.9994
0.595 -2.723 0.401 -0.0171 0.0296 0.9994
-1.847 2.219 0.413 -0.0171 0.0296 0.9994
-1.804 2.232 0.413 -0.0171 0.0296 0.9994
-1.761 2.248 0.413 -0.0171 0.0296 0.9994
-1.719 2.266 0.413 -0.0171 0.0296 0.9994
-0.360 -3.076 0.601 -0.0171 0.0296 0.9994
-0.035 -2.976 0.601 -0.0171 0.0296 0.9994
0.283 -2.858 0.601 -0.0171 0.0296 0.9994
0.595 -2.723 0.601 -0.0171 0.0296 0.9994
-1.847 2.219 0.413 0.0171 -0.0296 -0.9994
-1.804 2.232 0.413 0.0171 -0.0296 -0.9994
-1.761 2.248 0.413 0.0171 -0.0296 -0.9994
-1.719 2.266 0.413 0.0171 -0.0296 -0.9994
-0.360 -3.076 0.601 0.0171 -0.0296 -0.9994
-0.035 -2.976 0.601 0.0171 -0.0296 -0.9994
0.283 -2.858 0.601 0.0171 -0.0296 -0.9994
0.595 -2.723 0.601 0.0171 -0.0296 -0.9994
-0.360 -3.076 0.601 0.3467 -0.9380 0.0000
-0.035 -2.976 0.601 0.3467 -0.9380 0.0000
0.283 -2.858 0.601 0.3467 -0.9380 0.0000
0.595 -2.723 0.601 0.3467 -0.9380 0.0000
-0.360 -3.076 0.401 0.3467 -0.9380 0.0000
-0.035 -2.976 0.401 0.3467 -0.9380 0.0000
0.283 -2.858 0.401 0.3467 -0.9380 0.0000
0.595 -2.723 0.401 0.3467 -0.9380 0.0000
-0.360 -3.076 0.601 -0.3467 0.9380 -0.0000
-0.035 -2.976 0.601 -0.3467 0.9380 -0.0000
0.283 -2.858 0.601 -0.3467 0.9380 -0.0000
0.595 -2.723 0.601 -0.3467 0.9380 -0.0000
-0.360 -3.076 0.401 -0.3467 0.9380 -0.0000
-0.035 -2.976 0.401 -0.3467 0.9380 -0.0000
0.283 -2.858 0.401 -0.3467 0.9380 -0.0000
0.595 -2.723 0.401 -0.3467 0.9380 -0.0000
-1.847 2.219 0.413 -0.3467 0.9380 -0.0000
-1.804 2.232 0.413 -0.3467 0.9380 -0.0000
-1.761 2.248 0.413 -0.3467 0.9380 -0.0000
-1.719 2.266 0.413 -0.3467 0.9380 -0.0000
-1.847 2.219 0.213 -0.3467 0.9380 -0.0000
-1.804 2.232 0.213 -0.3467 0.9380 -0.0000
-1.761 2.248 0.213 -0.3467 0.9380 -0.0000
-1.719 2.266 0.213 -0.3467 0.9380 -0.0000
-1.847 2.219 0.413 0.3467 -0.9380 0.0000
-1.804 2.232 0.413 0.3467 -0.9380 0.0000
-1.761 2.248 0.413 0.3467 -0.9380 0.0000
-1.719 2.266 0.413 0.3467 -0.9380 0.0000
-1.847 2.219 0.213 0.3467 -0.9380 0.0000
-1.804 2.232 0.213 0.3467 -0.9380 0.0000
-1.761 2.248 0.213 0.3467 -0.9380 0.0000
-1.719 2.266 0.213 0.3467 -0.9380 0.0000
-0.360 -3.076 0.401 0.3467 -0.9380 0.0000
-0.035 -2.976 0.401 0.3467 -0.9380 0.0000
0.283 -2.858 0.401 0.3467 -0.9380 0.0000
0.595 -2.723 0.401 0.3467 -0.9380 0.0000
-0.360 -3.076 -0.299 0.3467 -0.9380 0.0000
-0.035 -2.976 -0.299 0.3467 -0.9380 0.0000
0.283 -2.858 -0.299 0.3467 -0.9380 0.0000
0.595 -2.723 -0.299 0.3467 -0.9380 0.0000
-0.360 -3.076 0.401 -0.3467 0.9380 -0.0000
-0.035 -2.976 0.401 -0.3467 0.9380 -0.0000
0.283 -2.858 0.401 -0.3467 0.9380 -0.0000
0.595 -2.723 0.401 -0.3467 0.9380 -0.0000
-0.360 -3.076 -0.299 -0.3467 0.9380 -0.0000
-0.035 -2.976 -0.299 -0.3467 0.9380 -0.0000
0.283 -2.858 -0.299 -0.3467 0.9380 -0.0000
0.595 -2.723 -0.299 -0.3467 0.9380 -0.0000
-0.360 -3.076 -0.299 0.0000 0.0000 -1.0000
-0.035 -2.976 -0.299 0.0000 0.0000 -1.0000
0.283 -2.858 -0.299 0.0000 0.0000 -1.0000
0.595 -2.723 -0.299 0.0000 0.0000 -1.0000
-0.454 -2.739 -0.311 0.0000 0.0000 -1.0000
-0.148 -2.644 -0.311 0.0000 0.0000 -1.0000
0.153 -2.533 -0.311 0.0000 0.0000 -1.0000
0.448 -2.406 -0.311 0.0000 0.0000 -1.0000
-0.360 -3.076 -0.299 -0.0000 -0.0000 1.0000
-0.035 -2.976 -0.299 -0.0000 -0.0000 1.0000
0.283 -2.858 -0.299 -0.0000 -0.0000 1.0000
0.595 -2.723 -0.299 -0.0000 -0.0000 1.0000
-0.454 -2.739 -0.311 -0.0000 -0.0000 1.0000
-0.148 -2.644 -0.311 -0.0000 -0.0000 1.0000
0.153 -2.533 -0.311 -0.0000 -0.0000 1.0000
0.448 -2.406 -0.311 -0.0000 -0.0000 1.0000
-1.847 2.219 0.413 0.9628 0.2704 0.0000
-0.360 -3.076 0.601 0.9628 0.2704 0.0000
-1.847 2.219 0.213 0.9628 0.2704 0.0000
-0.360 -3.076 0.401 0.9628 0.2704 0.0000
-1.847 2.219 0.413 -0.9628 -0.2704 -0.0000
-0.360 -3.076 0.601 -0.9628 -0.2704 -0.0000
-1.847 2.219 0.213 -0.9628 -0.2704 -0.0000
-0.360 -3.076 0.401 -0.9628 -0.2704 -0.0000
0 1 5
0 5 4
8 13 9
8 12 13
1 2 6
1 6 5
9 14 10
9 13 14
2 3 7
2 7 6
10 15 11
10 14 15
16 21 17
16 20 21
24 25 29
24 29 28
17 22 18
17 21 22
25 26 30
25 30 29
18 23 19
18 22 23
26 27 31
26 31 30
32 37 33
32 36 37
40 41 45
40 45 44
33 38 34
33 37 38
41 42 46
41 46 45
34 39 35
34 38 39
42 43 47
42 47 46
48 49 53
48 53 52
56 61 57
56 60 61
49 50 54
49 54 53
57 62 58
57 61 62
50 51 55
50 55 54
58 63 59
58 62 63
64 69 65
64 68 69
72 73 77
72 77 76
65 70 66
65 69 70
73 74 78
73 78 77
66 71 67
66 70 71
74 75 79
74 79 78
80 85 81
80 84 85
88 89 93
88 93 92
81 86 82
81 85 86
89 90 94
89 94 93
82 87 83
82 86 87
90 91 95
90 95 94
96 97 99
96 99 98
100 103 101
100 102 103
LABEL kfoot_slat_0_1
MATERIAL 7
TEXTURE 0
GEOM 96 72 ;kfoot_slat_0_1
-1.716 2.268 0.213 0.0171 -0.0296 -0.9994
-1.673 2.289 0.213 0.0171 -0.0296 -0.9994
-1.631 2.313 0.213 0.0171 -0.0296 -0.9994
-1.591 2.340 0.213 0.0171 -0.0296 -0.9994
0.618 -2.712 0.401 0.0171 -0.0296 -0.9994
0.941 -2.550 0.401 0.0171 -0.0296 -0.9994
1.253 -2.370 0.401 0.0171 -0.0296 -0.9994
1.555 -2.172 0.401 0.0171 -0.0296 -0.9994
-1.716 2.268 0.213 -0.0171 0.0296 0.9994
-1.673 2.289 0.213 -0.0171 0.0296 0.9994
-1.631 2.313 0.213 -0.0171 0.0296 0.9994
-1.591 2.340 0.213 -0.0171 0.0296 0.9994
0.618 -2.712 0.401 -0.0171 0.0296 0.9994
0.941 -2.550 0.401 -0.0171 0.0296 0.9994
1.253 -2.370 0.401 -0.0171 0.0296 0.9994
1.555 -2.172 0.401 -0.0171 0.0296 0.9994
-1.716 2.268 0.413 -0.0171 0.0296 0.9994
-1.673 2.289 0.413 -0.0171 0.0296 0.9994
-1.631 2.313 0.413 -0.0171 0.0296 0.9994
-1.591 2.340 0.413 -0.0171 0.0296 0.9994
0.618 -2.712 0.601 -0.0171 0.0296 0.9994
0.941 -2.550 0.601 -0.0171 0.0296 0.9994
1.253 -2.370 0.601 -0.0171 0.0296 0.9994
1.555 -2.172 0.601 -0.0171 0.0296 0.9994
-1.716 2.268 0.413 0.0171 -0.0296 -0.9994
-1.673 2.289 0.413 0.0171 -0.0296 -0.9994
-1.631 2.313 0.413 0.0171 -0.0296 -0.9994
-1.591 2.340 0.413 0.0171 -0.0296 -0.9994
0.618 -2.712 0.601 0.0171 -0.0296 -0.9994
0.941 -2.550 0.601 0.0171 -0.0296 -0.9994
1.253 -2.370 0.601 0.0171 -0.0296 -0.9994
1.555 -2.172 0.601 0.0171 -0.0296 -0.9994
0.618 -2.712 0.601 0.5000 -0.8660 0.0000
0.941 -2.550 0.601 0.5000 -0.8660 0.0000
1.253 -2.370 0.601 0.5000 -0.8660 0.0000
1.555 -2.172 0.601 0.5000 -0.8660 0.0000
0.618 -2.712 0.401 0.5000 -0.8660 0.0000
0.941 -2.550 0.401 0.5000 -0.8660 0.0000
1.253 -2.370 0.401 0.5000 -0.8660 0.0000
1.555 -2.172 0.401 0.5000 -0.8660 0.0000
0.618 -2.712 0.601 -0.5000 0.8660 -0.0000
0.941 -2.550 0.601 -0.5000 0.8660 -0.0000
1.253 -2.370 0.601 -0.5000 0.8660 -0.0000
1.555 -2.172 0.601 -0.5000 0.8660 -0.0000
0.618 -2.712 0.401 -0.5000 0.8660 -0.0000
0.941 -2.550 0.401 -0.5000 0.8660 -0.0000
1.253 -2.370 0.401 -0.5000 0.8660 -0.0000
1.555 -2.172 0.401 -0.5000 0.8660 -0.0000
-1.716 2.268 0.413 -0.5000 0.8660 -0.0000
-1.673 2.289 0.413 -0.5000 0.8660 -0.0000
-1.631 2.313 0.413 -0.5000 0.8660 -0.0000
-1.591 2.340 0.413 -0.5000 0.8660 -0.0000
-1.716 2.268 0.213 -0.5000 0.8660 -0.0000
-1.673 2.289 0.213 -0.5000 0.8660 -0.0000
-1.631 2.313 0.213 -0.5000 0.8660 -0.0000
-1.591 2.340 0.213 -0.5000 0.8660 -0.0000
-1.716 2.268 0.413 0.5000 -0.8660 0.0000
-1.673 2.289 0.413 0.5000 -0.8660 0.0000
-1.631 2.313 0.413 0.5000 -0.8660 0.0000
-1.591 2.340 0.413 0.5000 -0.8660 0.0000
-1.716 2.268 0.213 0.5000 -0.8660 0.0000
-1.673 2.289 0.213 0.5000 -0.8660 0.0000
-1.631 2.313 0.213 0.5000 -0.8660 0.0000
-1.591 2.340 0.213 0.5000 -0.8660 0.0000
0.618 -2.712 0.401 0.5000 -0.8660 0.0000
0.941 -2.550 0.401 0.5000 -0.8660 0.0000
1.253 -2.370 0.401 0.5000 -0.8660 0.0000
1.555 -2.172 0.401 0.5000 -0.8660 0.0000
0.618 -2.712 -0.299 0.5000 -0.8660 0.0000
0.941 -2.550 -0.299 0.5000 -0.8660 0.0000
1.253 -2.370 -0.299 0.5000 -0.8660 0.0000
1.555 -2.172 -0.299 0.5000 -0.8660 0.0000
0.618 -2.712 0.401 -0.5000 0.8660 -0.0000
0.941 -2.550 0.401 -0.5000 0.8660 -0.0000
1.253 -2.370 0.401 -0.5000 0.8660 -0.0000
1.555 -2.172 0.401 -0.5000 0.8660 -0.0000
0.618 -2.712 -0.299 -0.5000 0.8660 -0.0000
0.941 -2.550 -0.299 -0.5000 0.8660 -0.0000
1.253 -2.370 -0.299 -0.5000 0.8660 -0.0000
1.555 -2.172 -0.299 -0.5000 0.8660 -0.0000
0.618 -2.712 -0.299 0.0000 0.0000 -1.0000
0.941 -2.550 -0.299 0.0000 0.0000 -1.0000
1.253 -2.370 -0.299 0.0000 0.0000 -1.0000
1.555 -2.172 -0.299 0.0000 0.0000 -1.0000
0.470 -2.396 -0.311 0.0000 0.0000 -1.0000
0.774 -2.242 -0.311 0.0000 0.0000 -1.0000
1.070 -2.072 -0.311 0.0000 0.0000 -1.0000
1.355 -1.885 -0.311 0.0000 0.0000 -1.0000
0.618 -2.712 -0.299 -0.0000 -0.0000 1.0000
0.941 -2.550 -0.299 -0.0000 -0.0000 1.0000
1.253 -2.370 -0.299 -0.0000 -0.0000 1.0000
1.555 -2.172 -0.299 -0.0000 -0.0000 1.0000
0.470 -2.396 -0.311 -0.0000 -0.0000 1.0000
0.774 -2.242 -0.311 -0.0000 -0.0000 1.0000
1.070 -2.072 -0.311 -0.0000 -0.0000 1.0000
1.355 -1.885 -0.311 -0.0000 -0.0000 1.0000
0 1 5
0 5 4
8 13 9
8 12 13
1 2 6
1 6 5
9 14 10
9 13 14
2 3 7
2 7 6
10 15 11
10 14 15
16 21 17
16 20 21
24 25 29
24 29 28
17 22 18
17 21 22
25 26 30
25 30 29
18 23 19
18 22 23
26 27 31
26 31 30
32 37 33
32 36 37
40 41 45
40 45 44
33 38 34
33 37 38
41 42 46
41 46 45
34 39 35
34 38 39
42 43 47
42 47 46
48 49 53
48 53 52
56 61 57
56 60 61
49 50 54
49 54 53
57 62 58
57 61 62
50 51 55
50 55 54
58 63 59
58 62 63
64 69 65
64 68 69
72 73 77
72 77 76
65 70 66
65 69 70
73 74 78
73 78 77
66 71 67
66 70 71
74 75 79
74 79 78
80 85 81
80 84 85
88 89 93
88 93 92
81 86 82
81 85 86
89 90 94
89 94 93
82 87 83
82 86 87
90 91 95
90 95 94
LABEL kfoot_slat_0_2
MATERIAL 7
TEXTURE 0
GEOM 104 76 ;kfoot_slat_0_2
-1.588 2.342 0.213 0.0171 -0.0296 -0.9994
-1.551 2.369 0.213 0.0171 -0.0296 -0.9994
-1.516 2.398 0.213 0.0171 -0.0296 -0.9994
-1.483 2.429 0.213 0.0171 -0.0296 -0.9994
1.576 -2.157 0.401 0.0171 -0.0296 -0.9994
1.848 -1.954 0.401 0.0171 -0.0296 -0.9994
2.110 -1.737 0.401 0.0171 -0.0296 -0.9994
2.359 -1.506 0.401 0.0171 -0.0296 -0.9994
-1.588 2.342 0.213 -0.0171 0.0296 0.9994
-1.551 2.369 0.213 -0.0171 0.0296 0.9994
-1.516 2.398 0.213 -0.0171 0.0296 0.9994
-1.483 2.429 0.213 -0.0171 0.0296 0.9994
1.576 -2.157 0.401 -0.0171 0.0296 0.9994
1.848 -1.954 0.401 -0.0171 0.0296 0.9994
2.110 -1.737 0.401 -0.0171 0.0296 0.9994
2.359 -1.506 0.401 -0.0171 0.0296 0.9994
-1.588 2.342 0.413 -0.0171 0.0296 0.9994
-1.551 2.369 0.413 -0.0171 0.0296 0.9994
-1.516 2.398 0.413 -0.0171 0.0296 0.9994
-1.483 2.429 0.413 -0.0171 0.0296 0.9994
1.576 -2.157 0.601 -0.0171 0.0296 0.9994
1.848 -1.954 0.601 -0.0171 0.0296 0.9994
2.110 -1.737 0.601 -0.0171 0.0296 0.9994
2.359 -1.506 0.601 -0.0171 0.0296 0.9994
-1.588 2.342 0.413 0.0171 -0.0296 -0.9994
-1.551 2.369 0.413 0.0171 -0.0296 -0.9994
-1.516 2.398 0.413 0.0171 -0.0296 -0.9994
-1.483 2.429 0.413 0.0171 -0.0296 -0.9994
1.576 -2.157 0.601 0.0171 -0.0296 -0.9994
1.848 -1.954 0.601 0.0171 -0.0296 -0.9994
2.110 -1.737 0.601 0.0171 -0.0296 -0.9994
2.359 -1.506 0.601 0.0171 -0.0296 -0.9994
1.576 -2.157 0.601 0.6389 -0.7692 0.0000
1.848 -1.954 0.601 0.6389 -0.7692 0.0000
2.110 -1.737 0.601 0.6389 -0.7692 0.0000
2.359 -1.506 0.601 0.6389 -0.7692 0.0000
1.576 -2.157 0.401 0.6389 -0.7692 0.0000
1.848 -1.954 0.401 0.6389 -0.7692 0.0000
2.110 -1.737 0.401 0.6389 -0.7692 0.0000
2.359 -1.506 0.401 0.6389 -0.7692 0.0000
1.576 -2.157 0.601 -0.6389 0.7692 -0.0000
1.848 -1.954 0.601 -0.6389 0.7692 -0.0000
2.110 -1.737 0.601 -0.6389 0.7692 -0.0000
2.359 -1.506 0.601 -0.6389 0.7692 -0.0000
1.576 -2.157 0.401 -0.6389 0.7692 -0.0000
1.848 -1.954 0.401 -0.6389 0.7692 -0.0000
2.110 -1.737 0.401 -0.6389 0.7692 -0.0000
2.359 -1.506 0.401 -0.6389 0.7692 -0.0000
-1.588 2.342 0.413 -0.6389 0.7692 -0.0000
-1.551 2.369 0.413 -0.6389 0.7692 -0.0000
-1.516 2.398 0.413 -0.6389 0.7692 -0.0000
-1.483 2.429 0.413 -0.6389 0.7692 -0.0000
-1.588 2.342 0.213 -0.6389 0.7692 -0.0000
-1.551 2.369 0.213 -0.6389 0.7692 -0.0000
-1.516 2.398 0.213 -0.6389 0.7692 -0.0000
-1.483 2.429 0.213 -0.6389 0.7692 -0.0000
-1.588 2.342 0.413 0.6389 -0.7692 0.0000
-1.551 2.369 0.413 0.6389 -0.7692 0.0000
-1.516 2.398 0.413 0.6389 -0.7692 0.0000
-1.483 2.429 0.413 0.6389 -0.7692 0.0000
-1.588 2.342 0.213 0.6389 -0.7692 0.0000
-1.551 2.369 0.213 0.6389 -0.7692 0.0000
-1.516 2.398 0.213 0.6389 -0.7692 0.0000
-1.483 2.429 0.213 0.6389 -0.7692 0.0000
1.576 -2.157 0.401 0.6389 -0.7692 0.0000
1.848 -1.954 0.401 0.6389 -0.7692 0.0000
2.110 -1.737 0.401 0.6389 -0.7692 0.0000
2.359 -1.506 0.401 0.6389 -0.7692 0.0000
1.576 -2.157 -0.299 0.6389 -0.7692 0.0000
1.848 -1.954 -0.299 0.6389 -0.7692 0.0000
2.110 -1.737 -0.299 0.6389 -0.7692 0.0000
2.359 -1.506 -0.299 0.6389 -0.7692 0.0000
1.576 -2.157 0.401 -0.6389 0.7692 -0.0000
1.848 -1.954 0.401 -0.6389 0.7692 -0.0000
2.110 -1.737 0.401 -0.6389 0.7692 -0.0000
2.359 -1.506 0.401 -0.6389 0.7692 -0.0000
1.576 -2.157 -0.299 -0.6389 0.7692 -0.0000
1.848 -1.954 -0.299 -0.6389 0.7692 -0.0000
2.110 -1.737 -0.299 -0.6389 0.7692 -0.0000
2.359 -1.506 -0.299 -0.6389 0.7692 -0.0000
1.576 -2.157 -0.299 0.0000 0.0000 -1.0000
1.848 -1.954 -0.299 0.0000 0.0000 -1.0000
2.110 -1.737 -0.299 0.0000 0.0000 -1.0000
2.359 -1.506 -0.299 0.0000 0.0000 -1.0000
1.375 -1.871 -0.311 0.0000 0.0000 -1.0000
1.632 -1.679 -0.311 0.0000 0.0000 -1.0000
1.879 -1.474 -0.311 0.0000 0.0000 -1.0000
2.115 -1.256 -0.311 0.0000 0.0000 -1.0000
1.576 -2.157 -0.299 -0.0000 -0.0000 1.0000
1.848 -1.954 -0.299 -0.0000 -0.0000 1.0000
2.110 -1.737 -0.299 -0.0000 -0.0000 1.0000
2.359 -1.506 -0.299 -0.0000 -0.0000 1.0000
1.375 -1.871 -0.311 -0.0000 -0.0000 1.0000
1.632 -1.679 -0.311 -0.0000 -0.0000 1.0000
1.879 -1.474 -0.311 -0.0000 -0.0000 1.0000
2.115 -1.256 -0.311 -0.0000 -0.0000 1.0000
-1.483 2.429 0.413 0.7155 0.6986 0.0000
2.359 -1.506 0.601 0.7155 0.6986 0.0000
-1.483 2.429 0.213 0.7155 0.6986 0.0000
2.359 -1.506 0.401 0.7155 0.6986 0.0000
-1.483 2.429 0.413 -0.7155 -0.6986 -0.0000
2.359 -1.506 0.601 -0.7155 -0.6986 -0.0000
-1.483 2.429 0.213 -0.7155 -0.6986 -0.0000
2.359 -1.506 0.401 -0.7155 -0.6986 -0.0000
0 1 5
0 5 4
8 13 9
8 12 13
1 2 6
1 6 5
9 14 10
9 13 14
2 3 7
2 7 6
10 15 11
10 14 15
16 21 17
16 20 21
24 25 29
24 29 28
17 22 18
17 21 22
25 26 30
25 30 29
18 23 19
18 22 23
26 27 31
26 31 30
32 37 33
32 36 37
40 41 45
40 45 44
33 38 34
33 37 38
41 42 46
41 46 45
34 39 35
34 38 39
42 43 47
42 47 46
48 49 53
48 53 52
56 61 57
56 60 61
49 50 54
49 54 53
57 62 58
57 61 62
50 51 55
50 55 54
58 63 59
58 62 63
64 69 65
64 68 69
72 73 77
72 77 76
65 70 66
65 69 70
73 74 78
73 78 77
66 71 67
66 70 71
74 75 79
74 79 78
80 85 81
80 84 85
88 89 93
88 93 92
81 86 82
81 85 86
89 90 94
89 94 93
82 87 83
82 86 87
90 91 95
90 95 94
96 97 99
96 99 98
100 103 101
100 102 103
LABEL kfoot_rod_0
MATERIAL 7
TEXTURE 0
GEOM 42 40 ;kfoot_rod_0
-1.081 1.050 -1.263 -0.8393 0.0000 0.5436
-1.091 0.973 -1.343 -0.8981 -0.4279 0.1016
-1.040 0.926 -1.429 -0.6138 -0.6924 -0.3792
-0.947 0.926 -1.490 -0.0951 -0.6924 -0.7152
-0.847 0.973 -1.501 0.4600 -0.4279 -0.7780
-0.779 1.050 -1.459 0.8393 -0.0000 -0.5436
-0.768 1.127 -1.379 0.8981 0.4279 -0.1016
-0.819 1.175 -1.293 0.6138 0.6924 0.3792
-0.913 1.175 -1.232 0.0951 0.6924 0.7152
-1.012 1.127 -1.221 -0.4600 0.4279 0.7780
-0.099 -0.650 0.252 -0.8393 0.0000 0.5436
-0.110 -0.727 0.173 -0.8981 -0.4279 0.1016
-0.058 -0.775 0.086 -0.6138 -0.6924 -0.3792
0.035 -0.775 0.026 -0.0951 -0.6924 -0.7152
0.135 -0.727 0.015 0.4600 -0.4279 -0.7780
0.203 -0.650 0.057 0.8393 -0.0000 -0.5436
0.214 -0.573 0.136 0.8981 0.4279 -0.1016
0.163 -0.525 0.223 0.6138 0.6924 0.3792
0.069 -0.525 0.283 0.0951 0.6924 0.7152
-0.031 -0.573 0.295 -0.4600 0.4279 0.7780
-0.930 1.050 -1.361 -0.3958 0.6855 -0.6111
-1.081 1.050 -1.263 -0.3958 0.6855 -0.6111
-1.091 0.973 -1.343 -0.3958 0.6855 -0.6111
-1.040 0.926 -1.429 -0.3958 0.6855 -0.6111
-0.947 0.926 -1.490 -0.3958 0.6855 -0.6111
-0.847 0.973 -1.501 -0.3958 0.6855 -0.6111
-0.779 1.050 -1.459 -0.3958 0.6855 -0.6111
-0.768 1.127 -1.379 -0.3958 0.6855 -0.6111
-0.819 1.175 -1.293 -0.3958 0.6855 -0.6111
-0.913 1.175 -1.232 -0.3958 0.6855 -0.6111
-1.012 1.127 -1.221 -0.3958 0.6855 -0.6111
0.052 -0.650 0.155 0.3958 -0.6855 0.6111
-0.099 -0.650 0.252 0.3958 -0.6855 0.6111
-0.110 -0.727 0.173 0.3958 -0.6855 0.6111
-0.058 -0.775 0.086 0.3958 -0.6855 0.6111
0.035 -0.775 0.026 0.3958 -0.6855 0.6111
0.135 -0.727 0.015 0.3958 -0.6855 0.6111
0.203 -0.650 0.057 0.3958 -0.6855 0.6111
0.214 -0.573 0.136 0.3958 -0.6855 0.6111
0.163 -0.525 0.223 0.3958 -0.6855 0.6111
0.069 -0.525 0.283 0.3958 -0.6855 0.6111
-0.031 -0.573 0.295 0.3958 -0.6855 0.6111
0 1 11
0 11 10
1 2 12
1 12 11
2 3 13
2 13 12
3 4 14
3 14 13
4 5 15
4 15 14
5 6 16
5 16 15
6 7 17
6 17 16
7 8 18
7 18 17
8 9 19
8 19 18
9 0 10
9 10 19
20 22 21
20 23 22
20 24 23
20 25 24
20 26 25
20 27 26
20 28 27
20 29 28
20 30 29
20 21 30
31 32 33
31 33 34
31 34 35
31 35 36
31 36 37
31 37 38
31 38 39
31 39 40
31 40 41
31 41 32
LABEL kfoot_skirt_0_0
MATERIAL 7
TEXTURE 0
GEOM 16 12 ;kfoot_skirt_0_0
-0.360 -3.076 1.501 0.3467 -0.9380 0.0000
-0.035 -2.976 1.501 0.3467 -0.9380 0.0000
0.283 -2.858 1.501 0.3467 -0.9380 0.0000
0.595 -2.723 1.501 0.3467 -0.9380 0.0000
-0.360 -3.076 0.601 0.3467 -0.9380 0.0000
-0.035 -2.976 0.601 0.3467 -0.9380 0.0000
0.283 -2.858 0.601 0.3467 -0.9380 0.0000
0.595 -2.723 0.601 0.3467 -0.9380 0.0000
-0.360 -3.076 1.501 -0.3467 0.9380 -0.0000
-0.035 -2.976 1.501 -0.3467 0.9380 -0.0000
0.283 -2.858 1.501 -0.3467 0.9380 -0.0000
0.595 -2.723 1.501 -0.3467 0.9380 -0.0000
-0.360 -3.076 0.601 -0.3467 0.9380 -0.0000
-0.035 -2.976 0.601 -0.3467 0.9380 -0.0000
0.283 -2.858 0.601 -0.3467 0.9380 -0.0000
0.595 -2.723 0.601 -0.3467 0.9380 -0.0000
0 5 1
0 4 5
8 9 13
8 13 12
1 6 2
1 5 6
9 10 14
9 14 13
2 7 3
2 6 7
10 11 15
10 15 14
LABEL kfoot_skirt_0_1
MATERIAL 7
TEXTURE 0
GEOM 16 12 ;kfoot_skirt_0_1
0.618 -2.712 1.501 0.5000 -0.8660 0.0000
0.941 -2.550 1.501 0.5000 -0.8660 0.0000
1.253 -2.370 1.501 0.5000 -0.8660 0.0000
1.555 -2.172 1.501 0.5000 -0.8660 0.0000
0.618 -2.712 0.601 0.5000 -0.8660 0.0000
0.941 -2.550 0.601 0.5000 -0.8660 0.0000
1.253 -2.370 0.601 0.5000 -0.8660 0.0000
1.555 -2.172 0.601 0.5000 -0.8660 0.0000
0.618 -2.712 1.501 -0.5000 0.8660 -0.0000
0.941 -2.550 1.501 -0.5000 0.8660 -0.0000
1.253 -2.370 1.501 -0.5000 0.8660 -0.0000
1.555 -2.172 1.501 -0.5000 0.8660 -0.0000
0.618 -2.712 0.601 -0.5000 0.8660 -0.0000
0.941 -2.550 0.601 -0.5000 0.8660 -0.0000
1.253 -2.370 0.601 -0.5000 0.8660 -0.0000
1.555 -2.172 0.601 -0.5000 0.8660 -0.0000
0 5 1
0 4 5
8 9 13
8 13 12
1 6 2
1 5 6
9 10 14
9 14 13
2 7 3
2 6 7
10 11 15
10 15 14
LABEL kfoot_skirt_0_2
MATERIAL 7
TEXTURE 0
GEOM 16 12 ;kfoot_skirt_0_2
1.576 -2.157 1.501 0.6389 -0.7692 0.0000
1.848 -1.954 1.501 0.6389 -0.7692 0.0000
2.110 -1.737 1.501 0.6389 -0.7692 0.0000
2.359 -1.506 1.501 0.6389 -0.7692 0.0000
1.576 -2.157 0.601 0.6389 -0.7692 0.0000
1.848 -1.954 0.601 0.6389 -0.7692 0.0000
2.110 -1.737 0.601 0.6389 -0.7692 0.0000
2.359 -1.506 0.601 0.6389 -0.7692 0.0000
1.576 -2.157 1.501 -0.6389 0.7692 -0.0000
1.848 -1.954 1.501 -0.6389 0.7692 -0.0000
2.110 -1.737 1.501 -0.6389 0.7692 -0.0000
2.359 -1.506 1.501 -0.6389 0.7692 -0.0000
1.576 -2.157 0.601 -0.6389 0.7692 -0.0000
1.848 -1.954 0.601 -0.6389 0.7692 -0.0000
2.110 -1.737 0.601 -0.6389 0.7692 -0.0000
2.359 -1.506 0.601 -0.6389 0.7692 -0.0000
0 5 1
0 4 5
8 9 13
8 13 12
1 6 2
1 5 6
9 10 14
9 14 13
2 7 3
2 6 7
10 11 15
10 15 14
MATERIALS 82
hull_lacquer
nose_iridium
crest_radiator
structure
boron_nitride
engine_metal
mechanism
dark
band
planetary_cup
rover
shuttle
trap_shell
canopy
br_vault
br_floor
br_panel
br_panel_face
br_tub
br_holo
br_screen
br_glow
br_display
br_green
br_red
br_amber
br_seat
br_cushion
br_bezel
br_rib
br_lamp
br_cove
br_vault_lit
br_floor_lit
br_belt
in_floor
in_wall
in_ceiling
in_light
in_furn
in_seat
in_metal
in_wet
in_screen
in_trim
in_green
in_amber
in_red
in_guide
in_btn_dim
in_wall_w
in_floor_w
in_ceil_w
in_metal_w
in_trim_w
in_guide_w
in_fx
in_downlight
in_cove
lift_glass
in_wip
in_btn_cap
in_cablight
in_glass
in_wall_r
in_floor_r
in_ceil_r
in_metal_r
in_dutyred
in_door
in_wall_d
in_floor_d
in_ceil_d
in_metal_d
br_malachite
br_cur_ball
br_cur_lit
br_spot
br_cover
br_glass_disp
br_hud_glass
belly_carbide
MATERIAL hull_lacquer
0.800 0.790 0.760 1.00
0.800 0.790 0.760 1.00
0.300 0.300 0.300 1 20
0.000 0.000 0.000 1
MATERIAL nose_iridium
0.720 0.480 0.180 1.00
0.720 0.480 0.180 1.00
0.950 0.850 0.600 1 80
0.000 0.000 0.000 1
MATERIAL crest_radiator
0.130 0.130 0.140 1.00
0.130 0.130 0.140 1.00
0.150 0.150 0.150 1 10
0.000 0.000 0.000 1
MATERIAL structure
0.260 0.270 0.290 1.00
0.260 0.270 0.290 1.00
0.200 0.200 0.200 1 15
0.000 0.000 0.000 1
MATERIAL boron_nitride
0.620 0.580 0.920 1.00
0.620 0.580 0.920 1.00
0.600 0.600 0.700 1 40
0.080 0.060 0.200 1
MATERIAL engine_metal
0.220 0.220 0.240 1.00
0.220 0.220 0.240 1.00
0.500 0.500 0.500 1 40
0.000 0.000 0.000 1
MATERIAL mechanism
0.540 0.560 0.600 1.00
0.540 0.560 0.600 1.00
0.700 0.700 0.720 1 50
0.000 0.000 0.000 1
MATERIAL dark
0.070 0.070 0.090 1.00
0.070 0.070 0.090 1.00
0.050 0.050 0.050 1 5
0.000 0.000 0.000 1
MATERIAL band
0.300 0.310 0.330 1.00
0.300 0.310 0.330 1.00
0.500 0.550 0.650 1 40
0.000 0.000 0.000 1
MATERIAL planetary_cup
0.600 0.700 0.850 1.00
0.600 0.700 0.850 1.00
0.700 0.700 0.800 1 50
0.030 0.060 0.100 1
MATERIAL rover
0.550 0.480 0.320 1.00
0.550 0.480 0.320 1.00
0.300 0.300 0.300 1 20
0.000 0.000 0.000 1
MATERIAL shuttle
0.850 0.840 0.810 1.00
0.850 0.840 0.810 1.00
0.400 0.400 0.400 1 30
0.000 0.000 0.000 1
MATERIAL trap_shell
0.440 0.470 0.560 1.00
0.440 0.470 0.560 1.00
0.450 0.450 0.500 1 30
0.000 0.000 0.000 1
MATERIAL canopy
0.360 0.370 0.400 1.00
0.360 0.370 0.400 1.00
0.550 0.550 0.600 1 35
0.000 0.000 0.000 1
MATERIAL br_vault
0.150 0.160 0.180 1.00
0.150 0.160 0.180 1.00
0.060 0.060 0.070 1 8
0.026 0.030 0.038 1
MATERIAL br_floor
0.550 0.580 0.620 1.00
0.550 0.580 0.620 1.00
0.350 0.360 0.400 1 40
0.160 0.180 0.210 1
MATERIAL br_panel
0.170 0.180 0.200 1.00
0.170 0.180 0.200 1.00
0.200 0.210 0.240 1 20
0.028 0.032 0.040 1
MATERIAL br_panel_face
0.240 0.250 0.280 1.00
0.240 0.250 0.280 1.00
0.300 0.320 0.360 1 30
0.042 0.047 0.056 1
MATERIAL br_tub
0.300 0.310 0.340 1.00
0.300 0.310 0.340 1.00
0.250 0.260 0.300 1 25
0.050 0.055 0.066 1
MATERIAL br_holo
0.050 0.200 0.260 1.00
0.050 0.200 0.260 1.00
0.000 0.000 0.000 1 1
0.060 0.260 0.340 1
MATERIAL br_screen
0.020 0.030 0.060 1.00
0.020 0.030 0.060 1.00
0.300 0.300 0.400 1 40
0.030 0.050 0.100 1
MATERIAL br_glow
0.400 0.900 1.000 1.00
0.400 0.900 1.000 1.00
0.000 0.000 0.000 1 1
0.300 0.700 0.900 1
MATERIAL br_display
1.000 1.000 1.000 1.00
1.000 1.000 1.000 1.00
0.000 0.000 0.000 1 1
1.000 1.000 1.000 1
MATERIAL br_green
0.300 1.000 0.500 1.00
0.300 1.000 0.500 1.00
0.000 0.000 0.000 1 1
0.200 0.900 0.400 1
MATERIAL br_red
0.900 0.200 0.150 1.00
0.900 0.200 0.150 1.00
0.300 0.100 0.100 1 20
0.500 0.080 0.050 1
MATERIAL br_amber
1.000 0.800 0.300 1.00
1.000 0.800 0.300 1.00
0.000 0.000 0.000 1 1
0.700 0.500 0.100 1
MATERIAL br_seat
0.200 0.210 0.230 1.00
0.200 0.210 0.230 1.00
0.300 0.300 0.350 1 30
0.024 0.026 0.030 1
MATERIAL br_cushion
0.210 0.240 0.290 1.00
0.210 0.240 0.290 1.00
0.100 0.100 0.120 1 10
0.028 0.032 0.040 1
MATERIAL br_bezel
0.620 0.640 0.680 1.00
0.620 0.640 0.680 1.00
0.400 0.410 0.450 1 40
0.075 0.080 0.090 1
MATERIAL br_rib
0.220 0.230 0.260 1.00
0.220 0.230 0.260 1.00
0.300 0.310 0.350 1 30
0.034 0.038 0.046 1
MATERIAL br_lamp
0.800 0.880 1.000 1.00
0.800 0.880 1.000 1.00
0.000 0.000 0.000 1 1
0.620 0.700 0.800 1
MATERIAL br_cove
0.300 0.550 0.800 1.00
0.300 0.550 0.800 1.00
0.000 0.000 0.000 1 1
0.160 0.300 0.460 1
MATERIAL br_vault_lit
0.060 0.060 0.070 1.00
0.060 0.060 0.070 1.00
0.040 0.040 0.050 1 8
1.000 1.000 1.000 1
MATERIAL br_floor_lit
0.080 0.080 0.090 1.00
0.080 0.080 0.090 1.00
0.100 0.100 0.120 1 20
1.000 1.000 1.000 1
MATERIAL br_belt
0.880 0.560 0.160 1.00
0.880 0.560 0.160 1.00
0.100 0.100 0.100 1 10
0.000 0.000 0.000 1
MATERIAL in_floor
0.500 0.500 0.500 1.00
0.500 0.500 0.500 1.00
0.100 0.100 0.100 1 10
0.500 0.500 0.520 1
MATERIAL in_wall
0.450 0.450 0.450 1.00
0.450 0.450 0.450 1.00
0.050 0.050 0.050 1 5
0.600 0.600 0.620 1
MATERIAL in_ceiling
0.450 0.450 0.450 1.00
0.450 0.450 0.450 1.00
0.000 0.000 0.000 1 1
0.550 0.550 0.570 1
MATERIAL in_light
1.000 0.970 0.880 1.00
1.000 0.970 0.880 1.00
0.000 0.000 0.000 1 1
1.000 0.960 0.840 1
MATERIAL in_furn
0.300 0.310 0.340 1.00
0.300 0.310 0.340 1.00
0.100 0.100 0.100 1 10
0.150 0.150 0.170 1
MATERIAL in_seat
0.120 0.150 0.220 1.00
0.120 0.150 0.220 1.00
0.150 0.150 0.200 1 15
0.060 0.080 0.130 1
MATERIAL in_metal
0.500 0.500 0.500 1.00
0.500 0.500 0.500 1.00
0.500 0.500 0.500 1 30
0.550 0.550 0.580 1
MATERIAL in_wet
0.360 0.500 0.550 1.00
0.360 0.500 0.550 1.00
0.200 0.200 0.250 1 20
0.130 0.190 0.210 1
MATERIAL in_screen
0.040 0.080 0.160 1.00
0.040 0.080 0.160 1.00
0.300 0.300 0.400 1 40
0.100 0.280 0.500 1
MATERIAL in_trim
0.600 0.600 0.600 1.00
0.600 0.600 0.600 1.00
0.100 0.100 0.100 1 10
0.500 0.500 0.500 1
MATERIAL in_green
0.100 0.600 0.250 1.00
0.100 0.600 0.250 1.00
0.000 0.000 0.000 1 1
0.150 1.000 0.400 1
MATERIAL in_amber
0.700 0.450 0.050 1.00
0.700 0.450 0.050 1.00
0.000 0.000 0.000 1 1
1.000 0.620 0.080 1
MATERIAL in_red
0.700 0.100 0.080 1.00
0.700 0.100 0.080 1.00
0.000 0.000 0.000 1 1
1.000 0.150 0.100 1
MATERIAL in_guide
0.200 0.500 0.700 1.00
0.200 0.500 0.700 1.00
0.000 0.000 0.000 1 1
0.250 0.750 1.000 1
MATERIAL in_btn_dim
0.160 0.180 0.200 1.00
0.160 0.180 0.200 1.00
0.300 0.300 0.300 1 20
0.040 0.050 0.060 1
MATERIAL in_wall_w
0.500 0.500 0.510 1.00
0.500 0.500 0.510 1.00
0.080 0.080 0.090 1 12
0.065 0.065 0.075 1
MATERIAL in_floor_w
0.500 0.500 0.500 1.00
0.500 0.500 0.500 1.00
0.450 0.450 0.480 1 40
0.040 0.040 0.045 1
MATERIAL in_ceil_w
0.400 0.400 0.410 1.00
0.400 0.400 0.410 1.00
0.000 0.000 0.000 1 1
0.035 0.035 0.040 1
MATERIAL in_metal_w
0.450 0.450 0.470 1.00
0.450 0.450 0.470 1.00
0.400 0.400 0.420 1 30
0.070 0.070 0.080 1
MATERIAL in_trim_w
0.500 0.500 0.500 1.00
0.500 0.500 0.500 1.00
0.100 0.100 0.100 1 10
0.140 0.140 0.140 1
MATERIAL in_guide_w
0.250 0.420 0.420 1.00
0.250 0.420 0.420 1.00
0.000 0.000 0.000 1 1
0.160 0.360 0.380 1
MATERIAL in_fx
1.000 1.000 1.000 1.00
1.000 1.000 1.000 1.00
0.000 0.000 0.000 1 1
1.000 1.000 1.000 1
MATERIAL in_downlight
1.000 0.860 0.620 1.00
1.000 0.860 0.620 1.00
0.000 0.000 0.000 1 1
1.000 0.840 0.580 1
MATERIAL in_cove
0.300 0.400 0.620 1.00
0.300 0.400 0.620 1.00
0.000 0.000 0.000 1 1
0.260 0.360 0.580 1
MATERIAL lift_glass
0.450 0.600 0.700 0.22
0.450 0.600 0.700 0.22
0.800 0.800 0.850 1 60
0.020 0.030 0.040 1
MATERIAL in_wip
0.950 0.420 0.060 1.00
0.950 0.420 0.060 1.00
0.300 0.250 0.200 1 20
0.400 0.170 0.020 1
MATERIAL in_btn_cap
0.550 0.560 0.580 1.00
0.550 0.560 0.580 1.00
0.350 0.350 0.350 1 30
0.300 0.310 0.320 1
MATERIAL in_cablight
0.950 0.930 0.860 1.00
0.950 0.930 0.860 1.00
0.000 0.000 0.000 1 1
0.800 0.770 0.680 1
MATERIAL in_glass
1.000 1.000 1.000 1.00
1.000 1.000 1.000 1.00
0.900 0.900 0.900 1 60
0.120 0.130 0.150 1
MATERIAL in_wall_r
0.400 0.380 0.380 1.00
0.400 0.380 0.380 1.00
0.050 0.050 0.050 1 5
0.050 0.012 0.011 1
MATERIAL in_floor_r
0.400 0.380 0.380 1.00
0.400 0.380 0.380 1.00
0.200 0.200 0.200 1 30
0.032 0.007 0.007 1
MATERIAL in_ceil_r
0.350 0.330 0.330 1.00
0.350 0.330 0.330 1.00
0.000 0.000 0.000 1 1
0.028 0.006 0.006 1
MATERIAL in_metal_r
0.400 0.380 0.380 1.00
0.400 0.380 0.380 1.00
0.300 0.300 0.300 1 30
0.045 0.011 0.010 1
MATERIAL in_dutyred
0.600 0.080 0.050 1.00
0.600 0.080 0.050 1.00
0.000 0.000 0.000 1 1
0.550 0.050 0.030 1
MATERIAL in_door
0.550 0.550 0.560 1.00
0.550 0.550 0.560 1.00
0.250 0.250 0.270 1 25
0.075 0.075 0.080 1
MATERIAL in_wall_d
0.080 0.080 0.085 1.00
0.080 0.080 0.085 1.00
0.020 0.020 0.020 1 5
0.018 0.018 0.020 1
MATERIAL in_floor_d
0.080 0.080 0.080 1.00
0.080 0.080 0.080 1.00
0.050 0.050 0.050 1 10
0.012 0.012 0.013 1
MATERIAL in_ceil_d
0.070 0.070 0.075 1.00
0.070 0.070 0.075 1.00
0.000 0.000 0.000 1 1
0.010 0.010 0.011 1
MATERIAL in_metal_d
0.080 0.080 0.085 1.00
0.080 0.080 0.085 1.00
0.050 0.050 0.050 1 10
0.016 0.016 0.018 1
MATERIAL br_malachite
0.160 0.380 0.310 1.00
0.160 0.380 0.310 1.00
0.400 0.480 0.450 1 35
0.020 0.048 0.040 1
MATERIAL br_cur_ball
0.620 0.860 0.950 0.72
0.620 0.860 0.950 0.72
0.900 0.900 0.900 1 60
0.100 0.260 0.320 1
MATERIAL br_cur_lit
0.780 0.950 1.000 1.00
0.780 0.950 1.000 1.00
0.000 0.000 0.000 1 1
0.780 0.950 1.000 1
MATERIAL br_spot
1.000 0.550 0.120 0.80
1.000 0.550 0.120 0.80
0.000 0.000 0.000 1 1
1.000 0.550 0.120 1
MATERIAL br_cover
1.000 0.350 0.290 0.50
1.000 0.350 0.290 0.50
0.600 0.600 0.600 1 40
0.200 0.040 0.030 1
MATERIAL br_glass_disp
1.000 1.000 1.000 1.00
1.000 1.000 1.000 1.00
0.000 0.000 0.000 1 1
1.000 1.000 1.000 1
MATERIAL br_hud_glass
1.000 1.000 1.000 1.00
1.000 1.000 1.000 1.00
0.000 0.000 0.000 1 1
1.000 1.000 1.000 1
MATERIAL belly_carbide
0.160 0.160 0.170 1.00
0.160 0.160 0.170 1.00
0.150 0.150 0.150 1 10
0.000 0.000 0.000 1
TEXTURES 0
