MSHX1
GROUPS 8
LABEL sfoot0_petal_0
MATERIAL 7
TEXTURE 0
GEOM 66 52 ;sfoot0_petal_0
-1.049 4.948 -0.397 -0.1396 0.9896 0.0332
-1.743 4.851 -0.397 -0.1396 0.9896 0.0332
-1.740 4.836 0.053 -0.1396 0.9896 0.0332
-1.047 4.934 0.053 -0.1396 0.9896 0.0332
0.341 -4.904 -0.727 0.1396 -0.9896 -0.0332
-0.353 -5.002 -0.727 0.1396 -0.9896 -0.0332
-0.350 -5.017 -0.277 0.1396 -0.9896 -0.0332
0.343 -4.919 -0.277 0.1396 -0.9896 -0.0332
-1.049 4.948 -0.397 0.9902 0.1397 0.0000
0.341 -4.904 -0.727 0.9902 0.1397 0.0000
0.343 -4.919 -0.277 0.9902 0.1397 0.0000
-1.047 4.934 0.053 0.9902 0.1397 0.0000
-1.743 4.851 -0.397 -0.9902 -0.1397 -0.0000
-0.353 -5.002 -0.727 -0.9902 -0.1397 -0.0000
-0.350 -5.017 -0.277 -0.9902 -0.1397 -0.0000
-1.740 4.836 0.053 -0.9902 -0.1397 -0.0000
-1.049 4.948 -0.397 -0.0046 0.0328 -0.9995
0.341 -4.904 -0.727 -0.0046 0.0328 -0.9995
-0.353 -5.002 -0.727 -0.0046 0.0328 -0.9995
-1.743 4.851 -0.397 -0.0046 0.0328 -0.9995
-1.047 4.934 0.053 0.0046 -0.0328 0.9995
0.343 -4.919 -0.277 0.0046 -0.0328 0.9995
-0.350 -5.017 -0.277 0.0046 -0.0328 0.9995
-1.740 4.836 0.053 0.0046 -0.0328 0.9995
-0.979 5.169 -0.740 0.0000 0.0000 -1.0000
-0.955 4.994 -0.683 0.0821 -0.5820 -0.8090
-0.940 4.886 -0.533 0.1329 -0.9417 -0.3090
-0.940 4.886 -0.347 0.1329 -0.9417 0.3090
-0.955 4.994 -0.197 0.0821 -0.5820 0.8090
-0.979 5.169 -0.140 0.0000 -0.0000 1.0000
-1.004 5.343 -0.197 -0.0821 0.5820 0.8090
-1.019 5.451 -0.347 -0.1329 0.9417 0.3090
-1.019 5.451 -0.533 -0.1329 0.9417 -0.3090
-1.004 5.343 -0.683 -0.0821 0.5820 -0.8090
-1.871 5.043 -0.740 0.0000 0.0000 -1.0000
-1.846 4.868 -0.683 0.0821 -0.5820 -0.8090
-1.831 4.760 -0.533 0.1329 -0.9417 -0.3090
-1.831 4.760 -0.347 0.1329 -0.9417 0.3090
-1.846 4.868 -0.197 0.0821 -0.5820 0.8090
-1.871 5.043 -0.140 0.0000 -0.0000 1.0000
-1.895 5.217 -0.197 -0.0821 0.5820 0.8090
-1.911 5.325 -0.347 -0.1329 0.9417 0.3090
-1.911 5.325 -0.533 -0.1329 0.9417 -0.3090
-1.895 5.217 -0.683 -0.0821 0.5820 -0.8090
-0.979 5.169 -0.440 0.9902 0.1397 -0.0000
-0.979 5.169 -0.740 0.9902 0.1397 -0.0000
-0.955 4.994 -0.683 0.9902 0.1397 -0.0000
-0.940 4.886 -0.533 0.9902 0.1397 -0.0000
-0.940 4.886 -0.347 0.9902 0.1397 -0.0000
-0.955 4.994 -0.197 0.9902 0.1397 -0.0000
-0.979 5.169 -0.140 0.9902 0.1397 -0.0000
-1.004 5.343 -0.197 0.9902 0.1397 -0.0000
-1.019 5.451 -0.347 0.9902 0.1397 -0.0000
-1.019 5.451 -0.533 0.9902 0.1397 -0.0000
-1.004 5.343 -0.683 0.9902 0.1397 -0.0000
-1.871 5.043 -0.440 -0.9902 -0.1397 0.0000
-1.871 5.043 -0.740 -0.9902 -0.1397 0.0000
-1.846 4.868 -0.683 -0.9902 -0.1397 0.0000
-1.831 4.760 -0.533 -0.9902 -0.1397 0.0000
-1.831 4.760 -0.347 -0.9902 -0.1397 0.0000
-1.846 4.868 -0.197 -0.9902 -0.1397 0.0000
-1.871 5.043 -0.140 -0.9902 -0.1397 0.0000
-1.895 5.217 -0.197 -0.9902 -0.1397 0.0000
-1.911 5.325 -0.347 -0.9902 -0.1397 0.0000
-1.911 5.325 -0.533 -0.9902 -0.1397 0.0000
-1.895 5.217 -0.683 -0.9902 -0.1397 0.0000
0 1 2
0 2 3
4 6 5
4 7 6
8 10 9
8 11 10
12 13 14
12 14 15
16 17 18
16 18 19
20 22 21
20 23 22
24 25 35
24 35 34
25 26 36
25 36 35
26 27 37
26 37 36
27 28 38
27 38 37
28 29 39
28 39 38
29 30 40
29 40 39
30 31 41
30 41 40
31 32 42
31 42 41
32 33 43
32 43 42
33 24 34
33 34 43
44 46 45
44 47 46
44 48 47
44 49 48
44 50 49
44 51 50
44 52 51
44 53 52
44 54 53
44 45 54
55 56 57
55 57 58
55 58 59
55 59 60
55 60 61
55 61 62
55 62 63
55 63 64
55 64 65
55 65 56
LABEL sfoot0_slat_0_0
MATERIAL 7
TEXTURE 0
GEOM 104 76 ;sfoot0_slat_0_0
-1.124 4.828 -0.402 0.0046 -0.0328 0.9995
-1.176 4.808 -0.402 0.0046 -0.0328 0.9995
-1.230 4.791 -0.402 0.0046 -0.0328 0.9995
-1.284 4.776 -0.402 0.0046 -0.0328 0.9995
2.754 -4.607 -0.740 0.0046 -0.0328 0.9995
2.191 -4.820 -0.740 0.0046 -0.0328 0.9995
1.618 -5.004 -0.740 0.0046 -0.0328 0.9995
1.036 -5.156 -0.740 0.0046 -0.0328 0.9995
-1.124 4.828 -0.402 -0.0046 0.0328 -0.9995
-1.176 4.808 -0.402 -0.0046 0.0328 -0.9995
-1.230 4.791 -0.402 -0.0046 0.0328 -0.9995
-1.284 4.776 -0.402 -0.0046 0.0328 -0.9995
2.754 -4.607 -0.740 -0.0046 0.0328 -0.9995
2.191 -4.820 -0.740 -0.0046 0.0328 -0.9995
1.618 -5.004 -0.740 -0.0046 0.0328 -0.9995
1.036 -5.156 -0.740 -0.0046 0.0328 -0.9995
-1.124 4.828 -0.652 -0.0046 0.0328 -0.9995
-1.176 4.808 -0.652 -0.0046 0.0328 -0.9995
-1.230 4.791 -0.652 -0.0046 0.0328 -0.9995
-1.284 4.776 -0.652 -0.0046 0.0328 -0.9995
2.754 -4.607 -0.990 -0.0046 0.0328 -0.9995
2.191 -4.820 -0.990 -0.0046 0.0328 -0.9995
1.618 -5.004 -0.990 -0.0046 0.0328 -0.9995
1.036 -5.156 -0.990 -0.0046 0.0328 -0.9995
-1.124 4.828 -0.652 0.0046 -0.0328 0.9995
-1.176 4.808 -0.652 0.0046 -0.0328 0.9995
-1.230 4.791 -0.652 0.0046 -0.0328 0.9995
-1.284 4.776 -0.652 0.0046 -0.0328 0.9995
2.754 -4.607 -0.990 0.0046 -0.0328 0.9995
2.191 -4.820 -0.990 0.0046 -0.0328 0.9995
1.618 -5.004 -0.990 0.0046 -0.0328 0.9995
1.036 -5.156 -0.990 0.0046 -0.0328 0.9995
2.754 -4.607 -0.990 0.3048 -0.9524 0.0000
2.191 -4.820 -0.990 0.3048 -0.9524 0.0000
1.618 -5.004 -0.990 0.3048 -0.9524 0.0000
1.036 -5.156 -0.990 0.3048 -0.9524 0.0000
2.754 -4.607 -0.740 0.3048 -0.9524 0.0000
2.191 -4.820 -0.740 0.3048 -0.9524 0.0000
1.618 -5.004 -0.740 0.3048 -0.9524 0.0000
1.036 -5.156 -0.740 0.3048 -0.9524 0.0000
2.754 -4.607 -0.990 -0.3048 0.9524 -0.0000
2.191 -4.820 -0.990 -0.3048 0.9524 -0.0000
1.618 -5.004 -0.990 -0.3048 0.9524 -0.0000
1.036 -5.156 -0.990 -0.3048 0.9524 -0.0000
2.754 -4.607 -0.740 -0.3048 0.9524 -0.0000
2.191 -4.820 -0.740 -0.3048 0.9524 -0.0000
1.618 -5.004 -0.740 -0.3048 0.9524 -0.0000
1.036 -5.156 -0.740 -0.3048 0.9524 -0.0000
-1.124 4.828 -0.652 -0.3048 0.9524 -0.0000
-1.176 4.808 -0.652 -0.3048 0.9524 -0.0000
-1.230 4.791 -0.652 -0.3048 0.9524 -0.0000
-1.284 4.776 -0.652 -0.3048 0.9524 -0.0000
-1.124 4.828 -0.402 -0.3048 0.9524 -0.0000
-1.176 4.808 -0.402 -0.3048 0.9524 -0.0000
-1.230 4.791 -0.402 -0.3048 0.9524 -0.0000
-1.284 4.776 -0.402 -0.3048 0.9524 -0.0000
-1.124 4.828 -0.652 0.3048 -0.9524 0.0000
-1.176 4.808 -0.652 0.3048 -0.9524 0.0000
-1.230 4.791 -0.652 0.3048 -0.9524 0.0000
-1.284 4.776 -0.652 0.3048 -0.9524 0.0000
-1.124 4.828 -0.402 0.3048 -0.9524 0.0000
-1.176 4.808 -0.402 0.3048 -0.9524 0.0000
-1.230 4.791 -0.402 0.3048 -0.9524 0.0000
-1.284 4.776 -0.402 0.3048 -0.9524 0.0000
2.754 -4.607 -0.740 0.3048 -0.9524 0.0000
2.191 -4.820 -0.740 0.3048 -0.9524 0.0000
1.618 -5.004 -0.740 0.3048 -0.9524 0.0000
1.036 -5.156 -0.740 0.3048 -0.9524 0.0000
2.754 -4.607 -0.040 0.3048 -0.9524 0.0000
2.191 -4.820 -0.040 0.3048 -0.9524 0.0000
1.618 -5.004 -0.040 0.3048 -0.9524 0.0000
1.036 -5.156 -0.040 0.3048 -0.9524 0.0000
2.754 -4.607 -0.740 -0.3048 0.9524 -0.0000
2.191 -4.820 -0.740 -0.3048 0.9524 -0.0000
1.618 -5.004 -0.740 -0.3048 0.9524 -0.0000
1.036 -5.156 -0.740 -0.3048 0.9524 -0.0000
2.754 -4.607 -0.040 -0.3048 0.9524 -0.0000
2.191 -4.820 -0.040 -0.3048 0.9524 -0.0000
1.618 -5.004 -0.040 -0.3048 0.9524 -0.0000
1.036 -5.156 -0.040 -0.3048 0.9524 -0.0000
2.754 -4.607 -0.040 -0.0000 -0.0000 1.0000
2.191 -4.820 -0.040 -0.0000 -0.0000 1.0000
1.618 -5.004 -0.040 -0.0000 -0.0000 1.0000
1.036 -5.156 -0.040 -0.0000 -0.0000 1.0000
2.621 -4.283 -0.029 -0.0000 -0.0000 1.0000
2.076 -4.490 -0.029 -0.0000 -0.0000 1.0000
1.520 -4.668 -0.029 -0.0000 -0.0000 1.0000
0.956 -4.816 -0.029 -0.0000 -0.0000 1.0000
2.754 -4.607 -0.040 0.0000 0.0000 -1.0000
2.191 -4.820 -0.040 0.0000 0.0000 -1.0000
1.618 -5.004 -0.040 0.0000 0.0000 -1.0000
1.036 -5.156 -0.040 0.0000 0.0000 -1.0000
2.621 -4.283 -0.029 0.0000 0.0000 -1.0000
2.076 -4.490 -0.029 0.0000 0.0000 -1.0000
1.520 -4.668 -0.029 0.0000 0.0000 -1.0000
0.956 -4.816 -0.029 0.0000 0.0000 -1.0000
-1.124 4.828 -0.652 -0.9249 -0.3801 -0.0000
2.754 -4.607 -0.990 -0.9249 -0.3801 -0.0000
-1.124 4.828 -0.402 -0.9249 -0.3801 -0.0000
2.754 -4.607 -0.740 -0.9249 -0.3801 -0.0000
-1.124 4.828 -0.652 0.9249 0.3801 0.0000
2.754 -4.607 -0.990 0.9249 0.3801 0.0000
-1.124 4.828 -0.402 0.9249 0.3801 0.0000
2.754 -4.607 -0.740 0.9249 0.3801 0.0000
0 1 5
0 5 4
8 13 9
8 12 13
1 2 6
1 6 5
9 14 10
9 13 14
2 3 7
2 7 6
10 15 11
10 14 15
16 21 17
16 20 21
24 25 29
24 29 28
17 22 18
17 21 22
25 26 30
25 30 29
18 23 19
18 22 23
26 27 31
26 31 30
32 37 33
32 36 37
40 41 45
40 45 44
33 38 34
33 37 38
41 42 46
41 46 45
34 39 35
34 38 39
42 43 47
42 47 46
48 49 53
48 53 52
56 61 57
56 60 61
49 50 54
49 54 53
57 62 58
57 61 62
50 51 55
50 55 54
58 63 59
58 62 63
64 69 65
64 68 69
72 73 77
72 77 76
65 70 66
65 69 70
73 74 78
73 78 77
66 71 67
66 70 71
74 75 79
74 79 78
80 85 81
80 84 85
88 89 93
88 93 92
81 86 82
81 85 86
89 90 94
89 94 93
82 87 83
82 86 87
90 91 95
90 95 94
96 97 99
96 99 98
100 103 101
100 102 103
LABEL sfoot0_slat_0_1
MATERIAL 7
TEXTURE 0
GEOM 96 72 ;sfoot0_slat_0_1
-1.288 4.775 -0.402 0.0046 -0.0328 0.9995
-1.347 4.764 -0.402 0.0046 -0.0328 0.9995
-1.406 4.755 -0.402 0.0046 -0.0328 0.9995
-1.465 4.750 -0.402 0.0046 -0.0328 0.9995
0.992 -5.167 -0.740 0.0046 -0.0328 0.9995
0.365 -5.292 -0.740 0.0046 -0.0328 0.9995
-0.268 -5.381 -0.740 0.0046 -0.0328 0.9995
-0.906 -5.434 -0.740 0.0046 -0.0328 0.9995
-1.288 4.775 -0.402 -0.0046 0.0328 -0.9995
-1.347 4.764 -0.402 -0.0046 0.0328 -0.9995
-1.406 4.755 -0.402 -0.0046 0.0328 -0.9995
-1.465 4.750 -0.402 -0.0046 0.0328 -0.9995
0.992 -5.167 -0.740 -0.0046 0.0328 -0.9995
0.365 -5.292 -0.740 -0.0046 0.0328 -0.9995
-0.268 -5.381 -0.740 -0.0046 0.0328 -0.9995
-0.906 -5.434 -0.740 -0.0046 0.0328 -0.9995
-1.288 4.775 -0.652 -0.0046 0.0328 -0.9995
-1.347 4.764 -0.652 -0.0046 0.0328 -0.9995
-1.406 4.755 -0.652 -0.0046 0.0328 -0.9995
-1.465 4.750 -0.652 -0.0046 0.0328 -0.9995
0.992 -5.167 -0.990 -0.0046 0.0328 -0.9995
0.365 -5.292 -0.990 -0.0046 0.0328 -0.9995
-0.268 -5.381 -0.990 -0.0046 0.0328 -0.9995
-0.906 -5.434 -0.990 -0.0046 0.0328 -0.9995
-1.288 4.775 -0.652 0.0046 -0.0328 0.9995
-1.347 4.764 -0.652 0.0046 -0.0328 0.9995
-1.406 4.755 -0.652 0.0046 -0.0328 0.9995
-1.465 4.750 -0.652 0.0046 -0.0328 0.9995
0.992 -5.167 -0.990 0.0046 -0.0328 0.9995
0.365 -5.292 -0.990 0.0046 -0.0328 0.9995
-0.268 -5.381 -0.990 0.0046 -0.0328 0.9995
-0.906 -5.434 -0.990 0.0046 -0.0328 0.9995
0.992 -5.167 -0.990 0.1397 -0.9902 0.0000
0.365 -5.292 -0.990 0.1397 -0.9902 0.0000
-0.268 -5.381 -0.990 0.1397 -0.9902 0.0000
-0.906 -5.434 -0.990 0.1397 -0.9902 0.0000
0.992 -5.167 -0.740 0.1397 -0.9902 0.0000
0.365 -5.292 -0.740 0.1397 -0.9902 0.0000
-0.268 -5.381 -0.740 0.1397 -0.9902 0.0000
-0.906 -5.434 -0.740 0.1397 -0.9902 0.0000
0.992 -5.167 -0.990 -0.1397 0.9902 -0.0000
0.365 -5.292 -0.990 -0.1397 0.9902 -0.0000
-0.268 -5.381 -0.990 -0.1397 0.9902 -0.0000
-0.906 -5.434 -0.990 -0.1397 0.9902 -0.0000
0.992 -5.167 -0.740 -0.1397 0.9902 -0.0000
0.365 -5.292 -0.740 -0.1397 0.9902 -0.0000
-0.268 -5.381 -0.740 -0.1397 0.9902 -0.0000
-0.906 -5.434 -0.740 -0.1397 0.9902 -0.0000
-1.288 4.775 -0.652 -0.1397 0.9902 -0.0000
-1.347 4.764 -0.652 -0.1397 0.9902 -0.0000
-1.406 4.755 -0.652 -0.1397 0.9902 -0.0000
-1.465 4.750 -0.652 -0.1397 0.9902 -0.0000
-1.288 4.775 -0.402 -0.1397 0.9902 -0.0000
-1.347 4.764 -0.402 -0.1397 0.9902 -0.0000
-1.406 4.755 -0.402 -0.1397 0.9902 -0.0000
-1.465 4.750 -0.402 -0.1397 0.9902 -0.0000
-1.288 4.775 -0.652 0.1397 -0.9902 0.0000
-1.347 4.764 -0.652 0.1397 -0.9902 0.0000
-1.406 4.755 -0.652 0.1397 -0.9902 0.0000
-1.465 4.750 -0.652 0.1397 -0.9902 0.0000
-1.288 4.775 -0.402 0.1397 -0.9902 0.0000
-1.347 4.764 -0.402 0.1397 -0.9902 0.0000
-1.406 4.755 -0.402 0.1397 -0.9902 0.0000
-1.465 4.750 -0.402 0.1397 -0.9902 0.0000
0.992 -5.167 -0.740 0.1397 -0.9902 0.0000
0.365 -5.292 -0.740 0.1397 -0.9902 0.0000
-0.268 -5.381 -0.740 0.1397 -0.9902 0.0000
-0.906 -5.434 -0.740 0.1397 -0.9902 0.0000
0.992 -5.167 -0.040 0.1397 -0.9902 0.0000
0.365 -5.292 -0.040 0.1397 -0.9902 0.0000
-0.268 -5.381 -0.040 0.1397 -0.9902 0.0000
-0.906 -5.434 -0.040 0.1397 -0.9902 0.0000
0.992 -5.167 -0.740 -0.1397 0.9902 -0.0000
0.365 -5.292 -0.740 -0.1397 0.9902 -0.0000
-0.268 -5.381 -0.740 -0.1397 0.9902 -0.0000
-0.906 -5.434 -0.740 -0.1397 0.9902 -0.0000
0.992 -5.167 -0.040 -0.1397 0.9902 -0.0000
0.365 -5.292 -0.040 -0.1397 0.9902 -0.0000
-0.268 -5.381 -0.040 -0.1397 0.9902 -0.0000
-0.906 -5.434 -0.040 -0.1397 0.9902 -0.0000
0.992 -5.167 -0.040 -0.0000 -0.0000 1.0000
0.365 -5.292 -0.040 -0.0000 -0.0000 1.0000
-0.268 -5.381 -0.040 -0.0000 -0.0000 1.0000
-0.906 -5.434 -0.040 -0.0000 -0.0000 1.0000
0.914 -4.825 -0.029 -0.0000 -0.0000 1.0000
0.306 -4.947 -0.029 -0.0000 -0.0000 1.0000
-0.307 -5.033 -0.029 -0.0000 -0.0000 1.0000
-0.925 -5.085 -0.029 -0.0000 -0.0000 1.0000
0.992 -5.167 -0.040 0.0000 0.0000 -1.0000
0.365 -5.292 -0.040 0.0000 0.0000 -1.0000
-0.268 -5.381 -0.040 0.0000 0.0000 -1.0000
-0.906 -5.434 -0.040 0.0000 0.0000 -1.0000
0.914 -4.825 -0.029 0.0000 0.0000 -1.0000
0.306 -4.947 -0.029 0.0000 0.0000 -1.0000
-0.307 -5.033 -0.029 0.0000 0.0000 -1.0000
-0.925 -5.085 -0.029 0.0000 0.0000 -1.0000
0 1 5
0 5 4
8 13 9
8 12 13
1 2 6
1 6 5
9 14 10
9 13 14
2 3 7
2 7 6
10 15 11
10 14 15
16 21 17
16 20 21
24 25 29
24 29 28
17 22 18
17 21 22
25 26 30
25 30 29
18 23 19
18 22 23
26 27 31
26 31 30
32 37 33
32 36 37
40 41 45
40 45 44
33 38 34
33 37 38
41 42 46
41 46 45
34 39 35
34 38 39
42 43 47
42 47 46
48 49 53
48 53 52
56 61 57
56 60 61
49 50 54
49 54 53
57 62 58
57 61 62
50 51 55
50 55 54
58 63 59
58 62 63
64 69 65
64 68 69
72 73 77
72 77 76
65 70 66
65 69 70
73 74 78
73 78 77
66 71 67
66 70 71
74 75 79
74 79 78
80 85 81
80 84 85
88 89 93
88 93 92
81 86 82
81 85 86
89 90 94
89 94 93
82 87 83
82 86 87
90 91 95
90 95 94
LABEL sfoot0_slat_0_2
MATERIAL 7
TEXTURE 0
GEOM 104 76 ;sfoot0_slat_0_2
-1.469 4.750 -0.402 0.0046 -0.0328 0.9995
-1.526 4.749 -0.402 0.0046 -0.0328 0.9995
-1.582 4.751 -0.402 0.0046 -0.0328 0.9995
-1.638 4.755 -0.402 0.0046 -0.0328 0.9995
-0.951 -5.437 -0.740 0.0046 -0.0328 0.9995
-1.552 -5.451 -0.740 0.0046 -0.0328 0.9995
-2.154 -5.433 -0.740 0.0046 -0.0328 0.9995
-2.754 -5.384 -0.740 0.0046 -0.0328 0.9995
-1.469 4.750 -0.402 -0.0046 0.0328 -0.9995
-1.526 4.749 -0.402 -0.0046 0.0328 -0.9995
-1.582 4.751 -0.402 -0.0046 0.0328 -0.9995
-1.638 4.755 -0.402 -0.0046 0.0328 -0.9995
-0.951 -5.437 -0.740 -0.0046 0.0328 -0.9995
-1.552 -5.451 -0.740 -0.0046 0.0328 -0.9995
-2.154 -5.433 -0.740 -0.0046 0.0328 -0.9995
-2.754 -5.384 -0.740 -0.0046 0.0328 -0.9995
-1.469 4.750 -0.652 -0.0046 0.0328 -0.9995
-1.526 4.749 -0.652 -0.0046 0.0328 -0.9995
-1.582 4.751 -0.652 -0.0046 0.0328 -0.9995
-1.638 4.755 -0.652 -0.0046 0.0328 -0.9995
-0.951 -5.437 -0.990 -0.0046 0.0328 -0.9995
-1.552 -5.451 -0.990 -0.0046 0.0328 -0.9995
-2.154 -5.433 -0.990 -0.0046 0.0328 -0.9995
-2.754 -5.384 -0.990 -0.0046 0.0328 -0.9995
-1.469 4.750 -0.652 0.0046 -0.0328 0.9995
-1.526 4.749 -0.652 0.0046 -0.0328 0.9995
-1.582 4.751 -0.652 0.0046 -0.0328 0.9995
-1.638 4.755 -0.652 0.0046 -0.0328 0.9995
-0.951 -5.437 -0.990 0.0046 -0.0328 0.9995
-1.552 -5.451 -0.990 0.0046 -0.0328 0.9995
-2.154 -5.433 -0.990 0.0046 -0.0328 0.9995
-2.754 -5.384 -0.990 0.0046 -0.0328 0.9995
-0.951 -5.437 -0.990 -0.0294 -0.9996 0.0000
-1.552 -5.451 -0.990 -0.0294 -0.9996 0.0000
-2.154 -5.433 -0.990 -0.0294 -0.9996 0.0000
-2.754 -5.384 -0.990 -0.0294 -0.9996 0.0000
-0.951 -5.437 -0.740 -0.0294 -0.9996 0.0000
-1.552 -5.451 -0.740 -0.0294 -0.9996 0.0000
-2.154 -5.433 -0.740 -0.0294 -0.9996 0.0000
-2.754 -5.384 -0.740 -0.0294 -0.9996 0.0000
-0.951 -5.437 -0.990 0.0294 0.9996 -0.0000
-1.552 -5.451 -0.990 0.0294 0.9996 -0.0000
-2.154 -5.433 -0.990 0.0294 0.9996 -0.0000
-2.754 -5.384 -0.990 0.0294 0.9996 -0.0000
-0.951 -5.437 -0.740 0.0294 0.9996 -0.0000
-1.552 -5.451 -0.740 0.0294 0.9996 -0.0000
-2.154 -5.433 -0.740 0.0294 0.9996 -0.0000
-2.754 -5.384 -0.740 0.0294 0.9996 -0.0000
-1.469 4.750 -0.652 0.0294 0.9996 -0.0000
-1.526 4.749 -0.652 0.0294 0.9996 -0.0000
-1.582 4.751 -0.652 0.0294 0.9996 -0.0000
-1.638 4.755 -0.652 0.0294 0.9996 -0.0000
-1.469 4.750 -0.402 0.0294 0.9996 -0.0000
-1.526 4.749 -0.402 0.0294 0.9996 -0.0000
-1.582 4.751 -0.402 0.0294 0.9996 -0.0000
-1.638 4.755 -0.402 0.0294 0.9996 -0.0000
-1.469 4.750 -0.652 -0.0294 -0.9996 0.0000
-1.526 4.749 -0.652 -0.0294 -0.9996 0.0000
-1.582 4.751 -0.652 -0.0294 -0.9996 0.0000
-1.638 4.755 -0.652 -0.0294 -0.9996 0.0000
-1.469 4.750 -0.402 -0.0294 -0.9996 0.0000
-1.526 4.749 -0.402 -0.0294 -0.9996 0.0000
-1.582 4.751 -0.402 -0.0294 -0.9996 0.0000
-1.638 4.755 -0.402 -0.0294 -0.9996 0.0000
-0.951 -5.437 -0.740 -0.0294 -0.9996 0.0000
-1.552 -5.451 -0.740 -0.0294 -0.9996 0.0000
-2.154 -5.433 -0.740 -0.0294 -0.9996 0.0000
-2.754 -5.384 -0.740 -0.0294 -0.9996 0.0000
-0.951 -5.437 -0.040 -0.0294 -0.9996 0.0000
-1.552 -5.451 -0.040 -0.0294 -0.9996 0.0000
-2.154 -5.433 -0.040 -0.0294 -0.9996 0.0000
-2.754 -5.384 -0.040 -0.0294 -0.9996 0.0000
-0.951 -5.437 -0.740 0.0294 0.9996 -0.0000
-1.552 -5.451 -0.740 0.0294 0.9996 -0.0000
-2.154 -5.433 -0.740 0.0294 0.9996 -0.0000
-2.754 -5.384 -0.740 0.0294 0.9996 -0.0000
-0.951 -5.437 -0.040 0.0294 0.9996 -0.0000
-1.552 -5.451 -0.040 0.0294 0.9996 -0.0000
-2.154 -5.433 -0.040 0.0294 0.9996 -0.0000
-2.754 -5.384 -0.040 0.0294 0.9996 -0.0000
-0.951 -5.437 -0.040 -0.0000 -0.0000 1.0000
-1.552 -5.451 -0.040 -0.0000 -0.0000 1.0000
-2.154 -5.433 -0.040 -0.0000 -0.0000 1.0000
-2.754 -5.384 -0.040 -0.0000 -0.0000 1.0000
-0.968 -5.087 -0.029 -0.0000 -0.0000 1.0000
-1.551 -5.101 -0.029 -0.0000 -0.0000 1.0000
-2.134 -5.084 -0.029 -0.0000 -0.0000 1.0000
-2.716 -5.036 -0.029 -0.0000 -0.0000 1.0000
-0.951 -5.437 -0.040 0.0000 0.0000 -1.0000
-1.552 -5.451 -0.040 0.0000 0.0000 -1.0000
-2.154 -5.433 -0.040 0.0000 0.0000 -1.0000
-2.754 -5.384 -0.040 0.0000 0.0000 -1.0000
-0.968 -5.087 -0.029 0.0000 0.0000 -1.0000
-1.551 -5.101 -0.029 0.0000 0.0000 -1.0000
-2.134 -5.084 -0.029 0.0000 0.0000 -1.0000
-2.716 -5.036 -0.029 0.0000 0.0000 -1.0000
-1.638 4.755 -0.652 -0.9940 0.1094 -0.0000
-2.754 -5.384 -0.990 -0.9940 0.1094 -0.0000
-1.638 4.755 -0.402 -0.9940 0.1094 -0.0000
-2.754 -5.384 -0.740 -0.9940 0.1094 -0.0000
-1.638 4.755 -0.652 0.9940 -0.1094 0.0000
-2.754 -5.384 -0.990 0.9940 -0.1094 0.0000
-1.638 4.755 -0.402 0.9940 -0.1094 0.0000
-2.754 -5.384 -0.740 0.9940 -0.1094 0.0000
0 1 5
0 5 4
8 13 9
8 12 13
1 2 6
1 6 5
9 14 10
9 13 14
2 3 7
2 7 6
10 15 11
10 14 15
16 21 17
16 20 21
24 25 29
24 29 28
17 22 18
17 21 22
25 26 30
25 30 29
18 23 19
18 22 23
26 27 31
26 31 30
32 37 33
32 36 37
40 41 45
40 45 44
33 38 34
33 37 38
41 42 46
41 46 45
34 39 35
34 38 39
42 43 47
42 47 46
48 49 53
48 53 52
56 61 57
56 60 61
49 50 54
49 54 53
57 62 58
57 61 62
50 51 55
50 55 54
58 63 59
58 62 63
64 69 65
64 68 69
72 73 77
72 77 76
65 70 66
65 69 70
73 74 78
73 78 77
66 71 67
66 70 71
74 75 79
74 79 78
80 85 81
80 84 85
88 89 93
88 93 92
81 86 82
81 85 86
89 90 94
89 94 93
82 87 83
82 86 87
90 91 95
90 95 94
96 97 99
96 99 98
100 103 101
100 102 103
LABEL sfoot0_rod_0
MATERIAL 7
TEXTURE 0
GEOM 42 40 ;sfoot0_rod_0
-0.700 1.694 1.733 0.9749 -0.0000 0.2226
-0.774 1.615 1.843 0.6782 -0.3146 0.6641
-0.913 1.567 1.890 0.1224 -0.5091 0.8520
-1.064 1.567 1.856 -0.4801 -0.5091 0.7144
-1.168 1.615 1.753 -0.8992 -0.3146 0.3039
-1.187 1.694 1.621 -0.9749 -0.0000 -0.2226
-1.113 1.772 1.511 -0.6782 0.3146 -0.6641
-0.974 1.821 1.464 -0.1224 0.5091 -0.8520
-0.824 1.821 1.499 0.4801 0.5091 -0.7144
-0.719 1.772 1.601 0.8992 0.3146 -0.3039
-0.228 -1.655 -0.336 0.9749 -0.0000 0.2226
-0.302 -1.733 -0.226 0.6782 -0.3146 0.6641
-0.441 -1.782 -0.179 0.1224 -0.5091 0.8520
-0.591 -1.782 -0.213 -0.4801 -0.5091 0.7144
-0.696 -1.733 -0.316 -0.8992 -0.3146 0.3039
-0.715 -1.655 -0.447 -0.9749 -0.0000 -0.2226
-0.641 -1.576 -0.558 -0.6782 0.3146 -0.6641
-0.502 -1.527 -0.605 -0.1224 0.5091 -0.8520
-0.351 -1.527 -0.570 0.4801 0.5091 -0.7144
-0.246 -1.576 -0.468 0.8992 0.3146 -0.3039
-0.944 1.694 1.677 -0.1192 0.8447 0.5219
-0.700 1.694 1.733 -0.1192 0.8447 0.5219
-0.774 1.615 1.843 -0.1192 0.8447 0.5219
-0.913 1.567 1.890 -0.1192 0.8447 0.5219
-1.064 1.567 1.856 -0.1192 0.8447 0.5219
-1.168 1.615 1.753 -0.1192 0.8447 0.5219
-1.187 1.694 1.621 -0.1192 0.8447 0.5219
-1.113 1.772 1.511 -0.1192 0.8447 0.5219
-0.974 1.821 1.464 -0.1192 0.8447 0.5219
-0.824 1.821 1.499 -0.1192 0.8447 0.5219
-0.719 1.772 1.601 -0.1192 0.8447 0.5219
-0.471 -1.655 -0.392 0.1192 -0.8447 -0.5219
-0.228 -1.655 -0.336 0.1192 -0.8447 -0.5219
-0.302 -1.733 -0.226 0.1192 -0.8447 -0.5219
-0.441 -1.782 -0.179 0.1192 -0.8447 -0.5219
-0.591 -1.782 -0.213 0.1192 -0.8447 -0.5219
-0.696 -1.733 -0.316 0.1192 -0.8447 -0.5219
-0.715 -1.655 -0.447 0.1192 -0.8447 -0.5219
-0.641 -1.576 -0.558 0.1192 -0.8447 -0.5219
-0.502 -1.527 -0.605 0.1192 -0.8447 -0.5219
-0.351 -1.527 -0.570 0.1192 -0.8447 -0.5219
-0.246 -1.576 -0.468 0.1192 -0.8447 -0.5219
0 1 11
0 11 10
1 2 12
1 12 11
2 3 13
2 13 12
3 4 14
3 14 13
4 5 15
4 15 14
5 6 16
5 16 15
6 7 17
6 17 16
7 8 18
7 18 17
8 9 19
8 19 18
9 0 10
9 10 19
20 22 21
20 23 22
20 24 23
20 25 24
20 26 25
20 27 26
20 28 27
20 29 28
20 30 29
20 21 30
31 32 33
31 33 34
31 34 35
31 35 36
31 36 37
31 37 38
31 38 39
31 39 40
31 40 41
31 41 32
LABEL sfoot0_skirt_0_0
MATERIAL 7
TEXTURE 0
GEOM 16 12 ;sfoot0_skirt_0_0
2.754 -4.607 -1.890 0.3048 -0.9524 0.0000
2.191 -4.820 -1.890 0.3048 -0.9524 0.0000
1.618 -5.004 -1.890 0.3048 -0.9524 0.0000
1.036 -5.156 -1.890 0.3048 -0.9524 0.0000
2.754 -4.607 -0.990 0.3048 -0.9524 0.0000
2.191 -4.820 -0.990 0.3048 -0.9524 0.0000
1.618 -5.004 -0.990 0.3048 -0.9524 0.0000
1.036 -5.156 -0.990 0.3048 -0.9524 0.0000
2.754 -4.607 -1.890 -0.3048 0.9524 -0.0000
2.191 -4.820 -1.890 -0.3048 0.9524 -0.0000
1.618 -5.004 -1.890 -0.3048 0.9524 -0.0000
1.036 -5.156 -1.890 -0.3048 0.9524 -0.0000
2.754 -4.607 -0.990 -0.3048 0.9524 -0.0000
2.191 -4.820 -0.990 -0.3048 0.9524 -0.0000
1.618 -5.004 -0.990 -0.3048 0.9524 -0.0000
1.036 -5.156 -0.990 -0.3048 0.9524 -0.0000
0 5 1
0 4 5
8 9 13
8 13 12
1 6 2
1 5 6
9 10 14
9 14 13
2 7 3
2 6 7
10 11 15
10 15 14
LABEL sfoot0_skirt_0_1
MATERIAL 7
TEXTURE 0
GEOM 16 12 ;sfoot0_skirt_0_1
0.992 -5.167 -1.890 0.1397 -0.9902 0.0000
0.365 -5.292 -1.890 0.1397 -0.9902 0.0000
-0.268 -5.381 -1.890 0.1397 -0.9902 0.0000
-0.906 -5.434 -1.890 0.1397 -0.9902 0.0000
0.992 -5.167 -0.990 0.1397 -0.9902 0.0000
0.365 -5.292 -0.990 0.1397 -0.9902 0.0000
-0.268 -5.381 -0.990 0.1397 -0.9902 0.0000
-0.906 -5.434 -0.990 0.1397 -0.9902 0.0000
0.992 -5.167 -1.890 -0.1397 0.9902 -0.0000
0.365 -5.292 -1.890 -0.1397 0.9902 -0.0000
-0.268 -5.381 -1.890 -0.1397 0.9902 -0.0000
-0.906 -5.434 -1.890 -0.1397 0.9902 -0.0000
0.992 -5.167 -0.990 -0.1397 0.9902 -0.0000
0.365 -5.292 -0.990 -0.1397 0.9902 -0.0000
-0.268 -5.381 -0.990 -0.1397 0.9902 -0.0000
-0.906 -5.434 -0.990 -0.1397 0.9902 -0.0000
0 5 1
0 4 5
8 9 13
8 13 12
1 6 2
1 5 6
9 10 14
9 14 13
2 7 3
2 6 7
10 11 15
10 15 14
LABEL sfoot0_skirt_0_2
MATERIAL 7
TEXTURE 0
GEOM 16 12 ;sfoot0_skirt_0_2
-0.951 -5.437 -1.890 -0.0294 -0.9996 0.0000
-1.552 -5.451 -1.890 -0.0294 -0.9996 0.0000
-2.154 -5.433 -1.890 -0.0294 -0.9996 0.0000
-2.754 -5.384 -1.890 -0.0294 -0.9996 0.0000
-0.951 -5.437 -0.990 -0.0294 -0.9996 0.0000
-1.552 -5.451 -0.990 -0.0294 -0.9996 0.0000
-2.154 -5.433 -0.990 -0.0294 -0.9996 0.0000
-2.754 -5.384 -0.990 -0.0294 -0.9996 0.0000
-0.951 -5.437 -1.890 0.0294 0.9996 -0.0000
-1.552 -5.451 -1.890 0.0294 0.9996 -0.0000
-2.154 -5.433 -1.890 0.0294 0.9996 -0.0000
-2.754 -5.384 -1.890 0.0294 0.9996 -0.0000
-0.951 -5.437 -0.990 0.0294 0.9996 -0.0000
-1.552 -5.451 -0.990 0.0294 0.9996 -0.0000
-2.154 -5.433 -0.990 0.0294 0.9996 -0.0000
-2.754 -5.384 -0.990 0.0294 0.9996 -0.0000
0 5 1
0 4 5
8 9 13
8 13 12
1 6 2
1 5 6
9 10 14
9 14 13
2 7 3
2 6 7
10 11 15
10 15 14
MATERIALS 82
hull_lacquer
nose_iridium
crest_radiator
structure
boron_nitride
engine_metal
mechanism
dark
band
planetary_cup
rover
shuttle
trap_shell
canopy
br_vault
br_floor
br_panel
br_panel_face
br_tub
br_holo
br_screen
br_glow
br_display
br_green
br_red
br_amber
br_seat
br_cushion
br_bezel
br_rib
br_lamp
br_cove
br_vault_lit
br_floor_lit
br_belt
in_floor
in_wall
in_ceiling
in_light
in_furn
in_seat
in_metal
in_wet
in_screen
in_trim
in_green
in_amber
in_red
in_guide
in_btn_dim
in_wall_w
in_floor_w
in_ceil_w
in_metal_w
in_trim_w
in_guide_w
in_fx
in_downlight
in_cove
lift_glass
in_wip
in_btn_cap
in_cablight
in_glass
in_wall_r
in_floor_r
in_ceil_r
in_metal_r
in_dutyred
in_door
in_wall_d
in_floor_d
in_ceil_d
in_metal_d
br_malachite
br_cur_ball
br_cur_lit
br_spot
br_cover
br_glass_disp
br_hud_glass
belly_carbide
MATERIAL hull_lacquer
0.800 0.790 0.760 1.00
0.800 0.790 0.760 1.00
0.300 0.300 0.300 1 20
0.000 0.000 0.000 1
MATERIAL nose_iridium
0.720 0.480 0.180 1.00
0.720 0.480 0.180 1.00
0.950 0.850 0.600 1 80
0.000 0.000 0.000 1
MATERIAL crest_radiator
0.130 0.130 0.140 1.00
0.130 0.130 0.140 1.00
0.150 0.150 0.150 1 10
0.000 0.000 0.000 1
MATERIAL structure
0.260 0.270 0.290 1.00
0.260 0.270 0.290 1.00
0.200 0.200 0.200 1 15
0.000 0.000 0.000 1
MATERIAL boron_nitride
0.620 0.580 0.920 1.00
0.620 0.580 0.920 1.00
0.600 0.600 0.700 1 40
0.080 0.060 0.200 1
MATERIAL engine_metal
0.220 0.220 0.240 1.00
0.220 0.220 0.240 1.00
0.500 0.500 0.500 1 40
0.000 0.000 0.000 1
MATERIAL mechanism
0.540 0.560 0.600 1.00
0.540 0.560 0.600 1.00
0.700 0.700 0.720 1 50
0.000 0.000 0.000 1
MATERIAL dark
0.070 0.070 0.090 1.00
0.070 0.070 0.090 1.00
0.050 0.050 0.050 1 5
0.000 0.000 0.000 1
MATERIAL band
0.300 0.310 0.330 1.00
0.300 0.310 0.330 1.00
0.500 0.550 0.650 1 40
0.000 0.000 0.000 1
MATERIAL planetary_cup
0.600 0.700 0.850 1.00
0.600 0.700 0.850 1.00
0.700 0.700 0.800 1 50
0.030 0.060 0.100 1
MATERIAL rover
0.550 0.480 0.320 1.00
0.550 0.480 0.320 1.00
0.300 0.300 0.300 1 20
0.000 0.000 0.000 1
MATERIAL shuttle
0.850 0.840 0.810 1.00
0.850 0.840 0.810 1.00
0.400 0.400 0.400 1 30
0.000 0.000 0.000 1
MATERIAL trap_shell
0.440 0.470 0.560 1.00
0.440 0.470 0.560 1.00
0.450 0.450 0.500 1 30
0.000 0.000 0.000 1
MATERIAL canopy
0.360 0.370 0.400 1.00
0.360 0.370 0.400 1.00
0.550 0.550 0.600 1 35
0.000 0.000 0.000 1
MATERIAL br_vault
0.150 0.160 0.180 1.00
0.150 0.160 0.180 1.00
0.060 0.060 0.070 1 8
0.026 0.030 0.038 1
MATERIAL br_floor
0.550 0.580 0.620 1.00
0.550 0.580 0.620 1.00
0.350 0.360 0.400 1 40
0.160 0.180 0.210 1
MATERIAL br_panel
0.170 0.180 0.200 1.00
0.170 0.180 0.200 1.00
0.200 0.210 0.240 1 20
0.028 0.032 0.040 1
MATERIAL br_panel_face
0.240 0.250 0.280 1.00
0.240 0.250 0.280 1.00
0.300 0.320 0.360 1 30
0.042 0.047 0.056 1
MATERIAL br_tub
0.300 0.310 0.340 1.00
0.300 0.310 0.340 1.00
0.250 0.260 0.300 1 25
0.050 0.055 0.066 1
MATERIAL br_holo
0.050 0.200 0.260 1.00
0.050 0.200 0.260 1.00
0.000 0.000 0.000 1 1
0.060 0.260 0.340 1
MATERIAL br_screen
0.020 0.030 0.060 1.00
0.020 0.030 0.060 1.00
0.300 0.300 0.400 1 40
0.030 0.050 0.100 1
MATERIAL br_glow
0.400 0.900 1.000 1.00
0.400 0.900 1.000 1.00
0.000 0.000 0.000 1 1
0.300 0.700 0.900 1
MATERIAL br_display
1.000 1.000 1.000 1.00
1.000 1.000 1.000 1.00
0.000 0.000 0.000 1 1
1.000 1.000 1.000 1
MATERIAL br_green
0.300 1.000 0.500 1.00
0.300 1.000 0.500 1.00
0.000 0.000 0.000 1 1
0.200 0.900 0.400 1
MATERIAL br_red
0.900 0.200 0.150 1.00
0.900 0.200 0.150 1.00
0.300 0.100 0.100 1 20
0.500 0.080 0.050 1
MATERIAL br_amber
1.000 0.800 0.300 1.00
1.000 0.800 0.300 1.00
0.000 0.000 0.000 1 1
0.700 0.500 0.100 1
MATERIAL br_seat
0.200 0.210 0.230 1.00
0.200 0.210 0.230 1.00
0.300 0.300 0.350 1 30
0.024 0.026 0.030 1
MATERIAL br_cushion
0.210 0.240 0.290 1.00
0.210 0.240 0.290 1.00
0.100 0.100 0.120 1 10
0.028 0.032 0.040 1
MATERIAL br_bezel
0.620 0.640 0.680 1.00
0.620 0.640 0.680 1.00
0.400 0.410 0.450 1 40
0.075 0.080 0.090 1
MATERIAL br_rib
0.220 0.230 0.260 1.00
0.220 0.230 0.260 1.00
0.300 0.310 0.350 1 30
0.034 0.038 0.046 1
MATERIAL br_lamp
0.800 0.880 1.000 1.00
0.800 0.880 1.000 1.00
0.000 0.000 0.000 1 1
0.620 0.700 0.800 1
MATERIAL br_cove
0.300 0.550 0.800 1.00
0.300 0.550 0.800 1.00
0.000 0.000 0.000 1 1
0.160 0.300 0.460 1
MATERIAL br_vault_lit
0.060 0.060 0.070 1.00
0.060 0.060 0.070 1.00
0.040 0.040 0.050 1 8
1.000 1.000 1.000 1
MATERIAL br_floor_lit
0.080 0.080 0.090 1.00
0.080 0.080 0.090 1.00
0.100 0.100 0.120 1 20
1.000 1.000 1.000 1
MATERIAL br_belt
0.880 0.560 0.160 1.00
0.880 0.560 0.160 1.00
0.100 0.100 0.100 1 10
0.000 0.000 0.000 1
MATERIAL in_floor
0.500 0.500 0.500 1.00
0.500 0.500 0.500 1.00
0.100 0.100 0.100 1 10
0.500 0.500 0.520 1
MATERIAL in_wall
0.450 0.450 0.450 1.00
0.450 0.450 0.450 1.00
0.050 0.050 0.050 1 5
0.600 0.600 0.620 1
MATERIAL in_ceiling
0.450 0.450 0.450 1.00
0.450 0.450 0.450 1.00
0.000 0.000 0.000 1 1
0.550 0.550 0.570 1
MATERIAL in_light
1.000 0.970 0.880 1.00
1.000 0.970 0.880 1.00
0.000 0.000 0.000 1 1
1.000 0.960 0.840 1
MATERIAL in_furn
0.300 0.310 0.340 1.00
0.300 0.310 0.340 1.00
0.100 0.100 0.100 1 10
0.150 0.150 0.170 1
MATERIAL in_seat
0.120 0.150 0.220 1.00
0.120 0.150 0.220 1.00
0.150 0.150 0.200 1 15
0.060 0.080 0.130 1
MATERIAL in_metal
0.500 0.500 0.500 1.00
0.500 0.500 0.500 1.00
0.500 0.500 0.500 1 30
0.550 0.550 0.580 1
MATERIAL in_wet
0.360 0.500 0.550 1.00
0.360 0.500 0.550 1.00
0.200 0.200 0.250 1 20
0.130 0.190 0.210 1
MATERIAL in_screen
0.040 0.080 0.160 1.00
0.040 0.080 0.160 1.00
0.300 0.300 0.400 1 40
0.100 0.280 0.500 1
MATERIAL in_trim
0.600 0.600 0.600 1.00
0.600 0.600 0.600 1.00
0.100 0.100 0.100 1 10
0.500 0.500 0.500 1
MATERIAL in_green
0.100 0.600 0.250 1.00
0.100 0.600 0.250 1.00
0.000 0.000 0.000 1 1
0.150 1.000 0.400 1
MATERIAL in_amber
0.700 0.450 0.050 1.00
0.700 0.450 0.050 1.00
0.000 0.000 0.000 1 1
1.000 0.620 0.080 1
MATERIAL in_red
0.700 0.100 0.080 1.00
0.700 0.100 0.080 1.00
0.000 0.000 0.000 1 1
1.000 0.150 0.100 1
MATERIAL in_guide
0.200 0.500 0.700 1.00
0.200 0.500 0.700 1.00
0.000 0.000 0.000 1 1
0.250 0.750 1.000 1
MATERIAL in_btn_dim
0.160 0.180 0.200 1.00
0.160 0.180 0.200 1.00
0.300 0.300 0.300 1 20
0.040 0.050 0.060 1
MATERIAL in_wall_w
0.500 0.500 0.510 1.00
0.500 0.500 0.510 1.00
0.080 0.080 0.090 1 12
0.065 0.065 0.075 1
MATERIAL in_floor_w
0.500 0.500 0.500 1.00
0.500 0.500 0.500 1.00
0.450 0.450 0.480 1 40
0.040 0.040 0.045 1
MATERIAL in_ceil_w
0.400 0.400 0.410 1.00
0.400 0.400 0.410 1.00
0.000 0.000 0.000 1 1
0.035 0.035 0.040 1
MATERIAL in_metal_w
0.450 0.450 0.470 1.00
0.450 0.450 0.470 1.00
0.400 0.400 0.420 1 30
0.070 0.070 0.080 1
MATERIAL in_trim_w
0.500 0.500 0.500 1.00
0.500 0.500 0.500 1.00
0.100 0.100 0.100 1 10
0.140 0.140 0.140 1
MATERIAL in_guide_w
0.250 0.420 0.420 1.00
0.250 0.420 0.420 1.00
0.000 0.000 0.000 1 1
0.160 0.360 0.380 1
MATERIAL in_fx
1.000 1.000 1.000 1.00
1.000 1.000 1.000 1.00
0.000 0.000 0.000 1 1
1.000 1.000 1.000 1
MATERIAL in_downlight
1.000 0.860 0.620 1.00
1.000 0.860 0.620 1.00
0.000 0.000 0.000 1 1
1.000 0.840 0.580 1
MATERIAL in_cove
0.300 0.400 0.620 1.00
0.300 0.400 0.620 1.00
0.000 0.000 0.000 1 1
0.260 0.360 0.580 1
MATERIAL lift_glass
0.450 0.600 0.700 0.22
0.450 0.600 0.700 0.22
0.800 0.800 0.850 1 60
0.020 0.030 0.040 1
MATERIAL in_wip
0.950 0.420 0.060 1.00
0.950 0.420 0.060 1.00
0.300 0.250 0.200 1 20
0.400 0.170 0.020 1
MATERIAL in_btn_cap
0.550 0.560 0.580 1.00
0.550 0.560 0.580 1.00
0.350 0.350 0.350 1 30
0.300 0.310 0.320 1
MATERIAL in_cablight
0.950 0.930 0.860 1.00
0.950 0.930 0.860 1.00
0.000 0.000 0.000 1 1
0.800 0.770 0.680 1
MATERIAL in_glass
1.000 1.000 1.000 1.00
1.000 1.000 1.000 1.00
0.900 0.900 0.900 1 60
0.120 0.130 0.150 1
MATERIAL in_wall_r
0.400 0.380 0.380 1.00
0.400 0.380 0.380 1.00
0.050 0.050 0.050 1 5
0.050 0.012 0.011 1
MATERIAL in_floor_r
0.400 0.380 0.380 1.00
0.400 0.380 0.380 1.00
0.200 0.200 0.200 1 30
0.032 0.007 0.007 1
MATERIAL in_ceil_r
0.350 0.330 0.330 1.00
0.350 0.330 0.330 1.00
0.000 0.000 0.000 1 1
0.028 0.006 0.006 1
MATERIAL in_metal_r
0.400 0.380 0.380 1.00
0.400 0.380 0.380 1.00
0.300 0.300 0.300 1 30
0.045 0.011 0.010 1
MATERIAL in_dutyred
0.600 0.080 0.050 1.00
0.600 0.080 0.050 1.00
0.000 0.000 0.000 1 1
0.550 0.050 0.030 1
MATERIAL in_door
0.550 0.550 0.560 1.00
0.550 0.550 0.560 1.00
0.250 0.250 0.270 1 25
0.075 0.075 0.080 1
MATERIAL in_wall_d
0.080 0.080 0.085 1.00
0.080 0.080 0.085 1.00
0.020 0.020 0.020 1 5
0.018 0.018 0.020 1
MATERIAL in_floor_d
0.080 0.080 0.080 1.00
0.080 0.080 0.080 1.00
0.050 0.050 0.050 1 10
0.012 0.012 0.013 1
MATERIAL in_ceil_d
0.070 0.070 0.075 1.00
0.070 0.070 0.075 1.00
0.000 0.000 0.000 1 1
0.010 0.010 0.011 1
MATERIAL in_metal_d
0.080 0.080 0.085 1.00
0.080 0.080 0.085 1.00
0.050 0.050 0.050 1 10
0.016 0.016 0.018 1
MATERIAL br_malachite
0.160 0.380 0.310 1.00
0.160 0.380 0.310 1.00
0.400 0.480 0.450 1 35
0.020 0.048 0.040 1
MATERIAL br_cur_ball
0.620 0.860 0.950 0.72
0.620 0.860 0.950 0.72
0.900 0.900 0.900 1 60
0.100 0.260 0.320 1
MATERIAL br_cur_lit
0.780 0.950 1.000 1.00
0.780 0.950 1.000 1.00
0.000 0.000 0.000 1 1
0.780 0.950 1.000 1
MATERIAL br_spot
1.000 0.550 0.120 0.80
1.000 0.550 0.120 0.80
0.000 0.000 0.000 1 1
1.000 0.550 0.120 1
MATERIAL br_cover
1.000 0.350 0.290 0.50
1.000 0.350 0.290 0.50
0.600 0.600 0.600 1 40
0.200 0.040 0.030 1
MATERIAL br_glass_disp
1.000 1.000 1.000 1.00
1.000 1.000 1.000 1.00
0.000 0.000 0.000 1 1
1.000 1.000 1.000 1
MATERIAL br_hud_glass
1.000 1.000 1.000 1.00
1.000 1.000 1.000 1.00
0.000 0.000 0.000 1 1
1.000 1.000 1.000 1
MATERIAL belly_carbide
0.160 0.160 0.170 1.00
0.160 0.160 0.170 1.00
0.150 0.150 0.150 1 10
0.000 0.000 0.000 1
TEXTURES 0
