MSHX1
GROUPS 3
LABEL pod_1
MATERIAL 6
TEXTURE 0
GEOM 858 1420 ;pod_1
0.693 -2.847 -3.150 0.2658 -0.9640 -0.0000
2.525 -2.342 -3.150 0.2658 -0.9640 -0.0000
2.525 -2.342 3.150 0.2658 -0.9640 -0.0000
0.693 -2.847 3.150 0.2658 -0.9640 -0.0000
-0.689 2.166 -3.150 -0.2658 0.9640 0.0000
1.143 2.671 -3.150 -0.2658 0.9640 0.0000
1.143 2.671 3.150 -0.2658 0.9640 0.0000
-0.689 2.166 3.150 -0.2658 0.9640 0.0000
0.693 -2.847 -3.150 -0.9640 -0.2658 -0.0000
-0.689 2.166 -3.150 -0.9640 -0.2658 -0.0000
-0.689 2.166 3.150 -0.9640 -0.2658 -0.0000
0.693 -2.847 3.150 -0.9640 -0.2658 -0.0000
2.525 -2.342 -3.150 0.9640 0.2658 0.0000
1.143 2.671 -3.150 0.9640 0.2658 0.0000
1.143 2.671 3.150 0.9640 0.2658 0.0000
2.525 -2.342 3.150 0.9640 0.2658 0.0000
0.693 -2.847 -3.150 -0.0000 -0.0000 -1.0000
-0.689 2.166 -3.150 -0.0000 -0.0000 -1.0000
1.143 2.671 -3.150 -0.0000 -0.0000 -1.0000
2.525 -2.342 -3.150 -0.0000 -0.0000 -1.0000
0.693 -2.847 3.150 0.0000 0.0000 1.0000
-0.689 2.166 3.150 0.0000 0.0000 1.0000
1.143 2.671 3.150 0.0000 0.0000 1.0000
2.525 -2.342 3.150 0.0000 0.0000 1.0000
1.386 -1.727 -2.670 -0.1118 -0.0000 -0.9937
1.384 -1.721 -2.670 -0.1033 -0.0428 -0.9937
1.381 -1.716 -2.670 -0.0791 -0.0791 -0.9937
1.376 -1.712 -2.670 -0.0428 -0.1033 -0.9937
1.370 -1.711 -2.670 -0.0000 -0.1118 -0.9937
1.363 -1.712 -2.670 0.0428 -0.1033 -0.9937
1.358 -1.716 -2.670 0.0791 -0.0791 -0.9937
1.355 -1.721 -2.670 0.1033 -0.0428 -0.9937
1.354 -1.727 -2.670 0.1118 -0.0000 -0.9937
1.355 -1.733 -2.670 0.1033 0.0428 -0.9937
1.358 -1.738 -2.670 0.0791 0.0791 -0.9937
1.363 -1.742 -2.670 0.0428 0.1033 -0.9937
1.370 -1.743 -2.670 0.0000 0.1118 -0.9937
1.376 -1.742 -2.670 -0.0428 0.1033 -0.9937
1.381 -1.738 -2.670 -0.0791 0.0791 -0.9937
1.384 -1.733 -2.670 -0.1033 0.0428 -0.9937
1.498 -1.727 -2.683 -0.1961 -0.0000 -0.9806
1.488 -1.678 -2.683 -0.1812 -0.0751 -0.9806
1.460 -1.637 -2.683 -0.1387 -0.1387 -0.9806
1.419 -1.609 -2.683 -0.0751 -0.1812 -0.9806
1.370 -1.599 -2.683 -0.0000 -0.1961 -0.9806
1.321 -1.609 -2.683 0.0751 -0.1812 -0.9806
1.279 -1.637 -2.683 0.1387 -0.1387 -0.9806
1.251 -1.678 -2.683 0.1812 -0.0751 -0.9806
1.242 -1.727 -2.683 0.1961 -0.0000 -0.9806
1.251 -1.776 -2.683 0.1812 0.0751 -0.9806
1.279 -1.818 -2.683 0.1387 0.1387 -0.9806
1.321 -1.845 -2.683 0.0751 0.1812 -0.9806
1.370 -1.855 -2.683 0.0000 0.1961 -0.9806
1.419 -1.845 -2.683 -0.0751 0.1812 -0.9806
1.460 -1.818 -2.683 -0.1387 0.1387 -0.9806
1.488 -1.776 -2.683 -0.1812 0.0751 -0.9806
1.610 -1.727 -2.715 -0.3511 -0.0000 -0.9363
1.591 -1.635 -2.715 -0.3244 -0.1344 -0.9363
1.539 -1.557 -2.715 -0.2483 -0.2483 -0.9363
1.461 -1.505 -2.715 -0.1344 -0.3244 -0.9363
1.370 -1.487 -2.715 -0.0000 -0.3511 -0.9363
1.278 -1.505 -2.715 0.1344 -0.3244 -0.9363
1.200 -1.557 -2.715 0.2483 -0.2483 -0.9363
1.148 -1.635 -2.715 0.3244 -0.1344 -0.9363
1.130 -1.727 -2.715 0.3511 -0.0000 -0.9363
1.148 -1.819 -2.715 0.3244 0.1344 -0.9363
1.200 -1.897 -2.715 0.2483 0.2483 -0.9363
1.278 -1.949 -2.715 0.1344 0.3244 -0.9363
1.370 -1.967 -2.715 0.0000 0.3511 -0.9363
1.461 -1.949 -2.715 -0.1344 0.3244 -0.9363
1.539 -1.897 -2.715 -0.2483 0.2483 -0.9363
1.591 -1.819 -2.715 -0.3244 0.1344 -0.9363
1.722 -1.727 -2.767 -0.4819 -0.0000 -0.8762
1.695 -1.592 -2.767 -0.4452 -0.1844 -0.8762
1.618 -1.478 -2.767 -0.3408 -0.3408 -0.8762
1.504 -1.402 -2.767 -0.1844 -0.4452 -0.8762
1.370 -1.375 -2.767 -0.0000 -0.4819 -0.8762
1.235 -1.402 -2.767 0.1844 -0.4452 -0.8762
1.121 -1.478 -2.767 0.3408 -0.3408 -0.8762
1.044 -1.592 -2.767 0.4452 -0.1844 -0.8762
1.018 -1.727 -2.767 0.4819 -0.0000 -0.8762
1.044 -1.862 -2.767 0.4452 0.1844 -0.8762
1.121 -1.976 -2.767 0.3408 0.3408 -0.8762
1.235 -2.052 -2.767 0.1844 0.4452 -0.8762
1.370 -2.079 -2.767 0.0000 0.4819 -0.8762
1.504 -2.052 -2.767 -0.1844 0.4452 -0.8762
1.618 -1.976 -2.767 -0.3408 0.3408 -0.8762
1.695 -1.862 -2.767 -0.4452 0.1844 -0.8762
1.834 -1.727 -2.838 -0.5870 -0.0000 -0.8096
1.798 -1.550 -2.838 -0.5423 -0.2246 -0.8096
1.698 -1.399 -2.838 -0.4150 -0.4150 -0.8096
1.547 -1.298 -2.838 -0.2246 -0.5423 -0.8096
1.370 -1.263 -2.838 -0.0000 -0.5870 -0.8096
1.192 -1.298 -2.838 0.2246 -0.5423 -0.8096
1.041 -1.399 -2.838 0.4150 -0.4150 -0.8096
0.941 -1.550 -2.838 0.5423 -0.2246 -0.8096
0.906 -1.727 -2.838 0.5870 -0.0000 -0.8096
0.941 -1.905 -2.838 0.5423 0.2246 -0.8096
1.041 -2.055 -2.838 0.4150 0.4150 -0.8096
1.192 -2.156 -2.838 0.2246 0.5423 -0.8096
1.370 -2.191 -2.838 0.0000 0.5870 -0.8096
1.547 -2.156 -2.838 -0.2246 0.5423 -0.8096
1.698 -2.055 -2.838 -0.4150 0.4150 -0.8096
1.798 -1.905 -2.838 -0.5423 0.2246 -0.8096
1.946 -1.727 -2.929 -0.6690 -0.0000 -0.7433
1.902 -1.507 -2.929 -0.6180 -0.2560 -0.7433
1.777 -1.320 -2.929 -0.4730 -0.4730 -0.7433
1.590 -1.195 -2.929 -0.2560 -0.6180 -0.7433
1.370 -1.151 -2.929 -0.0000 -0.6690 -0.7433
1.149 -1.195 -2.929 0.2560 -0.6180 -0.7433
0.962 -1.320 -2.929 0.4730 -0.4730 -0.7433
0.837 -1.507 -2.929 0.6180 -0.2560 -0.7433
0.794 -1.727 -2.929 0.6690 -0.0000 -0.7433
0.837 -1.948 -2.929 0.6180 0.2560 -0.7433
0.962 -2.134 -2.929 0.4730 0.4730 -0.7433
1.149 -2.259 -2.929 0.2560 0.6180 -0.7433
1.370 -2.303 -2.929 0.0000 0.6690 -0.7433
1.590 -2.259 -2.929 -0.2560 0.6180 -0.7433
1.777 -2.134 -2.929 -0.4730 0.4730 -0.7433
1.902 -1.948 -2.929 -0.6180 0.2560 -0.7433
2.058 -1.727 -3.040 -0.7322 -0.0000 -0.6811
2.005 -1.464 -3.040 -0.6765 -0.2802 -0.6811
1.856 -1.241 -3.040 -0.5177 -0.5177 -0.6811
1.633 -1.091 -3.040 -0.2802 -0.6765 -0.6811
1.370 -1.039 -3.040 -0.0000 -0.7322 -0.6811
1.106 -1.091 -3.040 0.2802 -0.6765 -0.6811
0.883 -1.241 -3.040 0.5177 -0.5177 -0.6811
0.734 -1.464 -3.040 0.6765 -0.2802 -0.6811
0.682 -1.727 -3.040 0.7322 -0.0000 -0.6811
0.734 -1.990 -3.040 0.6765 0.2802 -0.6811
0.883 -2.214 -3.040 0.5177 0.5177 -0.6811
1.106 -2.363 -3.040 0.2802 0.6765 -0.6811
1.370 -2.415 -3.040 0.0000 0.7322 -0.6811
1.633 -2.363 -3.040 -0.2802 0.6765 -0.6811
1.856 -2.214 -3.040 -0.5177 0.5177 -0.6811
2.005 -1.990 -3.040 -0.6765 0.2802 -0.6811
2.170 -1.727 -3.170 -0.7581 -0.0000 -0.6521
2.109 -1.421 -3.170 -0.7004 -0.2901 -0.6521
1.935 -1.161 -3.170 -0.5361 -0.5361 -0.6521
1.676 -0.988 -3.170 -0.2901 -0.7004 -0.6521
1.370 -0.927 -3.170 -0.0000 -0.7581 -0.6521
1.063 -0.988 -3.170 0.2901 -0.7004 -0.6521
0.804 -1.161 -3.170 0.5361 -0.5361 -0.6521
0.630 -1.421 -3.170 0.7004 -0.2901 -0.6521
0.570 -1.727 -3.170 0.7581 -0.0000 -0.6521
0.630 -2.033 -3.170 0.7004 0.2901 -0.6521
0.804 -2.293 -3.170 0.5361 0.5361 -0.6521
1.063 -2.466 -3.170 0.2901 0.7004 -0.6521
1.370 -2.527 -3.170 0.0000 0.7581 -0.6521
1.676 -2.466 -3.170 -0.2901 0.7004 -0.6521
1.935 -2.293 -3.170 -0.5361 0.5361 -0.6521
2.109 -2.033 -3.170 -0.7004 0.2901 -0.6521
1.386 -1.727 -2.640 0.1118 0.0000 0.9937
1.384 -1.721 -2.640 0.1033 0.0428 0.9937
1.381 -1.716 -2.640 0.0791 0.0791 0.9937
1.376 -1.712 -2.640 0.0428 0.1033 0.9937
1.370 -1.711 -2.640 0.0000 0.1118 0.9937
1.363 -1.712 -2.640 -0.0428 0.1033 0.9937
1.358 -1.716 -2.640 -0.0791 0.0791 0.9937
1.355 -1.721 -2.640 -0.1033 0.0428 0.9937
1.354 -1.727 -2.640 -0.1118 0.0000 0.9937
1.355 -1.733 -2.640 -0.1033 -0.0428 0.9937
1.358 -1.738 -2.640 -0.0791 -0.0791 0.9937
1.363 -1.742 -2.640 -0.0428 -0.1033 0.9937
1.370 -1.743 -2.640 -0.0000 -0.1118 0.9937
1.376 -1.742 -2.640 0.0428 -0.1033 0.9937
1.381 -1.738 -2.640 0.0791 -0.0791 0.9937
1.384 -1.733 -2.640 0.1033 -0.0428 0.9937
1.498 -1.727 -2.653 0.1961 0.0000 0.9806
1.488 -1.678 -2.653 0.1812 0.0751 0.9806
1.460 -1.637 -2.653 0.1387 0.1387 0.9806
1.419 -1.609 -2.653 0.0751 0.1812 0.9806
1.370 -1.599 -2.653 0.0000 0.1961 0.9806
1.321 -1.609 -2.653 -0.0751 0.1812 0.9806
1.279 -1.637 -2.653 -0.1387 0.1387 0.9806
1.251 -1.678 -2.653 -0.1812 0.0751 0.9806
1.242 -1.727 -2.653 -0.1961 0.0000 0.9806
1.251 -1.776 -2.653 -0.1812 -0.0751 0.9806
1.279 -1.818 -2.653 -0.1387 -0.1387 0.9806
1.321 -1.845 -2.653 -0.0751 -0.1812 0.9806
1.370 -1.855 -2.653 -0.0000 -0.1961 0.9806
1.419 -1.845 -2.653 0.0751 -0.1812 0.9806
1.460 -1.818 -2.653 0.1387 -0.1387 0.9806
1.488 -1.776 -2.653 0.1812 -0.0751 0.9806
1.610 -1.727 -2.685 0.3511 0.0000 0.9363
1.591 -1.635 -2.685 0.3244 0.1344 0.9363
1.539 -1.557 -2.685 0.2483 0.2483 0.9363
1.461 -1.505 -2.685 0.1344 0.3244 0.9363
1.370 -1.487 -2.685 0.0000 0.3511 0.9363
1.278 -1.505 -2.685 -0.1344 0.3244 0.9363
1.200 -1.557 -2.685 -0.2483 0.2483 0.9363
1.148 -1.635 -2.685 -0.3244 0.1344 0.9363
1.130 -1.727 -2.685 -0.3511 0.0000 0.9363
1.148 -1.819 -2.685 -0.3244 -0.1344 0.9363
1.200 -1.897 -2.685 -0.2483 -0.2483 0.9363
1.278 -1.949 -2.685 -0.1344 -0.3244 0.9363
1.370 -1.967 -2.685 -0.0000 -0.3511 0.9363
1.461 -1.949 -2.685 0.1344 -0.3244 0.9363
1.539 -1.897 -2.685 0.2483 -0.2483 0.9363
1.591 -1.819 -2.685 0.3244 -0.1344 0.9363
1.722 -1.727 -2.737 0.4819 0.0000 0.8762
1.695 -1.592 -2.737 0.4452 0.1844 0.8762
1.618 -1.478 -2.737 0.3408 0.3408 0.8762
1.504 -1.402 -2.737 0.1844 0.4452 0.8762
1.370 -1.375 -2.737 0.0000 0.4819 0.8762
1.235 -1.402 -2.737 -0.1844 0.4452 0.8762
1.121 -1.478 -2.737 -0.3408 0.3408 0.8762
1.044 -1.592 -2.737 -0.4452 0.1844 0.8762
1.018 -1.727 -2.737 -0.4819 0.0000 0.8762
1.044 -1.862 -2.737 -0.4452 -0.1844 0.8762
1.121 -1.976 -2.737 -0.3408 -0.3408 0.8762
1.235 -2.052 -2.737 -0.1844 -0.4452 0.8762
1.370 -2.079 -2.737 -0.0000 -0.4819 0.8762
1.504 -2.052 -2.737 0.1844 -0.4452 0.8762
1.618 -1.976 -2.737 0.3408 -0.3408 0.8762
1.695 -1.862 -2.737 0.4452 -0.1844 0.8762
1.834 -1.727 -2.808 0.5870 0.0000 0.8096
1.798 -1.550 -2.808 0.5423 0.2246 0.8096
1.698 -1.399 -2.808 0.4150 0.4150 0.8096
1.547 -1.298 -2.808 0.2246 0.5423 0.8096
1.370 -1.263 -2.808 0.0000 0.5870 0.8096
1.192 -1.298 -2.808 -0.2246 0.5423 0.8096
1.041 -1.399 -2.808 -0.4150 0.4150 0.8096
0.941 -1.550 -2.808 -0.5423 0.2246 0.8096
0.906 -1.727 -2.808 -0.5870 0.0000 0.8096
0.941 -1.905 -2.808 -0.5423 -0.2246 0.8096
1.041 -2.055 -2.808 -0.4150 -0.4150 0.8096
1.192 -2.156 -2.808 -0.2246 -0.5423 0.8096
1.370 -2.191 -2.808 -0.0000 -0.5870 0.8096
1.547 -2.156 -2.808 0.2246 -0.5423 0.8096
1.698 -2.055 -2.808 0.4150 -0.4150 0.8096
1.798 -1.905 -2.808 0.5423 -0.2246 0.8096
1.946 -1.727 -2.899 0.6690 0.0000 0.7433
1.902 -1.507 -2.899 0.6180 0.2560 0.7433
1.777 -1.320 -2.899 0.4730 0.4730 0.7433
1.590 -1.195 -2.899 0.2560 0.6180 0.7433
1.370 -1.151 -2.899 0.0000 0.6690 0.7433
1.149 -1.195 -2.899 -0.2560 0.6180 0.7433
0.962 -1.320 -2.899 -0.4730 0.4730 0.7433
0.837 -1.507 -2.899 -0.6180 0.2560 0.7433
0.794 -1.727 -2.899 -0.6690 0.0000 0.7433
0.837 -1.948 -2.899 -0.6180 -0.2560 0.7433
0.962 -2.134 -2.899 -0.4730 -0.4730 0.7433
1.149 -2.259 -2.899 -0.2560 -0.6180 0.7433
1.370 -2.303 -2.899 -0.0000 -0.6690 0.7433
1.590 -2.259 -2.899 0.2560 -0.6180 0.7433
1.777 -2.134 -2.899 0.4730 -0.4730 0.7433
1.902 -1.948 -2.899 0.6180 -0.2560 0.7433
2.058 -1.727 -3.010 0.7322 0.0000 0.6811
2.005 -1.464 -3.010 0.6765 0.2802 0.6811
1.856 -1.241 -3.010 0.5177 0.5177 0.6811
1.633 -1.091 -3.010 0.2802 0.6765 0.6811
1.370 -1.039 -3.010 0.0000 0.7322 0.6811
1.106 -1.091 -3.010 -0.2802 0.6765 0.6811
0.883 -1.241 -3.010 -0.5177 0.5177 0.6811
0.734 -1.464 -3.010 -0.6765 0.2802 0.6811
0.682 -1.727 -3.010 -0.7322 0.0000 0.6811
0.734 -1.990 -3.010 -0.6765 -0.2802 0.6811
0.883 -2.214 -3.010 -0.5177 -0.5177 0.6811
1.106 -2.363 -3.010 -0.2802 -0.6765 0.6811
1.370 -2.415 -3.010 -0.0000 -0.7322 0.6811
1.633 -2.363 -3.010 0.2802 -0.6765 0.6811
1.856 -2.214 -3.010 0.5177 -0.5177 0.6811
2.005 -1.990 -3.010 0.6765 -0.2802 0.6811
2.170 -1.727 -3.140 0.7581 0.0000 0.6521
2.109 -1.421 -3.140 0.7004 0.2901 0.6521
1.935 -1.161 -3.140 0.5361 0.5361 0.6521
1.676 -0.988 -3.140 0.2901 0.7004 0.6521
1.370 -0.927 -3.140 0.0000 0.7581 0.6521
1.063 -0.988 -3.140 -0.2901 0.7004 0.6521
0.804 -1.161 -3.140 -0.5361 0.5361 0.6521
0.630 -1.421 -3.140 -0.7004 0.2901 0.6521
0.570 -1.727 -3.140 -0.7581 0.0000 0.6521
0.630 -2.033 -3.140 -0.7004 -0.2901 0.6521
0.804 -2.293 -3.140 -0.5361 -0.5361 0.6521
1.063 -2.466 -3.140 -0.2901 -0.7004 0.6521
1.370 -2.527 -3.140 -0.0000 -0.7581 0.6521
1.676 -2.466 -3.140 0.2901 -0.7004 0.6521
1.935 -2.293 -3.140 0.5361 -0.5361 0.6521
2.109 -2.033 -3.140 0.7004 -0.2901 0.6521
0.934 -0.088 -2.670 -0.1118 -0.0000 -0.9937
0.932 -0.082 -2.670 -0.1033 -0.0428 -0.9937
0.929 -0.077 -2.670 -0.0791 -0.0791 -0.9937
0.924 -0.073 -2.670 -0.0428 -0.1033 -0.9937
0.918 -0.072 -2.670 -0.0000 -0.1118 -0.9937
0.912 -0.073 -2.670 0.0428 -0.1033 -0.9937
0.906 -0.077 -2.670 0.0791 -0.0791 -0.9937
0.903 -0.082 -2.670 0.1033 -0.0428 -0.9937
0.902 -0.088 -2.670 0.1118 -0.0000 -0.9937
0.903 -0.094 -2.670 0.1033 0.0428 -0.9937
0.906 -0.100 -2.670 0.0791 0.0791 -0.9937
0.912 -0.103 -2.670 0.0428 0.1033 -0.9937
0.918 -0.104 -2.670 0.0000 0.1118 -0.9937
0.924 -0.103 -2.670 -0.0428 0.1033 -0.9937
0.929 -0.100 -2.670 -0.0791 0.0791 -0.9937
0.932 -0.094 -2.670 -0.1033 0.0428 -0.9937
1.046 -0.088 -2.683 -0.1961 -0.0000 -0.9806
1.036 -0.039 -2.683 -0.1812 -0.0751 -0.9806
1.008 0.002 -2.683 -0.1387 -0.1387 -0.9806
0.967 0.030 -2.683 -0.0751 -0.1812 -0.9806
0.918 0.040 -2.683 -0.0000 -0.1961 -0.9806
0.869 0.030 -2.683 0.0751 -0.1812 -0.9806
0.827 0.002 -2.683 0.1387 -0.1387 -0.9806
0.799 -0.039 -2.683 0.1812 -0.0751 -0.9806
0.790 -0.088 -2.683 0.1961 -0.0000 -0.9806
0.799 -0.137 -2.683 0.1812 0.0751 -0.9806
0.827 -0.179 -2.683 0.1387 0.1387 -0.9806
0.869 -0.207 -2.683 0.0751 0.1812 -0.9806
0.918 -0.216 -2.683 0.0000 0.1961 -0.9806
0.967 -0.207 -2.683 -0.0751 0.1812 -0.9806
1.008 -0.179 -2.683 -0.1387 0.1387 -0.9806
1.036 -0.137 -2.683 -0.1812 0.0751 -0.9806
1.158 -0.088 -2.715 -0.3511 -0.0000 -0.9363
1.139 0.004 -2.715 -0.3244 -0.1344 -0.9363
1.087 0.081 -2.715 -0.2483 -0.2483 -0.9363
1.010 0.133 -2.715 -0.1344 -0.3244 -0.9363
0.918 0.152 -2.715 -0.0000 -0.3511 -0.9363
0.826 0.133 -2.715 0.1344 -0.3244 -0.9363
0.748 0.081 -2.715 0.2483 -0.2483 -0.9363
0.696 0.004 -2.715 0.3244 -0.1344 -0.9363
0.678 -0.088 -2.715 0.3511 -0.0000 -0.9363
0.696 -0.180 -2.715 0.3244 0.1344 -0.9363
0.748 -0.258 -2.715 0.2483 0.2483 -0.9363
0.826 -0.310 -2.715 0.1344 0.3244 -0.9363
0.918 -0.328 -2.715 0.0000 0.3511 -0.9363
1.010 -0.310 -2.715 -0.1344 0.3244 -0.9363
1.087 -0.258 -2.715 -0.2483 0.2483 -0.9363
1.139 -0.180 -2.715 -0.3244 0.1344 -0.9363
1.270 -0.088 -2.767 -0.4819 -0.0000 -0.8762
1.243 0.046 -2.767 -0.4452 -0.1844 -0.8762
1.167 0.161 -2.767 -0.3408 -0.3408 -0.8762
1.052 0.237 -2.767 -0.1844 -0.4452 -0.8762
0.918 0.264 -2.767 -0.0000 -0.4819 -0.8762
0.783 0.237 -2.767 0.1844 -0.4452 -0.8762
0.669 0.161 -2.767 0.3408 -0.3408 -0.8762
0.593 0.046 -2.767 0.4452 -0.1844 -0.8762
0.566 -0.088 -2.767 0.4819 -0.0000 -0.8762
0.593 -0.223 -2.767 0.4452 0.1844 -0.8762
0.669 -0.337 -2.767 0.3408 0.3408 -0.8762
0.783 -0.413 -2.767 0.1844 0.4452 -0.8762
0.918 -0.440 -2.767 0.0000 0.4819 -0.8762
1.052 -0.413 -2.767 -0.1844 0.4452 -0.8762
1.167 -0.337 -2.767 -0.3408 0.3408 -0.8762
1.243 -0.223 -2.767 -0.4452 0.1844 -0.8762
1.382 -0.088 -2.838 -0.5870 -0.0000 -0.8096
1.346 0.089 -2.838 -0.5423 -0.2246 -0.8096
1.246 0.240 -2.838 -0.4150 -0.4150 -0.8096
1.095 0.340 -2.838 -0.2246 -0.5423 -0.8096
0.918 0.376 -2.838 -0.0000 -0.5870 -0.8096
0.740 0.340 -2.838 0.2246 -0.5423 -0.8096
0.590 0.240 -2.838 0.4150 -0.4150 -0.8096
0.489 0.089 -2.838 0.5423 -0.2246 -0.8096
0.454 -0.088 -2.838 0.5870 -0.0000 -0.8096
0.489 -0.266 -2.838 0.5423 0.2246 -0.8096
0.590 -0.416 -2.838 0.4150 0.4150 -0.8096
0.740 -0.517 -2.838 0.2246 0.5423 -0.8096
0.918 -0.552 -2.838 0.0000 0.5870 -0.8096
1.095 -0.517 -2.838 -0.2246 0.5423 -0.8096
1.246 -0.416 -2.838 -0.4150 0.4150 -0.8096
1.346 -0.266 -2.838 -0.5423 0.2246 -0.8096
1.494 -0.088 -2.929 -0.6690 -0.0000 -0.7433
1.450 0.132 -2.929 -0.6180 -0.2560 -0.7433
1.325 0.319 -2.929 -0.4730 -0.4730 -0.7433
1.138 0.444 -2.929 -0.2560 -0.6180 -0.7433
0.918 0.488 -2.929 -0.0000 -0.6690 -0.7433
0.697 0.444 -2.929 0.2560 -0.6180 -0.7433
0.510 0.319 -2.929 0.4730 -0.4730 -0.7433
0.386 0.132 -2.929 0.6180 -0.2560 -0.7433
0.342 -0.088 -2.929 0.6690 -0.0000 -0.7433
0.386 -0.309 -2.929 0.6180 0.2560 -0.7433
0.510 -0.496 -2.929 0.4730 0.4730 -0.7433
0.697 -0.620 -2.929 0.2560 0.6180 -0.7433
0.918 -0.664 -2.929 0.0000 0.6690 -0.7433
1.138 -0.620 -2.929 -0.2560 0.6180 -0.7433
1.325 -0.496 -2.929 -0.4730 0.4730 -0.7433
1.450 -0.309 -2.929 -0.6180 0.2560 -0.7433
1.606 -0.088 -3.040 -0.7322 -0.0000 -0.6811
1.553 0.175 -3.040 -0.6765 -0.2802 -0.6811
1.404 0.398 -3.040 -0.5177 -0.5177 -0.6811
1.181 0.547 -3.040 -0.2802 -0.6765 -0.6811
0.918 0.600 -3.040 -0.0000 -0.7322 -0.6811
0.654 0.547 -3.040 0.2802 -0.6765 -0.6811
0.431 0.398 -3.040 0.5177 -0.5177 -0.6811
0.282 0.175 -3.040 0.6765 -0.2802 -0.6811
0.230 -0.088 -3.040 0.7322 -0.0000 -0.6811
0.282 -0.352 -3.040 0.6765 0.2802 -0.6811
0.431 -0.575 -3.040 0.5177 0.5177 -0.6811
0.654 -0.724 -3.040 0.2802 0.6765 -0.6811
0.918 -0.776 -3.040 0.0000 0.7322 -0.6811
1.181 -0.724 -3.040 -0.2802 0.6765 -0.6811
1.404 -0.575 -3.040 -0.5177 0.5177 -0.6811
1.553 -0.352 -3.040 -0.6765 0.2802 -0.6811
1.718 -0.088 -3.170 -0.7581 -0.0000 -0.6521
1.657 0.218 -3.170 -0.7004 -0.2901 -0.6521
1.483 0.477 -3.170 -0.5361 -0.5361 -0.6521
1.224 0.651 -3.170 -0.2901 -0.7004 -0.6521
0.918 0.712 -3.170 -0.0000 -0.7581 -0.6521
0.612 0.651 -3.170 0.2901 -0.7004 -0.6521
0.352 0.477 -3.170 0.5361 -0.5361 -0.6521
0.179 0.218 -3.170 0.7004 -0.2901 -0.6521
0.118 -0.088 -3.170 0.7581 -0.0000 -0.6521
0.179 -0.394 -3.170 0.7004 0.2901 -0.6521
0.352 -0.654 -3.170 0.5361 0.5361 -0.6521
0.612 -0.827 -3.170 0.2901 0.7004 -0.6521
0.918 -0.888 -3.170 0.0000 0.7581 -0.6521
1.224 -0.827 -3.170 -0.2901 0.7004 -0.6521
1.483 -0.654 -3.170 -0.5361 0.5361 -0.6521
1.657 -0.394 -3.170 -0.7004 0.2901 -0.6521
0.934 -0.088 -2.640 0.1118 0.0000 0.9937
0.932 -0.082 -2.640 0.1033 0.0428 0.9937
0.929 -0.077 -2.640 0.0791 0.0791 0.9937
0.924 -0.073 -2.640 0.0428 0.1033 0.9937
0.918 -0.072 -2.640 0.0000 0.1118 0.9937
0.912 -0.073 -2.640 -0.0428 0.1033 0.9937
0.906 -0.077 -2.640 -0.0791 0.0791 0.9937
0.903 -0.082 -2.640 -0.1033 0.0428 0.9937
0.902 -0.088 -2.640 -0.1118 0.0000 0.9937
0.903 -0.094 -2.640 -0.1033 -0.0428 0.9937
0.906 -0.100 -2.640 -0.0791 -0.0791 0.9937
0.912 -0.103 -2.640 -0.0428 -0.1033 0.9937
0.918 -0.104 -2.640 -0.0000 -0.1118 0.9937
0.924 -0.103 -2.640 0.0428 -0.1033 0.9937
0.929 -0.100 -2.640 0.0791 -0.0791 0.9937
0.932 -0.094 -2.640 0.1033 -0.0428 0.9937
1.046 -0.088 -2.653 0.1961 0.0000 0.9806
1.036 -0.039 -2.653 0.1812 0.0751 0.9806
1.008 0.002 -2.653 0.1387 0.1387 0.9806
0.967 0.030 -2.653 0.0751 0.1812 0.9806
0.918 0.040 -2.653 0.0000 0.1961 0.9806
0.869 0.030 -2.653 -0.0751 0.1812 0.9806
0.827 0.002 -2.653 -0.1387 0.1387 0.9806
0.799 -0.039 -2.653 -0.1812 0.0751 0.9806
0.790 -0.088 -2.653 -0.1961 0.0000 0.9806
0.799 -0.137 -2.653 -0.1812 -0.0751 0.9806
0.827 -0.179 -2.653 -0.1387 -0.1387 0.9806
0.869 -0.207 -2.653 -0.0751 -0.1812 0.9806
0.918 -0.216 -2.653 -0.0000 -0.1961 0.9806
0.967 -0.207 -2.653 0.0751 -0.1812 0.9806
1.008 -0.179 -2.653 0.1387 -0.1387 0.9806
1.036 -0.137 -2.653 0.1812 -0.0751 0.9806
1.158 -0.088 -2.685 0.3511 0.0000 0.9363
1.139 0.004 -2.685 0.3244 0.1344 0.9363
1.087 0.081 -2.685 0.2483 0.2483 0.9363
1.010 0.133 -2.685 0.1344 0.3244 0.9363
0.918 0.152 -2.685 0.0000 0.3511 0.9363
0.826 0.133 -2.685 -0.1344 0.3244 0.9363
0.748 0.081 -2.685 -0.2483 0.2483 0.9363
0.696 0.004 -2.685 -0.3244 0.1344 0.9363
0.678 -0.088 -2.685 -0.3511 0.0000 0.9363
0.696 -0.180 -2.685 -0.3244 -0.1344 0.9363
0.748 -0.258 -2.685 -0.2483 -0.2483 0.9363
0.826 -0.310 -2.685 -0.1344 -0.3244 0.9363
0.918 -0.328 -2.685 -0.0000 -0.3511 0.9363
1.010 -0.310 -2.685 0.1344 -0.3244 0.9363
1.087 -0.258 -2.685 0.2483 -0.2483 0.9363
1.139 -0.180 -2.685 0.3244 -0.1344 0.9363
1.270 -0.088 -2.737 0.4819 0.0000 0.8762
1.243 0.046 -2.737 0.4452 0.1844 0.8762
1.167 0.161 -2.737 0.3408 0.3408 0.8762
1.052 0.237 -2.737 0.1844 0.4452 0.8762
0.918 0.264 -2.737 0.0000 0.4819 0.8762
0.783 0.237 -2.737 -0.1844 0.4452 0.8762
0.669 0.161 -2.737 -0.3408 0.3408 0.8762
0.593 0.046 -2.737 -0.4452 0.1844 0.8762
0.566 -0.088 -2.737 -0.4819 0.0000 0.8762
0.593 -0.223 -2.737 -0.4452 -0.1844 0.8762
0.669 -0.337 -2.737 -0.3408 -0.3408 0.8762
0.783 -0.413 -2.737 -0.1844 -0.4452 0.8762
0.918 -0.440 -2.737 -0.0000 -0.4819 0.8762
1.052 -0.413 -2.737 0.1844 -0.4452 0.8762
1.167 -0.337 -2.737 0.3408 -0.3408 0.8762
1.243 -0.223 -2.737 0.4452 -0.1844 0.8762
1.382 -0.088 -2.808 0.5870 0.0000 0.8096
1.346 0.089 -2.808 0.5423 0.2246 0.8096
1.246 0.240 -2.808 0.4150 0.4150 0.8096
1.095 0.340 -2.808 0.2246 0.5423 0.8096
0.918 0.376 -2.808 0.0000 0.5870 0.8096
0.740 0.340 -2.808 -0.2246 0.5423 0.8096
0.590 0.240 -2.808 -0.4150 0.4150 0.8096
0.489 0.089 -2.808 -0.5423 0.2246 0.8096
0.454 -0.088 -2.808 -0.5870 0.0000 0.8096
0.489 -0.266 -2.808 -0.5423 -0.2246 0.8096
0.590 -0.416 -2.808 -0.4150 -0.4150 0.8096
0.740 -0.517 -2.808 -0.2246 -0.5423 0.8096
0.918 -0.552 -2.808 -0.0000 -0.5870 0.8096
1.095 -0.517 -2.808 0.2246 -0.5423 0.8096
1.246 -0.416 -2.808 0.4150 -0.4150 0.8096
1.346 -0.266 -2.808 0.5423 -0.2246 0.8096
1.494 -0.088 -2.899 0.6690 0.0000 0.7433
1.450 0.132 -2.899 0.6180 0.2560 0.7433
1.325 0.319 -2.899 0.4730 0.4730 0.7433
1.138 0.444 -2.899 0.2560 0.6180 0.7433
0.918 0.488 -2.899 0.0000 0.6690 0.7433
0.697 0.444 -2.899 -0.2560 0.6180 0.7433
0.510 0.319 -2.899 -0.4730 0.4730 0.7433
0.386 0.132 -2.899 -0.6180 0.2560 0.7433
0.342 -0.088 -2.899 -0.6690 0.0000 0.7433
0.386 -0.309 -2.899 -0.6180 -0.2560 0.7433
0.510 -0.496 -2.899 -0.4730 -0.4730 0.7433
0.697 -0.620 -2.899 -0.2560 -0.6180 0.7433
0.918 -0.664 -2.899 -0.0000 -0.6690 0.7433
1.138 -0.620 -2.899 0.2560 -0.6180 0.7433
1.325 -0.496 -2.899 0.4730 -0.4730 0.7433
1.450 -0.309 -2.899 0.6180 -0.2560 0.7433
1.606 -0.088 -3.010 0.7322 0.0000 0.6811
1.553 0.175 -3.010 0.6765 0.2802 0.6811
1.404 0.398 -3.010 0.5177 0.5177 0.6811
1.181 0.547 -3.010 0.2802 0.6765 0.6811
0.918 0.600 -3.010 0.0000 0.7322 0.6811
0.654 0.547 -3.010 -0.2802 0.6765 0.6811
0.431 0.398 -3.010 -0.5177 0.5177 0.6811
0.282 0.175 -3.010 -0.6765 0.2802 0.6811
0.230 -0.088 -3.010 -0.7322 0.0000 0.6811
0.282 -0.352 -3.010 -0.6765 -0.2802 0.6811
0.431 -0.575 -3.010 -0.5177 -0.5177 0.6811
0.654 -0.724 -3.010 -0.2802 -0.6765 0.6811
0.918 -0.776 -3.010 -0.0000 -0.7322 0.6811
1.181 -0.724 -3.010 0.2802 -0.6765 0.6811
1.404 -0.575 -3.010 0.5177 -0.5177 0.6811
1.553 -0.352 -3.010 0.6765 -0.2802 0.6811
1.718 -0.088 -3.140 0.7581 0.0000 0.6521
1.657 0.218 -3.140 0.7004 0.2901 0.6521
1.483 0.477 -3.140 0.5361 0.5361 0.6521
1.224 0.651 -3.140 0.2901 0.7004 0.6521
0.918 0.712 -3.140 0.0000 0.7581 0.6521
0.612 0.651 -3.140 -0.2901 0.7004 0.6521
0.352 0.477 -3.140 -0.5361 0.5361 0.6521
0.179 0.218 -3.140 -0.7004 0.2901 0.6521
0.118 -0.088 -3.140 -0.7581 0.0000 0.6521
0.179 -0.394 -3.140 -0.7004 -0.2901 0.6521
0.352 -0.654 -3.140 -0.5361 -0.5361 0.6521
0.612 -0.827 -3.140 -0.2901 -0.7004 0.6521
0.918 -0.888 -3.140 -0.0000 -0.7581 0.6521
1.224 -0.827 -3.140 0.2901 -0.7004 0.6521
1.483 -0.654 -3.140 0.5361 -0.5361 0.6521
1.657 -0.394 -3.140 0.7004 -0.2901 0.6521
0.482 1.551 -2.670 -0.1118 -0.0000 -0.9937
0.481 1.557 -2.670 -0.1033 -0.0428 -0.9937
0.477 1.562 -2.670 -0.0791 -0.0791 -0.9937
0.472 1.565 -2.670 -0.0428 -0.1033 -0.9937
0.466 1.567 -2.670 -0.0000 -0.1118 -0.9937
0.460 1.565 -2.670 0.0428 -0.1033 -0.9937
0.455 1.562 -2.670 0.0791 -0.0791 -0.9937
0.451 1.557 -2.670 0.1033 -0.0428 -0.9937
0.450 1.551 -2.670 0.1118 -0.0000 -0.9937
0.451 1.544 -2.670 0.1033 0.0428 -0.9937
0.455 1.539 -2.670 0.0791 0.0791 -0.9937
0.460 1.536 -2.670 0.0428 0.1033 -0.9937
0.466 1.535 -2.670 0.0000 0.1118 -0.9937
0.472 1.536 -2.670 -0.0428 0.1033 -0.9937
0.477 1.539 -2.670 -0.0791 0.0791 -0.9937
0.481 1.544 -2.670 -0.1033 0.0428 -0.9937
0.594 1.551 -2.683 -0.1961 -0.0000 -0.9806
0.584 1.600 -2.683 -0.1812 -0.0751 -0.9806
0.556 1.641 -2.683 -0.1387 -0.1387 -0.9806
0.515 1.669 -2.683 -0.0751 -0.1812 -0.9806
0.466 1.679 -2.683 -0.0000 -0.1961 -0.9806
0.417 1.669 -2.683 0.0751 -0.1812 -0.9806
0.375 1.641 -2.683 0.1387 -0.1387 -0.9806
0.348 1.600 -2.683 0.1812 -0.0751 -0.9806
0.338 1.551 -2.683 0.1961 -0.0000 -0.9806
0.348 1.502 -2.683 0.1812 0.0751 -0.9806
0.375 1.460 -2.683 0.1387 0.1387 -0.9806
0.417 1.432 -2.683 0.0751 0.1812 -0.9806
0.466 1.423 -2.683 0.0000 0.1961 -0.9806
0.515 1.432 -2.683 -0.0751 0.1812 -0.9806
0.556 1.460 -2.683 -0.1387 0.1387 -0.9806
0.584 1.502 -2.683 -0.1812 0.0751 -0.9806
0.706 1.551 -2.715 -0.3511 -0.0000 -0.9363
0.688 1.642 -2.715 -0.3244 -0.1344 -0.9363
0.636 1.720 -2.715 -0.2483 -0.2483 -0.9363
0.558 1.772 -2.715 -0.1344 -0.3244 -0.9363
0.466 1.791 -2.715 -0.0000 -0.3511 -0.9363
0.374 1.772 -2.715 0.1344 -0.3244 -0.9363
0.296 1.720 -2.715 0.2483 -0.2483 -0.9363
0.244 1.642 -2.715 0.3244 -0.1344 -0.9363
0.226 1.551 -2.715 0.3511 -0.0000 -0.9363
0.244 1.459 -2.715 0.3244 0.1344 -0.9363
0.296 1.381 -2.715 0.2483 0.2483 -0.9363
0.374 1.329 -2.715 0.1344 0.3244 -0.9363
0.466 1.311 -2.715 0.0000 0.3511 -0.9363
0.558 1.329 -2.715 -0.1344 0.3244 -0.9363
0.636 1.381 -2.715 -0.2483 0.2483 -0.9363
0.688 1.459 -2.715 -0.3244 0.1344 -0.9363
0.818 1.551 -2.767 -0.4819 -0.0000 -0.8762
0.791 1.685 -2.767 -0.4452 -0.1844 -0.8762
0.715 1.800 -2.767 -0.3408 -0.3408 -0.8762
0.601 1.876 -2.767 -0.1844 -0.4452 -0.8762
0.466 1.903 -2.767 -0.0000 -0.4819 -0.8762
0.331 1.876 -2.767 0.1844 -0.4452 -0.8762
0.217 1.800 -2.767 0.3408 -0.3408 -0.8762
0.141 1.685 -2.767 0.4452 -0.1844 -0.8762
0.114 1.551 -2.767 0.4819 -0.0000 -0.8762
0.141 1.416 -2.767 0.4452 0.1844 -0.8762
0.217 1.302 -2.767 0.3408 0.3408 -0.8762
0.331 1.225 -2.767 0.1844 0.4452 -0.8762
0.466 1.199 -2.767 0.0000 0.4819 -0.8762
0.601 1.225 -2.767 -0.1844 0.4452 -0.8762
0.715 1.302 -2.767 -0.3408 0.3408 -0.8762
0.791 1.416 -2.767 -0.4452 0.1844 -0.8762
0.930 1.551 -2.838 -0.5870 -0.0000 -0.8096
0.895 1.728 -2.838 -0.5423 -0.2246 -0.8096
0.794 1.879 -2.838 -0.4150 -0.4150 -0.8096
0.643 1.979 -2.838 -0.2246 -0.5423 -0.8096
0.466 2.015 -2.838 -0.0000 -0.5870 -0.8096
0.288 1.979 -2.838 0.2246 -0.5423 -0.8096
0.138 1.879 -2.838 0.4150 -0.4150 -0.8096
0.037 1.728 -2.838 0.5423 -0.2246 -0.8096
0.002 1.551 -2.838 0.5870 -0.0000 -0.8096
0.037 1.373 -2.838 0.5423 0.2246 -0.8096
0.138 1.223 -2.838 0.4150 0.4150 -0.8096
0.288 1.122 -2.838 0.2246 0.5423 -0.8096
0.466 1.087 -2.838 0.0000 0.5870 -0.8096
0.643 1.122 -2.838 -0.2246 0.5423 -0.8096
0.794 1.223 -2.838 -0.4150 0.4150 -0.8096
0.895 1.373 -2.838 -0.5423 0.2246 -0.8096
1.042 1.551 -2.929 -0.6690 -0.0000 -0.7433
0.998 1.771 -2.929 -0.6180 -0.2560 -0.7433
0.873 1.958 -2.929 -0.4730 -0.4730 -0.7433
0.686 2.083 -2.929 -0.2560 -0.6180 -0.7433
0.466 2.127 -2.929 -0.0000 -0.6690 -0.7433
0.245 2.083 -2.929 0.2560 -0.6180 -0.7433
0.059 1.958 -2.929 0.4730 -0.4730 -0.7433
-0.066 1.771 -2.929 0.6180 -0.2560 -0.7433
-0.110 1.551 -2.929 0.6690 -0.0000 -0.7433
-0.066 1.330 -2.929 0.6180 0.2560 -0.7433
0.059 1.143 -2.929 0.4730 0.4730 -0.7433
0.245 1.018 -2.929 0.2560 0.6180 -0.7433
0.466 0.975 -2.929 0.0000 0.6690 -0.7433
0.686 1.018 -2.929 -0.2560 0.6180 -0.7433
0.873 1.143 -2.929 -0.4730 0.4730 -0.7433
0.998 1.330 -2.929 -0.6180 0.2560 -0.7433
1.154 1.551 -3.040 -0.7322 -0.0000 -0.6811
1.102 1.814 -3.040 -0.6765 -0.2802 -0.6811
0.952 2.037 -3.040 -0.5177 -0.5177 -0.6811
0.729 2.186 -3.040 -0.2802 -0.6765 -0.6811
0.466 2.239 -3.040 -0.0000 -0.7322 -0.6811
0.203 2.186 -3.040 0.2802 -0.6765 -0.6811
-0.021 2.037 -3.040 0.5177 -0.5177 -0.6811
-0.170 1.814 -3.040 0.6765 -0.2802 -0.6811
-0.222 1.551 -3.040 0.7322 -0.0000 -0.6811
-0.170 1.287 -3.040 0.6765 0.2802 -0.6811
-0.021 1.064 -3.040 0.5177 0.5177 -0.6811
0.203 0.915 -3.040 0.2802 0.6765 -0.6811
0.466 0.863 -3.040 0.0000 0.7322 -0.6811
0.729 0.915 -3.040 -0.2802 0.6765 -0.6811
0.952 1.064 -3.040 -0.5177 0.5177 -0.6811
1.102 1.287 -3.040 -0.6765 0.2802 -0.6811
1.266 1.551 -3.170 -0.7581 -0.0000 -0.6521
1.205 1.857 -3.170 -0.7004 -0.2901 -0.6521
1.032 2.116 -3.170 -0.5361 -0.5361 -0.6521
0.772 2.290 -3.170 -0.2901 -0.7004 -0.6521
0.466 2.351 -3.170 -0.0000 -0.7581 -0.6521
0.160 2.290 -3.170 0.2901 -0.7004 -0.6521
-0.100 2.116 -3.170 0.5361 -0.5361 -0.6521
-0.273 1.857 -3.170 0.7004 -0.2901 -0.6521
-0.334 1.551 -3.170 0.7581 -0.0000 -0.6521
-0.273 1.244 -3.170 0.7004 0.2901 -0.6521
-0.100 0.985 -3.170 0.5361 0.5361 -0.6521
0.160 0.812 -3.170 0.2901 0.7004 -0.6521
0.466 0.751 -3.170 0.0000 0.7581 -0.6521
0.772 0.812 -3.170 -0.2901 0.7004 -0.6521
1.032 0.985 -3.170 -0.5361 0.5361 -0.6521
1.205 1.244 -3.170 -0.7004 0.2901 -0.6521
0.482 1.551 -2.640 0.1118 0.0000 0.9937
0.481 1.557 -2.640 0.1033 0.0428 0.9937
0.477 1.562 -2.640 0.0791 0.0791 0.9937
0.472 1.565 -2.640 0.0428 0.1033 0.9937
0.466 1.567 -2.640 0.0000 0.1118 0.9937
0.460 1.565 -2.640 -0.0428 0.1033 0.9937
0.455 1.562 -2.640 -0.0791 0.0791 0.9937
0.451 1.557 -2.640 -0.1033 0.0428 0.9937
0.450 1.551 -2.640 -0.1118 0.0000 0.9937
0.451 1.544 -2.640 -0.1033 -0.0428 0.9937
0.455 1.539 -2.640 -0.0791 -0.0791 0.9937
0.460 1.536 -2.640 -0.0428 -0.1033 0.9937
0.466 1.535 -2.640 -0.0000 -0.1118 0.9937
0.472 1.536 -2.640 0.0428 -0.1033 0.9937
0.477 1.539 -2.640 0.0791 -0.0791 0.9937
0.481 1.544 -2.640 0.1033 -0.0428 0.9937
0.594 1.551 -2.653 0.1961 0.0000 0.9806
0.584 1.600 -2.653 0.1812 0.0751 0.9806
0.556 1.641 -2.653 0.1387 0.1387 0.9806
0.515 1.669 -2.653 0.0751 0.1812 0.9806
0.466 1.679 -2.653 0.0000 0.1961 0.9806
0.417 1.669 -2.653 -0.0751 0.1812 0.9806
0.375 1.641 -2.653 -0.1387 0.1387 0.9806
0.348 1.600 -2.653 -0.1812 0.0751 0.9806
0.338 1.551 -2.653 -0.1961 0.0000 0.9806
0.348 1.502 -2.653 -0.1812 -0.0751 0.9806
0.375 1.460 -2.653 -0.1387 -0.1387 0.9806
0.417 1.432 -2.653 -0.0751 -0.1812 0.9806
0.466 1.423 -2.653 -0.0000 -0.1961 0.9806
0.515 1.432 -2.653 0.0751 -0.1812 0.9806
0.556 1.460 -2.653 0.1387 -0.1387 0.9806
0.584 1.502 -2.653 0.1812 -0.0751 0.9806
0.706 1.551 -2.685 0.3511 0.0000 0.9363
0.688 1.642 -2.685 0.3244 0.1344 0.9363
0.636 1.720 -2.685 0.2483 0.2483 0.9363
0.558 1.772 -2.685 0.1344 0.3244 0.9363
0.466 1.791 -2.685 0.0000 0.3511 0.9363
0.374 1.772 -2.685 -0.1344 0.3244 0.9363
0.296 1.720 -2.685 -0.2483 0.2483 0.9363
0.244 1.642 -2.685 -0.3244 0.1344 0.9363
0.226 1.551 -2.685 -0.3511 0.0000 0.9363
0.244 1.459 -2.685 -0.3244 -0.1344 0.9363
0.296 1.381 -2.685 -0.2483 -0.2483 0.9363
0.374 1.329 -2.685 -0.1344 -0.3244 0.9363
0.466 1.311 -2.685 -0.0000 -0.3511 0.9363
0.558 1.329 -2.685 0.1344 -0.3244 0.9363
0.636 1.381 -2.685 0.2483 -0.2483 0.9363
0.688 1.459 -2.685 0.3244 -0.1344 0.9363
0.818 1.551 -2.737 0.4819 0.0000 0.8762
0.791 1.685 -2.737 0.4452 0.1844 0.8762
0.715 1.800 -2.737 0.3408 0.3408 0.8762
0.601 1.876 -2.737 0.1844 0.4452 0.8762
0.466 1.903 -2.737 0.0000 0.4819 0.8762
0.331 1.876 -2.737 -0.1844 0.4452 0.8762
0.217 1.800 -2.737 -0.3408 0.3408 0.8762
0.141 1.685 -2.737 -0.4452 0.1844 0.8762
0.114 1.551 -2.737 -0.4819 0.0000 0.8762
0.141 1.416 -2.737 -0.4452 -0.1844 0.8762
0.217 1.302 -2.737 -0.3408 -0.3408 0.8762
0.331 1.225 -2.737 -0.1844 -0.4452 0.8762
0.466 1.199 -2.737 -0.0000 -0.4819 0.8762
0.601 1.225 -2.737 0.1844 -0.4452 0.8762
0.715 1.302 -2.737 0.3408 -0.3408 0.8762
0.791 1.416 -2.737 0.4452 -0.1844 0.8762
0.930 1.551 -2.808 0.5870 0.0000 0.8096
0.895 1.728 -2.808 0.5423 0.2246 0.8096
0.794 1.879 -2.808 0.4150 0.4150 0.8096
0.643 1.979 -2.808 0.2246 0.5423 0.8096
0.466 2.015 -2.808 0.0000 0.5870 0.8096
0.288 1.979 -2.808 -0.2246 0.5423 0.8096
0.138 1.879 -2.808 -0.4150 0.4150 0.8096
0.037 1.728 -2.808 -0.5423 0.2246 0.8096
0.002 1.551 -2.808 -0.5870 0.0000 0.8096
0.037 1.373 -2.808 -0.5423 -0.2246 0.8096
0.138 1.223 -2.808 -0.4150 -0.4150 0.8096
0.288 1.122 -2.808 -0.2246 -0.5423 0.8096
0.466 1.087 -2.808 -0.0000 -0.5870 0.8096
0.643 1.122 -2.808 0.2246 -0.5423 0.8096
0.794 1.223 -2.808 0.4150 -0.4150 0.8096
0.895 1.373 -2.808 0.5423 -0.2246 0.8096
1.042 1.551 -2.899 0.6690 0.0000 0.7433
0.998 1.771 -2.899 0.6180 0.2560 0.7433
0.873 1.958 -2.899 0.4730 0.4730 0.7433
0.686 2.083 -2.899 0.2560 0.6180 0.7433
0.466 2.127 -2.899 0.0000 0.6690 0.7433
0.245 2.083 -2.899 -0.2560 0.6180 0.7433
0.059 1.958 -2.899 -0.4730 0.4730 0.7433
-0.066 1.771 -2.899 -0.6180 0.2560 0.7433
-0.110 1.551 -2.899 -0.6690 0.0000 0.7433
-0.066 1.330 -2.899 -0.6180 -0.2560 0.7433
0.059 1.143 -2.899 -0.4730 -0.4730 0.7433
0.245 1.018 -2.899 -0.2560 -0.6180 0.7433
0.466 0.975 -2.899 -0.0000 -0.6690 0.7433
0.686 1.018 -2.899 0.2560 -0.6180 0.7433
0.873 1.143 -2.899 0.4730 -0.4730 0.7433
0.998 1.330 -2.899 0.6180 -0.2560 0.7433
1.154 1.551 -3.010 0.7322 0.0000 0.6811
1.102 1.814 -3.010 0.6765 0.2802 0.6811
0.952 2.037 -3.010 0.5177 0.5177 0.6811
0.729 2.186 -3.010 0.2802 0.6765 0.6811
0.466 2.239 -3.010 0.0000 0.7322 0.6811
0.203 2.186 -3.010 -0.2802 0.6765 0.6811
-0.021 2.037 -3.010 -0.5177 0.5177 0.6811
-0.170 1.814 -3.010 -0.6765 0.2802 0.6811
-0.222 1.551 -3.010 -0.7322 0.0000 0.6811
-0.170 1.287 -3.010 -0.6765 -0.2802 0.6811
-0.021 1.064 -3.010 -0.5177 -0.5177 0.6811
0.203 0.915 -3.010 -0.2802 -0.6765 0.6811
0.466 0.863 -3.010 -0.0000 -0.7322 0.6811
0.729 0.915 -3.010 0.2802 -0.6765 0.6811
0.952 1.064 -3.010 0.5177 -0.5177 0.6811
1.102 1.287 -3.010 0.6765 -0.2802 0.6811
1.266 1.551 -3.140 0.7581 0.0000 0.6521
1.205 1.857 -3.140 0.7004 0.2901 0.6521
1.032 2.116 -3.140 0.5361 0.5361 0.6521
0.772 2.290 -3.140 0.2901 0.7004 0.6521
0.466 2.351 -3.140 0.0000 0.7581 0.6521
0.160 2.290 -3.140 -0.2901 0.7004 0.6521
-0.100 2.116 -3.140 -0.5361 0.5361 0.6521
-0.273 1.857 -3.140 -0.7004 0.2901 0.6521
-0.334 1.551 -3.140 -0.7581 0.0000 0.6521
-0.273 1.244 -3.140 -0.7004 -0.2901 0.6521
-0.100 0.985 -3.140 -0.5361 -0.5361 0.6521
0.160 0.812 -3.140 -0.2901 -0.7004 0.6521
0.466 0.751 -3.140 -0.0000 -0.7581 0.6521
0.772 0.812 -3.140 0.2901 -0.7004 0.6521
1.032 0.985 -3.140 0.5361 -0.5361 0.6521
1.205 1.244 -3.140 0.7004 -0.2901 0.6521
-0.287 -0.420 1.000 0.0000 0.0000 1.0000
-0.186 -0.789 0.924 0.1017 -0.3689 0.9239
-0.099 -1.102 0.707 0.1879 -0.6817 0.7071
-0.042 -1.311 0.383 0.2456 -0.8906 0.3827
-0.022 -1.385 0.000 0.2658 -0.9640 0.0000
-0.042 -1.311 -0.383 0.2456 -0.8906 -0.3827
-0.099 -1.102 -0.707 0.1879 -0.6817 -0.7071
-0.186 -0.789 -0.924 0.1017 -0.3689 -0.9239
-0.287 -0.420 -1.000 0.0000 -0.0000 -1.0000
-0.389 -0.052 -0.924 -0.1017 0.3689 -0.9239
-0.475 0.261 -0.707 -0.1879 0.6817 -0.7071
-0.533 0.470 -0.383 -0.2456 0.8906 -0.3827
-0.553 0.544 0.000 -0.2658 0.9640 -0.0000
-0.533 0.470 0.383 -0.2456 0.8906 0.3827
-0.475 0.261 0.707 -0.1879 0.6817 0.7071
-0.389 -0.052 0.924 -0.1017 0.3689 0.9239
0.918 -0.088 1.000 0.0000 0.0000 1.0000
1.019 -0.457 0.924 0.1017 -0.3689 0.9239
1.106 -0.770 0.707 0.1879 -0.6817 0.7071
1.163 -0.979 0.383 0.2456 -0.8906 0.3827
1.183 -1.052 0.000 0.2658 -0.9640 0.0000
1.163 -0.979 -0.383 0.2456 -0.8906 -0.3827
1.106 -0.770 -0.707 0.1879 -0.6817 -0.7071
1.019 -0.457 -0.924 0.1017 -0.3689 -0.9239
0.918 -0.088 -1.000 0.0000 -0.0000 -1.0000
0.816 0.281 -0.924 -0.1017 0.3689 -0.9239
0.730 0.593 -0.707 -0.1879 0.6817 -0.7071
0.672 0.802 -0.383 -0.2456 0.8906 -0.3827
0.652 0.876 0.000 -0.2658 0.9640 -0.0000
0.672 0.802 0.383 -0.2456 0.8906 0.3827
0.730 0.593 0.707 -0.1879 0.6817 0.7071
0.816 0.281 0.924 -0.1017 0.3689 0.9239
-0.287 -0.420 0.000 -0.9640 -0.2658 -0.0000
-0.287 -0.420 1.000 -0.9640 -0.2658 -0.0000
-0.186 -0.789 0.924 -0.9640 -0.2658 -0.0000
-0.099 -1.102 0.707 -0.9640 -0.2658 -0.0000
-0.042 -1.311 0.383 -0.9640 -0.2658 -0.0000
-0.022 -1.385 0.000 -0.9640 -0.2658 -0.0000
-0.042 -1.311 -0.383 -0.9640 -0.2658 -0.0000
-0.099 -1.102 -0.707 -0.9640 -0.2658 -0.0000
-0.186 -0.789 -0.924 -0.9640 -0.2658 -0.0000
-0.287 -0.420 -1.000 -0.9640 -0.2658 -0.0000
-0.389 -0.052 -0.924 -0.9640 -0.2658 -0.0000
-0.475 0.261 -0.707 -0.9640 -0.2658 -0.0000
-0.533 0.470 -0.383 -0.9640 -0.2658 -0.0000
-0.553 0.544 0.000 -0.9640 -0.2658 -0.0000
-0.533 0.470 0.383 -0.9640 -0.2658 -0.0000
-0.475 0.261 0.707 -0.9640 -0.2658 -0.0000
-0.389 -0.052 0.924 -0.9640 -0.2658 -0.0000
0.918 -0.088 0.000 0.9640 0.2658 0.0000
0.918 -0.088 1.000 0.9640 0.2658 0.0000
1.019 -0.457 0.924 0.9640 0.2658 0.0000
1.106 -0.770 0.707 0.9640 0.2658 0.0000
1.163 -0.979 0.383 0.9640 0.2658 0.0000
1.183 -1.052 0.000 0.9640 0.2658 0.0000
1.163 -0.979 -0.383 0.9640 0.2658 0.0000
1.106 -0.770 -0.707 0.9640 0.2658 0.0000
1.019 -0.457 -0.924 0.9640 0.2658 0.0000
0.918 -0.088 -1.000 0.9640 0.2658 0.0000
0.816 0.281 -0.924 0.9640 0.2658 0.0000
0.730 0.593 -0.707 0.9640 0.2658 0.0000
0.672 0.802 -0.383 0.9640 0.2658 0.0000
0.652 0.876 0.000 0.9640 0.2658 0.0000
0.672 0.802 0.383 0.9640 0.2658 0.0000
0.730 0.593 0.707 0.9640 0.2658 0.0000
0.816 0.281 0.924 0.9640 0.2658 0.0000
0 1 2
0 2 3
4 6 5
4 7 6
8 10 9
8 11 10
12 13 14
12 14 15
16 17 18
16 18 19
20 22 21
20 23 22
24 25 41
24 41 40
25 26 42
25 42 41
26 27 43
26 43 42
27 28 44
27 44 43
28 29 45
28 45 44
29 30 46
29 46 45
30 31 47
30 47 46
31 32 48
31 48 47
32 33 49
32 49 48
33 34 50
33 50 49
34 35 51
34 51 50
35 36 52
35 52 51
36 37 53
36 53 52
37 38 54
37 54 53
38 39 55
38 55 54
39 24 40
39 40 55
40 41 57
40 57 56
41 42 58
41 58 57
42 43 59
42 59 58
43 44 60
43 60 59
44 45 61
44 61 60
45 46 62
45 62 61
46 47 63
46 63 62
47 48 64
47 64 63
48 49 65
48 65 64
49 50 66
49 66 65
50 51 67
50 67 66
51 52 68
51 68 67
52 53 69
52 69 68
53 54 70
53 70 69
54 55 71
54 71 70
55 40 56
55 56 71
56 57 73
56 73 72
57 58 74
57 74 73
58 59 75
58 75 74
59 60 76
59 76 75
60 61 77
60 77 76
61 62 78
61 78 77
62 63 79
62 79 78
63 64 80
63 80 79
64 65 81
64 81 80
65 66 82
65 82 81
66 67 83
66 83 82
67 68 84
67 84 83
68 69 85
68 85 84
69 70 86
69 86 85
70 71 87
70 87 86
71 56 72
71 72 87
72 73 89
72 89 88
73 74 90
73 90 89
74 75 91
74 91 90
75 76 92
75 92 91
76 77 93
76 93 92
77 78 94
77 94 93
78 79 95
78 95 94
79 80 96
79 96 95
80 81 97
80 97 96
81 82 98
81 98 97
82 83 99
82 99 98
83 84 100
83 100 99
84 85 101
84 101 100
85 86 102
85 102 101
86 87 103
86 103 102
87 72 88
87 88 103
88 89 105
88 105 104
89 90 106
89 106 105
90 91 107
90 107 106
91 92 108
91 108 107
92 93 109
92 109 108
93 94 110
93 110 109
94 95 111
94 111 110
95 96 112
95 112 111
96 97 113
96 113 112
97 98 114
97 114 113
98 99 115
98 115 114
99 100 116
99 116 115
100 101 117
100 117 116
101 102 118
101 118 117
102 103 119
102 119 118
103 88 104
103 104 119
104 105 121
104 121 120
105 106 122
105 122 121
106 107 123
106 123 122
107 108 124
107 124 123
108 109 125
108 125 124
109 110 126
109 126 125
110 111 127
110 127 126
111 112 128
111 128 127
112 113 129
112 129 128
113 114 130
113 130 129
114 115 131
114 131 130
115 116 132
115 132 131
116 117 133
116 133 132
117 118 134
117 134 133
118 119 135
118 135 134
119 104 120
119 120 135
120 121 137
120 137 136
121 122 138
121 138 137
122 123 139
122 139 138
123 124 140
123 140 139
124 125 141
124 141 140
125 126 142
125 142 141
126 127 143
126 143 142
127 128 144
127 144 143
128 129 145
128 145 144
129 130 146
129 146 145
130 131 147
130 147 146
131 132 148
131 148 147
132 133 149
132 149 148
133 134 150
133 150 149
134 135 151
134 151 150
135 120 136
135 136 151
152 169 153
152 168 169
153 170 154
153 169 170
154 171 155
154 170 171
155 172 156
155 171 172
156 173 157
156 172 173
157 174 158
157 173 174
158 175 159
158 174 175
159 176 160
159 175 176
160 177 161
160 176 177
161 178 162
161 177 178
162 179 163
162 178 179
163 180 164
163 179 180
164 181 165
164 180 181
165 182 166
165 181 182
166 183 167
166 182 183
167 168 152
167 183 168
168 185 169
168 184 185
169 186 170
169 185 186
170 187 171
170 186 187
171 188 172
171 187 188
172 189 173
172 188 189
173 190 174
173 189 190
174 191 175
174 190 191
175 192 176
175 191 192
176 193 177
176 192 193
177 194 178
177 193 194
178 195 179
178 194 195
179 196 180
179 195 196
180 197 181
180 196 197
181 198 182
181 197 198
182 199 183
182 198 199
183 184 168
183 199 184
184 201 185
184 200 201
185 202 186
185 201 202
186 203 187
186 202 203
187 204 188
187 203 204
188 205 189
188 204 205
189 206 190
189 205 206
190 207 191
190 206 207
191 208 192
191 207 208
192 209 193
192 208 209
193 210 194
193 209 210
194 211 195
194 210 211
195 212 196
195 211 212
196 213 197
196 212 213
197 214 198
197 213 214
198 215 199
198 214 215
199 200 184
199 215 200
200 217 201
200 216 217
201 218 202
201 217 218
202 219 203
202 218 219
203 220 204
203 219 220
204 221 205
204 220 221
205 222 206
205 221 222
206 223 207
206 222 223
207 224 208
207 223 224
208 225 209
208 224 225
209 226 210
209 225 226
210 227 211
210 226 227
211 228 212
211 227 228
212 229 213
212 228 229
213 230 214
213 229 230
214 231 215
214 230 231
215 216 200
215 231 216
216 233 217
216 232 233
217 234 218
217 233 234
218 235 219
218 234 235
219 236 220
219 235 236
220 237 221
220 236 237
221 238 222
221 237 238
222 239 223
222 238 239
223 240 224
223 239 240
224 241 225
224 240 241
225 242 226
225 241 242
226 243 227
226 242 243
227 244 228
227 243 244
228 245 229
228 244 245
229 246 230
229 245 246
230 247 231
230 246 247
231 232 216
231 247 232
232 249 233
232 248 249
233 250 234
233 249 250
234 251 235
234 250 251
235 252 236
235 251 252
236 253 237
236 252 253
237 254 238
237 253 254
238 255 239
238 254 255
239 256 240
239 255 256
240 257 241
240 256 257
241 258 242
241 257 258
242 259 243
242 258 259
243 260 244
243 259 260
244 261 245
244 260 261
245 262 246
245 261 262
246 263 247
246 262 263
247 248 232
247 263 248
248 265 249
248 264 265
249 266 250
249 265 266
250 267 251
250 266 267
251 268 252
251 267 268
252 269 253
252 268 269
253 270 254
253 269 270
254 271 255
254 270 271
255 272 256
255 271 272
256 273 257
256 272 273
257 274 258
257 273 274
258 275 259
258 274 275
259 276 260
259 275 276
260 277 261
260 276 277
261 278 262
261 277 278
262 279 263
262 278 279
263 264 248
263 279 264
280 281 297
280 297 296
281 282 298
281 298 297
282 283 299
282 299 298
283 284 300
283 300 299
284 285 301
284 301 300
285 286 302
285 302 301
286 287 303
286 303 302
287 288 304
287 304 303
288 289 305
288 305 304
289 290 306
289 306 305
290 291 307
290 307 306
291 292 308
291 308 307
292 293 309
292 309 308
293 294 310
293 310 309
294 295 311
294 311 310
295 280 296
295 296 311
296 297 313
296 313 312
297 298 314
297 314 313
298 299 315
298 315 314
299 300 316
299 316 315
300 301 317
300 317 316
301 302 318
301 318 317
302 303 319
302 319 318
303 304 320
303 320 319
304 305 321
304 321 320
305 306 322
305 322 321
306 307 323
306 323 322
307 308 324
307 324 323
308 309 325
308 325 324
309 310 326
309 326 325
310 311 327
310 327 326
311 296 312
311 312 327
312 313 329
312 329 328
313 314 330
313 330 329
314 315 331
314 331 330
315 316 332
315 332 331
316 317 333
316 333 332
317 318 334
317 334 333
318 319 335
318 335 334
319 320 336
319 336 335
320 321 337
320 337 336
321 322 338
321 338 337
322 323 339
322 339 338
323 324 340
323 340 339
324 325 341
324 341 340
325 326 342
325 342 341
326 327 343
326 343 342
327 312 328
327 328 343
328 329 345
328 345 344
329 330 346
329 346 345
330 331 347
330 347 346
331 332 348
331 348 347
332 333 349
332 349 348
333 334 350
333 350 349
334 335 351
334 351 350
335 336 352
335 352 351
336 337 353
336 353 352
337 338 354
337 354 353
338 339 355
338 355 354
339 340 356
339 356 355
340 341 357
340 357 356
341 342 358
341 358 357
342 343 359
342 359 358
343 328 344
343 344 359
344 345 361
344 361 360
345 346 362
345 362 361
346 347 363
346 363 362
347 348 364
347 364 363
348 349 365
348 365 364
349 350 366
349 366 365
350 351 367
350 367 366
351 352 368
351 368 367
352 353 369
352 369 368
353 354 370
353 370 369
354 355 371
354 371 370
355 356 372
355 372 371
356 357 373
356 373 372
357 358 374
357 374 373
358 359 375
358 375 374
359 344 360
359 360 375
360 361 377
360 377 376
361 362 378
361 378 377
362 363 379
362 379 378
363 364 380
363 380 379
364 365 381
364 381 380
365 366 382
365 382 381
366 367 383
366 383 382
367 368 384
367 384 383
368 369 385
368 385 384
369 370 386
369 386 385
370 371 387
370 387 386
371 372 388
371 388 387
372 373 389
372 389 388
373 374 390
373 390 389
374 375 391
374 391 390
375 360 376
375 376 391
376 377 393
376 393 392
377 378 394
377 394 393
378 379 395
378 395 394
379 380 396
379 396 395
380 381 397
380 397 396
381 382 398
381 398 397
382 383 399
382 399 398
383 384 400
383 400 399
384 385 401
384 401 400
385 386 402
385 402 401
386 387 403
386 403 402
387 388 404
387 404 403
388 389 405
388 405 404
389 390 406
389 406 405
390 391 407
390 407 406
391 376 392
391 392 407
408 425 409
408 424 425
409 426 410
409 425 426
410 427 411
410 426 427
411 428 412
411 427 428
412 429 413
412 428 429
413 430 414
413 429 430
414 431 415
414 430 431
415 432 416
415 431 432
416 433 417
416 432 433
417 434 418
417 433 434
418 435 419
418 434 435
419 436 420
419 435 436
420 437 421
420 436 437
421 438 422
421 437 438
422 439 423
422 438 439
423 424 408
423 439 424
424 441 425
424 440 441
425 442 426
425 441 442
426 443 427
426 442 443
427 444 428
427 443 444
428 445 429
428 444 445
429 446 430
429 445 446
430 447 431
430 446 447
431 448 432
431 447 448
432 449 433
432 448 449
433 450 434
433 449 450
434 451 435
434 450 451
435 452 436
435 451 452
436 453 437
436 452 453
437 454 438
437 453 454
438 455 439
438 454 455
439 440 424
439 455 440
440 457 441
440 456 457
441 458 442
441 457 458
442 459 443
442 458 459
443 460 444
443 459 460
444 461 445
444 460 461
445 462 446
445 461 462
446 463 447
446 462 463
447 464 448
447 463 464
448 465 449
448 464 465
449 466 450
449 465 466
450 467 451
450 466 467
451 468 452
451 467 468
452 469 453
452 468 469
453 470 454
453 469 470
454 471 455
454 470 471
455 456 440
455 471 456
456 473 457
456 472 473
457 474 458
457 473 474
458 475 459
458 474 475
459 476 460
459 475 476
460 477 461
460 476 477
461 478 462
461 477 478
462 479 463
462 478 479
463 480 464
463 479 480
464 481 465
464 480 481
465 482 466
465 481 482
466 483 467
466 482 483
467 484 468
467 483 484
468 485 469
468 484 485
469 486 470
469 485 486
470 487 471
470 486 487
471 472 456
471 487 472
472 489 473
472 488 489
473 490 474
473 489 490
474 491 475
474 490 491
475 492 476
475 491 492
476 493 477
476 492 493
477 494 478
477 493 494
478 495 479
478 494 495
479 496 480
479 495 496
480 497 481
480 496 497
481 498 482
481 497 498
482 499 483
482 498 499
483 500 484
483 499 500
484 501 485
484 500 501
485 502 486
485 501 502
486 503 487
486 502 503
487 488 472
487 503 488
488 505 489
488 504 505
489 506 490
489 505 506
490 507 491
490 506 507
491 508 492
491 507 508
492 509 493
492 508 509
493 510 494
493 509 510
494 511 495
494 510 511
495 512 496
495 511 512
496 513 497
496 512 513
497 514 498
497 513 514
498 515 499
498 514 515
499 516 500
499 515 516
500 517 501
500 516 517
501 518 502
501 517 518
502 519 503
502 518 519
503 504 488
503 519 504
504 521 505
504 520 521
505 522 506
505 521 522
506 523 507
506 522 523
507 524 508
507 523 524
508 525 509
508 524 525
509 526 510
509 525 526
510 527 511
510 526 527
511 528 512
511 527 528
512 529 513
512 528 529
513 530 514
513 529 530
514 531 515
514 530 531
515 532 516
515 531 532
516 533 517
516 532 533
517 534 518
517 533 534
518 535 519
518 534 535
519 520 504
519 535 520
536 537 553
536 553 552
537 538 554
537 554 553
538 539 555
538 555 554
539 540 556
539 556 555
540 541 557
540 557 556
541 542 558
541 558 557
542 543 559
542 559 558
543 544 560
543 560 559
544 545 561
544 561 560
545 546 562
545 562 561
546 547 563
546 563 562
547 548 564
547 564 563
548 549 565
548 565 564
549 550 566
549 566 565
550 551 567
550 567 566
551 536 552
551 552 567
552 553 569
552 569 568
553 554 570
553 570 569
554 555 571
554 571 570
555 556 572
555 572 571
556 557 573
556 573 572
557 558 574
557 574 573
558 559 575
558 575 574
559 560 576
559 576 575
560 561 577
560 577 576
561 562 578
561 578 577
562 563 579
562 579 578
563 564 580
563 580 579
564 565 581
564 581 580
565 566 582
565 582 581
566 567 583
566 583 582
567 552 568
567 568 583
568 569 585
568 585 584
569 570 586
569 586 585
570 571 587
570 587 586
571 572 588
571 588 587
572 573 589
572 589 588
573 574 590
573 590 589
574 575 591
574 591 590
575 576 592
575 592 591
576 577 593
576 593 592
577 578 594
577 594 593
578 579 595
578 595 594
579 580 596
579 596 595
580 581 597
580 597 596
581 582 598
581 598 597
582 583 599
582 599 598
583 568 584
583 584 599
584 585 601
584 601 600
585 586 602
585 602 601
586 587 603
586 603 602
587 588 604
587 604 603
588 589 605
588 605 604
589 590 606
589 606 605
590 591 607
590 607 606
591 592 608
591 608 607
592 593 609
592 609 608
593 594 610
593 610 609
594 595 611
594 611 610
595 596 612
595 612 611
596 597 613
596 613 612
597 598 614
597 614 613
598 599 615
598 615 614
599 584 600
599 600 615
600 601 617
600 617 616
601 602 618
601 618 617
602 603 619
602 619 618
603 604 620
603 620 619
604 605 621
604 621 620
605 606 622
605 622 621
606 607 623
606 623 622
607 608 624
607 624 623
608 609 625
608 625 624
609 610 626
609 626 625
610 611 627
610 627 626
611 612 628
611 628 627
612 613 629
612 629 628
613 614 630
613 630 629
614 615 631
614 631 630
615 600 616
615 616 631
616 617 633
616 633 632
617 618 634
617 634 633
618 619 635
618 635 634
619 620 636
619 636 635
620 621 637
620 637 636
621 622 638
621 638 637
622 623 639
622 639 638
623 624 640
623 640 639
624 625 641
624 641 640
625 626 642
625 642 641
626 627 643
626 643 642
627 628 644
627 644 643
628 629 645
628 645 644
629 630 646
629 646 645
630 631 647
630 647 646
631 616 632
631 632 647
632 633 649
632 649 648
633 634 650
633 650 649
634 635 651
634 651 650
635 636 652
635 652 651
636 637 653
636 653 652
637 638 654
637 654 653
638 639 655
638 655 654
639 640 656
639 656 655
640 641 657
640 657 656
641 642 658
641 658 657
642 643 659
642 659 658
643 644 660
643 660 659
644 645 661
644 661 660
645 646 662
645 662 661
646 647 663
646 663 662
647 632 648
647 648 663
664 681 665
664 680 681
665 682 666
665 681 682
666 683 667
666 682 683
667 684 668
667 683 684
668 685 669
668 684 685
669 686 670
669 685 686
670 687 671
670 686 687
671 688 672
671 687 688
672 689 673
672 688 689
673 690 674
673 689 690
674 691 675
674 690 691
675 692 676
675 691 692
676 693 677
676 692 693
677 694 678
677 693 694
678 695 679
678 694 695
679 680 664
679 695 680
680 697 681
680 696 697
681 698 682
681 697 698
682 699 683
682 698 699
683 700 684
683 699 700
684 701 685
684 700 701
685 702 686
685 701 702
686 703 687
686 702 703
687 704 688
687 703 704
688 705 689
688 704 705
689 706 690
689 705 706
690 707 691
690 706 707
691 708 692
691 707 708
692 709 693
692 708 709
693 710 694
693 709 710
694 711 695
694 710 711
695 696 680
695 711 696
696 713 697
696 712 713
697 714 698
697 713 714
698 715 699
698 714 715
699 716 700
699 715 716
700 717 701
700 716 717
701 718 702
701 717 718
702 719 703
702 718 719
703 720 704
703 719 720
704 721 705
704 720 721
705 722 706
705 721 722
706 723 707
706 722 723
707 724 708
707 723 724
708 725 709
708 724 725
709 726 710
709 725 726
710 727 711
710 726 727
711 712 696
711 727 712
712 729 713
712 728 729
713 730 714
713 729 730
714 731 715
714 730 731
715 732 716
715 731 732
716 733 717
716 732 733
717 734 718
717 733 734
718 735 719
718 734 735
719 736 720
719 735 736
720 737 721
720 736 737
721 738 722
721 737 738
722 739 723
722 738 739
723 740 724
723 739 740
724 741 725
724 740 741
725 742 726
725 741 742
726 743 727
726 742 743
727 728 712
727 743 728
728 745 729
728 744 745
729 746 730
729 745 746
730 747 731
730 746 747
731 748 732
731 747 748
732 749 733
732 748 749
733 750 734
733 749 750
734 751 735
734 750 751
735 752 736
735 751 752
736 753 737
736 752 753
737 754 738
737 753 754
738 755 739
738 754 755
739 756 740
739 755 756
740 757 741
740 756 757
741 758 742
741 757 758
742 759 743
742 758 759
743 744 728
743 759 744
744 761 745
744 760 761
745 762 746
745 761 762
746 763 747
746 762 763
747 764 748
747 763 764
748 765 749
748 764 765
749 766 750
749 765 766
750 767 751
750 766 767
751 768 752
751 767 768
752 769 753
752 768 769
753 770 754
753 769 770
754 771 755
754 770 771
755 772 756
755 771 772
756 773 757
756 772 773
757 774 758
757 773 774
758 775 759
758 774 775
759 760 744
759 775 760
760 777 761
760 776 777
761 778 762
761 777 778
762 779 763
762 778 779
763 780 764
763 779 780
764 781 765
764 780 781
765 782 766
765 781 782
766 783 767
766 782 783
767 784 768
767 783 784
768 785 769
768 784 785
769 786 770
769 785 786
770 787 771
770 786 787
771 788 772
771 787 788
772 789 773
772 788 789
773 790 774
773 789 790
774 791 775
774 790 791
775 776 760
775 791 776
792 793 809
792 809 808
793 794 810
793 810 809
794 795 811
794 811 810
795 796 812
795 812 811
796 797 813
796 813 812
797 798 814
797 814 813
798 799 815
798 815 814
799 800 816
799 816 815
800 801 817
800 817 816
801 802 818
801 818 817
802 803 819
802 819 818
803 804 820
803 820 819
804 805 821
804 821 820
805 806 822
805 822 821
806 807 823
806 823 822
807 792 808
807 808 823
824 826 825
824 827 826
824 828 827
824 829 828
824 830 829
824 831 830
824 832 831
824 833 832
824 834 833
824 835 834
824 836 835
824 837 836
824 838 837
824 839 838
824 840 839
824 825 840
841 842 843
841 843 844
841 844 845
841 845 846
841 846 847
841 847 848
841 848 849
841 849 850
841 850 851
841 851 852
841 852 853
841 853 854
841 854 855
841 855 856
841 856 857
841 857 842
LABEL door_pod_1
MATERIAL 1
TEXTURE 0
GEOM 384 336 ;door_pod_1
2.680 -2.455 -3.250 0.9640 0.2658 -0.0000
2.525 -1.892 -3.250 0.9640 0.2658 -0.0000
2.680 -2.455 -2.600 0.9640 0.2658 -0.0000
2.525 -1.892 -2.600 0.9640 0.2658 -0.0000
2.680 -2.455 -1.600 0.9640 0.2658 -0.0000
2.525 -1.892 -1.600 0.9640 0.2658 -0.0000
2.680 -2.455 -0.600 0.9640 0.2658 -0.0000
2.525 -1.892 -0.600 0.9640 0.2658 -0.0000
2.680 -2.455 0.400 0.9640 0.2658 -0.0000
2.525 -1.892 0.400 0.9640 0.2658 -0.0000
2.680 -2.455 1.400 0.9640 0.2658 -0.0000
2.525 -1.892 1.400 0.9640 0.2658 -0.0000
2.680 -2.455 2.400 0.9640 0.2658 -0.0000
2.525 -1.892 2.400 0.9640 0.2658 -0.0000
2.680 -2.455 3.250 0.9640 0.2658 -0.0000
2.525 -1.892 3.250 0.9640 0.2658 -0.0000
2.525 -1.892 -3.250 0.9640 0.2658 -0.0000
2.384 -1.382 -3.250 0.9640 0.2658 -0.0000
2.525 -1.892 -2.600 0.9640 0.2658 -0.0000
2.384 -1.382 -2.600 0.9640 0.2658 -0.0000
2.525 -1.892 -1.600 0.9640 0.2658 -0.0000
2.384 -1.382 -1.600 0.9640 0.2658 -0.0000
2.525 -1.892 -0.600 0.9640 0.2658 -0.0000
2.384 -1.382 -0.600 0.9640 0.2658 -0.0000
2.525 -1.892 0.400 0.9640 0.2658 -0.0000
2.384 -1.382 0.400 0.9640 0.2658 -0.0000
2.525 -1.892 1.400 0.9640 0.2658 -0.0000
2.384 -1.382 1.400 0.9640 0.2658 -0.0000
2.525 -1.892 2.400 0.9640 0.2658 -0.0000
2.384 -1.382 2.400 0.9640 0.2658 -0.0000
2.525 -1.892 3.250 0.9640 0.2658 -0.0000
2.384 -1.382 3.250 0.9640 0.2658 -0.0000
2.384 -1.382 -3.250 0.9640 0.2658 -0.0000
2.244 -0.872 -3.250 0.9640 0.2658 -0.0000
2.384 -1.382 -2.600 0.9640 0.2658 -0.0000
2.244 -0.872 -2.600 0.9640 0.2658 -0.0000
2.384 -1.382 -1.600 0.9640 0.2658 -0.0000
2.244 -0.872 -1.600 0.9640 0.2658 -0.0000
2.384 -1.382 -0.600 0.9640 0.2658 -0.0000
2.244 -0.872 -0.600 0.9640 0.2658 -0.0000
2.384 -1.382 0.400 0.9640 0.2658 -0.0000
2.244 -0.872 0.400 0.9640 0.2658 -0.0000
2.384 -1.382 1.400 0.9640 0.2658 -0.0000
2.244 -0.872 1.400 0.9640 0.2658 -0.0000
2.384 -1.382 2.400 0.9640 0.2658 -0.0000
2.244 -0.872 2.400 0.9640 0.2658 -0.0000
2.384 -1.382 3.250 0.9640 0.2658 -0.0000
2.244 -0.872 3.250 0.9640 0.2658 -0.0000
2.244 -0.872 -3.250 0.9640 0.2658 -0.0000
2.103 -0.362 -3.250 0.9640 0.2658 -0.0000
2.244 -0.872 -2.600 0.9640 0.2658 -0.0000
2.103 -0.362 -2.600 0.9640 0.2658 -0.0000
2.244 -0.872 -1.600 0.9640 0.2658 -0.0000
2.103 -0.362 -1.600 0.9640 0.2658 -0.0000
2.244 -0.872 -0.600 0.9640 0.2658 -0.0000
2.103 -0.362 -0.600 0.9640 0.2658 -0.0000
2.244 -0.872 0.400 0.9640 0.2658 -0.0000
2.103 -0.362 0.400 0.9640 0.2658 -0.0000
2.244 -0.872 1.400 0.9640 0.2658 -0.0000
2.103 -0.362 1.400 0.9640 0.2658 -0.0000
2.244 -0.872 2.400 0.9640 0.2658 -0.0000
2.103 -0.362 2.400 0.9640 0.2658 -0.0000
2.244 -0.872 3.250 0.9640 0.2658 -0.0000
2.103 -0.362 3.250 0.9640 0.2658 -0.0000
2.103 -0.362 -3.250 0.9640 0.2658 -0.0000
1.962 0.148 -3.250 0.9640 0.2658 -0.0000
2.103 -0.362 -2.600 0.9640 0.2658 -0.0000
1.962 0.148 -2.600 0.9640 0.2658 -0.0000
2.103 -0.362 -1.600 0.9640 0.2658 -0.0000
1.962 0.148 -1.600 0.9640 0.2658 -0.0000
2.103 -0.362 -0.600 0.9640 0.2658 -0.0000
1.962 0.148 -0.600 0.9640 0.2658 -0.0000
2.103 -0.362 0.400 0.9640 0.2658 -0.0000
1.962 0.148 0.400 0.9640 0.2658 -0.0000
2.103 -0.362 1.400 0.9640 0.2658 -0.0000
1.962 0.148 1.400 0.9640 0.2658 -0.0000
2.103 -0.362 2.400 0.9640 0.2658 -0.0000
1.962 0.148 2.400 0.9640 0.2658 -0.0000
2.103 -0.362 3.250 0.9640 0.2658 -0.0000
1.962 0.148 3.250 0.9640 0.2658 -0.0000
1.962 0.148 -3.250 0.9640 0.2658 -0.0000
1.807 0.711 -3.250 0.9640 0.2658 -0.0000
1.962 0.148 -2.600 0.9640 0.2658 -0.0000
1.807 0.711 -2.600 0.9640 0.2658 -0.0000
1.962 0.148 -1.600 0.9640 0.2658 -0.0000
1.807 0.711 -1.600 0.9640 0.2658 -0.0000
1.962 0.148 -0.600 0.9640 0.2658 -0.0000
1.807 0.711 -0.600 0.9640 0.2658 -0.0000
1.962 0.148 0.400 0.9640 0.2658 -0.0000
1.807 0.711 0.400 0.9640 0.2658 -0.0000
1.962 0.148 1.400 0.9640 0.2658 -0.0000
1.807 0.711 1.400 0.9640 0.2658 -0.0000
1.962 0.148 2.400 0.9640 0.2658 -0.0000
1.807 0.711 2.400 0.9640 0.2658 -0.0000
1.962 0.148 3.250 0.9640 0.2658 -0.0000
1.807 0.711 3.250 0.9640 0.2658 -0.0000
1.807 0.711 -3.250 0.9640 0.2658 -0.0000
1.681 1.168 -3.250 0.9640 0.2658 -0.0000
1.807 0.711 -2.600 0.9640 0.2658 -0.0000
1.681 1.168 -2.600 0.9640 0.2658 -0.0000
1.807 0.711 -1.600 0.9640 0.2658 -0.0000
1.681 1.168 -1.600 0.9640 0.2658 -0.0000
1.807 0.711 -0.600 0.9640 0.2658 -0.0000
1.681 1.168 -0.600 0.9640 0.2658 -0.0000
1.807 0.711 0.400 0.9640 0.2658 -0.0000
1.681 1.168 0.400 0.9640 0.2658 -0.0000
1.807 0.711 1.400 0.9640 0.2658 -0.0000
1.681 1.168 1.400 0.9640 0.2658 -0.0000
1.807 0.711 2.400 0.9640 0.2658 -0.0000
1.681 1.168 2.400 0.9640 0.2658 -0.0000
1.807 0.711 3.250 0.9640 0.2658 -0.0000
1.681 1.168 3.250 0.9640 0.2658 -0.0000
1.681 1.168 -3.250 0.9640 0.2658 -0.0000
1.541 1.678 -3.250 0.9640 0.2658 -0.0000
1.681 1.168 -2.600 0.9640 0.2658 -0.0000
1.541 1.678 -2.600 0.9640 0.2658 -0.0000
1.681 1.168 -1.600 0.9640 0.2658 -0.0000
1.541 1.678 -1.600 0.9640 0.2658 -0.0000
1.681 1.168 -0.600 0.9640 0.2658 -0.0000
1.541 1.678 -0.600 0.9640 0.2658 -0.0000
1.681 1.168 0.400 0.9640 0.2658 -0.0000
1.541 1.678 0.400 0.9640 0.2658 -0.0000
1.681 1.168 1.400 0.9640 0.2658 -0.0000
1.541 1.678 1.400 0.9640 0.2658 -0.0000
1.681 1.168 2.400 0.9640 0.2658 -0.0000
1.541 1.678 2.400 0.9640 0.2658 -0.0000
1.681 1.168 3.250 0.9640 0.2658 -0.0000
1.541 1.678 3.250 0.9640 0.2658 -0.0000
1.541 1.678 -3.250 0.9640 0.2658 -0.0000
1.400 2.188 -3.250 0.9640 0.2658 -0.0000
1.541 1.678 -2.600 0.9640 0.2658 -0.0000
1.400 2.188 -2.600 0.9640 0.2658 -0.0000
1.541 1.678 -1.600 0.9640 0.2658 -0.0000
1.400 2.188 -1.600 0.9640 0.2658 -0.0000
1.541 1.678 -0.600 0.9640 0.2658 -0.0000
1.400 2.188 -0.600 0.9640 0.2658 -0.0000
1.541 1.678 0.400 0.9640 0.2658 -0.0000
1.400 2.188 0.400 0.9640 0.2658 -0.0000
1.541 1.678 1.400 0.9640 0.2658 -0.0000
1.400 2.188 1.400 0.9640 0.2658 -0.0000
1.541 1.678 2.400 0.9640 0.2658 -0.0000
1.400 2.188 2.400 0.9640 0.2658 -0.0000
1.541 1.678 3.250 0.9640 0.2658 -0.0000
1.400 2.188 3.250 0.9640 0.2658 -0.0000
1.400 2.188 -3.250 0.9640 0.2658 -0.0000
1.321 2.474 -3.250 0.9640 0.2658 -0.0000
1.400 2.188 -2.600 0.9640 0.2658 -0.0000
1.321 2.474 -2.600 0.9640 0.2658 -0.0000
1.400 2.188 -1.600 0.9640 0.2658 -0.0000
1.321 2.474 -1.600 0.9640 0.2658 -0.0000
1.400 2.188 -0.600 0.9640 0.2658 -0.0000
1.321 2.474 -0.600 0.9640 0.2658 -0.0000
1.400 2.188 0.400 0.9640 0.2658 -0.0000
1.321 2.474 0.400 0.9640 0.2658 -0.0000
1.400 2.188 1.400 0.9640 0.2658 -0.0000
1.321 2.474 1.400 0.9640 0.2658 -0.0000
1.400 2.188 2.400 0.9640 0.2658 -0.0000
1.321 2.474 2.400 0.9640 0.2658 -0.0000
1.400 2.188 3.250 0.9640 0.2658 -0.0000
1.321 2.474 3.250 0.9640 0.2658 -0.0000
1.321 2.474 -3.250 0.9640 0.2658 -0.0000
1.259 2.698 -3.250 0.9640 0.2658 -0.0000
1.321 2.474 -2.600 0.9640 0.2658 -0.0000
1.259 2.698 -2.600 0.9640 0.2658 -0.0000
1.321 2.474 -1.600 0.9640 0.2658 -0.0000
1.259 2.698 -1.600 0.9640 0.2658 -0.0000
1.321 2.474 -0.600 0.9640 0.2658 -0.0000
1.259 2.698 -0.600 0.9640 0.2658 -0.0000
1.321 2.474 0.400 0.9640 0.2658 -0.0000
1.259 2.698 0.400 0.9640 0.2658 -0.0000
1.321 2.474 1.400 0.9640 0.2658 -0.0000
1.259 2.698 1.400 0.9640 0.2658 -0.0000
1.321 2.474 2.400 0.9640 0.2658 -0.0000
1.259 2.698 2.400 0.9640 0.2658 -0.0000
1.321 2.474 3.250 0.9640 0.2658 -0.0000
1.259 2.698 3.250 0.9640 0.2658 -0.0000
1.259 2.698 -3.250 0.9640 0.2658 -0.0000
1.218 2.847 -3.250 0.9640 0.2658 -0.0000
1.259 2.698 -2.600 0.9640 0.2658 -0.0000
1.218 2.847 -2.600 0.9640 0.2658 -0.0000
1.259 2.698 -1.600 0.9640 0.2658 -0.0000
1.218 2.847 -1.600 0.9640 0.2658 -0.0000
1.259 2.698 -0.600 0.9640 0.2658 -0.0000
1.218 2.847 -0.600 0.9640 0.2658 -0.0000
1.259 2.698 0.400 0.9640 0.2658 -0.0000
1.218 2.847 0.400 0.9640 0.2658 -0.0000
1.259 2.698 1.400 0.9640 0.2658 -0.0000
1.218 2.847 1.400 0.9640 0.2658 -0.0000
1.259 2.698 2.400 0.9640 0.2658 -0.0000
1.218 2.847 2.400 0.9640 0.2658 -0.0000
1.259 2.698 3.250 0.9640 0.2658 -0.0000
1.218 2.847 3.250 0.9640 0.2658 -0.0000
2.439 -2.521 -3.250 -0.9640 -0.2658 0.0000
2.284 -1.959 -3.250 -0.9640 -0.2658 0.0000
2.439 -2.521 -2.600 -0.9640 -0.2658 0.0000
2.284 -1.959 -2.600 -0.9640 -0.2658 0.0000
2.439 -2.521 -1.600 -0.9640 -0.2658 0.0000
2.284 -1.959 -1.600 -0.9640 -0.2658 0.0000
2.439 -2.521 -0.600 -0.9640 -0.2658 0.0000
2.284 -1.959 -0.600 -0.9640 -0.2658 0.0000
2.439 -2.521 0.400 -0.9640 -0.2658 0.0000
2.284 -1.959 0.400 -0.9640 -0.2658 0.0000
2.439 -2.521 1.400 -0.9640 -0.2658 0.0000
2.284 -1.959 1.400 -0.9640 -0.2658 0.0000
2.439 -2.521 2.400 -0.9640 -0.2658 0.0000
2.284 -1.959 2.400 -0.9640 -0.2658 0.0000
2.439 -2.521 3.250 -0.9640 -0.2658 0.0000
2.284 -1.959 3.250 -0.9640 -0.2658 0.0000
2.284 -1.959 -3.250 -0.9640 -0.2658 0.0000
2.143 -1.448 -3.250 -0.9640 -0.2658 0.0000
2.284 -1.959 -2.600 -0.9640 -0.2658 0.0000
2.143 -1.448 -2.600 -0.9640 -0.2658 0.0000
2.284 -1.959 -1.600 -0.9640 -0.2658 0.0000
2.143 -1.448 -1.600 -0.9640 -0.2658 0.0000
2.284 -1.959 -0.600 -0.9640 -0.2658 0.0000
2.143 -1.448 -0.600 -0.9640 -0.2658 0.0000
2.284 -1.959 0.400 -0.9640 -0.2658 0.0000
2.143 -1.448 0.400 -0.9640 -0.2658 0.0000
2.284 -1.959 1.400 -0.9640 -0.2658 0.0000
2.143 -1.448 1.400 -0.9640 -0.2658 0.0000
2.284 -1.959 2.400 -0.9640 -0.2658 0.0000
2.143 -1.448 2.400 -0.9640 -0.2658 0.0000
2.284 -1.959 3.250 -0.9640 -0.2658 0.0000
2.143 -1.448 3.250 -0.9640 -0.2658 0.0000
2.143 -1.448 -3.250 -0.9640 -0.2658 0.0000
2.003 -0.938 -3.250 -0.9640 -0.2658 0.0000
2.143 -1.448 -2.600 -0.9640 -0.2658 0.0000
2.003 -0.938 -2.600 -0.9640 -0.2658 0.0000
2.143 -1.448 -1.600 -0.9640 -0.2658 0.0000
2.003 -0.938 -1.600 -0.9640 -0.2658 0.0000
2.143 -1.448 -0.600 -0.9640 -0.2658 0.0000
2.003 -0.938 -0.600 -0.9640 -0.2658 0.0000
2.143 -1.448 0.400 -0.9640 -0.2658 0.0000
2.003 -0.938 0.400 -0.9640 -0.2658 0.0000
2.143 -1.448 1.400 -0.9640 -0.2658 0.0000
2.003 -0.938 1.400 -0.9640 -0.2658 0.0000
2.143 -1.448 2.400 -0.9640 -0.2658 0.0000
2.003 -0.938 2.400 -0.9640 -0.2658 0.0000
2.143 -1.448 3.250 -0.9640 -0.2658 0.0000
2.003 -0.938 3.250 -0.9640 -0.2658 0.0000
2.003 -0.938 -3.250 -0.9640 -0.2658 0.0000
1.862 -0.428 -3.250 -0.9640 -0.2658 0.0000
2.003 -0.938 -2.600 -0.9640 -0.2658 0.0000
1.862 -0.428 -2.600 -0.9640 -0.2658 0.0000
2.003 -0.938 -1.600 -0.9640 -0.2658 0.0000
1.862 -0.428 -1.600 -0.9640 -0.2658 0.0000
2.003 -0.938 -0.600 -0.9640 -0.2658 0.0000
1.862 -0.428 -0.600 -0.9640 -0.2658 0.0000
2.003 -0.938 0.400 -0.9640 -0.2658 0.0000
1.862 -0.428 0.400 -0.9640 -0.2658 0.0000
2.003 -0.938 1.400 -0.9640 -0.2658 0.0000
1.862 -0.428 1.400 -0.9640 -0.2658 0.0000
2.003 -0.938 2.400 -0.9640 -0.2658 0.0000
1.862 -0.428 2.400 -0.9640 -0.2658 0.0000
2.003 -0.938 3.250 -0.9640 -0.2658 0.0000
1.862 -0.428 3.250 -0.9640 -0.2658 0.0000
1.862 -0.428 -3.250 -0.9640 -0.2658 0.0000
1.721 0.082 -3.250 -0.9640 -0.2658 0.0000
1.862 -0.428 -2.600 -0.9640 -0.2658 0.0000
1.721 0.082 -2.600 -0.9640 -0.2658 0.0000
1.862 -0.428 -1.600 -0.9640 -0.2658 0.0000
1.721 0.082 -1.600 -0.9640 -0.2658 0.0000
1.862 -0.428 -0.600 -0.9640 -0.2658 0.0000
1.721 0.082 -0.600 -0.9640 -0.2658 0.0000
1.862 -0.428 0.400 -0.9640 -0.2658 0.0000
1.721 0.082 0.400 -0.9640 -0.2658 0.0000
1.862 -0.428 1.400 -0.9640 -0.2658 0.0000
1.721 0.082 1.400 -0.9640 -0.2658 0.0000
1.862 -0.428 2.400 -0.9640 -0.2658 0.0000
1.721 0.082 2.400 -0.9640 -0.2658 0.0000
1.862 -0.428 3.250 -0.9640 -0.2658 0.0000
1.721 0.082 3.250 -0.9640 -0.2658 0.0000
1.721 0.082 -3.250 -0.9640 -0.2658 0.0000
1.566 0.645 -3.250 -0.9640 -0.2658 0.0000
1.721 0.082 -2.600 -0.9640 -0.2658 0.0000
1.566 0.645 -2.600 -0.9640 -0.2658 0.0000
1.721 0.082 -1.600 -0.9640 -0.2658 0.0000
1.566 0.645 -1.600 -0.9640 -0.2658 0.0000
1.721 0.082 -0.600 -0.9640 -0.2658 0.0000
1.566 0.645 -0.600 -0.9640 -0.2658 0.0000
1.721 0.082 0.400 -0.9640 -0.2658 0.0000
1.566 0.645 0.400 -0.9640 -0.2658 0.0000
1.721 0.082 1.400 -0.9640 -0.2658 0.0000
1.566 0.645 1.400 -0.9640 -0.2658 0.0000
1.721 0.082 2.400 -0.9640 -0.2658 0.0000
1.566 0.645 2.400 -0.9640 -0.2658 0.0000
1.721 0.082 3.250 -0.9640 -0.2658 0.0000
1.566 0.645 3.250 -0.9640 -0.2658 0.0000
1.566 0.645 -3.250 -0.9640 -0.2658 0.0000
1.440 1.102 -3.250 -0.9640 -0.2658 0.0000
1.566 0.645 -2.600 -0.9640 -0.2658 0.0000
1.440 1.102 -2.600 -0.9640 -0.2658 0.0000
1.566 0.645 -1.600 -0.9640 -0.2658 0.0000
1.440 1.102 -1.600 -0.9640 -0.2658 0.0000
1.566 0.645 -0.600 -0.9640 -0.2658 0.0000
1.440 1.102 -0.600 -0.9640 -0.2658 0.0000
1.566 0.645 0.400 -0.9640 -0.2658 0.0000
1.440 1.102 0.400 -0.9640 -0.2658 0.0000
1.566 0.645 1.400 -0.9640 -0.2658 0.0000
1.440 1.102 1.400 -0.9640 -0.2658 0.0000
1.566 0.645 2.400 -0.9640 -0.2658 0.0000
1.440 1.102 2.400 -0.9640 -0.2658 0.0000
1.566 0.645 3.250 -0.9640 -0.2658 0.0000
1.440 1.102 3.250 -0.9640 -0.2658 0.0000
1.440 1.102 -3.250 -0.9640 -0.2658 0.0000
1.300 1.612 -3.250 -0.9640 -0.2658 0.0000
1.440 1.102 -2.600 -0.9640 -0.2658 0.0000
1.300 1.612 -2.600 -0.9640 -0.2658 0.0000
1.440 1.102 -1.600 -0.9640 -0.2658 0.0000
1.300 1.612 -1.600 -0.9640 -0.2658 0.0000
1.440 1.102 -0.600 -0.9640 -0.2658 0.0000
1.300 1.612 -0.600 -0.9640 -0.2658 0.0000
1.440 1.102 0.400 -0.9640 -0.2658 0.0000
1.300 1.612 0.400 -0.9640 -0.2658 0.0000
1.440 1.102 1.400 -0.9640 -0.2658 0.0000
1.300 1.612 1.400 -0.9640 -0.2658 0.0000
1.440 1.102 2.400 -0.9640 -0.2658 0.0000
1.300 1.612 2.400 -0.9640 -0.2658 0.0000
1.440 1.102 3.250 -0.9640 -0.2658 0.0000
1.300 1.612 3.250 -0.9640 -0.2658 0.0000
1.300 1.612 -3.250 -0.9640 -0.2658 0.0000
1.159 2.122 -3.250 -0.9640 -0.2658 0.0000
1.300 1.612 -2.600 -0.9640 -0.2658 0.0000
1.159 2.122 -2.600 -0.9640 -0.2658 0.0000
1.300 1.612 -1.600 -0.9640 -0.2658 0.0000
1.159 2.122 -1.600 -0.9640 -0.2658 0.0000
1.300 1.612 -0.600 -0.9640 -0.2658 0.0000
1.159 2.122 -0.600 -0.9640 -0.2658 0.0000
1.300 1.612 0.400 -0.9640 -0.2658 0.0000
1.159 2.122 0.400 -0.9640 -0.2658 0.0000
1.300 1.612 1.400 -0.9640 -0.2658 0.0000
1.159 2.122 1.400 -0.9640 -0.2658 0.0000
1.300 1.612 2.400 -0.9640 -0.2658 0.0000
1.159 2.122 2.400 -0.9640 -0.2658 0.0000
1.300 1.612 3.250 -0.9640 -0.2658 0.0000
1.159 2.122 3.250 -0.9640 -0.2658 0.0000
1.159 2.122 -3.250 -0.9640 -0.2658 0.0000
1.080 2.407 -3.250 -0.9640 -0.2658 0.0000
1.159 2.122 -2.600 -0.9640 -0.2658 0.0000
1.080 2.407 -2.600 -0.9640 -0.2658 0.0000
1.159 2.122 -1.600 -0.9640 -0.2658 0.0000
1.080 2.407 -1.600 -0.9640 -0.2658 0.0000
1.159 2.122 -0.600 -0.9640 -0.2658 0.0000
1.080 2.407 -0.600 -0.9640 -0.2658 0.0000
1.159 2.122 0.400 -0.9640 -0.2658 0.0000
1.080 2.407 0.400 -0.9640 -0.2658 0.0000
1.159 2.122 1.400 -0.9640 -0.2658 0.0000
1.080 2.407 1.400 -0.9640 -0.2658 0.0000
1.159 2.122 2.400 -0.9640 -0.2658 0.0000
1.080 2.407 2.400 -0.9640 -0.2658 0.0000
1.159 2.122 3.250 -0.9640 -0.2658 0.0000
1.080 2.407 3.250 -0.9640 -0.2658 0.0000
1.080 2.407 -3.250 -0.9640 -0.2658 0.0000
1.018 2.632 -3.250 -0.9640 -0.2658 0.0000
1.080 2.407 -2.600 -0.9640 -0.2658 0.0000
1.018 2.632 -2.600 -0.9640 -0.2658 0.0000
1.080 2.407 -1.600 -0.9640 -0.2658 0.0000
1.018 2.632 -1.600 -0.9640 -0.2658 0.0000
1.080 2.407 -0.600 -0.9640 -0.2658 0.0000
1.018 2.632 -0.600 -0.9640 -0.2658 0.0000
1.080 2.407 0.400 -0.9640 -0.2658 0.0000
1.018 2.632 0.400 -0.9640 -0.2658 0.0000
1.080 2.407 1.400 -0.9640 -0.2658 0.0000
1.018 2.632 1.400 -0.9640 -0.2658 0.0000
1.080 2.407 2.400 -0.9640 -0.2658 0.0000
1.018 2.632 2.400 -0.9640 -0.2658 0.0000
1.080 2.407 3.250 -0.9640 -0.2658 0.0000
1.018 2.632 3.250 -0.9640 -0.2658 0.0000
1.018 2.632 -3.250 -0.9640 -0.2658 0.0000
0.977 2.781 -3.250 -0.9640 -0.2658 0.0000
1.018 2.632 -2.600 -0.9640 -0.2658 0.0000
0.977 2.781 -2.600 -0.9640 -0.2658 0.0000
1.018 2.632 -1.600 -0.9640 -0.2658 0.0000
0.977 2.781 -1.600 -0.9640 -0.2658 0.0000
1.018 2.632 -0.600 -0.9640 -0.2658 0.0000
0.977 2.781 -0.600 -0.9640 -0.2658 0.0000
1.018 2.632 0.400 -0.9640 -0.2658 0.0000
0.977 2.781 0.400 -0.9640 -0.2658 0.0000
1.018 2.632 1.400 -0.9640 -0.2658 0.0000
0.977 2.781 1.400 -0.9640 -0.2658 0.0000
1.018 2.632 2.400 -0.9640 -0.2658 0.0000
0.977 2.781 2.400 -0.9640 -0.2658 0.0000
1.018 2.632 3.250 -0.9640 -0.2658 0.0000
0.977 2.781 3.250 -0.9640 -0.2658 0.0000
0 1 2
2 1 3
2 3 4
4 3 5
4 5 6
6 5 7
6 7 8
8 7 9
8 9 10
10 9 11
10 11 12
12 11 13
12 13 14
14 13 15
16 17 18
18 17 19
18 19 20
20 19 21
20 21 22
22 21 23
22 23 24
24 23 25
24 25 26
26 25 27
26 27 28
28 27 29
28 29 30
30 29 31
32 33 34
34 33 35
34 35 36
36 35 37
36 37 38
38 37 39
38 39 40
40 39 41
40 41 42
42 41 43
42 43 44
44 43 45
44 45 46
46 45 47
48 49 50
50 49 51
50 51 52
52 51 53
52 53 54
54 53 55
54 55 56
56 55 57
56 57 58
58 57 59
58 59 60
60 59 61
60 61 62
62 61 63
64 65 66
66 65 67
66 67 68
68 67 69
68 69 70
70 69 71
70 71 72
72 71 73
72 73 74
74 73 75
74 75 76
76 75 77
76 77 78
78 77 79
80 81 82
82 81 83
82 83 84
84 83 85
84 85 86
86 85 87
86 87 88
88 87 89
88 89 90
90 89 91
90 91 92
92 91 93
92 93 94
94 93 95
96 97 98
98 97 99
98 99 100
100 99 101
100 101 102
102 101 103
102 103 104
104 103 105
104 105 106
106 105 107
106 107 108
108 107 109
108 109 110
110 109 111
112 113 114
114 113 115
114 115 116
116 115 117
116 117 118
118 117 119
118 119 120
120 119 121
120 121 122
122 121 123
122 123 124
124 123 125
124 125 126
126 125 127
128 129 130
130 129 131
130 131 132
132 131 133
132 133 134
134 133 135
134 135 136
136 135 137
136 137 138
138 137 139
138 139 140
140 139 141
140 141 142
142 141 143
144 145 146
146 145 147
146 147 148
148 147 149
148 149 150
150 149 151
150 151 152
152 151 153
152 153 154
154 153 155
154 155 156
156 155 157
156 157 158
158 157 159
160 161 162
162 161 163
162 163 164
164 163 165
164 165 166
166 165 167
166 167 168
168 167 169
168 169 170
170 169 171
170 171 172
172 171 173
172 173 174
174 173 175
176 177 178
178 177 179
178 179 180
180 179 181
180 181 182
182 181 183
182 183 184
184 183 185
184 185 186
186 185 187
186 187 188
188 187 189
188 189 190
190 189 191
192 194 193
194 195 193
194 196 195
196 197 195
196 198 197
198 199 197
198 200 199
200 201 199
200 202 201
202 203 201
202 204 203
204 205 203
204 206 205
206 207 205
208 210 209
210 211 209
210 212 211
212 213 211
212 214 213
214 215 213
214 216 215
216 217 215
216 218 217
218 219 217
218 220 219
220 221 219
220 222 221
222 223 221
224 226 225
226 227 225
226 228 227
228 229 227
228 230 229
230 231 229
230 232 231
232 233 231
232 234 233
234 235 233
234 236 235
236 237 235
236 238 237
238 239 237
240 242 241
242 243 241
242 244 243
244 245 243
244 246 245
246 247 245
246 248 247
248 249 247
248 250 249
250 251 249
250 252 251
252 253 251
252 254 253
254 255 253
256 258 257
258 259 257
258 260 259
260 261 259
260 262 261
262 263 261
262 264 263
264 265 263
264 266 265
266 267 265
266 268 267
268 269 267
268 270 269
270 271 269
272 274 273
274 275 273
274 276 275
276 277 275
276 278 277
278 279 277
278 280 279
280 281 279
280 282 281
282 283 281
282 284 283
284 285 283
284 286 285
286 287 285
288 290 289
290 291 289
290 292 291
292 293 291
292 294 293
294 295 293
294 296 295
296 297 295
296 298 297
298 299 297
298 300 299
300 301 299
300 302 301
302 303 301
304 306 305
306 307 305
306 308 307
308 309 307
308 310 309
310 311 309
310 312 311
312 313 311
312 314 313
314 315 313
314 316 315
316 317 315
316 318 317
318 319 317
320 322 321
322 323 321
322 324 323
324 325 323
324 326 325
326 327 325
326 328 327
328 329 327
328 330 329
330 331 329
330 332 331
332 333 331
332 334 333
334 335 333
336 338 337
338 339 337
338 340 339
340 341 339
340 342 341
342 343 341
342 344 343
344 345 343
344 346 345
346 347 345
346 348 347
348 349 347
348 350 349
350 351 349
352 354 353
354 355 353
354 356 355
356 357 355
356 358 357
358 359 357
358 360 359
360 361 359
360 362 361
362 363 361
362 364 363
364 365 363
364 366 365
366 367 365
368 370 369
370 371 369
370 372 371
372 373 371
372 374 373
374 375 373
374 376 375
376 377 375
376 378 377
378 379 377
378 380 379
380 381 379
380 382 381
382 383 381
LABEL arm_pod_1
MATERIAL 7
TEXTURE 0
GEOM 90 76 ;arm_pod_1
-0.384 -0.447 1.250 0.0000 0.0000 1.0000
-0.257 -0.908 1.155 0.1017 -0.3689 0.9239
-0.149 -1.299 0.884 0.1879 -0.6817 0.7071
-0.077 -1.560 0.478 0.2456 -0.8906 0.3827
-0.052 -1.652 0.000 0.2658 -0.9640 0.0000
-0.077 -1.560 -0.478 0.2456 -0.8906 -0.3827
-0.149 -1.299 -0.884 0.1879 -0.6817 -0.7071
-0.257 -0.908 -1.155 0.1017 -0.3689 -0.9239
-0.384 -0.447 -1.250 0.0000 -0.0000 -1.0000
-0.511 0.014 -1.155 -0.1017 0.3689 -0.9239
-0.619 0.405 -0.884 -0.1879 0.6817 -0.7071
-0.691 0.666 -0.478 -0.2456 0.8906 -0.3827
-0.716 0.758 0.000 -0.2658 0.9640 -0.0000
-0.691 0.666 0.478 -0.2456 0.8906 0.3827
-0.619 0.405 0.884 -0.1879 0.6817 0.7071
-0.511 0.014 1.155 -0.1017 0.3689 0.9239
0.725 -0.141 1.250 0.0000 0.0000 1.0000
0.852 -0.603 1.155 0.1017 -0.3689 0.9239
0.960 -0.993 0.884 0.1879 -0.6817 0.7071
1.032 -1.255 0.478 0.2456 -0.8906 0.3827
1.057 -1.346 0.000 0.2658 -0.9640 0.0000
1.032 -1.255 -0.478 0.2456 -0.8906 -0.3827
0.960 -0.993 -0.884 0.1879 -0.6817 -0.7071
0.852 -0.603 -1.155 0.1017 -0.3689 -0.9239
0.725 -0.141 -1.250 0.0000 -0.0000 -1.0000
0.598 0.320 -1.155 -0.1017 0.3689 -0.9239
0.490 0.711 -0.884 -0.1879 0.6817 -0.7071
0.418 0.972 -0.478 -0.2456 0.8906 -0.3827
0.393 1.064 0.000 -0.2658 0.9640 -0.0000
0.418 0.972 0.478 -0.2456 0.8906 0.3827
0.490 0.711 0.884 -0.1879 0.6817 0.7071
0.598 0.320 1.155 -0.1017 0.3689 0.9239
-0.384 -0.447 0.000 -0.9640 -0.2658 -0.0000
-0.384 -0.447 1.250 -0.9640 -0.2658 -0.0000
-0.257 -0.908 1.155 -0.9640 -0.2658 -0.0000
-0.149 -1.299 0.884 -0.9640 -0.2658 -0.0000
-0.077 -1.560 0.478 -0.9640 -0.2658 -0.0000
-0.052 -1.652 0.000 -0.9640 -0.2658 -0.0000
-0.077 -1.560 -0.478 -0.9640 -0.2658 -0.0000
-0.149 -1.299 -0.884 -0.9640 -0.2658 -0.0000
-0.257 -0.908 -1.155 -0.9640 -0.2658 -0.0000
-0.384 -0.447 -1.250 -0.9640 -0.2658 -0.0000
-0.511 0.014 -1.155 -0.9640 -0.2658 -0.0000
-0.619 0.405 -0.884 -0.9640 -0.2658 -0.0000
-0.691 0.666 -0.478 -0.9640 -0.2658 -0.0000
-0.716 0.758 0.000 -0.9640 -0.2658 -0.0000
-0.691 0.666 0.478 -0.9640 -0.2658 -0.0000
-0.619 0.405 0.884 -0.9640 -0.2658 -0.0000
-0.511 0.014 1.155 -0.9640 -0.2658 -0.0000
0.725 -0.141 0.000 0.9640 0.2658 0.0000
0.725 -0.141 1.250 0.9640 0.2658 0.0000
0.852 -0.603 1.155 0.9640 0.2658 0.0000
0.960 -0.993 0.884 0.9640 0.2658 0.0000
1.032 -1.255 0.478 0.9640 0.2658 0.0000
1.057 -1.346 0.000 0.9640 0.2658 0.0000
1.032 -1.255 -0.478 0.9640 0.2658 0.0000
0.960 -0.993 -0.884 0.9640 0.2658 0.0000
0.852 -0.603 -1.155 0.9640 0.2658 0.0000
0.725 -0.141 -1.250 0.9640 0.2658 0.0000
0.598 0.320 -1.155 0.9640 0.2658 0.0000
0.490 0.711 -0.884 0.9640 0.2658 0.0000
0.418 0.972 -0.478 0.9640 0.2658 0.0000
0.393 1.064 0.000 0.9640 0.2658 0.0000
0.418 0.972 0.478 0.9640 0.2658 0.0000
0.490 0.711 0.884 0.9640 0.2658 0.0000
0.598 0.320 1.155 0.9640 0.2658 0.0000
-2.680 -0.474 -1.500 -1.0000 -0.0000 -0.0000
-2.680 -0.447 -1.500 -1.0000 -0.0000 -0.0000
-2.680 -0.447 1.500 -1.0000 -0.0000 -0.0000
-2.680 -0.474 1.500 -1.0000 -0.0000 -0.0000
1.816 -0.474 -1.500 1.0000 0.0000 0.0000
1.816 -0.447 -1.500 1.0000 0.0000 0.0000
1.816 -0.447 1.500 1.0000 0.0000 0.0000
1.816 -0.474 1.500 1.0000 0.0000 0.0000
-2.680 -0.474 -1.500 -0.0000 -1.0000 -0.0000
1.816 -0.474 -1.500 -0.0000 -1.0000 -0.0000
1.816 -0.474 1.500 -0.0000 -1.0000 -0.0000
-2.680 -0.474 1.500 -0.0000 -1.0000 -0.0000
-2.680 -0.447 -1.500 0.0000 1.0000 0.0000
1.816 -0.447 -1.500 0.0000 1.0000 0.0000
1.816 -0.447 1.500 0.0000 1.0000 0.0000
-2.680 -0.447 1.500 0.0000 1.0000 0.0000
-2.680 -0.474 -1.500 -0.0000 -0.0000 -1.0000
1.816 -0.474 -1.500 -0.0000 -0.0000 -1.0000
1.816 -0.447 -1.500 -0.0000 -0.0000 -1.0000
-2.680 -0.447 -1.500 -0.0000 -0.0000 -1.0000
-2.680 -0.474 1.500 0.0000 0.0000 1.0000
1.816 -0.474 1.500 0.0000 0.0000 1.0000
1.816 -0.447 1.500 0.0000 0.0000 1.0000
-2.680 -0.447 1.500 0.0000 0.0000 1.0000
0 1 17
0 17 16
1 2 18
1 18 17
2 3 19
2 19 18
3 4 20
3 20 19
4 5 21
4 21 20
5 6 22
5 22 21
6 7 23
6 23 22
7 8 24
7 24 23
8 9 25
8 25 24
9 10 26
9 26 25
10 11 27
10 27 26
11 12 28
11 28 27
12 13 29
12 29 28
13 14 30
13 30 29
14 15 31
14 31 30
15 0 16
15 16 31
32 34 33
32 35 34
32 36 35
32 37 36
32 38 37
32 39 38
32 40 39
32 41 40
32 42 41
32 43 42
32 44 43
32 45 44
32 46 45
32 47 46
32 48 47
32 33 48
49 50 51
49 51 52
49 52 53
49 53 54
49 54 55
49 55 56
49 56 57
49 57 58
49 58 59
49 59 60
49 60 61
49 61 62
49 62 63
49 63 64
49 64 65
49 65 50
66 68 67
66 69 68
70 71 72
70 72 73
74 75 76
74 76 77
78 80 79
78 81 80
82 84 83
82 85 84
86 87 88
86 88 89
MATERIALS 75
hull_lacquer
nose_iridium
crest_radiator
structure
boron_nitride
engine_metal
mechanism
dark
band
planetary_cup
rover
shuttle
trap_shell
canopy
br_vault
br_floor
br_panel
br_panel_face
br_tub
br_holo
br_screen
br_glow
br_display
br_green
br_red
br_amber
br_seat
br_cushion
br_bezel
br_rib
br_lamp
br_cove
br_vault_lit
br_floor_lit
br_belt
in_floor
in_wall
in_ceiling
in_light
in_furn
in_seat
in_metal
in_wet
in_screen
in_trim
in_green
in_amber
in_red
in_guide
in_btn_dim
in_wall_w
in_floor_w
in_ceil_w
in_metal_w
in_trim_w
in_guide_w
in_fx
in_downlight
in_cove
lift_glass
in_wip
in_btn_cap
in_cablight
in_glass
in_wall_r
in_floor_r
in_ceil_r
in_metal_r
in_dutyred
in_door
in_wall_d
in_floor_d
in_ceil_d
in_metal_d
br_malachite
MATERIAL hull_lacquer
0.620 0.640 0.680 1.00
0.620 0.640 0.680 1.00
0.300 0.300 0.320 1 20
0.000 0.000 0.000 1
MATERIAL nose_iridium
0.780 0.760 0.700 1.00
0.780 0.760 0.700 1.00
0.950 0.950 0.950 1 80
0.000 0.000 0.000 1
MATERIAL crest_radiator
0.460 0.260 0.180 1.00
0.460 0.260 0.180 1.00
0.150 0.150 0.150 1 10
0.000 0.000 0.000 1
MATERIAL structure
0.260 0.270 0.290 1.00
0.260 0.270 0.290 1.00
0.200 0.200 0.200 1 15
0.000 0.000 0.000 1
MATERIAL boron_nitride
0.620 0.580 0.920 1.00
0.620 0.580 0.920 1.00
0.600 0.600 0.700 1 40
0.080 0.060 0.200 1
MATERIAL engine_metal
0.400 0.400 0.420 1.00
0.400 0.400 0.420 1.00
0.500 0.500 0.500 1 40
0.000 0.000 0.000 1
MATERIAL mechanism
0.540 0.560 0.600 1.00
0.540 0.560 0.600 1.00
0.700 0.700 0.720 1 50
0.000 0.000 0.000 1
MATERIAL dark
0.070 0.070 0.090 1.00
0.070 0.070 0.090 1.00
0.050 0.050 0.050 1 5
0.000 0.000 0.000 1
MATERIAL band
0.280 0.360 0.500 1.00
0.280 0.360 0.500 1.00
0.500 0.550 0.650 1 40
0.000 0.000 0.000 1
MATERIAL planetary_cup
0.600 0.700 0.850 1.00
0.600 0.700 0.850 1.00
0.700 0.700 0.800 1 50
0.030 0.060 0.100 1
MATERIAL rover
0.550 0.480 0.320 1.00
0.550 0.480 0.320 1.00
0.300 0.300 0.300 1 20
0.000 0.000 0.000 1
MATERIAL shuttle
0.850 0.840 0.810 1.00
0.850 0.840 0.810 1.00
0.400 0.400 0.400 1 30
0.000 0.000 0.000 1
MATERIAL trap_shell
0.440 0.470 0.560 1.00
0.440 0.470 0.560 1.00
0.450 0.450 0.500 1 30
0.000 0.000 0.000 1
MATERIAL canopy
0.360 0.370 0.400 1.00
0.360 0.370 0.400 1.00
0.550 0.550 0.600 1 35
0.000 0.000 0.000 1
MATERIAL br_vault
0.150 0.160 0.180 1.00
0.150 0.160 0.180 1.00
0.060 0.060 0.070 1 8
0.026 0.030 0.038 1
MATERIAL br_floor
0.550 0.580 0.620 1.00
0.550 0.580 0.620 1.00
0.350 0.360 0.400 1 40
0.160 0.180 0.210 1
MATERIAL br_panel
0.170 0.180 0.200 1.00
0.170 0.180 0.200 1.00
0.200 0.210 0.240 1 20
0.028 0.032 0.040 1
MATERIAL br_panel_face
0.240 0.250 0.280 1.00
0.240 0.250 0.280 1.00
0.300 0.320 0.360 1 30
0.042 0.047 0.056 1
MATERIAL br_tub
0.300 0.310 0.340 1.00
0.300 0.310 0.340 1.00
0.250 0.260 0.300 1 25
0.050 0.055 0.066 1
MATERIAL br_holo
0.050 0.200 0.260 1.00
0.050 0.200 0.260 1.00
0.000 0.000 0.000 1 1
0.060 0.260 0.340 1
MATERIAL br_screen
0.020 0.030 0.060 1.00
0.020 0.030 0.060 1.00
0.300 0.300 0.400 1 40
0.030 0.050 0.100 1
MATERIAL br_glow
0.400 0.900 1.000 1.00
0.400 0.900 1.000 1.00
0.000 0.000 0.000 1 1
0.300 0.700 0.900 1
MATERIAL br_display
1.000 1.000 1.000 1.00
1.000 1.000 1.000 1.00
0.000 0.000 0.000 1 1
1.000 1.000 1.000 1
MATERIAL br_green
0.300 1.000 0.500 1.00
0.300 1.000 0.500 1.00
0.000 0.000 0.000 1 1
0.200 0.900 0.400 1
MATERIAL br_red
0.900 0.200 0.150 1.00
0.900 0.200 0.150 1.00
0.300 0.100 0.100 1 20
0.500 0.080 0.050 1
MATERIAL br_amber
1.000 0.800 0.300 1.00
1.000 0.800 0.300 1.00
0.000 0.000 0.000 1 1
0.700 0.500 0.100 1
MATERIAL br_seat
0.200 0.210 0.230 1.00
0.200 0.210 0.230 1.00
0.300 0.300 0.350 1 30
0.024 0.026 0.030 1
MATERIAL br_cushion
0.210 0.240 0.290 1.00
0.210 0.240 0.290 1.00
0.100 0.100 0.120 1 10
0.028 0.032 0.040 1
MATERIAL br_bezel
0.620 0.640 0.680 1.00
0.620 0.640 0.680 1.00
0.400 0.410 0.450 1 40
0.075 0.080 0.090 1
MATERIAL br_rib
0.220 0.230 0.260 1.00
0.220 0.230 0.260 1.00
0.300 0.310 0.350 1 30
0.034 0.038 0.046 1
MATERIAL br_lamp
0.800 0.880 1.000 1.00
0.800 0.880 1.000 1.00
0.000 0.000 0.000 1 1
0.620 0.700 0.800 1
MATERIAL br_cove
0.300 0.550 0.800 1.00
0.300 0.550 0.800 1.00
0.000 0.000 0.000 1 1
0.160 0.300 0.460 1
MATERIAL br_vault_lit
0.060 0.060 0.070 1.00
0.060 0.060 0.070 1.00
0.040 0.040 0.050 1 8
1.000 1.000 1.000 1
MATERIAL br_floor_lit
0.080 0.080 0.090 1.00
0.080 0.080 0.090 1.00
0.100 0.100 0.120 1 20
1.000 1.000 1.000 1
MATERIAL br_belt
0.880 0.560 0.160 1.00
0.880 0.560 0.160 1.00
0.100 0.100 0.100 1 10
0.000 0.000 0.000 1
MATERIAL in_floor
0.500 0.500 0.500 1.00
0.500 0.500 0.500 1.00
0.100 0.100 0.100 1 10
0.500 0.500 0.520 1
MATERIAL in_wall
0.450 0.450 0.450 1.00
0.450 0.450 0.450 1.00
0.050 0.050 0.050 1 5
0.600 0.600 0.620 1
MATERIAL in_ceiling
0.450 0.450 0.450 1.00
0.450 0.450 0.450 1.00
0.000 0.000 0.000 1 1
0.550 0.550 0.570 1
MATERIAL in_light
1.000 0.970 0.880 1.00
1.000 0.970 0.880 1.00
0.000 0.000 0.000 1 1
1.000 0.960 0.840 1
MATERIAL in_furn
0.300 0.310 0.340 1.00
0.300 0.310 0.340 1.00
0.100 0.100 0.100 1 10
0.150 0.150 0.170 1
MATERIAL in_seat
0.120 0.150 0.220 1.00
0.120 0.150 0.220 1.00
0.150 0.150 0.200 1 15
0.060 0.080 0.130 1
MATERIAL in_metal
0.500 0.500 0.500 1.00
0.500 0.500 0.500 1.00
0.500 0.500 0.500 1 30
0.550 0.550 0.580 1
MATERIAL in_wet
0.360 0.500 0.550 1.00
0.360 0.500 0.550 1.00
0.200 0.200 0.250 1 20
0.130 0.190 0.210 1
MATERIAL in_screen
0.040 0.080 0.160 1.00
0.040 0.080 0.160 1.00
0.300 0.300 0.400 1 40
0.100 0.280 0.500 1
MATERIAL in_trim
0.600 0.600 0.600 1.00
0.600 0.600 0.600 1.00
0.100 0.100 0.100 1 10
0.500 0.500 0.500 1
MATERIAL in_green
0.100 0.600 0.250 1.00
0.100 0.600 0.250 1.00
0.000 0.000 0.000 1 1
0.150 1.000 0.400 1
MATERIAL in_amber
0.700 0.450 0.050 1.00
0.700 0.450 0.050 1.00
0.000 0.000 0.000 1 1
1.000 0.620 0.080 1
MATERIAL in_red
0.700 0.100 0.080 1.00
0.700 0.100 0.080 1.00
0.000 0.000 0.000 1 1
1.000 0.150 0.100 1
MATERIAL in_guide
0.200 0.500 0.700 1.00
0.200 0.500 0.700 1.00
0.000 0.000 0.000 1 1
0.250 0.750 1.000 1
MATERIAL in_btn_dim
0.160 0.180 0.200 1.00
0.160 0.180 0.200 1.00
0.300 0.300 0.300 1 20
0.040 0.050 0.060 1
MATERIAL in_wall_w
0.500 0.500 0.510 1.00
0.500 0.500 0.510 1.00
0.080 0.080 0.090 1 12
0.065 0.065 0.075 1
MATERIAL in_floor_w
0.500 0.500 0.500 1.00
0.500 0.500 0.500 1.00
0.450 0.450 0.480 1 40
0.040 0.040 0.045 1
MATERIAL in_ceil_w
0.400 0.400 0.410 1.00
0.400 0.400 0.410 1.00
0.000 0.000 0.000 1 1
0.035 0.035 0.040 1
MATERIAL in_metal_w
0.450 0.450 0.470 1.00
0.450 0.450 0.470 1.00
0.400 0.400 0.420 1 30
0.070 0.070 0.080 1
MATERIAL in_trim_w
0.500 0.500 0.500 1.00
0.500 0.500 0.500 1.00
0.100 0.100 0.100 1 10
0.140 0.140 0.140 1
MATERIAL in_guide_w
0.250 0.420 0.420 1.00
0.250 0.420 0.420 1.00
0.000 0.000 0.000 1 1
0.160 0.360 0.380 1
MATERIAL in_fx
1.000 1.000 1.000 1.00
1.000 1.000 1.000 1.00
0.000 0.000 0.000 1 1
1.000 1.000 1.000 1
MATERIAL in_downlight
1.000 0.860 0.620 1.00
1.000 0.860 0.620 1.00
0.000 0.000 0.000 1 1
1.000 0.840 0.580 1
MATERIAL in_cove
0.300 0.400 0.620 1.00
0.300 0.400 0.620 1.00
0.000 0.000 0.000 1 1
0.260 0.360 0.580 1
MATERIAL lift_glass
0.450 0.600 0.700 0.22
0.450 0.600 0.700 0.22
0.800 0.800 0.850 1 60
0.020 0.030 0.040 1
MATERIAL in_wip
0.950 0.420 0.060 1.00
0.950 0.420 0.060 1.00
0.300 0.250 0.200 1 20
0.400 0.170 0.020 1
MATERIAL in_btn_cap
0.550 0.560 0.580 1.00
0.550 0.560 0.580 1.00
0.350 0.350 0.350 1 30
0.300 0.310 0.320 1
MATERIAL in_cablight
0.950 0.930 0.860 1.00
0.950 0.930 0.860 1.00
0.000 0.000 0.000 1 1
0.800 0.770 0.680 1
MATERIAL in_glass
1.000 1.000 1.000 1.00
1.000 1.000 1.000 1.00
0.900 0.900 0.900 1 60
0.120 0.130 0.150 1
MATERIAL in_wall_r
0.400 0.380 0.380 1.00
0.400 0.380 0.380 1.00
0.050 0.050 0.050 1 5
0.050 0.012 0.011 1
MATERIAL in_floor_r
0.400 0.380 0.380 1.00
0.400 0.380 0.380 1.00
0.200 0.200 0.200 1 30
0.032 0.007 0.007 1
MATERIAL in_ceil_r
0.350 0.330 0.330 1.00
0.350 0.330 0.330 1.00
0.000 0.000 0.000 1 1
0.028 0.006 0.006 1
MATERIAL in_metal_r
0.400 0.380 0.380 1.00
0.400 0.380 0.380 1.00
0.300 0.300 0.300 1 30
0.045 0.011 0.010 1
MATERIAL in_dutyred
0.600 0.080 0.050 1.00
0.600 0.080 0.050 1.00
0.000 0.000 0.000 1 1
0.550 0.050 0.030 1
MATERIAL in_door
0.550 0.550 0.560 1.00
0.550 0.550 0.560 1.00
0.250 0.250 0.270 1 25
0.075 0.075 0.080 1
MATERIAL in_wall_d
0.080 0.080 0.085 1.00
0.080 0.080 0.085 1.00
0.020 0.020 0.020 1 5
0.018 0.018 0.020 1
MATERIAL in_floor_d
0.080 0.080 0.080 1.00
0.080 0.080 0.080 1.00
0.050 0.050 0.050 1 10
0.012 0.012 0.013 1
MATERIAL in_ceil_d
0.070 0.070 0.075 1.00
0.070 0.070 0.075 1.00
0.000 0.000 0.000 1 1
0.010 0.010 0.011 1
MATERIAL in_metal_d
0.080 0.080 0.085 1.00
0.080 0.080 0.085 1.00
0.050 0.050 0.050 1 10
0.016 0.016 0.018 1
MATERIAL br_malachite
0.160 0.380 0.310 1.00
0.160 0.380 0.310 1.00
0.400 0.480 0.450 1 35
0.020 0.048 0.040 1
TEXTURES 0
