MSHX1
GROUPS 2
LABEL pod_0
MATERIAL 6
TEXTURE 0
GEOM 560 904 ;pod_0
1.952 -0.444 2.800 0.0000 0.0000 1.0000
0.706 1.607 2.800 0.0000 0.0000 1.0000
-0.118 1.809 2.800 0.0000 0.0000 1.0000
-1.144 1.186 2.800 0.0000 0.0000 1.0000
0.413 -1.378 2.800 0.0000 0.0000 1.0000
1.952 -0.444 -2.800 -0.0000 -0.0000 -1.0000
0.706 1.607 -2.800 -0.0000 -0.0000 -1.0000
-0.118 1.809 -2.800 -0.0000 -0.0000 -1.0000
-1.144 1.186 -2.800 -0.0000 -0.0000 -1.0000
0.413 -1.378 -2.800 -0.0000 -0.0000 -1.0000
1.952 -0.444 2.800 0.8548 0.5190 -0.0000
0.706 1.607 2.800 0.8548 0.5190 -0.0000
0.706 1.607 -2.800 0.8548 0.5190 -0.0000
1.952 -0.444 -2.800 0.8548 0.5190 -0.0000
0.706 1.607 2.800 0.2375 0.9714 -0.0000
-0.118 1.809 2.800 0.2375 0.9714 -0.0000
-0.118 1.809 -2.800 0.2375 0.9714 -0.0000
0.706 1.607 -2.800 0.2375 0.9714 -0.0000
-0.118 1.809 2.800 -0.5190 0.8548 0.0000
-1.144 1.186 2.800 -0.5190 0.8548 0.0000
-1.144 1.186 -2.800 -0.5190 0.8548 0.0000
-0.118 1.809 -2.800 -0.5190 0.8548 0.0000
-1.144 1.186 2.800 -0.8548 -0.5190 0.0000
0.413 -1.378 2.800 -0.8548 -0.5190 0.0000
0.413 -1.378 -2.800 -0.8548 -0.5190 0.0000
-1.144 1.186 -2.800 -0.8548 -0.5190 0.0000
0.413 -1.378 2.800 0.5190 -0.8548 0.0000
1.952 -0.444 2.800 0.5190 -0.8548 0.0000
1.952 -0.444 -2.800 0.5190 -0.8548 0.0000
0.413 -1.378 -2.800 0.5190 -0.8548 0.0000
0.880 -0.398 -2.420 -0.1690 -0.0000 -0.9856
0.878 -0.393 -2.420 -0.1367 -0.0993 -0.9856
0.874 -0.390 -2.420 -0.0522 -0.1607 -0.9856
0.869 -0.390 -2.420 0.0522 -0.1607 -0.9856
0.864 -0.393 -2.420 0.1367 -0.0993 -0.9856
0.863 -0.398 -2.420 0.1690 -0.0000 -0.9856
0.864 -0.403 -2.420 0.1367 0.0993 -0.9856
0.869 -0.406 -2.420 0.0522 0.1607 -0.9856
0.874 -0.406 -2.420 -0.0522 0.1607 -0.9856
0.878 -0.403 -2.420 -0.1367 0.0993 -0.9856
0.938 -0.398 -2.430 -0.2915 -0.0000 -0.9566
0.926 -0.359 -2.430 -0.2358 -0.1714 -0.9566
0.892 -0.334 -2.430 -0.0901 -0.2773 -0.9566
0.850 -0.334 -2.430 0.0901 -0.2773 -0.9566
0.817 -0.359 -2.430 0.2358 -0.1714 -0.9566
0.804 -0.398 -2.430 0.2915 -0.0000 -0.9566
0.817 -0.438 -2.430 0.2358 0.1714 -0.9566
0.850 -0.462 -2.430 0.0901 0.2773 -0.9566
0.892 -0.462 -2.430 -0.0901 0.2773 -0.9566
0.926 -0.438 -2.430 -0.2358 0.1714 -0.9566
0.997 -0.398 -2.456 -0.4961 -0.0000 -0.8682
0.973 -0.324 -2.456 -0.4014 -0.2916 -0.8682
0.910 -0.279 -2.456 -0.1533 -0.4719 -0.8682
0.832 -0.279 -2.456 0.1533 -0.4719 -0.8682
0.769 -0.324 -2.456 0.4014 -0.2916 -0.8682
0.745 -0.398 -2.456 0.4961 -0.0000 -0.8682
0.769 -0.472 -2.456 0.4014 0.2916 -0.8682
0.832 -0.518 -2.456 0.1533 0.4719 -0.8682
0.910 -0.518 -2.456 -0.1533 0.4719 -0.8682
0.973 -0.472 -2.456 -0.4014 0.2916 -0.8682
1.056 -0.398 -2.497 -0.6423 -0.0000 -0.7664
1.021 -0.290 -2.497 -0.5197 -0.3776 -0.7664
0.928 -0.223 -2.497 -0.1985 -0.6109 -0.7664
0.814 -0.223 -2.497 0.1985 -0.6109 -0.7664
0.722 -0.290 -2.497 0.5197 -0.3776 -0.7664
0.686 -0.398 -2.497 0.6423 -0.0000 -0.7664
0.722 -0.507 -2.497 0.5197 0.3776 -0.7664
0.814 -0.574 -2.497 0.1985 0.6109 -0.7664
0.928 -0.574 -2.497 -0.1985 0.6109 -0.7664
1.021 -0.507 -2.497 -0.5197 0.3776 -0.7664
1.115 -0.398 -2.555 -0.7414 -0.0000 -0.6711
1.068 -0.255 -2.555 -0.5998 -0.4358 -0.6711
0.946 -0.167 -2.555 -0.2291 -0.7051 -0.6711
0.796 -0.167 -2.555 0.2291 -0.7051 -0.6711
0.674 -0.255 -2.555 0.5998 -0.4358 -0.6711
0.628 -0.398 -2.555 0.7414 -0.0000 -0.6711
0.674 -0.542 -2.555 0.5998 0.4358 -0.6711
0.796 -0.630 -2.555 0.2291 0.7051 -0.6711
0.946 -0.630 -2.555 -0.2291 0.7051 -0.6711
1.068 -0.542 -2.555 -0.5998 0.4358 -0.6711
1.174 -0.398 -2.627 -0.8080 -0.0000 -0.5892
1.116 -0.221 -2.627 -0.6537 -0.4749 -0.5892
0.965 -0.111 -2.627 -0.2497 -0.7685 -0.5892
0.778 -0.111 -2.627 0.2497 -0.7685 -0.5892
0.627 -0.221 -2.627 0.6537 -0.4749 -0.5892
0.569 -0.398 -2.627 0.8080 -0.0000 -0.5892
0.627 -0.576 -2.627 0.6537 0.4749 -0.5892
0.778 -0.686 -2.627 0.2497 0.7685 -0.5892
0.965 -0.686 -2.627 -0.2497 0.7685 -0.5892
1.116 -0.576 -2.627 -0.6537 0.4749 -0.5892
1.232 -0.398 -2.716 -0.8535 -0.0000 -0.5210
1.163 -0.186 -2.716 -0.6905 -0.5017 -0.5210
0.983 -0.055 -2.716 -0.2638 -0.8118 -0.5210
0.760 -0.055 -2.716 0.2638 -0.8118 -0.5210
0.579 -0.186 -2.716 0.6905 -0.5017 -0.5210
0.510 -0.398 -2.716 0.8535 -0.0000 -0.5210
0.579 -0.611 -2.716 0.6905 0.5017 -0.5210
0.760 -0.742 -2.716 0.2638 0.8118 -0.5210
0.983 -0.742 -2.716 -0.2638 0.8118 -0.5210
1.163 -0.611 -2.716 -0.6905 0.5017 -0.5210
1.291 -0.398 -2.820 -0.8708 -0.0000 -0.4916
1.211 -0.152 -2.820 -0.7045 -0.5119 -0.4916
1.001 0.001 -2.820 -0.2691 -0.8282 -0.4916
0.741 0.001 -2.820 0.2691 -0.8282 -0.4916
0.531 -0.152 -2.820 0.7045 -0.5119 -0.4916
0.451 -0.398 -2.820 0.8708 -0.0000 -0.4916
0.531 -0.645 -2.820 0.7045 0.5119 -0.4916
0.741 -0.798 -2.820 0.2691 0.8282 -0.4916
1.001 -0.798 -2.820 -0.2691 0.8282 -0.4916
1.211 -0.645 -2.820 -0.7045 0.5119 -0.4916
0.880 -0.398 -2.390 0.1690 0.0000 0.9856
0.878 -0.393 -2.390 0.1367 0.0993 0.9856
0.874 -0.390 -2.390 0.0522 0.1607 0.9856
0.869 -0.390 -2.390 -0.0522 0.1607 0.9856
0.864 -0.393 -2.390 -0.1367 0.0993 0.9856
0.863 -0.398 -2.390 -0.1690 0.0000 0.9856
0.864 -0.403 -2.390 -0.1367 -0.0993 0.9856
0.869 -0.406 -2.390 -0.0522 -0.1607 0.9856
0.874 -0.406 -2.390 0.0522 -0.1607 0.9856
0.878 -0.403 -2.390 0.1367 -0.0993 0.9856
0.938 -0.398 -2.400 0.2915 0.0000 0.9566
0.926 -0.359 -2.400 0.2358 0.1714 0.9566
0.892 -0.334 -2.400 0.0901 0.2773 0.9566
0.850 -0.334 -2.400 -0.0901 0.2773 0.9566
0.817 -0.359 -2.400 -0.2358 0.1714 0.9566
0.804 -0.398 -2.400 -0.2915 0.0000 0.9566
0.817 -0.438 -2.400 -0.2358 -0.1714 0.9566
0.850 -0.462 -2.400 -0.0901 -0.2773 0.9566
0.892 -0.462 -2.400 0.0901 -0.2773 0.9566
0.926 -0.438 -2.400 0.2358 -0.1714 0.9566
0.997 -0.398 -2.426 0.4961 0.0000 0.8682
0.973 -0.324 -2.426 0.4014 0.2916 0.8682
0.910 -0.279 -2.426 0.1533 0.4719 0.8682
0.832 -0.279 -2.426 -0.1533 0.4719 0.8682
0.769 -0.324 -2.426 -0.4014 0.2916 0.8682
0.745 -0.398 -2.426 -0.4961 0.0000 0.8682
0.769 -0.472 -2.426 -0.4014 -0.2916 0.8682
0.832 -0.518 -2.426 -0.1533 -0.4719 0.8682
0.910 -0.518 -2.426 0.1533 -0.4719 0.8682
0.973 -0.472 -2.426 0.4014 -0.2916 0.8682
1.056 -0.398 -2.467 0.6423 0.0000 0.7664
1.021 -0.290 -2.467 0.5197 0.3776 0.7664
0.928 -0.223 -2.467 0.1985 0.6109 0.7664
0.814 -0.223 -2.467 -0.1985 0.6109 0.7664
0.722 -0.290 -2.467 -0.5197 0.3776 0.7664
0.686 -0.398 -2.467 -0.6423 0.0000 0.7664
0.722 -0.507 -2.467 -0.5197 -0.3776 0.7664
0.814 -0.574 -2.467 -0.1985 -0.6109 0.7664
0.928 -0.574 -2.467 0.1985 -0.6109 0.7664
1.021 -0.507 -2.467 0.5197 -0.3776 0.7664
1.115 -0.398 -2.525 0.7414 0.0000 0.6711
1.068 -0.255 -2.525 0.5998 0.4358 0.6711
0.946 -0.167 -2.525 0.2291 0.7051 0.6711
0.796 -0.167 -2.525 -0.2291 0.7051 0.6711
0.674 -0.255 -2.525 -0.5998 0.4358 0.6711
0.628 -0.398 -2.525 -0.7414 0.0000 0.6711
0.674 -0.542 -2.525 -0.5998 -0.4358 0.6711
0.796 -0.630 -2.525 -0.2291 -0.7051 0.6711
0.946 -0.630 -2.525 0.2291 -0.7051 0.6711
1.068 -0.542 -2.525 0.5998 -0.4358 0.6711
1.174 -0.398 -2.597 0.8080 0.0000 0.5892
1.116 -0.221 -2.597 0.6537 0.4749 0.5892
0.965 -0.111 -2.597 0.2497 0.7685 0.5892
0.778 -0.111 -2.597 -0.2497 0.7685 0.5892
0.627 -0.221 -2.597 -0.6537 0.4749 0.5892
0.569 -0.398 -2.597 -0.8080 0.0000 0.5892
0.627 -0.576 -2.597 -0.6537 -0.4749 0.5892
0.778 -0.686 -2.597 -0.2497 -0.7685 0.5892
0.965 -0.686 -2.597 0.2497 -0.7685 0.5892
1.116 -0.576 -2.597 0.6537 -0.4749 0.5892
1.232 -0.398 -2.686 0.8535 0.0000 0.5210
1.163 -0.186 -2.686 0.6905 0.5017 0.5210
0.983 -0.055 -2.686 0.2638 0.8118 0.5210
0.760 -0.055 -2.686 -0.2638 0.8118 0.5210
0.579 -0.186 -2.686 -0.6905 0.5017 0.5210
0.510 -0.398 -2.686 -0.8535 0.0000 0.5210
0.579 -0.611 -2.686 -0.6905 -0.5017 0.5210
0.760 -0.742 -2.686 -0.2638 -0.8118 0.5210
0.983 -0.742 -2.686 0.2638 -0.8118 0.5210
1.163 -0.611 -2.686 0.6905 -0.5017 0.5210
1.291 -0.398 -2.790 0.8708 0.0000 0.4916
1.211 -0.152 -2.790 0.7045 0.5119 0.4916
1.001 0.001 -2.790 0.2691 0.8282 0.4916
0.741 0.001 -2.790 -0.2691 0.8282 0.4916
0.531 -0.152 -2.790 -0.7045 0.5119 0.4916
0.451 -0.398 -2.790 -0.8708 0.0000 0.4916
0.531 -0.645 -2.790 -0.7045 -0.5119 0.4916
0.741 -0.798 -2.790 -0.2691 -0.8282 0.4916
1.001 -0.798 -2.790 0.2691 -0.8282 0.4916
1.211 -0.645 -2.790 0.7045 -0.5119 0.4916
0.413 0.371 -2.420 -0.1690 -0.0000 -0.9856
0.411 0.376 -2.420 -0.1367 -0.0993 -0.9856
0.407 0.379 -2.420 -0.0522 -0.1607 -0.9856
0.402 0.379 -2.420 0.0522 -0.1607 -0.9856
0.397 0.376 -2.420 0.1367 -0.0993 -0.9856
0.396 0.371 -2.420 0.1690 -0.0000 -0.9856
0.397 0.366 -2.420 0.1367 0.0993 -0.9856
0.402 0.363 -2.420 0.0522 0.1607 -0.9856
0.407 0.363 -2.420 -0.0522 0.1607 -0.9856
0.411 0.366 -2.420 -0.1367 0.0993 -0.9856
0.471 0.371 -2.430 -0.2915 -0.0000 -0.9566
0.458 0.410 -2.430 -0.2358 -0.1714 -0.9566
0.425 0.435 -2.430 -0.0901 -0.2773 -0.9566
0.383 0.435 -2.430 0.0901 -0.2773 -0.9566
0.350 0.410 -2.430 0.2358 -0.1714 -0.9566
0.337 0.371 -2.430 0.2915 -0.0000 -0.9566
0.350 0.331 -2.430 0.2358 0.1714 -0.9566
0.383 0.307 -2.430 0.0901 0.2773 -0.9566
0.425 0.307 -2.430 -0.0901 0.2773 -0.9566
0.458 0.331 -2.430 -0.2358 0.1714 -0.9566
0.530 0.371 -2.456 -0.4961 -0.0000 -0.8682
0.506 0.445 -2.456 -0.4014 -0.2916 -0.8682
0.443 0.491 -2.456 -0.1533 -0.4719 -0.8682
0.365 0.491 -2.456 0.1533 -0.4719 -0.8682
0.302 0.445 -2.456 0.4014 -0.2916 -0.8682
0.278 0.371 -2.456 0.4961 -0.0000 -0.8682
0.302 0.297 -2.456 0.4014 0.2916 -0.8682
0.365 0.251 -2.456 0.1533 0.4719 -0.8682
0.443 0.251 -2.456 -0.1533 0.4719 -0.8682
0.506 0.297 -2.456 -0.4014 0.2916 -0.8682
0.589 0.371 -2.497 -0.6423 -0.0000 -0.7664
0.554 0.480 -2.497 -0.5197 -0.3776 -0.7664
0.461 0.547 -2.497 -0.1985 -0.6109 -0.7664
0.347 0.547 -2.497 0.1985 -0.6109 -0.7664
0.255 0.480 -2.497 0.5197 -0.3776 -0.7664
0.219 0.371 -2.497 0.6423 -0.0000 -0.7664
0.255 0.262 -2.497 0.5197 0.3776 -0.7664
0.347 0.195 -2.497 0.1985 0.6109 -0.7664
0.461 0.195 -2.497 -0.1985 0.6109 -0.7664
0.554 0.262 -2.497 -0.5197 0.3776 -0.7664
0.648 0.371 -2.555 -0.7414 -0.0000 -0.6711
0.601 0.514 -2.555 -0.5998 -0.4358 -0.6711
0.479 0.603 -2.555 -0.2291 -0.7051 -0.6711
0.329 0.603 -2.555 0.2291 -0.7051 -0.6711
0.207 0.514 -2.555 0.5998 -0.4358 -0.6711
0.161 0.371 -2.555 0.7414 -0.0000 -0.6711
0.207 0.228 -2.555 0.5998 0.4358 -0.6711
0.329 0.139 -2.555 0.2291 0.7051 -0.6711
0.479 0.139 -2.555 -0.2291 0.7051 -0.6711
0.601 0.228 -2.555 -0.5998 0.4358 -0.6711
0.707 0.371 -2.627 -0.8080 -0.0000 -0.5892
0.649 0.549 -2.627 -0.6537 -0.4749 -0.5892
0.498 0.659 -2.627 -0.2497 -0.7685 -0.5892
0.311 0.659 -2.627 0.2497 -0.7685 -0.5892
0.159 0.549 -2.627 0.6537 -0.4749 -0.5892
0.102 0.371 -2.627 0.8080 -0.0000 -0.5892
0.159 0.193 -2.627 0.6537 0.4749 -0.5892
0.311 0.083 -2.627 0.2497 0.7685 -0.5892
0.498 0.083 -2.627 -0.2497 0.7685 -0.5892
0.649 0.193 -2.627 -0.6537 0.4749 -0.5892
0.765 0.371 -2.716 -0.8535 -0.0000 -0.5210
0.696 0.583 -2.716 -0.6905 -0.5017 -0.5210
0.516 0.714 -2.716 -0.2638 -0.8118 -0.5210
0.292 0.714 -2.716 0.2638 -0.8118 -0.5210
0.112 0.583 -2.716 0.6905 -0.5017 -0.5210
0.043 0.371 -2.716 0.8535 -0.0000 -0.5210
0.112 0.159 -2.716 0.6905 0.5017 -0.5210
0.292 0.027 -2.716 0.2638 0.8118 -0.5210
0.516 0.027 -2.716 -0.2638 0.8118 -0.5210
0.696 0.159 -2.716 -0.6905 0.5017 -0.5210
0.824 0.371 -2.820 -0.8708 -0.0000 -0.4916
0.744 0.618 -2.820 -0.7045 -0.5119 -0.4916
0.534 0.770 -2.820 -0.2691 -0.8282 -0.4916
0.274 0.770 -2.820 0.2691 -0.8282 -0.4916
0.064 0.618 -2.820 0.7045 -0.5119 -0.4916
-0.016 0.371 -2.820 0.8708 -0.0000 -0.4916
0.064 0.124 -2.820 0.7045 0.5119 -0.4916
0.274 -0.029 -2.820 0.2691 0.8282 -0.4916
0.534 -0.029 -2.820 -0.2691 0.8282 -0.4916
0.744 0.124 -2.820 -0.7045 0.5119 -0.4916
0.413 0.371 -2.390 0.1690 0.0000 0.9856
0.411 0.376 -2.390 0.1367 0.0993 0.9856
0.407 0.379 -2.390 0.0522 0.1607 0.9856
0.402 0.379 -2.390 -0.0522 0.1607 0.9856
0.397 0.376 -2.390 -0.1367 0.0993 0.9856
0.396 0.371 -2.390 -0.1690 0.0000 0.9856
0.397 0.366 -2.390 -0.1367 -0.0993 0.9856
0.402 0.363 -2.390 -0.0522 -0.1607 0.9856
0.407 0.363 -2.390 0.0522 -0.1607 0.9856
0.411 0.366 -2.390 0.1367 -0.0993 0.9856
0.471 0.371 -2.400 0.2915 0.0000 0.9566
0.458 0.410 -2.400 0.2358 0.1714 0.9566
0.425 0.435 -2.400 0.0901 0.2773 0.9566
0.383 0.435 -2.400 -0.0901 0.2773 0.9566
0.350 0.410 -2.400 -0.2358 0.1714 0.9566
0.337 0.371 -2.400 -0.2915 0.0000 0.9566
0.350 0.331 -2.400 -0.2358 -0.1714 0.9566
0.383 0.307 -2.400 -0.0901 -0.2773 0.9566
0.425 0.307 -2.400 0.0901 -0.2773 0.9566
0.458 0.331 -2.400 0.2358 -0.1714 0.9566
0.530 0.371 -2.426 0.4961 0.0000 0.8682
0.506 0.445 -2.426 0.4014 0.2916 0.8682
0.443 0.491 -2.426 0.1533 0.4719 0.8682
0.365 0.491 -2.426 -0.1533 0.4719 0.8682
0.302 0.445 -2.426 -0.4014 0.2916 0.8682
0.278 0.371 -2.426 -0.4961 0.0000 0.8682
0.302 0.297 -2.426 -0.4014 -0.2916 0.8682
0.365 0.251 -2.426 -0.1533 -0.4719 0.8682
0.443 0.251 -2.426 0.1533 -0.4719 0.8682
0.506 0.297 -2.426 0.4014 -0.2916 0.8682
0.589 0.371 -2.467 0.6423 0.0000 0.7664
0.554 0.480 -2.467 0.5197 0.3776 0.7664
0.461 0.547 -2.467 0.1985 0.6109 0.7664
0.347 0.547 -2.467 -0.1985 0.6109 0.7664
0.255 0.480 -2.467 -0.5197 0.3776 0.7664
0.219 0.371 -2.467 -0.6423 0.0000 0.7664
0.255 0.262 -2.467 -0.5197 -0.3776 0.7664
0.347 0.195 -2.467 -0.1985 -0.6109 0.7664
0.461 0.195 -2.467 0.1985 -0.6109 0.7664
0.554 0.262 -2.467 0.5197 -0.3776 0.7664
0.648 0.371 -2.525 0.7414 0.0000 0.6711
0.601 0.514 -2.525 0.5998 0.4358 0.6711
0.479 0.603 -2.525 0.2291 0.7051 0.6711
0.329 0.603 -2.525 -0.2291 0.7051 0.6711
0.207 0.514 -2.525 -0.5998 0.4358 0.6711
0.161 0.371 -2.525 -0.7414 0.0000 0.6711
0.207 0.228 -2.525 -0.5998 -0.4358 0.6711
0.329 0.139 -2.525 -0.2291 -0.7051 0.6711
0.479 0.139 -2.525 0.2291 -0.7051 0.6711
0.601 0.228 -2.525 0.5998 -0.4358 0.6711
0.707 0.371 -2.597 0.8080 0.0000 0.5892
0.649 0.549 -2.597 0.6537 0.4749 0.5892
0.498 0.659 -2.597 0.2497 0.7685 0.5892
0.311 0.659 -2.597 -0.2497 0.7685 0.5892
0.159 0.549 -2.597 -0.6537 0.4749 0.5892
0.102 0.371 -2.597 -0.8080 0.0000 0.5892
0.159 0.193 -2.597 -0.6537 -0.4749 0.5892
0.311 0.083 -2.597 -0.2497 -0.7685 0.5892
0.498 0.083 -2.597 0.2497 -0.7685 0.5892
0.649 0.193 -2.597 0.6537 -0.4749 0.5892
0.765 0.371 -2.686 0.8535 0.0000 0.5210
0.696 0.583 -2.686 0.6905 0.5017 0.5210
0.516 0.714 -2.686 0.2638 0.8118 0.5210
0.292 0.714 -2.686 -0.2638 0.8118 0.5210
0.112 0.583 -2.686 -0.6905 0.5017 0.5210
0.043 0.371 -2.686 -0.8535 0.0000 0.5210
0.112 0.159 -2.686 -0.6905 -0.5017 0.5210
0.292 0.027 -2.686 -0.2638 -0.8118 0.5210
0.516 0.027 -2.686 0.2638 -0.8118 0.5210
0.696 0.159 -2.686 0.6905 -0.5017 0.5210
0.824 0.371 -2.790 0.8708 0.0000 0.4916
0.744 0.618 -2.790 0.7045 0.5119 0.4916
0.534 0.770 -2.790 0.2691 0.8282 0.4916
0.274 0.770 -2.790 -0.2691 0.8282 0.4916
0.064 0.618 -2.790 -0.7045 0.5119 0.4916
-0.016 0.371 -2.790 -0.8708 0.0000 0.4916
0.064 0.124 -2.790 -0.7045 -0.5119 0.4916
0.274 -0.029 -2.790 -0.2691 -0.8282 0.4916
0.534 -0.029 -2.790 0.2691 -0.8282 0.4916
0.744 0.124 -2.790 0.7045 -0.5119 0.4916
-0.055 1.140 -2.420 -0.1690 -0.0000 -0.9856
-0.056 1.145 -2.420 -0.1367 -0.0993 -0.9856
-0.060 1.148 -2.420 -0.0522 -0.1607 -0.9856
-0.066 1.148 -2.420 0.0522 -0.1607 -0.9856
-0.070 1.145 -2.420 0.1367 -0.0993 -0.9856
-0.071 1.140 -2.420 0.1690 -0.0000 -0.9856
-0.070 1.135 -2.420 0.1367 0.0993 -0.9856
-0.066 1.132 -2.420 0.0522 0.1607 -0.9856
-0.060 1.132 -2.420 -0.0522 0.1607 -0.9856
-0.056 1.135 -2.420 -0.1367 0.0993 -0.9856
0.004 1.140 -2.430 -0.2915 -0.0000 -0.9566
-0.009 1.180 -2.430 -0.2358 -0.1714 -0.9566
-0.042 1.204 -2.430 -0.0901 -0.2773 -0.9566
-0.084 1.204 -2.430 0.0901 -0.2773 -0.9566
-0.117 1.180 -2.430 0.2358 -0.1714 -0.9566
-0.130 1.140 -2.430 0.2915 -0.0000 -0.9566
-0.117 1.101 -2.430 0.2358 0.1714 -0.9566
-0.084 1.076 -2.430 0.0901 0.2773 -0.9566
-0.042 1.076 -2.430 -0.0901 0.2773 -0.9566
-0.009 1.101 -2.430 -0.2358 0.1714 -0.9566
0.063 1.140 -2.456 -0.4961 -0.0000 -0.8682
0.039 1.214 -2.456 -0.4014 -0.2916 -0.8682
-0.024 1.260 -2.456 -0.1533 -0.4719 -0.8682
-0.102 1.260 -2.456 0.1533 -0.4719 -0.8682
-0.165 1.214 -2.456 0.4014 -0.2916 -0.8682
-0.189 1.140 -2.456 0.4961 -0.0000 -0.8682
-0.165 1.066 -2.456 0.4014 0.2916 -0.8682
-0.102 1.020 -2.456 0.1533 0.4719 -0.8682
-0.024 1.020 -2.456 -0.1533 0.4719 -0.8682
0.039 1.066 -2.456 -0.4014 0.2916 -0.8682
0.122 1.140 -2.497 -0.6423 -0.0000 -0.7664
0.087 1.249 -2.497 -0.5197 -0.3776 -0.7664
-0.006 1.316 -2.497 -0.1985 -0.6109 -0.7664
-0.120 1.316 -2.497 0.1985 -0.6109 -0.7664
-0.212 1.249 -2.497 0.5197 -0.3776 -0.7664
-0.248 1.140 -2.497 0.6423 -0.0000 -0.7664
-0.212 1.032 -2.497 0.5197 0.3776 -0.7664
-0.120 0.964 -2.497 0.1985 0.6109 -0.7664
-0.006 0.964 -2.497 -0.1985 0.6109 -0.7664
0.087 1.032 -2.497 -0.5197 0.3776 -0.7664
0.181 1.140 -2.555 -0.7414 -0.0000 -0.6711
0.134 1.283 -2.555 -0.5998 -0.4358 -0.6711
0.012 1.372 -2.555 -0.2291 -0.7051 -0.6711
-0.138 1.372 -2.555 0.2291 -0.7051 -0.6711
-0.260 1.283 -2.555 0.5998 -0.4358 -0.6711
-0.307 1.140 -2.555 0.7414 -0.0000 -0.6711
-0.260 0.997 -2.555 0.5998 0.4358 -0.6711
-0.138 0.909 -2.555 0.2291 0.7051 -0.6711
0.012 0.909 -2.555 -0.2291 0.7051 -0.6711
0.134 0.997 -2.555 -0.5998 0.4358 -0.6711
0.239 1.140 -2.627 -0.8080 -0.0000 -0.5892
0.182 1.318 -2.627 -0.6537 -0.4749 -0.5892
0.030 1.428 -2.627 -0.2497 -0.7685 -0.5892
-0.156 1.428 -2.627 0.2497 -0.7685 -0.5892
-0.308 1.318 -2.627 0.6537 -0.4749 -0.5892
-0.365 1.140 -2.627 0.8080 -0.0000 -0.5892
-0.308 0.962 -2.627 0.6537 0.4749 -0.5892
-0.156 0.853 -2.627 0.2497 0.7685 -0.5892
0.030 0.853 -2.627 -0.2497 0.7685 -0.5892
0.182 0.962 -2.627 -0.6537 0.4749 -0.5892
0.298 1.140 -2.716 -0.8535 -0.0000 -0.5210
0.229 1.353 -2.716 -0.6905 -0.5017 -0.5210
0.049 1.484 -2.716 -0.2638 -0.8118 -0.5210
-0.175 1.484 -2.716 0.2638 -0.8118 -0.5210
-0.355 1.353 -2.716 0.6905 -0.5017 -0.5210
-0.424 1.140 -2.716 0.8535 -0.0000 -0.5210
-0.355 0.928 -2.716 0.6905 0.5017 -0.5210
-0.175 0.797 -2.716 0.2638 0.8118 -0.5210
0.049 0.797 -2.716 -0.2638 0.8118 -0.5210
0.229 0.928 -2.716 -0.6905 0.5017 -0.5210
0.357 1.140 -2.820 -0.8708 -0.0000 -0.4916
0.277 1.387 -2.820 -0.7045 -0.5119 -0.4916
0.067 1.540 -2.820 -0.2691 -0.8282 -0.4916
-0.193 1.540 -2.820 0.2691 -0.8282 -0.4916
-0.403 1.387 -2.820 0.7045 -0.5119 -0.4916
-0.483 1.140 -2.820 0.8708 -0.0000 -0.4916
-0.403 0.893 -2.820 0.7045 0.5119 -0.4916
-0.193 0.741 -2.820 0.2691 0.8282 -0.4916
0.067 0.741 -2.820 -0.2691 0.8282 -0.4916
0.277 0.893 -2.820 -0.7045 0.5119 -0.4916
-0.055 1.140 -2.390 0.1690 0.0000 0.9856
-0.056 1.145 -2.390 0.1367 0.0993 0.9856
-0.060 1.148 -2.390 0.0522 0.1607 0.9856
-0.066 1.148 -2.390 -0.0522 0.1607 0.9856
-0.070 1.145 -2.390 -0.1367 0.0993 0.9856
-0.071 1.140 -2.390 -0.1690 0.0000 0.9856
-0.070 1.135 -2.390 -0.1367 -0.0993 0.9856
-0.066 1.132 -2.390 -0.0522 -0.1607 0.9856
-0.060 1.132 -2.390 0.0522 -0.1607 0.9856
-0.056 1.135 -2.390 0.1367 -0.0993 0.9856
0.004 1.140 -2.400 0.2915 0.0000 0.9566
-0.009 1.180 -2.400 0.2358 0.1714 0.9566
-0.042 1.204 -2.400 0.0901 0.2773 0.9566
-0.084 1.204 -2.400 -0.0901 0.2773 0.9566
-0.117 1.180 -2.400 -0.2358 0.1714 0.9566
-0.130 1.140 -2.400 -0.2915 0.0000 0.9566
-0.117 1.101 -2.400 -0.2358 -0.1714 0.9566
-0.084 1.076 -2.400 -0.0901 -0.2773 0.9566
-0.042 1.076 -2.400 0.0901 -0.2773 0.9566
-0.009 1.101 -2.400 0.2358 -0.1714 0.9566
0.063 1.140 -2.426 0.4961 0.0000 0.8682
0.039 1.214 -2.426 0.4014 0.2916 0.8682
-0.024 1.260 -2.426 0.1533 0.4719 0.8682
-0.102 1.260 -2.426 -0.1533 0.4719 0.8682
-0.165 1.214 -2.426 -0.4014 0.2916 0.8682
-0.189 1.140 -2.426 -0.4961 0.0000 0.8682
-0.165 1.066 -2.426 -0.4014 -0.2916 0.8682
-0.102 1.020 -2.426 -0.1533 -0.4719 0.8682
-0.024 1.020 -2.426 0.1533 -0.4719 0.8682
0.039 1.066 -2.426 0.4014 -0.2916 0.8682
0.122 1.140 -2.467 0.6423 0.0000 0.7664
0.087 1.249 -2.467 0.5197 0.3776 0.7664
-0.006 1.316 -2.467 0.1985 0.6109 0.7664
-0.120 1.316 -2.467 -0.1985 0.6109 0.7664
-0.212 1.249 -2.467 -0.5197 0.3776 0.7664
-0.248 1.140 -2.467 -0.6423 0.0000 0.7664
-0.212 1.032 -2.467 -0.5197 -0.3776 0.7664
-0.120 0.964 -2.467 -0.1985 -0.6109 0.7664
-0.006 0.964 -2.467 0.1985 -0.6109 0.7664
0.087 1.032 -2.467 0.5197 -0.3776 0.7664
0.181 1.140 -2.525 0.7414 0.0000 0.6711
0.134 1.283 -2.525 0.5998 0.4358 0.6711
0.012 1.372 -2.525 0.2291 0.7051 0.6711
-0.138 1.372 -2.525 -0.2291 0.7051 0.6711
-0.260 1.283 -2.525 -0.5998 0.4358 0.6711
-0.307 1.140 -2.525 -0.7414 0.0000 0.6711
-0.260 0.997 -2.525 -0.5998 -0.4358 0.6711
-0.138 0.909 -2.525 -0.2291 -0.7051 0.6711
0.012 0.909 -2.525 0.2291 -0.7051 0.6711
0.134 0.997 -2.525 0.5998 -0.4358 0.6711
0.239 1.140 -2.597 0.8080 0.0000 0.5892
0.182 1.318 -2.597 0.6537 0.4749 0.5892
0.030 1.428 -2.597 0.2497 0.7685 0.5892
-0.156 1.428 -2.597 -0.2497 0.7685 0.5892
-0.308 1.318 -2.597 -0.6537 0.4749 0.5892
-0.365 1.140 -2.597 -0.8080 0.0000 0.5892
-0.308 0.962 -2.597 -0.6537 -0.4749 0.5892
-0.156 0.853 -2.597 -0.2497 -0.7685 0.5892
0.030 0.853 -2.597 0.2497 -0.7685 0.5892
0.182 0.962 -2.597 0.6537 -0.4749 0.5892
0.298 1.140 -2.686 0.8535 0.0000 0.5210
0.229 1.353 -2.686 0.6905 0.5017 0.5210
0.049 1.484 -2.686 0.2638 0.8118 0.5210
-0.175 1.484 -2.686 -0.2638 0.8118 0.5210
-0.355 1.353 -2.686 -0.6905 0.5017 0.5210
-0.424 1.140 -2.686 -0.8535 0.0000 0.5210
-0.355 0.928 -2.686 -0.6905 -0.5017 0.5210
-0.175 0.797 -2.686 -0.2638 -0.8118 0.5210
0.049 0.797 -2.686 0.2638 -0.8118 0.5210
0.229 0.928 -2.686 0.6905 -0.5017 0.5210
0.357 1.140 -2.790 0.8708 0.0000 0.4916
0.277 1.387 -2.790 0.7045 0.5119 0.4916
0.067 1.540 -2.790 0.2691 0.8282 0.4916
-0.193 1.540 -2.790 -0.2691 0.8282 0.4916
-0.403 1.387 -2.790 -0.7045 0.5119 0.4916
-0.483 1.140 -2.790 -0.8708 0.0000 0.4916
-0.403 0.893 -2.790 -0.7045 -0.5119 0.4916
-0.193 0.741 -2.790 -0.2691 -0.8282 0.4916
0.067 0.741 -2.790 0.2691 -0.8282 0.4916
0.277 0.893 -2.790 0.7045 -0.5119 0.4916
-0.322 -0.070 -0.900 0.0000 0.0000 -1.0000
-0.089 -0.455 -0.779 0.2595 -0.4274 -0.8660
0.082 -0.736 -0.450 0.4494 -0.7403 -0.5000
0.145 -0.840 -0.000 0.5190 -0.8548 -0.0000
0.082 -0.736 0.450 0.4494 -0.7403 0.5000
-0.089 -0.455 0.779 0.2595 -0.4274 0.8660
-0.322 -0.070 0.900 0.0000 -0.0000 1.0000
-0.556 0.314 0.779 -0.2595 0.4274 0.8660
-0.727 0.596 0.450 -0.4494 0.7403 0.5000
-0.790 0.699 -0.000 -0.5190 0.8548 0.0000
-0.727 0.596 -0.450 -0.4494 0.7403 -0.5000
-0.556 0.314 -0.779 -0.2595 0.4274 -0.8660
-0.622 -0.252 -0.900 0.0000 0.0000 -1.0000
-0.388 -0.637 -0.779 0.2595 -0.4274 -0.8660
-0.217 -0.918 -0.450 0.4494 -0.7403 -0.5000
-0.155 -1.021 -0.000 0.5190 -0.8548 -0.0000
-0.217 -0.918 0.450 0.4494 -0.7403 0.5000
-0.388 -0.637 0.779 0.2595 -0.4274 0.8660
-0.622 -0.252 0.900 0.0000 -0.0000 1.0000
-0.855 0.133 0.779 -0.2595 0.4274 0.8660
-1.026 0.414 0.450 -0.4494 0.7403 0.5000
-1.089 0.517 -0.000 -0.5190 0.8548 0.0000
-1.026 0.414 -0.450 -0.4494 0.7403 -0.5000
-0.855 0.133 -0.779 -0.2595 0.4274 -0.8660
-0.322 -0.070 -0.000 0.8548 0.5190 -0.0000
-0.322 -0.070 -0.900 0.8548 0.5190 -0.0000
-0.089 -0.455 -0.779 0.8548 0.5190 -0.0000
0.082 -0.736 -0.450 0.8548 0.5190 -0.0000
0.145 -0.840 -0.000 0.8548 0.5190 -0.0000
0.082 -0.736 0.450 0.8548 0.5190 -0.0000
-0.089 -0.455 0.779 0.8548 0.5190 -0.0000
-0.322 -0.070 0.900 0.8548 0.5190 -0.0000
-0.556 0.314 0.779 0.8548 0.5190 -0.0000
-0.727 0.596 0.450 0.8548 0.5190 -0.0000
-0.790 0.699 -0.000 0.8548 0.5190 -0.0000
-0.727 0.596 -0.450 0.8548 0.5190 -0.0000
-0.556 0.314 -0.779 0.8548 0.5190 -0.0000
-0.622 -0.252 -0.000 -0.8548 -0.5190 0.0000
-0.622 -0.252 -0.900 -0.8548 -0.5190 0.0000
-0.388 -0.637 -0.779 -0.8548 -0.5190 0.0000
-0.217 -0.918 -0.450 -0.8548 -0.5190 0.0000
-0.155 -1.021 -0.000 -0.8548 -0.5190 0.0000
-0.217 -0.918 0.450 -0.8548 -0.5190 0.0000
-0.388 -0.637 0.779 -0.8548 -0.5190 0.0000
-0.622 -0.252 0.900 -0.8548 -0.5190 0.0000
-0.855 0.133 0.779 -0.8548 -0.5190 0.0000
-1.026 0.414 0.450 -0.8548 -0.5190 0.0000
-1.089 0.517 -0.000 -0.8548 -0.5190 0.0000
-1.026 0.414 -0.450 -0.8548 -0.5190 0.0000
-0.855 0.133 -0.779 -0.8548 -0.5190 0.0000
0 1 2
0 2 3
0 3 4
5 7 6
5 8 7
5 9 8
10 12 11
10 13 12
14 16 15
14 17 16
18 20 19
18 21 20
22 24 23
22 25 24
26 28 27
26 29 28
30 31 41
30 41 40
31 32 42
31 42 41
32 33 43
32 43 42
33 34 44
33 44 43
34 35 45
34 45 44
35 36 46
35 46 45
36 37 47
36 47 46
37 38 48
37 48 47
38 39 49
38 49 48
39 30 40
39 40 49
40 41 51
40 51 50
41 42 52
41 52 51
42 43 53
42 53 52
43 44 54
43 54 53
44 45 55
44 55 54
45 46 56
45 56 55
46 47 57
46 57 56
47 48 58
47 58 57
48 49 59
48 59 58
49 40 50
49 50 59
50 51 61
50 61 60
51 52 62
51 62 61
52 53 63
52 63 62
53 54 64
53 64 63
54 55 65
54 65 64
55 56 66
55 66 65
56 57 67
56 67 66
57 58 68
57 68 67
58 59 69
58 69 68
59 50 60
59 60 69
60 61 71
60 71 70
61 62 72
61 72 71
62 63 73
62 73 72
63 64 74
63 74 73
64 65 75
64 75 74
65 66 76
65 76 75
66 67 77
66 77 76
67 68 78
67 78 77
68 69 79
68 79 78
69 60 70
69 70 79
70 71 81
70 81 80
71 72 82
71 82 81
72 73 83
72 83 82
73 74 84
73 84 83
74 75 85
74 85 84
75 76 86
75 86 85
76 77 87
76 87 86
77 78 88
77 88 87
78 79 89
78 89 88
79 70 80
79 80 89
80 81 91
80 91 90
81 82 92
81 92 91
82 83 93
82 93 92
83 84 94
83 94 93
84 85 95
84 95 94
85 86 96
85 96 95
86 87 97
86 97 96
87 88 98
87 98 97
88 89 99
88 99 98
89 80 90
89 90 99
90 91 101
90 101 100
91 92 102
91 102 101
92 93 103
92 103 102
93 94 104
93 104 103
94 95 105
94 105 104
95 96 106
95 106 105
96 97 107
96 107 106
97 98 108
97 108 107
98 99 109
98 109 108
99 90 100
99 100 109
110 121 111
110 120 121
111 122 112
111 121 122
112 123 113
112 122 123
113 124 114
113 123 124
114 125 115
114 124 125
115 126 116
115 125 126
116 127 117
116 126 127
117 128 118
117 127 128
118 129 119
118 128 129
119 120 110
119 129 120
120 131 121
120 130 131
121 132 122
121 131 132
122 133 123
122 132 133
123 134 124
123 133 134
124 135 125
124 134 135
125 136 126
125 135 136
126 137 127
126 136 137
127 138 128
127 137 138
128 139 129
128 138 139
129 130 120
129 139 130
130 141 131
130 140 141
131 142 132
131 141 142
132 143 133
132 142 143
133 144 134
133 143 144
134 145 135
134 144 145
135 146 136
135 145 146
136 147 137
136 146 147
137 148 138
137 147 148
138 149 139
138 148 149
139 140 130
139 149 140
140 151 141
140 150 151
141 152 142
141 151 152
142 153 143
142 152 153
143 154 144
143 153 154
144 155 145
144 154 155
145 156 146
145 155 156
146 157 147
146 156 157
147 158 148
147 157 158
148 159 149
148 158 159
149 150 140
149 159 150
150 161 151
150 160 161
151 162 152
151 161 162
152 163 153
152 162 163
153 164 154
153 163 164
154 165 155
154 164 165
155 166 156
155 165 166
156 167 157
156 166 167
157 168 158
157 167 168
158 169 159
158 168 169
159 160 150
159 169 160
160 171 161
160 170 171
161 172 162
161 171 172
162 173 163
162 172 173
163 174 164
163 173 174
164 175 165
164 174 175
165 176 166
165 175 176
166 177 167
166 176 177
167 178 168
167 177 178
168 179 169
168 178 179
169 170 160
169 179 170
170 181 171
170 180 181
171 182 172
171 181 182
172 183 173
172 182 183
173 184 174
173 183 184
174 185 175
174 184 185
175 186 176
175 185 186
176 187 177
176 186 187
177 188 178
177 187 188
178 189 179
178 188 189
179 180 170
179 189 180
190 191 201
190 201 200
191 192 202
191 202 201
192 193 203
192 203 202
193 194 204
193 204 203
194 195 205
194 205 204
195 196 206
195 206 205
196 197 207
196 207 206
197 198 208
197 208 207
198 199 209
198 209 208
199 190 200
199 200 209
200 201 211
200 211 210
201 202 212
201 212 211
202 203 213
202 213 212
203 204 214
203 214 213
204 205 215
204 215 214
205 206 216
205 216 215
206 207 217
206 217 216
207 208 218
207 218 217
208 209 219
208 219 218
209 200 210
209 210 219
210 211 221
210 221 220
211 212 222
211 222 221
212 213 223
212 223 222
213 214 224
213 224 223
214 215 225
214 225 224
215 216 226
215 226 225
216 217 227
216 227 226
217 218 228
217 228 227
218 219 229
218 229 228
219 210 220
219 220 229
220 221 231
220 231 230
221 222 232
221 232 231
222 223 233
222 233 232
223 224 234
223 234 233
224 225 235
224 235 234
225 226 236
225 236 235
226 227 237
226 237 236
227 228 238
227 238 237
228 229 239
228 239 238
229 220 230
229 230 239
230 231 241
230 241 240
231 232 242
231 242 241
232 233 243
232 243 242
233 234 244
233 244 243
234 235 245
234 245 244
235 236 246
235 246 245
236 237 247
236 247 246
237 238 248
237 248 247
238 239 249
238 249 248
239 230 240
239 240 249
240 241 251
240 251 250
241 242 252
241 252 251
242 243 253
242 253 252
243 244 254
243 254 253
244 245 255
244 255 254
245 246 256
245 256 255
246 247 257
246 257 256
247 248 258
247 258 257
248 249 259
248 259 258
249 240 250
249 250 259
250 251 261
250 261 260
251 252 262
251 262 261
252 253 263
252 263 262
253 254 264
253 264 263
254 255 265
254 265 264
255 256 266
255 266 265
256 257 267
256 267 266
257 258 268
257 268 267
258 259 269
258 269 268
259 250 260
259 260 269
270 281 271
270 280 281
271 282 272
271 281 282
272 283 273
272 282 283
273 284 274
273 283 284
274 285 275
274 284 285
275 286 276
275 285 286
276 287 277
276 286 287
277 288 278
277 287 288
278 289 279
278 288 289
279 280 270
279 289 280
280 291 281
280 290 291
281 292 282
281 291 292
282 293 283
282 292 293
283 294 284
283 293 294
284 295 285
284 294 295
285 296 286
285 295 296
286 297 287
286 296 297
287 298 288
287 297 298
288 299 289
288 298 299
289 290 280
289 299 290
290 301 291
290 300 301
291 302 292
291 301 302
292 303 293
292 302 303
293 304 294
293 303 304
294 305 295
294 304 305
295 306 296
295 305 306
296 307 297
296 306 307
297 308 298
297 307 308
298 309 299
298 308 309
299 300 290
299 309 300
300 311 301
300 310 311
301 312 302
301 311 312
302 313 303
302 312 313
303 314 304
303 313 314
304 315 305
304 314 315
305 316 306
305 315 316
306 317 307
306 316 317
307 318 308
307 317 318
308 319 309
308 318 319
309 310 300
309 319 310
310 321 311
310 320 321
311 322 312
311 321 322
312 323 313
312 322 323
313 324 314
313 323 324
314 325 315
314 324 325
315 326 316
315 325 326
316 327 317
316 326 327
317 328 318
317 327 328
318 329 319
318 328 329
319 320 310
319 329 320
320 331 321
320 330 331
321 332 322
321 331 332
322 333 323
322 332 333
323 334 324
323 333 334
324 335 325
324 334 335
325 336 326
325 335 336
326 337 327
326 336 337
327 338 328
327 337 338
328 339 329
328 338 339
329 330 320
329 339 330
330 341 331
330 340 341
331 342 332
331 341 342
332 343 333
332 342 343
333 344 334
333 343 344
334 345 335
334 344 345
335 346 336
335 345 346
336 347 337
336 346 347
337 348 338
337 347 348
338 349 339
338 348 349
339 340 330
339 349 340
350 351 361
350 361 360
351 352 362
351 362 361
352 353 363
352 363 362
353 354 364
353 364 363
354 355 365
354 365 364
355 356 366
355 366 365
356 357 367
356 367 366
357 358 368
357 368 367
358 359 369
358 369 368
359 350 360
359 360 369
360 361 371
360 371 370
361 362 372
361 372 371
362 363 373
362 373 372
363 364 374
363 374 373
364 365 375
364 375 374
365 366 376
365 376 375
366 367 377
366 377 376
367 368 378
367 378 377
368 369 379
368 379 378
369 360 370
369 370 379
370 371 381
370 381 380
371 372 382
371 382 381
372 373 383
372 383 382
373 374 384
373 384 383
374 375 385
374 385 384
375 376 386
375 386 385
376 377 387
376 387 386
377 378 388
377 388 387
378 379 389
378 389 388
379 370 380
379 380 389
380 381 391
380 391 390
381 382 392
381 392 391
382 383 393
382 393 392
383 384 394
383 394 393
384 385 395
384 395 394
385 386 396
385 396 395
386 387 397
386 397 396
387 388 398
387 398 397
388 389 399
388 399 398
389 380 390
389 390 399
390 391 401
390 401 400
391 392 402
391 402 401
392 393 403
392 403 402
393 394 404
393 404 403
394 395 405
394 405 404
395 396 406
395 406 405
396 397 407
396 407 406
397 398 408
397 408 407
398 399 409
398 409 408
399 390 400
399 400 409
400 401 411
400 411 410
401 402 412
401 412 411
402 403 413
402 413 412
403 404 414
403 414 413
404 405 415
404 415 414
405 406 416
405 416 415
406 407 417
406 417 416
407 408 418
407 418 417
408 409 419
408 419 418
409 400 410
409 410 419
410 411 421
410 421 420
411 412 422
411 422 421
412 413 423
412 423 422
413 414 424
413 424 423
414 415 425
414 425 424
415 416 426
415 426 425
416 417 427
416 427 426
417 418 428
417 428 427
418 419 429
418 429 428
419 410 420
419 420 429
430 441 431
430 440 441
431 442 432
431 441 442
432 443 433
432 442 443
433 444 434
433 443 444
434 445 435
434 444 445
435 446 436
435 445 446
436 447 437
436 446 447
437 448 438
437 447 448
438 449 439
438 448 449
439 440 430
439 449 440
440 451 441
440 450 451
441 452 442
441 451 452
442 453 443
442 452 453
443 454 444
443 453 454
444 455 445
444 454 455
445 456 446
445 455 456
446 457 447
446 456 457
447 458 448
447 457 458
448 459 449
448 458 459
449 450 440
449 459 450
450 461 451
450 460 461
451 462 452
451 461 462
452 463 453
452 462 463
453 464 454
453 463 464
454 465 455
454 464 465
455 466 456
455 465 466
456 467 457
456 466 467
457 468 458
457 467 468
458 469 459
458 468 469
459 460 450
459 469 460
460 471 461
460 470 471
461 472 462
461 471 472
462 473 463
462 472 473
463 474 464
463 473 474
464 475 465
464 474 475
465 476 466
465 475 476
466 477 467
466 476 477
467 478 468
467 477 478
468 479 469
468 478 479
469 470 460
469 479 470
470 481 471
470 480 481
471 482 472
471 481 482
472 483 473
472 482 483
473 484 474
473 483 484
474 485 475
474 484 485
475 486 476
475 485 486
476 487 477
476 486 487
477 488 478
477 487 488
478 489 479
478 488 489
479 480 470
479 489 480
480 491 481
480 490 491
481 492 482
481 491 492
482 493 483
482 492 493
483 494 484
483 493 494
484 495 485
484 494 495
485 496 486
485 495 496
486 497 487
486 496 497
487 498 488
487 497 498
488 499 489
488 498 499
489 490 480
489 499 490
490 501 491
490 500 501
491 502 492
491 501 502
492 503 493
492 502 503
493 504 494
493 503 504
494 505 495
494 504 505
495 506 496
495 505 506
496 507 497
496 506 507
497 508 498
497 507 508
498 509 499
498 508 509
499 500 490
499 509 500
510 511 523
510 523 522
511 512 524
511 524 523
512 513 525
512 525 524
513 514 526
513 526 525
514 515 527
514 527 526
515 516 528
515 528 527
516 517 529
516 529 528
517 518 530
517 530 529
518 519 531
518 531 530
519 520 532
519 532 531
520 521 533
520 533 532
521 510 522
521 522 533
534 536 535
534 537 536
534 538 537
534 539 538
534 540 539
534 541 540
534 542 541
534 543 542
534 544 543
534 545 544
534 546 545
534 535 546
547 548 549
547 549 550
547 550 551
547 551 552
547 552 553
547 553 554
547 554 555
547 555 556
547 556 557
547 557 558
547 558 559
547 559 548
LABEL door_pod_0
MATERIAL 1
TEXTURE 0
GEOM 185 167 ;door_pod_0
-1.952 1.571 -3.200 -0.9225 -0.3860 0.0000
-1.888 1.448 -3.200 -0.8548 -0.5190 0.0000
-1.952 1.571 -3.000 -0.9225 -0.3860 0.0000
-1.888 1.448 -3.000 -0.8548 -0.5190 0.0000
-1.952 1.571 -2.350 -0.9225 -0.3860 0.0000
-1.888 1.448 -2.350 -0.8548 -0.5190 0.0000
-1.952 1.571 -2.000 -0.9225 -0.3860 0.0000
-1.888 1.448 -2.000 -0.8548 -0.5190 0.0000
-1.952 1.571 -1.000 -0.9225 -0.3860 0.0000
-1.888 1.448 -1.000 -0.8548 -0.5190 0.0000
-1.952 1.571 -0.850 -0.9225 -0.3860 0.0000
-1.888 1.448 -0.850 -0.8548 -0.5190 0.0000
-1.952 1.571 -0.000 -0.9225 -0.3860 0.0000
-1.888 1.448 -0.000 -0.8548 -0.5190 0.0000
-1.952 1.571 1.000 -0.9225 -0.3860 0.0000
-1.888 1.448 1.000 -0.8548 -0.5190 0.0000
-1.952 1.571 2.000 -0.9225 -0.3860 0.0000
-1.888 1.448 2.000 -0.8548 -0.5190 0.0000
-1.952 1.571 3.000 -0.9225 -0.3860 0.0000
-1.888 1.448 3.000 -0.8548 -0.5190 0.0000
-1.952 1.571 3.200 -0.9225 -0.3860 0.0000
-1.888 1.448 3.200 -0.8548 -0.5190 0.0000
-1.888 1.448 -3.200 -0.8548 -0.5190 0.0000
-1.879 1.434 -3.200 -0.8548 -0.5190 0.0000
-1.888 1.448 -3.000 -0.8548 -0.5190 0.0000
-1.879 1.434 -3.000 -0.8548 -0.5190 0.0000
-1.888 1.448 -2.350 -0.8548 -0.5190 0.0000
-1.879 1.434 -2.350 -0.8548 -0.5190 0.0000
-1.888 1.448 -2.000 -0.8548 -0.5190 0.0000
-1.879 1.434 -2.000 -0.8548 -0.5190 0.0000
-1.888 1.448 -1.000 -0.8548 -0.5190 0.0000
-1.879 1.434 -1.000 -0.8548 -0.5190 0.0000
-1.888 1.448 -0.850 -0.8548 -0.5190 0.0000
-1.879 1.434 -0.850 -0.8548 -0.5190 0.0000
-1.888 1.448 -0.000 -0.8548 -0.5190 0.0000
-1.879 1.434 -0.000 -0.8548 -0.5190 0.0000
-1.888 1.448 1.000 -0.8548 -0.5190 0.0000
-1.879 1.434 1.000 -0.8548 -0.5190 0.0000
-1.888 1.448 2.000 -0.8548 -0.5190 0.0000
-1.879 1.434 2.000 -0.8548 -0.5190 0.0000
-1.888 1.448 3.000 -0.8548 -0.5190 0.0000
-1.879 1.434 3.000 -0.8548 -0.5190 0.0000
-1.888 1.448 3.200 -0.8548 -0.5190 0.0000
-1.879 1.434 3.200 -0.8548 -0.5190 0.0000
-1.879 1.434 -3.200 -0.8548 -0.5190 0.0000
-1.696 1.132 -3.200 -0.8548 -0.5190 0.0000
-1.879 1.434 -3.000 -0.8548 -0.5190 0.0000
-1.696 1.132 -3.000 -0.8548 -0.5190 0.0000
-1.879 1.434 -2.350 -0.8548 -0.5190 0.0000
-1.879 1.434 -2.000 -0.8548 -0.5190 0.0000
-1.696 1.132 -2.000 -0.8548 -0.5190 0.0000
-1.879 1.434 -1.000 -0.8548 -0.5190 0.0000
-1.696 1.132 -1.000 -0.8548 -0.5190 0.0000
-1.879 1.434 -0.850 -0.8548 -0.5190 0.0000
-1.696 1.132 -0.850 -0.8548 -0.5190 0.0000
-1.879 1.434 -0.000 -0.8548 -0.5190 0.0000
-1.696 1.132 -0.000 -0.8548 -0.5190 0.0000
-1.879 1.434 1.000 -0.8548 -0.5190 0.0000
-1.696 1.132 1.000 -0.8548 -0.5190 0.0000
-1.879 1.434 2.000 -0.8548 -0.5190 0.0000
-1.696 1.132 2.000 -0.8548 -0.5190 0.0000
-1.879 1.434 3.000 -0.8548 -0.5190 0.0000
-1.696 1.132 3.000 -0.8548 -0.5190 0.0000
-1.879 1.434 3.200 -0.8548 -0.5190 0.0000
-1.696 1.132 3.200 -0.8548 -0.5190 0.0000
-1.696 1.132 -3.200 -0.8548 -0.5190 0.0000
-1.374 0.602 -3.200 -0.8548 -0.5190 0.0000
-1.696 1.132 -3.000 -0.8548 -0.5190 0.0000
-1.374 0.602 -3.000 -0.8548 -0.5190 0.0000
-1.696 1.132 -2.000 -0.8548 -0.5190 0.0000
-1.374 0.602 -2.000 -0.8548 -0.5190 0.0000
-1.696 1.132 -1.000 -0.8548 -0.5190 0.0000
-1.374 0.602 -1.000 -0.8548 -0.5190 0.0000
-1.696 1.132 -0.850 -0.8548 -0.5190 0.0000
-1.374 0.602 -0.850 -0.8548 -0.5190 0.0000
-1.696 1.132 -0.000 -0.8548 -0.5190 0.0000
-1.374 0.602 -0.000 -0.8548 -0.5190 0.0000
-1.696 1.132 1.000 -0.8548 -0.5190 0.0000
-1.374 0.602 1.000 -0.8548 -0.5190 0.0000
-1.696 1.132 2.000 -0.8548 -0.5190 0.0000
-1.374 0.602 2.000 -0.8548 -0.5190 0.0000
-1.696 1.132 3.000 -0.8548 -0.5190 0.0000
-1.374 0.602 3.000 -0.8548 -0.5190 0.0000
-1.696 1.132 3.200 -0.8548 -0.5190 0.0000
-1.374 0.602 3.200 -0.8548 -0.5190 0.0000
-1.374 0.602 -3.200 -0.8548 -0.5190 0.0000
-1.052 0.072 -3.200 -0.8548 -0.5190 0.0000
-1.374 0.602 -3.000 -0.8548 -0.5190 0.0000
-1.052 0.072 -3.000 -0.8548 -0.5190 0.0000
-1.374 0.602 -2.000 -0.8548 -0.5190 0.0000
-1.052 0.072 -2.000 -0.8548 -0.5190 0.0000
-1.374 0.602 -1.000 -0.8548 -0.5190 0.0000
-1.052 0.072 -1.000 -0.8548 -0.5190 0.0000
-1.374 0.602 -0.850 -0.8548 -0.5190 0.0000
-1.052 0.072 -0.850 -0.8548 -0.5190 0.0000
-1.374 0.602 -0.000 -0.8548 -0.5190 0.0000
-1.052 0.072 -0.000 -0.8548 -0.5190 0.0000
-1.374 0.602 1.000 -0.8548 -0.5190 0.0000
-1.052 0.072 1.000 -0.8548 -0.5190 0.0000
-1.374 0.602 2.000 -0.8548 -0.5190 0.0000
-1.052 0.072 2.000 -0.8548 -0.5190 0.0000
-1.374 0.602 3.000 -0.8548 -0.5190 0.0000
-1.052 0.072 3.000 -0.8548 -0.5190 0.0000
-1.374 0.602 3.200 -0.8548 -0.5190 0.0000
-1.052 0.072 3.200 -0.8548 -0.5190 0.0000
-1.052 0.072 -3.200 -0.8548 -0.5190 0.0000
-0.731 -0.458 -3.200 -0.8548 -0.5190 0.0000
-1.052 0.072 -3.000 -0.8548 -0.5190 0.0000
-0.731 -0.458 -3.000 -0.8548 -0.5190 0.0000
-1.052 0.072 -2.000 -0.8548 -0.5190 0.0000
-0.731 -0.458 -2.000 -0.8548 -0.5190 0.0000
-1.052 0.072 -1.000 -0.8548 -0.5190 0.0000
-0.731 -0.458 -1.000 -0.8548 -0.5190 0.0000
-1.052 0.072 -0.850 -0.8548 -0.5190 0.0000
-0.731 -0.458 -0.850 -0.8548 -0.5190 0.0000
-1.052 0.072 -0.000 -0.8548 -0.5190 0.0000
-0.731 -0.458 -0.000 -0.8548 -0.5190 0.0000
-1.052 0.072 1.000 -0.8548 -0.5190 0.0000
-0.731 -0.458 1.000 -0.8548 -0.5190 0.0000
-1.052 0.072 2.000 -0.8548 -0.5190 0.0000
-0.731 -0.458 2.000 -0.8548 -0.5190 0.0000
-1.052 0.072 3.000 -0.8548 -0.5190 0.0000
-0.731 -0.458 3.000 -0.8548 -0.5190 0.0000
-1.052 0.072 3.200 -0.8548 -0.5190 0.0000
-0.731 -0.458 3.200 -0.8548 -0.5190 0.0000
-0.731 -0.458 -3.200 -0.8548 -0.5190 0.0000
-0.409 -0.988 -3.200 -0.8548 -0.5190 0.0000
-0.731 -0.458 -3.000 -0.8548 -0.5190 0.0000
-0.409 -0.988 -3.000 -0.8548 -0.5190 0.0000
-0.731 -0.458 -2.000 -0.8548 -0.5190 0.0000
-0.409 -0.988 -2.000 -0.8548 -0.5190 0.0000
-0.731 -0.458 -1.000 -0.8548 -0.5190 0.0000
-0.409 -0.988 -1.000 -0.8548 -0.5190 0.0000
-0.731 -0.458 -0.850 -0.8548 -0.5190 0.0000
-0.409 -0.988 -0.850 -0.8548 -0.5190 0.0000
-0.731 -0.458 -0.000 -0.8548 -0.5190 0.0000
-0.409 -0.988 -0.000 -0.8548 -0.5190 0.0000
-0.731 -0.458 1.000 -0.8548 -0.5190 0.0000
-0.409 -0.988 1.000 -0.8548 -0.5190 0.0000
-0.731 -0.458 2.000 -0.8548 -0.5190 0.0000
-0.409 -0.988 2.000 -0.8548 -0.5190 0.0000
-0.731 -0.458 3.000 -0.8548 -0.5190 0.0000
-0.409 -0.988 3.000 -0.8548 -0.5190 0.0000
-0.731 -0.458 3.200 -0.8548 -0.5190 0.0000
-0.409 -0.988 3.200 -0.8548 -0.5190 0.0000
-0.409 -0.988 -3.200 -0.8548 -0.5190 0.0000
-0.087 -1.518 -3.200 -0.8548 -0.5190 0.0000
-0.409 -0.988 -3.000 -0.8548 -0.5190 0.0000
-0.087 -1.518 -3.000 -0.8548 -0.5190 0.0000
-0.409 -0.988 -2.000 -0.8548 -0.5190 0.0000
-0.087 -1.518 -2.000 -0.8548 -0.5190 0.0000
-0.409 -0.988 -1.000 -0.8548 -0.5190 0.0000
-0.087 -1.518 -1.000 -0.8548 -0.5190 0.0000
-0.409 -0.988 -0.850 -0.8548 -0.5190 0.0000
-0.087 -1.518 -0.850 -0.8548 -0.5190 0.0000
-0.409 -0.988 -0.000 -0.8548 -0.5190 0.0000
-0.087 -1.518 -0.000 -0.8548 -0.5190 0.0000
-0.409 -0.988 1.000 -0.8548 -0.5190 0.0000
-0.087 -1.518 1.000 -0.8548 -0.5190 0.0000
-0.409 -0.988 2.000 -0.8548 -0.5190 0.0000
-0.087 -1.518 2.000 -0.8548 -0.5190 0.0000
-0.409 -0.988 3.000 -0.8548 -0.5190 0.0000
-0.087 -1.518 3.000 -0.8548 -0.5190 0.0000
-0.409 -0.988 3.200 -0.8548 -0.5190 0.0000
-0.087 -1.518 3.200 -0.8548 -0.5190 0.0000
-0.087 -1.518 -3.200 -0.8548 -0.5190 0.0000
0.090 -1.809 -3.200 -0.8548 -0.5190 0.0000
-0.087 -1.518 -3.000 -0.8548 -0.5190 0.0000
0.090 -1.809 -3.000 -0.8548 -0.5190 0.0000
-0.087 -1.518 -2.000 -0.8548 -0.5190 0.0000
0.090 -1.809 -2.000 -0.8548 -0.5190 0.0000
-0.087 -1.518 -1.000 -0.8548 -0.5190 0.0000
0.090 -1.809 -1.000 -0.8548 -0.5190 0.0000
-0.087 -1.518 -0.850 -0.8548 -0.5190 0.0000
0.090 -1.809 -0.850 -0.8548 -0.5190 0.0000
-0.087 -1.518 -0.000 -0.8548 -0.5190 0.0000
0.090 -1.809 -0.000 -0.8548 -0.5190 0.0000
-0.087 -1.518 1.000 -0.8548 -0.5190 0.0000
0.090 -1.809 1.000 -0.8548 -0.5190 0.0000
-0.087 -1.518 2.000 -0.8548 -0.5190 0.0000
0.090 -1.809 2.000 -0.8548 -0.5190 0.0000
-0.087 -1.518 3.000 -0.8548 -0.5190 0.0000
0.090 -1.809 3.000 -0.8548 -0.5190 0.0000
-0.087 -1.518 3.200 -0.8548 -0.5190 0.0000
0.090 -1.809 3.200 -0.8548 -0.5190 0.0000
0 1 2
2 1 3
2 3 4
4 3 5
4 5 6
6 5 7
6 7 8
8 7 9
8 9 10
10 9 11
10 11 12
12 11 13
12 13 14
14 13 15
14 15 16
16 15 17
16 17 18
18 17 19
18 19 20
20 19 21
22 23 24
24 23 25
24 25 26
26 25 27
26 27 28
28 27 29
28 29 30
30 29 31
30 31 32
32 31 33
32 33 34
34 33 35
34 35 36
36 35 37
36 37 38
38 37 39
38 39 40
40 39 41
40 41 42
42 41 43
44 45 46
46 45 47
46 47 48
48 47 49
49 47 50
49 50 51
51 50 52
51 52 53
53 52 54
53 54 55
55 54 56
55 56 57
57 56 58
57 58 59
59 58 60
59 60 61
61 60 62
61 62 63
63 62 64
65 66 67
67 66 68
67 68 69
69 68 70
69 70 71
71 70 72
71 72 73
73 72 74
73 74 75
75 74 76
75 76 77
77 76 78
77 78 79
79 78 80
79 80 81
81 80 82
81 82 83
83 82 84
85 86 87
87 86 88
87 88 89
89 88 90
89 90 91
91 90 92
91 92 93
93 92 94
93 94 95
95 94 96
95 96 97
97 96 98
97 98 99
99 98 100
99 100 101
101 100 102
101 102 103
103 102 104
105 106 107
107 106 108
107 108 109
109 108 110
109 110 111
111 110 112
111 112 113
113 112 114
113 114 115
115 114 116
115 116 117
117 116 118
117 118 119
119 118 120
119 120 121
121 120 122
121 122 123
123 122 124
125 126 127
127 126 128
127 128 129
129 128 130
129 130 131
131 130 132
131 132 133
133 132 134
133 134 135
135 134 136
135 136 137
137 136 138
137 138 139
139 138 140
139 140 141
141 140 142
141 142 143
143 142 144
145 146 147
147 146 148
147 148 149
149 148 150
149 150 151
151 150 152
151 152 153
153 152 154
153 154 155
155 154 156
155 156 157
157 156 158
157 158 159
159 158 160
159 160 161
161 160 162
161 162 163
163 162 164
165 166 167
167 166 168
167 168 169
169 168 170
169 170 171
171 170 172
171 172 173
173 172 174
173 174 175
175 174 176
175 176 177
177 176 178
177 178 179
179 178 180
179 180 181
181 180 182
181 182 183
183 182 184
MATERIALS 13
hull_lacquer
nose_iridium
crest_radiator
structure
boron_nitride
engine_metal
mechanism
dark
band
planetary_cup
rover
shuttle
trap_shell
MATERIAL hull_lacquer
0.620 0.640 0.680 1
0.620 0.640 0.680 1
0.300 0.300 0.320 1 20
0.000 0.000 0.000 1
MATERIAL nose_iridium
0.780 0.760 0.700 1
0.780 0.760 0.700 1
0.950 0.950 0.950 1 80
0.000 0.000 0.000 1
MATERIAL crest_radiator
0.460 0.260 0.180 1
0.460 0.260 0.180 1
0.150 0.150 0.150 1 10
0.000 0.000 0.000 1
MATERIAL structure
0.260 0.270 0.290 1
0.260 0.270 0.290 1
0.200 0.200 0.200 1 15
0.000 0.000 0.000 1
MATERIAL boron_nitride
0.620 0.580 0.920 1
0.620 0.580 0.920 1
0.600 0.600 0.700 1 40
0.080 0.060 0.200 1
MATERIAL engine_metal
0.400 0.400 0.420 1
0.400 0.400 0.420 1
0.500 0.500 0.500 1 40
0.000 0.000 0.000 1
MATERIAL mechanism
0.540 0.560 0.600 1
0.540 0.560 0.600 1
0.700 0.700 0.720 1 50
0.000 0.000 0.000 1
MATERIAL dark
0.070 0.070 0.090 1
0.070 0.070 0.090 1
0.050 0.050 0.050 1 5
0.000 0.000 0.000 1
MATERIAL band
0.280 0.360 0.500 1
0.280 0.360 0.500 1
0.500 0.550 0.650 1 40
0.000 0.000 0.000 1
MATERIAL planetary_cup
0.600 0.700 0.850 1
0.600 0.700 0.850 1
0.700 0.700 0.800 1 50
0.030 0.060 0.100 1
MATERIAL rover
0.550 0.480 0.320 1
0.550 0.480 0.320 1
0.300 0.300 0.300 1 20
0.000 0.000 0.000 1
MATERIAL shuttle
0.850 0.840 0.810 1
0.850 0.840 0.810 1
0.400 0.400 0.400 1 30
0.000 0.000 0.000 1
MATERIAL trap_shell
0.440 0.470 0.560 1
0.440 0.470 0.560 1
0.450 0.450 0.500 1 30
0.000 0.000 0.000 1
TEXTURES 0
