MSHX1
GROUPS 5
LABEL leg0_shin0
MATERIAL 9
TEXTURE 0
GEOM 24 12 ;leg0_shin0
-1.585 -1.618 6.850 -0.9770 0.2132 -0.0000
-1.265 -0.153 6.850 -0.9770 0.2132 -0.0000
-1.265 -0.153 -0.550 -0.9770 0.2132 -0.0000
-1.585 -1.618 -0.550 -0.9770 0.2132 -0.0000
0.369 -2.045 6.850 0.9770 -0.2132 0.0000
0.689 -0.579 6.850 0.9770 -0.2132 0.0000
0.689 -0.579 -0.550 0.9770 -0.2132 0.0000
0.369 -2.045 -0.550 0.9770 -0.2132 0.0000
-1.585 -1.618 6.850 -0.2132 -0.9770 -0.0000
0.369 -2.045 6.850 -0.2132 -0.9770 -0.0000
0.369 -2.045 -0.550 -0.2132 -0.9770 -0.0000
-1.585 -1.618 -0.550 -0.2132 -0.9770 -0.0000
-1.265 -0.153 6.850 0.2132 0.9770 0.0000
0.689 -0.579 6.850 0.2132 0.9770 0.0000
0.689 -0.579 -0.550 0.2132 0.9770 0.0000
-1.265 -0.153 -0.550 0.2132 0.9770 0.0000
-1.585 -1.618 6.850 -0.0000 -0.0000 1.0000
0.369 -2.045 6.850 -0.0000 -0.0000 1.0000
0.689 -0.579 6.850 -0.0000 -0.0000 1.0000
-1.265 -0.153 6.850 -0.0000 -0.0000 1.0000
-1.585 -1.618 -0.550 0.0000 0.0000 -1.0000
0.369 -2.045 -0.550 0.0000 0.0000 -1.0000
0.689 -0.579 -0.550 0.0000 0.0000 -1.0000
-1.265 -0.153 -0.550 0.0000 0.0000 -1.0000
0 1 2
0 2 3
4 6 5
4 7 6
8 10 9
8 11 10
12 13 14
12 14 15
16 17 18
16 18 19
20 22 21
20 23 22
LABEL leg0_shin1
MATERIAL 9
TEXTURE 0
GEOM 24 12 ;leg0_shin1
-1.539 -1.598 6.850 -0.9770 0.2132 -0.0000
-1.232 -0.191 6.850 -0.9770 0.2132 -0.0000
-1.232 -0.191 -0.550 -0.9770 0.2132 -0.0000
-1.539 -1.598 -0.550 -0.9770 0.2132 -0.0000
0.337 -2.007 6.850 0.9770 -0.2132 0.0000
0.644 -0.600 6.850 0.9770 -0.2132 0.0000
0.644 -0.600 -0.550 0.9770 -0.2132 0.0000
0.337 -2.007 -0.550 0.9770 -0.2132 0.0000
-1.539 -1.598 6.850 -0.2132 -0.9770 -0.0000
0.337 -2.007 6.850 -0.2132 -0.9770 -0.0000
0.337 -2.007 -0.550 -0.2132 -0.9770 -0.0000
-1.539 -1.598 -0.550 -0.2132 -0.9770 -0.0000
-1.232 -0.191 6.850 0.2132 0.9770 0.0000
0.644 -0.600 6.850 0.2132 0.9770 0.0000
0.644 -0.600 -0.550 0.2132 0.9770 0.0000
-1.232 -0.191 -0.550 0.2132 0.9770 0.0000
-1.539 -1.598 6.850 -0.0000 -0.0000 1.0000
0.337 -2.007 6.850 -0.0000 -0.0000 1.0000
0.644 -0.600 6.850 -0.0000 -0.0000 1.0000
-1.232 -0.191 6.850 -0.0000 -0.0000 1.0000
-1.539 -1.598 -0.550 0.0000 0.0000 -1.0000
0.337 -2.007 -0.550 0.0000 0.0000 -1.0000
0.644 -0.600 -0.550 0.0000 0.0000 -1.0000
-1.232 -0.191 -0.550 0.0000 0.0000 -1.0000
0 1 2
0 2 3
4 6 5
4 7 6
8 10 9
8 11 10
12 13 14
12 14 15
16 17 18
16 18 19
20 22 21
20 23 22
LABEL leg0_shin2
MATERIAL 9
TEXTURE 0
GEOM 24 12 ;leg0_shin2
-1.494 -1.577 6.850 -0.9770 0.2132 -0.0000
-1.199 -0.228 6.850 -0.9770 0.2132 -0.0000
-1.199 -0.228 -0.550 -0.9770 0.2132 -0.0000
-1.494 -1.577 -0.550 -0.9770 0.2132 -0.0000
0.304 -1.969 6.850 0.9770 -0.2132 0.0000
0.598 -0.621 6.850 0.9770 -0.2132 0.0000
0.598 -0.621 -0.550 0.9770 -0.2132 0.0000
0.304 -1.969 -0.550 0.9770 -0.2132 0.0000
-1.494 -1.577 6.850 -0.2132 -0.9770 -0.0000
0.304 -1.969 6.850 -0.2132 -0.9770 -0.0000
0.304 -1.969 -0.550 -0.2132 -0.9770 -0.0000
-1.494 -1.577 -0.550 -0.2132 -0.9770 -0.0000
-1.199 -0.228 6.850 0.2132 0.9770 0.0000
0.598 -0.621 6.850 0.2132 0.9770 0.0000
0.598 -0.621 -0.550 0.2132 0.9770 0.0000
-1.199 -0.228 -0.550 0.2132 0.9770 0.0000
-1.494 -1.577 6.850 -0.0000 -0.0000 1.0000
0.304 -1.969 6.850 -0.0000 -0.0000 1.0000
0.598 -0.621 6.850 -0.0000 -0.0000 1.0000
-1.199 -0.228 6.850 -0.0000 -0.0000 1.0000
-1.494 -1.577 -0.550 0.0000 0.0000 -1.0000
0.304 -1.969 -0.550 0.0000 0.0000 -1.0000
0.598 -0.621 -0.550 0.0000 0.0000 -1.0000
-1.199 -0.228 -0.550 0.0000 0.0000 -1.0000
0 1 2
0 2 3
4 6 5
4 7 6
8 10 9
8 11 10
12 13 14
12 14 15
16 17 18
16 18 19
20 22 21
20 23 22
LABEL leg0_ankle
MATERIAL 7
TEXTURE 0
GEOM 50 48 ;leg0_ankle
-1.327 -0.907 -0.550 -0.0000 0.0000 1.0000
-1.412 -1.298 -0.657 -0.1066 -0.4885 0.8660
-1.475 -1.584 -0.950 -0.1846 -0.8461 0.5000
-1.497 -1.688 -1.350 -0.2132 -0.9770 0.0000
-1.475 -1.584 -1.750 -0.1846 -0.8461 -0.5000
-1.412 -1.298 -2.043 -0.1066 -0.4885 -0.8660
-1.327 -0.907 -2.150 -0.0000 -0.0000 -1.0000
-1.242 -0.516 -2.043 0.1066 0.4885 -0.8660
-1.179 -0.230 -1.750 0.1846 0.8461 -0.5000
-1.156 -0.125 -1.350 0.2132 0.9770 -0.0000
-1.179 -0.230 -0.950 0.1846 0.8461 0.5000
-1.242 -0.516 -0.657 0.1066 0.4885 0.8660
0.432 -1.291 -0.550 -0.0000 0.0000 1.0000
0.346 -1.681 -0.657 -0.1066 -0.4885 0.8660
0.284 -1.967 -0.950 -0.1846 -0.8461 0.5000
0.261 -2.072 -1.350 -0.2132 -0.9770 0.0000
0.284 -1.967 -1.750 -0.1846 -0.8461 -0.5000
0.346 -1.681 -2.043 -0.1066 -0.4885 -0.8660
0.432 -1.291 -2.150 -0.0000 -0.0000 -1.0000
0.517 -0.900 -2.043 0.1066 0.4885 -0.8660
0.579 -0.614 -1.750 0.1846 0.8461 -0.5000
0.602 -0.509 -1.350 0.2132 0.9770 -0.0000
0.579 -0.614 -0.950 0.1846 0.8461 0.5000
0.517 -0.900 -0.657 0.1066 0.4885 0.8660
-1.327 -0.907 -1.350 -0.9770 0.2132 -0.0000
-1.327 -0.907 -0.550 -0.9770 0.2132 -0.0000
-1.412 -1.298 -0.657 -0.9770 0.2132 -0.0000
-1.475 -1.584 -0.950 -0.9770 0.2132 -0.0000
-1.497 -1.688 -1.350 -0.9770 0.2132 -0.0000
-1.475 -1.584 -1.750 -0.9770 0.2132 -0.0000
-1.412 -1.298 -2.043 -0.9770 0.2132 -0.0000
-1.327 -0.907 -2.150 -0.9770 0.2132 -0.0000
-1.242 -0.516 -2.043 -0.9770 0.2132 -0.0000
-1.179 -0.230 -1.750 -0.9770 0.2132 -0.0000
-1.156 -0.125 -1.350 -0.9770 0.2132 -0.0000
-1.179 -0.230 -0.950 -0.9770 0.2132 -0.0000
-1.242 -0.516 -0.657 -0.9770 0.2132 -0.0000
0.432 -1.291 -1.350 0.9770 -0.2132 0.0000
0.432 -1.291 -0.550 0.9770 -0.2132 0.0000
0.346 -1.681 -0.657 0.9770 -0.2132 0.0000
0.284 -1.967 -0.950 0.9770 -0.2132 0.0000
0.261 -2.072 -1.350 0.9770 -0.2132 0.0000
0.284 -1.967 -1.750 0.9770 -0.2132 0.0000
0.346 -1.681 -2.043 0.9770 -0.2132 0.0000
0.432 -1.291 -2.150 0.9770 -0.2132 0.0000
0.517 -0.900 -2.043 0.9770 -0.2132 0.0000
0.579 -0.614 -1.750 0.9770 -0.2132 0.0000
0.602 -0.509 -1.350 0.9770 -0.2132 0.0000
0.579 -0.614 -0.950 0.9770 -0.2132 0.0000
0.517 -0.900 -0.657 0.9770 -0.2132 0.0000
0 1 13
0 13 12
1 2 14
1 14 13
2 3 15
2 15 14
3 4 16
3 16 15
4 5 17
4 17 16
5 6 18
5 18 17
6 7 19
6 19 18
7 8 20
7 20 19
8 9 21
8 21 20
9 10 22
9 22 21
10 11 23
10 23 22
11 0 12
11 12 23
24 26 25
24 27 26
24 28 27
24 29 28
24 30 29
24 31 30
24 32 31
24 33 32
24 34 33
24 35 34
24 36 35
24 25 36
37 38 39
37 39 40
37 40 41
37 41 42
37 42 43
37 43 44
37 44 45
37 45 46
37 46 47
37 47 48
37 48 49
37 49 38
LABEL leg0_pad
MATERIAL 7
TEXTURE 0
GEOM 74 60 ;leg0_pad
-2.315 2.072 -6.850 -0.9770 0.2132 0.0000
-2.315 2.072 4.150 -0.9770 0.2132 0.0000
-2.570 0.900 3.450 -0.9770 0.2132 0.0000
-2.570 0.900 -6.150 -0.9770 0.2132 0.0000
2.570 1.006 -6.850 0.9770 -0.2132 -0.0000
2.570 1.006 4.150 0.9770 -0.2132 -0.0000
2.315 -0.166 3.450 0.9770 -0.2132 -0.0000
2.315 -0.166 -6.150 0.9770 -0.2132 -0.0000
-2.315 2.072 -6.850 0.2132 0.9770 -0.0000
-2.315 2.072 4.150 0.2132 0.9770 -0.0000
2.570 1.006 4.150 0.2132 0.9770 -0.0000
2.570 1.006 -6.850 0.2132 0.9770 -0.0000
-2.315 2.072 4.150 -0.1074 -0.4923 0.8638
-2.570 0.900 3.450 -0.1074 -0.4923 0.8638
2.315 -0.166 3.450 -0.1074 -0.4923 0.8638
2.570 1.006 4.150 -0.1074 -0.4923 0.8638
-2.570 0.900 3.450 -0.2132 -0.9770 -0.0000
-2.570 0.900 -6.150 -0.2132 -0.9770 -0.0000
2.315 -0.166 -6.150 -0.2132 -0.9770 -0.0000
2.315 -0.166 3.450 -0.2132 -0.9770 -0.0000
-2.570 0.900 -6.150 -0.1074 -0.4923 -0.8638
-2.315 2.072 -6.850 -0.1074 -0.4923 -0.8638
2.570 1.006 -6.850 -0.1074 -0.4923 -0.8638
2.315 -0.166 -6.150 -0.1074 -0.4923 -0.8638
-0.384 -0.806 -1.850 0.0000 0.0000 -1.0000
-0.628 -0.752 -1.783 -0.4885 0.1066 -0.8660
-0.807 -0.713 -1.600 -0.8461 0.1846 -0.5000
-0.872 -0.699 -1.350 -0.9770 0.2132 -0.0000
-0.807 -0.713 -1.100 -0.8461 0.1846 0.5000
-0.628 -0.752 -0.917 -0.4885 0.1066 0.8660
-0.384 -0.806 -0.850 -0.0000 0.0000 1.0000
-0.139 -0.859 -0.917 0.4885 -0.1066 0.8660
0.039 -0.898 -1.100 0.8461 -0.1846 0.5000
0.105 -0.912 -1.350 0.9770 -0.2132 0.0000
0.039 -0.898 -1.600 0.8461 -0.1846 -0.5000
-0.139 -0.859 -1.783 0.4885 -0.1066 -0.8660
-0.128 0.367 -1.850 0.0000 0.0000 -1.0000
-0.372 0.420 -1.783 -0.4885 0.1066 -0.8660
-0.551 0.459 -1.600 -0.8461 0.1846 -0.5000
-0.616 0.473 -1.350 -0.9770 0.2132 -0.0000
-0.551 0.459 -1.100 -0.8461 0.1846 0.5000
-0.372 0.420 -0.917 -0.4885 0.1066 0.8660
-0.128 0.367 -0.850 -0.0000 0.0000 1.0000
0.116 0.314 -0.917 0.4885 -0.1066 0.8660
0.295 0.275 -1.100 0.8461 -0.1846 0.5000
0.361 0.260 -1.350 0.9770 -0.2132 0.0000
0.295 0.275 -1.600 0.8461 -0.1846 -0.5000
0.116 0.314 -1.783 0.4885 -0.1066 -0.8660
-0.384 -0.806 -1.350 -0.2132 -0.9770 -0.0000
-0.384 -0.806 -1.850 -0.2132 -0.9770 -0.0000
-0.628 -0.752 -1.783 -0.2132 -0.9770 -0.0000
-0.807 -0.713 -1.600 -0.2132 -0.9770 -0.0000
-0.872 -0.699 -1.350 -0.2132 -0.9770 -0.0000
-0.807 -0.713 -1.100 -0.2132 -0.9770 -0.0000
-0.628 -0.752 -0.917 -0.2132 -0.9770 -0.0000
-0.384 -0.806 -0.850 -0.2132 -0.9770 -0.0000
-0.139 -0.859 -0.917 -0.2132 -0.9770 -0.0000
0.039 -0.898 -1.100 -0.2132 -0.9770 -0.0000
0.105 -0.912 -1.350 -0.2132 -0.9770 -0.0000
0.039 -0.898 -1.600 -0.2132 -0.9770 -0.0000
-0.139 -0.859 -1.783 -0.2132 -0.9770 -0.0000
-0.128 0.367 -1.350 0.2132 0.9770 0.0000
-0.128 0.367 -1.850 0.2132 0.9770 0.0000
-0.372 0.420 -1.783 0.2132 0.9770 0.0000
-0.551 0.459 -1.600 0.2132 0.9770 0.0000
-0.616 0.473 -1.350 0.2132 0.9770 0.0000
-0.551 0.459 -1.100 0.2132 0.9770 0.0000
-0.372 0.420 -0.917 0.2132 0.9770 0.0000
-0.128 0.367 -0.850 0.2132 0.9770 0.0000
0.116 0.314 -0.917 0.2132 0.9770 0.0000
0.295 0.275 -1.100 0.2132 0.9770 0.0000
0.361 0.260 -1.350 0.2132 0.9770 0.0000
0.295 0.275 -1.600 0.2132 0.9770 0.0000
0.116 0.314 -1.783 0.2132 0.9770 0.0000
0 2 1
0 3 2
4 5 6
4 6 7
8 9 10
8 10 11
12 13 14
12 14 15
16 17 18
16 18 19
20 21 22
20 22 23
24 25 37
24 37 36
25 26 38
25 38 37
26 27 39
26 39 38
27 28 40
27 40 39
28 29 41
28 41 40
29 30 42
29 42 41
30 31 43
30 43 42
31 32 44
31 44 43
32 33 45
32 45 44
33 34 46
33 46 45
34 35 47
34 47 46
35 24 36
35 36 47
48 50 49
48 51 50
48 52 51
48 53 52
48 54 53
48 55 54
48 56 55
48 57 56
48 58 57
48 59 58
48 60 59
48 49 60
61 62 63
61 63 64
61 64 65
61 65 66
61 66 67
61 67 68
61 68 69
61 69 70
61 70 71
61 71 72
61 72 73
61 73 62
MATERIALS 13
hull_lacquer
nose_iridium
crest_radiator
structure
boron_nitride
engine_metal
mechanism
dark
band
planetary_cup
rover
shuttle
trap_shell
MATERIAL hull_lacquer
0.620 0.640 0.680 1
0.620 0.640 0.680 1
0.300 0.300 0.320 1 20
0.000 0.000 0.000 1
MATERIAL nose_iridium
0.780 0.760 0.700 1
0.780 0.760 0.700 1
0.950 0.950 0.950 1 80
0.000 0.000 0.000 1
MATERIAL crest_radiator
0.460 0.260 0.180 1
0.460 0.260 0.180 1
0.150 0.150 0.150 1 10
0.000 0.000 0.000 1
MATERIAL structure
0.260 0.270 0.290 1
0.260 0.270 0.290 1
0.200 0.200 0.200 1 15
0.000 0.000 0.000 1
MATERIAL boron_nitride
0.620 0.580 0.920 1
0.620 0.580 0.920 1
0.600 0.600 0.700 1 40
0.080 0.060 0.200 1
MATERIAL engine_metal
0.400 0.400 0.420 1
0.400 0.400 0.420 1
0.500 0.500 0.500 1 40
0.000 0.000 0.000 1
MATERIAL mechanism
0.540 0.560 0.600 1
0.540 0.560 0.600 1
0.700 0.700 0.720 1 50
0.000 0.000 0.000 1
MATERIAL dark
0.070 0.070 0.090 1
0.070 0.070 0.090 1
0.050 0.050 0.050 1 5
0.000 0.000 0.000 1
MATERIAL band
0.280 0.360 0.500 1
0.280 0.360 0.500 1
0.500 0.550 0.650 1 40
0.000 0.000 0.000 1
MATERIAL planetary_cup
0.600 0.700 0.850 1
0.600 0.700 0.850 1
0.700 0.700 0.800 1 50
0.030 0.060 0.100 1
MATERIAL rover
0.550 0.480 0.320 1
0.550 0.480 0.320 1
0.300 0.300 0.300 1 20
0.000 0.000 0.000 1
MATERIAL shuttle
0.850 0.840 0.810 1
0.850 0.840 0.810 1
0.400 0.400 0.400 1 30
0.000 0.000 0.000 1
MATERIAL trap_shell
0.440 0.470 0.560 1
0.440 0.470 0.560 1
0.450 0.450 0.500 1 30
0.000 0.000 0.000 1
TEXTURES 0
