MSHX1
GROUPS 10
LABEL leg3_shin0
MATERIAL 9
TEXTURE 0
GEOM 24 12 ;leg3_shin0
-0.731 1.534 6.350 0.4209 0.9071 0.0000
0.630 0.903 6.350 0.4209 0.9071 0.0000
0.630 0.903 -1.050 0.4209 0.9071 0.0000
-0.731 1.534 -1.050 0.4209 0.9071 0.0000
-1.573 -0.280 6.350 -0.4209 -0.9071 -0.0000
-0.212 -0.911 6.350 -0.4209 -0.9071 -0.0000
-0.212 -0.911 -1.050 -0.4209 -0.9071 -0.0000
-1.573 -0.280 -1.050 -0.4209 -0.9071 -0.0000
-0.731 1.534 6.350 -0.9071 0.4209 -0.0000
-1.573 -0.280 6.350 -0.9071 0.4209 -0.0000
-1.573 -0.280 -1.050 -0.9071 0.4209 -0.0000
-0.731 1.534 -1.050 -0.9071 0.4209 -0.0000
0.630 0.903 6.350 0.9071 -0.4209 0.0000
-0.212 -0.911 6.350 0.9071 -0.4209 0.0000
-0.212 -0.911 -1.050 0.9071 -0.4209 0.0000
0.630 0.903 -1.050 0.9071 -0.4209 0.0000
-0.731 1.534 6.350 -0.0000 -0.0000 1.0000
-1.573 -0.280 6.350 -0.0000 -0.0000 1.0000
-0.212 -0.911 6.350 -0.0000 -0.0000 1.0000
0.630 0.903 6.350 -0.0000 -0.0000 1.0000
-0.731 1.534 -1.050 0.0000 0.0000 -1.0000
-1.573 -0.280 -1.050 0.0000 0.0000 -1.0000
-0.212 -0.911 -1.050 0.0000 0.0000 -1.0000
0.630 0.903 -1.050 0.0000 0.0000 -1.0000
0 1 2
0 2 3
4 6 5
4 7 6
8 10 9
8 11 10
12 13 14
12 14 15
16 17 18
16 18 19
20 22 21
20 23 22
LABEL leg3_shin1
MATERIAL 9
TEXTURE 0
GEOM 24 12 ;leg3_shin1
-0.720 1.485 6.350 0.4209 0.9071 0.0000
0.586 0.879 6.350 0.4209 0.9071 0.0000
0.586 0.879 -1.050 0.4209 0.9071 0.0000
-0.720 1.485 -1.050 0.4209 0.9071 0.0000
-1.529 -0.256 6.350 -0.4209 -0.9071 -0.0000
-0.222 -0.862 6.350 -0.4209 -0.9071 -0.0000
-0.222 -0.862 -1.050 -0.4209 -0.9071 -0.0000
-1.529 -0.256 -1.050 -0.4209 -0.9071 -0.0000
-0.720 1.485 6.350 -0.9071 0.4209 -0.0000
-1.529 -0.256 6.350 -0.9071 0.4209 -0.0000
-1.529 -0.256 -1.050 -0.9071 0.4209 -0.0000
-0.720 1.485 -1.050 -0.9071 0.4209 -0.0000
0.586 0.879 6.350 0.9071 -0.4209 0.0000
-0.222 -0.862 6.350 0.9071 -0.4209 0.0000
-0.222 -0.862 -1.050 0.9071 -0.4209 0.0000
0.586 0.879 -1.050 0.9071 -0.4209 0.0000
-0.720 1.485 6.350 -0.0000 -0.0000 1.0000
-1.529 -0.256 6.350 -0.0000 -0.0000 1.0000
-0.222 -0.862 6.350 -0.0000 -0.0000 1.0000
0.586 0.879 6.350 -0.0000 -0.0000 1.0000
-0.720 1.485 -1.050 0.0000 0.0000 -1.0000
-1.529 -0.256 -1.050 0.0000 0.0000 -1.0000
-0.222 -0.862 -1.050 0.0000 0.0000 -1.0000
0.586 0.879 -1.050 0.0000 0.0000 -1.0000
0 1 2
0 2 3
4 6 5
4 7 6
8 10 9
8 11 10
12 13 14
12 14 15
16 17 18
16 18 19
20 22 21
20 23 22
LABEL leg3_shin2
MATERIAL 9
TEXTURE 0
GEOM 24 12 ;leg3_shin2
-0.710 1.437 6.350 0.4209 0.9071 0.0000
0.542 0.856 6.350 0.4209 0.9071 0.0000
0.542 0.856 -1.050 0.4209 0.9071 0.0000
-0.710 1.437 -1.050 0.4209 0.9071 0.0000
-1.484 -0.233 6.350 -0.4209 -0.9071 -0.0000
-0.233 -0.813 6.350 -0.4209 -0.9071 -0.0000
-0.233 -0.813 -1.050 -0.4209 -0.9071 -0.0000
-1.484 -0.233 -1.050 -0.4209 -0.9071 -0.0000
-0.710 1.437 6.350 -0.9071 0.4209 -0.0000
-1.484 -0.233 6.350 -0.9071 0.4209 -0.0000
-1.484 -0.233 -1.050 -0.9071 0.4209 -0.0000
-0.710 1.437 -1.050 -0.9071 0.4209 -0.0000
0.542 0.856 6.350 0.9071 -0.4209 0.0000
-0.233 -0.813 6.350 0.9071 -0.4209 0.0000
-0.233 -0.813 -1.050 0.9071 -0.4209 0.0000
0.542 0.856 -1.050 0.9071 -0.4209 0.0000
-0.710 1.437 6.350 -0.0000 -0.0000 1.0000
-1.484 -0.233 6.350 -0.0000 -0.0000 1.0000
-0.233 -0.813 6.350 -0.0000 -0.0000 1.0000
0.542 0.856 6.350 -0.0000 -0.0000 1.0000
-0.710 1.437 -1.050 0.0000 0.0000 -1.0000
-1.484 -0.233 -1.050 0.0000 0.0000 -1.0000
-0.233 -0.813 -1.050 0.0000 0.0000 -1.0000
0.542 0.856 -1.050 0.0000 0.0000 -1.0000
0 1 2
0 2 3
4 6 5
4 7 6
8 10 9
8 11 10
12 13 14
12 14 15
16 17 18
16 18 19
20 22 21
20 23 22
LABEL leg3_shin3
MATERIAL 9
TEXTURE 0
GEOM 24 12 ;leg3_shin3
-0.700 1.388 6.350 0.4209 0.9071 0.0000
0.498 0.832 6.350 0.4209 0.9071 0.0000
0.498 0.832 -1.050 0.4209 0.9071 0.0000
-0.700 1.388 -1.050 0.4209 0.9071 0.0000
-1.440 -0.209 6.350 -0.4209 -0.9071 -0.0000
-0.243 -0.764 6.350 -0.4209 -0.9071 -0.0000
-0.243 -0.764 -1.050 -0.4209 -0.9071 -0.0000
-1.440 -0.209 -1.050 -0.4209 -0.9071 -0.0000
-0.700 1.388 6.350 -0.9071 0.4209 -0.0000
-1.440 -0.209 6.350 -0.9071 0.4209 -0.0000
-1.440 -0.209 -1.050 -0.9071 0.4209 -0.0000
-0.700 1.388 -1.050 -0.9071 0.4209 -0.0000
0.498 0.832 6.350 0.9071 -0.4209 0.0000
-0.243 -0.764 6.350 0.9071 -0.4209 0.0000
-0.243 -0.764 -1.050 0.9071 -0.4209 0.0000
0.498 0.832 -1.050 0.9071 -0.4209 0.0000
-0.700 1.388 6.350 -0.0000 -0.0000 1.0000
-1.440 -0.209 6.350 -0.0000 -0.0000 1.0000
-0.243 -0.764 6.350 -0.0000 -0.0000 1.0000
0.498 0.832 6.350 -0.0000 -0.0000 1.0000
-0.700 1.388 -1.050 0.0000 0.0000 -1.0000
-1.440 -0.209 -1.050 0.0000 0.0000 -1.0000
-0.243 -0.764 -1.050 0.0000 0.0000 -1.0000
0.498 0.832 -1.050 0.0000 0.0000 -1.0000
0 1 2
0 2 3
4 6 5
4 7 6
8 10 9
8 11 10
12 13 14
12 14 15
16 17 18
16 18 19
20 22 21
20 23 22
LABEL leg3_shin4
MATERIAL 9
TEXTURE 0
GEOM 24 12 ;leg3_shin4
-0.689 1.339 6.350 0.4209 0.9071 0.0000
0.454 0.808 6.350 0.4209 0.9071 0.0000
0.454 0.808 -1.050 0.4209 0.9071 0.0000
-0.689 1.339 -1.050 0.4209 0.9071 0.0000
-1.396 -0.185 6.350 -0.4209 -0.9071 -0.0000
-0.253 -0.716 6.350 -0.4209 -0.9071 -0.0000
-0.253 -0.716 -1.050 -0.4209 -0.9071 -0.0000
-1.396 -0.185 -1.050 -0.4209 -0.9071 -0.0000
-0.689 1.339 6.350 -0.9071 0.4209 -0.0000
-1.396 -0.185 6.350 -0.9071 0.4209 -0.0000
-1.396 -0.185 -1.050 -0.9071 0.4209 -0.0000
-0.689 1.339 -1.050 -0.9071 0.4209 -0.0000
0.454 0.808 6.350 0.9071 -0.4209 0.0000
-0.253 -0.716 6.350 0.9071 -0.4209 0.0000
-0.253 -0.716 -1.050 0.9071 -0.4209 0.0000
0.454 0.808 -1.050 0.9071 -0.4209 0.0000
-0.689 1.339 6.350 -0.0000 -0.0000 1.0000
-1.396 -0.185 6.350 -0.0000 -0.0000 1.0000
-0.253 -0.716 6.350 -0.0000 -0.0000 1.0000
0.454 0.808 6.350 -0.0000 -0.0000 1.0000
-0.689 1.339 -1.050 0.0000 0.0000 -1.0000
-1.396 -0.185 -1.050 0.0000 0.0000 -1.0000
-0.253 -0.716 -1.050 0.0000 0.0000 -1.0000
0.454 0.808 -1.050 0.0000 0.0000 -1.0000
0 1 2
0 2 3
4 6 5
4 7 6
8 10 9
8 11 10
12 13 14
12 14 15
16 17 18
16 18 19
20 22 21
20 23 22
LABEL leg3_shin5
MATERIAL 9
TEXTURE 0
GEOM 24 12 ;leg3_shin5
-0.679 1.290 6.350 0.4209 0.9071 0.0000
0.410 0.785 6.350 0.4209 0.9071 0.0000
0.410 0.785 -1.050 0.4209 0.9071 0.0000
-0.679 1.290 -1.050 0.4209 0.9071 0.0000
-1.352 -0.162 6.350 -0.4209 -0.9071 -0.0000
-0.264 -0.667 6.350 -0.4209 -0.9071 -0.0000
-0.264 -0.667 -1.050 -0.4209 -0.9071 -0.0000
-1.352 -0.162 -1.050 -0.4209 -0.9071 -0.0000
-0.679 1.290 6.350 -0.9071 0.4209 -0.0000
-1.352 -0.162 6.350 -0.9071 0.4209 -0.0000
-1.352 -0.162 -1.050 -0.9071 0.4209 -0.0000
-0.679 1.290 -1.050 -0.9071 0.4209 -0.0000
0.410 0.785 6.350 0.9071 -0.4209 0.0000
-0.264 -0.667 6.350 0.9071 -0.4209 0.0000
-0.264 -0.667 -1.050 0.9071 -0.4209 0.0000
0.410 0.785 -1.050 0.9071 -0.4209 0.0000
-0.679 1.290 6.350 -0.0000 -0.0000 1.0000
-1.352 -0.162 6.350 -0.0000 -0.0000 1.0000
-0.264 -0.667 6.350 -0.0000 -0.0000 1.0000
0.410 0.785 6.350 -0.0000 -0.0000 1.0000
-0.679 1.290 -1.050 0.0000 0.0000 -1.0000
-1.352 -0.162 -1.050 0.0000 0.0000 -1.0000
-0.264 -0.667 -1.050 0.0000 0.0000 -1.0000
0.410 0.785 -1.050 0.0000 0.0000 -1.0000
0 1 2
0 2 3
4 6 5
4 7 6
8 10 9
8 11 10
12 13 14
12 14 15
16 17 18
16 18 19
20 22 21
20 23 22
LABEL leg3_ankle
MATERIAL 7
TEXTURE 0
GEOM 100 96 ;leg3_ankle
-0.093 1.128 -1.050 -0.0000 0.0000 1.0000
-0.455 1.296 -1.157 -0.4536 0.2104 0.8660
-0.721 1.420 -1.450 -0.7856 0.3645 0.5000
-0.818 1.465 -1.850 -0.9071 0.4209 0.0000
-0.721 1.420 -2.250 -0.7856 0.3645 -0.5000
-0.455 1.296 -2.543 -0.4536 0.2104 -0.8660
-0.093 1.128 -2.650 -0.0000 0.0000 -1.0000
0.270 0.960 -2.543 0.4536 -0.2104 -0.8660
0.536 0.836 -2.250 0.7856 -0.3645 -0.5000
0.633 0.791 -1.850 0.9071 -0.4209 -0.0000
0.536 0.836 -1.450 0.7856 -0.3645 0.5000
0.270 0.960 -1.157 0.4536 -0.2104 0.8660
-0.850 -0.505 -1.050 -0.0000 0.0000 1.0000
-1.213 -0.336 -1.157 -0.4536 0.2104 0.8660
-1.479 -0.213 -1.450 -0.7856 0.3645 0.5000
-1.576 -0.168 -1.850 -0.9071 0.4209 0.0000
-1.479 -0.213 -2.250 -0.7856 0.3645 -0.5000
-1.213 -0.336 -2.543 -0.4536 0.2104 -0.8660
-0.850 -0.505 -2.650 -0.0000 0.0000 -1.0000
-0.487 -0.673 -2.543 0.4536 -0.2104 -0.8660
-0.222 -0.796 -2.250 0.7856 -0.3645 -0.5000
-0.124 -0.842 -1.850 0.9071 -0.4209 -0.0000
-0.222 -0.796 -1.450 0.7856 -0.3645 0.5000
-0.487 -0.673 -1.157 0.4536 -0.2104 0.8660
-0.093 1.128 -1.850 0.4209 0.9071 -0.0000
-0.093 1.128 -1.050 0.4209 0.9071 -0.0000
-0.455 1.296 -1.157 0.4209 0.9071 -0.0000
-0.721 1.420 -1.450 0.4209 0.9071 -0.0000
-0.818 1.465 -1.850 0.4209 0.9071 -0.0000
-0.721 1.420 -2.250 0.4209 0.9071 -0.0000
-0.455 1.296 -2.543 0.4209 0.9071 -0.0000
-0.093 1.128 -2.650 0.4209 0.9071 -0.0000
0.270 0.960 -2.543 0.4209 0.9071 -0.0000
0.536 0.836 -2.250 0.4209 0.9071 -0.0000
0.633 0.791 -1.850 0.4209 0.9071 -0.0000
0.536 0.836 -1.450 0.4209 0.9071 -0.0000
0.270 0.960 -1.157 0.4209 0.9071 -0.0000
-0.850 -0.505 -1.850 -0.4209 -0.9071 0.0000
-0.850 -0.505 -1.050 -0.4209 -0.9071 0.0000
-1.213 -0.336 -1.157 -0.4209 -0.9071 0.0000
-1.479 -0.213 -1.450 -0.4209 -0.9071 0.0000
-1.576 -0.168 -1.850 -0.4209 -0.9071 0.0000
-1.479 -0.213 -2.250 -0.4209 -0.9071 0.0000
-1.213 -0.336 -2.543 -0.4209 -0.9071 0.0000
-0.850 -0.505 -2.650 -0.4209 -0.9071 0.0000
-0.487 -0.673 -2.543 -0.4209 -0.9071 0.0000
-0.222 -0.796 -2.250 -0.4209 -0.9071 0.0000
-0.124 -0.842 -1.850 -0.4209 -0.9071 0.0000
-0.222 -0.796 -1.450 -0.4209 -0.9071 0.0000
-0.487 -0.673 -1.157 -0.4209 -0.9071 0.0000
-0.871 0.312 -1.850 -1.0000 0.0000 0.0000
-0.818 0.112 -1.850 -0.8660 -0.5000 0.0000
-0.671 -0.035 -1.850 -0.5000 -0.8660 0.0000
-0.471 -0.088 -1.850 -0.0000 -1.0000 0.0000
-0.271 -0.035 -1.850 0.5000 -0.8660 0.0000
-0.125 0.112 -1.850 0.8660 -0.5000 0.0000
-0.071 0.312 -1.850 1.0000 -0.0000 0.0000
-0.125 0.512 -1.850 0.8660 0.5000 -0.0000
-0.271 0.658 -1.850 0.5000 0.8660 -0.0000
-0.471 0.712 -1.850 0.0000 1.0000 -0.0000
-0.671 0.658 -1.850 -0.5000 0.8660 0.0000
-0.818 0.512 -1.850 -0.8660 0.5000 0.0000
-0.871 0.312 0.150 -1.0000 0.0000 0.0000
-0.818 0.112 0.150 -0.8660 -0.5000 0.0000
-0.671 -0.035 0.150 -0.5000 -0.8660 0.0000
-0.471 -0.088 0.150 -0.0000 -1.0000 0.0000
-0.271 -0.035 0.150 0.5000 -0.8660 0.0000
-0.125 0.112 0.150 0.8660 -0.5000 0.0000
-0.071 0.312 0.150 1.0000 -0.0000 0.0000
-0.125 0.512 0.150 0.8660 0.5000 -0.0000
-0.271 0.658 0.150 0.5000 0.8660 -0.0000
-0.471 0.712 0.150 0.0000 1.0000 -0.0000
-0.671 0.658 0.150 -0.5000 0.8660 0.0000
-0.818 0.512 0.150 -0.8660 0.5000 0.0000
-0.471 0.312 -1.850 -0.0000 -0.0000 -1.0000
-0.871 0.312 -1.850 -0.0000 -0.0000 -1.0000
-0.818 0.112 -1.850 -0.0000 -0.0000 -1.0000
-0.671 -0.035 -1.850 -0.0000 -0.0000 -1.0000
-0.471 -0.088 -1.850 -0.0000 -0.0000 -1.0000
-0.271 -0.035 -1.850 -0.0000 -0.0000 -1.0000
-0.125 0.112 -1.850 -0.0000 -0.0000 -1.0000
-0.071 0.312 -1.850 -0.0000 -0.0000 -1.0000
-0.125 0.512 -1.850 -0.0000 -0.0000 -1.0000
-0.271 0.658 -1.850 -0.0000 -0.0000 -1.0000
-0.471 0.712 -1.850 -0.0000 -0.0000 -1.0000
-0.671 0.658 -1.850 -0.0000 -0.0000 -1.0000
-0.818 0.512 -1.850 -0.0000 -0.0000 -1.0000
-0.471 0.312 0.150 0.0000 0.0000 1.0000
-0.871 0.312 0.150 0.0000 0.0000 1.0000
-0.818 0.112 0.150 0.0000 0.0000 1.0000
-0.671 -0.035 0.150 0.0000 0.0000 1.0000
-0.471 -0.088 0.150 0.0000 0.0000 1.0000
-0.271 -0.035 0.150 0.0000 0.0000 1.0000
-0.125 0.112 0.150 0.0000 0.0000 1.0000
-0.071 0.312 0.150 0.0000 0.0000 1.0000
-0.125 0.512 0.150 0.0000 0.0000 1.0000
-0.271 0.658 0.150 0.0000 0.0000 1.0000
-0.471 0.712 0.150 0.0000 0.0000 1.0000
-0.671 0.658 0.150 0.0000 0.0000 1.0000
-0.818 0.512 0.150 0.0000 0.0000 1.0000
0 1 13
0 13 12
1 2 14
1 14 13
2 3 15
2 15 14
3 4 16
3 16 15
4 5 17
4 17 16
5 6 18
5 18 17
6 7 19
6 19 18
7 8 20
7 20 19
8 9 21
8 21 20
9 10 22
9 22 21
10 11 23
10 23 22
11 0 12
11 12 23
24 26 25
24 27 26
24 28 27
24 29 28
24 30 29
24 31 30
24 32 31
24 33 32
24 34 33
24 35 34
24 36 35
24 25 36
37 38 39
37 39 40
37 40 41
37 41 42
37 42 43
37 43 44
37 44 45
37 45 46
37 46 47
37 47 48
37 48 49
37 49 38
50 51 63
50 63 62
51 52 64
51 64 63
52 53 65
52 65 64
53 54 66
53 66 65
54 55 67
54 67 66
55 56 68
55 68 67
56 57 69
56 69 68
57 58 70
57 70 69
58 59 71
58 71 70
59 60 72
59 72 71
60 61 73
60 73 72
61 50 62
61 62 73
74 76 75
74 77 76
74 78 77
74 79 78
74 80 79
74 81 80
74 82 81
74 83 82
74 84 83
74 85 84
74 86 85
74 75 86
87 88 89
87 89 90
87 90 91
87 91 92
87 92 93
87 93 94
87 94 95
87 95 96
87 96 97
87 97 98
87 98 99
87 99 88
LABEL leg3_pad
MATERIAL 7
TEXTURE 0
GEOM 74 60 ;leg3_pad
-0.039 -1.439 -6.350 -0.5000 -0.8660 -0.0000
-0.039 -1.439 2.650 -0.5000 -0.8660 -0.0000
-0.688 -1.064 1.950 -0.5000 -0.8660 -0.0000
-0.688 -1.064 -5.650 -0.5000 -0.8660 -0.0000
1.261 0.812 -6.350 0.5000 0.8660 0.0000
1.261 0.812 2.650 0.5000 0.8660 0.0000
0.612 1.187 1.950 0.5000 0.8660 0.0000
0.612 1.187 -5.650 0.5000 0.8660 0.0000
-0.039 -1.439 -6.350 0.8660 -0.5000 0.0000
-0.039 -1.439 2.650 0.8660 -0.5000 0.0000
1.261 0.812 2.650 0.8660 -0.5000 0.0000
1.261 0.812 -6.350 0.8660 -0.5000 0.0000
-0.039 -1.439 2.650 -0.5909 0.3412 0.7311
-0.688 -1.064 1.950 -0.5909 0.3412 0.7311
0.612 1.187 1.950 -0.5909 0.3412 0.7311
1.261 0.812 2.650 -0.5909 0.3412 0.7311
-0.688 -1.064 1.950 -0.8660 0.5000 0.0000
-0.688 -1.064 -5.650 -0.8660 0.5000 0.0000
0.612 1.187 -5.650 -0.8660 0.5000 0.0000
0.612 1.187 1.950 -0.8660 0.5000 0.0000
-0.688 -1.064 -5.650 -0.5909 0.3412 -0.7311
-0.039 -1.439 -6.350 -0.5909 0.3412 -0.7311
1.261 0.812 -6.350 -0.5909 0.3412 -0.7311
0.612 1.187 -5.650 -0.5909 0.3412 -0.7311
-0.212 0.162 -1.350 -0.0000 0.0000 1.0000
-0.337 -0.055 -1.417 -0.2500 -0.4330 0.8660
-0.428 -0.213 -1.600 -0.4330 -0.7500 0.5000
-0.462 -0.271 -1.850 -0.5000 -0.8660 0.0000
-0.428 -0.213 -2.100 -0.4330 -0.7500 -0.5000
-0.337 -0.055 -2.283 -0.2500 -0.4330 -0.8660
-0.212 0.162 -2.350 -0.0000 -0.0000 -1.0000
-0.087 0.378 -2.283 0.2500 0.4330 -0.8660
0.005 0.537 -2.100 0.4330 0.7500 -0.5000
0.038 0.595 -1.850 0.5000 0.8660 -0.0000
0.005 0.537 -1.600 0.4330 0.7500 0.5000
-0.087 0.378 -1.417 0.2500 0.4330 0.8660
-0.038 0.062 -1.350 -0.0000 0.0000 1.0000
-0.163 -0.155 -1.417 -0.2500 -0.4330 0.8660
-0.255 -0.313 -1.600 -0.4330 -0.7500 0.5000
-0.288 -0.371 -1.850 -0.5000 -0.8660 0.0000
-0.255 -0.313 -2.100 -0.4330 -0.7500 -0.5000
-0.163 -0.155 -2.283 -0.2500 -0.4330 -0.8660
-0.038 0.062 -2.350 -0.0000 -0.0000 -1.0000
0.087 0.278 -2.283 0.2500 0.4330 -0.8660
0.178 0.437 -2.100 0.4330 0.7500 -0.5000
0.212 0.495 -1.850 0.5000 0.8660 -0.0000
0.178 0.437 -1.600 0.4330 0.7500 0.5000
0.087 0.278 -1.417 0.2500 0.4330 0.8660
-0.212 0.162 -1.850 -0.8660 0.5000 -0.0000
-0.212 0.162 -1.350 -0.8660 0.5000 -0.0000
-0.337 -0.055 -1.417 -0.8660 0.5000 -0.0000
-0.428 -0.213 -1.600 -0.8660 0.5000 -0.0000
-0.462 -0.271 -1.850 -0.8660 0.5000 -0.0000
-0.428 -0.213 -2.100 -0.8660 0.5000 -0.0000
-0.337 -0.055 -2.283 -0.8660 0.5000 -0.0000
-0.212 0.162 -2.350 -0.8660 0.5000 -0.0000
-0.087 0.378 -2.283 -0.8660 0.5000 -0.0000
0.005 0.537 -2.100 -0.8660 0.5000 -0.0000
0.038 0.595 -1.850 -0.8660 0.5000 -0.0000
0.005 0.537 -1.600 -0.8660 0.5000 -0.0000
-0.087 0.378 -1.417 -0.8660 0.5000 -0.0000
-0.038 0.062 -1.850 0.8660 -0.5000 0.0000
-0.038 0.062 -1.350 0.8660 -0.5000 0.0000
-0.163 -0.155 -1.417 0.8660 -0.5000 0.0000
-0.255 -0.313 -1.600 0.8660 -0.5000 0.0000
-0.288 -0.371 -1.850 0.8660 -0.5000 0.0000
-0.255 -0.313 -2.100 0.8660 -0.5000 0.0000
-0.163 -0.155 -2.283 0.8660 -0.5000 0.0000
-0.038 0.062 -2.350 0.8660 -0.5000 0.0000
0.087 0.278 -2.283 0.8660 -0.5000 0.0000
0.178 0.437 -2.100 0.8660 -0.5000 0.0000
0.212 0.495 -1.850 0.8660 -0.5000 0.0000
0.178 0.437 -1.600 0.8660 -0.5000 0.0000
0.087 0.278 -1.417 0.8660 -0.5000 0.0000
0 1 2
0 2 3
4 6 5
4 7 6
8 10 9
8 11 10
12 14 13
12 15 14
16 18 17
16 19 18
20 22 21
20 23 22
24 25 37
24 37 36
25 26 38
25 38 37
26 27 39
26 39 38
27 28 40
27 40 39
28 29 41
28 41 40
29 30 42
29 42 41
30 31 43
30 43 42
31 32 44
31 44 43
32 33 45
32 45 44
33 34 46
33 46 45
34 35 47
34 47 46
35 24 36
35 36 47
48 50 49
48 51 50
48 52 51
48 53 52
48 54 53
48 55 54
48 56 55
48 57 56
48 58 57
48 59 58
48 60 59
48 49 60
61 62 63
61 63 64
61 64 65
61 65 66
61 66 67
61 67 68
61 68 69
61 69 70
61 70 71
61 71 72
61 72 73
61 73 62
LABEL leg3_sole
MATERIAL 8
TEXTURE 0
GEOM 24 12 ;leg3_sole
0.426 -1.534 -6.200 -0.5000 -0.8660 -0.0000
0.426 -1.534 2.500 -0.5000 -0.8660 -0.0000
0.036 -1.309 2.500 -0.5000 -0.8660 -0.0000
0.036 -1.309 -6.200 -0.5000 -0.8660 -0.0000
1.576 0.458 -6.200 0.5000 0.8660 0.0000
1.576 0.458 2.500 0.5000 0.8660 0.0000
1.186 0.683 2.500 0.5000 0.8660 0.0000
1.186 0.683 -6.200 0.5000 0.8660 0.0000
0.426 -1.534 -6.200 0.8660 -0.5000 0.0000
0.426 -1.534 2.500 0.8660 -0.5000 0.0000
1.576 0.458 2.500 0.8660 -0.5000 0.0000
1.576 0.458 -6.200 0.8660 -0.5000 0.0000
0.426 -1.534 2.500 0.0000 -0.0000 1.0000
0.036 -1.309 2.500 0.0000 -0.0000 1.0000
1.186 0.683 2.500 0.0000 -0.0000 1.0000
1.576 0.458 2.500 0.0000 -0.0000 1.0000
0.036 -1.309 2.500 -0.8660 0.5000 0.0000
0.036 -1.309 -6.200 -0.8660 0.5000 0.0000
1.186 0.683 -6.200 -0.8660 0.5000 0.0000
1.186 0.683 2.500 -0.8660 0.5000 0.0000
0.036 -1.309 -6.200 0.0000 0.0000 -1.0000
0.426 -1.534 -6.200 0.0000 0.0000 -1.0000
1.576 0.458 -6.200 0.0000 0.0000 -1.0000
1.186 0.683 -6.200 0.0000 0.0000 -1.0000
0 1 2
0 2 3
4 6 5
4 7 6
8 10 9
8 11 10
12 14 13
12 15 14
16 18 17
16 19 18
20 22 21
20 23 22
LABEL leg3_anchor
MATERIAL 2
TEXTURE 0
GEOM 104 96 ;leg3_anchor
1.284 -0.009 -4.910 0.0000 0.0000 -1.0000
1.258 -0.054 -4.880 -0.4330 -0.7500 -0.5000
1.258 -0.054 -4.820 -0.4330 -0.7500 0.5000
1.284 -0.009 -4.790 -0.0000 -0.0000 1.0000
1.310 0.036 -4.820 0.4330 0.7500 0.5000
1.310 0.036 -4.880 0.4330 0.7500 -0.5000
0.418 0.491 -5.050 0.0000 0.0000 -1.0000
0.331 0.341 -4.950 -0.4330 -0.7500 -0.5000
0.331 0.341 -4.750 -0.4330 -0.7500 0.5000
0.418 0.491 -4.650 -0.0000 -0.0000 1.0000
0.504 0.641 -4.750 0.4330 0.7500 0.5000
0.504 0.641 -4.950 0.4330 0.7500 -0.5000
1.284 -0.009 -4.850 0.8660 -0.5000 -0.0000
1.284 -0.009 -4.910 0.8660 -0.5000 -0.0000
1.258 -0.054 -4.880 0.8660 -0.5000 -0.0000
1.258 -0.054 -4.820 0.8660 -0.5000 -0.0000
1.284 -0.009 -4.790 0.8660 -0.5000 -0.0000
1.310 0.036 -4.820 0.8660 -0.5000 -0.0000
1.310 0.036 -4.880 0.8660 -0.5000 -0.0000
0.418 0.491 -4.850 -0.8660 0.5000 0.0000
0.418 0.491 -5.050 -0.8660 0.5000 0.0000
0.331 0.341 -4.950 -0.8660 0.5000 0.0000
0.331 0.341 -4.750 -0.8660 0.5000 0.0000
0.418 0.491 -4.650 -0.8660 0.5000 0.0000
0.504 0.641 -4.750 -0.8660 0.5000 0.0000
0.504 0.641 -4.950 -0.8660 0.5000 0.0000
0.684 -1.048 -4.910 0.0000 0.0000 -1.0000
0.658 -1.093 -4.880 -0.4330 -0.7500 -0.5000
0.658 -1.093 -4.820 -0.4330 -0.7500 0.5000
0.684 -1.048 -4.790 -0.0000 -0.0000 1.0000
0.710 -1.003 -4.820 0.4330 0.7500 0.5000
0.710 -1.003 -4.880 0.4330 0.7500 -0.5000
-0.182 -0.548 -5.050 0.0000 0.0000 -1.0000
-0.269 -0.698 -4.950 -0.4330 -0.7500 -0.5000
-0.269 -0.698 -4.750 -0.4330 -0.7500 0.5000
-0.182 -0.548 -4.650 -0.0000 -0.0000 1.0000
-0.096 -0.398 -4.750 0.4330 0.7500 0.5000
-0.096 -0.398 -4.950 0.4330 0.7500 -0.5000
0.684 -1.048 -4.850 0.8660 -0.5000 -0.0000
0.684 -1.048 -4.910 0.8660 -0.5000 -0.0000
0.658 -1.093 -4.880 0.8660 -0.5000 -0.0000
0.658 -1.093 -4.820 0.8660 -0.5000 -0.0000
0.684 -1.048 -4.790 0.8660 -0.5000 -0.0000
0.710 -1.003 -4.820 0.8660 -0.5000 -0.0000
0.710 -1.003 -4.880 0.8660 -0.5000 -0.0000
-0.182 -0.548 -4.850 -0.8660 0.5000 0.0000
-0.182 -0.548 -5.050 -0.8660 0.5000 0.0000
-0.269 -0.698 -4.950 -0.8660 0.5000 0.0000
-0.269 -0.698 -4.750 -0.8660 0.5000 0.0000
-0.182 -0.548 -4.650 -0.8660 0.5000 0.0000
-0.096 -0.398 -4.750 -0.8660 0.5000 0.0000
-0.096 -0.398 -4.950 -0.8660 0.5000 0.0000
1.284 -0.009 1.090 0.0000 0.0000 -1.0000
1.258 -0.054 1.120 -0.4330 -0.7500 -0.5000
1.258 -0.054 1.180 -0.4330 -0.7500 0.5000
1.284 -0.009 1.210 -0.0000 -0.0000 1.0000
1.310 0.036 1.180 0.4330 0.7500 0.5000
1.310 0.036 1.120 0.4330 0.7500 -0.5000
0.418 0.491 0.950 0.0000 0.0000 -1.0000
0.331 0.341 1.050 -0.4330 -0.7500 -0.5000
0.331 0.341 1.250 -0.4330 -0.7500 0.5000
0.418 0.491 1.350 -0.0000 -0.0000 1.0000
0.504 0.641 1.250 0.4330 0.7500 0.5000
0.504 0.641 1.050 0.4330 0.7500 -0.5000
1.284 -0.009 1.150 0.8660 -0.5000 -0.0000
1.284 -0.009 1.090 0.8660 -0.5000 -0.0000
1.258 -0.054 1.120 0.8660 -0.5000 -0.0000
1.258 -0.054 1.180 0.8660 -0.5000 -0.0000
1.284 -0.009 1.210 0.8660 -0.5000 -0.0000
1.310 0.036 1.180 0.8660 -0.5000 -0.0000
1.310 0.036 1.120 0.8660 -0.5000 -0.0000
0.418 0.491 1.150 -0.8660 0.5000 0.0000
0.418 0.491 0.950 -0.8660 0.5000 0.0000
0.331 0.341 1.050 -0.8660 0.5000 0.0000
0.331 0.341 1.250 -0.8660 0.5000 0.0000
0.418 0.491 1.350 -0.8660 0.5000 0.0000
0.504 0.641 1.250 -0.8660 0.5000 0.0000
0.504 0.641 1.050 -0.8660 0.5000 0.0000
0.684 -1.048 1.090 0.0000 0.0000 -1.0000
0.658 -1.093 1.120 -0.4330 -0.7500 -0.5000
0.658 -1.093 1.180 -0.4330 -0.7500 0.5000
0.684 -1.048 1.210 -0.0000 -0.0000 1.0000
0.710 -1.003 1.180 0.4330 0.7500 0.5000
0.710 -1.003 1.120 0.4330 0.7500 -0.5000
-0.182 -0.548 0.950 0.0000 0.0000 -1.0000
-0.269 -0.698 1.050 -0.4330 -0.7500 -0.5000
-0.269 -0.698 1.250 -0.4330 -0.7500 0.5000
-0.182 -0.548 1.350 -0.0000 -0.0000 1.0000
-0.096 -0.398 1.250 0.4330 0.7500 0.5000
-0.096 -0.398 1.050 0.4330 0.7500 -0.5000
0.684 -1.048 1.150 0.8660 -0.5000 -0.0000
0.684 -1.048 1.090 0.8660 -0.5000 -0.0000
0.658 -1.093 1.120 0.8660 -0.5000 -0.0000
0.658 -1.093 1.180 0.8660 -0.5000 -0.0000
0.684 -1.048 1.210 0.8660 -0.5000 -0.0000
0.710 -1.003 1.180 0.8660 -0.5000 -0.0000
0.710 -1.003 1.120 0.8660 -0.5000 -0.0000
-0.182 -0.548 1.150 -0.8660 0.5000 0.0000
-0.182 -0.548 0.950 -0.8660 0.5000 0.0000
-0.269 -0.698 1.050 -0.8660 0.5000 0.0000
-0.269 -0.698 1.250 -0.8660 0.5000 0.0000
-0.182 -0.548 1.350 -0.8660 0.5000 0.0000
-0.096 -0.398 1.250 -0.8660 0.5000 0.0000
-0.096 -0.398 1.050 -0.8660 0.5000 0.0000
0 1 7
0 7 6
1 2 8
1 8 7
2 3 9
2 9 8
3 4 10
3 10 9
4 5 11
4 11 10
5 0 6
5 6 11
12 14 13
12 15 14
12 16 15
12 17 16
12 18 17
12 13 18
19 20 21
19 21 22
19 22 23
19 23 24
19 24 25
19 25 20
26 27 33
26 33 32
27 28 34
27 34 33
28 29 35
28 35 34
29 30 36
29 36 35
30 31 37
30 37 36
31 26 32
31 32 37
38 40 39
38 41 40
38 42 41
38 43 42
38 44 43
38 39 44
45 46 47
45 47 48
45 48 49
45 49 50
45 50 51
45 51 46
52 53 59
52 59 58
53 54 60
53 60 59
54 55 61
54 61 60
55 56 62
55 62 61
56 57 63
56 63 62
57 52 58
57 58 63
64 66 65
64 67 66
64 68 67
64 69 68
64 70 69
64 65 70
71 72 73
71 73 74
71 74 75
71 75 76
71 76 77
71 77 72
78 79 85
78 85 84
79 80 86
79 86 85
80 81 87
80 87 86
81 82 88
81 88 87
82 83 89
82 89 88
83 78 84
83 84 89
90 92 91
90 93 92
90 94 93
90 95 94
90 96 95
90 91 96
97 98 99
97 99 100
97 100 101
97 101 102
97 102 103
97 103 98
MATERIALS 13
hull_lacquer
nose_iridium
crest_radiator
structure
boron_nitride
engine_metal
mechanism
dark
band
planetary_cup
rover
shuttle
trap_shell
MATERIAL hull_lacquer
0.620 0.640 0.680 1
0.620 0.640 0.680 1
0.300 0.300 0.320 1 20
0.000 0.000 0.000 1
MATERIAL nose_iridium
0.780 0.760 0.700 1
0.780 0.760 0.700 1
0.950 0.950 0.950 1 80
0.000 0.000 0.000 1
MATERIAL crest_radiator
0.460 0.260 0.180 1
0.460 0.260 0.180 1
0.150 0.150 0.150 1 10
0.000 0.000 0.000 1
MATERIAL structure
0.260 0.270 0.290 1
0.260 0.270 0.290 1
0.200 0.200 0.200 1 15
0.000 0.000 0.000 1
MATERIAL boron_nitride
0.620 0.580 0.920 1
0.620 0.580 0.920 1
0.600 0.600 0.700 1 40
0.080 0.060 0.200 1
MATERIAL engine_metal
0.400 0.400 0.420 1
0.400 0.400 0.420 1
0.500 0.500 0.500 1 40
0.000 0.000 0.000 1
MATERIAL mechanism
0.540 0.560 0.600 1
0.540 0.560 0.600 1
0.700 0.700 0.720 1 50
0.000 0.000 0.000 1
MATERIAL dark
0.070 0.070 0.090 1
0.070 0.070 0.090 1
0.050 0.050 0.050 1 5
0.000 0.000 0.000 1
MATERIAL band
0.280 0.360 0.500 1
0.280 0.360 0.500 1
0.500 0.550 0.650 1 40
0.000 0.000 0.000 1
MATERIAL planetary_cup
0.600 0.700 0.850 1
0.600 0.700 0.850 1
0.700 0.700 0.800 1 50
0.030 0.060 0.100 1
MATERIAL rover
0.550 0.480 0.320 1
0.550 0.480 0.320 1
0.300 0.300 0.300 1 20
0.000 0.000 0.000 1
MATERIAL shuttle
0.850 0.840 0.810 1
0.850 0.840 0.810 1
0.400 0.400 0.400 1 30
0.000 0.000 0.000 1
MATERIAL trap_shell
0.440 0.470 0.560 1
0.440 0.470 0.560 1
0.450 0.450 0.500 1 30
0.000 0.000 0.000 1
TEXTURES 0
