MSHX1
GROUPS 15
LABEL Body
MATERIAL 1
TEXTURE 0
GEOM 24 24
-0.8000 -0.9000 0.4000 0.0000 0.0000 1.0000
0.8000 -0.9000 0.4000 0.0000 0.0000 1.0000
0.8000 1.2000 0.4000 0.0000 0.0000 1.0000
-0.8000 1.2000 0.4000 0.0000 0.0000 1.0000
0.8000 -0.9000 -0.4000 0.0000 0.0000 -1.0000
-0.8000 -0.9000 -0.4000 0.0000 0.0000 -1.0000
-0.8000 1.2000 -0.4000 0.0000 0.0000 -1.0000
0.8000 1.2000 -0.4000 0.0000 0.0000 -1.0000
0.8000 -0.9000 0.4000 1.0000 0.0000 0.0000
0.8000 -0.9000 -0.4000 1.0000 0.0000 0.0000
0.8000 1.2000 -0.4000 1.0000 0.0000 0.0000
0.8000 1.2000 0.4000 1.0000 0.0000 0.0000
-0.8000 -0.9000 -0.4000 -1.0000 0.0000 0.0000
-0.8000 -0.9000 0.4000 -1.0000 0.0000 0.0000
-0.8000 1.2000 0.4000 -1.0000 0.0000 0.0000
-0.8000 1.2000 -0.4000 -1.0000 0.0000 0.0000
-0.8000 1.2000 0.4000 0.0000 1.0000 0.0000
0.8000 1.2000 0.4000 0.0000 1.0000 0.0000
0.8000 1.2000 -0.4000 0.0000 1.0000 0.0000
-0.8000 1.2000 -0.4000 0.0000 1.0000 0.0000
-0.8000 -0.9000 -0.4000 0.0000 -1.0000 0.0000
0.8000 -0.9000 -0.4000 0.0000 -1.0000 0.0000
0.8000 -0.9000 0.4000 0.0000 -1.0000 0.0000
-0.8000 -0.9000 0.4000 0.0000 -1.0000 0.0000
0 1 2
0 2 1
0 2 3
0 3 2
4 5 6
4 6 5
4 6 7
4 7 6
8 9 10
8 10 9
8 10 11
8 11 10
12 13 14
12 14 13
12 14 15
12 15 14
16 17 18
16 18 17
16 18 19
16 19 18
20 21 22
20 22 21
20 22 23
20 23 22
LABEL Panels
MATERIAL 2
TEXTURE 0
GEOM 48 48
-0.8000 1.2000 0.4000 0.0000 0.0000 1.0000
0.8000 1.2000 0.4000 0.0000 0.0000 1.0000
0.8000 1.2600 0.4000 0.0000 0.0000 1.0000
-0.8000 1.2600 0.4000 0.0000 0.0000 1.0000
0.8000 1.2000 -0.4000 0.0000 0.0000 -1.0000
-0.8000 1.2000 -0.4000 0.0000 0.0000 -1.0000
-0.8000 1.2600 -0.4000 0.0000 0.0000 -1.0000
0.8000 1.2600 -0.4000 0.0000 0.0000 -1.0000
0.8000 1.2000 0.4000 1.0000 0.0000 0.0000
0.8000 1.2000 -0.4000 1.0000 0.0000 0.0000
0.8000 1.2600 -0.4000 1.0000 0.0000 0.0000
0.8000 1.2600 0.4000 1.0000 0.0000 0.0000
-0.8000 1.2000 -0.4000 -1.0000 0.0000 0.0000
-0.8000 1.2000 0.4000 -1.0000 0.0000 0.0000
-0.8000 1.2600 0.4000 -1.0000 0.0000 0.0000
-0.8000 1.2600 -0.4000 -1.0000 0.0000 0.0000
-0.8000 1.2600 0.4000 0.0000 1.0000 0.0000
0.8000 1.2600 0.4000 0.0000 1.0000 0.0000
0.8000 1.2600 -0.4000 0.0000 1.0000 0.0000
-0.8000 1.2600 -0.4000 0.0000 1.0000 0.0000
-0.8000 1.2000 -0.4000 0.0000 -1.0000 0.0000
0.8000 1.2000 -0.4000 0.0000 -1.0000 0.0000
0.8000 1.2000 0.4000 0.0000 -1.0000 0.0000
-0.8000 1.2000 0.4000 0.0000 -1.0000 0.0000
-0.8100 0.5500 0.4100 0.0000 0.0000 1.0000
0.8100 0.5500 0.4100 0.0000 0.0000 1.0000
0.8100 0.6000 0.4100 0.0000 0.0000 1.0000
-0.8100 0.6000 0.4100 0.0000 0.0000 1.0000
0.8100 0.5500 -0.4100 0.0000 0.0000 -1.0000
-0.8100 0.5500 -0.4100 0.0000 0.0000 -1.0000
-0.8100 0.6000 -0.4100 0.0000 0.0000 -1.0000
0.8100 0.6000 -0.4100 0.0000 0.0000 -1.0000
0.8100 0.5500 0.4100 1.0000 0.0000 0.0000
0.8100 0.5500 -0.4100 1.0000 0.0000 0.0000
0.8100 0.6000 -0.4100 1.0000 0.0000 0.0000
0.8100 0.6000 0.4100 1.0000 0.0000 0.0000
-0.8100 0.5500 -0.4100 -1.0000 0.0000 0.0000
-0.8100 0.5500 0.4100 -1.0000 0.0000 0.0000
-0.8100 0.6000 0.4100 -1.0000 0.0000 0.0000
-0.8100 0.6000 -0.4100 -1.0000 0.0000 0.0000
-0.8100 0.6000 0.4100 0.0000 1.0000 0.0000
0.8100 0.6000 0.4100 0.0000 1.0000 0.0000
0.8100 0.6000 -0.4100 0.0000 1.0000 0.0000
-0.8100 0.6000 -0.4100 0.0000 1.0000 0.0000
-0.8100 0.5500 -0.4100 0.0000 -1.0000 0.0000
0.8100 0.5500 -0.4100 0.0000 -1.0000 0.0000
0.8100 0.5500 0.4100 0.0000 -1.0000 0.0000
-0.8100 0.5500 0.4100 0.0000 -1.0000 0.0000
0 1 2
0 2 1
0 2 3
0 3 2
4 5 6
4 6 5
4 6 7
4 7 6
8 9 10
8 10 9
8 10 11
8 11 10
12 13 14
12 14 13
12 14 15
12 15 14
16 17 18
16 18 17
16 18 19
16 19 18
20 21 22
20 22 21
20 22 23
20 23 22
24 25 26
24 26 25
24 26 27
24 27 26
28 29 30
28 30 29
28 30 31
28 31 30
32 33 34
32 34 33
32 34 35
32 35 34
36 37 38
36 38 37
36 38 39
36 39 38
40 41 42
40 42 41
40 42 43
40 43 42
44 45 46
44 46 45
44 46 47
44 47 46
LABEL Metal
MATERIAL 7
TEXTURE 0
GEOM 288 288
-0.7800 -1.0000 -0.2200 0.0000 0.0000 1.0000
-0.6200 -1.0000 -0.2200 0.0000 0.0000 1.0000
-0.6200 -0.8800 -0.2200 0.0000 0.0000 1.0000
-0.7800 -0.8800 -0.2200 0.0000 0.0000 1.0000
-0.6200 -1.0000 -0.3800 0.0000 0.0000 -1.0000
-0.7800 -1.0000 -0.3800 0.0000 0.0000 -1.0000
-0.7800 -0.8800 -0.3800 0.0000 0.0000 -1.0000
-0.6200 -0.8800 -0.3800 0.0000 0.0000 -1.0000
-0.6200 -1.0000 -0.2200 1.0000 0.0000 0.0000
-0.6200 -1.0000 -0.3800 1.0000 0.0000 0.0000
-0.6200 -0.8800 -0.3800 1.0000 0.0000 0.0000
-0.6200 -0.8800 -0.2200 1.0000 0.0000 0.0000
-0.7800 -1.0000 -0.3800 -1.0000 0.0000 0.0000
-0.7800 -1.0000 -0.2200 -1.0000 0.0000 0.0000
-0.7800 -0.8800 -0.2200 -1.0000 0.0000 0.0000
-0.7800 -0.8800 -0.3800 -1.0000 0.0000 0.0000
-0.7800 -0.8800 -0.2200 0.0000 1.0000 0.0000
-0.6200 -0.8800 -0.2200 0.0000 1.0000 0.0000
-0.6200 -0.8800 -0.3800 0.0000 1.0000 0.0000
-0.7800 -0.8800 -0.3800 0.0000 1.0000 0.0000
-0.7800 -1.0000 -0.3800 0.0000 -1.0000 0.0000
-0.6200 -1.0000 -0.3800 0.0000 -1.0000 0.0000
-0.6200 -1.0000 -0.2200 0.0000 -1.0000 0.0000
-0.7800 -1.0000 -0.2200 0.0000 -1.0000 0.0000
-0.7800 -1.0000 0.3800 0.0000 0.0000 1.0000
-0.6200 -1.0000 0.3800 0.0000 0.0000 1.0000
-0.6200 -0.8800 0.3800 0.0000 0.0000 1.0000
-0.7800 -0.8800 0.3800 0.0000 0.0000 1.0000
-0.6200 -1.0000 0.2200 0.0000 0.0000 -1.0000
-0.7800 -1.0000 0.2200 0.0000 0.0000 -1.0000
-0.7800 -0.8800 0.2200 0.0000 0.0000 -1.0000
-0.6200 -0.8800 0.2200 0.0000 0.0000 -1.0000
-0.6200 -1.0000 0.3800 1.0000 0.0000 0.0000
-0.6200 -1.0000 0.2200 1.0000 0.0000 0.0000
-0.6200 -0.8800 0.2200 1.0000 0.0000 0.0000
-0.6200 -0.8800 0.3800 1.0000 0.0000 0.0000
-0.7800 -1.0000 0.2200 -1.0000 0.0000 0.0000
-0.7800 -1.0000 0.3800 -1.0000 0.0000 0.0000
-0.7800 -0.8800 0.3800 -1.0000 0.0000 0.0000
-0.7800 -0.8800 0.2200 -1.0000 0.0000 0.0000
-0.7800 -0.8800 0.3800 0.0000 1.0000 0.0000
-0.6200 -0.8800 0.3800 0.0000 1.0000 0.0000
-0.6200 -0.8800 0.2200 0.0000 1.0000 0.0000
-0.7800 -0.8800 0.2200 0.0000 1.0000 0.0000
-0.7800 -1.0000 0.2200 0.0000 -1.0000 0.0000
-0.6200 -1.0000 0.2200 0.0000 -1.0000 0.0000
-0.6200 -1.0000 0.3800 0.0000 -1.0000 0.0000
-0.7800 -1.0000 0.3800 0.0000 -1.0000 0.0000
0.6200 -1.0000 -0.2200 0.0000 0.0000 1.0000
0.7800 -1.0000 -0.2200 0.0000 0.0000 1.0000
0.7800 -0.8800 -0.2200 0.0000 0.0000 1.0000
0.6200 -0.8800 -0.2200 0.0000 0.0000 1.0000
0.7800 -1.0000 -0.3800 0.0000 0.0000 -1.0000
0.6200 -1.0000 -0.3800 0.0000 0.0000 -1.0000
0.6200 -0.8800 -0.3800 0.0000 0.0000 -1.0000
0.7800 -0.8800 -0.3800 0.0000 0.0000 -1.0000
0.7800 -1.0000 -0.2200 1.0000 0.0000 0.0000
0.7800 -1.0000 -0.3800 1.0000 0.0000 0.0000
0.7800 -0.8800 -0.3800 1.0000 0.0000 0.0000
0.7800 -0.8800 -0.2200 1.0000 0.0000 0.0000
0.6200 -1.0000 -0.3800 -1.0000 0.0000 0.0000
0.6200 -1.0000 -0.2200 -1.0000 0.0000 0.0000
0.6200 -0.8800 -0.2200 -1.0000 0.0000 0.0000
0.6200 -0.8800 -0.3800 -1.0000 0.0000 0.0000
0.6200 -0.8800 -0.2200 0.0000 1.0000 0.0000
0.7800 -0.8800 -0.2200 0.0000 1.0000 0.0000
0.7800 -0.8800 -0.3800 0.0000 1.0000 0.0000
0.6200 -0.8800 -0.3800 0.0000 1.0000 0.0000
0.6200 -1.0000 -0.3800 0.0000 -1.0000 0.0000
0.7800 -1.0000 -0.3800 0.0000 -1.0000 0.0000
0.7800 -1.0000 -0.2200 0.0000 -1.0000 0.0000
0.6200 -1.0000 -0.2200 0.0000 -1.0000 0.0000
0.6200 -1.0000 0.3800 0.0000 0.0000 1.0000
0.7800 -1.0000 0.3800 0.0000 0.0000 1.0000
0.7800 -0.8800 0.3800 0.0000 0.0000 1.0000
0.6200 -0.8800 0.3800 0.0000 0.0000 1.0000
0.7800 -1.0000 0.2200 0.0000 0.0000 -1.0000
0.6200 -1.0000 0.2200 0.0000 0.0000 -1.0000
0.6200 -0.8800 0.2200 0.0000 0.0000 -1.0000
0.7800 -0.8800 0.2200 0.0000 0.0000 -1.0000
0.7800 -1.0000 0.3800 1.0000 0.0000 0.0000
0.7800 -1.0000 0.2200 1.0000 0.0000 0.0000
0.7800 -0.8800 0.2200 1.0000 0.0000 0.0000
0.7800 -0.8800 0.3800 1.0000 0.0000 0.0000
0.6200 -1.0000 0.2200 -1.0000 0.0000 0.0000
0.6200 -1.0000 0.3800 -1.0000 0.0000 0.0000
0.6200 -0.8800 0.3800 -1.0000 0.0000 0.0000
0.6200 -0.8800 0.2200 -1.0000 0.0000 0.0000
0.6200 -0.8800 0.3800 0.0000 1.0000 0.0000
0.7800 -0.8800 0.3800 0.0000 1.0000 0.0000
0.7800 -0.8800 0.2200 0.0000 1.0000 0.0000
0.6200 -0.8800 0.2200 0.0000 1.0000 0.0000
0.6200 -1.0000 0.2200 0.0000 -1.0000 0.0000
0.7800 -1.0000 0.2200 0.0000 -1.0000 0.0000
0.7800 -1.0000 0.3800 0.0000 -1.0000 0.0000
0.6200 -1.0000 0.3800 0.0000 -1.0000 0.0000
-0.7850 -0.6200 0.6200 0.0000 0.0000 1.0000
-0.4550 -0.6200 0.6200 0.0000 0.0000 1.0000
-0.4550 -0.6000 0.6200 0.0000 0.0000 1.0000
-0.7850 -0.6000 0.6200 0.0000 0.0000 1.0000
-0.4550 -0.6200 0.4000 0.0000 0.0000 -1.0000
-0.7850 -0.6200 0.4000 0.0000 0.0000 -1.0000
-0.7850 -0.6000 0.4000 0.0000 0.0000 -1.0000
-0.4550 -0.6000 0.4000 0.0000 0.0000 -1.0000
-0.4550 -0.6200 0.6200 1.0000 0.0000 0.0000
-0.4550 -0.6200 0.4000 1.0000 0.0000 0.0000
-0.4550 -0.6000 0.4000 1.0000 0.0000 0.0000
-0.4550 -0.6000 0.6200 1.0000 0.0000 0.0000
-0.7850 -0.6200 0.4000 -1.0000 0.0000 0.0000
-0.7850 -0.6200 0.6200 -1.0000 0.0000 0.0000
-0.7850 -0.6000 0.6200 -1.0000 0.0000 0.0000
-0.7850 -0.6000 0.4000 -1.0000 0.0000 0.0000
-0.7850 -0.6000 0.6200 0.0000 1.0000 0.0000
-0.4550 -0.6000 0.6200 0.0000 1.0000 0.0000
-0.4550 -0.6000 0.4000 0.0000 1.0000 0.0000
-0.7850 -0.6000 0.4000 0.0000 1.0000 0.0000
-0.7850 -0.6200 0.4000 0.0000 -1.0000 0.0000
-0.4550 -0.6200 0.4000 0.0000 -1.0000 0.0000
-0.4550 -0.6200 0.6200 0.0000 -1.0000 0.0000
-0.7850 -0.6200 0.6200 0.0000 -1.0000 0.0000
-0.4650 -0.6200 0.6200 0.0000 0.0000 1.0000
-0.1350 -0.6200 0.6200 0.0000 0.0000 1.0000
-0.1350 -0.6000 0.6200 0.0000 0.0000 1.0000
-0.4650 -0.6000 0.6200 0.0000 0.0000 1.0000
-0.1350 -0.6200 0.4000 0.0000 0.0000 -1.0000
-0.4650 -0.6200 0.4000 0.0000 0.0000 -1.0000
-0.4650 -0.6000 0.4000 0.0000 0.0000 -1.0000
-0.1350 -0.6000 0.4000 0.0000 0.0000 -1.0000
-0.1350 -0.6200 0.6200 1.0000 0.0000 0.0000
-0.1350 -0.6200 0.4000 1.0000 0.0000 0.0000
-0.1350 -0.6000 0.4000 1.0000 0.0000 0.0000
-0.1350 -0.6000 0.6200 1.0000 0.0000 0.0000
-0.4650 -0.6200 0.4000 -1.0000 0.0000 0.0000
-0.4650 -0.6200 0.6200 -1.0000 0.0000 0.0000
-0.4650 -0.6000 0.6200 -1.0000 0.0000 0.0000
-0.4650 -0.6000 0.4000 -1.0000 0.0000 0.0000
-0.4650 -0.6000 0.6200 0.0000 1.0000 0.0000
-0.1350 -0.6000 0.6200 0.0000 1.0000 0.0000
-0.1350 -0.6000 0.4000 0.0000 1.0000 0.0000
-0.4650 -0.6000 0.4000 0.0000 1.0000 0.0000
-0.4650 -0.6200 0.4000 0.0000 -1.0000 0.0000
-0.1350 -0.6200 0.4000 0.0000 -1.0000 0.0000
-0.1350 -0.6200 0.6200 0.0000 -1.0000 0.0000
-0.4650 -0.6200 0.6200 0.0000 -1.0000 0.0000
-0.1450 -0.6200 0.6200 0.0000 0.0000 1.0000
0.1850 -0.6200 0.6200 0.0000 0.0000 1.0000
0.1850 -0.6000 0.6200 0.0000 0.0000 1.0000
-0.1450 -0.6000 0.6200 0.0000 0.0000 1.0000
0.1850 -0.6200 0.4000 0.0000 0.0000 -1.0000
-0.1450 -0.6200 0.4000 0.0000 0.0000 -1.0000
-0.1450 -0.6000 0.4000 0.0000 0.0000 -1.0000
0.1850 -0.6000 0.4000 0.0000 0.0000 -1.0000
0.1850 -0.6200 0.6200 1.0000 0.0000 0.0000
0.1850 -0.6200 0.4000 1.0000 0.0000 0.0000
0.1850 -0.6000 0.4000 1.0000 0.0000 0.0000
0.1850 -0.6000 0.6200 1.0000 0.0000 0.0000
-0.1450 -0.6200 0.4000 -1.0000 0.0000 0.0000
-0.1450 -0.6200 0.6200 -1.0000 0.0000 0.0000
-0.1450 -0.6000 0.6200 -1.0000 0.0000 0.0000
-0.1450 -0.6000 0.4000 -1.0000 0.0000 0.0000
-0.1450 -0.6000 0.6200 0.0000 1.0000 0.0000
0.1850 -0.6000 0.6200 0.0000 1.0000 0.0000
0.1850 -0.6000 0.4000 0.0000 1.0000 0.0000
-0.1450 -0.6000 0.4000 0.0000 1.0000 0.0000
-0.1450 -0.6200 0.4000 0.0000 -1.0000 0.0000
0.1850 -0.6200 0.4000 0.0000 -1.0000 0.0000
0.1850 -0.6200 0.6200 0.0000 -1.0000 0.0000
-0.1450 -0.6200 0.6200 0.0000 -1.0000 0.0000
-0.7850 -0.1200 0.6200 0.0000 0.0000 1.0000
-0.4550 -0.1200 0.6200 0.0000 0.0000 1.0000
-0.4550 -0.1000 0.6200 0.0000 0.0000 1.0000
-0.7850 -0.1000 0.6200 0.0000 0.0000 1.0000
-0.4550 -0.1200 0.4000 0.0000 0.0000 -1.0000
-0.7850 -0.1200 0.4000 0.0000 0.0000 -1.0000
-0.7850 -0.1000 0.4000 0.0000 0.0000 -1.0000
-0.4550 -0.1000 0.4000 0.0000 0.0000 -1.0000
-0.4550 -0.1200 0.6200 1.0000 0.0000 0.0000
-0.4550 -0.1200 0.4000 1.0000 0.0000 0.0000
-0.4550 -0.1000 0.4000 1.0000 0.0000 0.0000
-0.4550 -0.1000 0.6200 1.0000 0.0000 0.0000
-0.7850 -0.1200 0.4000 -1.0000 0.0000 0.0000
-0.7850 -0.1200 0.6200 -1.0000 0.0000 0.0000
-0.7850 -0.1000 0.6200 -1.0000 0.0000 0.0000
-0.7850 -0.1000 0.4000 -1.0000 0.0000 0.0000
-0.7850 -0.1000 0.6200 0.0000 1.0000 0.0000
-0.4550 -0.1000 0.6200 0.0000 1.0000 0.0000
-0.4550 -0.1000 0.4000 0.0000 1.0000 0.0000
-0.7850 -0.1000 0.4000 0.0000 1.0000 0.0000
-0.7850 -0.1200 0.4000 0.0000 -1.0000 0.0000
-0.4550 -0.1200 0.4000 0.0000 -1.0000 0.0000
-0.4550 -0.1200 0.6200 0.0000 -1.0000 0.0000
-0.7850 -0.1200 0.6200 0.0000 -1.0000 0.0000
-0.4650 -0.1200 0.6200 0.0000 0.0000 1.0000
-0.1350 -0.1200 0.6200 0.0000 0.0000 1.0000
-0.1350 -0.1000 0.6200 0.0000 0.0000 1.0000
-0.4650 -0.1000 0.6200 0.0000 0.0000 1.0000
-0.1350 -0.1200 0.4000 0.0000 0.0000 -1.0000
-0.4650 -0.1200 0.4000 0.0000 0.0000 -1.0000
-0.4650 -0.1000 0.4000 0.0000 0.0000 -1.0000
-0.1350 -0.1000 0.4000 0.0000 0.0000 -1.0000
-0.1350 -0.1200 0.6200 1.0000 0.0000 0.0000
-0.1350 -0.1200 0.4000 1.0000 0.0000 0.0000
-0.1350 -0.1000 0.4000 1.0000 0.0000 0.0000
-0.1350 -0.1000 0.6200 1.0000 0.0000 0.0000
-0.4650 -0.1200 0.4000 -1.0000 0.0000 0.0000
-0.4650 -0.1200 0.6200 -1.0000 0.0000 0.0000
-0.4650 -0.1000 0.6200 -1.0000 0.0000 0.0000
-0.4650 -0.1000 0.4000 -1.0000 0.0000 0.0000
-0.4650 -0.1000 0.6200 0.0000 1.0000 0.0000
-0.1350 -0.1000 0.6200 0.0000 1.0000 0.0000
-0.1350 -0.1000 0.4000 0.0000 1.0000 0.0000
-0.4650 -0.1000 0.4000 0.0000 1.0000 0.0000
-0.4650 -0.1200 0.4000 0.0000 -1.0000 0.0000
-0.1350 -0.1200 0.4000 0.0000 -1.0000 0.0000
-0.1350 -0.1200 0.6200 0.0000 -1.0000 0.0000
-0.4650 -0.1200 0.6200 0.0000 -1.0000 0.0000
-0.1450 -0.1200 0.6200 0.0000 0.0000 1.0000
0.1850 -0.1200 0.6200 0.0000 0.0000 1.0000
0.1850 -0.1000 0.6200 0.0000 0.0000 1.0000
-0.1450 -0.1000 0.6200 0.0000 0.0000 1.0000
0.1850 -0.1200 0.4000 0.0000 0.0000 -1.0000
-0.1450 -0.1200 0.4000 0.0000 0.0000 -1.0000
-0.1450 -0.1000 0.4000 0.0000 0.0000 -1.0000
0.1850 -0.1000 0.4000 0.0000 0.0000 -1.0000
0.1850 -0.1200 0.6200 1.0000 0.0000 0.0000
0.1850 -0.1200 0.4000 1.0000 0.0000 0.0000
0.1850 -0.1000 0.4000 1.0000 0.0000 0.0000
0.1850 -0.1000 0.6200 1.0000 0.0000 0.0000
-0.1450 -0.1200 0.4000 -1.0000 0.0000 0.0000
-0.1450 -0.1200 0.6200 -1.0000 0.0000 0.0000
-0.1450 -0.1000 0.6200 -1.0000 0.0000 0.0000
-0.1450 -0.1000 0.4000 -1.0000 0.0000 0.0000
-0.1450 -0.1000 0.6200 0.0000 1.0000 0.0000
0.1850 -0.1000 0.6200 0.0000 1.0000 0.0000
0.1850 -0.1000 0.4000 0.0000 1.0000 0.0000
-0.1450 -0.1000 0.4000 0.0000 1.0000 0.0000
-0.1450 -0.1200 0.4000 0.0000 -1.0000 0.0000
0.1850 -0.1200 0.4000 0.0000 -1.0000 0.0000
0.1850 -0.1200 0.6200 0.0000 -1.0000 0.0000
-0.1450 -0.1200 0.6200 0.0000 -1.0000 0.0000
0.3600 -0.4500 0.9000 0.0000 0.0000 1.0000
0.5400 -0.4500 0.9000 0.0000 0.0000 1.0000
0.5400 -0.3000 0.9000 0.0000 0.0000 1.0000
0.3600 -0.3000 0.9000 0.0000 0.0000 1.0000
0.5400 -0.4500 0.4000 0.0000 0.0000 -1.0000
0.3600 -0.4500 0.4000 0.0000 0.0000 -1.0000
0.3600 -0.3000 0.4000 0.0000 0.0000 -1.0000
0.5400 -0.3000 0.4000 0.0000 0.0000 -1.0000
0.5400 -0.4500 0.9000 1.0000 0.0000 0.0000
0.5400 -0.4500 0.4000 1.0000 0.0000 0.0000
0.5400 -0.3000 0.4000 1.0000 0.0000 0.0000
0.5400 -0.3000 0.9000 1.0000 0.0000 0.0000
0.3600 -0.4500 0.4000 -1.0000 0.0000 0.0000
0.3600 -0.4500 0.9000 -1.0000 0.0000 0.0000
0.3600 -0.3000 0.9000 -1.0000 0.0000 0.0000
0.3600 -0.3000 0.4000 -1.0000 0.0000 0.0000
0.3600 -0.3000 0.9000 0.0000 1.0000 0.0000
0.5400 -0.3000 0.9000 0.0000 1.0000 0.0000
0.5400 -0.3000 0.4000 0.0000 1.0000 0.0000
0.3600 -0.3000 0.4000 0.0000 1.0000 0.0000
0.3600 -0.4500 0.4000 0.0000 -1.0000 0.0000
0.5400 -0.4500 0.4000 0.0000 -1.0000 0.0000
0.5400 -0.4500 0.9000 0.0000 -1.0000 0.0000
0.3600 -0.4500 0.9000 0.0000 -1.0000 0.0000
0.6200 0.2000 0.5000 0.0000 0.0000 1.0000
0.7600 0.2000 0.5000 0.0000 0.0000 1.0000
0.7600 0.4000 0.5000 0.0000 0.0000 1.0000
0.6200 0.4000 0.5000 0.0000 0.0000 1.0000
0.7600 0.2000 0.4000 0.0000 0.0000 -1.0000
0.6200 0.2000 0.4000 0.0000 0.0000 -1.0000
0.6200 0.4000 0.4000 0.0000 0.0000 -1.0000
0.7600 0.4000 0.4000 0.0000 0.0000 -1.0000
0.7600 0.2000 0.5000 1.0000 0.0000 0.0000
0.7600 0.2000 0.4000 1.0000 0.0000 0.0000
0.7600 0.4000 0.4000 1.0000 0.0000 0.0000
0.7600 0.4000 0.5000 1.0000 0.0000 0.0000
0.6200 0.2000 0.4000 -1.0000 0.0000 0.0000
0.6200 0.2000 0.5000 -1.0000 0.0000 0.0000
0.6200 0.4000 0.5000 -1.0000 0.0000 0.0000
0.6200 0.4000 0.4000 -1.0000 0.0000 0.0000
0.6200 0.4000 0.5000 0.0000 1.0000 0.0000
0.7600 0.4000 0.5000 0.0000 1.0000 0.0000
0.7600 0.4000 0.4000 0.0000 1.0000 0.0000
0.6200 0.4000 0.4000 0.0000 1.0000 0.0000
0.6200 0.2000 0.4000 0.0000 -1.0000 0.0000
0.7600 0.2000 0.4000 0.0000 -1.0000 0.0000
0.7600 0.2000 0.5000 0.0000 -1.0000 0.0000
0.6200 0.2000 0.5000 0.0000 -1.0000 0.0000
0 1 2
0 2 1
0 2 3
0 3 2
4 5 6
4 6 5
4 6 7
4 7 6
8 9 10
8 10 9
8 10 11
8 11 10
12 13 14
12 14 13
12 14 15
12 15 14
16 17 18
16 18 17
16 18 19
16 19 18
20 21 22
20 22 21
20 22 23
20 23 22
24 25 26
24 26 25
24 26 27
24 27 26
28 29 30
28 30 29
28 30 31
28 31 30
32 33 34
32 34 33
32 34 35
32 35 34
36 37 38
36 38 37
36 38 39
36 39 38
40 41 42
40 42 41
40 42 43
40 43 42
44 45 46
44 46 45
44 46 47
44 47 46
48 49 50
48 50 49
48 50 51
48 51 50
52 53 54
52 54 53
52 54 55
52 55 54
56 57 58
56 58 57
56 58 59
56 59 58
60 61 62
60 62 61
60 62 63
60 63 62
64 65 66
64 66 65
64 66 67
64 67 66
68 69 70
68 70 69
68 70 71
68 71 70
72 73 74
72 74 73
72 74 75
72 75 74
76 77 78
76 78 77
76 78 79
76 79 78
80 81 82
80 82 81
80 82 83
80 83 82
84 85 86
84 86 85
84 86 87
84 87 86
88 89 90
88 90 89
88 90 91
88 91 90
92 93 94
92 94 93
92 94 95
92 95 94
96 97 98
96 98 97
96 98 99
96 99 98
100 101 102
100 102 101
100 102 103
100 103 102
104 105 106
104 106 105
104 106 107
104 107 106
108 109 110
108 110 109
108 110 111
108 111 110
112 113 114
112 114 113
112 114 115
112 115 114
116 117 118
116 118 117
116 118 119
116 119 118
120 121 122
120 122 121
120 122 123
120 123 122
124 125 126
124 126 125
124 126 127
124 127 126
128 129 130
128 130 129
128 130 131
128 131 130
132 133 134
132 134 133
132 134 135
132 135 134
136 137 138
136 138 137
136 138 139
136 139 138
140 141 142
140 142 141
140 142 143
140 143 142
144 145 146
144 146 145
144 146 147
144 147 146
148 149 150
148 150 149
148 150 151
148 151 150
152 153 154
152 154 153
152 154 155
152 155 154
156 157 158
156 158 157
156 158 159
156 159 158
160 161 162
160 162 161
160 162 163
160 163 162
164 165 166
164 166 165
164 166 167
164 167 166
168 169 170
168 170 169
168 170 171
168 171 170
172 173 174
172 174 173
172 174 175
172 175 174
176 177 178
176 178 177
176 178 179
176 179 178
180 181 182
180 182 181
180 182 183
180 183 182
184 185 186
184 186 185
184 186 187
184 187 186
188 189 190
188 190 189
188 190 191
188 191 190
192 193 194
192 194 193
192 194 195
192 195 194
196 197 198
196 198 197
196 198 199
196 199 198
200 201 202
200 202 201
200 202 203
200 203 202
204 205 206
204 206 205
204 206 207
204 207 206
208 209 210
208 210 209
208 210 211
208 211 210
212 213 214
212 214 213
212 214 215
212 215 214
216 217 218
216 218 217
216 218 219
216 219 218
220 221 222
220 222 221
220 222 223
220 223 222
224 225 226
224 226 225
224 226 227
224 227 226
228 229 230
228 230 229
228 230 231
228 231 230
232 233 234
232 234 233
232 234 235
232 235 234
236 237 238
236 238 237
236 238 239
236 239 238
240 241 242
240 242 241
240 242 243
240 243 242
244 245 246
244 246 245
244 246 247
244 247 246
248 249 250
248 250 249
248 250 251
248 251 250
252 253 254
252 254 253
252 254 255
252 255 254
256 257 258
256 258 257
256 258 259
256 259 258
260 261 262
260 262 261
260 262 263
260 263 262
264 265 266
264 266 265
264 266 267
264 267 266
268 269 270
268 270 269
268 270 271
268 271 270
272 273 274
272 274 273
272 274 275
272 275 274
276 277 278
276 278 277
276 278 279
276 279 278
280 281 282
280 282 281
280 282 283
280 283 282
284 285 286
284 286 285
284 286 287
284 287 286
LABEL Display
MATERIAL 6
TEXTURE 0
GEOM 24 24
-0.7000 0.6800 0.4200 0.0000 0.0000 1.0000
-0.0500 0.6800 0.4200 0.0000 0.0000 1.0000
-0.0500 1.0800 0.4200 0.0000 0.0000 1.0000
-0.7000 1.0800 0.4200 0.0000 0.0000 1.0000
-0.0500 0.6800 0.4000 0.0000 0.0000 -1.0000
-0.7000 0.6800 0.4000 0.0000 0.0000 -1.0000
-0.7000 1.0800 0.4000 0.0000 0.0000 -1.0000
-0.0500 1.0800 0.4000 0.0000 0.0000 -1.0000
-0.0500 0.6800 0.4200 1.0000 0.0000 0.0000
-0.0500 0.6800 0.4000 1.0000 0.0000 0.0000
-0.0500 1.0800 0.4000 1.0000 0.0000 0.0000
-0.0500 1.0800 0.4200 1.0000 0.0000 0.0000
-0.7000 0.6800 0.4000 -1.0000 0.0000 0.0000
-0.7000 0.6800 0.4200 -1.0000 0.0000 0.0000
-0.7000 1.0800 0.4200 -1.0000 0.0000 0.0000
-0.7000 1.0800 0.4000 -1.0000 0.0000 0.0000
-0.7000 1.0800 0.4200 0.0000 1.0000 0.0000
-0.0500 1.0800 0.4200 0.0000 1.0000 0.0000
-0.0500 1.0800 0.4000 0.0000 1.0000 0.0000
-0.7000 1.0800 0.4000 0.0000 1.0000 0.0000
-0.7000 0.6800 0.4000 0.0000 -1.0000 0.0000
-0.0500 0.6800 0.4000 0.0000 -1.0000 0.0000
-0.0500 0.6800 0.4200 0.0000 -1.0000 0.0000
-0.7000 0.6800 0.4200 0.0000 -1.0000 0.0000
0 1 2
0 2 1
0 2 3
0 3 2
4 5 6
4 6 5
4 6 7
4 7 6
8 9 10
8 10 9
8 10 11
8 11 10
12 13 14
12 14 13
12 14 15
12 15 14
16 17 18
16 18 17
16 18 19
16 19 18
20 21 22
20 22 21
20 22 23
20 23 22
LABEL Lamp
MATERIAL 5
TEXTURE 0
GEOM 24 24
0.5000 1.2600 0.0600 0.0000 0.0000 1.0000
0.6200 1.2600 0.0600 0.0000 0.0000 1.0000
0.6200 1.4000 0.0600 0.0000 0.0000 1.0000
0.5000 1.4000 0.0600 0.0000 0.0000 1.0000
0.6200 1.2600 -0.0600 0.0000 0.0000 -1.0000
0.5000 1.2600 -0.0600 0.0000 0.0000 -1.0000
0.5000 1.4000 -0.0600 0.0000 0.0000 -1.0000
0.6200 1.4000 -0.0600 0.0000 0.0000 -1.0000
0.6200 1.2600 0.0600 1.0000 0.0000 0.0000
0.6200 1.2600 -0.0600 1.0000 0.0000 0.0000
0.6200 1.4000 -0.0600 1.0000 0.0000 0.0000
0.6200 1.4000 0.0600 1.0000 0.0000 0.0000
0.5000 1.2600 -0.0600 -1.0000 0.0000 0.0000
0.5000 1.2600 0.0600 -1.0000 0.0000 0.0000
0.5000 1.4000 0.0600 -1.0000 0.0000 0.0000
0.5000 1.4000 -0.0600 -1.0000 0.0000 0.0000
0.5000 1.4000 0.0600 0.0000 1.0000 0.0000
0.6200 1.4000 0.0600 0.0000 1.0000 0.0000
0.6200 1.4000 -0.0600 0.0000 1.0000 0.0000
0.5000 1.4000 -0.0600 0.0000 1.0000 0.0000
0.5000 1.2600 -0.0600 0.0000 -1.0000 0.0000
0.6200 1.2600 -0.0600 0.0000 -1.0000 0.0000
0.6200 1.2600 0.0600 0.0000 -1.0000 0.0000
0.5000 1.2600 0.0600 0.0000 -1.0000 0.0000
0 1 2
0 2 1
0 2 3
0 3 2
4 5 6
4 6 5
4 6 7
4 7 6
8 9 10
8 10 9
8 10 11
8 11 10
12 13 14
12 14 13
12 14 15
12 15 14
16 17 18
16 18 17
16 18 19
16 19 18
20 21 22
20 22 21
20 22 23
20 23 22
LABEL Cell0
MATERIAL 3
TEXTURE 0
GEOM 48 48
-0.7700 -0.6000 0.7400 0.0000 0.0000 1.0000
-0.4700 -0.6000 0.7400 0.0000 0.0000 1.0000
-0.4700 -0.3000 0.7400 0.0000 0.0000 1.0000
-0.7700 -0.3000 0.7400 0.0000 0.0000 1.0000
-0.4700 -0.6000 0.4200 0.0000 0.0000 -1.0000
-0.7700 -0.6000 0.4200 0.0000 0.0000 -1.0000
-0.7700 -0.3000 0.4200 0.0000 0.0000 -1.0000
-0.4700 -0.3000 0.4200 0.0000 0.0000 -1.0000
-0.4700 -0.6000 0.7400 1.0000 0.0000 0.0000
-0.4700 -0.6000 0.4200 1.0000 0.0000 0.0000
-0.4700 -0.3000 0.4200 1.0000 0.0000 0.0000
-0.4700 -0.3000 0.7400 1.0000 0.0000 0.0000
-0.7700 -0.6000 0.4200 -1.0000 0.0000 0.0000
-0.7700 -0.6000 0.7400 -1.0000 0.0000 0.0000
-0.7700 -0.3000 0.7400 -1.0000 0.0000 0.0000
-0.7700 -0.3000 0.4200 -1.0000 0.0000 0.0000
-0.7700 -0.3000 0.7400 0.0000 1.0000 0.0000
-0.4700 -0.3000 0.7400 0.0000 1.0000 0.0000
-0.4700 -0.3000 0.4200 0.0000 1.0000 0.0000
-0.7700 -0.3000 0.4200 0.0000 1.0000 0.0000
-0.7700 -0.6000 0.4200 0.0000 -1.0000 0.0000
-0.4700 -0.6000 0.4200 0.0000 -1.0000 0.0000
-0.4700 -0.6000 0.7400 0.0000 -1.0000 0.0000
-0.7700 -0.6000 0.7400 0.0000 -1.0000 0.0000
-0.6800 -0.3000 0.6100 0.0000 0.0000 1.0000
-0.5600 -0.3000 0.6100 0.0000 0.0000 1.0000
-0.5600 -0.2600 0.6100 0.0000 0.0000 1.0000
-0.6800 -0.2600 0.6100 0.0000 0.0000 1.0000
-0.5600 -0.3000 0.5500 0.0000 0.0000 -1.0000
-0.6800 -0.3000 0.5500 0.0000 0.0000 -1.0000
-0.6800 -0.2600 0.5500 0.0000 0.0000 -1.0000
-0.5600 -0.2600 0.5500 0.0000 0.0000 -1.0000
-0.5600 -0.3000 0.6100 1.0000 0.0000 0.0000
-0.5600 -0.3000 0.5500 1.0000 0.0000 0.0000
-0.5600 -0.2600 0.5500 1.0000 0.0000 0.0000
-0.5600 -0.2600 0.6100 1.0000 0.0000 0.0000
-0.6800 -0.3000 0.5500 -1.0000 0.0000 0.0000
-0.6800 -0.3000 0.6100 -1.0000 0.0000 0.0000
-0.6800 -0.2600 0.6100 -1.0000 0.0000 0.0000
-0.6800 -0.2600 0.5500 -1.0000 0.0000 0.0000
-0.6800 -0.2600 0.6100 0.0000 1.0000 0.0000
-0.5600 -0.2600 0.6100 0.0000 1.0000 0.0000
-0.5600 -0.2600 0.5500 0.0000 1.0000 0.0000
-0.6800 -0.2600 0.5500 0.0000 1.0000 0.0000
-0.6800 -0.3000 0.5500 0.0000 -1.0000 0.0000
-0.5600 -0.3000 0.5500 0.0000 -1.0000 0.0000
-0.5600 -0.3000 0.6100 0.0000 -1.0000 0.0000
-0.6800 -0.3000 0.6100 0.0000 -1.0000 0.0000
0 1 2
0 2 1
0 2 3
0 3 2
4 5 6
4 6 5
4 6 7
4 7 6
8 9 10
8 10 9
8 10 11
8 11 10
12 13 14
12 14 13
12 14 15
12 15 14
16 17 18
16 18 17
16 18 19
16 19 18
20 21 22
20 22 21
20 22 23
20 23 22
24 25 26
24 26 25
24 26 27
24 27 26
28 29 30
28 30 29
28 30 31
28 31 30
32 33 34
32 34 33
32 34 35
32 35 34
36 37 38
36 38 37
36 38 39
36 39 38
40 41 42
40 42 41
40 42 43
40 43 42
44 45 46
44 46 45
44 46 47
44 47 46
LABEL Cell1
MATERIAL 3
TEXTURE 0
GEOM 48 48
-0.4500 -0.6000 0.7400 0.0000 0.0000 1.0000
-0.1500 -0.6000 0.7400 0.0000 0.0000 1.0000
-0.1500 -0.3000 0.7400 0.0000 0.0000 1.0000
-0.4500 -0.3000 0.7400 0.0000 0.0000 1.0000
-0.1500 -0.6000 0.4200 0.0000 0.0000 -1.0000
-0.4500 -0.6000 0.4200 0.0000 0.0000 -1.0000
-0.4500 -0.3000 0.4200 0.0000 0.0000 -1.0000
-0.1500 -0.3000 0.4200 0.0000 0.0000 -1.0000
-0.1500 -0.6000 0.7400 1.0000 0.0000 0.0000
-0.1500 -0.6000 0.4200 1.0000 0.0000 0.0000
-0.1500 -0.3000 0.4200 1.0000 0.0000 0.0000
-0.1500 -0.3000 0.7400 1.0000 0.0000 0.0000
-0.4500 -0.6000 0.4200 -1.0000 0.0000 0.0000
-0.4500 -0.6000 0.7400 -1.0000 0.0000 0.0000
-0.4500 -0.3000 0.7400 -1.0000 0.0000 0.0000
-0.4500 -0.3000 0.4200 -1.0000 0.0000 0.0000
-0.4500 -0.3000 0.7400 0.0000 1.0000 0.0000
-0.1500 -0.3000 0.7400 0.0000 1.0000 0.0000
-0.1500 -0.3000 0.4200 0.0000 1.0000 0.0000
-0.4500 -0.3000 0.4200 0.0000 1.0000 0.0000
-0.4500 -0.6000 0.4200 0.0000 -1.0000 0.0000
-0.1500 -0.6000 0.4200 0.0000 -1.0000 0.0000
-0.1500 -0.6000 0.7400 0.0000 -1.0000 0.0000
-0.4500 -0.6000 0.7400 0.0000 -1.0000 0.0000
-0.3600 -0.3000 0.6100 0.0000 0.0000 1.0000
-0.2400 -0.3000 0.6100 0.0000 0.0000 1.0000
-0.2400 -0.2600 0.6100 0.0000 0.0000 1.0000
-0.3600 -0.2600 0.6100 0.0000 0.0000 1.0000
-0.2400 -0.3000 0.5500 0.0000 0.0000 -1.0000
-0.3600 -0.3000 0.5500 0.0000 0.0000 -1.0000
-0.3600 -0.2600 0.5500 0.0000 0.0000 -1.0000
-0.2400 -0.2600 0.5500 0.0000 0.0000 -1.0000
-0.2400 -0.3000 0.6100 1.0000 0.0000 0.0000
-0.2400 -0.3000 0.5500 1.0000 0.0000 0.0000
-0.2400 -0.2600 0.5500 1.0000 0.0000 0.0000
-0.2400 -0.2600 0.6100 1.0000 0.0000 0.0000
-0.3600 -0.3000 0.5500 -1.0000 0.0000 0.0000
-0.3600 -0.3000 0.6100 -1.0000 0.0000 0.0000
-0.3600 -0.2600 0.6100 -1.0000 0.0000 0.0000
-0.3600 -0.2600 0.5500 -1.0000 0.0000 0.0000
-0.3600 -0.2600 0.6100 0.0000 1.0000 0.0000
-0.2400 -0.2600 0.6100 0.0000 1.0000 0.0000
-0.2400 -0.2600 0.5500 0.0000 1.0000 0.0000
-0.3600 -0.2600 0.5500 0.0000 1.0000 0.0000
-0.3600 -0.3000 0.5500 0.0000 -1.0000 0.0000
-0.2400 -0.3000 0.5500 0.0000 -1.0000 0.0000
-0.2400 -0.3000 0.6100 0.0000 -1.0000 0.0000
-0.3600 -0.3000 0.6100 0.0000 -1.0000 0.0000
0 1 2
0 2 1
0 2 3
0 3 2
4 5 6
4 6 5
4 6 7
4 7 6
8 9 10
8 10 9
8 10 11
8 11 10
12 13 14
12 14 13
12 14 15
12 15 14
16 17 18
16 18 17
16 18 19
16 19 18
20 21 22
20 22 21
20 22 23
20 23 22
24 25 26
24 26 25
24 26 27
24 27 26
28 29 30
28 30 29
28 30 31
28 31 30
32 33 34
32 34 33
32 34 35
32 35 34
36 37 38
36 38 37
36 38 39
36 39 38
40 41 42
40 42 41
40 42 43
40 43 42
44 45 46
44 46 45
44 46 47
44 47 46
LABEL Cell2
MATERIAL 3
TEXTURE 0
GEOM 48 48
-0.1300 -0.6000 0.7400 0.0000 0.0000 1.0000
0.1700 -0.6000 0.7400 0.0000 0.0000 1.0000
0.1700 -0.3000 0.7400 0.0000 0.0000 1.0000
-0.1300 -0.3000 0.7400 0.0000 0.0000 1.0000
0.1700 -0.6000 0.4200 0.0000 0.0000 -1.0000
-0.1300 -0.6000 0.4200 0.0000 0.0000 -1.0000
-0.1300 -0.3000 0.4200 0.0000 0.0000 -1.0000
0.1700 -0.3000 0.4200 0.0000 0.0000 -1.0000
0.1700 -0.6000 0.7400 1.0000 0.0000 0.0000
0.1700 -0.6000 0.4200 1.0000 0.0000 0.0000
0.1700 -0.3000 0.4200 1.0000 0.0000 0.0000
0.1700 -0.3000 0.7400 1.0000 0.0000 0.0000
-0.1300 -0.6000 0.4200 -1.0000 0.0000 0.0000
-0.1300 -0.6000 0.7400 -1.0000 0.0000 0.0000
-0.1300 -0.3000 0.7400 -1.0000 0.0000 0.0000
-0.1300 -0.3000 0.4200 -1.0000 0.0000 0.0000
-0.1300 -0.3000 0.7400 0.0000 1.0000 0.0000
0.1700 -0.3000 0.7400 0.0000 1.0000 0.0000
0.1700 -0.3000 0.4200 0.0000 1.0000 0.0000
-0.1300 -0.3000 0.4200 0.0000 1.0000 0.0000
-0.1300 -0.6000 0.4200 0.0000 -1.0000 0.0000
0.1700 -0.6000 0.4200 0.0000 -1.0000 0.0000
0.1700 -0.6000 0.7400 0.0000 -1.0000 0.0000
-0.1300 -0.6000 0.7400 0.0000 -1.0000 0.0000
-0.0400 -0.3000 0.6100 0.0000 0.0000 1.0000
0.0800 -0.3000 0.6100 0.0000 0.0000 1.0000
0.0800 -0.2600 0.6100 0.0000 0.0000 1.0000
-0.0400 -0.2600 0.6100 0.0000 0.0000 1.0000
0.0800 -0.3000 0.5500 0.0000 0.0000 -1.0000
-0.0400 -0.3000 0.5500 0.0000 0.0000 -1.0000
-0.0400 -0.2600 0.5500 0.0000 0.0000 -1.0000
0.0800 -0.2600 0.5500 0.0000 0.0000 -1.0000
0.0800 -0.3000 0.6100 1.0000 0.0000 0.0000
0.0800 -0.3000 0.5500 1.0000 0.0000 0.0000
0.0800 -0.2600 0.5500 1.0000 0.0000 0.0000
0.0800 -0.2600 0.6100 1.0000 0.0000 0.0000
-0.0400 -0.3000 0.5500 -1.0000 0.0000 0.0000
-0.0400 -0.3000 0.6100 -1.0000 0.0000 0.0000
-0.0400 -0.2600 0.6100 -1.0000 0.0000 0.0000
-0.0400 -0.2600 0.5500 -1.0000 0.0000 0.0000
-0.0400 -0.2600 0.6100 0.0000 1.0000 0.0000
0.0800 -0.2600 0.6100 0.0000 1.0000 0.0000
0.0800 -0.2600 0.5500 0.0000 1.0000 0.0000
-0.0400 -0.2600 0.5500 0.0000 1.0000 0.0000
-0.0400 -0.3000 0.5500 0.0000 -1.0000 0.0000
0.0800 -0.3000 0.5500 0.0000 -1.0000 0.0000
0.0800 -0.3000 0.6100 0.0000 -1.0000 0.0000
-0.0400 -0.3000 0.6100 0.0000 -1.0000 0.0000
0 1 2
0 2 1
0 2 3
0 3 2
4 5 6
4 6 5
4 6 7
4 7 6
8 9 10
8 10 9
8 10 11
8 11 10
12 13 14
12 14 13
12 14 15
12 15 14
16 17 18
16 18 17
16 18 19
16 19 18
20 21 22
20 22 21
20 22 23
20 23 22
24 25 26
24 26 25
24 26 27
24 27 26
28 29 30
28 30 29
28 30 31
28 31 30
32 33 34
32 34 33
32 34 35
32 35 34
36 37 38
36 38 37
36 38 39
36 39 38
40 41 42
40 42 41
40 42 43
40 43 42
44 45 46
44 46 45
44 46 47
44 47 46
LABEL Cell3
MATERIAL 3
TEXTURE 0
GEOM 48 48
-0.7700 -0.1000 0.7400 0.0000 0.0000 1.0000
-0.4700 -0.1000 0.7400 0.0000 0.0000 1.0000
-0.4700 0.2000 0.7400 0.0000 0.0000 1.0000
-0.7700 0.2000 0.7400 0.0000 0.0000 1.0000
-0.4700 -0.1000 0.4200 0.0000 0.0000 -1.0000
-0.7700 -0.1000 0.4200 0.0000 0.0000 -1.0000
-0.7700 0.2000 0.4200 0.0000 0.0000 -1.0000
-0.4700 0.2000 0.4200 0.0000 0.0000 -1.0000
-0.4700 -0.1000 0.7400 1.0000 0.0000 0.0000
-0.4700 -0.1000 0.4200 1.0000 0.0000 0.0000
-0.4700 0.2000 0.4200 1.0000 0.0000 0.0000
-0.4700 0.2000 0.7400 1.0000 0.0000 0.0000
-0.7700 -0.1000 0.4200 -1.0000 0.0000 0.0000
-0.7700 -0.1000 0.7400 -1.0000 0.0000 0.0000
-0.7700 0.2000 0.7400 -1.0000 0.0000 0.0000
-0.7700 0.2000 0.4200 -1.0000 0.0000 0.0000
-0.7700 0.2000 0.7400 0.0000 1.0000 0.0000
-0.4700 0.2000 0.7400 0.0000 1.0000 0.0000
-0.4700 0.2000 0.4200 0.0000 1.0000 0.0000
-0.7700 0.2000 0.4200 0.0000 1.0000 0.0000
-0.7700 -0.1000 0.4200 0.0000 -1.0000 0.0000
-0.4700 -0.1000 0.4200 0.0000 -1.0000 0.0000
-0.4700 -0.1000 0.7400 0.0000 -1.0000 0.0000
-0.7700 -0.1000 0.7400 0.0000 -1.0000 0.0000
-0.6800 0.2000 0.6100 0.0000 0.0000 1.0000
-0.5600 0.2000 0.6100 0.0000 0.0000 1.0000
-0.5600 0.2400 0.6100 0.0000 0.0000 1.0000
-0.6800 0.2400 0.6100 0.0000 0.0000 1.0000
-0.5600 0.2000 0.5500 0.0000 0.0000 -1.0000
-0.6800 0.2000 0.5500 0.0000 0.0000 -1.0000
-0.6800 0.2400 0.5500 0.0000 0.0000 -1.0000
-0.5600 0.2400 0.5500 0.0000 0.0000 -1.0000
-0.5600 0.2000 0.6100 1.0000 0.0000 0.0000
-0.5600 0.2000 0.5500 1.0000 0.0000 0.0000
-0.5600 0.2400 0.5500 1.0000 0.0000 0.0000
-0.5600 0.2400 0.6100 1.0000 0.0000 0.0000
-0.6800 0.2000 0.5500 -1.0000 0.0000 0.0000
-0.6800 0.2000 0.6100 -1.0000 0.0000 0.0000
-0.6800 0.2400 0.6100 -1.0000 0.0000 0.0000
-0.6800 0.2400 0.5500 -1.0000 0.0000 0.0000
-0.6800 0.2400 0.6100 0.0000 1.0000 0.0000
-0.5600 0.2400 0.6100 0.0000 1.0000 0.0000
-0.5600 0.2400 0.5500 0.0000 1.0000 0.0000
-0.6800 0.2400 0.5500 0.0000 1.0000 0.0000
-0.6800 0.2000 0.5500 0.0000 -1.0000 0.0000
-0.5600 0.2000 0.5500 0.0000 -1.0000 0.0000
-0.5600 0.2000 0.6100 0.0000 -1.0000 0.0000
-0.6800 0.2000 0.6100 0.0000 -1.0000 0.0000
0 1 2
0 2 1
0 2 3
0 3 2
4 5 6
4 6 5
4 6 7
4 7 6
8 9 10
8 10 9
8 10 11
8 11 10
12 13 14
12 14 13
12 14 15
12 15 14
16 17 18
16 18 17
16 18 19
16 19 18
20 21 22
20 22 21
20 22 23
20 23 22
24 25 26
24 26 25
24 26 27
24 27 26
28 29 30
28 30 29
28 30 31
28 31 30
32 33 34
32 34 33
32 34 35
32 35 34
36 37 38
36 38 37
36 38 39
36 39 38
40 41 42
40 42 41
40 42 43
40 43 42
44 45 46
44 46 45
44 46 47
44 47 46
LABEL Cell4
MATERIAL 3
TEXTURE 0
GEOM 48 48
-0.4500 -0.1000 0.7400 0.0000 0.0000 1.0000
-0.1500 -0.1000 0.7400 0.0000 0.0000 1.0000
-0.1500 0.2000 0.7400 0.0000 0.0000 1.0000
-0.4500 0.2000 0.7400 0.0000 0.0000 1.0000
-0.1500 -0.1000 0.4200 0.0000 0.0000 -1.0000
-0.4500 -0.1000 0.4200 0.0000 0.0000 -1.0000
-0.4500 0.2000 0.4200 0.0000 0.0000 -1.0000
-0.1500 0.2000 0.4200 0.0000 0.0000 -1.0000
-0.1500 -0.1000 0.7400 1.0000 0.0000 0.0000
-0.1500 -0.1000 0.4200 1.0000 0.0000 0.0000
-0.1500 0.2000 0.4200 1.0000 0.0000 0.0000
-0.1500 0.2000 0.7400 1.0000 0.0000 0.0000
-0.4500 -0.1000 0.4200 -1.0000 0.0000 0.0000
-0.4500 -0.1000 0.7400 -1.0000 0.0000 0.0000
-0.4500 0.2000 0.7400 -1.0000 0.0000 0.0000
-0.4500 0.2000 0.4200 -1.0000 0.0000 0.0000
-0.4500 0.2000 0.7400 0.0000 1.0000 0.0000
-0.1500 0.2000 0.7400 0.0000 1.0000 0.0000
-0.1500 0.2000 0.4200 0.0000 1.0000 0.0000
-0.4500 0.2000 0.4200 0.0000 1.0000 0.0000
-0.4500 -0.1000 0.4200 0.0000 -1.0000 0.0000
-0.1500 -0.1000 0.4200 0.0000 -1.0000 0.0000
-0.1500 -0.1000 0.7400 0.0000 -1.0000 0.0000
-0.4500 -0.1000 0.7400 0.0000 -1.0000 0.0000
-0.3600 0.2000 0.6100 0.0000 0.0000 1.0000
-0.2400 0.2000 0.6100 0.0000 0.0000 1.0000
-0.2400 0.2400 0.6100 0.0000 0.0000 1.0000
-0.3600 0.2400 0.6100 0.0000 0.0000 1.0000
-0.2400 0.2000 0.5500 0.0000 0.0000 -1.0000
-0.3600 0.2000 0.5500 0.0000 0.0000 -1.0000
-0.3600 0.2400 0.5500 0.0000 0.0000 -1.0000
-0.2400 0.2400 0.5500 0.0000 0.0000 -1.0000
-0.2400 0.2000 0.6100 1.0000 0.0000 0.0000
-0.2400 0.2000 0.5500 1.0000 0.0000 0.0000
-0.2400 0.2400 0.5500 1.0000 0.0000 0.0000
-0.2400 0.2400 0.6100 1.0000 0.0000 0.0000
-0.3600 0.2000 0.5500 -1.0000 0.0000 0.0000
-0.3600 0.2000 0.6100 -1.0000 0.0000 0.0000
-0.3600 0.2400 0.6100 -1.0000 0.0000 0.0000
-0.3600 0.2400 0.5500 -1.0000 0.0000 0.0000
-0.3600 0.2400 0.6100 0.0000 1.0000 0.0000
-0.2400 0.2400 0.6100 0.0000 1.0000 0.0000
-0.2400 0.2400 0.5500 0.0000 1.0000 0.0000
-0.3600 0.2400 0.5500 0.0000 1.0000 0.0000
-0.3600 0.2000 0.5500 0.0000 -1.0000 0.0000
-0.2400 0.2000 0.5500 0.0000 -1.0000 0.0000
-0.2400 0.2000 0.6100 0.0000 -1.0000 0.0000
-0.3600 0.2000 0.6100 0.0000 -1.0000 0.0000
0 1 2
0 2 1
0 2 3
0 3 2
4 5 6
4 6 5
4 6 7
4 7 6
8 9 10
8 10 9
8 10 11
8 11 10
12 13 14
12 14 13
12 14 15
12 15 14
16 17 18
16 18 17
16 18 19
16 19 18
20 21 22
20 22 21
20 22 23
20 23 22
24 25 26
24 26 25
24 26 27
24 27 26
28 29 30
28 30 29
28 30 31
28 31 30
32 33 34
32 34 33
32 34 35
32 35 34
36 37 38
36 38 37
36 38 39
36 39 38
40 41 42
40 42 41
40 42 43
40 43 42
44 45 46
44 46 45
44 46 47
44 47 46
LABEL Cell5
MATERIAL 3
TEXTURE 0
GEOM 48 48
-0.1300 -0.1000 0.7400 0.0000 0.0000 1.0000
0.1700 -0.1000 0.7400 0.0000 0.0000 1.0000
0.1700 0.2000 0.7400 0.0000 0.0000 1.0000
-0.1300 0.2000 0.7400 0.0000 0.0000 1.0000
0.1700 -0.1000 0.4200 0.0000 0.0000 -1.0000
-0.1300 -0.1000 0.4200 0.0000 0.0000 -1.0000
-0.1300 0.2000 0.4200 0.0000 0.0000 -1.0000
0.1700 0.2000 0.4200 0.0000 0.0000 -1.0000
0.1700 -0.1000 0.7400 1.0000 0.0000 0.0000
0.1700 -0.1000 0.4200 1.0000 0.0000 0.0000
0.1700 0.2000 0.4200 1.0000 0.0000 0.0000
0.1700 0.2000 0.7400 1.0000 0.0000 0.0000
-0.1300 -0.1000 0.4200 -1.0000 0.0000 0.0000
-0.1300 -0.1000 0.7400 -1.0000 0.0000 0.0000
-0.1300 0.2000 0.7400 -1.0000 0.0000 0.0000
-0.1300 0.2000 0.4200 -1.0000 0.0000 0.0000
-0.1300 0.2000 0.7400 0.0000 1.0000 0.0000
0.1700 0.2000 0.7400 0.0000 1.0000 0.0000
0.1700 0.2000 0.4200 0.0000 1.0000 0.0000
-0.1300 0.2000 0.4200 0.0000 1.0000 0.0000
-0.1300 -0.1000 0.4200 0.0000 -1.0000 0.0000
0.1700 -0.1000 0.4200 0.0000 -1.0000 0.0000
0.1700 -0.1000 0.7400 0.0000 -1.0000 0.0000
-0.1300 -0.1000 0.7400 0.0000 -1.0000 0.0000
-0.0400 0.2000 0.6100 0.0000 0.0000 1.0000
0.0800 0.2000 0.6100 0.0000 0.0000 1.0000
0.0800 0.2400 0.6100 0.0000 0.0000 1.0000
-0.0400 0.2400 0.6100 0.0000 0.0000 1.0000
0.0800 0.2000 0.5500 0.0000 0.0000 -1.0000
-0.0400 0.2000 0.5500 0.0000 0.0000 -1.0000
-0.0400 0.2400 0.5500 0.0000 0.0000 -1.0000
0.0800 0.2400 0.5500 0.0000 0.0000 -1.0000
0.0800 0.2000 0.6100 1.0000 0.0000 0.0000
0.0800 0.2000 0.5500 1.0000 0.0000 0.0000
0.0800 0.2400 0.5500 1.0000 0.0000 0.0000
0.0800 0.2400 0.6100 1.0000 0.0000 0.0000
-0.0400 0.2000 0.5500 -1.0000 0.0000 0.0000
-0.0400 0.2000 0.6100 -1.0000 0.0000 0.0000
-0.0400 0.2400 0.6100 -1.0000 0.0000 0.0000
-0.0400 0.2400 0.5500 -1.0000 0.0000 0.0000
-0.0400 0.2400 0.6100 0.0000 1.0000 0.0000
0.0800 0.2400 0.6100 0.0000 1.0000 0.0000
0.0800 0.2400 0.5500 0.0000 1.0000 0.0000
-0.0400 0.2400 0.5500 0.0000 1.0000 0.0000
-0.0400 0.2000 0.5500 0.0000 -1.0000 0.0000
0.0800 0.2000 0.5500 0.0000 -1.0000 0.0000
0.0800 0.2000 0.6100 0.0000 -1.0000 0.0000
-0.0400 0.2000 0.6100 0.0000 -1.0000 0.0000
0 1 2
0 2 1
0 2 3
0 3 2
4 5 6
4 6 5
4 6 7
4 7 6
8 9 10
8 10 9
8 10 11
8 11 10
12 13 14
12 14 13
12 14 15
12 15 14
16 17 18
16 18 17
16 18 19
16 19 18
20 21 22
20 22 21
20 22 23
20 23 22
24 25 26
24 26 25
24 26 27
24 27 26
28 29 30
28 30 29
28 30 31
28 31 30
32 33 34
32 34 33
32 34 35
32 35 34
36 37 38
36 38 37
36 38 39
36 39 38
40 41 42
40 42 41
40 42 43
40 43 42
44 45 46
44 46 45
44 46 47
44 47 46
LABEL Reel
MATERIAL 7
TEXTURE 0
GEOM 240 192
0.7000 0.3700 0.5500 0.0000 0.9914 0.1305
0.7000 0.3591 0.6328 0.0000 0.9914 0.1305
0.2000 0.3591 0.6328 0.0000 0.9914 0.1305
0.2000 0.3700 0.5500 0.0000 0.9914 0.1305
0.2000 0.0500 0.5500 -1.0000 0.0000 0.0000
0.2000 0.3591 0.6328 -1.0000 0.0000 0.0000
0.2000 0.3700 0.5500 -1.0000 0.0000 0.0000
0.7000 0.0500 0.5500 1.0000 0.0000 0.0000
0.7000 0.3700 0.5500 1.0000 0.0000 0.0000
0.7000 0.3591 0.6328 1.0000 0.0000 0.0000
0.7000 0.3591 0.6328 0.0000 0.9239 0.3827
0.7000 0.3271 0.7100 0.0000 0.9239 0.3827
0.2000 0.3271 0.7100 0.0000 0.9239 0.3827
0.2000 0.3591 0.6328 0.0000 0.9239 0.3827
0.2000 0.0500 0.5500 -1.0000 0.0000 0.0000
0.2000 0.3271 0.7100 -1.0000 0.0000 0.0000
0.2000 0.3591 0.6328 -1.0000 0.0000 0.0000
0.7000 0.0500 0.5500 1.0000 0.0000 0.0000
0.7000 0.3591 0.6328 1.0000 0.0000 0.0000
0.7000 0.3271 0.7100 1.0000 0.0000 0.0000
0.7000 0.3271 0.7100 0.0000 0.7934 0.6088
0.7000 0.2763 0.7763 0.0000 0.7934 0.6088
0.2000 0.2763 0.7763 0.0000 0.7934 0.6088
0.2000 0.3271 0.7100 0.0000 0.7934 0.6088
0.2000 0.0500 0.5500 -1.0000 0.0000 0.0000
0.2000 0.2763 0.7763 -1.0000 0.0000 0.0000
0.2000 0.3271 0.7100 -1.0000 0.0000 0.0000
0.7000 0.0500 0.5500 1.0000 0.0000 0.0000
0.7000 0.3271 0.7100 1.0000 0.0000 0.0000
0.7000 0.2763 0.7763 1.0000 0.0000 0.0000
0.7000 0.2763 0.7763 0.0000 0.6088 0.7934
0.7000 0.2100 0.8271 0.0000 0.6088 0.7934
0.2000 0.2100 0.8271 0.0000 0.6088 0.7934
0.2000 0.2763 0.7763 0.0000 0.6088 0.7934
0.2000 0.0500 0.5500 -1.0000 0.0000 0.0000
0.2000 0.2100 0.8271 -1.0000 0.0000 0.0000
0.2000 0.2763 0.7763 -1.0000 0.0000 0.0000
0.7000 0.0500 0.5500 1.0000 0.0000 0.0000
0.7000 0.2763 0.7763 1.0000 0.0000 0.0000
0.7000 0.2100 0.8271 1.0000 0.0000 0.0000
0.7000 0.2100 0.8271 0.0000 0.3827 0.9239
0.7000 0.1328 0.8591 0.0000 0.3827 0.9239
0.2000 0.1328 0.8591 0.0000 0.3827 0.9239
0.2000 0.2100 0.8271 0.0000 0.3827 0.9239
0.2000 0.0500 0.5500 -1.0000 0.0000 0.0000
0.2000 0.1328 0.8591 -1.0000 0.0000 0.0000
0.2000 0.2100 0.8271 -1.0000 0.0000 0.0000
0.7000 0.0500 0.5500 1.0000 0.0000 0.0000
0.7000 0.2100 0.8271 1.0000 0.0000 0.0000
0.7000 0.1328 0.8591 1.0000 0.0000 0.0000
0.7000 0.1328 0.8591 0.0000 0.1305 0.9914
0.7000 0.0500 0.8700 0.0000 0.1305 0.9914
0.2000 0.0500 0.8700 0.0000 0.1305 0.9914
0.2000 0.1328 0.8591 0.0000 0.1305 0.9914
0.2000 0.0500 0.5500 -1.0000 0.0000 0.0000
0.2000 0.0500 0.8700 -1.0000 0.0000 0.0000
0.2000 0.1328 0.8591 -1.0000 0.0000 0.0000
0.7000 0.0500 0.5500 1.0000 0.0000 0.0000
0.7000 0.1328 0.8591 1.0000 0.0000 0.0000
0.7000 0.0500 0.8700 1.0000 0.0000 0.0000
0.7000 0.0500 0.8700 0.0000 -0.1305 0.9914
0.7000 -0.0328 0.8591 0.0000 -0.1305 0.9914
0.2000 -0.0328 0.8591 0.0000 -0.1305 0.9914
0.2000 0.0500 0.8700 0.0000 -0.1305 0.9914
0.2000 0.0500 0.5500 -1.0000 0.0000 0.0000
0.2000 -0.0328 0.8591 -1.0000 0.0000 0.0000
0.2000 0.0500 0.8700 -1.0000 0.0000 0.0000
0.7000 0.0500 0.5500 1.0000 0.0000 0.0000
0.7000 0.0500 0.8700 1.0000 0.0000 0.0000
0.7000 -0.0328 0.8591 1.0000 0.0000 0.0000
0.7000 -0.0328 0.8591 0.0000 -0.3827 0.9239
0.7000 -0.1100 0.8271 0.0000 -0.3827 0.9239
0.2000 -0.1100 0.8271 0.0000 -0.3827 0.9239
0.2000 -0.0328 0.8591 0.0000 -0.3827 0.9239
0.2000 0.0500 0.5500 -1.0000 0.0000 0.0000
0.2000 -0.1100 0.8271 -1.0000 0.0000 0.0000
0.2000 -0.0328 0.8591 -1.0000 0.0000 0.0000
0.7000 0.0500 0.5500 1.0000 0.0000 0.0000
0.7000 -0.0328 0.8591 1.0000 0.0000 0.0000
0.7000 -0.1100 0.8271 1.0000 0.0000 0.0000
0.7000 -0.1100 0.8271 0.0000 -0.6088 0.7934
0.7000 -0.1763 0.7763 0.0000 -0.6088 0.7934
0.2000 -0.1763 0.7763 0.0000 -0.6088 0.7934
0.2000 -0.1100 0.8271 0.0000 -0.6088 0.7934
0.2000 0.0500 0.5500 -1.0000 0.0000 0.0000
0.2000 -0.1763 0.7763 -1.0000 0.0000 0.0000
0.2000 -0.1100 0.8271 -1.0000 0.0000 0.0000
0.7000 0.0500 0.5500 1.0000 0.0000 0.0000
0.7000 -0.1100 0.8271 1.0000 0.0000 0.0000
0.7000 -0.1763 0.7763 1.0000 0.0000 0.0000
0.7000 -0.1763 0.7763 0.0000 -0.7934 0.6088
0.7000 -0.2271 0.7100 0.0000 -0.7934 0.6088
0.2000 -0.2271 0.7100 0.0000 -0.7934 0.6088
0.2000 -0.1763 0.7763 0.0000 -0.7934 0.6088
0.2000 0.0500 0.5500 -1.0000 0.0000 0.0000
0.2000 -0.2271 0.7100 -1.0000 0.0000 0.0000
0.2000 -0.1763 0.7763 -1.0000 0.0000 0.0000
0.7000 0.0500 0.5500 1.0000 0.0000 0.0000
0.7000 -0.1763 0.7763 1.0000 0.0000 0.0000
0.7000 -0.2271 0.7100 1.0000 0.0000 0.0000
0.7000 -0.2271 0.7100 0.0000 -0.9239 0.3827
0.7000 -0.2591 0.6328 0.0000 -0.9239 0.3827
0.2000 -0.2591 0.6328 0.0000 -0.9239 0.3827
0.2000 -0.2271 0.7100 0.0000 -0.9239 0.3827
0.2000 0.0500 0.5500 -1.0000 0.0000 0.0000
0.2000 -0.2591 0.6328 -1.0000 0.0000 0.0000
0.2000 -0.2271 0.7100 -1.0000 0.0000 0.0000
0.7000 0.0500 0.5500 1.0000 0.0000 0.0000
0.7000 -0.2271 0.7100 1.0000 0.0000 0.0000
0.7000 -0.2591 0.6328 1.0000 0.0000 0.0000
0.7000 -0.2591 0.6328 0.0000 -0.9914 0.1305
0.7000 -0.2700 0.5500 0.0000 -0.9914 0.1305
0.2000 -0.2700 0.5500 0.0000 -0.9914 0.1305
0.2000 -0.2591 0.6328 0.0000 -0.9914 0.1305
0.2000 0.0500 0.5500 -1.0000 0.0000 0.0000
0.2000 -0.2700 0.5500 -1.0000 0.0000 0.0000
0.2000 -0.2591 0.6328 -1.0000 0.0000 0.0000
0.7000 0.0500 0.5500 1.0000 0.0000 0.0000
0.7000 -0.2591 0.6328 1.0000 0.0000 0.0000
0.7000 -0.2700 0.5500 1.0000 0.0000 0.0000
0.7000 -0.2700 0.5500 0.0000 -0.9914 -0.1305
0.7000 -0.2591 0.4672 0.0000 -0.9914 -0.1305
0.2000 -0.2591 0.4672 0.0000 -0.9914 -0.1305
0.2000 -0.2700 0.5500 0.0000 -0.9914 -0.1305
0.2000 0.0500 0.5500 -1.0000 0.0000 0.0000
0.2000 -0.2591 0.4672 -1.0000 0.0000 0.0000
0.2000 -0.2700 0.5500 -1.0000 0.0000 0.0000
0.7000 0.0500 0.5500 1.0000 0.0000 0.0000
0.7000 -0.2700 0.5500 1.0000 0.0000 0.0000
0.7000 -0.2591 0.4672 1.0000 0.0000 0.0000
0.7000 -0.2591 0.4672 0.0000 -0.9239 -0.3827
0.7000 -0.2271 0.3900 0.0000 -0.9239 -0.3827
0.2000 -0.2271 0.3900 0.0000 -0.9239 -0.3827
0.2000 -0.2591 0.4672 0.0000 -0.9239 -0.3827
0.2000 0.0500 0.5500 -1.0000 0.0000 0.0000
0.2000 -0.2271 0.3900 -1.0000 0.0000 0.0000
0.2000 -0.2591 0.4672 -1.0000 0.0000 0.0000
0.7000 0.0500 0.5500 1.0000 0.0000 0.0000
0.7000 -0.2591 0.4672 1.0000 0.0000 0.0000
0.7000 -0.2271 0.3900 1.0000 0.0000 0.0000
0.7000 -0.2271 0.3900 0.0000 -0.7934 -0.6088
0.7000 -0.1763 0.3237 0.0000 -0.7934 -0.6088
0.2000 -0.1763 0.3237 0.0000 -0.7934 -0.6088
0.2000 -0.2271 0.3900 0.0000 -0.7934 -0.6088
0.2000 0.0500 0.5500 -1.0000 0.0000 0.0000
0.2000 -0.1763 0.3237 -1.0000 0.0000 0.0000
0.2000 -0.2271 0.3900 -1.0000 0.0000 0.0000
0.7000 0.0500 0.5500 1.0000 0.0000 0.0000
0.7000 -0.2271 0.3900 1.0000 0.0000 0.0000
0.7000 -0.1763 0.3237 1.0000 0.0000 0.0000
0.7000 -0.1763 0.3237 0.0000 -0.6088 -0.7934
0.7000 -0.1100 0.2729 0.0000 -0.6088 -0.7934
0.2000 -0.1100 0.2729 0.0000 -0.6088 -0.7934
0.2000 -0.1763 0.3237 0.0000 -0.6088 -0.7934
0.2000 0.0500 0.5500 -1.0000 0.0000 0.0000
0.2000 -0.1100 0.2729 -1.0000 0.0000 0.0000
0.2000 -0.1763 0.3237 -1.0000 0.0000 0.0000
0.7000 0.0500 0.5500 1.0000 0.0000 0.0000
0.7000 -0.1763 0.3237 1.0000 0.0000 0.0000
0.7000 -0.1100 0.2729 1.0000 0.0000 0.0000
0.7000 -0.1100 0.2729 0.0000 -0.3827 -0.9239
0.7000 -0.0328 0.2409 0.0000 -0.3827 -0.9239
0.2000 -0.0328 0.2409 0.0000 -0.3827 -0.9239
0.2000 -0.1100 0.2729 0.0000 -0.3827 -0.9239
0.2000 0.0500 0.5500 -1.0000 0.0000 0.0000
0.2000 -0.0328 0.2409 -1.0000 0.0000 0.0000
0.2000 -0.1100 0.2729 -1.0000 0.0000 0.0000
0.7000 0.0500 0.5500 1.0000 0.0000 0.0000
0.7000 -0.1100 0.2729 1.0000 0.0000 0.0000
0.7000 -0.0328 0.2409 1.0000 0.0000 0.0000
0.7000 -0.0328 0.2409 0.0000 -0.1305 -0.9914
0.7000 0.0500 0.2300 0.0000 -0.1305 -0.9914
0.2000 0.0500 0.2300 0.0000 -0.1305 -0.9914
0.2000 -0.0328 0.2409 0.0000 -0.1305 -0.9914
0.2000 0.0500 0.5500 -1.0000 0.0000 0.0000
0.2000 0.0500 0.2300 -1.0000 0.0000 0.0000
0.2000 -0.0328 0.2409 -1.0000 0.0000 0.0000
0.7000 0.0500 0.5500 1.0000 0.0000 0.0000
0.7000 -0.0328 0.2409 1.0000 0.0000 0.0000
0.7000 0.0500 0.2300 1.0000 0.0000 0.0000
0.7000 0.0500 0.2300 0.0000 0.1305 -0.9914
0.7000 0.1328 0.2409 0.0000 0.1305 -0.9914
0.2000 0.1328 0.2409 0.0000 0.1305 -0.9914
0.2000 0.0500 0.2300 0.0000 0.1305 -0.9914
0.2000 0.0500 0.5500 -1.0000 0.0000 0.0000
0.2000 0.1328 0.2409 -1.0000 0.0000 0.0000
0.2000 0.0500 0.2300 -1.0000 0.0000 0.0000
0.7000 0.0500 0.5500 1.0000 0.0000 0.0000
0.7000 0.0500 0.2300 1.0000 0.0000 0.0000
0.7000 0.1328 0.2409 1.0000 0.0000 0.0000
0.7000 0.1328 0.2409 0.0000 0.3827 -0.9239
0.7000 0.2100 0.2729 0.0000 0.3827 -0.9239
0.2000 0.2100 0.2729 0.0000 0.3827 -0.9239
0.2000 0.1328 0.2409 0.0000 0.3827 -0.9239
0.2000 0.0500 0.5500 -1.0000 0.0000 0.0000
0.2000 0.2100 0.2729 -1.0000 0.0000 0.0000
0.2000 0.1328 0.2409 -1.0000 0.0000 0.0000
0.7000 0.0500 0.5500 1.0000 0.0000 0.0000
0.7000 0.1328 0.2409 1.0000 0.0000 0.0000
0.7000 0.2100 0.2729 1.0000 0.0000 0.0000
0.7000 0.2100 0.2729 0.0000 0.6088 -0.7934
0.7000 0.2763 0.3237 0.0000 0.6088 -0.7934
0.2000 0.2763 0.3237 0.0000 0.6088 -0.7934
0.2000 0.2100 0.2729 0.0000 0.6088 -0.7934
0.2000 0.0500 0.5500 -1.0000 0.0000 0.0000
0.2000 0.2763 0.3237 -1.0000 0.0000 0.0000
0.2000 0.2100 0.2729 -1.0000 0.0000 0.0000
0.7000 0.0500 0.5500 1.0000 0.0000 0.0000
0.7000 0.2100 0.2729 1.0000 0.0000 0.0000
0.7000 0.2763 0.3237 1.0000 0.0000 0.0000
0.7000 0.2763 0.3237 0.0000 0.7934 -0.6088
0.7000 0.3271 0.3900 0.0000 0.7934 -0.6088
0.2000 0.3271 0.3900 0.0000 0.7934 -0.6088
0.2000 0.2763 0.3237 0.0000 0.7934 -0.6088
0.2000 0.0500 0.5500 -1.0000 0.0000 0.0000
0.2000 0.3271 0.3900 -1.0000 0.0000 0.0000
0.2000 0.2763 0.3237 -1.0000 0.0000 0.0000
0.7000 0.0500 0.5500 1.0000 0.0000 0.0000
0.7000 0.2763 0.3237 1.0000 0.0000 0.0000
0.7000 0.3271 0.3900 1.0000 0.0000 0.0000
0.7000 0.3271 0.3900 0.0000 0.9239 -0.3827
0.7000 0.3591 0.4672 0.0000 0.9239 -0.3827
0.2000 0.3591 0.4672 0.0000 0.9239 -0.3827
0.2000 0.3271 0.3900 0.0000 0.9239 -0.3827
0.2000 0.0500 0.5500 -1.0000 0.0000 0.0000
0.2000 0.3591 0.4672 -1.0000 0.0000 0.0000
0.2000 0.3271 0.3900 -1.0000 0.0000 0.0000
0.7000 0.0500 0.5500 1.0000 0.0000 0.0000
0.7000 0.3271 0.3900 1.0000 0.0000 0.0000
0.7000 0.3591 0.4672 1.0000 0.0000 0.0000
0.7000 0.3591 0.4672 0.0000 0.9914 -0.1305
0.7000 0.3700 0.5500 0.0000 0.9914 -0.1305
0.2000 0.3700 0.5500 0.0000 0.9914 -0.1305
0.2000 0.3591 0.4672 0.0000 0.9914 -0.1305
0.2000 0.0500 0.5500 -1.0000 0.0000 0.0000
0.2000 0.3700 0.5500 -1.0000 0.0000 0.0000
0.2000 0.3591 0.4672 -1.0000 0.0000 0.0000
0.7000 0.0500 0.5500 1.0000 0.0000 0.0000
0.7000 0.3591 0.4672 1.0000 0.0000 0.0000
0.7000 0.3700 0.5500 1.0000 0.0000 0.0000
0 1 2
0 2 1
0 2 3
0 3 2
4 5 6
4 6 5
7 8 9
7 9 8
10 11 12
10 12 11
10 12 13
10 13 12
14 15 16
14 16 15
17 18 19
17 19 18
20 21 22
20 22 21
20 22 23
20 23 22
24 25 26
24 26 25
27 28 29
27 29 28
30 31 32
30 32 31
30 32 33
30 33 32
34 35 36
34 36 35
37 38 39
37 39 38
40 41 42
40 42 41
40 42 43
40 43 42
44 45 46
44 46 45
47 48 49
47 49 48
50 51 52
50 52 51
50 52 53
50 53 52
54 55 56
54 56 55
57 58 59
57 59 58
60 61 62
60 62 61
60 62 63
60 63 62
64 65 66
64 66 65
67 68 69
67 69 68
70 71 72
70 72 71
70 72 73
70 73 72
74 75 76
74 76 75
77 78 79
77 79 78
80 81 82
80 82 81
80 82 83
80 83 82
84 85 86
84 86 85
87 88 89
87 89 88
90 91 92
90 92 91
90 92 93
90 93 92
94 95 96
94 96 95
97 98 99
97 99 98
100 101 102
100 102 101
100 102 103
100 103 102
104 105 106
104 106 105
107 108 109
107 109 108
110 111 112
110 112 111
110 112 113
110 113 112
114 115 116
114 116 115
117 118 119
117 119 118
120 121 122
120 122 121
120 122 123
120 123 122
124 125 126
124 126 125
127 128 129
127 129 128
130 131 132
130 132 131
130 132 133
130 133 132
134 135 136
134 136 135
137 138 139
137 139 138
140 141 142
140 142 141
140 142 143
140 143 142
144 145 146
144 146 145
147 148 149
147 149 148
150 151 152
150 152 151
150 152 153
150 153 152
154 155 156
154 156 155
157 158 159
157 159 158
160 161 162
160 162 161
160 162 163
160 163 162
164 165 166
164 166 165
167 168 169
167 169 168
170 171 172
170 172 171
170 172 173
170 173 172
174 175 176
174 176 175
177 178 179
177 179 178
180 181 182
180 182 181
180 182 183
180 183 182
184 185 186
184 186 185
187 188 189
187 189 188
190 191 192
190 192 191
190 192 193
190 193 192
194 195 196
194 196 195
197 198 199
197 199 198
200 201 202
200 202 201
200 202 203
200 203 202
204 205 206
204 206 205
207 208 209
207 209 208
210 211 212
210 212 211
210 212 213
210 213 212
214 215 216
214 216 215
217 218 219
217 219 218
220 221 222
220 222 221
220 222 223
220 223 222
224 225 226
224 226 225
227 228 229
227 229 228
230 231 232
230 232 231
230 232 233
230 233 232
234 235 236
234 236 235
237 238 239
237 239 238
LABEL CableWound
MATERIAL 4
TEXTURE 0
GEOM 240 192
0.6600 0.3100 0.5500 0.0000 0.9914 0.1305
0.6600 0.3011 0.6173 0.0000 0.9914 0.1305
0.2400 0.3011 0.6173 0.0000 0.9914 0.1305
0.2400 0.3100 0.5500 0.0000 0.9914 0.1305
0.2400 0.0500 0.5500 -1.0000 0.0000 0.0000
0.2400 0.3011 0.6173 -1.0000 0.0000 0.0000
0.2400 0.3100 0.5500 -1.0000 0.0000 0.0000
0.6600 0.0500 0.5500 1.0000 0.0000 0.0000
0.6600 0.3100 0.5500 1.0000 0.0000 0.0000
0.6600 0.3011 0.6173 1.0000 0.0000 0.0000
0.6600 0.3011 0.6173 0.0000 0.9239 0.3827
0.6600 0.2752 0.6800 0.0000 0.9239 0.3827
0.2400 0.2752 0.6800 0.0000 0.9239 0.3827
0.2400 0.3011 0.6173 0.0000 0.9239 0.3827
0.2400 0.0500 0.5500 -1.0000 0.0000 0.0000
0.2400 0.2752 0.6800 -1.0000 0.0000 0.0000
0.2400 0.3011 0.6173 -1.0000 0.0000 0.0000
0.6600 0.0500 0.5500 1.0000 0.0000 0.0000
0.6600 0.3011 0.6173 1.0000 0.0000 0.0000
0.6600 0.2752 0.6800 1.0000 0.0000 0.0000
0.6600 0.2752 0.6800 0.0000 0.7934 0.6088
0.6600 0.2338 0.7338 0.0000 0.7934 0.6088
0.2400 0.2338 0.7338 0.0000 0.7934 0.6088
0.2400 0.2752 0.6800 0.0000 0.7934 0.6088
0.2400 0.0500 0.5500 -1.0000 0.0000 0.0000
0.2400 0.2338 0.7338 -1.0000 0.0000 0.0000
0.2400 0.2752 0.6800 -1.0000 0.0000 0.0000
0.6600 0.0500 0.5500 1.0000 0.0000 0.0000
0.6600 0.2752 0.6800 1.0000 0.0000 0.0000
0.6600 0.2338 0.7338 1.0000 0.0000 0.0000
0.6600 0.2338 0.7338 0.0000 0.6088 0.7934
0.6600 0.1800 0.7752 0.0000 0.6088 0.7934
0.2400 0.1800 0.7752 0.0000 0.6088 0.7934
0.2400 0.2338 0.7338 0.0000 0.6088 0.7934
0.2400 0.0500 0.5500 -1.0000 0.0000 0.0000
0.2400 0.1800 0.7752 -1.0000 0.0000 0.0000
0.2400 0.2338 0.7338 -1.0000 0.0000 0.0000
0.6600 0.0500 0.5500 1.0000 0.0000 0.0000
0.6600 0.2338 0.7338 1.0000 0.0000 0.0000
0.6600 0.1800 0.7752 1.0000 0.0000 0.0000
0.6600 0.1800 0.7752 0.0000 0.3827 0.9239
0.6600 0.1173 0.8011 0.0000 0.3827 0.9239
0.2400 0.1173 0.8011 0.0000 0.3827 0.9239
0.2400 0.1800 0.7752 0.0000 0.3827 0.9239
0.2400 0.0500 0.5500 -1.0000 0.0000 0.0000
0.2400 0.1173 0.8011 -1.0000 0.0000 0.0000
0.2400 0.1800 0.7752 -1.0000 0.0000 0.0000
0.6600 0.0500 0.5500 1.0000 0.0000 0.0000
0.6600 0.1800 0.7752 1.0000 0.0000 0.0000
0.6600 0.1173 0.8011 1.0000 0.0000 0.0000
0.6600 0.1173 0.8011 0.0000 0.1305 0.9914
0.6600 0.0500 0.8100 0.0000 0.1305 0.9914
0.2400 0.0500 0.8100 0.0000 0.1305 0.9914
0.2400 0.1173 0.8011 0.0000 0.1305 0.9914
0.2400 0.0500 0.5500 -1.0000 0.0000 0.0000
0.2400 0.0500 0.8100 -1.0000 0.0000 0.0000
0.2400 0.1173 0.8011 -1.0000 0.0000 0.0000
0.6600 0.0500 0.5500 1.0000 0.0000 0.0000
0.6600 0.1173 0.8011 1.0000 0.0000 0.0000
0.6600 0.0500 0.8100 1.0000 0.0000 0.0000
0.6600 0.0500 0.8100 0.0000 -0.1305 0.9914
0.6600 -0.0173 0.8011 0.0000 -0.1305 0.9914
0.2400 -0.0173 0.8011 0.0000 -0.1305 0.9914
0.2400 0.0500 0.8100 0.0000 -0.1305 0.9914
0.2400 0.0500 0.5500 -1.0000 0.0000 0.0000
0.2400 -0.0173 0.8011 -1.0000 0.0000 0.0000
0.2400 0.0500 0.8100 -1.0000 0.0000 0.0000
0.6600 0.0500 0.5500 1.0000 0.0000 0.0000
0.6600 0.0500 0.8100 1.0000 0.0000 0.0000
0.6600 -0.0173 0.8011 1.0000 0.0000 0.0000
0.6600 -0.0173 0.8011 0.0000 -0.3827 0.9239
0.6600 -0.0800 0.7752 0.0000 -0.3827 0.9239
0.2400 -0.0800 0.7752 0.0000 -0.3827 0.9239
0.2400 -0.0173 0.8011 0.0000 -0.3827 0.9239
0.2400 0.0500 0.5500 -1.0000 0.0000 0.0000
0.2400 -0.0800 0.7752 -1.0000 0.0000 0.0000
0.2400 -0.0173 0.8011 -1.0000 0.0000 0.0000
0.6600 0.0500 0.5500 1.0000 0.0000 0.0000
0.6600 -0.0173 0.8011 1.0000 0.0000 0.0000
0.6600 -0.0800 0.7752 1.0000 0.0000 0.0000
0.6600 -0.0800 0.7752 0.0000 -0.6088 0.7934
0.6600 -0.1338 0.7338 0.0000 -0.6088 0.7934
0.2400 -0.1338 0.7338 0.0000 -0.6088 0.7934
0.2400 -0.0800 0.7752 0.0000 -0.6088 0.7934
0.2400 0.0500 0.5500 -1.0000 0.0000 0.0000
0.2400 -0.1338 0.7338 -1.0000 0.0000 0.0000
0.2400 -0.0800 0.7752 -1.0000 0.0000 0.0000
0.6600 0.0500 0.5500 1.0000 0.0000 0.0000
0.6600 -0.0800 0.7752 1.0000 0.0000 0.0000
0.6600 -0.1338 0.7338 1.0000 0.0000 0.0000
0.6600 -0.1338 0.7338 0.0000 -0.7934 0.6088
0.6600 -0.1752 0.6800 0.0000 -0.7934 0.6088
0.2400 -0.1752 0.6800 0.0000 -0.7934 0.6088
0.2400 -0.1338 0.7338 0.0000 -0.7934 0.6088
0.2400 0.0500 0.5500 -1.0000 0.0000 0.0000
0.2400 -0.1752 0.6800 -1.0000 0.0000 0.0000
0.2400 -0.1338 0.7338 -1.0000 0.0000 0.0000
0.6600 0.0500 0.5500 1.0000 0.0000 0.0000
0.6600 -0.1338 0.7338 1.0000 0.0000 0.0000
0.6600 -0.1752 0.6800 1.0000 0.0000 0.0000
0.6600 -0.1752 0.6800 0.0000 -0.9239 0.3827
0.6600 -0.2011 0.6173 0.0000 -0.9239 0.3827
0.2400 -0.2011 0.6173 0.0000 -0.9239 0.3827
0.2400 -0.1752 0.6800 0.0000 -0.9239 0.3827
0.2400 0.0500 0.5500 -1.0000 0.0000 0.0000
0.2400 -0.2011 0.6173 -1.0000 0.0000 0.0000
0.2400 -0.1752 0.6800 -1.0000 0.0000 0.0000
0.6600 0.0500 0.5500 1.0000 0.0000 0.0000
0.6600 -0.1752 0.6800 1.0000 0.0000 0.0000
0.6600 -0.2011 0.6173 1.0000 0.0000 0.0000
0.6600 -0.2011 0.6173 0.0000 -0.9914 0.1305
0.6600 -0.2100 0.5500 0.0000 -0.9914 0.1305
0.2400 -0.2100 0.5500 0.0000 -0.9914 0.1305
0.2400 -0.2011 0.6173 0.0000 -0.9914 0.1305
0.2400 0.0500 0.5500 -1.0000 0.0000 0.0000
0.2400 -0.2100 0.5500 -1.0000 0.0000 0.0000
0.2400 -0.2011 0.6173 -1.0000 0.0000 0.0000
0.6600 0.0500 0.5500 1.0000 0.0000 0.0000
0.6600 -0.2011 0.6173 1.0000 0.0000 0.0000
0.6600 -0.2100 0.5500 1.0000 0.0000 0.0000
0.6600 -0.2100 0.5500 0.0000 -0.9914 -0.1305
0.6600 -0.2011 0.4827 0.0000 -0.9914 -0.1305
0.2400 -0.2011 0.4827 0.0000 -0.9914 -0.1305
0.2400 -0.2100 0.5500 0.0000 -0.9914 -0.1305
0.2400 0.0500 0.5500 -1.0000 0.0000 0.0000
0.2400 -0.2011 0.4827 -1.0000 0.0000 0.0000
0.2400 -0.2100 0.5500 -1.0000 0.0000 0.0000
0.6600 0.0500 0.5500 1.0000 0.0000 0.0000
0.6600 -0.2100 0.5500 1.0000 0.0000 0.0000
0.6600 -0.2011 0.4827 1.0000 0.0000 0.0000
0.6600 -0.2011 0.4827 0.0000 -0.9239 -0.3827
0.6600 -0.1752 0.4200 0.0000 -0.9239 -0.3827
0.2400 -0.1752 0.4200 0.0000 -0.9239 -0.3827
0.2400 -0.2011 0.4827 0.0000 -0.9239 -0.3827
0.2400 0.0500 0.5500 -1.0000 0.0000 0.0000
0.2400 -0.1752 0.4200 -1.0000 0.0000 0.0000
0.2400 -0.2011 0.4827 -1.0000 0.0000 0.0000
0.6600 0.0500 0.5500 1.0000 0.0000 0.0000
0.6600 -0.2011 0.4827 1.0000 0.0000 0.0000
0.6600 -0.1752 0.4200 1.0000 0.0000 0.0000
0.6600 -0.1752 0.4200 0.0000 -0.7934 -0.6088
0.6600 -0.1338 0.3662 0.0000 -0.7934 -0.6088
0.2400 -0.1338 0.3662 0.0000 -0.7934 -0.6088
0.2400 -0.1752 0.4200 0.0000 -0.7934 -0.6088
0.2400 0.0500 0.5500 -1.0000 0.0000 0.0000
0.2400 -0.1338 0.3662 -1.0000 0.0000 0.0000
0.2400 -0.1752 0.4200 -1.0000 0.0000 0.0000
0.6600 0.0500 0.5500 1.0000 0.0000 0.0000
0.6600 -0.1752 0.4200 1.0000 0.0000 0.0000
0.6600 -0.1338 0.3662 1.0000 0.0000 0.0000
0.6600 -0.1338 0.3662 0.0000 -0.6088 -0.7934
0.6600 -0.0800 0.3248 0.0000 -0.6088 -0.7934
0.2400 -0.0800 0.3248 0.0000 -0.6088 -0.7934
0.2400 -0.1338 0.3662 0.0000 -0.6088 -0.7934
0.2400 0.0500 0.5500 -1.0000 0.0000 0.0000
0.2400 -0.0800 0.3248 -1.0000 0.0000 0.0000
0.2400 -0.1338 0.3662 -1.0000 0.0000 0.0000
0.6600 0.0500 0.5500 1.0000 0.0000 0.0000
0.6600 -0.1338 0.3662 1.0000 0.0000 0.0000
0.6600 -0.0800 0.3248 1.0000 0.0000 0.0000
0.6600 -0.0800 0.3248 0.0000 -0.3827 -0.9239
0.6600 -0.0173 0.2989 0.0000 -0.3827 -0.9239
0.2400 -0.0173 0.2989 0.0000 -0.3827 -0.9239
0.2400 -0.0800 0.3248 0.0000 -0.3827 -0.9239
0.2400 0.0500 0.5500 -1.0000 0.0000 0.0000
0.2400 -0.0173 0.2989 -1.0000 0.0000 0.0000
0.2400 -0.0800 0.3248 -1.0000 0.0000 0.0000
0.6600 0.0500 0.5500 1.0000 0.0000 0.0000
0.6600 -0.0800 0.3248 1.0000 0.0000 0.0000
0.6600 -0.0173 0.2989 1.0000 0.0000 0.0000
0.6600 -0.0173 0.2989 0.0000 -0.1305 -0.9914
0.6600 0.0500 0.2900 0.0000 -0.1305 -0.9914
0.2400 0.0500 0.2900 0.0000 -0.1305 -0.9914
0.2400 -0.0173 0.2989 0.0000 -0.1305 -0.9914
0.2400 0.0500 0.5500 -1.0000 0.0000 0.0000
0.2400 0.0500 0.2900 -1.0000 0.0000 0.0000
0.2400 -0.0173 0.2989 -1.0000 0.0000 0.0000
0.6600 0.0500 0.5500 1.0000 0.0000 0.0000
0.6600 -0.0173 0.2989 1.0000 0.0000 0.0000
0.6600 0.0500 0.2900 1.0000 0.0000 0.0000
0.6600 0.0500 0.2900 0.0000 0.1305 -0.9914
0.6600 0.1173 0.2989 0.0000 0.1305 -0.9914
0.2400 0.1173 0.2989 0.0000 0.1305 -0.9914
0.2400 0.0500 0.2900 0.0000 0.1305 -0.9914
0.2400 0.0500 0.5500 -1.0000 0.0000 0.0000
0.2400 0.1173 0.2989 -1.0000 0.0000 0.0000
0.2400 0.0500 0.2900 -1.0000 0.0000 0.0000
0.6600 0.0500 0.5500 1.0000 0.0000 0.0000
0.6600 0.0500 0.2900 1.0000 0.0000 0.0000
0.6600 0.1173 0.2989 1.0000 0.0000 0.0000
0.6600 0.1173 0.2989 0.0000 0.3827 -0.9239
0.6600 0.1800 0.3248 0.0000 0.3827 -0.9239
0.2400 0.1800 0.3248 0.0000 0.3827 -0.9239
0.2400 0.1173 0.2989 0.0000 0.3827 -0.9239
0.2400 0.0500 0.5500 -1.0000 0.0000 0.0000
0.2400 0.1800 0.3248 -1.0000 0.0000 0.0000
0.2400 0.1173 0.2989 -1.0000 0.0000 0.0000
0.6600 0.0500 0.5500 1.0000 0.0000 0.0000
0.6600 0.1173 0.2989 1.0000 0.0000 0.0000
0.6600 0.1800 0.3248 1.0000 0.0000 0.0000
0.6600 0.1800 0.3248 0.0000 0.6088 -0.7934
0.6600 0.2338 0.3662 0.0000 0.6088 -0.7934
0.2400 0.2338 0.3662 0.0000 0.6088 -0.7934
0.2400 0.1800 0.3248 0.0000 0.6088 -0.7934
0.2400 0.0500 0.5500 -1.0000 0.0000 0.0000
0.2400 0.2338 0.3662 -1.0000 0.0000 0.0000
0.2400 0.1800 0.3248 -1.0000 0.0000 0.0000
0.6600 0.0500 0.5500 1.0000 0.0000 0.0000
0.6600 0.1800 0.3248 1.0000 0.0000 0.0000
0.6600 0.2338 0.3662 1.0000 0.0000 0.0000
0.6600 0.2338 0.3662 0.0000 0.7934 -0.6088
0.6600 0.2752 0.4200 0.0000 0.7934 -0.6088
0.2400 0.2752 0.4200 0.0000 0.7934 -0.6088
0.2400 0.2338 0.3662 0.0000 0.7934 -0.6088
0.2400 0.0500 0.5500 -1.0000 0.0000 0.0000
0.2400 0.2752 0.4200 -1.0000 0.0000 0.0000
0.2400 0.2338 0.3662 -1.0000 0.0000 0.0000
0.6600 0.0500 0.5500 1.0000 0.0000 0.0000
0.6600 0.2338 0.3662 1.0000 0.0000 0.0000
0.6600 0.2752 0.4200 1.0000 0.0000 0.0000
0.6600 0.2752 0.4200 0.0000 0.9239 -0.3827
0.6600 0.3011 0.4827 0.0000 0.9239 -0.3827
0.2400 0.3011 0.4827 0.0000 0.9239 -0.3827
0.2400 0.2752 0.4200 0.0000 0.9239 -0.3827
0.2400 0.0500 0.5500 -1.0000 0.0000 0.0000
0.2400 0.3011 0.4827 -1.0000 0.0000 0.0000
0.2400 0.2752 0.4200 -1.0000 0.0000 0.0000
0.6600 0.0500 0.5500 1.0000 0.0000 0.0000
0.6600 0.2752 0.4200 1.0000 0.0000 0.0000
0.6600 0.3011 0.4827 1.0000 0.0000 0.0000
0.6600 0.3011 0.4827 0.0000 0.9914 -0.1305
0.6600 0.3100 0.5500 0.0000 0.9914 -0.1305
0.2400 0.3100 0.5500 0.0000 0.9914 -0.1305
0.2400 0.3011 0.4827 0.0000 0.9914 -0.1305
0.2400 0.0500 0.5500 -1.0000 0.0000 0.0000
0.2400 0.3100 0.5500 -1.0000 0.0000 0.0000
0.2400 0.3011 0.4827 -1.0000 0.0000 0.0000
0.6600 0.0500 0.5500 1.0000 0.0000 0.0000
0.6600 0.3011 0.4827 1.0000 0.0000 0.0000
0.6600 0.3100 0.5500 1.0000 0.0000 0.0000
0 1 2
0 2 1
0 2 3
0 3 2
4 5 6
4 6 5
7 8 9
7 9 8
10 11 12
10 12 11
10 12 13
10 13 12
14 15 16
14 16 15
17 18 19
17 19 18
20 21 22
20 22 21
20 22 23
20 23 22
24 25 26
24 26 25
27 28 29
27 29 28
30 31 32
30 32 31
30 32 33
30 33 32
34 35 36
34 36 35
37 38 39
37 39 38
40 41 42
40 42 41
40 42 43
40 43 42
44 45 46
44 46 45
47 48 49
47 49 48
50 51 52
50 52 51
50 52 53
50 53 52
54 55 56
54 56 55
57 58 59
57 59 58
60 61 62
60 62 61
60 62 63
60 63 62
64 65 66
64 66 65
67 68 69
67 69 68
70 71 72
70 72 71
70 72 73
70 73 72
74 75 76
74 76 75
77 78 79
77 79 78
80 81 82
80 82 81
80 82 83
80 83 82
84 85 86
84 86 85
87 88 89
87 89 88
90 91 92
90 92 91
90 92 93
90 93 92
94 95 96
94 96 95
97 98 99
97 99 98
100 101 102
100 102 101
100 102 103
100 103 102
104 105 106
104 106 105
107 108 109
107 109 108
110 111 112
110 112 111
110 112 113
110 113 112
114 115 116
114 116 115
117 118 119
117 119 118
120 121 122
120 122 121
120 122 123
120 123 122
124 125 126
124 126 125
127 128 129
127 129 128
130 131 132
130 132 131
130 132 133
130 133 132
134 135 136
134 136 135
137 138 139
137 139 138
140 141 142
140 142 141
140 142 143
140 143 142
144 145 146
144 146 145
147 148 149
147 149 148
150 151 152
150 152 151
150 152 153
150 153 152
154 155 156
154 156 155
157 158 159
157 159 158
160 161 162
160 162 161
160 162 163
160 163 162
164 165 166
164 166 165
167 168 169
167 169 168
170 171 172
170 172 171
170 172 173
170 173 172
174 175 176
174 176 175
177 178 179
177 179 178
180 181 182
180 182 181
180 182 183
180 183 182
184 185 186
184 186 185
187 188 189
187 189 188
190 191 192
190 192 191
190 192 193
190 193 192
194 195 196
194 196 195
197 198 199
197 199 198
200 201 202
200 202 201
200 202 203
200 203 202
204 205 206
204 206 205
207 208 209
207 209 208
210 211 212
210 212 211
210 212 213
210 213 212
214 215 216
214 216 215
217 218 219
217 219 218
220 221 222
220 222 221
220 222 223
220 223 222
224 225 226
224 226 225
227 228 229
227 229 228
230 231 232
230 232 231
230 232 233
230 233 232
234 235 236
234 236 235
237 238 239
237 239 238
LABEL Cable
MATERIAL 4
TEXTURE 0
GEOM 512 512
0.0160 0.0000 0.0000 0.9239 0.3827 0.0000
0.0160 0.0000 0.0625 0.9239 0.3827 0.0000
0.0113 0.0113 0.0625 0.9239 0.3827 0.0000
0.0113 0.0113 0.0000 0.9239 0.3827 0.0000
0.0113 0.0113 0.0000 0.3827 0.9239 0.0000
0.0113 0.0113 0.0625 0.3827 0.9239 0.0000
0.0000 0.0160 0.0625 0.3827 0.9239 0.0000
0.0000 0.0160 0.0000 0.3827 0.9239 0.0000
0.0000 0.0160 0.0000 -0.3827 0.9239 0.0000
0.0000 0.0160 0.0625 -0.3827 0.9239 0.0000
-0.0113 0.0113 0.0625 -0.3827 0.9239 0.0000
-0.0113 0.0113 0.0000 -0.3827 0.9239 0.0000
-0.0113 0.0113 0.0000 -0.9239 0.3827 0.0000
-0.0113 0.0113 0.0625 -0.9239 0.3827 0.0000
-0.0160 0.0000 0.0625 -0.9239 0.3827 0.0000
-0.0160 0.0000 0.0000 -0.9239 0.3827 0.0000
-0.0160 0.0000 0.0000 -0.9239 -0.3827 0.0000
-0.0160 0.0000 0.0625 -0.9239 -0.3827 0.0000
-0.0113 -0.0113 0.0625 -0.9239 -0.3827 0.0000
-0.0113 -0.0113 0.0000 -0.9239 -0.3827 0.0000
-0.0113 -0.0113 0.0000 -0.3827 -0.9239 0.0000
-0.0113 -0.0113 0.0625 -0.3827 -0.9239 0.0000
-0.0000 -0.0160 0.0625 -0.3827 -0.9239 0.0000
-0.0000 -0.0160 0.0000 -0.3827 -0.9239 0.0000
-0.0000 -0.0160 0.0000 0.3827 -0.9239 0.0000
-0.0000 -0.0160 0.0625 0.3827 -0.9239 0.0000
0.0113 -0.0113 0.0625 0.3827 -0.9239 0.0000
0.0113 -0.0113 0.0000 0.3827 -0.9239 0.0000
0.0113 -0.0113 0.0000 0.9239 -0.3827 0.0000
0.0113 -0.0113 0.0625 0.9239 -0.3827 0.0000
0.0160 0.0000 0.0625 0.9239 -0.3827 0.0000
0.0160 0.0000 0.0000 0.9239 -0.3827 0.0000
0.0160 0.0000 0.0625 0.9239 0.3827 0.0000
0.0160 0.0000 0.1250 0.9239 0.3827 0.0000
0.0113 0.0113 0.1250 0.9239 0.3827 0.0000
0.0113 0.0113 0.0625 0.9239 0.3827 0.0000
0.0113 0.0113 0.0625 0.3827 0.9239 0.0000
0.0113 0.0113 0.1250 0.3827 0.9239 0.0000
0.0000 0.0160 0.1250 0.3827 0.9239 0.0000
0.0000 0.0160 0.0625 0.3827 0.9239 0.0000
0.0000 0.0160 0.0625 -0.3827 0.9239 0.0000
0.0000 0.0160 0.1250 -0.3827 0.9239 0.0000
-0.0113 0.0113 0.1250 -0.3827 0.9239 0.0000
-0.0113 0.0113 0.0625 -0.3827 0.9239 0.0000
-0.0113 0.0113 0.0625 -0.9239 0.3827 0.0000
-0.0113 0.0113 0.1250 -0.9239 0.3827 0.0000
-0.0160 0.0000 0.1250 -0.9239 0.3827 0.0000
-0.0160 0.0000 0.0625 -0.9239 0.3827 0.0000
-0.0160 0.0000 0.0625 -0.9239 -0.3827 0.0000
-0.0160 0.0000 0.1250 -0.9239 -0.3827 0.0000
-0.0113 -0.0113 0.1250 -0.9239 -0.3827 0.0000
-0.0113 -0.0113 0.0625 -0.9239 -0.3827 0.0000
-0.0113 -0.0113 0.0625 -0.3827 -0.9239 0.0000
-0.0113 -0.0113 0.1250 -0.3827 -0.9239 0.0000
-0.0000 -0.0160 0.1250 -0.3827 -0.9239 0.0000
-0.0000 -0.0160 0.0625 -0.3827 -0.9239 0.0000
-0.0000 -0.0160 0.0625 0.3827 -0.9239 0.0000
-0.0000 -0.0160 0.1250 0.3827 -0.9239 0.0000
0.0113 -0.0113 0.1250 0.3827 -0.9239 0.0000
0.0113 -0.0113 0.0625 0.3827 -0.9239 0.0000
0.0113 -0.0113 0.0625 0.9239 -0.3827 0.0000
0.0113 -0.0113 0.1250 0.9239 -0.3827 0.0000
0.0160 0.0000 0.1250 0.9239 -0.3827 0.0000
0.0160 0.0000 0.0625 0.9239 -0.3827 0.0000
0.0160 0.0000 0.1250 0.9239 0.3827 0.0000
0.0160 0.0000 0.1875 0.9239 0.3827 0.0000
0.0113 0.0113 0.1875 0.9239 0.3827 0.0000
0.0113 0.0113 0.1250 0.9239 0.3827 0.0000
0.0113 0.0113 0.1250 0.3827 0.9239 0.0000
0.0113 0.0113 0.1875 0.3827 0.9239 0.0000
0.0000 0.0160 0.1875 0.3827 0.9239 0.0000
0.0000 0.0160 0.1250 0.3827 0.9239 0.0000
0.0000 0.0160 0.1250 -0.3827 0.9239 0.0000
0.0000 0.0160 0.1875 -0.3827 0.9239 0.0000
-0.0113 0.0113 0.1875 -0.3827 0.9239 0.0000
-0.0113 0.0113 0.1250 -0.3827 0.9239 0.0000
-0.0113 0.0113 0.1250 -0.9239 0.3827 0.0000
-0.0113 0.0113 0.1875 -0.9239 0.3827 0.0000
-0.0160 0.0000 0.1875 -0.9239 0.3827 0.0000
-0.0160 0.0000 0.1250 -0.9239 0.3827 0.0000
-0.0160 0.0000 0.1250 -0.9239 -0.3827 0.0000
-0.0160 0.0000 0.1875 -0.9239 -0.3827 0.0000
-0.0113 -0.0113 0.1875 -0.9239 -0.3827 0.0000
-0.0113 -0.0113 0.1250 -0.9239 -0.3827 0.0000
-0.0113 -0.0113 0.1250 -0.3827 -0.9239 0.0000
-0.0113 -0.0113 0.1875 -0.3827 -0.9239 0.0000
-0.0000 -0.0160 0.1875 -0.3827 -0.9239 0.0000
-0.0000 -0.0160 0.1250 -0.3827 -0.9239 0.0000
-0.0000 -0.0160 0.1250 0.3827 -0.9239 0.0000
-0.0000 -0.0160 0.1875 0.3827 -0.9239 0.0000
0.0113 -0.0113 0.1875 0.3827 -0.9239 0.0000
0.0113 -0.0113 0.1250 0.3827 -0.9239 0.0000
0.0113 -0.0113 0.1250 0.9239 -0.3827 0.0000
0.0113 -0.0113 0.1875 0.9239 -0.3827 0.0000
0.0160 0.0000 0.1875 0.9239 -0.3827 0.0000
0.0160 0.0000 0.1250 0.9239 -0.3827 0.0000
0.0160 0.0000 0.1875 0.9239 0.3827 0.0000
0.0160 0.0000 0.2500 0.9239 0.3827 0.0000
0.0113 0.0113 0.2500 0.9239 0.3827 0.0000
0.0113 0.0113 0.1875 0.9239 0.3827 0.0000
0.0113 0.0113 0.1875 0.3827 0.9239 0.0000
0.0113 0.0113 0.2500 0.3827 0.9239 0.0000
0.0000 0.0160 0.2500 0.3827 0.9239 0.0000
0.0000 0.0160 0.1875 0.3827 0.9239 0.0000
0.0000 0.0160 0.1875 -0.3827 0.9239 0.0000
0.0000 0.0160 0.2500 -0.3827 0.9239 0.0000
-0.0113 0.0113 0.2500 -0.3827 0.9239 0.0000
-0.0113 0.0113 0.1875 -0.3827 0.9239 0.0000
-0.0113 0.0113 0.1875 -0.9239 0.3827 0.0000
-0.0113 0.0113 0.2500 -0.9239 0.3827 0.0000
-0.0160 0.0000 0.2500 -0.9239 0.3827 0.0000
-0.0160 0.0000 0.1875 -0.9239 0.3827 0.0000
-0.0160 0.0000 0.1875 -0.9239 -0.3827 0.0000
-0.0160 0.0000 0.2500 -0.9239 -0.3827 0.0000
-0.0113 -0.0113 0.2500 -0.9239 -0.3827 0.0000
-0.0113 -0.0113 0.1875 -0.9239 -0.3827 0.0000
-0.0113 -0.0113 0.1875 -0.3827 -0.9239 0.0000
-0.0113 -0.0113 0.2500 -0.3827 -0.9239 0.0000
-0.0000 -0.0160 0.2500 -0.3827 -0.9239 0.0000
-0.0000 -0.0160 0.1875 -0.3827 -0.9239 0.0000
-0.0000 -0.0160 0.1875 0.3827 -0.9239 0.0000
-0.0000 -0.0160 0.2500 0.3827 -0.9239 0.0000
0.0113 -0.0113 0.2500 0.3827 -0.9239 0.0000
0.0113 -0.0113 0.1875 0.3827 -0.9239 0.0000
0.0113 -0.0113 0.1875 0.9239 -0.3827 0.0000
0.0113 -0.0113 0.2500 0.9239 -0.3827 0.0000
0.0160 0.0000 0.2500 0.9239 -0.3827 0.0000
0.0160 0.0000 0.1875 0.9239 -0.3827 0.0000
0.0160 0.0000 0.2500 0.9239 0.3827 0.0000
0.0160 0.0000 0.3125 0.9239 0.3827 0.0000
0.0113 0.0113 0.3125 0.9239 0.3827 0.0000
0.0113 0.0113 0.2500 0.9239 0.3827 0.0000
0.0113 0.0113 0.2500 0.3827 0.9239 0.0000
0.0113 0.0113 0.3125 0.3827 0.9239 0.0000
0.0000 0.0160 0.3125 0.3827 0.9239 0.0000
0.0000 0.0160 0.2500 0.3827 0.9239 0.0000
0.0000 0.0160 0.2500 -0.3827 0.9239 0.0000
0.0000 0.0160 0.3125 -0.3827 0.9239 0.0000
-0.0113 0.0113 0.3125 -0.3827 0.9239 0.0000
-0.0113 0.0113 0.2500 -0.3827 0.9239 0.0000
-0.0113 0.0113 0.2500 -0.9239 0.3827 0.0000
-0.0113 0.0113 0.3125 -0.9239 0.3827 0.0000
-0.0160 0.0000 0.3125 -0.9239 0.3827 0.0000
-0.0160 0.0000 0.2500 -0.9239 0.3827 0.0000
-0.0160 0.0000 0.2500 -0.9239 -0.3827 0.0000
-0.0160 0.0000 0.3125 -0.9239 -0.3827 0.0000
-0.0113 -0.0113 0.3125 -0.9239 -0.3827 0.0000
-0.0113 -0.0113 0.2500 -0.9239 -0.3827 0.0000
-0.0113 -0.0113 0.2500 -0.3827 -0.9239 0.0000
-0.0113 -0.0113 0.3125 -0.3827 -0.9239 0.0000
-0.0000 -0.0160 0.3125 -0.3827 -0.9239 0.0000
-0.0000 -0.0160 0.2500 -0.3827 -0.9239 0.0000
-0.0000 -0.0160 0.2500 0.3827 -0.9239 0.0000
-0.0000 -0.0160 0.3125 0.3827 -0.9239 0.0000
0.0113 -0.0113 0.3125 0.3827 -0.9239 0.0000
0.0113 -0.0113 0.2500 0.3827 -0.9239 0.0000
0.0113 -0.0113 0.2500 0.9239 -0.3827 0.0000
0.0113 -0.0113 0.3125 0.9239 -0.3827 0.0000
0.0160 0.0000 0.3125 0.9239 -0.3827 0.0000
0.0160 0.0000 0.2500 0.9239 -0.3827 0.0000
0.0160 0.0000 0.3125 0.9239 0.3827 0.0000
0.0160 0.0000 0.3750 0.9239 0.3827 0.0000
0.0113 0.0113 0.3750 0.9239 0.3827 0.0000
0.0113 0.0113 0.3125 0.9239 0.3827 0.0000
0.0113 0.0113 0.3125 0.3827 0.9239 0.0000
0.0113 0.0113 0.3750 0.3827 0.9239 0.0000
0.0000 0.0160 0.3750 0.3827 0.9239 0.0000
0.0000 0.0160 0.3125 0.3827 0.9239 0.0000
0.0000 0.0160 0.3125 -0.3827 0.9239 0.0000
0.0000 0.0160 0.3750 -0.3827 0.9239 0.0000
-0.0113 0.0113 0.3750 -0.3827 0.9239 0.0000
-0.0113 0.0113 0.3125 -0.3827 0.9239 0.0000
-0.0113 0.0113 0.3125 -0.9239 0.3827 0.0000
-0.0113 0.0113 0.3750 -0.9239 0.3827 0.0000
-0.0160 0.0000 0.3750 -0.9239 0.3827 0.0000
-0.0160 0.0000 0.3125 -0.9239 0.3827 0.0000
-0.0160 0.0000 0.3125 -0.9239 -0.3827 0.0000
-0.0160 0.0000 0.3750 -0.9239 -0.3827 0.0000
-0.0113 -0.0113 0.3750 -0.9239 -0.3827 0.0000
-0.0113 -0.0113 0.3125 -0.9239 -0.3827 0.0000
-0.0113 -0.0113 0.3125 -0.3827 -0.9239 0.0000
-0.0113 -0.0113 0.3750 -0.3827 -0.9239 0.0000
-0.0000 -0.0160 0.3750 -0.3827 -0.9239 0.0000
-0.0000 -0.0160 0.3125 -0.3827 -0.9239 0.0000
-0.0000 -0.0160 0.3125 0.3827 -0.9239 0.0000
-0.0000 -0.0160 0.3750 0.3827 -0.9239 0.0000
0.0113 -0.0113 0.3750 0.3827 -0.9239 0.0000
0.0113 -0.0113 0.3125 0.3827 -0.9239 0.0000
0.0113 -0.0113 0.3125 0.9239 -0.3827 0.0000
0.0113 -0.0113 0.3750 0.9239 -0.3827 0.0000
0.0160 0.0000 0.3750 0.9239 -0.3827 0.0000
0.0160 0.0000 0.3125 0.9239 -0.3827 0.0000
0.0160 0.0000 0.3750 0.9239 0.3827 0.0000
0.0160 0.0000 0.4375 0.9239 0.3827 0.0000
0.0113 0.0113 0.4375 0.9239 0.3827 0.0000
0.0113 0.0113 0.3750 0.9239 0.3827 0.0000
0.0113 0.0113 0.3750 0.3827 0.9239 0.0000
0.0113 0.0113 0.4375 0.3827 0.9239 0.0000
0.0000 0.0160 0.4375 0.3827 0.9239 0.0000
0.0000 0.0160 0.3750 0.3827 0.9239 0.0000
0.0000 0.0160 0.3750 -0.3827 0.9239 0.0000
0.0000 0.0160 0.4375 -0.3827 0.9239 0.0000
-0.0113 0.0113 0.4375 -0.3827 0.9239 0.0000
-0.0113 0.0113 0.3750 -0.3827 0.9239 0.0000
-0.0113 0.0113 0.3750 -0.9239 0.3827 0.0000
-0.0113 0.0113 0.4375 -0.9239 0.3827 0.0000
-0.0160 0.0000 0.4375 -0.9239 0.3827 0.0000
-0.0160 0.0000 0.3750 -0.9239 0.3827 0.0000
-0.0160 0.0000 0.3750 -0.9239 -0.3827 0.0000
-0.0160 0.0000 0.4375 -0.9239 -0.3827 0.0000
-0.0113 -0.0113 0.4375 -0.9239 -0.3827 0.0000
-0.0113 -0.0113 0.3750 -0.9239 -0.3827 0.0000
-0.0113 -0.0113 0.3750 -0.3827 -0.9239 0.0000
-0.0113 -0.0113 0.4375 -0.3827 -0.9239 0.0000
-0.0000 -0.0160 0.4375 -0.3827 -0.9239 0.0000
-0.0000 -0.0160 0.3750 -0.3827 -0.9239 0.0000
-0.0000 -0.0160 0.3750 0.3827 -0.9239 0.0000
-0.0000 -0.0160 0.4375 0.3827 -0.9239 0.0000
0.0113 -0.0113 0.4375 0.3827 -0.9239 0.0000
0.0113 -0.0113 0.3750 0.3827 -0.9239 0.0000
0.0113 -0.0113 0.3750 0.9239 -0.3827 0.0000
0.0113 -0.0113 0.4375 0.9239 -0.3827 0.0000
0.0160 0.0000 0.4375 0.9239 -0.3827 0.0000
0.0160 0.0000 0.3750 0.9239 -0.3827 0.0000
0.0160 0.0000 0.4375 0.9239 0.3827 0.0000
0.0160 0.0000 0.5000 0.9239 0.3827 0.0000
0.0113 0.0113 0.5000 0.9239 0.3827 0.0000
0.0113 0.0113 0.4375 0.9239 0.3827 0.0000
0.0113 0.0113 0.4375 0.3827 0.9239 0.0000
0.0113 0.0113 0.5000 0.3827 0.9239 0.0000
0.0000 0.0160 0.5000 0.3827 0.9239 0.0000
0.0000 0.0160 0.4375 0.3827 0.9239 0.0000
0.0000 0.0160 0.4375 -0.3827 0.9239 0.0000
0.0000 0.0160 0.5000 -0.3827 0.9239 0.0000
-0.0113 0.0113 0.5000 -0.3827 0.9239 0.0000
-0.0113 0.0113 0.4375 -0.3827 0.9239 0.0000
-0.0113 0.0113 0.4375 -0.9239 0.3827 0.0000
-0.0113 0.0113 0.5000 -0.9239 0.3827 0.0000
-0.0160 0.0000 0.5000 -0.9239 0.3827 0.0000
-0.0160 0.0000 0.4375 -0.9239 0.3827 0.0000
-0.0160 0.0000 0.4375 -0.9239 -0.3827 0.0000
-0.0160 0.0000 0.5000 -0.9239 -0.3827 0.0000
-0.0113 -0.0113 0.5000 -0.9239 -0.3827 0.0000
-0.0113 -0.0113 0.4375 -0.9239 -0.3827 0.0000
-0.0113 -0.0113 0.4375 -0.3827 -0.9239 0.0000
-0.0113 -0.0113 0.5000 -0.3827 -0.9239 0.0000
-0.0000 -0.0160 0.5000 -0.3827 -0.9239 0.0000
-0.0000 -0.0160 0.4375 -0.3827 -0.9239 0.0000
-0.0000 -0.0160 0.4375 0.3827 -0.9239 0.0000
-0.0000 -0.0160 0.5000 0.3827 -0.9239 0.0000
0.0113 -0.0113 0.5000 0.3827 -0.9239 0.0000
0.0113 -0.0113 0.4375 0.3827 -0.9239 0.0000
0.0113 -0.0113 0.4375 0.9239 -0.3827 0.0000
0.0113 -0.0113 0.5000 0.9239 -0.3827 0.0000
0.0160 0.0000 0.5000 0.9239 -0.3827 0.0000
0.0160 0.0000 0.4375 0.9239 -0.3827 0.0000
0.0160 0.0000 0.5000 0.9239 0.3827 0.0000
0.0160 0.0000 0.5625 0.9239 0.3827 0.0000
0.0113 0.0113 0.5625 0.9239 0.3827 0.0000
0.0113 0.0113 0.5000 0.9239 0.3827 0.0000
0.0113 0.0113 0.5000 0.3827 0.9239 0.0000
0.0113 0.0113 0.5625 0.3827 0.9239 0.0000
0.0000 0.0160 0.5625 0.3827 0.9239 0.0000
0.0000 0.0160 0.5000 0.3827 0.9239 0.0000
0.0000 0.0160 0.5000 -0.3827 0.9239 0.0000
0.0000 0.0160 0.5625 -0.3827 0.9239 0.0000
-0.0113 0.0113 0.5625 -0.3827 0.9239 0.0000
-0.0113 0.0113 0.5000 -0.3827 0.9239 0.0000
-0.0113 0.0113 0.5000 -0.9239 0.3827 0.0000
-0.0113 0.0113 0.5625 -0.9239 0.3827 0.0000
-0.0160 0.0000 0.5625 -0.9239 0.3827 0.0000
-0.0160 0.0000 0.5000 -0.9239 0.3827 0.0000
-0.0160 0.0000 0.5000 -0.9239 -0.3827 0.0000
-0.0160 0.0000 0.5625 -0.9239 -0.3827 0.0000
-0.0113 -0.0113 0.5625 -0.9239 -0.3827 0.0000
-0.0113 -0.0113 0.5000 -0.9239 -0.3827 0.0000
-0.0113 -0.0113 0.5000 -0.3827 -0.9239 0.0000
-0.0113 -0.0113 0.5625 -0.3827 -0.9239 0.0000
-0.0000 -0.0160 0.5625 -0.3827 -0.9239 0.0000
-0.0000 -0.0160 0.5000 -0.3827 -0.9239 0.0000
-0.0000 -0.0160 0.5000 0.3827 -0.9239 0.0000
-0.0000 -0.0160 0.5625 0.3827 -0.9239 0.0000
0.0113 -0.0113 0.5625 0.3827 -0.9239 0.0000
0.0113 -0.0113 0.5000 0.3827 -0.9239 0.0000
0.0113 -0.0113 0.5000 0.9239 -0.3827 0.0000
0.0113 -0.0113 0.5625 0.9239 -0.3827 0.0000
0.0160 0.0000 0.5625 0.9239 -0.3827 0.0000
0.0160 0.0000 0.5000 0.9239 -0.3827 0.0000
0.0160 0.0000 0.5625 0.9239 0.3827 0.0000
0.0160 0.0000 0.6250 0.9239 0.3827 0.0000
0.0113 0.0113 0.6250 0.9239 0.3827 0.0000
0.0113 0.0113 0.5625 0.9239 0.3827 0.0000
0.0113 0.0113 0.5625 0.3827 0.9239 0.0000
0.0113 0.0113 0.6250 0.3827 0.9239 0.0000
0.0000 0.0160 0.6250 0.3827 0.9239 0.0000
0.0000 0.0160 0.5625 0.3827 0.9239 0.0000
0.0000 0.0160 0.5625 -0.3827 0.9239 0.0000
0.0000 0.0160 0.6250 -0.3827 0.9239 0.0000
-0.0113 0.0113 0.6250 -0.3827 0.9239 0.0000
-0.0113 0.0113 0.5625 -0.3827 0.9239 0.0000
-0.0113 0.0113 0.5625 -0.9239 0.3827 0.0000
-0.0113 0.0113 0.6250 -0.9239 0.3827 0.0000
-0.0160 0.0000 0.6250 -0.9239 0.3827 0.0000
-0.0160 0.0000 0.5625 -0.9239 0.3827 0.0000
-0.0160 0.0000 0.5625 -0.9239 -0.3827 0.0000
-0.0160 0.0000 0.6250 -0.9239 -0.3827 0.0000
-0.0113 -0.0113 0.6250 -0.9239 -0.3827 0.0000
-0.0113 -0.0113 0.5625 -0.9239 -0.3827 0.0000
-0.0113 -0.0113 0.5625 -0.3827 -0.9239 0.0000
-0.0113 -0.0113 0.6250 -0.3827 -0.9239 0.0000
-0.0000 -0.0160 0.6250 -0.3827 -0.9239 0.0000
-0.0000 -0.0160 0.5625 -0.3827 -0.9239 0.0000
-0.0000 -0.0160 0.5625 0.3827 -0.9239 0.0000
-0.0000 -0.0160 0.6250 0.3827 -0.9239 0.0000
0.0113 -0.0113 0.6250 0.3827 -0.9239 0.0000
0.0113 -0.0113 0.5625 0.3827 -0.9239 0.0000
0.0113 -0.0113 0.5625 0.9239 -0.3827 0.0000
0.0113 -0.0113 0.6250 0.9239 -0.3827 0.0000
0.0160 0.0000 0.6250 0.9239 -0.3827 0.0000
0.0160 0.0000 0.5625 0.9239 -0.3827 0.0000
0.0160 0.0000 0.6250 0.9239 0.3827 0.0000
0.0160 0.0000 0.6875 0.9239 0.3827 0.0000
0.0113 0.0113 0.6875 0.9239 0.3827 0.0000
0.0113 0.0113 0.6250 0.9239 0.3827 0.0000
0.0113 0.0113 0.6250 0.3827 0.9239 0.0000
0.0113 0.0113 0.6875 0.3827 0.9239 0.0000
0.0000 0.0160 0.6875 0.3827 0.9239 0.0000
0.0000 0.0160 0.6250 0.3827 0.9239 0.0000
0.0000 0.0160 0.6250 -0.3827 0.9239 0.0000
0.0000 0.0160 0.6875 -0.3827 0.9239 0.0000
-0.0113 0.0113 0.6875 -0.3827 0.9239 0.0000
-0.0113 0.0113 0.6250 -0.3827 0.9239 0.0000
-0.0113 0.0113 0.6250 -0.9239 0.3827 0.0000
-0.0113 0.0113 0.6875 -0.9239 0.3827 0.0000
-0.0160 0.0000 0.6875 -0.9239 0.3827 0.0000
-0.0160 0.0000 0.6250 -0.9239 0.3827 0.0000
-0.0160 0.0000 0.6250 -0.9239 -0.3827 0.0000
-0.0160 0.0000 0.6875 -0.9239 -0.3827 0.0000
-0.0113 -0.0113 0.6875 -0.9239 -0.3827 0.0000
-0.0113 -0.0113 0.6250 -0.9239 -0.3827 0.0000
-0.0113 -0.0113 0.6250 -0.3827 -0.9239 0.0000
-0.0113 -0.0113 0.6875 -0.3827 -0.9239 0.0000
-0.0000 -0.0160 0.6875 -0.3827 -0.9239 0.0000
-0.0000 -0.0160 0.6250 -0.3827 -0.9239 0.0000
-0.0000 -0.0160 0.6250 0.3827 -0.9239 0.0000
-0.0000 -0.0160 0.6875 0.3827 -0.9239 0.0000
0.0113 -0.0113 0.6875 0.3827 -0.9239 0.0000
0.0113 -0.0113 0.6250 0.3827 -0.9239 0.0000
0.0113 -0.0113 0.6250 0.9239 -0.3827 0.0000
0.0113 -0.0113 0.6875 0.9239 -0.3827 0.0000
0.0160 0.0000 0.6875 0.9239 -0.3827 0.0000
0.0160 0.0000 0.6250 0.9239 -0.3827 0.0000
0.0160 0.0000 0.6875 0.9239 0.3827 0.0000
0.0160 0.0000 0.7500 0.9239 0.3827 0.0000
0.0113 0.0113 0.7500 0.9239 0.3827 0.0000
0.0113 0.0113 0.6875 0.9239 0.3827 0.0000
0.0113 0.0113 0.6875 0.3827 0.9239 0.0000
0.0113 0.0113 0.7500 0.3827 0.9239 0.0000
0.0000 0.0160 0.7500 0.3827 0.9239 0.0000
0.0000 0.0160 0.6875 0.3827 0.9239 0.0000
0.0000 0.0160 0.6875 -0.3827 0.9239 0.0000
0.0000 0.0160 0.7500 -0.3827 0.9239 0.0000
-0.0113 0.0113 0.7500 -0.3827 0.9239 0.0000
-0.0113 0.0113 0.6875 -0.3827 0.9239 0.0000
-0.0113 0.0113 0.6875 -0.9239 0.3827 0.0000
-0.0113 0.0113 0.7500 -0.9239 0.3827 0.0000
-0.0160 0.0000 0.7500 -0.9239 0.3827 0.0000
-0.0160 0.0000 0.6875 -0.9239 0.3827 0.0000
-0.0160 0.0000 0.6875 -0.9239 -0.3827 0.0000
-0.0160 0.0000 0.7500 -0.9239 -0.3827 0.0000
-0.0113 -0.0113 0.7500 -0.9239 -0.3827 0.0000
-0.0113 -0.0113 0.6875 -0.9239 -0.3827 0.0000
-0.0113 -0.0113 0.6875 -0.3827 -0.9239 0.0000
-0.0113 -0.0113 0.7500 -0.3827 -0.9239 0.0000
-0.0000 -0.0160 0.7500 -0.3827 -0.9239 0.0000
-0.0000 -0.0160 0.6875 -0.3827 -0.9239 0.0000
-0.0000 -0.0160 0.6875 0.3827 -0.9239 0.0000
-0.0000 -0.0160 0.7500 0.3827 -0.9239 0.0000
0.0113 -0.0113 0.7500 0.3827 -0.9239 0.0000
0.0113 -0.0113 0.6875 0.3827 -0.9239 0.0000
0.0113 -0.0113 0.6875 0.9239 -0.3827 0.0000
0.0113 -0.0113 0.7500 0.9239 -0.3827 0.0000
0.0160 0.0000 0.7500 0.9239 -0.3827 0.0000
0.0160 0.0000 0.6875 0.9239 -0.3827 0.0000
0.0160 0.0000 0.7500 0.9239 0.3827 0.0000
0.0160 0.0000 0.8125 0.9239 0.3827 0.0000
0.0113 0.0113 0.8125 0.9239 0.3827 0.0000
0.0113 0.0113 0.7500 0.9239 0.3827 0.0000
0.0113 0.0113 0.7500 0.3827 0.9239 0.0000
0.0113 0.0113 0.8125 0.3827 0.9239 0.0000
0.0000 0.0160 0.8125 0.3827 0.9239 0.0000
0.0000 0.0160 0.7500 0.3827 0.9239 0.0000
0.0000 0.0160 0.7500 -0.3827 0.9239 0.0000
0.0000 0.0160 0.8125 -0.3827 0.9239 0.0000
-0.0113 0.0113 0.8125 -0.3827 0.9239 0.0000
-0.0113 0.0113 0.7500 -0.3827 0.9239 0.0000
-0.0113 0.0113 0.7500 -0.9239 0.3827 0.0000
-0.0113 0.0113 0.8125 -0.9239 0.3827 0.0000
-0.0160 0.0000 0.8125 -0.9239 0.3827 0.0000
-0.0160 0.0000 0.7500 -0.9239 0.3827 0.0000
-0.0160 0.0000 0.7500 -0.9239 -0.3827 0.0000
-0.0160 0.0000 0.8125 -0.9239 -0.3827 0.0000
-0.0113 -0.0113 0.8125 -0.9239 -0.3827 0.0000
-0.0113 -0.0113 0.7500 -0.9239 -0.3827 0.0000
-0.0113 -0.0113 0.7500 -0.3827 -0.9239 0.0000
-0.0113 -0.0113 0.8125 -0.3827 -0.9239 0.0000
-0.0000 -0.0160 0.8125 -0.3827 -0.9239 0.0000
-0.0000 -0.0160 0.7500 -0.3827 -0.9239 0.0000
-0.0000 -0.0160 0.7500 0.3827 -0.9239 0.0000
-0.0000 -0.0160 0.8125 0.3827 -0.9239 0.0000
0.0113 -0.0113 0.8125 0.3827 -0.9239 0.0000
0.0113 -0.0113 0.7500 0.3827 -0.9239 0.0000
0.0113 -0.0113 0.7500 0.9239 -0.3827 0.0000
0.0113 -0.0113 0.8125 0.9239 -0.3827 0.0000
0.0160 0.0000 0.8125 0.9239 -0.3827 0.0000
0.0160 0.0000 0.7500 0.9239 -0.3827 0.0000
0.0160 0.0000 0.8125 0.9239 0.3827 0.0000
0.0160 0.0000 0.8750 0.9239 0.3827 0.0000
0.0113 0.0113 0.8750 0.9239 0.3827 0.0000
0.0113 0.0113 0.8125 0.9239 0.3827 0.0000
0.0113 0.0113 0.8125 0.3827 0.9239 0.0000
0.0113 0.0113 0.8750 0.3827 0.9239 0.0000
0.0000 0.0160 0.8750 0.3827 0.9239 0.0000
0.0000 0.0160 0.8125 0.3827 0.9239 0.0000
0.0000 0.0160 0.8125 -0.3827 0.9239 0.0000
0.0000 0.0160 0.8750 -0.3827 0.9239 0.0000
-0.0113 0.0113 0.8750 -0.3827 0.9239 0.0000
-0.0113 0.0113 0.8125 -0.3827 0.9239 0.0000
-0.0113 0.0113 0.8125 -0.9239 0.3827 0.0000
-0.0113 0.0113 0.8750 -0.9239 0.3827 0.0000
-0.0160 0.0000 0.8750 -0.9239 0.3827 0.0000
-0.0160 0.0000 0.8125 -0.9239 0.3827 0.0000
-0.0160 0.0000 0.8125 -0.9239 -0.3827 0.0000
-0.0160 0.0000 0.8750 -0.9239 -0.3827 0.0000
-0.0113 -0.0113 0.8750 -0.9239 -0.3827 0.0000
-0.0113 -0.0113 0.8125 -0.9239 -0.3827 0.0000
-0.0113 -0.0113 0.8125 -0.3827 -0.9239 0.0000
-0.0113 -0.0113 0.8750 -0.3827 -0.9239 0.0000
-0.0000 -0.0160 0.8750 -0.3827 -0.9239 0.0000
-0.0000 -0.0160 0.8125 -0.3827 -0.9239 0.0000
-0.0000 -0.0160 0.8125 0.3827 -0.9239 0.0000
-0.0000 -0.0160 0.8750 0.3827 -0.9239 0.0000
0.0113 -0.0113 0.8750 0.3827 -0.9239 0.0000
0.0113 -0.0113 0.8125 0.3827 -0.9239 0.0000
0.0113 -0.0113 0.8125 0.9239 -0.3827 0.0000
0.0113 -0.0113 0.8750 0.9239 -0.3827 0.0000
0.0160 0.0000 0.8750 0.9239 -0.3827 0.0000
0.0160 0.0000 0.8125 0.9239 -0.3827 0.0000
0.0160 0.0000 0.8750 0.9239 0.3827 0.0000
0.0160 0.0000 0.9375 0.9239 0.3827 0.0000
0.0113 0.0113 0.9375 0.9239 0.3827 0.0000
0.0113 0.0113 0.8750 0.9239 0.3827 0.0000
0.0113 0.0113 0.8750 0.3827 0.9239 0.0000
0.0113 0.0113 0.9375 0.3827 0.9239 0.0000
0.0000 0.0160 0.9375 0.3827 0.9239 0.0000
0.0000 0.0160 0.8750 0.3827 0.9239 0.0000
0.0000 0.0160 0.8750 -0.3827 0.9239 0.0000
0.0000 0.0160 0.9375 -0.3827 0.9239 0.0000
-0.0113 0.0113 0.9375 -0.3827 0.9239 0.0000
-0.0113 0.0113 0.8750 -0.3827 0.9239 0.0000
-0.0113 0.0113 0.8750 -0.9239 0.3827 0.0000
-0.0113 0.0113 0.9375 -0.9239 0.3827 0.0000
-0.0160 0.0000 0.9375 -0.9239 0.3827 0.0000
-0.0160 0.0000 0.8750 -0.9239 0.3827 0.0000
-0.0160 0.0000 0.8750 -0.9239 -0.3827 0.0000
-0.0160 0.0000 0.9375 -0.9239 -0.3827 0.0000
-0.0113 -0.0113 0.9375 -0.9239 -0.3827 0.0000
-0.0113 -0.0113 0.8750 -0.9239 -0.3827 0.0000
-0.0113 -0.0113 0.8750 -0.3827 -0.9239 0.0000
-0.0113 -0.0113 0.9375 -0.3827 -0.9239 0.0000
-0.0000 -0.0160 0.9375 -0.3827 -0.9239 0.0000
-0.0000 -0.0160 0.8750 -0.3827 -0.9239 0.0000
-0.0000 -0.0160 0.8750 0.3827 -0.9239 0.0000
-0.0000 -0.0160 0.9375 0.3827 -0.9239 0.0000
0.0113 -0.0113 0.9375 0.3827 -0.9239 0.0000
0.0113 -0.0113 0.8750 0.3827 -0.9239 0.0000
0.0113 -0.0113 0.8750 0.9239 -0.3827 0.0000
0.0113 -0.0113 0.9375 0.9239 -0.3827 0.0000
0.0160 0.0000 0.9375 0.9239 -0.3827 0.0000
0.0160 0.0000 0.8750 0.9239 -0.3827 0.0000
0.0160 0.0000 0.9375 0.9239 0.3827 0.0000
0.0160 0.0000 1.0000 0.9239 0.3827 0.0000
0.0113 0.0113 1.0000 0.9239 0.3827 0.0000
0.0113 0.0113 0.9375 0.9239 0.3827 0.0000
0.0113 0.0113 0.9375 0.3827 0.9239 0.0000
0.0113 0.0113 1.0000 0.3827 0.9239 0.0000
0.0000 0.0160 1.0000 0.3827 0.9239 0.0000
0.0000 0.0160 0.9375 0.3827 0.9239 0.0000
0.0000 0.0160 0.9375 -0.3827 0.9239 0.0000
0.0000 0.0160 1.0000 -0.3827 0.9239 0.0000
-0.0113 0.0113 1.0000 -0.3827 0.9239 0.0000
-0.0113 0.0113 0.9375 -0.3827 0.9239 0.0000
-0.0113 0.0113 0.9375 -0.9239 0.3827 0.0000
-0.0113 0.0113 1.0000 -0.9239 0.3827 0.0000
-0.0160 0.0000 1.0000 -0.9239 0.3827 0.0000
-0.0160 0.0000 0.9375 -0.9239 0.3827 0.0000
-0.0160 0.0000 0.9375 -0.9239 -0.3827 0.0000
-0.0160 0.0000 1.0000 -0.9239 -0.3827 0.0000
-0.0113 -0.0113 1.0000 -0.9239 -0.3827 0.0000
-0.0113 -0.0113 0.9375 -0.9239 -0.3827 0.0000
-0.0113 -0.0113 0.9375 -0.3827 -0.9239 0.0000
-0.0113 -0.0113 1.0000 -0.3827 -0.9239 0.0000
-0.0000 -0.0160 1.0000 -0.3827 -0.9239 0.0000
-0.0000 -0.0160 0.9375 -0.3827 -0.9239 0.0000
-0.0000 -0.0160 0.9375 0.3827 -0.9239 0.0000
-0.0000 -0.0160 1.0000 0.3827 -0.9239 0.0000
0.0113 -0.0113 1.0000 0.3827 -0.9239 0.0000
0.0113 -0.0113 0.9375 0.3827 -0.9239 0.0000
0.0113 -0.0113 0.9375 0.9239 -0.3827 0.0000
0.0113 -0.0113 1.0000 0.9239 -0.3827 0.0000
0.0160 0.0000 1.0000 0.9239 -0.3827 0.0000
0.0160 0.0000 0.9375 0.9239 -0.3827 0.0000
0 1 2
0 2 1
0 2 3
0 3 2
4 5 6
4 6 5
4 6 7
4 7 6
8 9 10
8 10 9
8 10 11
8 11 10
12 13 14
12 14 13
12 14 15
12 15 14
16 17 18
16 18 17
16 18 19
16 19 18
20 21 22
20 22 21
20 22 23
20 23 22
24 25 26
24 26 25
24 26 27
24 27 26
28 29 30
28 30 29
28 30 31
28 31 30
32 33 34
32 34 33
32 34 35
32 35 34
36 37 38
36 38 37
36 38 39
36 39 38
40 41 42
40 42 41
40 42 43
40 43 42
44 45 46
44 46 45
44 46 47
44 47 46
48 49 50
48 50 49
48 50 51
48 51 50
52 53 54
52 54 53
52 54 55
52 55 54
56 57 58
56 58 57
56 58 59
56 59 58
60 61 62
60 62 61
60 62 63
60 63 62
64 65 66
64 66 65
64 66 67
64 67 66
68 69 70
68 70 69
68 70 71
68 71 70
72 73 74
72 74 73
72 74 75
72 75 74
76 77 78
76 78 77
76 78 79
76 79 78
80 81 82
80 82 81
80 82 83
80 83 82
84 85 86
84 86 85
84 86 87
84 87 86
88 89 90
88 90 89
88 90 91
88 91 90
92 93 94
92 94 93
92 94 95
92 95 94
96 97 98
96 98 97
96 98 99
96 99 98
100 101 102
100 102 101
100 102 103
100 103 102
104 105 106
104 106 105
104 106 107
104 107 106
108 109 110
108 110 109
108 110 111
108 111 110
112 113 114
112 114 113
112 114 115
112 115 114
116 117 118
116 118 117
116 118 119
116 119 118
120 121 122
120 122 121
120 122 123
120 123 122
124 125 126
124 126 125
124 126 127
124 127 126
128 129 130
128 130 129
128 130 131
128 131 130
132 133 134
132 134 133
132 134 135
132 135 134
136 137 138
136 138 137
136 138 139
136 139 138
140 141 142
140 142 141
140 142 143
140 143 142
144 145 146
144 146 145
144 146 147
144 147 146
148 149 150
148 150 149
148 150 151
148 151 150
152 153 154
152 154 153
152 154 155
152 155 154
156 157 158
156 158 157
156 158 159
156 159 158
160 161 162
160 162 161
160 162 163
160 163 162
164 165 166
164 166 165
164 166 167
164 167 166
168 169 170
168 170 169
168 170 171
168 171 170
172 173 174
172 174 173
172 174 175
172 175 174
176 177 178
176 178 177
176 178 179
176 179 178
180 181 182
180 182 181
180 182 183
180 183 182
184 185 186
184 186 185
184 186 187
184 187 186
188 189 190
188 190 189
188 190 191
188 191 190
192 193 194
192 194 193
192 194 195
192 195 194
196 197 198
196 198 197
196 198 199
196 199 198
200 201 202
200 202 201
200 202 203
200 203 202
204 205 206
204 206 205
204 206 207
204 207 206
208 209 210
208 210 209
208 210 211
208 211 210
212 213 214
212 214 213
212 214 215
212 215 214
216 217 218
216 218 217
216 218 219
216 219 218
220 221 222
220 222 221
220 222 223
220 223 222
224 225 226
224 226 225
224 226 227
224 227 226
228 229 230
228 230 229
228 230 231
228 231 230
232 233 234
232 234 233
232 234 235
232 235 234
236 237 238
236 238 237
236 238 239
236 239 238
240 241 242
240 242 241
240 242 243
240 243 242
244 245 246
244 246 245
244 246 247
244 247 246
248 249 250
248 250 249
248 250 251
248 251 250
252 253 254
252 254 253
252 254 255
252 255 254
256 257 258
256 258 257
256 258 259
256 259 258
260 261 262
260 262 261
260 262 263
260 263 262
264 265 266
264 266 265
264 266 267
264 267 266
268 269 270
268 270 269
268 270 271
268 271 270
272 273 274
272 274 273
272 274 275
272 275 274
276 277 278
276 278 277
276 278 279
276 279 278
280 281 282
280 282 281
280 282 283
280 283 282
284 285 286
284 286 285
284 286 287
284 287 286
288 289 290
288 290 289
288 290 291
288 291 290
292 293 294
292 294 293
292 294 295
292 295 294
296 297 298
296 298 297
296 298 299
296 299 298
300 301 302
300 302 301
300 302 303
300 303 302
304 305 306
304 306 305
304 306 307
304 307 306
308 309 310
308 310 309
308 310 311
308 311 310
312 313 314
312 314 313
312 314 315
312 315 314
316 317 318
316 318 317
316 318 319
316 319 318
320 321 322
320 322 321
320 322 323
320 323 322
324 325 326
324 326 325
324 326 327
324 327 326
328 329 330
328 330 329
328 330 331
328 331 330
332 333 334
332 334 333
332 334 335
332 335 334
336 337 338
336 338 337
336 338 339
336 339 338
340 341 342
340 342 341
340 342 343
340 343 342
344 345 346
344 346 345
344 346 347
344 347 346
348 349 350
348 350 349
348 350 351
348 351 350
352 353 354
352 354 353
352 354 355
352 355 354
356 357 358
356 358 357
356 358 359
356 359 358
360 361 362
360 362 361
360 362 363
360 363 362
364 365 366
364 366 365
364 366 367
364 367 366
368 369 370
368 370 369
368 370 371
368 371 370
372 373 374
372 374 373
372 374 375
372 375 374
376 377 378
376 378 377
376 378 379
376 379 378
380 381 382
380 382 381
380 382 383
380 383 382
384 385 386
384 386 385
384 386 387
384 387 386
388 389 390
388 390 389
388 390 391
388 391 390
392 393 394
392 394 393
392 394 395
392 395 394
396 397 398
396 398 397
396 398 399
396 399 398
400 401 402
400 402 401
400 402 403
400 403 402
404 405 406
404 406 405
404 406 407
404 407 406
408 409 410
408 410 409
408 410 411
408 411 410
412 413 414
412 414 413
412 414 415
412 415 414
416 417 418
416 418 417
416 418 419
416 419 418
420 421 422
420 422 421
420 422 423
420 423 422
424 425 426
424 426 425
424 426 427
424 427 426
428 429 430
428 430 429
428 430 431
428 431 430
432 433 434
432 434 433
432 434 435
432 435 434
436 437 438
436 438 437
436 438 439
436 439 438
440 441 442
440 442 441
440 442 443
440 443 442
444 445 446
444 446 445
444 446 447
444 447 446
448 449 450
448 450 449
448 450 451
448 451 450
452 453 454
452 454 453
452 454 455
452 455 454
456 457 458
456 458 457
456 458 459
456 459 458
460 461 462
460 462 461
460 462 463
460 463 462
464 465 466
464 466 465
464 466 467
464 467 466
468 469 470
468 470 469
468 470 471
468 471 470
472 473 474
472 474 473
472 474 475
472 475 474
476 477 478
476 478 477
476 478 479
476 479 478
480 481 482
480 482 481
480 482 483
480 483 482
484 485 486
484 486 485
484 486 487
484 487 486
488 489 490
488 490 489
488 490 491
488 491 490
492 493 494
492 494 493
492 494 495
492 495 494
496 497 498
496 498 497
496 498 499
496 499 498
500 501 502
500 502 501
500 502 503
500 503 502
504 505 506
504 506 505
504 506 507
504 507 506
508 509 510
508 510 509
508 510 511
508 511 510
LABEL Plug
MATERIAL 3
TEXTURE 0
GEOM 24 24
-0.0500 -0.0500 0.0800 0.0000 0.0000 1.0000
0.0500 -0.0500 0.0800 0.0000 0.0000 1.0000
0.0500 0.0500 0.0800 0.0000 0.0000 1.0000
-0.0500 0.0500 0.0800 0.0000 0.0000 1.0000
0.0500 -0.0500 -0.0800 0.0000 0.0000 -1.0000
-0.0500 -0.0500 -0.0800 0.0000 0.0000 -1.0000
-0.0500 0.0500 -0.0800 0.0000 0.0000 -1.0000
0.0500 0.0500 -0.0800 0.0000 0.0000 -1.0000
0.0500 -0.0500 0.0800 1.0000 0.0000 0.0000
0.0500 -0.0500 -0.0800 1.0000 0.0000 0.0000
0.0500 0.0500 -0.0800 1.0000 0.0000 0.0000
0.0500 0.0500 0.0800 1.0000 0.0000 0.0000
-0.0500 -0.0500 -0.0800 -1.0000 0.0000 0.0000
-0.0500 -0.0500 0.0800 -1.0000 0.0000 0.0000
-0.0500 0.0500 0.0800 -1.0000 0.0000 0.0000
-0.0500 0.0500 -0.0800 -1.0000 0.0000 0.0000
-0.0500 0.0500 0.0800 0.0000 1.0000 0.0000
0.0500 0.0500 0.0800 0.0000 1.0000 0.0000
0.0500 0.0500 -0.0800 0.0000 1.0000 0.0000
-0.0500 0.0500 -0.0800 0.0000 1.0000 0.0000
-0.0500 -0.0500 -0.0800 0.0000 -1.0000 0.0000
0.0500 -0.0500 -0.0800 0.0000 -1.0000 0.0000
0.0500 -0.0500 0.0800 0.0000 -1.0000 0.0000
-0.0500 -0.0500 0.0800 0.0000 -1.0000 0.0000
0 1 2
0 2 1
0 2 3
0 3 2
4 5 6
4 6 5
4 6 7
4 7 6
8 9 10
8 10 9
8 10 11
8 11 10
12 13 14
12 14 13
12 14 15
12 15 14
16 17 18
16 18 17
16 18 19
16 19 18
20 21 22
20 22 21
20 22 23
20 23 22
MATERIALS 7
ST_Hull
ST_White
ST_Cell
ST_Cable
ST_Lamp
ST_Glass
ST_Metal
MATERIAL ST_Hull
0.120 0.130 0.150 1
0.120 0.130 0.150 1
0.15 0.15 0.15 1 20
0.000 0.000 0.000 1
MATERIAL ST_White
0.820 0.830 0.840 1
0.820 0.830 0.840 1
0.15 0.15 0.15 1 20
0.000 0.000 0.000 1
MATERIAL ST_Cell
0.850 0.480 0.120 1
0.850 0.480 0.120 1
0.15 0.15 0.15 1 20
0.000 0.000 0.000 1
MATERIAL ST_Cable
0.060 0.060 0.070 1
0.060 0.060 0.070 1
0.15 0.15 0.15 1 20
0.000 0.000 0.000 1
MATERIAL ST_Lamp
1.000 0.750 0.300 1
1.000 0.750 0.300 1
0.15 0.15 0.15 1 20
1.000 0.750 0.300 1
MATERIAL ST_Glass
0.050 0.100 0.120 1
0.050 0.100 0.120 1
0.50 0.50 0.50 1 20
0.000 0.000 0.000 1
MATERIAL ST_Metal
0.450 0.460 0.480 1
0.450 0.460 0.480 1
0.50 0.50 0.50 1 20
0.000 0.000 0.000 1
