MSHX1
GROUPS 1
LABEL trap
MATERIAL 13
TEXTURE 0
GEOM 456 364 ;trap
-1.650 -4.050 12.400 0.0000 0.0000 1.0000
1.650 -4.050 12.400 0.0000 0.0000 1.0000
4.050 -1.650 12.400 0.0000 0.0000 1.0000
4.050 1.650 12.400 0.0000 0.0000 1.0000
1.650 4.050 12.400 0.0000 0.0000 1.0000
-1.650 4.050 12.400 0.0000 0.0000 1.0000
-4.050 1.650 12.400 0.0000 0.0000 1.0000
-4.050 -1.650 12.400 0.0000 0.0000 1.0000
-1.650 -4.050 -12.400 -0.0000 -0.0000 -1.0000
1.650 -4.050 -12.400 -0.0000 -0.0000 -1.0000
4.050 -1.650 -12.400 -0.0000 -0.0000 -1.0000
4.050 1.650 -12.400 -0.0000 -0.0000 -1.0000
1.650 4.050 -12.400 -0.0000 -0.0000 -1.0000
-1.650 4.050 -12.400 -0.0000 -0.0000 -1.0000
-4.050 1.650 -12.400 -0.0000 -0.0000 -1.0000
-4.050 -1.650 -12.400 -0.0000 -0.0000 -1.0000
-1.650 -4.050 12.400 0.0000 -1.0000 0.0000
1.650 -4.050 12.400 0.0000 -1.0000 0.0000
1.650 -4.050 -12.400 0.0000 -1.0000 0.0000
-1.650 -4.050 -12.400 0.0000 -1.0000 0.0000
1.650 -4.050 12.400 0.7071 -0.7071 0.0000
4.050 -1.650 12.400 0.7071 -0.7071 0.0000
4.050 -1.650 -12.400 0.7071 -0.7071 0.0000
1.650 -4.050 -12.400 0.7071 -0.7071 0.0000
4.050 -1.650 12.400 1.0000 0.0000 0.0000
4.050 1.650 12.400 1.0000 0.0000 0.0000
4.050 1.650 -12.400 1.0000 0.0000 0.0000
4.050 -1.650 -12.400 1.0000 0.0000 0.0000
4.050 1.650 12.400 0.7071 0.7071 -0.0000
1.650 4.050 12.400 0.7071 0.7071 -0.0000
1.650 4.050 -12.400 0.7071 0.7071 -0.0000
4.050 1.650 -12.400 0.7071 0.7071 -0.0000
1.650 4.050 12.400 0.0000 1.0000 -0.0000
-1.650 4.050 12.400 0.0000 1.0000 -0.0000
-1.650 4.050 -12.400 0.0000 1.0000 -0.0000
1.650 4.050 -12.400 0.0000 1.0000 -0.0000
-1.650 4.050 12.400 -0.7071 0.7071 0.0000
-4.050 1.650 12.400 -0.7071 0.7071 0.0000
-4.050 1.650 -12.400 -0.7071 0.7071 0.0000
-1.650 4.050 -12.400 -0.7071 0.7071 0.0000
-4.050 1.650 12.400 -1.0000 -0.0000 0.0000
-4.050 -1.650 12.400 -1.0000 -0.0000 0.0000
-4.050 -1.650 -12.400 -1.0000 -0.0000 0.0000
-4.050 1.650 -12.400 -1.0000 -0.0000 0.0000
-4.050 -1.650 12.400 -0.7071 -0.7071 0.0000
-1.650 -4.050 12.400 -0.7071 -0.7071 0.0000
-1.650 -4.050 -12.400 -0.7071 -0.7071 0.0000
-4.050 -1.650 -12.400 -0.7071 -0.7071 0.0000
-1.450 -3.450 -12.400 0.0000 0.0000 1.0000
1.450 -3.450 -12.400 0.0000 0.0000 1.0000
3.450 -1.450 -12.400 0.0000 0.0000 1.0000
3.450 1.450 -12.400 0.0000 0.0000 1.0000
1.450 3.450 -12.400 0.0000 0.0000 1.0000
-1.450 3.450 -12.400 0.0000 0.0000 1.0000
-3.450 1.450 -12.400 0.0000 0.0000 1.0000
-3.450 -1.450 -12.400 0.0000 0.0000 1.0000
-1.450 -3.450 -12.700 -0.0000 -0.0000 -1.0000
1.450 -3.450 -12.700 -0.0000 -0.0000 -1.0000
3.450 -1.450 -12.700 -0.0000 -0.0000 -1.0000
3.450 1.450 -12.700 -0.0000 -0.0000 -1.0000
1.450 3.450 -12.700 -0.0000 -0.0000 -1.0000
-1.450 3.450 -12.700 -0.0000 -0.0000 -1.0000
-3.450 1.450 -12.700 -0.0000 -0.0000 -1.0000
-3.450 -1.450 -12.700 -0.0000 -0.0000 -1.0000
-1.450 -3.450 -12.400 0.0000 -1.0000 0.0000
1.450 -3.450 -12.400 0.0000 -1.0000 0.0000
1.450 -3.450 -12.700 0.0000 -1.0000 0.0000
-1.450 -3.450 -12.700 0.0000 -1.0000 0.0000
1.450 -3.450 -12.400 0.7071 -0.7071 0.0000
3.450 -1.450 -12.400 0.7071 -0.7071 0.0000
3.450 -1.450 -12.700 0.7071 -0.7071 0.0000
1.450 -3.450 -12.700 0.7071 -0.7071 0.0000
3.450 -1.450 -12.400 1.0000 0.0000 0.0000
3.450 1.450 -12.400 1.0000 0.0000 0.0000
3.450 1.450 -12.700 1.0000 0.0000 0.0000
3.450 -1.450 -12.700 1.0000 0.0000 0.0000
3.450 1.450 -12.400 0.7071 0.7071 -0.0000
1.450 3.450 -12.400 0.7071 0.7071 -0.0000
1.450 3.450 -12.700 0.7071 0.7071 -0.0000
3.450 1.450 -12.700 0.7071 0.7071 -0.0000
1.450 3.450 -12.400 0.0000 1.0000 -0.0000
-1.450 3.450 -12.400 0.0000 1.0000 -0.0000
-1.450 3.450 -12.700 0.0000 1.0000 -0.0000
1.450 3.450 -12.700 0.0000 1.0000 -0.0000
-1.450 3.450 -12.400 -0.7071 0.7071 0.0000
-3.450 1.450 -12.400 -0.7071 0.7071 0.0000
-3.450 1.450 -12.700 -0.7071 0.7071 0.0000
-1.450 3.450 -12.700 -0.7071 0.7071 0.0000
-3.450 1.450 -12.400 -1.0000 -0.0000 0.0000
-3.450 -1.450 -12.400 -1.0000 -0.0000 0.0000
-3.450 -1.450 -12.700 -1.0000 -0.0000 0.0000
-3.450 1.450 -12.700 -1.0000 -0.0000 0.0000
-3.450 -1.450 -12.400 -0.7071 -0.7071 0.0000
-1.450 -3.450 -12.400 -0.7071 -0.7071 0.0000
-1.450 -3.450 -12.700 -0.7071 -0.7071 0.0000
-3.450 -1.450 -12.700 -0.7071 -0.7071 0.0000
1.000 0.000 -12.400 1.0000 -0.0000 0.0000
0.924 -0.383 -12.400 0.9239 -0.3827 0.0000
0.707 -0.707 -12.400 0.7071 -0.7071 0.0000
0.383 -0.924 -12.400 0.3827 -0.9239 0.0000
0.000 -1.000 -12.400 0.0000 -1.0000 0.0000
-0.383 -0.924 -12.400 -0.3827 -0.9239 -0.0000
-0.707 -0.707 -12.400 -0.7071 -0.7071 -0.0000
-0.924 -0.383 -12.400 -0.9239 -0.3827 -0.0000
-1.000 -0.000 -12.400 -1.0000 -0.0000 -0.0000
-0.924 0.383 -12.400 -0.9239 0.3827 0.0000
-0.707 0.707 -12.400 -0.7071 0.7071 0.0000
-0.383 0.924 -12.400 -0.3827 0.9239 0.0000
-0.000 1.000 -12.400 -0.0000 1.0000 0.0000
0.383 0.924 -12.400 0.3827 0.9239 0.0000
0.707 0.707 -12.400 0.7071 0.7071 0.0000
0.924 0.383 -12.400 0.9239 0.3827 0.0000
1.000 0.000 -13.000 1.0000 -0.0000 0.0000
0.924 -0.383 -13.000 0.9239 -0.3827 0.0000
0.707 -0.707 -13.000 0.7071 -0.7071 0.0000
0.383 -0.924 -13.000 0.3827 -0.9239 0.0000
0.000 -1.000 -13.000 0.0000 -1.0000 0.0000
-0.383 -0.924 -13.000 -0.3827 -0.9239 -0.0000
-0.707 -0.707 -13.000 -0.7071 -0.7071 -0.0000
-0.924 -0.383 -13.000 -0.9239 -0.3827 -0.0000
-1.000 -0.000 -13.000 -1.0000 -0.0000 -0.0000
-0.924 0.383 -13.000 -0.9239 0.3827 0.0000
-0.707 0.707 -13.000 -0.7071 0.7071 0.0000
-0.383 0.924 -13.000 -0.3827 0.9239 0.0000
-0.000 1.000 -13.000 -0.0000 1.0000 0.0000
0.383 0.924 -13.000 0.3827 0.9239 0.0000
0.707 0.707 -13.000 0.7071 0.7071 0.0000
0.924 0.383 -13.000 0.9239 0.3827 0.0000
0.000 0.000 -12.400 -0.0000 -0.0000 1.0000
1.000 0.000 -12.400 -0.0000 -0.0000 1.0000
0.924 -0.383 -12.400 -0.0000 -0.0000 1.0000
0.707 -0.707 -12.400 -0.0000 -0.0000 1.0000
0.383 -0.924 -12.400 -0.0000 -0.0000 1.0000
0.000 -1.000 -12.400 -0.0000 -0.0000 1.0000
-0.383 -0.924 -12.400 -0.0000 -0.0000 1.0000
-0.707 -0.707 -12.400 -0.0000 -0.0000 1.0000
-0.924 -0.383 -12.400 -0.0000 -0.0000 1.0000
-1.000 -0.000 -12.400 -0.0000 -0.0000 1.0000
-0.924 0.383 -12.400 -0.0000 -0.0000 1.0000
-0.707 0.707 -12.400 -0.0000 -0.0000 1.0000
-0.383 0.924 -12.400 -0.0000 -0.0000 1.0000
-0.000 1.000 -12.400 -0.0000 -0.0000 1.0000
0.383 0.924 -12.400 -0.0000 -0.0000 1.0000
0.707 0.707 -12.400 -0.0000 -0.0000 1.0000
0.924 0.383 -12.400 -0.0000 -0.0000 1.0000
0.000 0.000 -13.000 0.0000 0.0000 -1.0000
1.000 0.000 -13.000 0.0000 0.0000 -1.0000
0.924 -0.383 -13.000 0.0000 0.0000 -1.0000
0.707 -0.707 -13.000 0.0000 0.0000 -1.0000
0.383 -0.924 -13.000 0.0000 0.0000 -1.0000
0.000 -1.000 -13.000 0.0000 0.0000 -1.0000
-0.383 -0.924 -13.000 0.0000 0.0000 -1.0000
-0.707 -0.707 -13.000 0.0000 0.0000 -1.0000
-0.924 -0.383 -13.000 0.0000 0.0000 -1.0000
-1.000 -0.000 -13.000 0.0000 0.0000 -1.0000
-0.924 0.383 -13.000 0.0000 0.0000 -1.0000
-0.707 0.707 -13.000 0.0000 0.0000 -1.0000
-0.383 0.924 -13.000 0.0000 0.0000 -1.0000
-0.000 1.000 -13.000 0.0000 0.0000 -1.0000
0.383 0.924 -13.000 0.0000 0.0000 -1.0000
0.707 0.707 -13.000 0.0000 0.0000 -1.0000
0.924 0.383 -13.000 0.0000 0.0000 -1.0000
1.500 0.000 -12.850 1.0000 -0.0000 0.0000
1.386 -0.574 -12.850 0.9239 -0.3827 0.0000
1.061 -1.061 -12.850 0.7071 -0.7071 0.0000
0.574 -1.386 -12.850 0.3827 -0.9239 0.0000
0.000 -1.500 -12.850 0.0000 -1.0000 0.0000
-0.574 -1.386 -12.850 -0.3827 -0.9239 -0.0000
-1.061 -1.061 -12.850 -0.7071 -0.7071 -0.0000
-1.386 -0.574 -12.850 -0.9239 -0.3827 -0.0000
-1.500 -0.000 -12.850 -1.0000 -0.0000 -0.0000
-1.386 0.574 -12.850 -0.9239 0.3827 0.0000
-1.061 1.061 -12.850 -0.7071 0.7071 0.0000
-0.574 1.386 -12.850 -0.3827 0.9239 0.0000
-0.000 1.500 -12.850 -0.0000 1.0000 0.0000
0.574 1.386 -12.850 0.3827 0.9239 0.0000
1.061 1.061 -12.850 0.7071 0.7071 0.0000
1.386 0.574 -12.850 0.9239 0.3827 0.0000
1.500 0.000 -13.000 1.0000 -0.0000 0.0000
1.386 -0.574 -13.000 0.9239 -0.3827 0.0000
1.061 -1.061 -13.000 0.7071 -0.7071 0.0000
0.574 -1.386 -13.000 0.3827 -0.9239 0.0000
0.000 -1.500 -13.000 0.0000 -1.0000 0.0000
-0.574 -1.386 -13.000 -0.3827 -0.9239 -0.0000
-1.061 -1.061 -13.000 -0.7071 -0.7071 -0.0000
-1.386 -0.574 -13.000 -0.9239 -0.3827 -0.0000
-1.500 -0.000 -13.000 -1.0000 -0.0000 -0.0000
-1.386 0.574 -13.000 -0.9239 0.3827 0.0000
-1.061 1.061 -13.000 -0.7071 0.7071 0.0000
-0.574 1.386 -13.000 -0.3827 0.9239 0.0000
-0.000 1.500 -13.000 -0.0000 1.0000 0.0000
0.574 1.386 -13.000 0.3827 0.9239 0.0000
1.061 1.061 -13.000 0.7071 0.7071 0.0000
1.386 0.574 -13.000 0.9239 0.3827 0.0000
0.000 0.000 -12.850 -0.0000 -0.0000 1.0000
1.500 0.000 -12.850 -0.0000 -0.0000 1.0000
1.386 -0.574 -12.850 -0.0000 -0.0000 1.0000
1.061 -1.061 -12.850 -0.0000 -0.0000 1.0000
0.574 -1.386 -12.850 -0.0000 -0.0000 1.0000
0.000 -1.500 -12.850 -0.0000 -0.0000 1.0000
-0.574 -1.386 -12.850 -0.0000 -0.0000 1.0000
-1.061 -1.061 -12.850 -0.0000 -0.0000 1.0000
-1.386 -0.574 -12.850 -0.0000 -0.0000 1.0000
-1.500 -0.000 -12.850 -0.0000 -0.0000 1.0000
-1.386 0.574 -12.850 -0.0000 -0.0000 1.0000
-1.061 1.061 -12.850 -0.0000 -0.0000 1.0000
-0.574 1.386 -12.850 -0.0000 -0.0000 1.0000
-0.000 1.500 -12.850 -0.0000 -0.0000 1.0000
0.574 1.386 -12.850 -0.0000 -0.0000 1.0000
1.061 1.061 -12.850 -0.0000 -0.0000 1.0000
1.386 0.574 -12.850 -0.0000 -0.0000 1.0000
0.000 0.000 -13.000 0.0000 0.0000 -1.0000
1.500 0.000 -13.000 0.0000 0.0000 -1.0000
1.386 -0.574 -13.000 0.0000 0.0000 -1.0000
1.061 -1.061 -13.000 0.0000 0.0000 -1.0000
0.574 -1.386 -13.000 0.0000 0.0000 -1.0000
0.000 -1.500 -13.000 0.0000 0.0000 -1.0000
-0.574 -1.386 -13.000 0.0000 0.0000 -1.0000
-1.061 -1.061 -13.000 0.0000 0.0000 -1.0000
-1.386 -0.574 -13.000 0.0000 0.0000 -1.0000
-1.500 -0.000 -13.000 0.0000 0.0000 -1.0000
-1.386 0.574 -13.000 0.0000 0.0000 -1.0000
-1.061 1.061 -13.000 0.0000 0.0000 -1.0000
-0.574 1.386 -13.000 0.0000 0.0000 -1.0000
-0.000 1.500 -13.000 0.0000 0.0000 -1.0000
0.574 1.386 -13.000 0.0000 0.0000 -1.0000
1.061 1.061 -13.000 0.0000 0.0000 -1.0000
1.386 0.574 -13.000 0.0000 0.0000 -1.0000
-2.200 1.600 -12.600 -1.0000 -0.0000 -0.0000
-2.200 3.000 -12.600 -1.0000 -0.0000 -0.0000
-2.200 3.000 -12.400 -1.0000 -0.0000 -0.0000
-2.200 1.600 -12.400 -1.0000 -0.0000 -0.0000
-0.800 1.600 -12.600 1.0000 0.0000 0.0000
-0.800 3.000 -12.600 1.0000 0.0000 0.0000
-0.800 3.000 -12.400 1.0000 0.0000 0.0000
-0.800 1.600 -12.400 1.0000 0.0000 0.0000
-2.200 1.600 -12.600 -0.0000 -1.0000 -0.0000
-0.800 1.600 -12.600 -0.0000 -1.0000 -0.0000
-0.800 1.600 -12.400 -0.0000 -1.0000 -0.0000
-2.200 1.600 -12.400 -0.0000 -1.0000 -0.0000
-2.200 3.000 -12.600 0.0000 1.0000 0.0000
-0.800 3.000 -12.600 0.0000 1.0000 0.0000
-0.800 3.000 -12.400 0.0000 1.0000 0.0000
-2.200 3.000 -12.400 0.0000 1.0000 0.0000
-2.200 1.600 -12.600 -0.0000 -0.0000 -1.0000
-0.800 1.600 -12.600 -0.0000 -0.0000 -1.0000
-0.800 3.000 -12.600 -0.0000 -0.0000 -1.0000
-2.200 3.000 -12.600 -0.0000 -0.0000 -1.0000
-2.200 1.600 -12.400 0.0000 0.0000 1.0000
-0.800 1.600 -12.400 0.0000 0.0000 1.0000
-0.800 3.000 -12.400 0.0000 0.0000 1.0000
-2.200 3.000 -12.400 0.0000 0.0000 1.0000
-1.450 -3.450 12.700 0.0000 0.0000 1.0000
1.450 -3.450 12.700 0.0000 0.0000 1.0000
3.450 -1.450 12.700 0.0000 0.0000 1.0000
3.450 1.450 12.700 0.0000 0.0000 1.0000
1.450 3.450 12.700 0.0000 0.0000 1.0000
-1.450 3.450 12.700 0.0000 0.0000 1.0000
-3.450 1.450 12.700 0.0000 0.0000 1.0000
-3.450 -1.450 12.700 0.0000 0.0000 1.0000
-1.450 -3.450 12.400 -0.0000 -0.0000 -1.0000
1.450 -3.450 12.400 -0.0000 -0.0000 -1.0000
3.450 -1.450 12.400 -0.0000 -0.0000 -1.0000
3.450 1.450 12.400 -0.0000 -0.0000 -1.0000
1.450 3.450 12.400 -0.0000 -0.0000 -1.0000
-1.450 3.450 12.400 -0.0000 -0.0000 -1.0000
-3.450 1.450 12.400 -0.0000 -0.0000 -1.0000
-3.450 -1.450 12.400 -0.0000 -0.0000 -1.0000
-1.450 -3.450 12.700 0.0000 -1.0000 0.0000
1.450 -3.450 12.700 0.0000 -1.0000 0.0000
1.450 -3.450 12.400 0.0000 -1.0000 0.0000
-1.450 -3.450 12.400 0.0000 -1.0000 0.0000
1.450 -3.450 12.700 0.7071 -0.7071 0.0000
3.450 -1.450 12.700 0.7071 -0.7071 0.0000
3.450 -1.450 12.400 0.7071 -0.7071 0.0000
1.450 -3.450 12.400 0.7071 -0.7071 0.0000
3.450 -1.450 12.700 1.0000 0.0000 0.0000
3.450 1.450 12.700 1.0000 0.0000 0.0000
3.450 1.450 12.400 1.0000 0.0000 0.0000
3.450 -1.450 12.400 1.0000 0.0000 0.0000
3.450 1.450 12.700 0.7071 0.7071 -0.0000
1.450 3.450 12.700 0.7071 0.7071 -0.0000
1.450 3.450 12.400 0.7071 0.7071 -0.0000
3.450 1.450 12.400 0.7071 0.7071 -0.0000
1.450 3.450 12.700 0.0000 1.0000 -0.0000
-1.450 3.450 12.700 0.0000 1.0000 -0.0000
-1.450 3.450 12.400 0.0000 1.0000 -0.0000
1.450 3.450 12.400 0.0000 1.0000 -0.0000
-1.450 3.450 12.700 -0.7071 0.7071 0.0000
-3.450 1.450 12.700 -0.7071 0.7071 0.0000
-3.450 1.450 12.400 -0.7071 0.7071 0.0000
-1.450 3.450 12.400 -0.7071 0.7071 0.0000
-3.450 1.450 12.700 -1.0000 -0.0000 0.0000
-3.450 -1.450 12.700 -1.0000 -0.0000 0.0000
-3.450 -1.450 12.400 -1.0000 -0.0000 0.0000
-3.450 1.450 12.400 -1.0000 -0.0000 0.0000
-3.450 -1.450 12.700 -0.7071 -0.7071 0.0000
-1.450 -3.450 12.700 -0.7071 -0.7071 0.0000
-1.450 -3.450 12.400 -0.7071 -0.7071 0.0000
-3.450 -1.450 12.400 -0.7071 -0.7071 0.0000
-1.000 0.000 12.400 -1.0000 0.0000 0.0000
-0.924 -0.383 12.400 -0.9239 -0.3827 0.0000
-0.707 -0.707 12.400 -0.7071 -0.7071 0.0000
-0.383 -0.924 12.400 -0.3827 -0.9239 0.0000
-0.000 -1.000 12.400 -0.0000 -1.0000 0.0000
0.383 -0.924 12.400 0.3827 -0.9239 0.0000
0.707 -0.707 12.400 0.7071 -0.7071 0.0000
0.924 -0.383 12.400 0.9239 -0.3827 0.0000
1.000 -0.000 12.400 1.0000 -0.0000 0.0000
0.924 0.383 12.400 0.9239 0.3827 -0.0000
0.707 0.707 12.400 0.7071 0.7071 -0.0000
0.383 0.924 12.400 0.3827 0.9239 -0.0000
0.000 1.000 12.400 0.0000 1.0000 -0.0000
-0.383 0.924 12.400 -0.3827 0.9239 0.0000
-0.707 0.707 12.400 -0.7071 0.7071 0.0000
-0.924 0.383 12.400 -0.9239 0.3827 0.0000
-1.000 0.000 13.000 -1.0000 0.0000 0.0000
-0.924 -0.383 13.000 -0.9239 -0.3827 0.0000
-0.707 -0.707 13.000 -0.7071 -0.7071 0.0000
-0.383 -0.924 13.000 -0.3827 -0.9239 0.0000
-0.000 -1.000 13.000 -0.0000 -1.0000 0.0000
0.383 -0.924 13.000 0.3827 -0.9239 0.0000
0.707 -0.707 13.000 0.7071 -0.7071 0.0000
0.924 -0.383 13.000 0.9239 -0.3827 0.0000
1.000 -0.000 13.000 1.0000 -0.0000 0.0000
0.924 0.383 13.000 0.9239 0.3827 -0.0000
0.707 0.707 13.000 0.7071 0.7071 -0.0000
0.383 0.924 13.000 0.3827 0.9239 -0.0000
0.000 1.000 13.000 0.0000 1.0000 -0.0000
-0.383 0.924 13.000 -0.3827 0.9239 0.0000
-0.707 0.707 13.000 -0.7071 0.7071 0.0000
-0.924 0.383 13.000 -0.9239 0.3827 0.0000
0.000 0.000 12.400 -0.0000 -0.0000 -1.0000
-1.000 0.000 12.400 -0.0000 -0.0000 -1.0000
-0.924 -0.383 12.400 -0.0000 -0.0000 -1.0000
-0.707 -0.707 12.400 -0.0000 -0.0000 -1.0000
-0.383 -0.924 12.400 -0.0000 -0.0000 -1.0000
-0.000 -1.000 12.400 -0.0000 -0.0000 -1.0000
0.383 -0.924 12.400 -0.0000 -0.0000 -1.0000
0.707 -0.707 12.400 -0.0000 -0.0000 -1.0000
0.924 -0.383 12.400 -0.0000 -0.0000 -1.0000
1.000 -0.000 12.400 -0.0000 -0.0000 -1.0000
0.924 0.383 12.400 -0.0000 -0.0000 -1.0000
0.707 0.707 12.400 -0.0000 -0.0000 -1.0000
0.383 0.924 12.400 -0.0000 -0.0000 -1.0000
0.000 1.000 12.400 -0.0000 -0.0000 -1.0000
-0.383 0.924 12.400 -0.0000 -0.0000 -1.0000
-0.707 0.707 12.400 -0.0000 -0.0000 -1.0000
-0.924 0.383 12.400 -0.0000 -0.0000 -1.0000
0.000 0.000 13.000 0.0000 0.0000 1.0000
-1.000 0.000 13.000 0.0000 0.0000 1.0000
-0.924 -0.383 13.000 0.0000 0.0000 1.0000
-0.707 -0.707 13.000 0.0000 0.0000 1.0000
-0.383 -0.924 13.000 0.0000 0.0000 1.0000
-0.000 -1.000 13.000 0.0000 0.0000 1.0000
0.383 -0.924 13.000 0.0000 0.0000 1.0000
0.707 -0.707 13.000 0.0000 0.0000 1.0000
0.924 -0.383 13.000 0.0000 0.0000 1.0000
1.000 -0.000 13.000 0.0000 0.0000 1.0000
0.924 0.383 13.000 0.0000 0.0000 1.0000
0.707 0.707 13.000 0.0000 0.0000 1.0000
0.383 0.924 13.000 0.0000 0.0000 1.0000
0.000 1.000 13.000 0.0000 0.0000 1.0000
-0.383 0.924 13.000 0.0000 0.0000 1.0000
-0.707 0.707 13.000 0.0000 0.0000 1.0000
-0.924 0.383 13.000 0.0000 0.0000 1.0000
-1.500 0.000 12.850 -1.0000 0.0000 0.0000
-1.386 -0.574 12.850 -0.9239 -0.3827 0.0000
-1.061 -1.061 12.850 -0.7071 -0.7071 0.0000
-0.574 -1.386 12.850 -0.3827 -0.9239 0.0000
-0.000 -1.500 12.850 -0.0000 -1.0000 0.0000
0.574 -1.386 12.850 0.3827 -0.9239 0.0000
1.061 -1.061 12.850 0.7071 -0.7071 0.0000
1.386 -0.574 12.850 0.9239 -0.3827 0.0000
1.500 -0.000 12.850 1.0000 -0.0000 0.0000
1.386 0.574 12.850 0.9239 0.3827 -0.0000
1.061 1.061 12.850 0.7071 0.7071 -0.0000
0.574 1.386 12.850 0.3827 0.9239 -0.0000
0.000 1.500 12.850 0.0000 1.0000 -0.0000
-0.574 1.386 12.850 -0.3827 0.9239 0.0000
-1.061 1.061 12.850 -0.7071 0.7071 0.0000
-1.386 0.574 12.850 -0.9239 0.3827 0.0000
-1.500 0.000 13.000 -1.0000 0.0000 0.0000
-1.386 -0.574 13.000 -0.9239 -0.3827 0.0000
-1.061 -1.061 13.000 -0.7071 -0.7071 0.0000
-0.574 -1.386 13.000 -0.3827 -0.9239 0.0000
-0.000 -1.500 13.000 -0.0000 -1.0000 0.0000
0.574 -1.386 13.000 0.3827 -0.9239 0.0000
1.061 -1.061 13.000 0.7071 -0.7071 0.0000
1.386 -0.574 13.000 0.9239 -0.3827 0.0000
1.500 -0.000 13.000 1.0000 -0.0000 0.0000
1.386 0.574 13.000 0.9239 0.3827 -0.0000
1.061 1.061 13.000 0.7071 0.7071 -0.0000
0.574 1.386 13.000 0.3827 0.9239 -0.0000
0.000 1.500 13.000 0.0000 1.0000 -0.0000
-0.574 1.386 13.000 -0.3827 0.9239 0.0000
-1.061 1.061 13.000 -0.7071 0.7071 0.0000
-1.386 0.574 13.000 -0.9239 0.3827 0.0000
0.000 0.000 12.850 -0.0000 -0.0000 -1.0000
-1.500 0.000 12.850 -0.0000 -0.0000 -1.0000
-1.386 -0.574 12.850 -0.0000 -0.0000 -1.0000
-1.061 -1.061 12.850 -0.0000 -0.0000 -1.0000
-0.574 -1.386 12.850 -0.0000 -0.0000 -1.0000
-0.000 -1.500 12.850 -0.0000 -0.0000 -1.0000
0.574 -1.386 12.850 -0.0000 -0.0000 -1.0000
1.061 -1.061 12.850 -0.0000 -0.0000 -1.0000
1.386 -0.574 12.850 -0.0000 -0.0000 -1.0000
1.500 -0.000 12.850 -0.0000 -0.0000 -1.0000
1.386 0.574 12.850 -0.0000 -0.0000 -1.0000
1.061 1.061 12.850 -0.0000 -0.0000 -1.0000
0.574 1.386 12.850 -0.0000 -0.0000 -1.0000
0.000 1.500 12.850 -0.0000 -0.0000 -1.0000
-0.574 1.386 12.850 -0.0000 -0.0000 -1.0000
-1.061 1.061 12.850 -0.0000 -0.0000 -1.0000
-1.386 0.574 12.850 -0.0000 -0.0000 -1.0000
0.000 0.000 13.000 0.0000 0.0000 1.0000
-1.500 0.000 13.000 0.0000 0.0000 1.0000
-1.386 -0.574 13.000 0.0000 0.0000 1.0000
-1.061 -1.061 13.000 0.0000 0.0000 1.0000
-0.574 -1.386 13.000 0.0000 0.0000 1.0000
-0.000 -1.500 13.000 0.0000 0.0000 1.0000
0.574 -1.386 13.000 0.0000 0.0000 1.0000
1.061 -1.061 13.000 0.0000 0.0000 1.0000
1.386 -0.574 13.000 0.0000 0.0000 1.0000
1.500 -0.000 13.000 0.0000 0.0000 1.0000
1.386 0.574 13.000 0.0000 0.0000 1.0000
1.061 1.061 13.000 0.0000 0.0000 1.0000
0.574 1.386 13.000 0.0000 0.0000 1.0000
0.000 1.500 13.000 0.0000 0.0000 1.0000
-0.574 1.386 13.000 0.0000 0.0000 1.0000
-1.061 1.061 13.000 0.0000 0.0000 1.0000
-1.386 0.574 13.000 0.0000 0.0000 1.0000
-2.200 1.600 12.400 -1.0000 -0.0000 -0.0000
-2.200 3.000 12.400 -1.0000 -0.0000 -0.0000
-2.200 3.000 12.600 -1.0000 -0.0000 -0.0000
-2.200 1.600 12.600 -1.0000 -0.0000 -0.0000
-0.800 1.600 12.400 1.0000 0.0000 0.0000
-0.800 3.000 12.400 1.0000 0.0000 0.0000
-0.800 3.000 12.600 1.0000 0.0000 0.0000
-0.800 1.600 12.600 1.0000 0.0000 0.0000
-2.200 1.600 12.400 -0.0000 -1.0000 -0.0000
-0.800 1.600 12.400 -0.0000 -1.0000 -0.0000
-0.800 1.600 12.600 -0.0000 -1.0000 -0.0000
-2.200 1.600 12.600 -0.0000 -1.0000 -0.0000
-2.200 3.000 12.400 0.0000 1.0000 0.0000
-0.800 3.000 12.400 0.0000 1.0000 0.0000
-0.800 3.000 12.600 0.0000 1.0000 0.0000
-2.200 3.000 12.600 0.0000 1.0000 0.0000
-2.200 1.600 12.400 -0.0000 -0.0000 -1.0000
-0.800 1.600 12.400 -0.0000 -0.0000 -1.0000
-0.800 3.000 12.400 -0.0000 -0.0000 -1.0000
-2.200 3.000 12.400 -0.0000 -0.0000 -1.0000
-2.200 1.600 12.600 0.0000 0.0000 1.0000
-0.800 1.600 12.600 0.0000 0.0000 1.0000
-0.800 3.000 12.600 0.0000 0.0000 1.0000
-2.200 3.000 12.600 0.0000 0.0000 1.0000
0 1 2
0 2 3
0 3 4
0 4 5
0 5 6
0 6 7
8 10 9
8 11 10
8 12 11
8 13 12
8 14 13
8 15 14
16 18 17
16 19 18
20 22 21
20 23 22
24 26 25
24 27 26
28 30 29
28 31 30
32 34 33
32 35 34
36 38 37
36 39 38
40 42 41
40 43 42
44 46 45
44 47 46
48 49 50
48 50 51
48 51 52
48 52 53
48 53 54
48 54 55
56 58 57
56 59 58
56 60 59
56 61 60
56 62 61
56 63 62
64 66 65
64 67 66
68 70 69
68 71 70
72 74 73
72 75 74
76 78 77
76 79 78
80 82 81
80 83 82
84 86 85
84 87 86
88 90 89
88 91 90
92 94 93
92 95 94
96 97 113
96 113 112
97 98 114
97 114 113
98 99 115
98 115 114
99 100 116
99 116 115
100 101 117
100 117 116
101 102 118
101 118 117
102 103 119
102 119 118
103 104 120
103 120 119
104 105 121
104 121 120
105 106 122
105 122 121
106 107 123
106 123 122
107 108 124
107 124 123
108 109 125
108 125 124
109 110 126
109 126 125
110 111 127
110 127 126
111 96 112
111 112 127
128 130 129
128 131 130
128 132 131
128 133 132
128 134 133
128 135 134
128 136 135
128 137 136
128 138 137
128 139 138
128 140 139
128 141 140
128 142 141
128 143 142
128 144 143
128 129 144
145 146 147
145 147 148
145 148 149
145 149 150
145 150 151
145 151 152
145 152 153
145 153 154
145 154 155
145 155 156
145 156 157
145 157 158
145 158 159
145 159 160
145 160 161
145 161 146
162 163 179
162 179 178
163 164 180
163 180 179
164 165 181
164 181 180
165 166 182
165 182 181
166 167 183
166 183 182
167 168 184
167 184 183
168 169 185
168 185 184
169 170 186
169 186 185
170 171 187
170 187 186
171 172 188
171 188 187
172 173 189
172 189 188
173 174 190
173 190 189
174 175 191
174 191 190
175 176 192
175 192 191
176 177 193
176 193 192
177 162 178
177 178 193
194 196 195
194 197 196
194 198 197
194 199 198
194 200 199
194 201 200
194 202 201
194 203 202
194 204 203
194 205 204
194 206 205
194 207 206
194 208 207
194 209 208
194 210 209
194 195 210
211 212 213
211 213 214
211 214 215
211 215 216
211 216 217
211 217 218
211 218 219
211 219 220
211 220 221
211 221 222
211 222 223
211 223 224
211 224 225
211 225 226
211 226 227
211 227 212
228 230 229
228 231 230
232 233 234
232 234 235
236 237 238
236 238 239
240 242 241
240 243 242
244 246 245
244 247 246
248 249 250
248 250 251
252 253 254
252 254 255
252 255 256
252 256 257
252 257 258
252 258 259
260 262 261
260 263 262
260 264 263
260 265 264
260 266 265
260 267 266
268 270 269
268 271 270
272 274 273
272 275 274
276 278 277
276 279 278
280 282 281
280 283 282
284 286 285
284 287 286
288 290 289
288 291 290
292 294 293
292 295 294
296 298 297
296 299 298
300 301 317
300 317 316
301 302 318
301 318 317
302 303 319
302 319 318
303 304 320
303 320 319
304 305 321
304 321 320
305 306 322
305 322 321
306 307 323
306 323 322
307 308 324
307 324 323
308 309 325
308 325 324
309 310 326
309 326 325
310 311 327
310 327 326
311 312 328
311 328 327
312 313 329
312 329 328
313 314 330
313 330 329
314 315 331
314 331 330
315 300 316
315 316 331
332 334 333
332 335 334
332 336 335
332 337 336
332 338 337
332 339 338
332 340 339
332 341 340
332 342 341
332 343 342
332 344 343
332 345 344
332 346 345
332 347 346
332 348 347
332 333 348
349 350 351
349 351 352
349 352 353
349 353 354
349 354 355
349 355 356
349 356 357
349 357 358
349 358 359
349 359 360
349 360 361
349 361 362
349 362 363
349 363 364
349 364 365
349 365 350
366 367 383
366 383 382
367 368 384
367 384 383
368 369 385
368 385 384
369 370 386
369 386 385
370 371 387
370 387 386
371 372 388
371 388 387
372 373 389
372 389 388
373 374 390
373 390 389
374 375 391
374 391 390
375 376 392
375 392 391
376 377 393
376 393 392
377 378 394
377 394 393
378 379 395
378 395 394
379 380 396
379 396 395
380 381 397
380 397 396
381 366 382
381 382 397
398 400 399
398 401 400
398 402 401
398 403 402
398 404 403
398 405 404
398 406 405
398 407 406
398 408 407
398 409 408
398 410 409
398 411 410
398 412 411
398 413 412
398 414 413
398 399 414
415 416 417
415 417 418
415 418 419
415 419 420
415 420 421
415 421 422
415 422 423
415 423 424
415 424 425
415 425 426
415 426 427
415 427 428
415 428 429
415 429 430
415 430 431
415 431 416
432 434 433
432 435 434
436 437 438
436 438 439
440 441 442
440 442 443
444 446 445
444 447 446
448 450 449
448 451 450
452 453 454
452 454 455
MATERIALS 82
hull_lacquer
nose_iridium
crest_radiator
structure
boron_nitride
engine_metal
mechanism
dark
band
planetary_cup
rover
shuttle
trap_shell
canopy
br_vault
br_floor
br_panel
br_panel_face
br_tub
br_holo
br_screen
br_glow
br_display
br_green
br_red
br_amber
br_seat
br_cushion
br_bezel
br_rib
br_lamp
br_cove
br_vault_lit
br_floor_lit
br_belt
in_floor
in_wall
in_ceiling
in_light
in_furn
in_seat
in_metal
in_wet
in_screen
in_trim
in_green
in_amber
in_red
in_guide
in_btn_dim
in_wall_w
in_floor_w
in_ceil_w
in_metal_w
in_trim_w
in_guide_w
in_fx
in_downlight
in_cove
lift_glass
in_wip
in_btn_cap
in_cablight
in_glass
in_wall_r
in_floor_r
in_ceil_r
in_metal_r
in_dutyred
in_door
in_wall_d
in_floor_d
in_ceil_d
in_metal_d
br_malachite
br_cur_ball
br_cur_lit
br_spot
br_cover
br_glass_disp
br_hud_glass
belly_carbide
MATERIAL hull_lacquer
0.800 0.790 0.760 1.00
0.800 0.790 0.760 1.00
0.300 0.300 0.300 1 20
0.000 0.000 0.000 1
MATERIAL nose_iridium
0.720 0.480 0.180 1.00
0.720 0.480 0.180 1.00
0.950 0.850 0.600 1 80
0.000 0.000 0.000 1
MATERIAL crest_radiator
0.130 0.130 0.140 1.00
0.130 0.130 0.140 1.00
0.150 0.150 0.150 1 10
0.000 0.000 0.000 1
MATERIAL structure
0.260 0.270 0.290 1.00
0.260 0.270 0.290 1.00
0.200 0.200 0.200 1 15
0.000 0.000 0.000 1
MATERIAL boron_nitride
0.620 0.580 0.920 1.00
0.620 0.580 0.920 1.00
0.600 0.600 0.700 1 40
0.080 0.060 0.200 1
MATERIAL engine_metal
0.220 0.220 0.240 1.00
0.220 0.220 0.240 1.00
0.500 0.500 0.500 1 40
0.000 0.000 0.000 1
MATERIAL mechanism
0.540 0.560 0.600 1.00
0.540 0.560 0.600 1.00
0.700 0.700 0.720 1 50
0.000 0.000 0.000 1
MATERIAL dark
0.070 0.070 0.090 1.00
0.070 0.070 0.090 1.00
0.050 0.050 0.050 1 5
0.000 0.000 0.000 1
MATERIAL band
0.300 0.310 0.330 1.00
0.300 0.310 0.330 1.00
0.500 0.550 0.650 1 40
0.000 0.000 0.000 1
MATERIAL planetary_cup
0.600 0.700 0.850 1.00
0.600 0.700 0.850 1.00
0.700 0.700 0.800 1 50
0.030 0.060 0.100 1
MATERIAL rover
0.550 0.480 0.320 1.00
0.550 0.480 0.320 1.00
0.300 0.300 0.300 1 20
0.000 0.000 0.000 1
MATERIAL shuttle
0.850 0.840 0.810 1.00
0.850 0.840 0.810 1.00
0.400 0.400 0.400 1 30
0.000 0.000 0.000 1
MATERIAL trap_shell
0.440 0.470 0.560 1.00
0.440 0.470 0.560 1.00
0.450 0.450 0.500 1 30
0.000 0.000 0.000 1
MATERIAL canopy
0.360 0.370 0.400 1.00
0.360 0.370 0.400 1.00
0.550 0.550 0.600 1 35
0.000 0.000 0.000 1
MATERIAL br_vault
0.150 0.160 0.180 1.00
0.150 0.160 0.180 1.00
0.060 0.060 0.070 1 8
0.026 0.030 0.038 1
MATERIAL br_floor
0.550 0.580 0.620 1.00
0.550 0.580 0.620 1.00
0.350 0.360 0.400 1 40
0.160 0.180 0.210 1
MATERIAL br_panel
0.170 0.180 0.200 1.00
0.170 0.180 0.200 1.00
0.200 0.210 0.240 1 20
0.028 0.032 0.040 1
MATERIAL br_panel_face
0.240 0.250 0.280 1.00
0.240 0.250 0.280 1.00
0.300 0.320 0.360 1 30
0.042 0.047 0.056 1
MATERIAL br_tub
0.300 0.310 0.340 1.00
0.300 0.310 0.340 1.00
0.250 0.260 0.300 1 25
0.050 0.055 0.066 1
MATERIAL br_holo
0.050 0.200 0.260 1.00
0.050 0.200 0.260 1.00
0.000 0.000 0.000 1 1
0.060 0.260 0.340 1
MATERIAL br_screen
0.020 0.030 0.060 1.00
0.020 0.030 0.060 1.00
0.300 0.300 0.400 1 40
0.030 0.050 0.100 1
MATERIAL br_glow
0.400 0.900 1.000 1.00
0.400 0.900 1.000 1.00
0.000 0.000 0.000 1 1
0.300 0.700 0.900 1
MATERIAL br_display
1.000 1.000 1.000 1.00
1.000 1.000 1.000 1.00
0.000 0.000 0.000 1 1
1.000 1.000 1.000 1
MATERIAL br_green
0.300 1.000 0.500 1.00
0.300 1.000 0.500 1.00
0.000 0.000 0.000 1 1
0.200 0.900 0.400 1
MATERIAL br_red
0.900 0.200 0.150 1.00
0.900 0.200 0.150 1.00
0.300 0.100 0.100 1 20
0.500 0.080 0.050 1
MATERIAL br_amber
1.000 0.800 0.300 1.00
1.000 0.800 0.300 1.00
0.000 0.000 0.000 1 1
0.700 0.500 0.100 1
MATERIAL br_seat
0.200 0.210 0.230 1.00
0.200 0.210 0.230 1.00
0.300 0.300 0.350 1 30
0.024 0.026 0.030 1
MATERIAL br_cushion
0.210 0.240 0.290 1.00
0.210 0.240 0.290 1.00
0.100 0.100 0.120 1 10
0.028 0.032 0.040 1
MATERIAL br_bezel
0.620 0.640 0.680 1.00
0.620 0.640 0.680 1.00
0.400 0.410 0.450 1 40
0.075 0.080 0.090 1
MATERIAL br_rib
0.220 0.230 0.260 1.00
0.220 0.230 0.260 1.00
0.300 0.310 0.350 1 30
0.034 0.038 0.046 1
MATERIAL br_lamp
0.800 0.880 1.000 1.00
0.800 0.880 1.000 1.00
0.000 0.000 0.000 1 1
0.620 0.700 0.800 1
MATERIAL br_cove
0.300 0.550 0.800 1.00
0.300 0.550 0.800 1.00
0.000 0.000 0.000 1 1
0.160 0.300 0.460 1
MATERIAL br_vault_lit
0.060 0.060 0.070 1.00
0.060 0.060 0.070 1.00
0.040 0.040 0.050 1 8
1.000 1.000 1.000 1
MATERIAL br_floor_lit
0.080 0.080 0.090 1.00
0.080 0.080 0.090 1.00
0.100 0.100 0.120 1 20
1.000 1.000 1.000 1
MATERIAL br_belt
0.880 0.560 0.160 1.00
0.880 0.560 0.160 1.00
0.100 0.100 0.100 1 10
0.000 0.000 0.000 1
MATERIAL in_floor
0.500 0.500 0.500 1.00
0.500 0.500 0.500 1.00
0.100 0.100 0.100 1 10
0.500 0.500 0.520 1
MATERIAL in_wall
0.450 0.450 0.450 1.00
0.450 0.450 0.450 1.00
0.050 0.050 0.050 1 5
0.600 0.600 0.620 1
MATERIAL in_ceiling
0.450 0.450 0.450 1.00
0.450 0.450 0.450 1.00
0.000 0.000 0.000 1 1
0.550 0.550 0.570 1
MATERIAL in_light
1.000 0.970 0.880 1.00
1.000 0.970 0.880 1.00
0.000 0.000 0.000 1 1
1.000 0.960 0.840 1
MATERIAL in_furn
0.300 0.310 0.340 1.00
0.300 0.310 0.340 1.00
0.100 0.100 0.100 1 10
0.150 0.150 0.170 1
MATERIAL in_seat
0.120 0.150 0.220 1.00
0.120 0.150 0.220 1.00
0.150 0.150 0.200 1 15
0.060 0.080 0.130 1
MATERIAL in_metal
0.500 0.500 0.500 1.00
0.500 0.500 0.500 1.00
0.500 0.500 0.500 1 30
0.550 0.550 0.580 1
MATERIAL in_wet
0.360 0.500 0.550 1.00
0.360 0.500 0.550 1.00
0.200 0.200 0.250 1 20
0.130 0.190 0.210 1
MATERIAL in_screen
0.040 0.080 0.160 1.00
0.040 0.080 0.160 1.00
0.300 0.300 0.400 1 40
0.100 0.280 0.500 1
MATERIAL in_trim
0.600 0.600 0.600 1.00
0.600 0.600 0.600 1.00
0.100 0.100 0.100 1 10
0.500 0.500 0.500 1
MATERIAL in_green
0.100 0.600 0.250 1.00
0.100 0.600 0.250 1.00
0.000 0.000 0.000 1 1
0.150 1.000 0.400 1
MATERIAL in_amber
0.700 0.450 0.050 1.00
0.700 0.450 0.050 1.00
0.000 0.000 0.000 1 1
1.000 0.620 0.080 1
MATERIAL in_red
0.700 0.100 0.080 1.00
0.700 0.100 0.080 1.00
0.000 0.000 0.000 1 1
1.000 0.150 0.100 1
MATERIAL in_guide
0.200 0.500 0.700 1.00
0.200 0.500 0.700 1.00
0.000 0.000 0.000 1 1
0.250 0.750 1.000 1
MATERIAL in_btn_dim
0.160 0.180 0.200 1.00
0.160 0.180 0.200 1.00
0.300 0.300 0.300 1 20
0.040 0.050 0.060 1
MATERIAL in_wall_w
0.500 0.500 0.510 1.00
0.500 0.500 0.510 1.00
0.080 0.080 0.090 1 12
0.065 0.065 0.075 1
MATERIAL in_floor_w
0.500 0.500 0.500 1.00
0.500 0.500 0.500 1.00
0.450 0.450 0.480 1 40
0.040 0.040 0.045 1
MATERIAL in_ceil_w
0.400 0.400 0.410 1.00
0.400 0.400 0.410 1.00
0.000 0.000 0.000 1 1
0.035 0.035 0.040 1
MATERIAL in_metal_w
0.450 0.450 0.470 1.00
0.450 0.450 0.470 1.00
0.400 0.400 0.420 1 30
0.070 0.070 0.080 1
MATERIAL in_trim_w
0.500 0.500 0.500 1.00
0.500 0.500 0.500 1.00
0.100 0.100 0.100 1 10
0.140 0.140 0.140 1
MATERIAL in_guide_w
0.250 0.420 0.420 1.00
0.250 0.420 0.420 1.00
0.000 0.000 0.000 1 1
0.160 0.360 0.380 1
MATERIAL in_fx
1.000 1.000 1.000 1.00
1.000 1.000 1.000 1.00
0.000 0.000 0.000 1 1
1.000 1.000 1.000 1
MATERIAL in_downlight
1.000 0.860 0.620 1.00
1.000 0.860 0.620 1.00
0.000 0.000 0.000 1 1
1.000 0.840 0.580 1
MATERIAL in_cove
0.300 0.400 0.620 1.00
0.300 0.400 0.620 1.00
0.000 0.000 0.000 1 1
0.260 0.360 0.580 1
MATERIAL lift_glass
0.450 0.600 0.700 0.22
0.450 0.600 0.700 0.22
0.800 0.800 0.850 1 60
0.020 0.030 0.040 1
MATERIAL in_wip
0.950 0.420 0.060 1.00
0.950 0.420 0.060 1.00
0.300 0.250 0.200 1 20
0.400 0.170 0.020 1
MATERIAL in_btn_cap
0.550 0.560 0.580 1.00
0.550 0.560 0.580 1.00
0.350 0.350 0.350 1 30
0.300 0.310 0.320 1
MATERIAL in_cablight
0.950 0.930 0.860 1.00
0.950 0.930 0.860 1.00
0.000 0.000 0.000 1 1
0.800 0.770 0.680 1
MATERIAL in_glass
1.000 1.000 1.000 1.00
1.000 1.000 1.000 1.00
0.900 0.900 0.900 1 60
0.120 0.130 0.150 1
MATERIAL in_wall_r
0.400 0.380 0.380 1.00
0.400 0.380 0.380 1.00
0.050 0.050 0.050 1 5
0.050 0.012 0.011 1
MATERIAL in_floor_r
0.400 0.380 0.380 1.00
0.400 0.380 0.380 1.00
0.200 0.200 0.200 1 30
0.032 0.007 0.007 1
MATERIAL in_ceil_r
0.350 0.330 0.330 1.00
0.350 0.330 0.330 1.00
0.000 0.000 0.000 1 1
0.028 0.006 0.006 1
MATERIAL in_metal_r
0.400 0.380 0.380 1.00
0.400 0.380 0.380 1.00
0.300 0.300 0.300 1 30
0.045 0.011 0.010 1
MATERIAL in_dutyred
0.600 0.080 0.050 1.00
0.600 0.080 0.050 1.00
0.000 0.000 0.000 1 1
0.550 0.050 0.030 1
MATERIAL in_door
0.550 0.550 0.560 1.00
0.550 0.550 0.560 1.00
0.250 0.250 0.270 1 25
0.075 0.075 0.080 1
MATERIAL in_wall_d
0.080 0.080 0.085 1.00
0.080 0.080 0.085 1.00
0.020 0.020 0.020 1 5
0.018 0.018 0.020 1
MATERIAL in_floor_d
0.080 0.080 0.080 1.00
0.080 0.080 0.080 1.00
0.050 0.050 0.050 1 10
0.012 0.012 0.013 1
MATERIAL in_ceil_d
0.070 0.070 0.075 1.00
0.070 0.070 0.075 1.00
0.000 0.000 0.000 1 1
0.010 0.010 0.011 1
MATERIAL in_metal_d
0.080 0.080 0.085 1.00
0.080 0.080 0.085 1.00
0.050 0.050 0.050 1 10
0.016 0.016 0.018 1
MATERIAL br_malachite
0.160 0.380 0.310 1.00
0.160 0.380 0.310 1.00
0.400 0.480 0.450 1 35
0.020 0.048 0.040 1
MATERIAL br_cur_ball
0.620 0.860 0.950 0.72
0.620 0.860 0.950 0.72
0.900 0.900 0.900 1 60
0.100 0.260 0.320 1
MATERIAL br_cur_lit
0.780 0.950 1.000 1.00
0.780 0.950 1.000 1.00
0.000 0.000 0.000 1 1
0.780 0.950 1.000 1
MATERIAL br_spot
1.000 0.550 0.120 0.80
1.000 0.550 0.120 0.80
0.000 0.000 0.000 1 1
1.000 0.550 0.120 1
MATERIAL br_cover
1.000 0.350 0.290 0.50
1.000 0.350 0.290 0.50
0.600 0.600 0.600 1 40
0.200 0.040 0.030 1
MATERIAL br_glass_disp
1.000 1.000 1.000 1.00
1.000 1.000 1.000 1.00
0.000 0.000 0.000 1 1
1.000 1.000 1.000 1
MATERIAL br_hud_glass
1.000 1.000 1.000 1.00
1.000 1.000 1.000 1.00
0.000 0.000 0.000 1 1
1.000 1.000 1.000 1
MATERIAL belly_carbide
0.160 0.160 0.170 1.00
0.160 0.160 0.170 1.00
0.150 0.150 0.150 1 10
0.000 0.000 0.000 1
TEXTURES 0
